<?xml version="1.0" encoding="utf-8" standalone="no"?>
<!DOCTYPE svg PUBLIC "-//W3C//DTD SVG 1.1//EN"
  "http://www.w3.org/Graphics/SVG/1.1/DTD/svg11.dtd">
<svg xmlns:xlink="http://www.w3.org/1999/xlink" width="180pt" height="36pt" viewBox="0 0 180 36" xmlns="http://www.w3.org/2000/svg" version="1.1">
 <metadata>
  <rdf:RDF xmlns:dc="http://purl.org/dc/elements/1.1/" xmlns:cc="http://creativecommons.org/ns#" xmlns:rdf="http://www.w3.org/1999/02/22-rdf-syntax-ns#">
   <cc:Work>
    <dc:type rdf:resource="http://purl.org/dc/dcmitype/StillImage"/>
    <dc:date>2024-11-14T13:55:54.488952</dc:date>
    <dc:format>image/svg+xml</dc:format>
    <dc:creator>
     <cc:Agent>
      <dc:title>Matplotlib v3.9.1, https://matplotlib.org/</dc:title>
     </cc:Agent>
    </dc:creator>
   </cc:Work>
  </rdf:RDF>
 </metadata>
 <defs>
  <style type="text/css">*{stroke-linejoin: round; stroke-linecap: butt}</style>
 </defs>
 <g id="figure_1">
  <g id="patch_1">
   <path d="M 0 36 
L 180 36 
L 180 0 
L 0 0 
L 0 36 
z
" style="fill: none"/>
  </g>
  <g id="axes_1">
   <g id="patch_2">
    <path d="M 22.5 32.04 
L 162 32.04 
L 162 4.32 
L 22.5 4.32 
L 22.5 32.04 
z
" style="fill: none"/>
   </g>
   <g id="matplotlib.axis_1">
    <g id="xtick_1"/>
    <g id="xtick_2"/>
    <g id="xtick_3"/>
    <g id="xtick_4"/>
   </g>
   <g id="matplotlib.axis_2">
    <g id="ytick_1"/>
    <g id="ytick_2"/>
   </g>
   <g id="line2d_1">
    <path d="M 28.840909 23.706316 
L 30.954545 17.074737 
L 33.068182 23.374737 
L 35.181818 17.737895 
L 37.295455 20.169474 
L 39.409091 24.369474 
L 41.522727 23.706316 
L 43.636364 25.364211 
L 45.75 24.701053 
L 47.863636 28.016842 
L 49.977273 18.953684 
L 52.090909 23.927368 
L 54.204545 26.469474 
L 56.318182 26.690526 
L 58.431818 25.253684 
L 60.545455 24.922105 
L 62.659091 16.411579 
L 64.772727 20.28 
L 66.886364 24.922105 
L 69 23.485263 
L 71.113636 27.243158 
L 73.227273 25.806316 
L 75.340909 25.032632 
L 77.454545 21.937895 
L 79.568182 29.011579 
L 81.681818 22.822105 
L 83.795455 23.153684 
L 85.909091 25.585263 
L 88.022727 23.595789 
L 90.136364 26.690526 
L 92.25 27.022105 
L 94.363636 25.474737 
L 96.477273 25.585263 
L 98.590909 26.801053 
L 100.704545 28.569474 
L 102.818182 27.243158 
L 104.931818 26.137895 
L 107.045455 19.174737 
L 109.159091 21.274737 
L 111.272727 21.716842 
L 113.386364 25.364211 
L 115.5 25.806316 
L 117.613636 23.706316 
L 119.727273 25.474737 
L 121.840909 26.690526 
L 123.954545 25.143158 
L 126.068182 22.269474 
L 128.181818 16.632632 
L 130.295455 22.601053 
L 132.409091 23.706316 
L 134.522727 21.385263 
L 136.636364 21.716842 
L 138.75 23.485263 
L 140.863636 25.695789 
L 142.977273 19.064211 
L 145.090909 15.858947 
L 147.204545 15.748421 
L 149.318182 21.053684 
L 151.431818 16.301053 
L 153.545455 9.448421 
L 155.659091 20.722105 
" clip-path="url(#pd9b0fcc045)" style="fill: none; stroke: #1f77b4; stroke-width: 2; stroke-linecap: square"/>
   </g>
   <g id="line2d_2">
    <path d="M 28.840909 26.690526 
L 30.954545 30.78 
L 33.068182 29.564211 
L 35.181818 24.811579 
L 37.295455 27.353684 
L 39.409091 26.690526 
L 41.522727 29.453684 
L 43.636364 27.243158 
L 45.75 28.016842 
L 47.863636 19.837895 
L 49.977273 12.543158 
L 52.090909 23.374737 
L 54.204545 25.585263 
L 56.318182 23.485263 
L 58.431818 15.858947 
L 60.545455 19.285263 
L 62.659091 22.932632 
L 64.772727 25.916842 
L 66.886364 19.174737 
L 69 20.611579 
L 71.113636 20.058947 
L 73.227273 20.722105 
L 75.340909 18.953684 
L 77.454545 18.511579 
L 79.568182 17.737895 
L 81.681818 21.495789 
L 83.795455 21.495789 
L 85.909091 19.506316 
L 88.022727 27.132632 
L 90.136364 24.148421 
L 92.25 17.737895 
L 94.363636 23.816842 
L 96.477273 24.148421 
L 98.590909 21.716842 
L 100.704545 18.622105 
L 102.818182 15.858947 
L 104.931818 21.716842 
L 107.045455 12.432632 
L 109.159091 18.069474 
L 111.272727 17.737895 
L 113.386364 11.548421 
L 115.5 11.437895 
L 117.613636 14.201053 
L 119.727273 16.632632 
L 121.840909 15.748421 
L 123.954545 12.985263 
L 126.068182 8.232632 
L 128.181818 13.758947 
L 130.295455 8.343158 
L 132.409091 11.106316 
L 134.522727 15.858947 
L 136.636364 17.848421 
L 138.75 8.895789 
L 140.863636 16.08 
L 142.977273 12.874737 
L 145.090909 17.295789 
L 147.204545 15.416842 
L 149.318182 18.290526 
L 151.431818 8.011579 
L 153.545455 5.58 
L 155.659091 13.316842 
" clip-path="url(#pd9b0fcc045)" style="fill: none; stroke: #ff7f0e; stroke-width: 2; stroke-linecap: square"/>
   </g>
   <g id="patch_3">
    <path d="M 22.5 32.04 
L 22.5 4.32 
" style="fill: none; stroke: #000000; stroke-width: 0.8; stroke-linejoin: miter; stroke-linecap: square"/>
   </g>
   <g id="patch_4">
    <path d="M 162 32.04 
L 162 4.32 
" style="fill: none; stroke: #000000; stroke-width: 0.8; stroke-linejoin: miter; stroke-linecap: square"/>
   </g>
   <g id="patch_5">
    <path d="M 22.5 32.04 
L 162 32.04 
" style="fill: none; stroke: #000000; stroke-width: 0.8; stroke-linejoin: miter; stroke-linecap: square"/>
   </g>
   <g id="patch_6">
    <path d="M 22.5 4.32 
L 162 4.32 
" style="fill: none; stroke: #000000; stroke-width: 0.8; stroke-linejoin: miter; stroke-linecap: square"/>
   </g>
  </g>
 </g>
 <defs>
  <clipPath id="pd9b0fcc045">
   <rect x="22.5" y="4.32" width="139.5" height="27.72"/>
  </clipPath>
 </defs>
</svg>
