<?xml version="1.0" encoding="utf-8" standalone="no"?>
<!DOCTYPE svg PUBLIC "-//W3C//DTD SVG 1.1//EN"
  "http://www.w3.org/Graphics/SVG/1.1/DTD/svg11.dtd">
<svg xmlns:xlink="http://www.w3.org/1999/xlink" width="180pt" height="36pt" viewBox="0 0 180 36" xmlns="http://www.w3.org/2000/svg" version="1.1">
 <metadata>
  <rdf:RDF xmlns:dc="http://purl.org/dc/elements/1.1/" xmlns:cc="http://creativecommons.org/ns#" xmlns:rdf="http://www.w3.org/1999/02/22-rdf-syntax-ns#">
   <cc:Work>
    <dc:type rdf:resource="http://purl.org/dc/dcmitype/StillImage"/>
    <dc:date>2024-11-14T13:55:54.725475</dc:date>
    <dc:format>image/svg+xml</dc:format>
    <dc:creator>
     <cc:Agent>
      <dc:title>Matplotlib v3.9.1, https://matplotlib.org/</dc:title>
     </cc:Agent>
    </dc:creator>
   </cc:Work>
  </rdf:RDF>
 </metadata>
 <defs>
  <style type="text/css">*{stroke-linejoin: round; stroke-linecap: butt}</style>
 </defs>
 <g id="figure_1">
  <g id="patch_1">
   <path d="M 0 36 
L 180 36 
L 180 0 
L 0 0 
L 0 36 
z
" style="fill: none"/>
  </g>
  <g id="axes_1">
   <g id="patch_2">
    <path d="M 22.5 32.04 
L 162 32.04 
L 162 4.32 
L 22.5 4.32 
L 22.5 32.04 
z
" style="fill: none"/>
   </g>
   <g id="matplotlib.axis_1">
    <g id="xtick_1"/>
    <g id="xtick_2"/>
    <g id="xtick_3"/>
    <g id="xtick_4"/>
   </g>
   <g id="matplotlib.axis_2">
    <g id="ytick_1"/>
    <g id="ytick_2"/>
   </g>
   <g id="line2d_1">
    <path d="M 28.840909 19.948421 
L 30.954545 17.958947 
L 33.068182 22.085263 
L 35.181818 20.685263 
L 37.295455 24.516842 
L 39.409091 25.253684 
L 41.522727 22.38 
L 43.636364 21.937895 
L 45.75 17.811579 
L 47.863636 24.811579 
L 49.977273 25.18 
L 52.090909 22.38 
L 54.204545 21.716842 
L 56.318182 21.201053 
L 58.431818 18.916842 
L 60.545455 25.695789 
L 62.659091 28.569474 
L 64.772727 30.190526 
L 66.886364 29.085263 
L 69 29.011579 
L 71.113636 28.643158 
L 73.227273 23.853684 
L 75.340909 23.706316 
L 77.454545 21.422105 
L 79.568182 22.969474 
L 81.681818 30.78 
L 83.795455 29.674737 
L 85.909091 24.074737 
L 88.022727 15.601053 
L 90.136364 18.622105 
L 92.25 23.558947 
L 94.363636 25.106316 
L 96.477273 27.98 
L 98.590909 23.190526 
L 100.704545 23.927368 
L 102.818182 19.874737 
L 104.931818 21.569474 
L 107.045455 23.116842 
L 109.159091 16.558947 
L 111.272727 23.706316 
L 113.386364 21.274737 
L 115.5 22.38 
L 117.613636 20.022105 
L 119.727273 19.137895 
L 121.840909 16.116842 
L 123.954545 20.537895 
L 126.068182 20.832632 
L 128.181818 23.116842 
L 130.295455 22.895789 
L 132.409091 20.095789 
L 134.522727 21.422105 
L 136.636364 19.801053 
L 138.75 13.022105 
L 140.863636 14.127368 
L 142.977273 20.832632 
L 145.090909 13.98 
L 147.204545 21.937895 
L 149.318182 20.611579 
L 151.431818 19.58 
L 153.545455 22.232632 
L 155.659091 20.022105 
" clip-path="url(#p7ea7f75c20)" style="fill: none; stroke: #1f77b4; stroke-width: 2; stroke-linecap: square"/>
   </g>
   <g id="line2d_2">
    <path d="M 28.840909 17.148421 
L 30.954545 17.516842 
L 33.068182 16.927368 
L 35.181818 15.011579 
L 37.295455 14.053684 
L 39.409091 17.443158 
L 41.522727 22.895789 
L 43.636364 21.053684 
L 45.75 13.316842 
L 47.863636 20.316842 
L 49.977273 17.737895 
L 52.090909 22.527368 
L 54.204545 20.537895 
L 56.318182 22.38 
L 58.431818 21.937895 
L 60.545455 18.106316 
L 62.659091 20.464211 
L 64.772727 24.148421 
L 66.886364 22.601053 
L 69 19.137895 
L 71.113636 22.748421 
L 73.227273 19.506316 
L 75.340909 22.453684 
L 77.454545 16.78 
L 79.568182 14.422105 
L 81.681818 14.937895 
L 83.795455 23.190526 
L 85.909091 25.106316 
L 88.022727 24.148421 
L 90.136364 21.422105 
L 92.25 23.043158 
L 94.363636 18.843158 
L 96.477273 23.853684 
L 98.590909 21.127368 
L 100.704545 19.653684 
L 102.818182 20.685263 
L 104.931818 24.295789 
L 107.045455 21.716842 
L 109.159091 16.043158 
L 111.272727 16.337895 
L 113.386364 16.558947 
L 115.5 11.106316 
L 117.613636 13.464211 
L 119.727273 22.232632 
L 121.840909 23.632632 
L 123.954545 23.264211 
L 126.068182 14.053684 
L 128.181818 17.148421 
L 130.295455 13.095789 
L 132.409091 11.032632 
L 134.522727 5.58 
L 136.636364 16.411579 
L 138.75 15.232632 
L 140.863636 20.611579 
L 142.977273 24.295789 
L 145.090909 16.632632 
L 147.204545 16.706316 
L 149.318182 15.748421 
L 151.431818 15.232632 
L 153.545455 12.727368 
L 155.659091 18.327368 
" clip-path="url(#p7ea7f75c20)" style="fill: none; stroke: #ff7f0e; stroke-width: 2; stroke-linecap: square"/>
   </g>
   <g id="patch_3">
    <path d="M 22.5 32.04 
L 22.5 4.32 
" style="fill: none; stroke: #000000; stroke-width: 0.8; stroke-linejoin: miter; stroke-linecap: square"/>
   </g>
   <g id="patch_4">
    <path d="M 162 32.04 
L 162 4.32 
" style="fill: none; stroke: #000000; stroke-width: 0.8; stroke-linejoin: miter; stroke-linecap: square"/>
   </g>
   <g id="patch_5">
    <path d="M 22.5 32.04 
L 162 32.04 
" style="fill: none; stroke: #000000; stroke-width: 0.8; stroke-linejoin: miter; stroke-linecap: square"/>
   </g>
   <g id="patch_6">
    <path d="M 22.5 4.32 
L 162 4.32 
" style="fill: none; stroke: #000000; stroke-width: 0.8; stroke-linejoin: miter; stroke-linecap: square"/>
   </g>
  </g>
 </g>
 <defs>
  <clipPath id="p7ea7f75c20">
   <rect x="22.5" y="4.32" width="139.5" height="27.72"/>
  </clipPath>
 </defs>
</svg>
