<?xml version="1.0" encoding="utf-8" standalone="no"?>
<!DOCTYPE svg PUBLIC "-//W3C//DTD SVG 1.1//EN"
  "http://www.w3.org/Graphics/SVG/1.1/DTD/svg11.dtd">
<svg xmlns:xlink="http://www.w3.org/1999/xlink" width="180pt" height="36pt" viewBox="0 0 180 36" xmlns="http://www.w3.org/2000/svg" version="1.1">
 <metadata>
  <rdf:RDF xmlns:dc="http://purl.org/dc/elements/1.1/" xmlns:cc="http://creativecommons.org/ns#" xmlns:rdf="http://www.w3.org/1999/02/22-rdf-syntax-ns#">
   <cc:Work>
    <dc:type rdf:resource="http://purl.org/dc/dcmitype/StillImage"/>
    <dc:date>2024-11-14T13:55:54.033185</dc:date>
    <dc:format>image/svg+xml</dc:format>
    <dc:creator>
     <cc:Agent>
      <dc:title>Matplotlib v3.9.1, https://matplotlib.org/</dc:title>
     </cc:Agent>
    </dc:creator>
   </cc:Work>
  </rdf:RDF>
 </metadata>
 <defs>
  <style type="text/css">*{stroke-linejoin: round; stroke-linecap: butt}</style>
 </defs>
 <g id="figure_1">
  <g id="patch_1">
   <path d="M 0 36 
L 180 36 
L 180 0 
L 0 0 
L 0 36 
z
" style="fill: none"/>
  </g>
  <g id="axes_1">
   <g id="patch_2">
    <path d="M 22.5 32.04 
L 162 32.04 
L 162 4.32 
L 22.5 4.32 
L 22.5 32.04 
z
" style="fill: none"/>
   </g>
   <g id="matplotlib.axis_1">
    <g id="xtick_1"/>
    <g id="xtick_2"/>
    <g id="xtick_3"/>
    <g id="xtick_4"/>
   </g>
   <g id="matplotlib.axis_2">
    <g id="ytick_1"/>
    <g id="ytick_2"/>
   </g>
   <g id="line2d_1">
    <path d="M 28.840909 30.455884 
L 30.954545 30.536913 
L 33.068182 30.78 
L 35.181818 29.402508 
L 37.295455 29.645595 
L 39.409091 29.321479 
L 41.522727 28.754277 
L 43.636364 27.943987 
L 45.75 29.645595 
L 47.863636 29.24045 
L 49.977273 28.997363 
L 52.090909 28.430161 
L 54.204545 28.430161 
L 56.318182 29.078392 
L 58.431818 28.997363 
L 60.545455 28.916334 
L 62.659091 29.24045 
L 64.772727 28.349132 
L 66.886364 29.645595 
L 69 28.592219 
L 71.113636 26.809582 
L 73.227273 27.133698 
L 75.340909 25.351061 
L 77.454545 25.918264 
L 79.568182 27.538842 
L 81.681818 27.862958 
L 83.795455 26.323408 
L 85.909091 26.16135 
L 88.022727 21.866817 
L 90.136364 22.434019 
L 92.25 21.704759 
L 94.363636 25.513119 
L 96.477273 20.246238 
L 98.590909 22.677106 
L 100.704545 22.190932 
L 102.818182 25.43209 
L 104.931818 28.187074 
L 107.045455 26.809582 
L 109.159091 28.025016 
L 111.272727 27.862958 
L 113.386364 27.538842 
L 115.5 27.457814 
L 117.613636 27.781929 
L 119.727273 26.890611 
L 121.840909 27.781929 
L 123.954545 21.947846 
L 126.068182 19.030804 
L 128.181818 12.629518 
L 130.295455 20.08418 
L 132.409091 22.35299 
L 134.522727 20.003151 
L 136.636364 19.516977 
L 138.75 16.032733 
L 140.863636 16.356849 
L 142.977273 19.598006 
L 145.090909 21.704759 
L 147.204545 20.327267 
L 149.318182 20.327267 
L 151.431818 22.677106 
L 153.545455 21.542701 
L 155.659091 23.487395 
" clip-path="url(#p6ce5eaad16)" style="fill: none; stroke: #1f77b4; stroke-width: 2; stroke-linecap: square"/>
   </g>
   <g id="line2d_2">
    <path d="M 28.840909 28.916334 
L 30.954545 29.159421 
L 33.068182 28.349132 
L 35.181818 28.835305 
L 37.295455 29.159421 
L 39.409091 27.943987 
L 41.522727 29.645595 
L 43.636364 29.24045 
L 45.75 28.51119 
L 47.863636 27.862958 
L 49.977273 28.430161 
L 52.090909 26.97164 
L 54.204545 25.999293 
L 56.318182 23.649453 
L 58.431818 22.920193 
L 60.545455 23.730482 
L 62.659091 23.89254 
L 64.772727 20.408296 
L 66.886364 16.356849 
L 69 8.010868 
L 71.113636 14.979357 
L 73.227273 11.819228 
L 75.340909 17.167138 
L 77.454545 13.925981 
L 79.568182 16.032733 
L 81.681818 7.84881 
L 83.795455 12.872605 
L 85.909091 5.58 
L 88.022727 14.493183 
L 90.136364 19.35492 
L 92.25 19.598006 
L 94.363636 19.516977 
L 96.477273 22.677106 
L 98.590909 17.896399 
L 100.704545 20.165209 
L 102.818182 14.574212 
L 104.931818 13.439807 
L 107.045455 16.437878 
L 109.159091 21.461672 
L 111.272727 25.594148 
L 113.386364 24.459743 
L 115.5 17.491254 
L 117.613636 19.435949 
L 119.727273 15.141415 
L 121.840909 17.734341 
L 123.954545 19.679035 
L 126.068182 22.028875 
L 128.181818 22.271961 
L 130.295455 21.542701 
L 132.409091 23.89254 
L 134.522727 23.082251 
L 136.636364 22.758135 
L 138.75 23.082251 
L 140.863636 25.675177 
L 142.977273 21.947846 
L 145.090909 24.459743 
L 147.204545 22.515048 
L 149.318182 24.459743 
L 151.431818 25.513119 
L 153.545455 25.43209 
L 155.659091 24.459743 
" clip-path="url(#p6ce5eaad16)" style="fill: none; stroke: #ff7f0e; stroke-width: 2; stroke-linecap: square"/>
   </g>
   <g id="patch_3">
    <path d="M 22.5 32.04 
L 22.5 4.32 
" style="fill: none; stroke: #000000; stroke-width: 0.8; stroke-linejoin: miter; stroke-linecap: square"/>
   </g>
   <g id="patch_4">
    <path d="M 162 32.04 
L 162 4.32 
" style="fill: none; stroke: #000000; stroke-width: 0.8; stroke-linejoin: miter; stroke-linecap: square"/>
   </g>
   <g id="patch_5">
    <path d="M 22.5 32.04 
L 162 32.04 
" style="fill: none; stroke: #000000; stroke-width: 0.8; stroke-linejoin: miter; stroke-linecap: square"/>
   </g>
   <g id="patch_6">
    <path d="M 22.5 4.32 
L 162 4.32 
" style="fill: none; stroke: #000000; stroke-width: 0.8; stroke-linejoin: miter; stroke-linecap: square"/>
   </g>
  </g>
 </g>
 <defs>
  <clipPath id="p6ce5eaad16">
   <rect x="22.5" y="4.32" width="139.5" height="27.72"/>
  </clipPath>
 </defs>
</svg>
