<?xml version="1.0" encoding="utf-8" standalone="no"?>
<!DOCTYPE svg PUBLIC "-//W3C//DTD SVG 1.1//EN"
  "http://www.w3.org/Graphics/SVG/1.1/DTD/svg11.dtd">
<svg xmlns:xlink="http://www.w3.org/1999/xlink" width="180pt" height="36pt" viewBox="0 0 180 36" xmlns="http://www.w3.org/2000/svg" version="1.1">
 <metadata>
  <rdf:RDF xmlns:dc="http://purl.org/dc/elements/1.1/" xmlns:cc="http://creativecommons.org/ns#" xmlns:rdf="http://www.w3.org/1999/02/22-rdf-syntax-ns#">
   <cc:Work>
    <dc:type rdf:resource="http://purl.org/dc/dcmitype/StillImage"/>
    <dc:date>2024-11-14T13:55:53.882128</dc:date>
    <dc:format>image/svg+xml</dc:format>
    <dc:creator>
     <cc:Agent>
      <dc:title>Matplotlib v3.9.1, https://matplotlib.org/</dc:title>
     </cc:Agent>
    </dc:creator>
   </cc:Work>
  </rdf:RDF>
 </metadata>
 <defs>
  <style type="text/css">*{stroke-linejoin: round; stroke-linecap: butt}</style>
 </defs>
 <g id="figure_1">
  <g id="patch_1">
   <path d="M 0 36 
L 180 36 
L 180 0 
L 0 0 
L 0 36 
z
" style="fill: none"/>
  </g>
  <g id="axes_1">
   <g id="patch_2">
    <path d="M 22.5 32.04 
L 162 32.04 
L 162 4.32 
L 22.5 4.32 
L 22.5 32.04 
z
" style="fill: none"/>
   </g>
   <g id="matplotlib.axis_1">
    <g id="xtick_1"/>
    <g id="xtick_2"/>
    <g id="xtick_3"/>
    <g id="xtick_4"/>
   </g>
   <g id="matplotlib.axis_2">
    <g id="ytick_1"/>
    <g id="ytick_2"/>
   </g>
   <g id="line2d_1">
    <path d="M 28.840909 28.727883 
L 30.954545 30.041238 
L 33.068182 29.794984 
L 35.181818 30.697915 
L 37.295455 28.15329 
L 39.409091 29.794984 
L 41.522727 27.742866 
L 43.636364 28.481629 
L 45.75 26.101173 
L 47.863636 30.533746 
L 49.977273 30.697915 
L 52.090909 29.630814 
L 54.204545 28.892052 
L 56.318182 29.794984 
L 58.431818 25.937003 
L 60.545455 24.295309 
L 62.659091 25.690749 
L 64.772727 22.489446 
L 66.886364 19.041889 
L 69 15.758502 
L 71.113636 7.303779 
L 73.227273 8.370879 
L 75.340909 13.870554 
L 77.454545 17.64645 
L 79.568182 17.728534 
L 81.681818 13.131792 
L 83.795455 12.064691 
L 85.909091 18.221042 
L 88.022727 18.221042 
L 90.136364 12.22886 
L 92.25 18.631466 
L 94.363636 14.691401 
L 96.477273 17.48228 
L 98.590909 17.48228 
L 100.704545 19.288143 
L 102.818182 17.071857 
L 104.931818 23.146124 
L 107.045455 26.75785 
L 109.159091 22.325277 
L 111.272727 24.951987 
L 113.386364 20.847752 
L 115.5 18.467296 
L 117.613636 21.011922 
L 119.727273 16.25101 
L 121.840909 12.064691 
L 123.954545 11.654267 
L 126.068182 16.825603 
L 128.181818 21.340261 
L 130.295455 16.08684 
L 132.409091 16.168925 
L 134.522727 15.512248 
L 136.636364 18.385212 
L 138.75 7.632117 
L 140.863636 12.721368 
L 142.977273 22.325277 
L 145.090909 17.64645 
L 147.204545 16.333094 
L 149.318182 19.452313 
L 151.431818 11.818436 
L 153.545455 15.265993 
L 155.659091 9.60215 
" clip-path="url(#p23d2527a2b)" style="fill: none; stroke: #1f77b4; stroke-width: 2; stroke-linecap: square"/>
   </g>
   <g id="line2d_2">
    <path d="M 28.840909 30.205407 
L 30.954545 30.78 
L 33.068182 29.712899 
L 35.181818 29.302476 
L 37.295455 29.220391 
L 39.409091 28.974137 
L 41.522727 28.727883 
L 43.636364 29.138306 
L 45.75 27.004104 
L 47.863636 29.877068 
L 49.977273 27.086189 
L 52.090909 28.071205 
L 54.204545 26.839935 
L 56.318182 28.645798 
L 58.431818 27.989121 
L 60.545455 28.892052 
L 62.659091 29.38456 
L 64.772727 23.638632 
L 66.886364 21.258176 
L 69 20.519414 
L 71.113636 19.616482 
L 73.227273 15.348078 
L 75.340909 20.683583 
L 77.454545 16.907687 
L 79.568182 16.004756 
L 81.681818 18.303127 
L 83.795455 20.929837 
L 85.909091 23.638632 
L 88.022727 19.944821 
L 90.136364 18.549381 
L 92.25 15.512248 
L 94.363636 19.534397 
L 96.477273 14.691401 
L 98.590909 16.415179 
L 100.704545 15.019739 
L 102.818182 14.937655 
L 104.931818 11.572182 
L 107.045455 8.370879 
L 109.159091 14.527231 
L 111.272727 14.773485 
L 113.386364 11.243844 
L 115.5 12.393029 
L 117.613636 11.654267 
L 119.727273 17.153941 
L 121.840909 20.519414 
L 123.954545 15.265993 
L 126.068182 15.840586 
L 128.181818 8.781303 
L 130.295455 7.303779 
L 132.409091 13.46013 
L 134.522727 13.049707 
L 136.636364 14.527231 
L 138.75 10.176743 
L 140.863636 16.743518 
L 142.977273 14.034723 
L 145.090909 12.064691 
L 147.204545 9.109642 
L 149.318182 13.6243 
L 151.431818 13.706384 
L 153.545455 9.520065 
L 155.659091 5.58 
" clip-path="url(#p23d2527a2b)" style="fill: none; stroke: #ff7f0e; stroke-width: 2; stroke-linecap: square"/>
   </g>
   <g id="patch_3">
    <path d="M 22.5 32.04 
L 22.5 4.32 
" style="fill: none; stroke: #000000; stroke-width: 0.8; stroke-linejoin: miter; stroke-linecap: square"/>
   </g>
   <g id="patch_4">
    <path d="M 162 32.04 
L 162 4.32 
" style="fill: none; stroke: #000000; stroke-width: 0.8; stroke-linejoin: miter; stroke-linecap: square"/>
   </g>
   <g id="patch_5">
    <path d="M 22.5 32.04 
L 162 32.04 
" style="fill: none; stroke: #000000; stroke-width: 0.8; stroke-linejoin: miter; stroke-linecap: square"/>
   </g>
   <g id="patch_6">
    <path d="M 22.5 4.32 
L 162 4.32 
" style="fill: none; stroke: #000000; stroke-width: 0.8; stroke-linejoin: miter; stroke-linecap: square"/>
   </g>
  </g>
 </g>
 <defs>
  <clipPath id="p23d2527a2b">
   <rect x="22.5" y="4.32" width="139.5" height="27.72"/>
  </clipPath>
 </defs>
</svg>
