<?xml version="1.0" encoding="utf-8" standalone="no"?>
<!DOCTYPE svg PUBLIC "-//W3C//DTD SVG 1.1//EN"
  "http://www.w3.org/Graphics/SVG/1.1/DTD/svg11.dtd">
<svg xmlns:xlink="http://www.w3.org/1999/xlink" width="180pt" height="36pt" viewBox="0 0 180 36" xmlns="http://www.w3.org/2000/svg" version="1.1">
 <metadata>
  <rdf:RDF xmlns:dc="http://purl.org/dc/elements/1.1/" xmlns:cc="http://creativecommons.org/ns#" xmlns:rdf="http://www.w3.org/1999/02/22-rdf-syntax-ns#">
   <cc:Work>
    <dc:type rdf:resource="http://purl.org/dc/dcmitype/StillImage"/>
    <dc:date>2024-11-14T13:55:53.952393</dc:date>
    <dc:format>image/svg+xml</dc:format>
    <dc:creator>
     <cc:Agent>
      <dc:title>Matplotlib v3.9.1, https://matplotlib.org/</dc:title>
     </cc:Agent>
    </dc:creator>
   </cc:Work>
  </rdf:RDF>
 </metadata>
 <defs>
  <style type="text/css">*{stroke-linejoin: round; stroke-linecap: butt}</style>
 </defs>
 <g id="figure_1">
  <g id="patch_1">
   <path d="M 0 36 
L 180 36 
L 180 0 
L 0 0 
L 0 36 
z
" style="fill: none"/>
  </g>
  <g id="axes_1">
   <g id="patch_2">
    <path d="M 22.5 32.04 
L 162 32.04 
L 162 4.32 
L 22.5 4.32 
L 22.5 32.04 
z
" style="fill: none"/>
   </g>
   <g id="matplotlib.axis_1">
    <g id="xtick_1"/>
    <g id="xtick_2"/>
    <g id="xtick_3"/>
    <g id="xtick_4"/>
   </g>
   <g id="matplotlib.axis_2">
    <g id="ytick_1"/>
    <g id="ytick_2"/>
   </g>
   <g id="line2d_1">
    <path d="M 28.840909 16.430992 
L 30.954545 18.644023 
L 33.068182 25.49728 
L 35.181818 25.068952 
L 37.295455 23.569802 
L 39.409091 21.142606 
L 41.522727 21.570935 
L 43.636364 19.143739 
L 45.75 18.715411 
L 47.863636 21.927875 
L 49.977273 19.000963 
L 52.090909 21.856487 
L 54.204545 23.712578 
L 56.318182 24.854788 
L 58.431818 24.497847 
L 60.545455 23.355637 
L 62.659091 23.284249 
L 64.772727 21.285382 
L 66.886364 18.144306 
L 69 22.998697 
L 71.113636 25.925609 
L 73.227273 26.63949 
L 75.340909 27.853088 
L 77.454545 30.351671 
L 79.568182 23.64119 
L 81.681818 21.999263 
L 83.795455 25.996997 
L 85.909091 30.78 
L 88.022727 29.138074 
L 90.136364 23.355637 
L 92.25 28.566969 
L 94.363636 27.496147 
L 96.477273 25.49728 
L 98.590909 23.783966 
L 100.704545 21.713711 
L 102.818182 17.359037 
L 104.931818 21.285382 
L 107.045455 21.927875 
L 109.159091 22.855921 
L 111.272727 25.354504 
L 113.386364 20.357337 
L 115.5 19.929008 
L 117.613636 18.501246 
L 119.727273 24.140907 
L 121.840909 23.212861 
L 123.954545 21.213994 
L 126.068182 20.428725 
L 128.181818 21.856487 
L 130.295455 12.504646 
L 132.409091 17.787365 
L 134.522727 19.786232 
L 136.636364 16.930708 
L 138.75 16.930708 
L 140.863636 10.363003 
L 142.977273 12.076317 
L 145.090909 13.361303 
L 147.204545 17.430425 
L 149.318182 19.429292 
L 151.431818 19.072351 
L 153.545455 22.284816 
L 155.659091 24.926176 
" clip-path="url(#p09d8d4dd84)" style="fill: none; stroke: #1f77b4; stroke-width: 2; stroke-linecap: square"/>
   </g>
   <g id="line2d_2">
    <path d="M 28.840909 24.783399 
L 30.954545 25.068952 
L 33.068182 19.85762 
L 35.181818 23.926742 
L 37.295455 23.712578 
L 39.409091 20.571501 
L 41.522727 19.85762 
L 43.636364 19.215127 
L 45.75 20.000397 
L 47.863636 17.930142 
L 49.977273 23.070085 
L 52.090909 24.783399 
L 54.204545 27.424759 
L 56.318182 26.925042 
L 58.431818 26.925042 
L 60.545455 23.569802 
L 62.659091 19.572068 
L 64.772727 21.499547 
L 66.886364 18.072918 
L 69 15.36017 
L 71.113636 16.359603 
L 73.227273 17.787365 
L 75.340909 15.36017 
L 77.454545 13.932408 
L 79.568182 16.573768 
L 81.681818 15.217394 
L 83.795455 24.212295 
L 85.909091 21.570935 
L 88.022727 17.644589 
L 90.136364 18.144306 
L 92.25 15.645722 
L 94.363636 13.432691 
L 96.477273 17.501813 
L 98.590909 18.429858 
L 100.704545 10.719943 
L 102.818182 15.36017 
L 104.931818 16.85932 
L 107.045455 18.00153 
L 109.159091 21.428159 
L 111.272727 18.215694 
L 113.386364 13.646856 
L 115.5 11.005496 
L 117.613636 15.217394 
L 119.727273 13.432691 
L 121.840909 13.147139 
L 123.954545 15.502946 
L 126.068182 21.142606 
L 128.181818 19.929008 
L 130.295455 11.505212 
L 132.409091 12.36187 
L 134.522727 9.577734 
L 136.636364 5.794164 
L 138.75 5.58 
L 140.863636 8.435524 
L 142.977273 7.507479 
L 145.090909 8.22136 
L 147.204545 8.649688 
L 149.318182 8.149972 
L 151.431818 8.435524 
L 153.545455 15.71711 
L 155.659091 15.788499 
" clip-path="url(#p09d8d4dd84)" style="fill: none; stroke: #ff7f0e; stroke-width: 2; stroke-linecap: square"/>
   </g>
   <g id="patch_3">
    <path d="M 22.5 32.04 
L 22.5 4.32 
" style="fill: none; stroke: #000000; stroke-width: 0.8; stroke-linejoin: miter; stroke-linecap: square"/>
   </g>
   <g id="patch_4">
    <path d="M 162 32.04 
L 162 4.32 
" style="fill: none; stroke: #000000; stroke-width: 0.8; stroke-linejoin: miter; stroke-linecap: square"/>
   </g>
   <g id="patch_5">
    <path d="M 22.5 32.04 
L 162 32.04 
" style="fill: none; stroke: #000000; stroke-width: 0.8; stroke-linejoin: miter; stroke-linecap: square"/>
   </g>
   <g id="patch_6">
    <path d="M 22.5 4.32 
L 162 4.32 
" style="fill: none; stroke: #000000; stroke-width: 0.8; stroke-linejoin: miter; stroke-linecap: square"/>
   </g>
  </g>
 </g>
 <defs>
  <clipPath id="p09d8d4dd84">
   <rect x="22.5" y="4.32" width="139.5" height="27.72"/>
  </clipPath>
 </defs>
</svg>
