<?xml version="1.0" encoding="utf-8" standalone="no"?>
<!DOCTYPE svg PUBLIC "-//W3C//DTD SVG 1.1//EN"
  "http://www.w3.org/Graphics/SVG/1.1/DTD/svg11.dtd">
<svg xmlns:xlink="http://www.w3.org/1999/xlink" width="180pt" height="36pt" viewBox="0 0 180 36" xmlns="http://www.w3.org/2000/svg" version="1.1">
 <metadata>
  <rdf:RDF xmlns:dc="http://purl.org/dc/elements/1.1/" xmlns:cc="http://creativecommons.org/ns#" xmlns:rdf="http://www.w3.org/1999/02/22-rdf-syntax-ns#">
   <cc:Work>
    <dc:type rdf:resource="http://purl.org/dc/dcmitype/StillImage"/>
    <dc:date>2024-11-14T13:55:54.646939</dc:date>
    <dc:format>image/svg+xml</dc:format>
    <dc:creator>
     <cc:Agent>
      <dc:title>Matplotlib v3.9.1, https://matplotlib.org/</dc:title>
     </cc:Agent>
    </dc:creator>
   </cc:Work>
  </rdf:RDF>
 </metadata>
 <defs>
  <style type="text/css">*{stroke-linejoin: round; stroke-linecap: butt}</style>
 </defs>
 <g id="figure_1">
  <g id="patch_1">
   <path d="M 0 36 
L 180 36 
L 180 0 
L 0 0 
L 0 36 
z
" style="fill: none"/>
  </g>
  <g id="axes_1">
   <g id="patch_2">
    <path d="M 22.5 32.04 
L 162 32.04 
L 162 4.32 
L 22.5 4.32 
L 22.5 32.04 
z
" style="fill: none"/>
   </g>
   <g id="matplotlib.axis_1">
    <g id="xtick_1"/>
    <g id="xtick_2"/>
    <g id="xtick_3"/>
    <g id="xtick_4"/>
   </g>
   <g id="matplotlib.axis_2">
    <g id="ytick_1"/>
    <g id="ytick_2"/>
   </g>
   <g id="line2d_1">
    <path d="M 28.840909 23.832336 
L 30.954545 21.006168 
L 33.068182 19.710841 
L 35.181818 27.011776 
L 37.295455 27.600561 
L 39.409091 25.245421 
L 41.522727 26.894019 
L 43.636364 21.948224 
L 45.75 24.185607 
L 47.863636 24.89215 
L 49.977273 24.656636 
L 52.090909 30.191215 
L 54.204545 29.131402 
L 56.318182 25.480935 
L 58.431818 19.35757 
L 60.545455 22.419252 
L 62.659091 22.89028 
L 64.772727 22.183738 
L 66.886364 22.183738 
L 69 29.366916 
L 71.113636 30.78 
L 73.227273 27.011776 
L 75.340909 19.239813 
L 77.454545 27.836075 
L 79.568182 27.836075 
L 81.681818 24.303364 
L 83.795455 23.125794 
L 85.909091 23.125794 
L 88.022727 21.830467 
L 90.136364 20.064112 
L 92.25 23.950093 
L 94.363636 24.774393 
L 96.477273 23.714579 
L 98.590909 24.06785 
L 100.704545 14.765047 
L 102.818182 17.237944 
L 104.931818 12.763178 
L 107.045455 15.707103 
L 109.159091 18.768785 
L 111.272727 17.708972 
L 113.386364 18.415514 
L 115.5 18.297757 
L 117.613636 21.006168 
L 119.727273 21.948224 
L 121.840909 22.654766 
L 123.954545 20.299626 
L 126.068182 20.417383 
L 128.181818 16.413645 
L 130.295455 15.707103 
L 132.409091 11.232336 
L 134.522727 15.589346 
L 136.636364 15.118318 
L 138.75 14.176262 
L 140.863636 17.473458 
L 142.977273 19.593084 
L 145.090909 19.828598 
L 147.204545 22.419252 
L 149.318182 19.475327 
L 151.431818 21.594953 
L 153.545455 18.415514 
L 155.659091 15.707103 
" clip-path="url(#p0ade9f4cbd)" style="fill: none; stroke: #1f77b4; stroke-width: 2; stroke-linecap: square"/>
   </g>
   <g id="line2d_2">
    <path d="M 28.840909 25.363178 
L 30.954545 20.652897 
L 33.068182 8.994953 
L 35.181818 15.589346 
L 37.295455 11.938879 
L 39.409091 16.295888 
L 41.522727 20.299626 
L 43.636364 19.593084 
L 45.75 14.765047 
L 47.863636 16.766916 
L 49.977273 9.348224 
L 52.090909 15.82486 
L 54.204545 19.946355 
L 56.318182 15.118318 
L 58.431818 19.710841 
L 60.545455 14.882804 
L 62.659091 17.826729 
L 64.772727 19.239813 
L 66.886364 10.054766 
L 69 15.471589 
L 71.113636 16.295888 
L 73.227273 15.589346 
L 75.340909 19.122056 
L 77.454545 22.419252 
L 79.568182 19.35757 
L 81.681818 18.18 
L 83.795455 15.82486 
L 85.909091 9.465981 
L 88.022727 5.58 
L 90.136364 16.531402 
L 92.25 22.89028 
L 94.363636 22.89028 
L 96.477273 20.888411 
L 98.590909 17.826729 
L 100.704545 18.768785 
L 102.818182 19.475327 
L 104.931818 16.766916 
L 107.045455 12.880935 
L 109.159091 13.351963 
L 111.272727 18.651028 
L 113.386364 14.294019 
L 115.5 14.058505 
L 117.613636 15.000561 
L 119.727273 17.355701 
L 121.840909 13.587477 
L 123.954545 13.822991 
L 126.068182 17.00243 
L 128.181818 15.353832 
L 130.295455 16.766916 
L 132.409091 17.708972 
L 134.522727 18.886542 
L 136.636364 18.533271 
L 138.75 19.593084 
L 140.863636 18.062243 
L 142.977273 21.359439 
L 145.090909 18.062243 
L 147.204545 15.82486 
L 149.318182 18.062243 
L 151.431818 14.058505 
L 153.545455 19.239813 
L 155.659091 15.471589 
" clip-path="url(#p0ade9f4cbd)" style="fill: none; stroke: #ff7f0e; stroke-width: 2; stroke-linecap: square"/>
   </g>
   <g id="patch_3">
    <path d="M 22.5 32.04 
L 22.5 4.32 
" style="fill: none; stroke: #000000; stroke-width: 0.8; stroke-linejoin: miter; stroke-linecap: square"/>
   </g>
   <g id="patch_4">
    <path d="M 162 32.04 
L 162 4.32 
" style="fill: none; stroke: #000000; stroke-width: 0.8; stroke-linejoin: miter; stroke-linecap: square"/>
   </g>
   <g id="patch_5">
    <path d="M 22.5 32.04 
L 162 32.04 
" style="fill: none; stroke: #000000; stroke-width: 0.8; stroke-linejoin: miter; stroke-linecap: square"/>
   </g>
   <g id="patch_6">
    <path d="M 22.5 4.32 
L 162 4.32 
" style="fill: none; stroke: #000000; stroke-width: 0.8; stroke-linejoin: miter; stroke-linecap: square"/>
   </g>
  </g>
 </g>
 <defs>
  <clipPath id="p0ade9f4cbd">
   <rect x="22.5" y="4.32" width="139.5" height="27.72"/>
  </clipPath>
 </defs>
</svg>
