<?xml version="1.0" encoding="utf-8" standalone="no"?>
<!DOCTYPE svg PUBLIC "-//W3C//DTD SVG 1.1//EN"
  "http://www.w3.org/Graphics/SVG/1.1/DTD/svg11.dtd">
<svg xmlns:xlink="http://www.w3.org/1999/xlink" width="180pt" height="36pt" viewBox="0 0 180 36" xmlns="http://www.w3.org/2000/svg" version="1.1">
 <metadata>
  <rdf:RDF xmlns:dc="http://purl.org/dc/elements/1.1/" xmlns:cc="http://creativecommons.org/ns#" xmlns:rdf="http://www.w3.org/1999/02/22-rdf-syntax-ns#">
   <cc:Work>
    <dc:type rdf:resource="http://purl.org/dc/dcmitype/StillImage"/>
    <dc:date>2024-11-14T13:55:54.555873</dc:date>
    <dc:format>image/svg+xml</dc:format>
    <dc:creator>
     <cc:Agent>
      <dc:title>Matplotlib v3.9.1, https://matplotlib.org/</dc:title>
     </cc:Agent>
    </dc:creator>
   </cc:Work>
  </rdf:RDF>
 </metadata>
 <defs>
  <style type="text/css">*{stroke-linejoin: round; stroke-linecap: butt}</style>
 </defs>
 <g id="figure_1">
  <g id="patch_1">
   <path d="M 0 36 
L 180 36 
L 180 0 
L 0 0 
L 0 36 
z
" style="fill: none"/>
  </g>
  <g id="axes_1">
   <g id="patch_2">
    <path d="M 22.5 32.04 
L 162 32.04 
L 162 4.32 
L 22.5 4.32 
L 22.5 32.04 
z
" style="fill: none"/>
   </g>
   <g id="matplotlib.axis_1">
    <g id="xtick_1"/>
    <g id="xtick_2"/>
    <g id="xtick_3"/>
    <g id="xtick_4"/>
   </g>
   <g id="matplotlib.axis_2">
    <g id="ytick_1"/>
    <g id="ytick_2"/>
   </g>
   <g id="line2d_1">
    <path d="M 28.840909 17.158378 
L 30.954545 21.755676 
L 33.068182 24.30973 
L 35.181818 25.416486 
L 37.295455 24.054324 
L 39.409091 18.35027 
L 41.522727 17.073243 
L 43.636364 22.607027 
L 45.75 20.904324 
L 47.863636 18.775946 
L 49.977273 19.797568 
L 52.090909 18.00973 
L 54.204545 22.436757 
L 56.318182 22.777297 
L 58.431818 19.882703 
L 60.545455 21.33 
L 62.659091 21.670541 
L 64.772727 23.628649 
L 66.886364 22.351622 
L 69 19.031351 
L 71.113636 21.50027 
L 73.227273 22.436757 
L 75.340909 20.819189 
L 77.454545 22.181351 
L 79.568182 22.181351 
L 81.681818 25.075946 
L 83.795455 28.907027 
L 85.909091 28.396216 
L 88.022727 29.417838 
L 90.136364 27.119189 
L 92.25 24.905676 
L 94.363636 24.65027 
L 96.477273 20.819189 
L 98.590909 22.436757 
L 100.704545 23.713784 
L 102.818182 25.586757 
L 104.931818 28.481351 
L 107.045455 29.247568 
L 109.159091 27.970541 
L 111.272727 27.034054 
L 113.386364 28.821892 
L 115.5 26.948919 
L 117.613636 28.055676 
L 119.727273 27.119189 
L 121.840909 28.907027 
L 123.954545 29.417838 
L 126.068182 26.438108 
L 128.181818 29.162432 
L 130.295455 26.693514 
L 132.409091 27.204324 
L 134.522727 27.034054 
L 136.636364 27.63 
L 138.75 27.63 
L 140.863636 27.374595 
L 142.977273 29.588108 
L 145.090909 30.78 
L 147.204545 29.077297 
L 149.318182 30.098919 
L 151.431818 26.182703 
L 153.545455 27.374595 
L 155.659091 28.481351 
" clip-path="url(#pb1932390e1)" style="fill: none; stroke: #1f77b4; stroke-width: 2; stroke-linecap: square"/>
   </g>
   <g id="line2d_2">
    <path d="M 28.840909 17.073243 
L 30.954545 22.266486 
L 33.068182 24.139459 
L 35.181818 25.586757 
L 37.295455 24.054324 
L 39.409091 13.412432 
L 41.522727 18.520541 
L 43.636364 22.521892 
L 45.75 20.734054 
L 47.863636 20.138108 
L 49.977273 23.288108 
L 52.090909 24.990811 
L 54.204545 22.947568 
L 56.318182 23.798919 
L 58.431818 20.138108 
L 60.545455 23.032703 
L 62.659091 15.370541 
L 64.772727 13.157027 
L 66.886364 24.990811 
L 69 27.63 
L 71.113636 29.332703 
L 73.227273 19.031351 
L 75.340909 13.582703 
L 77.454545 12.561081 
L 79.568182 13.071892 
L 81.681818 14.604324 
L 83.795455 18.00973 
L 85.909091 25.246216 
L 88.022727 14.689459 
L 90.136364 18.18 
L 92.25 17.073243 
L 94.363636 10.432703 
L 96.477273 15.796216 
L 98.590909 20.223243 
L 100.704545 20.223243 
L 102.818182 21.925946 
L 104.931818 16.307027 
L 107.045455 19.542162 
L 109.159091 19.286757 
L 111.272727 17.413784 
L 113.386364 18.690811 
L 115.5 20.223243 
L 117.613636 17.924595 
L 119.727273 15.115135 
L 121.840909 7.708378 
L 123.954545 14.434054 
L 126.068182 12.475946 
L 128.181818 20.563784 
L 130.295455 15.966486 
L 132.409091 19.286757 
L 134.522727 15.115135 
L 136.636364 10.007027 
L 138.75 5.58 
L 140.863636 11.113784 
L 142.977273 13.242162 
L 145.090909 18.18 
L 147.204545 19.542162 
L 149.318182 16.221892 
L 151.431818 16.647568 
L 153.545455 18.265135 
L 155.659091 16.477297 
" clip-path="url(#pb1932390e1)" style="fill: none; stroke: #ff7f0e; stroke-width: 2; stroke-linecap: square"/>
   </g>
   <g id="patch_3">
    <path d="M 22.5 32.04 
L 22.5 4.32 
" style="fill: none; stroke: #000000; stroke-width: 0.8; stroke-linejoin: miter; stroke-linecap: square"/>
   </g>
   <g id="patch_4">
    <path d="M 162 32.04 
L 162 4.32 
" style="fill: none; stroke: #000000; stroke-width: 0.8; stroke-linejoin: miter; stroke-linecap: square"/>
   </g>
   <g id="patch_5">
    <path d="M 22.5 32.04 
L 162 32.04 
" style="fill: none; stroke: #000000; stroke-width: 0.8; stroke-linejoin: miter; stroke-linecap: square"/>
   </g>
   <g id="patch_6">
    <path d="M 22.5 4.32 
L 162 4.32 
" style="fill: none; stroke: #000000; stroke-width: 0.8; stroke-linejoin: miter; stroke-linecap: square"/>
   </g>
  </g>
 </g>
 <defs>
  <clipPath id="pb1932390e1">
   <rect x="22.5" y="4.32" width="139.5" height="27.72"/>
  </clipPath>
 </defs>
</svg>
