<?xml version="1.0" encoding="utf-8" standalone="no"?>
<!DOCTYPE svg PUBLIC "-//W3C//DTD SVG 1.1//EN"
  "http://www.w3.org/Graphics/SVG/1.1/DTD/svg11.dtd">
<svg xmlns:xlink="http://www.w3.org/1999/xlink" width="180pt" height="36pt" viewBox="0 0 180 36" xmlns="http://www.w3.org/2000/svg" version="1.1">
 <metadata>
  <rdf:RDF xmlns:dc="http://purl.org/dc/elements/1.1/" xmlns:cc="http://creativecommons.org/ns#" xmlns:rdf="http://www.w3.org/1999/02/22-rdf-syntax-ns#">
   <cc:Work>
    <dc:type rdf:resource="http://purl.org/dc/dcmitype/StillImage"/>
    <dc:date>2024-11-14T13:55:54.103613</dc:date>
    <dc:format>image/svg+xml</dc:format>
    <dc:creator>
     <cc:Agent>
      <dc:title>Matplotlib v3.9.1, https://matplotlib.org/</dc:title>
     </cc:Agent>
    </dc:creator>
   </cc:Work>
  </rdf:RDF>
 </metadata>
 <defs>
  <style type="text/css">*{stroke-linejoin: round; stroke-linecap: butt}</style>
 </defs>
 <g id="figure_1">
  <g id="patch_1">
   <path d="M 0 36 
L 180 36 
L 180 0 
L 0 0 
L 0 36 
z
" style="fill: none"/>
  </g>
  <g id="axes_1">
   <g id="patch_2">
    <path d="M 22.5 32.04 
L 162 32.04 
L 162 4.32 
L 22.5 4.32 
L 22.5 32.04 
z
" style="fill: none"/>
   </g>
   <g id="matplotlib.axis_1">
    <g id="xtick_1"/>
    <g id="xtick_2"/>
    <g id="xtick_3"/>
    <g id="xtick_4"/>
   </g>
   <g id="matplotlib.axis_2">
    <g id="ytick_1"/>
    <g id="ytick_2"/>
   </g>
   <g id="line2d_1">
    <path d="M 28.840909 19.030307 
L 30.954545 29.697791 
L 33.068182 30.470798 
L 35.181818 27.069571 
L 37.295455 23.668344 
L 39.409091 21.503926 
L 41.522727 22.431534 
L 43.636364 20.576319 
L 45.75 17.020491 
L 47.863636 18.257301 
L 49.977273 23.049939 
L 52.090909 19.803313 
L 54.204545 13.619264 
L 56.318182 19.803313 
L 58.431818 25.368957 
L 60.545455 24.286748 
L 62.659091 22.276933 
L 64.772727 19.49411 
L 66.886364 19.184908 
L 69 29.54319 
L 71.113636 29.388589 
L 73.227273 23.977546 
L 75.340909 23.513742 
L 77.454545 15.62908 
L 79.568182 13.619264 
L 81.681818 11.91865 
L 83.795455 15.319877 
L 85.909091 15.938282 
L 88.022727 28.924785 
L 90.136364 30.78 
L 92.25 21.96773 
L 94.363636 19.803313 
L 96.477273 18.566503 
L 98.590909 19.803313 
L 100.704545 8.517423 
L 102.818182 19.339509 
L 104.931818 21.658528 
L 107.045455 22.431534 
L 109.159091 23.359141 
L 111.272727 19.648712 
L 113.386364 18.566503 
L 115.5 20.267117 
L 117.613636 20.267117 
L 119.727273 23.20454 
L 121.840909 19.803313 
L 123.954545 11.300245 
L 126.068182 16.402086 
L 128.181818 27.533374 
L 130.295455 26.760368 
L 132.409091 23.513742 
L 134.522727 17.638896 
L 136.636364 25.059755 
L 138.75 18.875706 
L 140.863636 22.740736 
L 142.977273 15.62908 
L 145.090909 21.349325 
L 147.204545 24.44135 
L 149.318182 27.378773 
L 151.431818 15.783681 
L 153.545455 17.175092 
L 155.659091 11.145644 
" clip-path="url(#pa75e83ef94)" style="fill: none; stroke: #1f77b4; stroke-width: 2; stroke-linecap: square"/>
   </g>
   <g id="line2d_2">
    <path d="M 28.840909 18.102699 
L 30.954545 21.658528 
L 33.068182 27.224172 
L 35.181818 29.079387 
L 37.295455 26.760368 
L 39.409091 21.96773 
L 41.522727 23.513742 
L 43.636364 21.813129 
L 45.75 23.668344 
L 47.863636 24.286748 
L 49.977273 22.276933 
L 52.090909 27.533374 
L 54.204545 27.378773 
L 56.318182 23.513742 
L 58.431818 24.286748 
L 60.545455 18.566503 
L 62.659091 20.885521 
L 64.772727 21.96773 
L 66.886364 21.040123 
L 69 15.010675 
L 71.113636 10.991043 
L 73.227273 14.546871 
L 75.340909 21.194724 
L 77.454545 17.948098 
L 79.568182 21.658528 
L 81.681818 21.813129 
L 83.795455 18.257301 
L 85.909091 23.977546 
L 88.022727 20.885521 
L 90.136364 21.658528 
L 92.25 24.44135 
L 94.363636 17.484294 
L 96.477273 17.948098 
L 98.590909 19.803313 
L 100.704545 13.310061 
L 102.818182 15.010675 
L 104.931818 16.711288 
L 107.045455 9.445031 
L 109.159091 11.764049 
L 111.272727 17.329693 
L 113.386364 19.803313 
L 115.5 16.247485 
L 117.613636 13.000859 
L 119.727273 9.908834 
L 121.840909 8.362822 
L 123.954545 8.208221 
L 126.068182 16.86589 
L 128.181818 5.58 
L 130.295455 18.411902 
L 132.409091 17.638896 
L 134.522727 16.86589 
L 136.636364 17.948098 
L 138.75 16.556687 
L 140.863636 14.237669 
L 142.977273 15.62908 
L 145.090909 18.102699 
L 147.204545 20.267117 
L 149.318182 20.73092 
L 151.431818 9.908834 
L 153.545455 17.638896 
L 155.659091 22.740736 
" clip-path="url(#pa75e83ef94)" style="fill: none; stroke: #ff7f0e; stroke-width: 2; stroke-linecap: square"/>
   </g>
   <g id="patch_3">
    <path d="M 22.5 32.04 
L 22.5 4.32 
" style="fill: none; stroke: #000000; stroke-width: 0.8; stroke-linejoin: miter; stroke-linecap: square"/>
   </g>
   <g id="patch_4">
    <path d="M 162 32.04 
L 162 4.32 
" style="fill: none; stroke: #000000; stroke-width: 0.8; stroke-linejoin: miter; stroke-linecap: square"/>
   </g>
   <g id="patch_5">
    <path d="M 22.5 32.04 
L 162 32.04 
" style="fill: none; stroke: #000000; stroke-width: 0.8; stroke-linejoin: miter; stroke-linecap: square"/>
   </g>
   <g id="patch_6">
    <path d="M 22.5 4.32 
L 162 4.32 
" style="fill: none; stroke: #000000; stroke-width: 0.8; stroke-linejoin: miter; stroke-linecap: square"/>
   </g>
  </g>
 </g>
 <defs>
  <clipPath id="pa75e83ef94">
   <rect x="22.5" y="4.32" width="139.5" height="27.72"/>
  </clipPath>
 </defs>
</svg>
