<?xml version="1.0" encoding="utf-8" standalone="no"?>
<!DOCTYPE svg PUBLIC "-//W3C//DTD SVG 1.1//EN"
  "http://www.w3.org/Graphics/SVG/1.1/DTD/svg11.dtd">
<svg xmlns:xlink="http://www.w3.org/1999/xlink" width="180pt" height="36pt" viewBox="0 0 180 36" xmlns="http://www.w3.org/2000/svg" version="1.1">
 <metadata>
  <rdf:RDF xmlns:dc="http://purl.org/dc/elements/1.1/" xmlns:cc="http://creativecommons.org/ns#" xmlns:rdf="http://www.w3.org/1999/02/22-rdf-syntax-ns#">
   <cc:Work>
    <dc:type rdf:resource="http://purl.org/dc/dcmitype/StillImage"/>
    <dc:date>2024-11-14T13:55:54.185077</dc:date>
    <dc:format>image/svg+xml</dc:format>
    <dc:creator>
     <cc:Agent>
      <dc:title>Matplotlib v3.9.1, https://matplotlib.org/</dc:title>
     </cc:Agent>
    </dc:creator>
   </cc:Work>
  </rdf:RDF>
 </metadata>
 <defs>
  <style type="text/css">*{stroke-linejoin: round; stroke-linecap: butt}</style>
 </defs>
 <g id="figure_1">
  <g id="patch_1">
   <path d="M 0 36 
L 180 36 
L 180 0 
L 0 0 
L 0 36 
z
" style="fill: none"/>
  </g>
  <g id="axes_1">
   <g id="patch_2">
    <path d="M 22.5 32.04 
L 162 32.04 
L 162 4.32 
L 22.5 4.32 
L 22.5 32.04 
z
" style="fill: none"/>
   </g>
   <g id="matplotlib.axis_1">
    <g id="xtick_1"/>
    <g id="xtick_2"/>
    <g id="xtick_3"/>
    <g id="xtick_4"/>
   </g>
   <g id="matplotlib.axis_2">
    <g id="ytick_1"/>
    <g id="ytick_2"/>
   </g>
   <g id="line2d_1">
    <path d="M 28.840909 11.832632 
L 30.954545 17.137895 
L 33.068182 18.558947 
L 35.181818 19.316842 
L 37.295455 5.958947 
L 39.409091 6.906316 
L 41.522727 12.495789 
L 43.636364 14.106316 
L 45.75 9.464211 
L 47.863636 17.137895 
L 49.977273 21.401053 
L 52.090909 14.295789 
L 54.204545 14.58 
L 56.318182 12.495789 
L 58.431818 14.58 
L 60.545455 6.906316 
L 62.659091 20.548421 
L 64.772727 26.232632 
L 66.886364 25.474737 
L 69 26.611579 
L 71.113636 21.685263 
L 73.227273 10.601053 
L 75.340909 14.106316 
L 77.454545 16.474737 
L 79.568182 25.38 
L 81.681818 20.453684 
L 83.795455 19.506316 
L 85.909091 21.211579 
L 88.022727 23.674737 
L 90.136364 23.295789 
L 92.25 25.569474 
L 94.363636 23.295789 
L 96.477273 23.958947 
L 98.590909 23.485263 
L 100.704545 19.032632 
L 102.818182 13.916842 
L 104.931818 5.58 
L 107.045455 10.316842 
L 109.159091 16.190526 
L 111.272727 21.211579 
L 113.386364 26.043158 
L 115.5 16.001053 
L 117.613636 12.590526 
L 119.727273 21.78 
L 121.840909 20.737895 
L 123.954545 16.285263 
L 126.068182 11.074737 
L 128.181818 17.706316 
L 130.295455 16.569474 
L 132.409091 18.274737 
L 134.522727 20.169474 
L 136.636364 16.758947 
L 138.75 12.78 
L 140.863636 15.432632 
L 142.977273 16.569474 
L 145.090909 9.274737 
L 147.204545 12.590526 
L 149.318182 15.243158 
L 151.431818 17.706316 
L 153.545455 19.98 
L 155.659091 25.285263 
" clip-path="url(#pc3bc330929)" style="fill: none; stroke: #1f77b4; stroke-width: 2; stroke-linecap: square"/>
   </g>
   <g id="line2d_2">
    <path d="M 28.840909 21.969474 
L 30.954545 27.843158 
L 33.068182 26.043158 
L 35.181818 24.906316 
L 37.295455 21.211579 
L 39.409091 21.022105 
L 41.522727 25.853684 
L 43.636364 30.78 
L 45.75 26.990526 
L 47.863636 28.506316 
L 49.977273 25.001053 
L 52.090909 21.874737 
L 54.204545 21.874737 
L 56.318182 24.906316 
L 58.431818 21.685263 
L 60.545455 21.685263 
L 62.659091 26.422105 
L 64.772727 29.927368 
L 66.886364 25.569474 
L 69 20.074737 
L 71.113636 27.274737 
L 73.227273 28.316842 
L 75.340909 27.464211 
L 77.454545 20.548421 
L 79.568182 20.074737 
L 81.681818 25.569474 
L 83.795455 24.337895 
L 85.909091 27.843158 
L 88.022727 27.653684 
L 90.136364 26.327368 
L 92.25 27.653684 
L 94.363636 28.601053 
L 96.477273 25.853684 
L 98.590909 22.443158 
L 100.704545 28.885263 
L 102.818182 30.211579 
L 104.931818 27.558947 
L 107.045455 26.043158 
L 109.159091 29.927368 
L 111.272727 27.748421 
L 113.386364 28.127368 
L 115.5 27.274737 
L 117.613636 28.222105 
L 119.727273 30.78 
L 121.840909 29.453684 
L 123.954545 28.885263 
L 126.068182 23.58 
L 128.181818 25.474737 
L 130.295455 26.706316 
L 132.409091 25.38 
L 134.522727 25.38 
L 136.636364 25.001053 
L 138.75 30.211579 
L 140.863636 30.116842 
L 142.977273 28.885263 
L 145.090909 23.390526 
L 147.204545 16.569474 
L 149.318182 23.011579 
L 151.431818 25.095789 
L 153.545455 24.527368 
L 155.659091 26.895789 
" clip-path="url(#pc3bc330929)" style="fill: none; stroke: #ff7f0e; stroke-width: 2; stroke-linecap: square"/>
   </g>
   <g id="patch_3">
    <path d="M 22.5 32.04 
L 22.5 4.32 
" style="fill: none; stroke: #000000; stroke-width: 0.8; stroke-linejoin: miter; stroke-linecap: square"/>
   </g>
   <g id="patch_4">
    <path d="M 162 32.04 
L 162 4.32 
" style="fill: none; stroke: #000000; stroke-width: 0.8; stroke-linejoin: miter; stroke-linecap: square"/>
   </g>
   <g id="patch_5">
    <path d="M 22.5 32.04 
L 162 32.04 
" style="fill: none; stroke: #000000; stroke-width: 0.8; stroke-linejoin: miter; stroke-linecap: square"/>
   </g>
   <g id="patch_6">
    <path d="M 22.5 4.32 
L 162 4.32 
" style="fill: none; stroke: #000000; stroke-width: 0.8; stroke-linejoin: miter; stroke-linecap: square"/>
   </g>
  </g>
 </g>
 <defs>
  <clipPath id="pc3bc330929">
   <rect x="22.5" y="4.32" width="139.5" height="27.72"/>
  </clipPath>
 </defs>
</svg>
