<?xml version="1.0" encoding="utf-8" standalone="no"?>
<!DOCTYPE svg PUBLIC "-//W3C//DTD SVG 1.1//EN"
  "http://www.w3.org/Graphics/SVG/1.1/DTD/svg11.dtd">
<svg xmlns:xlink="http://www.w3.org/1999/xlink" width="180pt" height="36pt" viewBox="0 0 180 36" xmlns="http://www.w3.org/2000/svg" version="1.1">
 <metadata>
  <rdf:RDF xmlns:dc="http://purl.org/dc/elements/1.1/" xmlns:cc="http://creativecommons.org/ns#" xmlns:rdf="http://www.w3.org/1999/02/22-rdf-syntax-ns#">
   <cc:Work>
    <dc:type rdf:resource="http://purl.org/dc/dcmitype/StillImage"/>
    <dc:date>2024-11-14T13:55:54.335370</dc:date>
    <dc:format>image/svg+xml</dc:format>
    <dc:creator>
     <cc:Agent>
      <dc:title>Matplotlib v3.9.1, https://matplotlib.org/</dc:title>
     </cc:Agent>
    </dc:creator>
   </cc:Work>
  </rdf:RDF>
 </metadata>
 <defs>
  <style type="text/css">*{stroke-linejoin: round; stroke-linecap: butt}</style>
 </defs>
 <g id="figure_1">
  <g id="patch_1">
   <path d="M 0 36 
L 180 36 
L 180 0 
L 0 0 
L 0 36 
z
" style="fill: none"/>
  </g>
  <g id="axes_1">
   <g id="patch_2">
    <path d="M 22.5 32.04 
L 162 32.04 
L 162 4.32 
L 22.5 4.32 
L 22.5 32.04 
z
" style="fill: none"/>
   </g>
   <g id="matplotlib.axis_1">
    <g id="xtick_1"/>
    <g id="xtick_2"/>
    <g id="xtick_3"/>
    <g id="xtick_4"/>
   </g>
   <g id="matplotlib.axis_2">
    <g id="ytick_1"/>
    <g id="ytick_2"/>
   </g>
   <g id="line2d_1">
    <path d="M 28.840909 24.052881 
L 30.954545 26.615593 
L 33.068182 23.091864 
L 35.181818 21.169831 
L 37.295455 28.751186 
L 39.409091 29.178305 
L 41.522727 28.110508 
L 43.636364 24.907119 
L 45.75 27.57661 
L 47.863636 25.654576 
L 49.977273 22.664746 
L 52.090909 24.907119 
L 54.204545 24.48 
L 56.318182 24.58678 
L 58.431818 21.703729 
L 60.545455 16.898644 
L 62.659091 21.38339 
L 64.772727 22.024068 
L 66.886364 22.130847 
L 69 24.800339 
L 71.113636 25.334237 
L 73.227273 21.063051 
L 75.340909 16.685085 
L 77.454545 12.734237 
L 79.568182 12.627458 
L 81.681818 19.354576 
L 83.795455 22.878305 
L 85.909091 21.169831 
L 88.022727 19.461356 
L 90.136364 21.27661 
L 92.25 18.07322 
L 94.363636 17.966441 
L 96.477273 18.820678 
L 98.590909 22.878305 
L 100.704545 22.237627 
L 102.818182 20.635932 
L 104.931818 18.713898 
L 107.045455 11.239322 
L 109.159091 19.995254 
L 111.272727 18.500339 
L 113.386364 19.141017 
L 115.5 19.461356 
L 117.613636 18.18 
L 119.727273 17.218983 
L 121.840909 16.685085 
L 123.954545 11.346102 
L 126.068182 9.851186 
L 128.181818 19.781695 
L 130.295455 20.208814 
L 132.409091 23.305424 
L 134.522727 19.247797 
L 136.636364 16.364746 
L 138.75 19.034237 
L 140.863636 24.37322 
L 142.977273 22.771525 
L 145.090909 23.839322 
L 147.204545 23.091864 
L 149.318182 25.868136 
L 151.431818 25.547797 
L 153.545455 15.830847 
L 155.659091 17.966441 
" clip-path="url(#p25b5e7292d)" style="fill: none; stroke: #1f77b4; stroke-width: 2; stroke-linecap: square"/>
   </g>
   <g id="line2d_2">
    <path d="M 28.840909 30.78 
L 30.954545 29.605424 
L 33.068182 28.537627 
L 35.181818 28.430847 
L 37.295455 28.430847 
L 39.409091 30.139322 
L 41.522727 29.925763 
L 43.636364 27.790169 
L 45.75 28.430847 
L 47.863636 25.334237 
L 49.977273 26.402034 
L 52.090909 28.217288 
L 54.204545 24.37322 
L 56.318182 25.868136 
L 58.431818 22.664746 
L 60.545455 23.732542 
L 62.659091 23.732542 
L 64.772727 13.481695 
L 66.886364 20.208814 
L 69 22.557966 
L 71.113636 25.227458 
L 73.227273 19.247797 
L 75.340909 20.956271 
L 77.454545 18.713898 
L 79.568182 15.617288 
L 81.681818 17.005424 
L 83.795455 13.268136 
L 85.909091 9.530847 
L 88.022727 21.063051 
L 90.136364 19.674915 
L 92.25 15.617288 
L 94.363636 14.015593 
L 96.477273 19.354576 
L 98.590909 22.985085 
L 100.704545 18.28678 
L 102.818182 15.510508 
L 104.931818 5.58 
L 107.045455 13.054576 
L 109.159091 19.674915 
L 111.272727 12.627458 
L 113.386364 18.607119 
L 115.5 20.102034 
L 117.613636 25.013898 
L 119.727273 19.888475 
L 121.840909 24.58678 
L 123.954545 22.985085 
L 126.068182 22.664746 
L 128.181818 14.656271 
L 130.295455 14.442712 
L 132.409091 18.500339 
L 134.522727 17.646102 
L 136.636364 21.38339 
L 138.75 13.695254 
L 140.863636 19.568136 
L 142.977273 18.28678 
L 145.090909 16.578305 
L 147.204545 10.705424 
L 149.318182 11.132542 
L 151.431818 11.666441 
L 153.545455 16.364746 
L 155.659091 13.695254 
" clip-path="url(#p25b5e7292d)" style="fill: none; stroke: #ff7f0e; stroke-width: 2; stroke-linecap: square"/>
   </g>
   <g id="patch_3">
    <path d="M 22.5 32.04 
L 22.5 4.32 
" style="fill: none; stroke: #000000; stroke-width: 0.8; stroke-linejoin: miter; stroke-linecap: square"/>
   </g>
   <g id="patch_4">
    <path d="M 162 32.04 
L 162 4.32 
" style="fill: none; stroke: #000000; stroke-width: 0.8; stroke-linejoin: miter; stroke-linecap: square"/>
   </g>
   <g id="patch_5">
    <path d="M 22.5 32.04 
L 162 32.04 
" style="fill: none; stroke: #000000; stroke-width: 0.8; stroke-linejoin: miter; stroke-linecap: square"/>
   </g>
   <g id="patch_6">
    <path d="M 22.5 4.32 
L 162 4.32 
" style="fill: none; stroke: #000000; stroke-width: 0.8; stroke-linejoin: miter; stroke-linecap: square"/>
   </g>
  </g>
 </g>
 <defs>
  <clipPath id="p25b5e7292d">
   <rect x="22.5" y="4.32" width="139.5" height="27.72"/>
  </clipPath>
 </defs>
</svg>
