<?xml version="1.0" encoding="utf-8" standalone="no"?>
<!DOCTYPE svg PUBLIC "-//W3C//DTD SVG 1.1//EN"
  "http://www.w3.org/Graphics/SVG/1.1/DTD/svg11.dtd">
<svg xmlns:xlink="http://www.w3.org/1999/xlink" width="180pt" height="36pt" viewBox="0 0 180 36" xmlns="http://www.w3.org/2000/svg" version="1.1">
 <metadata>
  <rdf:RDF xmlns:dc="http://purl.org/dc/elements/1.1/" xmlns:cc="http://creativecommons.org/ns#" xmlns:rdf="http://www.w3.org/1999/02/22-rdf-syntax-ns#">
   <cc:Work>
    <dc:type rdf:resource="http://purl.org/dc/dcmitype/StillImage"/>
    <dc:date>2024-11-14T13:55:54.258114</dc:date>
    <dc:format>image/svg+xml</dc:format>
    <dc:creator>
     <cc:Agent>
      <dc:title>Matplotlib v3.9.1, https://matplotlib.org/</dc:title>
     </cc:Agent>
    </dc:creator>
   </cc:Work>
  </rdf:RDF>
 </metadata>
 <defs>
  <style type="text/css">*{stroke-linejoin: round; stroke-linecap: butt}</style>
 </defs>
 <g id="figure_1">
  <g id="patch_1">
   <path d="M 0 36 
L 180 36 
L 180 0 
L 0 0 
L 0 36 
z
" style="fill: none"/>
  </g>
  <g id="axes_1">
   <g id="patch_2">
    <path d="M 22.5 32.04 
L 162 32.04 
L 162 4.32 
L 22.5 4.32 
L 22.5 32.04 
z
" style="fill: none"/>
   </g>
   <g id="matplotlib.axis_1">
    <g id="xtick_1"/>
    <g id="xtick_2"/>
    <g id="xtick_3"/>
    <g id="xtick_4"/>
   </g>
   <g id="matplotlib.axis_2">
    <g id="ytick_1"/>
    <g id="ytick_2"/>
   </g>
   <g id="line2d_1">
    <path d="M 28.840909 24.26764 
L 30.954545 28.231685 
L 33.068182 25.824944 
L 35.181818 25.966517 
L 37.295455 25.258652 
L 39.409091 27.806966 
L 41.522727 30.78 
L 43.636364 25.966517 
L 45.75 20.162022 
L 47.863636 17.755281 
L 49.977273 22.144045 
L 52.090909 25.683371 
L 54.204545 30.355281 
L 56.318182 26.249663 
L 58.431818 23.984494 
L 60.545455 22.002472 
L 62.659091 19.737303 
L 64.772727 23.276629 
L 66.886364 16.905843 
L 69 19.59573 
L 71.113636 23.701348 
L 73.227273 18.463146 
L 75.340909 17.613708 
L 77.454545 16.481124 
L 79.568182 20.586742 
L 81.681818 23.842921 
L 83.795455 20.869888 
L 85.909091 19.171011 
L 88.022727 23.984494 
L 90.136364 20.586742 
L 92.25 20.586742 
L 94.363636 16.339551 
L 96.477273 23.842921 
L 98.590909 16.622697 
L 100.704545 10.959775 
L 102.818182 23.276629 
L 104.931818 25.541798 
L 107.045455 24.409213 
L 109.159091 17.047416 
L 111.272727 14.499101 
L 113.386364 6.429438 
L 115.5 7.278876 
L 117.613636 14.074382 
L 119.727273 20.020449 
L 121.840909 19.454157 
L 123.954545 16.481124 
L 126.068182 15.065393 
L 128.181818 17.613708 
L 130.295455 14.074382 
L 132.409091 12.517079 
L 134.522727 12.09236 
L 136.636364 5.58 
L 138.75 11.526067 
L 140.863636 9.260899 
L 142.977273 17.472135 
L 145.090909 21.577753 
L 147.204545 20.020449 
L 149.318182 9.119326 
L 151.431818 14.92382 
L 153.545455 11.66764 
L 155.659091 13.224944 
" clip-path="url(#pd32718cb93)" style="fill: none; stroke: #1f77b4; stroke-width: 2; stroke-linecap: square"/>
   </g>
   <g id="line2d_2">
    <path d="M 28.840909 14.074382 
L 30.954545 21.011461 
L 33.068182 22.710337 
L 35.181818 22.85191 
L 37.295455 22.993483 
L 39.409091 21.294607 
L 41.522727 17.330562 
L 43.636364 15.914831 
L 45.75 20.445169 
L 47.863636 25.966517 
L 49.977273 26.249663 
L 52.090909 18.887865 
L 54.204545 20.728315 
L 56.318182 12.658652 
L 58.431818 16.905843 
L 60.545455 18.887865 
L 62.659091 27.665393 
L 64.772727 24.409213 
L 66.886364 23.984494 
L 69 27.806966 
L 71.113636 25.541798 
L 73.227273 20.303596 
L 75.340909 24.69236 
L 77.454545 22.002472 
L 79.568182 26.815955 
L 81.681818 25.400225 
L 83.795455 23.135056 
L 85.909091 22.710337 
L 88.022727 20.445169 
L 90.136364 22.85191 
L 92.25 28.373258 
L 94.363636 20.728315 
L 96.477273 19.312584 
L 98.590909 19.171011 
L 100.704545 24.126067 
L 102.818182 26.532809 
L 104.931818 21.294607 
L 107.045455 23.842921 
L 109.159091 23.701348 
L 111.272727 24.975506 
L 113.386364 20.586742 
L 115.5 18.463146 
L 117.613636 10.818202 
L 119.727273 17.047416 
L 121.840909 17.896854 
L 123.954545 16.056404 
L 126.068182 17.896854 
L 128.181818 21.294607 
L 130.295455 20.303596 
L 132.409091 12.375506 
L 134.522727 6.712584 
L 136.636364 14.499101 
L 138.75 16.76427 
L 140.863636 13.224944 
L 142.977273 20.162022 
L 145.090909 6.287865 
L 147.204545 5.721573 
L 149.318182 7.562022 
L 151.431818 11.66764 
L 153.545455 7.562022 
L 155.659091 12.658652 
" clip-path="url(#pd32718cb93)" style="fill: none; stroke: #ff7f0e; stroke-width: 2; stroke-linecap: square"/>
   </g>
   <g id="patch_3">
    <path d="M 22.5 32.04 
L 22.5 4.32 
" style="fill: none; stroke: #000000; stroke-width: 0.8; stroke-linejoin: miter; stroke-linecap: square"/>
   </g>
   <g id="patch_4">
    <path d="M 162 32.04 
L 162 4.32 
" style="fill: none; stroke: #000000; stroke-width: 0.8; stroke-linejoin: miter; stroke-linecap: square"/>
   </g>
   <g id="patch_5">
    <path d="M 22.5 32.04 
L 162 32.04 
" style="fill: none; stroke: #000000; stroke-width: 0.8; stroke-linejoin: miter; stroke-linecap: square"/>
   </g>
   <g id="patch_6">
    <path d="M 22.5 4.32 
L 162 4.32 
" style="fill: none; stroke: #000000; stroke-width: 0.8; stroke-linejoin: miter; stroke-linecap: square"/>
   </g>
  </g>
 </g>
 <defs>
  <clipPath id="pd32718cb93">
   <rect x="22.5" y="4.32" width="139.5" height="27.72"/>
  </clipPath>
 </defs>
</svg>
