<?xml version="1.0" encoding="utf-8" standalone="no"?>
<!DOCTYPE svg PUBLIC "-//W3C//DTD SVG 1.1//EN"
  "http://www.w3.org/Graphics/SVG/1.1/DTD/svg11.dtd">
<svg xmlns:xlink="http://www.w3.org/1999/xlink" width="180pt" height="36pt" viewBox="0 0 180 36" xmlns="http://www.w3.org/2000/svg" version="1.1">
 <metadata>
  <rdf:RDF xmlns:dc="http://purl.org/dc/elements/1.1/" xmlns:cc="http://creativecommons.org/ns#" xmlns:rdf="http://www.w3.org/1999/02/22-rdf-syntax-ns#">
   <cc:Work>
    <dc:type rdf:resource="http://purl.org/dc/dcmitype/StillImage"/>
    <dc:date>2024-11-14T13:49:58.581904</dc:date>
    <dc:format>image/svg+xml</dc:format>
    <dc:creator>
     <cc:Agent>
      <dc:title>Matplotlib v3.9.1, https://matplotlib.org/</dc:title>
     </cc:Agent>
    </dc:creator>
   </cc:Work>
  </rdf:RDF>
 </metadata>
 <defs>
  <style type="text/css">*{stroke-linejoin: round; stroke-linecap: butt}</style>
 </defs>
 <g id="figure_1">
  <g id="patch_1">
   <path d="M 0 36 
L 180 36 
L 180 0 
L 0 0 
L 0 36 
z
" style="fill: none"/>
  </g>
  <g id="axes_1">
   <g id="patch_2">
    <path d="M 22.5 32.04 
L 162 32.04 
L 162 4.32 
L 22.5 4.32 
L 22.5 32.04 
z
" style="fill: none"/>
   </g>
   <g id="matplotlib.axis_1">
    <g id="xtick_1"/>
    <g id="xtick_2"/>
    <g id="xtick_3"/>
    <g id="xtick_4"/>
   </g>
   <g id="matplotlib.axis_2">
    <g id="ytick_1"/>
    <g id="ytick_2"/>
    <g id="ytick_3"/>
   </g>
   <g id="line2d_1">
    <path d="M 28.840909 20.202794 
L 29.545455 20.851324 
L 30.25 20.202794 
L 30.954545 20.774118 
L 31.659091 20.666029 
L 32.363636 18.982941 
L 33.068182 18.843971 
L 33.772727 18.890294 
L 34.477273 19.785882 
L 35.181818 22.457206 
L 35.886364 21.052059 
L 37.295455 20.789559 
L 38 19.353529 
L 38.704545 19.600588 
L 39.409091 21.237353 
L 40.113636 20.557941 
L 40.818182 21.546176 
L 41.522727 19.893971 
L 42.227273 17.330735 
L 42.931818 17.824853 
L 43.636364 19.909412 
L 44.340909 17.361618 
L 45.045455 17.114559 
L 45.75 16.188088 
L 46.454545 16.8675 
L 47.159091 19.23 
L 47.863636 18.566029 
L 48.568182 17.485147 
L 50.681818 22.889559 
L 51.386364 23.445441 
L 52.090909 22.333676 
L 52.795455 20.789559 
L 53.5 18.519706 
L 54.204545 18.365294 
L 54.909091 18.982941 
L 55.613636 17.763088 
L 56.318182 19.4925 
L 57.022727 19.368971 
L 57.727273 17.500588 
L 58.431818 19.415294 
L 59.136364 20.141029 
L 59.840909 20.5425 
L 60.545455 20.079265 
L 61.25 18.751324 
L 61.954545 18.241765 
L 62.659091 19.585147 
L 63.363636 21.638824 
L 64.068182 21.438088 
L 64.772727 22.441765 
L 65.477273 21.607941 
L 66.181818 22.287353 
L 66.886364 22.426324 
L 67.590909 21.283676 
L 68.295455 20.712353 
L 69 19.801324 
L 70.409091 22.441765 
L 71.818182 22.580735 
L 72.522727 22.673382 
L 73.227273 21.901324 
L 74.636364 17.608676 
L 75.340909 18.195441 
L 76.045455 19.646912 
L 76.75 20.527059 
L 77.454545 23.275588 
L 78.159091 24.958676 
L 78.863636 27.012353 
L 79.568182 25.854265 
L 80.272727 25.190294 
L 81.681818 24.557206 
L 83.090909 24.835147 
L 83.795455 24.001324 
L 84.5 24.526324 
L 85.204545 22.827794 
L 85.909091 23.491765 
L 86.613636 23.6925 
L 87.318182 22.874118 
L 88.022727 20.326324 
L 88.727273 21.793235 
L 90.136364 23.491765 
L 90.840909 23.383676 
L 91.545455 18.241765 
L 92.25 17.793971 
L 92.954545 15.446912 
L 93.659091 14.999118 
L 94.363636 17.516029 
L 95.068182 16.311618 
L 95.772727 17.500588 
L 96.477273 17.932941 
L 97.181818 17.423382 
L 97.886364 20.527059 
L 98.590909 21.669706 
L 99.295455 22.009412 
L 100 19.924853 
L 100.704545 20.357206 
L 101.409091 19.338088 
L 102.113636 20.079265 
L 102.818182 20.249118 
L 103.522727 20.557941 
L 104.227273 20.218235 
L 104.931818 22.225588 
L 105.636364 22.210147 
L 106.340909 23.677059 
L 107.045455 25.437353 
L 107.75 24.727059 
L 108.454545 23.460882 
L 109.159091 24.356471 
L 109.863636 23.538088 
L 110.568182 21.870441 
L 111.272727 22.596176 
L 111.977273 21.963088 
L 112.681818 19.322647 
L 113.386364 17.438824 
L 114.090909 18.705 
L 114.795455 22.225588 
L 115.5 20.913088 
L 116.204545 23.352794 
L 116.909091 23.584412 
L 117.613636 21.947647 
L 118.318182 24.727059 
L 119.022727 22.6425 
L 119.727273 25.2675 
L 120.431818 25.715294 
L 121.136364 23.337353 
L 121.840909 24.958676 
L 122.545455 24.680735 
L 123.25 23.893235 
L 123.954545 24.2175 
L 124.659091 24.696176 
L 125.363636 24.618971 
L 126.068182 23.291029 
L 126.772727 24.649853 
L 127.477273 22.38 
L 128.181818 24.418235 
L 128.886364 23.862353 
L 129.590909 25.174853 
L 130.295455 24.356471 
L 131 22.719706 
L 131.704545 25.035882 
L 132.409091 24.155735 
L 133.818182 24.696176 
L 134.522727 25.499118 
L 135.227273 24.140294 
L 135.931818 24.757941 
L 136.636364 23.491765 
L 137.340909 24.109412 
L 138.045455 21.530735 
L 138.75 23.769706 
L 139.454545 23.6925 
L 141.568182 22.055735 
L 142.272727 23.846912 
L 142.977273 21.855 
L 143.681818 22.349118 
L 144.386364 22.009412 
L 145.090909 21.021176 
L 145.795455 20.588824 
L 146.5 19.832206 
L 147.204545 21.160147 
L 147.909091 23.816029 
L 148.613636 24.665294 
L 149.318182 24.711618 
L 150.022727 25.066765 
L 150.727273 26.919706 
L 151.431818 26.518235 
L 152.840909 26.271176 
L 153.545455 24.943235 
L 154.25 24.866029 
L 154.954545 24.047647 
L 155.659091 24.727059 
L 155.659091 24.727059 
" clip-path="url(#pcbe137504a)" style="fill: none; stroke: #1f77b4; stroke-width: 2; stroke-linecap: square"/>
   </g>
   <g id="line2d_2">
    <path d="M 28.840909 16.357941 
L 29.545455 16.466029 
L 30.25 15.647647 
L 30.954545 10.799118 
L 31.659091 15.2925 
L 32.363636 11.154265 
L 33.068182 5.58 
L 33.772727 8.374853 
L 35.181818 16.157206 
L 35.886364 18.612353 
L 37.295455 26.193971 
L 38 27.197647 
L 38.704545 27.058676 
L 39.409091 27.135882 
L 40.113636 26.8425 
L 40.818182 29.158676 
L 41.522727 29.776324 
L 42.227273 29.390294 
L 42.931818 29.946176 
L 43.636364 29.4675 
L 44.340909 29.853529 
L 45.75 26.3175 
L 46.454545 24.727059 
L 47.159091 24.989559 
L 47.863636 23.460882 
L 48.568182 20.326324 
L 49.272727 19.013824 
L 49.977273 14.860147 
L 50.681818 12.605735 
L 51.386364 9.455735 
L 52.090909 10.428529 
L 52.795455 17.454265 
L 53.5 21.191029 
L 54.204545 21.654265 
L 54.909091 23.399118 
L 56.318182 23.152059 
L 57.022727 24.109412 
L 57.727273 23.121176 
L 58.431818 22.410882 
L 59.136364 21.206471 
L 59.840909 18.210882 
L 61.25 16.666765 
L 61.954545 13.609412 
L 62.659091 13.424118 
L 63.363636 15.076324 
L 64.068182 15.771176 
L 64.772727 16.728529 
L 65.477273 18.535147 
L 66.181818 21.0675 
L 66.886364 22.163824 
L 67.590909 22.657941 
L 68.295455 22.719706 
L 69 22.055735 
L 69.704545 21.916765 
L 70.409091 22.812353 
L 71.113636 21.623382 
L 72.522727 19.832206 
L 73.227273 15.446912 
L 73.931818 19.060147 
L 74.636364 14.458676 
L 75.340909 13.1925 
L 76.045455 9.702794 
L 76.75 13.686618 
L 77.454545 15.570441 
L 78.159091 14.752059 
L 78.863636 19.091029 
L 79.568182 16.944706 
L 80.272727 22.071176 
L 80.977273 21.345441 
L 81.681818 17.655 
L 82.386364 18.689559 
L 83.090909 16.898382 
L 83.795455 16.419706 
L 84.5 17.469706 
L 85.204545 16.682206 
L 86.613636 25.668971 
L 87.318182 25.53 
L 88.022727 24.665294 
L 88.727273 24.047647 
L 89.431818 22.194706 
L 90.136364 20.789559 
L 90.840909 19.770441 
L 91.545455 18.982941 
L 92.25 18.720441 
L 92.954545 18.318971 
L 93.659091 21.129265 
L 94.363636 20.913088 
L 95.068182 21.901324 
L 95.772727 20.187353 
L 96.477273 19.909412 
L 97.886364 23.013088 
L 98.590909 24.850588 
L 99.295455 25.962353 
L 100 24.572647 
L 100.704545 25.514559 
L 102.113636 28.896176 
L 103.522727 29.9925 
L 104.931818 30.579265 
L 105.636364 30.718235 
L 106.340909 30.378529 
L 107.045455 30.78 
L 107.75 30.532941 
L 108.454545 30.054265 
L 109.159091 29.946176 
L 110.568182 28.788088 
L 111.272727 28.201324 
L 111.977273 26.410147 
L 112.681818 25.051324 
L 113.386364 23.136618 
L 114.090909 21.700588 
L 114.795455 21.098382 
L 115.5 17.222647 
L 116.204545 16.805735 
L 116.909091 16.049118 
L 117.613636 14.968235 
L 118.318182 15.879265 
L 119.022727 16.373382 
L 119.727273 17.284412 
L 120.431818 20.0175 
L 121.136364 18.797647 
L 121.840909 19.152794 
L 122.545455 19.785882 
L 123.25 20.249118 
L 123.954545 19.276324 
L 124.659091 19.199118 
L 125.363636 17.377059 
L 126.068182 17.516029 
L 127.477273 21.252794 
L 128.181818 24.541765 
L 128.886364 25.746176 
L 129.590909 27.429265 
L 130.295455 28.247647 
L 131 28.232206 
L 131.704545 27.799853 
L 132.409091 26.518235 
L 133.113636 28.046912 
L 133.818182 28.124118 
L 134.522727 27.707206 
L 135.227273 26.827059 
L 135.931818 25.715294 
L 136.636364 23.121176 
L 137.340909 21.376324 
L 138.045455 18.627794 
L 138.75 18.766765 
L 139.454545 17.716765 
L 140.159091 15.693971 
L 140.863636 12.991765 
L 142.272727 14.983676 
L 142.977273 16.388824 
L 143.681818 18.149118 
L 144.386364 17.068235 
L 145.090909 20.326324 
L 145.795455 20.295441 
L 146.5 20.758676 
L 147.204545 24.2175 
L 147.909091 25.437353 
L 149.318182 24.866029 
L 150.022727 25.360147 
L 151.431818 24.279265 
L 152.136364 23.337353 
L 152.840909 22.905 
L 153.545455 21.5925 
L 154.25 21.623382 
L 154.954545 19.075588 
L 155.659091 20.310882 
L 155.659091 20.310882 
" clip-path="url(#pcbe137504a)" style="fill: none; stroke: #ff7f0e; stroke-width: 2; stroke-linecap: square"/>
   </g>
   <g id="patch_3">
    <path d="M 22.5 32.04 
L 22.5 4.32 
" style="fill: none; stroke: #000000; stroke-width: 0.8; stroke-linejoin: miter; stroke-linecap: square"/>
   </g>
   <g id="patch_4">
    <path d="M 162 32.04 
L 162 4.32 
" style="fill: none; stroke: #000000; stroke-width: 0.8; stroke-linejoin: miter; stroke-linecap: square"/>
   </g>
   <g id="patch_5">
    <path d="M 22.5 32.04 
L 162 32.04 
" style="fill: none; stroke: #000000; stroke-width: 0.8; stroke-linejoin: miter; stroke-linecap: square"/>
   </g>
   <g id="patch_6">
    <path d="M 22.5 4.32 
L 162 4.32 
" style="fill: none; stroke: #000000; stroke-width: 0.8; stroke-linejoin: miter; stroke-linecap: square"/>
   </g>
  </g>
 </g>
 <defs>
  <clipPath id="pcbe137504a">
   <rect x="22.5" y="4.32" width="139.5" height="27.72"/>
  </clipPath>
 </defs>
</svg>
