<?xml version="1.0" encoding="utf-8" standalone="no"?>
<!DOCTYPE svg PUBLIC "-//W3C//DTD SVG 1.1//EN"
  "http://www.w3.org/Graphics/SVG/1.1/DTD/svg11.dtd">
<svg xmlns:xlink="http://www.w3.org/1999/xlink" width="180pt" height="36pt" viewBox="0 0 180 36" xmlns="http://www.w3.org/2000/svg" version="1.1">
 <metadata>
  <rdf:RDF xmlns:dc="http://purl.org/dc/elements/1.1/" xmlns:cc="http://creativecommons.org/ns#" xmlns:rdf="http://www.w3.org/1999/02/22-rdf-syntax-ns#">
   <cc:Work>
    <dc:type rdf:resource="http://purl.org/dc/dcmitype/StillImage"/>
    <dc:date>2024-11-14T13:49:58.080117</dc:date>
    <dc:format>image/svg+xml</dc:format>
    <dc:creator>
     <cc:Agent>
      <dc:title>Matplotlib v3.9.1, https://matplotlib.org/</dc:title>
     </cc:Agent>
    </dc:creator>
   </cc:Work>
  </rdf:RDF>
 </metadata>
 <defs>
  <style type="text/css">*{stroke-linejoin: round; stroke-linecap: butt}</style>
 </defs>
 <g id="figure_1">
  <g id="patch_1">
   <path d="M 0 36 
L 180 36 
L 180 0 
L 0 0 
L 0 36 
z
" style="fill: none"/>
  </g>
  <g id="axes_1">
   <g id="patch_2">
    <path d="M 22.5 32.04 
L 162 32.04 
L 162 4.32 
L 22.5 4.32 
L 22.5 32.04 
z
" style="fill: none"/>
   </g>
   <g id="matplotlib.axis_1">
    <g id="xtick_1"/>
    <g id="xtick_2"/>
    <g id="xtick_3"/>
    <g id="xtick_4"/>
   </g>
   <g id="matplotlib.axis_2">
    <g id="ytick_1"/>
    <g id="ytick_2"/>
   </g>
   <g id="line2d_1">
    <path d="M 28.840909 9.898408 
L 29.545455 10.650647 
L 30.25 12.935224 
L 30.954545 12.419801 
L 31.659091 13.144179 
L 32.363636 13.046667 
L 33.068182 15.038706 
L 33.772727 18.256617 
L 34.477273 20.569055 
L 35.181818 16.306368 
L 35.886364 16.292438 
L 36.590909 15.010846 
L 37.295455 15.902388 
L 38 16.988955 
L 38.704545 21.683483 
L 39.409091 22.407861 
L 40.113636 23.410846 
L 40.818182 22.435721 
L 41.522727 21.780995 
L 42.227273 19.900398 
L 42.931818 19.398905 
L 43.636364 18.089453 
L 44.340909 17.755124 
L 45.045455 16.682488 
L 45.75 19.301393 
L 46.454545 19.524279 
L 47.159091 22.115323 
L 47.863636 18.911343 
L 48.568182 19.830746 
L 49.272727 19.844677 
L 49.977273 18.228756 
L 50.681818 18.590945 
L 51.386364 18.270547 
L 52.090909 14.537214 
L 52.795455 16.041692 
L 53.5 15.219801 
L 54.204545 10.427761 
L 55.613636 11.026766 
L 56.318182 12.029751 
L 57.022727 11.347164 
L 57.727273 12.809851 
L 58.431818 12.726269 
L 59.136364 15.860597 
L 59.840909 10.748159 
L 60.545455 15.414826 
L 61.25 16.292438 
L 61.954545 19.148159 
L 62.659091 17.19791 
L 63.363636 14.105373 
L 64.068182 15.108358 
L 64.772727 11.124279 
L 65.477273 12.029751 
L 66.181818 14.537214 
L 66.886364 11.514328 
L 67.590909 15.136219 
L 68.295455 13.701393 
L 69 18.855622 
L 69.704545 16.738209 
L 70.409091 17.379005 
L 71.113636 16.598905 
L 71.818182 16.988955 
L 72.522727 14.453632 
L 73.227273 17.18398 
L 73.931818 16.891443 
L 74.636364 17.96408 
L 75.340909 17.782985 
L 76.045455 15.373035 
L 76.75 17.852637 
L 77.454545 18.200896 
L 78.159091 17.225771 
L 78.863636 15.317313 
L 79.568182 14.411841 
L 80.272727 15.958109 
L 80.977273 15.651642 
L 81.681818 15.693433 
L 82.386364 11.096418 
L 83.090909 11.765075 
L 83.795455 13.130249 
L 84.5 11.653632 
L 85.204545 8.254627 
L 85.909091 8.616816 
L 86.613636 8.477512 
L 87.318182 9.773035 
L 88.022727 9.118308 
L 88.727273 13.241692 
L 89.431818 12.517313 
L 90.136364 12.475522 
L 90.840909 16.36209 
L 91.545455 14.314328 
L 92.25 15.414826 
L 92.954545 15.763085 
L 93.659091 16.76607 
L 94.363636 16.37602 
L 95.068182 17.434726 
L 95.772727 13.213831 
L 96.477273 15.400896 
L 97.181818 12.433731 
L 97.886364 10.190945 
L 98.590909 8.616816 
L 99.295455 8.477512 
L 100.704545 7.460597 
L 101.409091 7.418806 
L 102.113636 8.352139 
L 103.522727 12.573035 
L 104.227273 12.79592 
L 104.931818 14.133234 
L 105.636364 15.9999 
L 106.340909 15.428756 
L 107.045455 15.930249 
L 107.75 17.755124 
L 108.454545 18.493433 
L 109.159091 18.493433 
L 109.863636 19.078507 
L 110.568182 18.256617 
L 111.272727 16.891443 
L 111.977273 18.716318 
L 112.681818 18.061592 
L 113.386364 16.807861 
L 114.090909 16.055622 
L 114.795455 16.194925 
L 115.5 18.103383 
L 116.204545 18.256617 
L 116.909091 13.868557 
L 117.613636 16.167065 
L 118.318182 15.359104 
L 119.022727 16.835721 
L 121.136364 13.1999 
L 121.840909 14.732239 
L 122.545455 12.113333 
L 123.954545 15.916318 
L 124.659091 10.957114 
L 125.363636 11.361095 
L 126.068182 13.325274 
L 126.772727 12.169055 
L 127.477273 13.631741 
L 128.181818 14.592935 
L 128.886364 15.233731 
L 129.590909 16.807861 
L 130.295455 20.081493 
L 131 17.100398 
L 131.704545 19.733234 
L 132.409091 17.532239 
L 133.113636 18.604876 
L 133.818182 18.535224 
L 135.227273 19.064577 
L 135.931818 17.838706 
L 136.636364 21.223781 
L 137.340909 23.048657 
L 138.045455 23.633731 
L 138.75 25.096418 
L 139.454545 22.616816 
L 140.159091 24.76209 
L 140.863636 23.466567 
L 141.568182 21.906368 
L 142.272727 20.986965 
L 142.977273 21.920299 
L 143.681818 19.468557 
L 144.386364 19.802886 
L 145.090909 19.18995 
L 145.795455 16.487463 
L 146.5 16.626766 
L 147.204545 14.690448 
L 147.909091 18.075522 
L 148.613636 18.089453 
L 149.318182 21.140199 
L 150.022727 21.112338 
L 150.727273 19.510348 
L 151.431818 17.086468 
L 152.136364 19.496418 
L 152.840909 19.092438 
L 153.545455 18.228756 
L 154.25 19.092438 
L 154.954545 17.97801 
L 155.659091 19.510348 
L 155.659091 19.510348 
" clip-path="url(#pe73e972f66)" style="fill: none; stroke: #1f77b4; stroke-width: 2; stroke-linecap: square"/>
   </g>
   <g id="line2d_2">
    <path d="M 28.840909 10.734229 
L 29.545455 12.670547 
L 30.25 9.382985 
L 30.954545 8.491443 
L 31.659091 5.58 
L 32.363636 9.466567 
L 33.068182 7.530249 
L 33.772727 8.129254 
L 34.477273 13.394925 
L 35.181818 13.116318 
L 35.886364 17.782985 
L 36.590909 19.844677 
L 37.295455 20.304378 
L 38 17.365075 
L 38.704545 16.668557 
L 39.409091 18.159104 
L 40.818182 11.765075 
L 41.522727 5.58 
L 42.227273 11.16607 
L 42.931818 11.862587 
L 43.636364 14.704378 
L 44.340909 9.480498 
L 45.045455 15.010846 
L 45.75 11.848657 
L 46.454545 14.481493 
L 47.159091 12.545174 
L 47.863636 15.010846 
L 48.568182 9.800896 
L 49.272727 6.415821 
L 50.681818 9.271542 
L 51.386364 11.695423 
L 52.090909 11.138209 
L 52.795455 11.709353 
L 53.5 17.769055 
L 54.204545 16.877512 
L 54.909091 14.063582 
L 55.613636 11.792935 
L 56.318182 11.068557 
L 57.022727 10.009851 
L 58.431818 16.571045 
L 59.840909 13.56209 
L 60.545455 16.180995 
L 61.954545 16.125274 
L 62.659091 21.808856 
L 63.363636 19.663582 
L 64.068182 22.38 
L 64.772727 20.569055 
L 65.477273 20.889453 
L 66.181818 19.022786 
L 66.886364 17.518308 
L 67.590909 19.482488 
L 68.295455 16.79393 
L 69 13.450647 
L 69.704545 15.818806 
L 70.409091 13.840697 
L 71.113636 13.297413 
L 71.818182 14.495423 
L 72.522727 14.328259 
L 73.227273 14.77403 
L 73.931818 13.715323 
L 74.636364 14.885473 
L 75.340909 11.9601 
L 76.045455 12.280498 
L 76.75 9.856617 
L 77.454545 5.830746 
L 78.159091 9.020796 
L 78.863636 7.5999 
L 79.568182 13.645672 
L 80.272727 14.216816 
L 80.977273 14.411841 
L 81.681818 15.400896 
L 83.090909 20.248657 
L 83.795455 23.633731 
L 84.5 23.731244 
L 85.204545 24.873532 
L 85.909091 25.291443 
L 86.613636 25.291443 
L 87.318182 24.998905 
L 88.022727 24.873532 
L 88.727273 24.455622 
L 89.431818 22.39393 
L 90.136364 21.293433 
L 90.840909 18.047662 
L 91.545455 18.200896 
L 92.25 16.543184 
L 92.954545 19.343184 
L 93.659091 17.97801 
L 94.363636 19.134229 
L 95.772727 16.125274 
L 96.477273 17.392935 
L 97.181818 20.192935 
L 97.886364 17.615821 
L 98.590909 18.925274 
L 99.295455 17.99194 
L 100 19.649652 
L 100.704545 20.694428 
L 101.409091 20.805871 
L 102.113636 20.276517 
L 102.818182 21.070547 
L 104.227273 18.78597 
L 104.931818 16.487463 
L 105.636364 16.933234 
L 106.340909 15.804876 
L 107.045455 14.982985 
L 107.75 15.512338 
L 108.454545 17.838706 
L 109.863636 16.849652 
L 110.568182 16.863582 
L 111.272727 16.36209 
L 111.977273 17.880498 
L 112.681818 16.041692 
L 113.386364 19.816816 
L 114.090909 20.095423 
L 114.795455 20.123284 
L 115.5 17.99194 
L 116.204545 20.805871 
L 116.909091 20.819801 
L 117.613636 20.596915 
L 118.318182 23.717313 
L 119.022727 22.017811 
L 120.431818 23.132239 
L 121.136364 22.867562 
L 121.840909 23.870547 
L 122.545455 26.294428 
L 123.25 27.784975 
L 124.659091 23.647662 
L 125.363636 25.068557 
L 126.068182 25.876517 
L 126.772727 24.706368 
L 127.477273 26.182985 
L 128.181818 25.834726 
L 128.886364 25.709353 
L 129.590909 24.121294 
L 130.295455 24.78995 
L 131 24.803881 
L 131.704545 22.853632 
L 132.409091 24.483483 
L 133.113636 25.096418 
L 133.818182 24.302388 
L 134.522727 25.110348 
L 135.227273 23.856617 
L 135.931818 25.068557 
L 136.636364 24.553134 
L 137.340909 24.971045 
L 138.045455 26.280498 
L 138.75 26.921294 
L 139.454545 25.207861 
L 140.159091 24.580995 
L 140.863636 23.508358 
L 141.568182 24.580995 
L 142.272727 21.711343 
L 142.977273 20.206866 
L 143.681818 22.143184 
L 144.386364 20.680498 
L 145.090909 21.892438 
L 145.795455 23.396915 
L 146.5 22.825771 
L 147.204545 20.527264 
L 147.909091 23.452637 
L 148.613636 24.135224 
L 149.318182 27.924279 
L 150.022727 29.777015 
L 150.727273 29.331244 
L 151.431818 30.459602 
L 152.136364 30.78 
L 152.840909 29.874527 
L 153.545455 28.537214 
L 154.954545 27.729254 
L 155.659091 27.018806 
L 155.659091 27.018806 
" clip-path="url(#pe73e972f66)" style="fill: none; stroke: #ff7f0e; stroke-width: 2; stroke-linecap: square"/>
   </g>
   <g id="patch_3">
    <path d="M 22.5 32.04 
L 22.5 4.32 
" style="fill: none; stroke: #000000; stroke-width: 0.8; stroke-linejoin: miter; stroke-linecap: square"/>
   </g>
   <g id="patch_4">
    <path d="M 162 32.04 
L 162 4.32 
" style="fill: none; stroke: #000000; stroke-width: 0.8; stroke-linejoin: miter; stroke-linecap: square"/>
   </g>
   <g id="patch_5">
    <path d="M 22.5 32.04 
L 162 32.04 
" style="fill: none; stroke: #000000; stroke-width: 0.8; stroke-linejoin: miter; stroke-linecap: square"/>
   </g>
   <g id="patch_6">
    <path d="M 22.5 4.32 
L 162 4.32 
" style="fill: none; stroke: #000000; stroke-width: 0.8; stroke-linejoin: miter; stroke-linecap: square"/>
   </g>
  </g>
 </g>
 <defs>
  <clipPath id="pe73e972f66">
   <rect x="22.5" y="4.32" width="139.5" height="27.72"/>
  </clipPath>
 </defs>
</svg>
