<?xml version="1.0" encoding="utf-8" standalone="no"?>
<!DOCTYPE svg PUBLIC "-//W3C//DTD SVG 1.1//EN"
  "http://www.w3.org/Graphics/SVG/1.1/DTD/svg11.dtd">
<svg xmlns:xlink="http://www.w3.org/1999/xlink" width="180pt" height="36pt" viewBox="0 0 180 36" xmlns="http://www.w3.org/2000/svg" version="1.1">
 <metadata>
  <rdf:RDF xmlns:dc="http://purl.org/dc/elements/1.1/" xmlns:cc="http://creativecommons.org/ns#" xmlns:rdf="http://www.w3.org/1999/02/22-rdf-syntax-ns#">
   <cc:Work>
    <dc:type rdf:resource="http://purl.org/dc/dcmitype/StillImage"/>
    <dc:date>2024-11-14T13:49:58.310582</dc:date>
    <dc:format>image/svg+xml</dc:format>
    <dc:creator>
     <cc:Agent>
      <dc:title>Matplotlib v3.9.1, https://matplotlib.org/</dc:title>
     </cc:Agent>
    </dc:creator>
   </cc:Work>
  </rdf:RDF>
 </metadata>
 <defs>
  <style type="text/css">*{stroke-linejoin: round; stroke-linecap: butt}</style>
 </defs>
 <g id="figure_1">
  <g id="patch_1">
   <path d="M 0 36 
L 180 36 
L 180 0 
L 0 0 
L 0 36 
z
" style="fill: none"/>
  </g>
  <g id="axes_1">
   <g id="patch_2">
    <path d="M 22.5 32.04 
L 162 32.04 
L 162 4.32 
L 22.5 4.32 
L 22.5 32.04 
z
" style="fill: none"/>
   </g>
   <g id="matplotlib.axis_1">
    <g id="xtick_1"/>
    <g id="xtick_2"/>
    <g id="xtick_3"/>
    <g id="xtick_4"/>
   </g>
   <g id="matplotlib.axis_2">
    <g id="ytick_1"/>
    <g id="ytick_2"/>
   </g>
   <g id="line2d_1">
    <path d="M 28.840909 19.631613 
L 29.545455 20.859263 
L 30.25 22.41871 
L 30.954545 21.108111 
L 31.659091 19.067558 
L 32.363636 21.17447 
L 33.068182 16.628848 
L 33.772727 20.311797 
L 34.477273 17.425161 
L 35.181818 16.297051 
L 35.886364 17.242673 
L 36.590909 16.180922 
L 37.295455 18.038986 
L 38 15.13576 
L 38.704545 16.263871 
L 39.409091 17.690599 
L 40.113636 21.15788 
L 40.818182 20.826083 
L 41.522727 22.916406 
L 42.227273 24.542212 
L 42.931818 25.620553 
L 43.636364 25.404885 
L 44.340909 22.617788 
L 45.045455 25.471244 
L 45.75 24.227005 
L 46.454545 24.376313 
L 47.159091 21.356959 
L 47.863636 20.925622 
L 48.568182 20.693364 
L 49.272727 18.569862 
L 49.977273 18.984608 
L 50.681818 16.263871 
L 51.386364 20.693364 
L 52.090909 22.534839 
L 52.795455 20.02977 
L 53.5 21.572627 
L 54.204545 22.684147 
L 54.909091 22.186452 
L 55.613636 20.709954 
L 56.318182 19.814101 
L 57.022727 23.662949 
L 57.727273 23.132074 
L 58.431818 22.020553 
L 59.136364 21.340369 
L 59.840909 19.581843 
L 60.545455 20.776313 
L 61.25 18.934839 
L 61.954545 20.444516 
L 62.659091 19.98 
L 64.068182 21.20765 
L 64.772727 19.415945 
L 65.477273 22.650968 
L 66.181818 24.392903 
L 66.886364 24.160645 
L 67.590909 19.897051 
L 68.295455 20.809493 
L 69.704545 17.275853 
L 70.409091 14.472166 
L 71.113636 21.987373 
L 71.818182 23.646359 
L 72.522727 22.767097 
L 73.931818 26.217788 
L 74.636364 24.044516 
L 75.340909 20.676774 
L 76.045455 18.022396 
L 76.75 17.640829 
L 77.454545 15.450968 
L 78.159091 13.9247 
L 79.568182 12.481382 
L 80.272727 14.920092 
L 80.977273 19.266636 
L 81.681818 24.542212 
L 82.386364 27.677696 
L 83.090909 29.58553 
L 84.5 27.843594 
L 85.204545 25.769862 
L 85.909091 26.085069 
L 86.613636 27.21318 
L 87.318182 27.627926 
L 88.022727 26.748664 
L 88.727273 26.516406 
L 89.431818 24.558802 
L 90.136364 22.003963 
L 90.840909 18.553272 
L 91.545455 22.451889 
L 92.25 19.515484 
L 92.954545 21.622396 
L 93.659091 19.432535 
L 94.363636 18.271244 
L 95.068182 17.723779 
L 95.772727 20.195668 
L 96.477273 20.461106 
L 97.181818 18.685991 
L 97.886364 18.868479 
L 98.590909 17.226083 
L 99.295455 17.325622 
L 100 19.283226 
L 100.704545 18.486912 
L 101.409091 19.432535 
L 102.113636 16.180922 
L 103.522727 18.138525 
L 104.227273 16.744977 
L 104.931818 18.586452 
L 105.636364 21.058341 
L 106.340909 21.15788 
L 107.045455 21.821475 
L 108.454545 16.064793 
L 109.159091 15.948664 
L 109.863636 18.188295 
L 110.568182 18.76894 
L 111.272727 14.074009 
L 111.977273 13.509954 
L 112.681818 14.521935 
L 113.386364 12.315484 
L 114.090909 8.798433 
L 115.5 17.723779 
L 116.204545 15.517327 
L 117.613636 12.497972 
L 118.318182 13.460184 
L 119.022727 17.043594 
L 119.727273 18.171705 
L 120.431818 14.704424 
L 121.136364 12.862949 
L 121.840909 14.787373 
L 122.545455 15.102581 
L 123.25 15.650046 
L 123.954545 17.060184 
L 124.659091 19.913641 
L 125.363636 19.631613 
L 126.068182 19.532074 
L 126.772727 18.951429 
L 127.477273 21.605806 
L 128.181818 23.497051 
L 128.886364 22.319171 
L 129.590909 24.973548 
L 130.295455 23.978157 
L 131 20.494286 
L 131.704545 20.909032 
L 132.409091 19.93023 
L 133.113636 21.987373 
L 133.818182 19.133917 
L 135.227273 22.36894 
L 135.931818 20.195668 
L 136.636364 20.046359 
L 137.340909 18.453733 
L 138.045455 14.721014 
L 138.75 16.927465 
L 139.454545 11.917327 
L 140.159091 13.095207 
L 140.863636 10.955115 
L 141.568182 11.850968 
L 142.272727 12.365253 
L 142.977273 9.810415 
L 143.681818 13.858341 
L 145.090909 17.060184 
L 145.795455 15.417788 
L 146.5 15.401198 
L 147.204545 15.036221 
L 147.909091 17.242673 
L 148.613636 16.33023 
L 149.318182 14.00765 
L 150.022727 14.853733 
L 150.727273 12.149585 
L 151.431818 13.908111 
L 152.136364 12.514562 
L 152.840909 15.666636 
L 153.545455 15.052811 
L 154.25 16.877696 
L 154.954545 12.614101 
L 155.659091 18.80212 
L 155.659091 18.80212 
" clip-path="url(#pbde691d025)" style="fill: none; stroke: #1f77b4; stroke-width: 2; stroke-linecap: square"/>
   </g>
   <g id="line2d_2">
    <path d="M 28.840909 20.394747 
L 29.545455 19.266636 
L 30.25 18.536682 
L 30.954545 18.520092 
L 31.659091 17.906267 
L 32.363636 19.615023 
L 33.772727 21.638986 
L 34.477273 23.347742 
L 35.181818 23.198433 
L 35.886364 25.686912 
L 36.590909 25.238986 
L 37.295455 27.793825 
L 38 30.78 
L 38.704545 30.199355 
L 39.409091 29.884147 
L 40.113636 30.033456 
L 40.818182 27.329309 
L 41.522727 28.772627 
L 42.227273 26.250968 
L 42.931818 24.459263 
L 44.340909 15.666636 
L 45.045455 13.808571 
L 45.75 15.15235 
L 46.454545 17.458341 
L 47.159091 17.806728 
L 47.863636 18.287834 
L 48.568182 16.595668 
L 49.272727 19.299816 
L 49.977273 17.873088 
L 50.681818 16.131152 
L 51.386364 15.484147 
L 52.090909 12.083226 
L 52.795455 16.38 
L 53.5 16.993825 
L 54.204545 16.993825 
L 54.909091 18.403963 
L 55.613636 18.619631 
L 56.318182 18.586452 
L 57.022727 19.93023 
L 57.727273 22.319171 
L 58.431818 23.696129 
L 59.136364 21.589217 
L 60.545455 15.882304 
L 61.25 15.119171 
L 61.954545 14.870323 
L 62.659091 14.853733 
L 64.068182 10.40765 
L 64.772727 11.403041 
L 65.477273 12.166175 
L 66.886364 20.693364 
L 67.590909 14.787373 
L 68.295455 15.616866 
L 69 11.867558 
L 69.704545 9.959724 
L 70.409091 14.090599 
L 71.113636 13.94129 
L 71.818182 12.016866 
L 72.522727 7.255576 
L 73.227273 9.843594 
L 73.931818 14.837143 
L 74.636364 18.503502 
L 75.340909 20.693364 
L 76.045455 21.755115 
L 76.75 24.160645 
L 77.454545 22.767097 
L 78.159091 22.203041 
L 78.863636 22.269401 
L 79.568182 26.0353 
L 80.272727 24.79106 
L 80.977273 24.575392 
L 81.681818 22.866636 
L 82.386364 19.349585 
L 83.090909 20.228848 
L 83.795455 17.690599 
L 84.5 13.509954 
L 85.204545 13.97447 
L 85.909091 12.398433 
L 86.613636 10.440829 
L 87.318182 14.190138 
L 88.022727 14.422396 
L 88.727273 13.178157 
L 89.431818 7.653733 
L 90.136364 10.540369 
L 90.840909 8.599355 
L 91.545455 10.606728 
L 92.25 11.933917 
L 92.954545 13.9247 
L 93.659091 17.972627 
L 94.363636 17.093364 
L 95.068182 18.636221 
L 95.772727 18.321014 
L 96.477273 19.664793 
L 97.181818 19.200276 
L 97.886364 18.901659 
L 98.590909 17.806728 
L 99.295455 16.263871 
L 100 18.005806 
L 100.704545 14.405806 
L 101.409091 19.250046 
L 102.113636 14.389217 
L 102.818182 15.998433 
L 103.522727 16.131152 
L 104.931818 13.427005 
L 105.636364 13.476774 
L 106.340909 13.028848 
L 107.045455 11.270323 
L 107.75 14.837143 
L 108.454545 17.55788 
L 109.159091 19.465714 
L 109.863636 18.287834 
L 110.568182 20.129309 
L 111.272727 21.439908 
L 111.977273 23.696129 
L 112.681818 19.814101 
L 113.386364 22.650968 
L 114.090909 22.850046 
L 114.795455 17.226083 
L 115.5 18.271244 
L 116.204545 15.434378 
L 116.909091 13.261106 
L 117.613636 15.716406 
L 118.318182 15.384608 
L 119.022727 15.285069 
L 119.727273 12.82977 
L 120.431818 14.472166 
L 121.136364 13.543134 
L 121.840909 14.787373 
L 122.545455 18.553272 
L 123.954545 19.913641 
L 124.659091 21.025161 
L 125.363636 20.212258 
L 126.068182 17.292442 
L 126.772727 18.81871 
L 128.181818 14.571705 
L 128.886364 9.279539 
L 129.590909 8.848203 
L 130.295455 5.58 
L 131 6.144055 
L 133.113636 13.161567 
L 133.818182 18.238065 
L 134.522727 21.1247 
L 135.227273 19.150507 
L 135.931818 20.726544 
L 136.636364 18.088756 
L 137.340909 20.726544 
L 138.045455 19.316406 
L 138.75 22.037143 
L 139.454545 16.114562 
L 140.159091 13.908111 
L 140.863636 14.803963 
L 141.568182 9.694286 
L 142.977273 5.662949 
L 143.681818 7.156037 
L 144.386364 12.348664 
L 145.090909 10.059263 
L 145.795455 11.917327 
L 147.204545 13.775392 
L 147.909091 15.600276 
L 148.613636 17.856498 
L 149.318182 21.307189 
L 150.022727 21.921014 
L 150.727273 21.307189 
L 151.431818 23.132074 
L 152.136364 22.40212 
L 152.840909 19.797512 
L 153.545455 20.544055 
L 154.25 17.242673 
L 154.954545 17.773548 
L 155.659091 15.500737 
L 155.659091 15.500737 
" clip-path="url(#pbde691d025)" style="fill: none; stroke: #ff7f0e; stroke-width: 2; stroke-linecap: square"/>
   </g>
   <g id="patch_3">
    <path d="M 22.5 32.04 
L 22.5 4.32 
" style="fill: none; stroke: #000000; stroke-width: 0.8; stroke-linejoin: miter; stroke-linecap: square"/>
   </g>
   <g id="patch_4">
    <path d="M 162 32.04 
L 162 4.32 
" style="fill: none; stroke: #000000; stroke-width: 0.8; stroke-linejoin: miter; stroke-linecap: square"/>
   </g>
   <g id="patch_5">
    <path d="M 22.5 32.04 
L 162 32.04 
" style="fill: none; stroke: #000000; stroke-width: 0.8; stroke-linejoin: miter; stroke-linecap: square"/>
   </g>
   <g id="patch_6">
    <path d="M 22.5 4.32 
L 162 4.32 
" style="fill: none; stroke: #000000; stroke-width: 0.8; stroke-linejoin: miter; stroke-linecap: square"/>
   </g>
  </g>
 </g>
 <defs>
  <clipPath id="pbde691d025">
   <rect x="22.5" y="4.32" width="139.5" height="27.72"/>
  </clipPath>
 </defs>
</svg>
