<?xml version="1.0" encoding="utf-8" standalone="no"?>
<!DOCTYPE svg PUBLIC "-//W3C//DTD SVG 1.1//EN"
  "http://www.w3.org/Graphics/SVG/1.1/DTD/svg11.dtd">
<svg xmlns:xlink="http://www.w3.org/1999/xlink" width="180pt" height="36pt" viewBox="0 0 180 36" xmlns="http://www.w3.org/2000/svg" version="1.1">
 <metadata>
  <rdf:RDF xmlns:dc="http://purl.org/dc/elements/1.1/" xmlns:cc="http://creativecommons.org/ns#" xmlns:rdf="http://www.w3.org/1999/02/22-rdf-syntax-ns#">
   <cc:Work>
    <dc:type rdf:resource="http://purl.org/dc/dcmitype/StillImage"/>
    <dc:date>2024-11-14T13:49:57.963424</dc:date>
    <dc:format>image/svg+xml</dc:format>
    <dc:creator>
     <cc:Agent>
      <dc:title>Matplotlib v3.9.1, https://matplotlib.org/</dc:title>
     </cc:Agent>
    </dc:creator>
   </cc:Work>
  </rdf:RDF>
 </metadata>
 <defs>
  <style type="text/css">*{stroke-linejoin: round; stroke-linecap: butt}</style>
 </defs>
 <g id="figure_1">
  <g id="patch_1">
   <path d="M 0 36 
L 180 36 
L 180 0 
L 0 0 
L 0 36 
z
" style="fill: none"/>
  </g>
  <g id="axes_1">
   <g id="patch_2">
    <path d="M 22.5 32.04 
L 162 32.04 
L 162 4.32 
L 22.5 4.32 
L 22.5 32.04 
z
" style="fill: none"/>
   </g>
   <g id="matplotlib.axis_1">
    <g id="xtick_1"/>
    <g id="xtick_2"/>
    <g id="xtick_3"/>
    <g id="xtick_4"/>
   </g>
   <g id="matplotlib.axis_2">
    <g id="ytick_1"/>
    <g id="ytick_2"/>
   </g>
   <g id="line2d_1">
    <path d="M 28.840909 20.040698 
L 29.545455 18.927209 
L 30.25 21.373953 
L 30.954545 23.058837 
L 33.068182 29.02186 
L 34.477273 29.578605 
L 35.181818 29.417442 
L 35.886364 29.930233 
L 36.590909 30.721395 
L 37.295455 30.501628 
L 38.704545 30.677442 
L 40.818182 30.574884 
L 41.522727 30.032791 
L 42.931818 27.351628 
L 43.636364 25.915814 
L 44.340909 24.743721 
L 45.045455 21.359302 
L 45.75 20.875814 
L 46.454545 22.150465 
L 47.863636 26.062326 
L 48.568182 27.058605 
L 49.272727 26.047674 
L 49.977273 25.798605 
L 50.681818 26.282093 
L 51.386364 28.904651 
L 52.090909 29.944884 
L 52.795455 30.486977 
L 53.5 29.432093 
L 54.909091 27.908372 
L 55.613636 27.087907 
L 56.318182 26.794884 
L 57.727273 25.710698 
L 58.431818 25.534884 
L 59.136364 26.560465 
L 59.840909 25.534884 
L 60.545455 25.49093 
L 61.25 23.46907 
L 61.954545 23.425116 
L 62.659091 22.926977 
L 63.363636 22.751163 
L 64.068182 23.381163 
L 64.772727 24.274884 
L 65.477273 23.967209 
L 66.181818 24.09907 
L 66.886364 23.000233 
L 67.590909 24.523953 
L 68.295455 26.457907 
L 69 25.373721 
L 70.409091 23.820698 
L 71.113636 23.835349 
L 71.818182 21.373953 
L 72.522727 20.56814 
L 73.227273 22.443488 
L 73.931818 22.282326 
L 74.636364 19.776977 
L 75.340909 18.575581 
L 76.045455 15.484186 
L 76.75 16.275349 
L 77.454545 15.542791 
L 78.159091 15.366977 
L 78.863636 18.31186 
L 79.568182 17.359535 
L 80.272727 17.857674 
L 80.977273 21.227442 
L 81.681818 21.036977 
L 82.386364 20.714651 
L 83.090909 21.271395 
L 83.795455 18.751395 
L 84.5 17.213023 
L 85.204545 17.403488 
L 85.909091 20.56814 
L 86.613636 19.82093 
L 87.318182 17.79907 
L 88.022727 17.081163 
L 88.727273 16.758837 
L 89.431818 16.612326 
L 90.136364 19.527907 
L 90.840909 16.363256 
L 91.545455 15.996977 
L 92.25 14.165581 
L 92.954545 16.92 
L 93.659091 15.117907 
L 94.363636 16.700233 
L 95.068182 17.344884 
L 95.772727 17.359535 
L 96.477273 17.139767 
L 97.181818 15.425581 
L 97.886364 15.059302 
L 98.590909 15.703953 
L 99.295455 9.799535 
L 100.704545 11.352558 
L 101.409091 11.762791 
L 102.113636 15.235116 
L 102.818182 14.297442 
L 103.522727 17.989535 
L 104.227273 15.703953 
L 104.931818 17.066512 
L 105.636364 17.066512 
L 106.340909 18.42907 
L 107.045455 15.645349 
L 107.75 17.828372 
L 108.454545 17.05186 
L 109.159091 15.66 
L 110.568182 18.971163 
L 111.272727 18.853953 
L 111.977273 19.952791 
L 112.681818 18.004186 
L 113.386364 19.073721 
L 114.090909 21.403256 
L 114.795455 19.044419 
L 115.5 20.45093 
L 116.909091 18.106744 
L 117.613636 21.315349 
L 118.318182 20.216512 
L 119.022727 20.94907 
L 119.727273 18.912558 
L 120.431818 18.399767 
L 121.136364 16.934651 
L 121.840909 18.81 
L 122.545455 19.601163 
L 123.25 21.271395 
L 123.954545 18.795349 
L 124.659091 18.648837 
L 125.363636 17.227674 
L 126.068182 18.722093 
L 126.772727 18.238605 
L 127.477273 15.90907 
L 128.181818 20.846512 
L 128.886364 18.736744 
L 129.590909 17.916279 
L 130.295455 20.817209 
L 131 20.817209 
L 131.704545 20.231163 
L 132.409091 18.062791 
L 133.818182 21.769535 
L 134.522727 21.491163 
L 135.227273 17.447442 
L 135.931818 18.883256 
L 136.636364 17.652558 
L 137.340909 17.198372 
L 138.045455 18.473023 
L 138.75 15.132558 
L 139.454545 16.084884 
L 140.159091 15.777209 
L 140.863636 17.520698 
L 141.568182 18.414419 
L 142.272727 16.949302 
L 142.977273 16.202093 
L 143.681818 18.604884 
L 144.386364 16.890698 
L 145.090909 16.978605 
L 145.795455 14.78093 
L 146.5 15.337674 
L 147.204545 15.117907 
L 147.909091 13.227907 
L 148.613636 18.634186 
L 149.318182 21.403256 
L 150.022727 23.132093 
L 150.727273 23.307907 
L 151.431818 22.97093 
L 152.136364 23.688837 
L 152.840909 25.827907 
L 153.545455 25.754651 
L 154.25 25.212558 
L 154.954545 26.296744 
L 155.659091 23.98186 
L 155.659091 23.98186 
" clip-path="url(#p029111b954)" style="fill: none; stroke: #1f77b4; stroke-width: 2; stroke-linecap: square"/>
   </g>
   <g id="line2d_2">
    <path d="M 28.840909 11.484419 
L 29.545455 14.092326 
L 30.954545 10.971628 
L 31.659091 13.784651 
L 33.068182 21.124884 
L 33.772727 19.44 
L 34.477273 20.919767 
L 35.886364 18.194651 
L 36.590909 16.905349 
L 37.295455 17.007907 
L 38 15.264419 
L 38.704545 11.616279 
L 39.409091 12.392791 
L 40.113636 11.704186 
L 40.818182 14.605116 
L 41.522727 18.531628 
L 42.227273 16.92 
L 42.931818 18.67814 
L 43.636364 16.993256 
L 44.340909 17.344884 
L 45.045455 18.136047 
L 45.75 16.963953 
L 46.454545 13.667442 
L 47.863636 15.191163 
L 48.568182 13.740698 
L 49.272727 15.79186 
L 49.977273 15.850465 
L 50.681818 18.062791 
L 51.386364 16.597674 
L 52.090909 19.762326 
L 52.795455 18.546279 
L 53.5 19.088372 
L 54.204545 20.963721 
L 54.909091 22.106512 
L 55.613636 21.520465 
L 56.318182 21.256744 
L 57.022727 21.124884 
L 57.727273 19.322791 
L 58.431818 18.985814 
L 59.136364 16.15814 
L 59.840909 17.769767 
L 60.545455 15.953023 
L 61.25 15.27907 
L 61.954545 19.30814 
L 62.659091 21.71093 
L 63.363636 18.516977 
L 64.068182 18.487674 
L 64.772727 17.711163 
L 65.477273 21.681628 
L 66.181818 23.014884 
L 67.590909 18.94186 
L 68.295455 16.319302 
L 69 17.725814 
L 69.704545 21.549767 
L 70.409091 21.359302 
L 71.113636 18.795349 
L 71.818182 18.443721 
L 72.522727 20.817209 
L 73.227273 21.154186 
L 73.931818 18.766047 
L 74.636364 19.586512 
L 75.340909 21.403256 
L 76.045455 18.546279 
L 76.75 13.740698 
L 77.454545 13.726047 
L 78.159091 11.88 
L 78.863636 11.279302 
L 79.568182 10.326977 
L 80.272727 13.110698 
L 80.977273 12.290233 
L 81.681818 14.473256 
L 82.386364 15.498837 
L 83.090909 15.601395 
L 83.795455 20.20186 
L 85.204545 23.029535 
L 85.909091 24.655814 
L 86.613636 25.783953 
L 88.022727 22.663256 
L 88.727273 19.835581 
L 89.431818 20.905116 
L 90.136364 16.685581 
L 90.840909 17.945581 
L 91.545455 19.806279 
L 92.25 19.454651 
L 92.954545 20.055349 
L 94.363636 16.963953 
L 95.068182 20.157907 
L 96.477273 17.55 
L 97.181818 20.216512 
L 97.886364 18.018837 
L 98.590909 18.399767 
L 99.295455 18.355814 
L 100 17.725814 
L 100.704545 18.092093 
L 101.409091 16.905349 
L 102.113636 19.015116 
L 102.818182 18.516977 
L 103.522727 17.725814 
L 104.227273 18.619535 
L 104.931818 18.033488 
L 105.636364 16.099535 
L 106.340909 17.374186 
L 107.045455 14.868837 
L 107.75 14.751628 
L 108.454545 17.30093 
L 109.159091 18.194651 
L 109.863636 16.993256 
L 110.568182 17.198372 
L 111.272727 19.923488 
L 111.977273 21.315349 
L 112.681818 22.296977 
L 113.386364 24.274884 
L 114.090909 25.622791 
L 114.795455 24.113721 
L 115.5 24.553256 
L 116.204545 22.472791 
L 116.909091 21.96 
L 117.613636 20.040698 
L 118.318182 19.454651 
L 119.022727 20.94907 
L 119.727273 19.000465 
L 120.431818 19.93814 
L 121.136364 20.20186 
L 121.840909 20.055349 
L 122.545455 21.666977 
L 123.25 20.846512 
L 123.954545 20.787907 
L 124.659091 17.901628 
L 125.363636 18.516977 
L 126.068182 17.139767 
L 126.772727 13.022791 
L 127.477273 12.422093 
L 128.886364 8.041395 
L 129.590909 12.861628 
L 130.295455 7.645814 
L 131 7.71907 
L 131.704545 5.58 
L 132.409091 10.693256 
L 133.113636 6.429767 
L 133.818182 9.784884 
L 134.522727 11.25 
L 135.227273 9.213488 
L 135.931818 11.850698 
L 136.636364 11.704186 
L 137.340909 12.861628 
L 138.045455 14.341395 
L 138.75 14.707674 
L 139.454545 16.275349 
L 140.159091 13.00814 
L 140.863636 13.682093 
L 141.568182 15.484186 
L 142.272727 10.576047 
L 142.977273 10.077907 
L 143.681818 13.096047 
L 144.386364 13.989767 
L 145.090909 17.242326 
L 145.795455 17.447442 
L 146.5 19.205581 
L 147.204545 21.417907 
L 147.909091 19.264186 
L 148.613636 18.165349 
L 149.318182 14.341395 
L 150.022727 18.355814 
L 150.727273 13.198605 
L 151.431818 16.348605 
L 152.136364 16.275349 
L 152.840909 14.927442 
L 153.545455 16.304651 
L 154.25 16.011628 
L 154.954545 18.209302 
L 155.659091 15.821163 
L 155.659091 15.821163 
" clip-path="url(#p029111b954)" style="fill: none; stroke: #ff7f0e; stroke-width: 2; stroke-linecap: square"/>
   </g>
   <g id="patch_3">
    <path d="M 22.5 32.04 
L 22.5 4.32 
" style="fill: none; stroke: #000000; stroke-width: 0.8; stroke-linejoin: miter; stroke-linecap: square"/>
   </g>
   <g id="patch_4">
    <path d="M 162 32.04 
L 162 4.32 
" style="fill: none; stroke: #000000; stroke-width: 0.8; stroke-linejoin: miter; stroke-linecap: square"/>
   </g>
   <g id="patch_5">
    <path d="M 22.5 32.04 
L 162 32.04 
" style="fill: none; stroke: #000000; stroke-width: 0.8; stroke-linejoin: miter; stroke-linecap: square"/>
   </g>
   <g id="patch_6">
    <path d="M 22.5 4.32 
L 162 4.32 
" style="fill: none; stroke: #000000; stroke-width: 0.8; stroke-linejoin: miter; stroke-linecap: square"/>
   </g>
  </g>
 </g>
 <defs>
  <clipPath id="p029111b954">
   <rect x="22.5" y="4.32" width="139.5" height="27.72"/>
  </clipPath>
 </defs>
</svg>
