<?xml version="1.0" encoding="utf-8" standalone="no"?>
<!DOCTYPE svg PUBLIC "-//W3C//DTD SVG 1.1//EN"
  "http://www.w3.org/Graphics/SVG/1.1/DTD/svg11.dtd">
<svg xmlns:xlink="http://www.w3.org/1999/xlink" width="180pt" height="36pt" viewBox="0 0 180 36" xmlns="http://www.w3.org/2000/svg" version="1.1">
 <metadata>
  <rdf:RDF xmlns:dc="http://purl.org/dc/elements/1.1/" xmlns:cc="http://creativecommons.org/ns#" xmlns:rdf="http://www.w3.org/1999/02/22-rdf-syntax-ns#">
   <cc:Work>
    <dc:type rdf:resource="http://purl.org/dc/dcmitype/StillImage"/>
    <dc:date>2024-11-14T13:49:58.182735</dc:date>
    <dc:format>image/svg+xml</dc:format>
    <dc:creator>
     <cc:Agent>
      <dc:title>Matplotlib v3.9.1, https://matplotlib.org/</dc:title>
     </cc:Agent>
    </dc:creator>
   </cc:Work>
  </rdf:RDF>
 </metadata>
 <defs>
  <style type="text/css">*{stroke-linejoin: round; stroke-linecap: butt}</style>
 </defs>
 <g id="figure_1">
  <g id="patch_1">
   <path d="M 0 36 
L 180 36 
L 180 0 
L 0 0 
L 0 36 
z
" style="fill: none"/>
  </g>
  <g id="axes_1">
   <g id="patch_2">
    <path d="M 22.5 32.04 
L 162 32.04 
L 162 4.32 
L 22.5 4.32 
L 22.5 32.04 
z
" style="fill: none"/>
   </g>
   <g id="matplotlib.axis_1">
    <g id="xtick_1"/>
    <g id="xtick_2"/>
    <g id="xtick_3"/>
    <g id="xtick_4"/>
   </g>
   <g id="matplotlib.axis_2">
    <g id="ytick_1"/>
    <g id="ytick_2"/>
   </g>
   <g id="line2d_1">
    <path d="M 28.840909 25.400882 
L 29.545455 25.225476 
L 30.25 26.628724 
L 30.954545 26.687193 
L 31.659091 25.722459 
L 32.363636 22.477448 
L 33.068182 21.980464 
L 33.772727 21.746589 
L 34.477273 20.460278 
L 35.886364 25.576288 
L 36.590909 21.921995 
L 37.295455 21.220371 
L 38 22.974432 
L 38.704545 22.418979 
L 39.409091 21.541949 
L 40.113636 21.0742 
L 40.818182 20.898794 
L 41.522727 20.343341 
L 42.227273 17.536845 
L 42.931818 20.021763 
L 43.636364 16.981392 
L 44.340909 17.653782 
L 45.045455 20.694153 
L 45.75 20.957262 
L 46.454545 23.588353 
L 47.159091 23.939165 
L 47.863636 23.179072 
L 48.568182 24.406914 
L 49.272727 24.231508 
L 49.977273 20.869559 
L 50.681818 20.635684 
L 51.386364 19.612483 
L 52.795455 14.116427 
L 53.5 13.151694 
L 54.204545 10.549838 
L 54.909091 17.30297 
L 55.613636 20.40181 
L 56.318182 22.682088 
L 57.022727 21.775824 
L 57.727273 19.992529 
L 58.431818 22.711323 
L 59.136364 21.395777 
L 59.840909 24.348445 
L 60.545455 24.114571 
L 61.25 25.225476 
L 61.954545 26.570255 
L 62.659091 23.939165 
L 63.363636 25.722459 
L 64.068182 24.757726 
L 64.772727 26.044037 
L 66.181818 22.185104 
L 66.886364 21.27884 
L 67.590909 22.15587 
L 68.295455 20.021763 
L 69 20.694153 
L 69.704545 24.640789 
L 70.409091 21.921995 
L 71.113636 20.723387 
L 71.818182 20.577216 
L 72.522727 18.092297 
L 73.227273 21.892761 
L 74.636364 17.069095 
L 75.340909 20.284872 
L 76.045455 21.717355 
L 76.75 16.776752 
L 77.454545 21.015731 
L 78.159091 23.442181 
L 79.568182 25.839397 
L 80.272727 26.59949 
L 80.977273 26.307146 
L 81.681818 23.442181 
L 82.386364 22.038933 
L 83.090909 25.283944 
L 83.795455 25.605522 
L 84.5 28.295081 
L 85.204545 26.307146 
L 85.909091 28.031972 
L 86.613636 28.528956 
L 87.318182 24.260742 
L 88.727273 26.453318 
L 89.431818 23.676056 
L 90.136364 23.90993 
L 90.840909 21.688121 
L 91.545455 20.226404 
L 92.25 19.05703 
L 92.954545 19.261671 
L 93.659091 14.730348 
L 94.363636 19.232436 
L 95.068182 12.830116 
L 95.772727 14.730348 
L 96.477273 17.946125 
L 97.181818 15.724316 
L 99.295455 24.202274 
L 100 22.272807 
L 100.704545 23.383712 
L 101.409091 23.822227 
L 102.113636 23.588353 
L 102.818182 24.056102 
L 103.522727 21.337309 
L 104.931818 19.086265 
L 105.636364 22.068167 
L 106.340909 16.952158 
L 107.045455 17.97536 
L 107.75 21.658886 
L 108.454545 20.080232 
L 109.159091 18.940093 
L 111.272727 21.892761 
L 111.977273 19.817123 
L 112.681818 23.354478 
L 113.386364 26.044037 
L 114.090909 27.651926 
L 114.795455 25.547053 
L 115.5 24.962367 
L 116.204545 23.237541 
L 116.909091 23.412947 
L 117.613636 23.237541 
L 118.318182 25.722459 
L 119.022727 25.020835 
L 119.727273 26.745661 
L 120.431818 27.213411 
L 121.136364 28.850534 
L 121.840909 27.915035 
L 122.545455 25.313179 
L 123.25 25.137773 
L 123.954545 27.00877 
L 124.659091 25.868631 
L 125.363636 28.938237 
L 126.068182 25.985568 
L 126.772727 26.014803 
L 127.477273 22.915963 
L 128.181818 22.799026 
L 130.295455 16.455174 
L 131 17.273735 
L 131.704545 16.864455 
L 132.409091 18.004594 
L 133.113636 18.18 
L 133.818182 20.489513 
L 134.522727 21.337309 
L 135.227273 21.980464 
L 136.636364 27.827332 
L 137.340909 28.704362 
L 138.045455 29.084408 
L 138.75 27.330348 
L 140.159091 27.505754 
L 140.863636 25.605522 
L 141.568182 21.688121 
L 142.272727 21.921995 
L 142.977273 24.670023 
L 143.681818 25.605522 
L 144.386364 26.891833 
L 145.090909 26.277912 
L 145.795455 27.798097 
L 146.5 27.330348 
L 147.204545 26.102506 
L 147.909091 26.80413 
L 148.613636 26.482552 
L 149.318182 24.640789 
L 150.022727 26.453318 
L 152.136364 24.319211 
L 152.840909 25.9271 
L 153.545455 28.587425 
L 154.25 27.564223 
L 154.954545 29.084408 
L 155.659091 28.470487 
L 155.659091 28.470487 
" clip-path="url(#p08edd37a92)" style="fill: none; stroke: #1f77b4; stroke-width: 2; stroke-linecap: square"/>
   </g>
   <g id="line2d_2">
    <path d="M 28.840909 23.646821 
L 29.545455 20.518747 
L 30.25 21.454246 
L 30.954545 23.442181 
L 31.659091 23.0329 
L 32.363636 20.226404 
L 33.068182 18.121531 
L 33.772727 15.139629 
L 34.477273 16.776752 
L 35.181818 14.788817 
L 35.886364 20.021763 
L 36.590909 20.781856 
L 37.295455 19.612483 
L 38 16.250534 
L 38.704545 18.881624 
L 39.409091 22.857494 
L 40.113636 24.319211 
L 40.818182 27.184176 
L 41.522727 24.056102 
L 42.227273 23.617587 
L 42.931818 21.044965 
L 43.636364 21.571183 
L 44.340909 23.90993 
L 45.045455 22.448213 
L 45.75 21.395777 
L 46.454545 14.321067 
L 47.159091 15.315035 
L 47.863636 18.501578 
L 48.568182 15.841253 
L 49.272727 12.537773 
L 49.977273 10.140557 
L 50.681818 9.205058 
L 51.386364 5.78464 
L 52.090909 8.561903 
L 52.795455 12.830116 
L 53.5 10.90065 
L 54.204545 11.543805 
L 54.909091 12.537773 
L 55.613636 17.390673 
L 56.318182 14.554942 
L 57.022727 12.830116 
L 57.727273 10.520603 
L 58.431818 9.146589 
L 59.136364 13.444037 
L 59.840909 14.145661 
L 60.545455 19.992529 
L 61.25 16.659814 
L 61.954545 14.788817 
L 62.659091 13.414803 
L 63.363636 15.2858 
L 64.068182 9.029652 
L 64.772727 7.392529 
L 65.477273 11.748445 
L 66.181818 13.590209 
L 66.886364 13.122459 
L 67.590909 14.116427 
L 68.295455 14.20413 
L 69 13.093225 
L 69.704545 19.320139 
L 70.409091 17.712251 
L 71.113636 18.004594 
L 71.818182 17.098329 
L 72.522727 15.899722 
L 73.227273 16.805986 
L 73.931818 14.262599 
L 74.636364 14.584176 
L 75.340909 10.520603 
L 76.045455 11.280696 
L 76.75 10.111323 
L 77.454545 9.643573 
L 78.159091 11.894617 
L 78.863636 5.58 
L 79.568182 7.626404 
L 80.272727 7.392529 
L 80.977273 13.063991 
L 81.681818 11.806914 
L 82.386364 15.75355 
L 83.090909 14.438005 
L 83.795455 17.595313 
L 84.5 19.817123 
L 85.204545 19.992529 
L 85.909091 20.869559 
L 86.613636 20.635684 
L 87.318182 18.589281 
L 88.022727 15.051926 
L 88.727273 15.344269 
L 89.431818 15.812019 
L 90.136364 18.998561 
L 90.840909 13.239397 
L 91.545455 13.941021 
L 92.25 13.502506 
L 92.954545 14.671879 
L 93.659091 10.052854 
L 94.363636 10.286729 
L 95.068182 14.525708 
L 95.772727 16.162831 
L 96.477273 15.315035 
L 97.181818 13.385568 
L 97.886364 13.824084 
L 100 15.812019 
L 100.704545 20.869559 
L 101.409091 21.0742 
L 102.113636 23.90993 
L 103.522727 27.8858 
L 104.227273 26.541021 
L 104.931818 28.967471 
L 105.636364 29.493689 
L 106.340909 28.441253 
L 107.045455 26.541021 
L 107.75 26.921067 
L 108.454545 24.260742 
L 109.159091 22.857494 
L 109.863636 18.092297 
L 110.568182 18.355406 
L 111.272727 21.249606 
L 111.977273 23.179072 
L 112.681818 25.605522 
L 113.386364 21.717355 
L 114.090909 22.126636 
L 114.795455 22.711323 
L 115.5 22.36051 
L 116.204545 23.50065 
L 116.909091 24.085336 
L 117.613636 22.652854 
L 119.022727 28.528956 
L 119.727273 26.102506 
L 120.431818 30.78 
L 121.136364 29.932204 
L 122.545455 29.698329 
L 123.25 30.224548 
L 123.954545 29.756798 
L 124.659091 29.727564 
L 125.363636 26.745661 
L 126.068182 26.891833 
L 126.772727 23.208306 
L 127.477273 23.471415 
L 128.181818 19.554014 
L 128.886364 20.226404 
L 129.590909 20.372575 
L 130.295455 20.957262 
L 131.704545 22.769791 
L 132.409091 24.319211 
L 133.818182 27.856566 
L 134.522727 29.405986 
L 135.227273 30.341485 
L 136.636364 28.675128 
L 137.340909 29.610626 
L 138.75 27.271879 
L 139.454545 25.371647 
L 140.159091 23.90993 
L 140.863636 23.676056 
L 141.568182 25.108538 
L 142.272727 25.663991 
L 142.977273 22.652854 
L 143.681818 20.314107 
L 144.386364 20.781856 
L 145.090909 21.892761 
L 145.795455 20.314107 
L 146.5 20.869559 
L 147.204545 23.149838 
L 147.909091 22.272807 
L 148.613636 18.267703 
L 149.318182 20.021763 
L 150.022727 14.847285 
L 150.727273 13.882552 
L 151.431818 14.40877 
L 152.136364 15.695081 
L 152.840909 14.584176 
L 153.545455 16.045893 
L 154.25 19.72942 
L 154.954545 19.875592 
L 155.659091 20.898794 
L 155.659091 20.898794 
" clip-path="url(#p08edd37a92)" style="fill: none; stroke: #ff7f0e; stroke-width: 2; stroke-linecap: square"/>
   </g>
   <g id="patch_3">
    <path d="M 22.5 32.04 
L 22.5 4.32 
" style="fill: none; stroke: #000000; stroke-width: 0.8; stroke-linejoin: miter; stroke-linecap: square"/>
   </g>
   <g id="patch_4">
    <path d="M 162 32.04 
L 162 4.32 
" style="fill: none; stroke: #000000; stroke-width: 0.8; stroke-linejoin: miter; stroke-linecap: square"/>
   </g>
   <g id="patch_5">
    <path d="M 22.5 32.04 
L 162 32.04 
" style="fill: none; stroke: #000000; stroke-width: 0.8; stroke-linejoin: miter; stroke-linecap: square"/>
   </g>
   <g id="patch_6">
    <path d="M 22.5 4.32 
L 162 4.32 
" style="fill: none; stroke: #000000; stroke-width: 0.8; stroke-linejoin: miter; stroke-linecap: square"/>
   </g>
  </g>
 </g>
 <defs>
  <clipPath id="p08edd37a92">
   <rect x="22.5" y="4.32" width="139.5" height="27.72"/>
  </clipPath>
 </defs>
</svg>
