<?xml version="1.0" encoding="utf-8" standalone="no"?>
<!DOCTYPE svg PUBLIC "-//W3C//DTD SVG 1.1//EN"
  "http://www.w3.org/Graphics/SVG/1.1/DTD/svg11.dtd">
<svg xmlns:xlink="http://www.w3.org/1999/xlink" width="180pt" height="36pt" viewBox="0 0 180 36" xmlns="http://www.w3.org/2000/svg" version="1.1">
 <metadata>
  <rdf:RDF xmlns:dc="http://purl.org/dc/elements/1.1/" xmlns:cc="http://creativecommons.org/ns#" xmlns:rdf="http://www.w3.org/1999/02/22-rdf-syntax-ns#">
   <cc:Work>
    <dc:type rdf:resource="http://purl.org/dc/dcmitype/StillImage"/>
    <dc:date>2024-11-14T13:49:58.448830</dc:date>
    <dc:format>image/svg+xml</dc:format>
    <dc:creator>
     <cc:Agent>
      <dc:title>Matplotlib v3.9.1, https://matplotlib.org/</dc:title>
     </cc:Agent>
    </dc:creator>
   </cc:Work>
  </rdf:RDF>
 </metadata>
 <defs>
  <style type="text/css">*{stroke-linejoin: round; stroke-linecap: butt}</style>
 </defs>
 <g id="figure_1">
  <g id="patch_1">
   <path d="M 0 36 
L 180 36 
L 180 0 
L 0 0 
L 0 36 
z
" style="fill: none"/>
  </g>
  <g id="axes_1">
   <g id="patch_2">
    <path d="M 22.5 32.04 
L 162 32.04 
L 162 4.32 
L 22.5 4.32 
L 22.5 32.04 
z
" style="fill: none"/>
   </g>
   <g id="matplotlib.axis_1">
    <g id="xtick_1"/>
    <g id="xtick_2"/>
    <g id="xtick_3"/>
    <g id="xtick_4"/>
   </g>
   <g id="matplotlib.axis_2">
    <g id="ytick_1"/>
    <g id="ytick_2"/>
   </g>
   <g id="line2d_1">
    <path d="M 28.840909 24.278335 
L 29.545455 23.907273 
L 30.25 23.052215 
L 30.954545 24.004072 
L 31.659091 23.18128 
L 32.363636 23.745941 
L 33.068182 25.77872 
L 33.772727 27.408169 
L 34.477273 25.665787 
L 35.181818 22.277823 
L 35.886364 24.020205 
L 36.590909 23.713675 
L 37.295455 21.987426 
L 38.704545 15.485762 
L 39.409091 18.84146 
L 40.113636 17.776671 
L 40.818182 16.211754 
L 41.522727 21.180768 
L 42.227273 17.792804 
L 42.931818 15.211498 
L 43.636364 14.372574 
L 44.340909 18.099334 
L 45.045455 18.389731 
L 45.75 23.391012 
L 46.454545 23.132881 
L 47.159091 20.874238 
L 47.863636 20.42251 
L 48.568182 22.229424 
L 49.272727 20.567708 
L 49.977273 22.552087 
L 50.681818 22.132625 
L 51.386364 26.988707 
L 52.090909 26.746709 
L 52.795455 28.360026 
L 53.5 29.666812 
L 54.204545 28.408425 
L 54.909091 28.940819 
L 55.613636 26.633777 
L 56.318182 28.360026 
L 57.022727 27.101639 
L 58.431818 27.843764 
L 59.840909 29.311882 
L 60.545455 28.634289 
L 61.25 26.488579 
L 61.954545 27.746965 
L 62.659091 26.891908 
L 63.363636 27.908297 
L 64.068182 27.440435 
L 64.772727 25.940051 
L 65.477273 26.34338 
L 66.181818 27.150038 
L 67.590909 26.294981 
L 69 27.279104 
L 69.704545 28.214827 
L 70.409091 28.569757 
L 71.113636 28.602023 
L 71.818182 29.763611 
L 72.522727 29.50548 
L 73.227273 28.505224 
L 75.340909 26.311114 
L 76.045455 26.666044 
L 76.75 27.392036 
L 77.454545 26.666044 
L 78.159091 26.149782 
L 78.863636 27.956697 
L 80.272727 27.569501 
L 80.977273 28.731088 
L 81.681818 28.166428 
L 82.386364 27.053239 
L 83.090909 26.811242 
L 83.795455 25.585122 
L 84.5 25.230192 
L 85.204545 25.375391 
L 85.909091 24.76233 
L 86.613636 22.826351 
L 87.318182 25.214059 
L 88.022727 25.407657 
L 88.727273 25.343124 
L 89.431818 24.746197 
L 90.136364 25.11726 
L 90.840909 25.11726 
L 91.545455 27.35977 
L 92.25 27.456569 
L 92.954545 26.182049 
L 93.659091 28.053496 
L 94.363636 28.860154 
L 95.068182 28.779488 
L 95.772727 29.731344 
L 96.477273 29.408681 
L 97.181818 30.11854 
L 98.590909 30.376671 
L 99.295455 30.78 
L 100 29.941076 
L 100.704545 29.360282 
L 101.409091 28.053496 
L 102.113636 28.521357 
L 102.818182 28.263227 
L 103.522727 26.924174 
L 104.931818 29.166684 
L 105.636364 28.021229 
L 106.340909 29.408681 
L 107.045455 28.247093 
L 108.454545 28.489091 
L 109.863636 27.97283 
L 110.568182 28.795621 
L 111.272727 28.456825 
L 111.977273 27.295237 
L 113.386364 29.828143 
L 114.795455 29.440948 
L 115.5 29.747478 
L 116.204545 29.215083 
L 116.909091 29.440948 
L 117.613636 29.150551 
L 118.318182 29.924942 
L 119.022727 28.89242 
L 119.727273 30.634802 
L 120.431818 30.086274 
L 121.136364 28.53749 
L 121.840909 29.215083 
L 123.25 29.473214 
L 123.954545 29.263483 
L 124.659091 28.085762 
L 125.363636 27.940563 
L 126.068182 27.392036 
L 126.772727 27.553367 
L 127.477273 27.037106 
L 128.181818 28.58589 
L 128.886364 27.440435 
L 129.590909 28.247093 
L 130.295455 27.650166 
L 131 29.473214 
L 131.704545 28.618156 
L 132.409091 29.086018 
L 133.113636 25.843252 
L 133.818182 27.085506 
L 134.522727 26.859641 
L 135.227273 26.214315 
L 135.931818 27.876031 
L 136.636364 28.247093 
L 137.340909 25.601255 
L 138.045455 26.214315 
L 138.75 25.875519 
L 139.454545 26.69831 
L 140.159091 26.827375 
L 140.863636 28.456825 
L 141.568182 26.633777 
L 142.272727 28.085762 
L 142.977273 25.181793 
L 143.681818 27.698566 
L 144.386364 26.520845 
L 145.795455 27.779232 
L 146.5 27.634033 
L 147.204545 27.730832 
L 147.909091 29.279616 
L 148.613636 29.489347 
L 149.318182 29.973342 
L 150.022727 29.795877 
L 150.727273 28.860154 
L 151.431818 29.279616 
L 152.136364 28.989219 
L 152.840909 28.150294 
L 153.545455 28.424558 
L 154.25 28.53749 
L 154.954545 27.230704 
L 155.659091 28.811754 
L 155.659091 28.811754 
" clip-path="url(#p7079fe437e)" style="fill: none; stroke: #1f77b4; stroke-width: 2; stroke-linecap: square"/>
   </g>
   <g id="line2d_2">
    <path d="M 28.840909 15.0663 
L 29.545455 18.79306 
L 30.25 18.857593 
L 30.954545 20.487042 
L 31.659091 18.502663 
L 33.068182 13.74338 
L 33.772727 16.469885 
L 34.477273 18.244533 
L 35.181818 19.260922 
L 35.886364 18.018668 
L 36.590909 21.229168 
L 37.295455 19.583585 
L 38 21.616364 
L 38.704545 25.714187 
L 39.409091 25.262458 
L 40.113636 26.601511 
L 40.818182 24.681665 
L 41.522727 24.842996 
L 42.227273 23.326479 
L 42.931818 20.841972 
L 43.636364 21.213035 
L 44.340909 22.939283 
L 45.045455 22.939283 
L 45.75 22.406889 
L 46.454545 22.26169 
L 47.159091 19.648118 
L 47.863636 18.809193 
L 49.977273 12.130064 
L 50.681818 8.548502 
L 51.386364 11.049142 
L 52.090909 5.58 
L 52.795455 10.645813 
L 53.5 9.823022 
L 54.909091 22.019693 
L 55.613636 17.954136 
L 56.318182 23.729808 
L 57.022727 23.745941 
L 57.727273 24.665531 
L 58.431818 26.375647 
L 59.136364 22.31009 
L 59.840909 22.535954 
L 60.545455 20.632241 
L 61.25 22.100359 
L 61.954545 19.389987 
L 62.659091 21.567964 
L 63.363636 18.163867 
L 64.068182 21.003303 
L 64.772727 24.746197 
L 65.477273 25.956184 
L 66.181818 27.553367 
L 66.886364 25.649654 
L 67.590909 21.148502 
L 68.295455 24.310602 
L 69 22.584353 
L 69.704545 24.068604 
L 71.113636 25.665787 
L 71.818182 23.052215 
L 72.522727 23.342612 
L 73.227273 26.182049 
L 73.931818 27.634033 
L 74.636364 28.23096 
L 75.340909 27.182305 
L 76.045455 28.214827 
L 76.75 27.440435 
L 77.454545 28.424558 
L 78.159091 28.795621 
L 78.863636 26.375647 
L 79.568182 25.359257 
L 80.272727 23.552343 
L 81.681818 26.585378 
L 83.795455 25.084994 
L 84.5 25.47219 
L 85.204545 27.827631 
L 85.909091 28.472958 
L 86.613636 28.247093 
L 87.318182 28.827887 
L 88.022727 26.730576 
L 88.727273 27.650166 
L 89.431818 26.585378 
L 90.136364 26.988707 
L 90.840909 25.084994 
L 91.545455 26.020717 
L 92.25 25.439923 
L 92.954545 24.665531 
L 93.659091 20.454776 
L 94.363636 18.083201 
L 95.068182 16.663483 
L 95.772727 12.275262 
L 96.477273 9.322894 
L 97.181818 9.40356 
L 97.886364 13.420717 
L 98.590909 16.744149 
L 99.295455 14.533905 
L 100 14.388707 
L 100.704545 15.872958 
L 101.409091 15.808425 
L 102.113636 16.679616 
L 102.818182 15.663227 
L 103.522727 17.82507 
L 104.227273 16.970013 
L 104.931818 20.099846 
L 105.636364 24.342868 
L 106.340909 23.278079 
L 107.045455 21.906761 
L 107.75 21.535698 
L 108.454545 21.761562 
L 109.159091 25.06886 
L 109.863636 23.858873 
L 110.568182 20.971037 
L 111.272727 21.03557 
L 111.977273 20.245045 
L 112.681818 22.826351 
L 113.386364 24.907529 
L 114.090909 22.61662 
L 114.795455 24.310602 
L 115.5 23.53621 
L 116.204545 24.423534 
L 116.909091 22.229424 
L 117.613636 24.294469 
L 118.318182 22.761818 
L 119.022727 22.051959 
L 119.727273 19.422254 
L 120.431818 20.535442 
L 121.136364 23.294213 
L 121.840909 19.857849 
L 122.545455 18.954392 
L 123.25 19.45452 
L 123.954545 21.390499 
L 124.659091 16.64735 
L 125.363636 17.599206 
L 126.068182 17.082945 
L 127.477273 19.277055 
L 128.181818 17.938003 
L 128.886364 22.31009 
L 129.590909 25.359257 
L 130.295455 25.536722 
L 131 24.536466 
L 131.704545 24.649398 
L 132.409091 26.424046 
L 133.113636 27.876031 
L 133.818182 28.440691 
L 134.522727 26.843508 
L 135.227273 24.649398 
L 135.931818 21.842228 
L 136.636364 24.746197 
L 137.340909 24.681665 
L 138.045455 24.294469 
L 138.75 23.520077 
L 139.454545 22.277823 
L 140.159091 16.260154 
L 140.863636 19.696517 
L 141.568182 18.389731 
L 142.272727 17.663739 
L 142.977273 18.083201 
L 143.681818 17.179744 
L 145.090909 20.954904 
L 145.795455 21.164635 
L 146.5 20.06758 
L 147.204545 20.325711 
L 147.909091 19.648118 
L 148.613636 22.132625 
L 149.318182 21.358233 
L 150.022727 22.068092 
L 150.727273 22.181024 
L 151.431818 22.035826 
L 152.136364 22.471421 
L 152.840909 20.68064 
L 153.545455 22.035826 
L 154.954545 23.439411 
L 155.659091 19.922382 
L 155.659091 19.922382 
" clip-path="url(#p7079fe437e)" style="fill: none; stroke: #ff7f0e; stroke-width: 2; stroke-linecap: square"/>
   </g>
   <g id="patch_3">
    <path d="M 22.5 32.04 
L 22.5 4.32 
" style="fill: none; stroke: #000000; stroke-width: 0.8; stroke-linejoin: miter; stroke-linecap: square"/>
   </g>
   <g id="patch_4">
    <path d="M 162 32.04 
L 162 4.32 
" style="fill: none; stroke: #000000; stroke-width: 0.8; stroke-linejoin: miter; stroke-linecap: square"/>
   </g>
   <g id="patch_5">
    <path d="M 22.5 32.04 
L 162 32.04 
" style="fill: none; stroke: #000000; stroke-width: 0.8; stroke-linejoin: miter; stroke-linecap: square"/>
   </g>
   <g id="patch_6">
    <path d="M 22.5 4.32 
L 162 4.32 
" style="fill: none; stroke: #000000; stroke-width: 0.8; stroke-linejoin: miter; stroke-linecap: square"/>
   </g>
  </g>
 </g>
 <defs>
  <clipPath id="p7079fe437e">
   <rect x="22.5" y="4.32" width="139.5" height="27.72"/>
  </clipPath>
 </defs>
</svg>
