<?xml version="1.0" encoding="utf-8" standalone="no"?>
<!DOCTYPE svg PUBLIC "-//W3C//DTD SVG 1.1//EN"
  "http://www.w3.org/Graphics/SVG/1.1/DTD/svg11.dtd">
<svg xmlns:xlink="http://www.w3.org/1999/xlink" width="180pt" height="36pt" viewBox="0 0 180 36" xmlns="http://www.w3.org/2000/svg" version="1.1">
 <metadata>
  <rdf:RDF xmlns:dc="http://purl.org/dc/elements/1.1/" xmlns:cc="http://creativecommons.org/ns#" xmlns:rdf="http://www.w3.org/1999/02/22-rdf-syntax-ns#">
   <cc:Work>
    <dc:type rdf:resource="http://purl.org/dc/dcmitype/StillImage"/>
    <dc:date>2024-11-14T13:49:57.851190</dc:date>
    <dc:format>image/svg+xml</dc:format>
    <dc:creator>
     <cc:Agent>
      <dc:title>Matplotlib v3.9.1, https://matplotlib.org/</dc:title>
     </cc:Agent>
    </dc:creator>
   </cc:Work>
  </rdf:RDF>
 </metadata>
 <defs>
  <style type="text/css">*{stroke-linejoin: round; stroke-linecap: butt}</style>
 </defs>
 <g id="figure_1">
  <g id="patch_1">
   <path d="M 0 36 
L 180 36 
L 180 0 
L 0 0 
L 0 36 
z
" style="fill: none"/>
  </g>
  <g id="axes_1">
   <g id="patch_2">
    <path d="M 22.5 32.04 
L 162 32.04 
L 162 4.32 
L 22.5 4.32 
L 22.5 32.04 
z
" style="fill: none"/>
   </g>
   <g id="matplotlib.axis_1">
    <g id="xtick_1"/>
    <g id="xtick_2"/>
    <g id="xtick_3"/>
    <g id="xtick_4"/>
   </g>
   <g id="matplotlib.axis_2">
    <g id="ytick_1"/>
    <g id="ytick_2"/>
   </g>
   <g id="line2d_1">
    <path d="M 28.840909 29.835774 
L 30.25 26.693514 
L 30.954545 23.829877 
L 31.659091 23.25715 
L 32.363636 25.517101 
L 33.068182 24.402604 
L 33.772727 27.266241 
L 34.477273 27.142408 
L 35.181818 28.67484 
L 35.886364 29.015381 
L 36.590909 30.191794 
L 37.295455 30.594251 
L 38 30.78 
L 38.704545 28.287862 
L 39.409091 29.077297 
L 40.113636 27.699656 
L 41.522727 27.792531 
L 42.227273 28.50457 
L 42.931818 28.752236 
L 44.340909 26.492285 
L 45.045455 24.712187 
L 45.75 24.541916 
L 46.454545 22.20457 
L 47.159091 22.405799 
L 47.863636 22.885651 
L 48.568182 22.622506 
L 49.272727 24.294251 
L 49.977273 24.216855 
L 50.681818 23.876314 
L 51.386364 24.510958 
L 52.090909 23.25715 
L 53.5 19.975577 
L 54.204545 21.090074 
L 54.909091 19.712432 
L 55.613636 18.071646 
L 56.318182 17.142899 
L 57.022727 17.731106 
L 57.727273 19.309975 
L 58.431818 20.037494 
L 59.136364 25.470663 
L 60.545455 25.145602 
L 61.954545 24.294251 
L 62.659091 24.712187 
L 63.363636 24.572875 
L 64.068182 25.207518 
L 64.772727 24.541916 
L 65.477273 24.031106 
L 66.181818 23.009484 
L 66.886364 22.978526 
L 67.590909 20.795971 
L 68.295455 21.461572 
L 69 17.560835 
L 69.704545 15.780737 
L 70.409091 15.409238 
L 71.113636 16.090319 
L 71.818182 13.923243 
L 72.522727 16.214152 
L 73.227273 16.214152 
L 73.931818 16.663047 
L 74.636364 16.198673 
L 75.340909 14.542408 
L 76.045455 20.331597 
L 76.75 18.118084 
L 77.454545 22.467715 
L 78.159091 24.185897 
L 78.863636 27.823489 
L 79.568182 26.647076 
L 80.272727 26.352973 
L 81.681818 27.947322 
L 82.386364 28.040197 
L 83.795455 23.78344 
L 85.204545 21.755676 
L 85.909091 18.768206 
L 86.613636 20.656658 
L 87.318182 20.579263 
L 88.022727 24.000147 
L 88.727273 21.492531 
L 89.431818 20.408993 
L 90.136364 18.18 
L 90.840909 23.25715 
L 91.545455 19.06231 
L 92.954545 24.588354 
L 93.659091 27.343636 
L 94.363636 28.256904 
L 95.068182 27.931843 
L 95.772727 28.071155 
L 96.477273 27.715135 
L 97.181818 25.083686 
L 97.886364 24.154939 
L 98.590909 24.433563 
L 99.295455 25.594496 
L 100 24.356167 
L 100.704545 25.857641 
L 101.409091 26.136265 
L 102.113636 24.170418 
L 102.818182 25.563538 
L 103.522727 23.969189 
L 104.227273 23.814398 
L 105.636364 21.987862 
L 106.340909 18.566978 
L 107.045455 20.857887 
L 107.75 22.684423 
L 108.454545 21.415135 
L 109.159091 20.579263 
L 109.863636 22.622506 
L 110.568182 24.247813 
L 111.272727 25.083686 
L 111.977273 25.439705 
L 112.681818 24.48 
L 114.090909 25.068206 
L 114.795455 22.978526 
L 115.5 23.195233 
L 116.204545 22.715381 
L 116.909091 19.015872 
L 117.613636 18.582457 
L 118.318182 21.492531 
L 119.022727 18.00973 
L 119.727273 18.628894 
L 120.431818 18.845602 
L 121.136364 16.632088 
L 121.840909 20.486388 
L 122.545455 22.498673 
L 123.25 21.724717 
L 123.954545 20.718575 
L 124.659091 22.111695 
L 125.363636 20.919803 
L 126.772727 25.625455 
L 127.477273 26.383931 
L 128.181818 24.789582 
L 128.886364 24.897936 
L 129.590909 24.418084 
L 130.295455 26.105307 
L 131 27.080491 
L 131.704545 21.987862 
L 132.409091 23.798919 
L 133.113636 23.767961 
L 134.522727 25.579017 
L 135.227273 22.777297 
L 135.931818 23.303587 
L 136.636364 20.966241 
L 137.340909 20.470909 
L 138.045455 24.046585 
L 138.75 23.08688 
L 139.454545 20.532826 
L 140.159091 23.721523 
L 140.863636 21.275823 
L 141.568182 20.470909 
L 142.272727 22.715381 
L 142.977273 23.288108 
L 143.681818 23.102359 
L 144.386364 24.944373 
L 145.090909 23.520295 
L 145.795455 25.486143 
L 146.5 21.415135 
L 147.204545 23.61317 
L 147.909091 22.266486 
L 148.613636 23.102359 
L 149.318182 26.136265 
L 150.022727 23.845356 
L 150.727273 22.839214 
L 151.431818 24.959853 
L 152.136364 23.133317 
L 152.840909 23.566732 
L 153.545455 22.963047 
L 154.25 23.78344 
L 154.954545 23.814398 
L 155.659091 24.48 
L 155.659091 24.48 
" clip-path="url(#p6fd4f1db1e)" style="fill: none; stroke: #1f77b4; stroke-width: 2; stroke-linecap: square"/>
   </g>
   <g id="line2d_2">
    <path d="M 28.840909 20.145848 
L 29.545455 19.805307 
L 30.25 21.399656 
L 30.954545 21.523489 
L 31.659091 22.529631 
L 32.363636 21.569926 
L 33.068182 18.00973 
L 33.772727 18.87656 
L 34.477273 13.660098 
L 35.181818 17.762064 
L 35.886364 19.263538 
L 36.590909 18.953956 
L 37.295455 14.991302 
L 38 12.74683 
L 38.704545 11.740688 
L 39.409091 7.870909 
L 40.113636 12.096708 
L 40.818182 14.403096 
L 41.522727 15.316364 
L 42.227273 12.266978 
L 42.931818 14.867469 
L 43.636364 11.570418 
L 44.340909 12.994496 
L 45.045455 11.725209 
L 45.75 9.712924 
L 46.454545 9.496216 
L 47.863636 14.093514 
L 49.272727 18.70629 
L 49.977273 16.694005 
L 50.681818 20.269681 
L 51.386364 19.774349 
L 52.090909 17.978771 
L 52.795455 19.155184 
L 53.5 17.529877 
L 54.204545 12.592039 
L 54.909091 16.415381 
L 55.613636 18.551499 
L 56.318182 17.870418 
L 57.022727 23.411941 
L 57.727273 27.328157 
L 59.136364 28.040197 
L 59.840909 26.476806 
L 60.545455 28.272383 
L 61.25 29.402359 
L 61.954545 30.207273 
L 62.659091 29.03086 
L 63.363636 30.269189 
L 64.068182 28.876069 
L 64.772727 29.123735 
L 65.477273 27.746093 
L 66.181818 28.040197 
L 66.886364 27.993759 
L 67.590909 27.45199 
L 69 23.164275 
L 69.704545 22.312924 
L 70.409091 22.297445 
L 71.113636 19.557641 
L 71.818182 19.201622 
L 72.522727 15.331843 
L 73.227273 17.359607 
L 74.636364 18.845602 
L 75.340909 17.591794 
L 76.045455 15.966486 
L 77.454545 13.365995 
L 78.159091 10.889337 
L 78.863636 11.771646 
L 79.568182 11.121523 
L 80.272727 5.58 
L 82.386364 14.898428 
L 83.090909 17.406044 
L 83.795455 18.365749 
L 84.5 23.95371 
L 85.204545 24.805061 
L 85.909091 21.956904 
L 86.613636 23.61317 
L 87.318182 23.25715 
L 88.022727 23.0714 
L 88.727273 22.529631 
L 89.431818 18.334791 
L 90.136364 19.991057 
L 90.840909 16.740442 
L 91.545455 17.080983 
L 92.25 13.814889 
L 92.954545 15.951007 
L 93.659091 15.54855 
L 94.363636 14.774595 
L 95.068182 14.356658 
L 95.772727 16.523735 
L 96.477273 17.034545 
L 97.886364 14.944865 
L 98.590909 19.356413 
L 99.295455 19.542162 
L 100 18.474103 
L 100.704545 17.932334 
L 101.409091 17.932334 
L 102.113636 15.966486 
L 102.818182 16.895233 
L 103.522727 16.322506 
L 104.227273 17.576314 
L 104.931818 17.932334 
L 105.636364 17.29769 
L 107.045455 23.0714 
L 107.75 22.405799 
L 108.454545 19.635037 
L 109.159091 21.600885 
L 109.863636 20.223243 
L 110.568182 20.734054 
L 111.272727 25.00629 
L 111.977273 22.189091 
L 112.681818 28.179509 
L 113.386364 28.489091 
L 114.090909 28.50457 
L 114.795455 26.647076 
L 115.5 27.482948 
L 116.204545 26.027912 
L 116.909091 22.637985 
L 117.613636 22.963047 
L 118.318182 19.805307 
L 119.022727 19.449287 
L 119.727273 18.505061 
L 120.431818 19.604079 
L 121.136364 17.359607 
L 121.840909 20.145848 
L 122.545455 22.328403 
L 123.954545 22.498673 
L 124.659091 19.495725 
L 125.363636 20.749533 
L 126.068182 20.935283 
L 126.772727 20.006536 
L 128.181818 17.406044 
L 128.886364 17.560835 
L 129.590909 14.604324 
L 130.295455 15.37828 
L 131 17.034545 
L 131.704545 16.121278 
L 132.409091 14.68172 
L 133.113636 14.666241 
L 133.818182 18.984914 
L 134.522727 15.796216 
L 135.227273 18.628894 
L 135.931818 19.077789 
L 136.636364 16.709484 
L 137.340909 18.00973 
L 138.045455 16.245111 
L 138.75 18.597936 
L 139.454545 17.235774 
L 140.159091 13.954201 
L 140.863636 12.793268 
L 141.568182 11.384668 
L 142.272727 9.155676 
L 142.977273 9.341425 
L 143.681818 16.043882 
L 144.386364 18.210958 
L 145.090909 20.842408 
L 145.795455 21.987862 
L 146.5 22.839214 
L 147.204545 19.898182 
L 147.909091 19.867224 
L 148.613636 20.997199 
L 149.318182 21.631843 
L 150.022727 22.514152 
L 150.727273 22.173612 
L 151.431818 20.888845 
L 152.136364 24.820541 
L 152.840909 25.935037 
L 153.545455 26.089828 
L 154.25 26.074349 
L 154.954545 24.12398 
L 155.659091 23.25715 
L 155.659091 23.25715 
" clip-path="url(#p6fd4f1db1e)" style="fill: none; stroke: #ff7f0e; stroke-width: 2; stroke-linecap: square"/>
   </g>
   <g id="patch_3">
    <path d="M 22.5 32.04 
L 22.5 4.32 
" style="fill: none; stroke: #000000; stroke-width: 0.8; stroke-linejoin: miter; stroke-linecap: square"/>
   </g>
   <g id="patch_4">
    <path d="M 162 32.04 
L 162 4.32 
" style="fill: none; stroke: #000000; stroke-width: 0.8; stroke-linejoin: miter; stroke-linecap: square"/>
   </g>
   <g id="patch_5">
    <path d="M 22.5 32.04 
L 162 32.04 
" style="fill: none; stroke: #000000; stroke-width: 0.8; stroke-linejoin: miter; stroke-linecap: square"/>
   </g>
   <g id="patch_6">
    <path d="M 22.5 4.32 
L 162 4.32 
" style="fill: none; stroke: #000000; stroke-width: 0.8; stroke-linejoin: miter; stroke-linecap: square"/>
   </g>
  </g>
 </g>
 <defs>
  <clipPath id="p6fd4f1db1e">
   <rect x="22.5" y="4.32" width="139.5" height="27.72"/>
  </clipPath>
 </defs>
</svg>
