<?xml version="1.0" encoding="utf-8" standalone="no"?>
<!DOCTYPE svg PUBLIC "-//W3C//DTD SVG 1.1//EN"
  "http://www.w3.org/Graphics/SVG/1.1/DTD/svg11.dtd">
<svg xmlns:xlink="http://www.w3.org/1999/xlink" width="280.57075pt" height="77.5825pt" viewBox="0 0 280.57075 77.5825" xmlns="http://www.w3.org/2000/svg" version="1.1">
 <metadata>
  <rdf:RDF xmlns:dc="http://purl.org/dc/elements/1.1/" xmlns:cc="http://creativecommons.org/ns#" xmlns:rdf="http://www.w3.org/1999/02/22-rdf-syntax-ns#">
   <cc:Work>
    <dc:type rdf:resource="http://purl.org/dc/dcmitype/StillImage"/>
    <dc:date>2024-11-12T19:06:21.095480</dc:date>
    <dc:format>image/svg+xml</dc:format>
    <dc:creator>
     <cc:Agent>
      <dc:title>Matplotlib v3.7.5, https://matplotlib.org/</dc:title>
     </cc:Agent>
    </dc:creator>
   </cc:Work>
  </rdf:RDF>
 </metadata>
 <defs>
  <style type="text/css">*{stroke-linejoin: round; stroke-linecap: butt}</style>
 </defs>
 <g id="figure_1">
  <g id="patch_1">
   <path d="M 0 77.5825 
L 280.57075 77.5825 
L 280.57075 0 
L 0 0 
L 0 77.5825 
z
" style="fill: none"/>
  </g>
  <g id="axes_1">
   <g id="patch_2">
    <path d="M 50.17075 65.679375 
L 273.37075 65.679375 
L 273.37075 10.239375 
L 50.17075 10.239375 
L 50.17075 65.679375 
z
" style="fill: none"/>
   </g>
   <g id="PolyCollection_1">
    <path d="M 74.887607 71.467311 
L 74.731815 71.467311 
L 74.723432 70.666029 
L 74.709025 69.864748 
L 74.676604 69.063466 
L 74.635316 68.262185 
L 74.595825 67.460903 
L 74.547525 66.659621 
L 74.456561 65.85834 
L 74.272227 65.057058 
L 73.942371 64.255777 
L 73.419546 63.454495 
L 72.635459 62.653213 
L 71.493189 61.851932 
L 69.917562 61.05065 
L 67.943566 60.249369 
L 65.778137 59.448087 
L 63.716773 58.646805 
L 61.977239 57.845524 
L 60.740018 57.044242 
L 60.316205 56.242961 
L 60.97893 55.441679 
L 62.593845 54.640397 
L 64.647616 53.839116 
L 66.6309 53.037834 
L 68.301957 52.236553 
L 69.669723 51.435271 
L 70.822191 50.633989 
L 71.800987 49.832708 
L 72.606494 49.031426 
L 73.235546 48.230145 
L 73.693146 47.428863 
L 74.001343 46.627581 
L 74.199673 45.8263 
L 74.335723 45.025018 
L 74.454302 44.223737 
L 74.576399 43.422455 
L 74.686501 42.621173 
L 74.7578 41.819892 
L 74.783058 41.01861 
L 74.772136 40.217329 
L 74.739916 39.416047 
L 74.706092 38.614765 
L 74.688214 37.813484 
L 74.688152 37.012202 
L 74.696789 36.210921 
L 74.707404 35.409639 
L 74.716791 34.608357 
L 74.724807 33.807076 
L 74.733468 33.005794 
L 74.739328 32.204513 
L 74.737496 31.403231 
L 74.735573 30.601949 
L 74.746858 29.800668 
L 74.770159 28.999386 
L 74.791925 28.198105 
L 74.804064 27.396823 
L 74.808451 26.595541 
L 74.809514 25.79426 
L 74.809689 24.992978 
L 74.809709 24.191697 
L 74.809711 23.390415 
L 74.809711 22.589133 
L 74.809711 21.787852 
L 74.809708 20.98657 
L 74.809676 20.185289 
L 74.809439 19.384007 
L 74.808225 18.582725 
L 74.804084 17.781444 
L 74.794922 16.980162 
L 74.782732 16.178881 
L 74.775548 15.377599 
L 74.779681 14.576317 
L 74.791387 13.775036 
L 74.801933 12.973754 
L 74.807279 12.172473 
L 74.808321 11.371191 
L 74.80567 10.569909 
L 74.797639 9.768628 
L 74.78339 8.967346 
L 74.76712 8.166065 
L 74.756264 7.364783 
L 74.755654 6.563501 
L 74.765281 5.76222 
L 74.779769 4.960938 
L 74.789546 4.159657 
L 74.788198 3.358375 
L 74.779647 2.557093 
L 74.775239 1.755812 
L 74.781525 0.95453 
L 74.79365 0.153249 
L 74.803355 -0.648033 
L 74.807964 -1.449315 
L 74.809374 -2.250596 
L 74.809619 -3.051878 
L 74.809349 -3.853159 
L 74.807862 -4.654441 
L 74.803076 -5.455723 
L 74.793185 -6.257004 
L 74.781136 -7.058286 
L 74.775413 -7.859567 
L 74.844009 -7.859567 
L 74.844009 -7.859567 
L 74.838286 -7.058286 
L 74.826237 -6.257004 
L 74.816346 -5.455723 
L 74.81156 -4.654441 
L 74.810073 -3.853159 
L 74.809803 -3.051878 
L 74.810049 -2.250596 
L 74.811458 -1.449315 
L 74.816067 -0.648033 
L 74.825772 0.153249 
L 74.837897 0.95453 
L 74.844183 1.755812 
L 74.839775 2.557093 
L 74.831224 3.358375 
L 74.829876 4.159657 
L 74.839653 4.960938 
L 74.854141 5.76222 
L 74.863768 6.563501 
L 74.863158 7.364783 
L 74.852302 8.166065 
L 74.836032 8.967346 
L 74.821784 9.768628 
L 74.813752 10.569909 
L 74.811101 11.371191 
L 74.812143 12.172473 
L 74.817489 12.973754 
L 74.828035 13.775036 
L 74.839741 14.576317 
L 74.843874 15.377599 
L 74.83669 16.178881 
L 74.8245 16.980162 
L 74.815338 17.781444 
L 74.811197 18.582725 
L 74.809984 19.384007 
L 74.809746 20.185289 
L 74.809714 20.98657 
L 74.809711 21.787852 
L 74.809711 22.589133 
L 74.809711 23.390415 
L 74.809713 24.191697 
L 74.809733 24.992978 
L 74.809908 25.79426 
L 74.810972 26.595541 
L 74.815358 27.396823 
L 74.827497 28.198105 
L 74.849263 28.999386 
L 74.872564 29.800668 
L 74.883849 30.601949 
L 74.881926 31.403231 
L 74.880095 32.204513 
L 74.885954 33.005794 
L 74.894615 33.807076 
L 74.902631 34.608357 
L 74.912018 35.409639 
L 74.922633 36.210921 
L 74.93127 37.012202 
L 74.931208 37.813484 
L 74.91333 38.614765 
L 74.879506 39.416047 
L 74.847286 40.217329 
L 74.836364 41.01861 
L 74.861622 41.819892 
L 74.932922 42.621173 
L 75.043023 43.422455 
L 75.16512 44.223737 
L 75.283699 45.025018 
L 75.419749 45.8263 
L 75.618079 46.627581 
L 75.926276 47.428863 
L 76.383876 48.230145 
L 77.012929 49.031426 
L 77.818435 49.832708 
L 78.797231 50.633989 
L 79.949699 51.435271 
L 81.317465 52.236553 
L 82.988522 53.037834 
L 84.971806 53.839116 
L 87.025577 54.640397 
L 88.640492 55.441679 
L 89.303218 56.242961 
L 88.879404 57.044242 
L 87.642183 57.845524 
L 85.902649 58.646805 
L 83.841285 59.448087 
L 81.675856 60.249369 
L 79.70186 61.05065 
L 78.126234 61.851932 
L 76.983964 62.653213 
L 76.199876 63.454495 
L 75.677052 64.255777 
L 75.347195 65.057058 
L 75.162861 65.85834 
L 75.071897 66.659621 
L 75.023597 67.460903 
L 74.984106 68.262185 
L 74.942818 69.063466 
L 74.910397 69.864748 
L 74.89599 70.666029 
L 74.887607 71.467311 
z
" clip-path="url(#p27960eab67)" style="fill: #1f77b4; fill-opacity: 0.8"/>
   </g>
   <g id="PolyCollection_2">
    <path d="M 133.285158 71.467311 
L 132.282316 71.467311 
L 132.28171 70.942109 
L 132.318139 70.416908 
L 132.339454 69.891706 
L 132.31908 69.366505 
L 132.2657 68.841303 
L 132.202115 68.316101 
L 132.147217 67.7909 
L 132.112576 67.265698 
L 132.100863 66.740497 
L 132.099864 66.215295 
L 132.080198 65.690093 
L 132.003723 65.164892 
L 131.838952 64.63969 
L 131.5721 64.114489 
L 131.204598 63.589287 
L 130.739698 63.064085 
L 130.166617 62.538884 
L 129.448629 62.013682 
L 128.531401 61.488481 
L 127.390089 60.963279 
L 126.089754 60.438077 
L 124.787577 59.912876 
L 123.64152 59.387674 
L 122.691196 58.862473 
L 121.828943 58.337271 
L 120.909693 57.812069 
L 119.912338 57.286868 
L 118.999776 56.761666 
L 118.411578 56.236465 
L 118.290231 55.711263 
L 118.609609 55.186061 
L 119.253292 54.66086 
L 120.127253 54.135658 
L 121.190398 53.610457 
L 122.412762 53.085255 
L 123.736016 52.560053 
L 125.070513 52.034852 
L 126.31846 51.50965 
L 127.409614 50.984449 
L 128.331842 50.459247 
L 129.12375 49.934045 
L 129.823872 49.408844 
L 130.430805 48.883642 
L 130.922574 48.358441 
L 131.303055 47.833239 
L 131.609136 47.308037 
L 131.873625 46.782836 
L 132.098672 46.257634 
L 132.27097 45.732433 
L 132.390225 45.207231 
L 132.473082 44.682029 
L 132.535924 44.156828 
L 132.583738 43.631626 
L 132.614098 43.106425 
L 132.625232 42.581223 
L 132.620895 42.056021 
L 132.612334 41.53082 
L 132.614865 41.005618 
L 132.637921 40.480417 
L 132.677361 39.955215 
L 132.719356 39.430013 
L 132.751696 38.904812 
L 132.770683 38.37961 
L 132.779394 37.854409 
L 132.782559 37.329207 
L 132.783477 36.804005 
L 132.78369 36.278804 
L 132.78373 35.753602 
L 132.783736 35.228401 
L 132.783737 34.703199 
L 132.783737 34.177997 
L 132.783737 33.652796 
L 132.783737 33.127594 
L 132.783737 32.602393 
L 132.783737 32.077191 
L 132.783737 31.551989 
L 132.783737 31.026788 
L 132.783737 30.501586 
L 132.783737 29.976385 
L 132.783737 29.451183 
L 132.783737 28.925981 
L 132.783737 28.40078 
L 132.783737 27.875578 
L 132.783737 27.350377 
L 132.783737 26.825175 
L 132.783737 26.299973 
L 132.783737 25.774772 
L 132.783737 25.24957 
L 132.783736 24.724369 
L 132.783729 24.199167 
L 132.783685 23.673965 
L 132.783475 23.148764 
L 132.782671 22.623562 
L 132.780249 22.098361 
L 132.774534 21.573159 
L 132.764164 21.047957 
L 132.750183 20.522756 
L 132.737371 19.997554 
L 132.732093 19.472353 
L 132.835381 19.472353 
L 132.835381 19.472353 
L 132.830103 19.997554 
L 132.817291 20.522756 
L 132.80331 21.047957 
L 132.79294 21.573159 
L 132.787225 22.098361 
L 132.784803 22.623562 
L 132.783999 23.148764 
L 132.783789 23.673965 
L 132.783745 24.199167 
L 132.783738 24.724369 
L 132.783737 25.24957 
L 132.783737 25.774772 
L 132.783737 26.299973 
L 132.783737 26.825175 
L 132.783737 27.350377 
L 132.783737 27.875578 
L 132.783737 28.40078 
L 132.783737 28.925981 
L 132.783737 29.451183 
L 132.783737 29.976385 
L 132.783737 30.501586 
L 132.783737 31.026788 
L 132.783737 31.551989 
L 132.783737 32.077191 
L 132.783737 32.602393 
L 132.783737 33.127594 
L 132.783737 33.652796 
L 132.783737 34.177997 
L 132.783737 34.703199 
L 132.783738 35.228401 
L 132.783744 35.753602 
L 132.783784 36.278804 
L 132.783997 36.804005 
L 132.784915 37.329207 
L 132.78808 37.854409 
L 132.796791 38.37961 
L 132.815778 38.904812 
L 132.848118 39.430013 
L 132.890113 39.955215 
L 132.929553 40.480417 
L 132.952609 41.005618 
L 132.95514 41.53082 
L 132.946579 42.056021 
L 132.942242 42.581223 
L 132.953376 43.106425 
L 132.983736 43.631626 
L 133.03155 44.156828 
L 133.094392 44.682029 
L 133.177249 45.207231 
L 133.296504 45.732433 
L 133.468802 46.257634 
L 133.693849 46.782836 
L 133.958338 47.308037 
L 134.264419 47.833239 
L 134.6449 48.358441 
L 135.136669 48.883642 
L 135.743602 49.408844 
L 136.443724 49.934045 
L 137.235632 50.459247 
L 138.15786 50.984449 
L 139.249014 51.50965 
L 140.496961 52.034852 
L 141.831458 52.560053 
L 143.154712 53.085255 
L 144.377076 53.610457 
L 145.440221 54.135658 
L 146.314182 54.66086 
L 146.957865 55.186061 
L 147.277244 55.711263 
L 147.155896 56.236465 
L 146.567698 56.761666 
L 145.655136 57.286868 
L 144.657781 57.812069 
L 143.738531 58.337271 
L 142.876278 58.862473 
L 141.925954 59.387674 
L 140.779897 59.912876 
L 139.47772 60.438077 
L 138.177385 60.963279 
L 137.036073 61.488481 
L 136.118845 62.013682 
L 135.400857 62.538884 
L 134.827776 63.064085 
L 134.362876 63.589287 
L 133.995374 64.114489 
L 133.728522 64.63969 
L 133.563751 65.164892 
L 133.487276 65.690093 
L 133.46761 66.215295 
L 133.466611 66.740497 
L 133.454898 67.265698 
L 133.420258 67.7909 
L 133.365359 68.316101 
L 133.301774 68.841303 
L 133.248394 69.366505 
L 133.22802 69.891706 
L 133.249335 70.416908 
L 133.285764 70.942109 
L 133.285158 71.467311 
z
" clip-path="url(#p27960eab67)" style="fill: #1f77b4; fill-opacity: 0.8"/>
   </g>
   <g id="PolyCollection_3">
    <path d="M 191.546308 71.467311 
L 189.969218 71.467311 
L 189.894971 71.199676 
L 189.821053 70.932041 
L 189.747999 70.664405 
L 189.676234 70.39677 
L 189.606065 70.129135 
L 189.537688 69.8615 
L 189.471204 69.593865 
L 189.406631 69.326229 
L 189.34391 69.058594 
L 189.28292 68.790959 
L 189.223477 68.523324 
L 189.165331 68.255689 
L 189.108156 67.988053 
L 189.051544 67.720418 
L 188.994993 67.452783 
L 188.937897 67.185148 
L 188.879549 66.917513 
L 188.819133 66.649877 
L 188.755735 66.382242 
L 188.688343 66.114607 
L 188.615851 65.846972 
L 188.537059 65.579337 
L 188.450662 65.311701 
L 188.355242 65.044066 
L 188.249252 64.776431 
L 188.131 64.508796 
L 187.998657 64.241161 
L 187.850267 63.973525 
L 187.683795 63.70589 
L 187.497193 63.438255 
L 187.288498 63.17062 
L 187.055947 62.902985 
L 186.798101 62.635349 
L 186.51396 62.367714 
L 186.20305 62.100079 
L 185.865481 61.832444 
L 185.501944 61.564809 
L 185.113668 61.297173 
L 184.702329 61.029538 
L 184.269933 60.761903 
L 183.818688 60.494268 
L 183.350903 60.226633 
L 182.868917 59.958997 
L 182.37509 59.691362 
L 181.87186 59.423727 
L 181.361851 59.156092 
L 180.848036 58.888457 
L 180.333914 58.620821 
L 179.82367 58.353186 
L 179.322292 58.085551 
L 178.835612 57.817916 
L 178.37025 57.550281 
L 177.933444 57.282645 
L 177.532787 57.01501 
L 177.175877 56.747375 
L 176.86992 56.47974 
L 176.621317 56.212105 
L 176.435293 55.944469 
L 176.315587 55.676834 
L 176.264256 55.409199 
L 176.281594 55.141564 
L 176.36618 54.873929 
L 176.515036 54.606293 
L 176.723883 54.338658 
L 176.987435 54.071023 
L 177.299733 53.803388 
L 177.654443 53.535753 
L 178.045126 53.268117 
L 178.465438 53.000482 
L 178.909269 52.732847 
L 179.370824 52.465212 
L 179.844656 52.197577 
L 180.32567 51.929941 
L 180.809127 51.662306 
L 181.290654 51.394671 
L 181.766267 51.127036 
L 182.232426 50.859401 
L 182.686106 50.591765 
L 183.124866 50.32413 
L 183.546923 50.056495 
L 183.951198 49.78886 
L 184.337325 49.521225 
L 184.705615 49.253589 
L 185.05698 48.985954 
L 185.392809 48.718319 
L 185.714809 48.450684 
L 186.024832 48.183049 
L 186.324701 47.915413 
L 186.616051 47.647778 
L 186.900195 47.380143 
L 187.178039 47.112508 
L 187.450033 46.844873 
L 187.716169 46.577237 
L 187.976019 46.309602 
L 188.228804 46.041967 
L 188.473478 45.774332 
L 188.708832 45.506697 
L 188.933587 45.239061 
L 189.146492 44.971426 
L 192.369034 44.971426 
L 192.369034 44.971426 
L 192.581939 45.239061 
L 192.806694 45.506697 
L 193.042048 45.774332 
L 193.286722 46.041967 
L 193.539507 46.309602 
L 193.799357 46.577237 
L 194.065493 46.844873 
L 194.337487 47.112508 
L 194.615331 47.380143 
L 194.899475 47.647778 
L 195.190825 47.915413 
L 195.490694 48.183049 
L 195.800717 48.450684 
L 196.122717 48.718319 
L 196.458546 48.985954 
L 196.809911 49.253589 
L 197.178201 49.521225 
L 197.564328 49.78886 
L 197.968603 50.056495 
L 198.39066 50.32413 
L 198.82942 50.591765 
L 199.2831 50.859401 
L 199.749259 51.127036 
L 200.224872 51.394671 
L 200.706399 51.662306 
L 201.189856 51.929941 
L 201.67087 52.197577 
L 202.144702 52.465212 
L 202.606257 52.732847 
L 203.050088 53.000482 
L 203.4704 53.268117 
L 203.861083 53.535753 
L 204.215793 53.803388 
L 204.528091 54.071023 
L 204.791643 54.338658 
L 205.00049 54.606293 
L 205.149346 54.873929 
L 205.233932 55.141564 
L 205.251269 55.409199 
L 205.199939 55.676834 
L 205.080233 55.944469 
L 204.894209 56.212105 
L 204.645606 56.47974 
L 204.339649 56.747375 
L 203.982739 57.01501 
L 203.582082 57.282645 
L 203.145276 57.550281 
L 202.679914 57.817916 
L 202.193234 58.085551 
L 201.691856 58.353186 
L 201.181612 58.620821 
L 200.66749 58.888457 
L 200.153675 59.156092 
L 199.643666 59.423727 
L 199.140436 59.691362 
L 198.646609 59.958997 
L 198.164623 60.226633 
L 197.696838 60.494268 
L 197.245593 60.761903 
L 196.813197 61.029538 
L 196.401858 61.297173 
L 196.013582 61.564809 
L 195.650045 61.832444 
L 195.312476 62.100079 
L 195.001566 62.367714 
L 194.717425 62.635349 
L 194.459579 62.902985 
L 194.227028 63.17062 
L 194.018333 63.438255 
L 193.831731 63.70589 
L 193.665259 63.973525 
L 193.516869 64.241161 
L 193.384526 64.508796 
L 193.266274 64.776431 
L 193.160284 65.044066 
L 193.064864 65.311701 
L 192.978467 65.579337 
L 192.899675 65.846972 
L 192.827183 66.114607 
L 192.759791 66.382242 
L 192.696393 66.649877 
L 192.635977 66.917513 
L 192.577629 67.185148 
L 192.520533 67.452783 
L 192.463982 67.720418 
L 192.40737 67.988053 
L 192.350195 68.255689 
L 192.292049 68.523324 
L 192.232606 68.790959 
L 192.171616 69.058594 
L 192.108895 69.326229 
L 192.044321 69.593865 
L 191.977838 69.8615 
L 191.909461 70.129135 
L 191.839292 70.39677 
L 191.767527 70.664405 
L 191.694473 70.932041 
L 191.620555 71.199676 
L 191.546308 71.467311 
z
" clip-path="url(#p27960eab67)" style="fill: #1f77b4; fill-opacity: 0.8"/>
   </g>
   <g id="PolyCollection_4">
    <path d="M 249.793405 66.740497 
L 247.670173 66.740497 
L 247.590473 66.530676 
L 247.507945 66.320855 
L 247.422098 66.111034 
L 247.332343 65.901213 
L 247.238016 65.691393 
L 247.138394 65.481572 
L 247.032714 65.271751 
L 246.920182 65.06193 
L 246.799985 64.852109 
L 246.671295 64.642289 
L 246.533271 64.432468 
L 246.385056 64.222647 
L 246.225775 64.012826 
L 246.054533 63.803005 
L 245.870419 63.593185 
L 245.672512 63.383364 
L 245.459892 63.173543 
L 245.231658 62.963722 
L 244.986947 62.753901 
L 244.724964 62.544081 
L 244.445002 62.33426 
L 244.14647 62.124439 
L 243.828919 61.914618 
L 243.492063 61.704797 
L 243.135799 61.494977 
L 242.760233 61.285156 
L 242.3657 61.075335 
L 241.952793 60.865514 
L 241.5224 60.655693 
L 241.075743 60.445873 
L 240.614431 60.236052 
L 240.140508 60.026231 
L 239.656512 59.81641 
L 239.165518 59.606589 
L 238.671169 59.396769 
L 238.177691 59.186948 
L 237.689865 58.977127 
L 237.212973 58.767306 
L 236.752697 58.557485 
L 236.314975 58.347665 
L 235.905825 58.137844 
L 235.531131 57.928023 
L 235.196421 57.718202 
L 234.906629 57.508381 
L 234.66588 57.298561 
L 234.477302 57.08874 
L 234.342878 56.878919 
L 234.263367 56.669098 
L 234.238282 56.459277 
L 234.265944 56.249457 
L 234.3436 56.039636 
L 234.467605 55.829815 
L 234.633648 55.619994 
L 234.837008 55.410173 
L 235.072818 55.200353 
L 235.336321 54.990532 
L 235.623091 54.780711 
L 235.929214 54.57089 
L 236.251404 54.361069 
L 236.587057 54.151249 
L 236.934235 53.941428 
L 237.291592 53.731607 
L 237.658246 53.521786 
L 238.033618 53.311965 
L 238.417247 53.102145 
L 238.808604 52.892324 
L 239.206926 52.682503 
L 239.611077 52.472682 
L 240.019449 52.262861 
L 240.429923 52.053041 
L 240.839872 51.84322 
L 241.246224 51.633399 
L 241.645564 51.423578 
L 242.034278 51.213757 
L 242.408717 51.003937 
L 242.765381 50.794116 
L 243.101096 50.584295 
L 243.413181 50.374474 
L 243.699592 50.164653 
L 243.959034 49.954833 
L 244.191035 49.745012 
L 244.395978 49.535191 
L 244.575087 49.32537 
L 244.730375 49.115549 
L 244.864549 48.905729 
L 244.980882 48.695908 
L 245.083061 48.486087 
L 245.17502 48.276266 
L 245.260753 48.066445 
L 245.344139 47.856625 
L 245.428777 47.646804 
L 245.517831 47.436983 
L 245.613912 47.227162 
L 245.718987 47.017341 
L 245.834323 46.807521 
L 245.960471 46.5977 
L 246.097288 46.387879 
L 246.24399 46.178058 
L 246.399234 45.968237 
L 251.064344 45.968237 
L 251.064344 45.968237 
L 251.219588 46.178058 
L 251.36629 46.387879 
L 251.503107 46.5977 
L 251.629255 46.807521 
L 251.744591 47.017341 
L 251.849666 47.227162 
L 251.945747 47.436983 
L 252.034801 47.646804 
L 252.119439 47.856625 
L 252.202825 48.066445 
L 252.288558 48.276266 
L 252.380516 48.486087 
L 252.482696 48.695908 
L 252.599029 48.905729 
L 252.733203 49.115549 
L 252.888491 49.32537 
L 253.0676 49.535191 
L 253.272543 49.745012 
L 253.504544 49.954833 
L 253.763986 50.164653 
L 254.050397 50.374474 
L 254.362481 50.584295 
L 254.698197 50.794116 
L 255.054861 51.003937 
L 255.4293 51.213757 
L 255.818014 51.423578 
L 256.217354 51.633399 
L 256.623706 51.84322 
L 257.033655 52.053041 
L 257.444129 52.262861 
L 257.852501 52.472682 
L 258.256652 52.682503 
L 258.654974 52.892324 
L 259.046331 53.102145 
L 259.42996 53.311965 
L 259.805332 53.521786 
L 260.171986 53.731607 
L 260.529343 53.941428 
L 260.876521 54.151249 
L 261.212174 54.361069 
L 261.534364 54.57089 
L 261.840487 54.780711 
L 262.127257 54.990532 
L 262.39076 55.200353 
L 262.62657 55.410173 
L 262.82993 55.619994 
L 262.995973 55.829815 
L 263.119978 56.039636 
L 263.197634 56.249457 
L 263.225295 56.459277 
L 263.200211 56.669098 
L 263.1207 56.878919 
L 262.986276 57.08874 
L 262.797698 57.298561 
L 262.556949 57.508381 
L 262.267157 57.718202 
L 261.932447 57.928023 
L 261.557753 58.137844 
L 261.148602 58.347665 
L 260.710881 58.557485 
L 260.250605 58.767306 
L 259.773713 58.977127 
L 259.285887 59.186948 
L 258.792409 59.396769 
L 258.29806 59.606589 
L 257.807066 59.81641 
L 257.32307 60.026231 
L 256.849147 60.236052 
L 256.387835 60.445873 
L 255.941178 60.655693 
L 255.510785 60.865514 
L 255.097878 61.075335 
L 254.703345 61.285156 
L 254.327779 61.494977 
L 253.971515 61.704797 
L 253.634659 61.914618 
L 253.317108 62.124439 
L 253.018576 62.33426 
L 252.738614 62.544081 
L 252.476631 62.753901 
L 252.23192 62.963722 
L 252.003686 63.173543 
L 251.791066 63.383364 
L 251.593159 63.593185 
L 251.409045 63.803005 
L 251.237803 64.012826 
L 251.078522 64.222647 
L 250.930307 64.432468 
L 250.792283 64.642289 
L 250.663593 64.852109 
L 250.543396 65.06193 
L 250.430864 65.271751 
L 250.325184 65.481572 
L 250.225562 65.691393 
L 250.131235 65.901213 
L 250.04148 66.111034 
L 249.955632 66.320855 
L 249.873105 66.530676 
L 249.793405 66.740497 
z
" clip-path="url(#p27960eab67)" style="fill: #1f77b4; fill-opacity: 0.8"/>
   </g>
   <g id="matplotlib.axis_1"/>
   <g id="matplotlib.axis_2">
    <g id="ytick_1">
     <g id="line2d_1">
      <defs>
       <path id="m5d270e0a3f" d="M 0 0 
L -3.5 0 
"/>
      </defs>
      <g>
       <use xlink:href="#m5d270e0a3f" x="50.17075" y="65.679375"/>
      </g>
     </g>
     <g id="text_1">
      <text style="font: 8px 'DejaVu Sans', 'Bitstream Vera Sans', 'Computer Modern Sans Serif', 'Lucida Grande', 'Verdana', 'Geneva', 'Lucid', 'Arial', 'Helvetica', 'Avant Garde', sans-serif; text-anchor: end" x="43.17075" y="68.71875" transform="rotate(-0 43.17075 68.71875)">0</text>
     </g>
    </g>
    <g id="ytick_2">
     <g id="line2d_2">
      <g>
       <use xlink:href="#m5d270e0a3f" x="50.17075" y="37.959375"/>
      </g>
     </g>
     <g id="text_2">
      <text style="font: 8px 'DejaVu Sans', 'Bitstream Vera Sans', 'Computer Modern Sans Serif', 'Lucida Grande', 'Verdana', 'Geneva', 'Lucid', 'Arial', 'Helvetica', 'Avant Garde', sans-serif; text-anchor: end" x="43.17075" y="40.99875" transform="rotate(-0 43.17075 40.99875)">50</text>
     </g>
    </g>
    <g id="ytick_3">
     <g id="line2d_3">
      <g>
       <use xlink:href="#m5d270e0a3f" x="50.17075" y="10.239375"/>
      </g>
     </g>
     <g id="text_3">
      <text style="font: 8px 'DejaVu Sans', 'Bitstream Vera Sans', 'Computer Modern Sans Serif', 'Lucida Grande', 'Verdana', 'Geneva', 'Lucid', 'Arial', 'Helvetica', 'Avant Garde', sans-serif; text-anchor: end" x="43.17075" y="13.27875" transform="rotate(-0 43.17075 13.27875)">100</text>
     </g>
    </g>
    <g id="text_4">
     <text style="font: 8px 'DejaVu Sans', 'Bitstream Vera Sans', 'Computer Modern Sans Serif', 'Lucida Grande', 'Verdana', 'Geneva', 'Lucid', 'Arial', 'Helvetica', 'Avant Garde', sans-serif" transform="translate(13.27875 51.8525) rotate(-90)">Cdc24 </text>
     <text style="font: 8px 'DejaVu Sans', 'Bitstream Vera Sans', 'Computer Modern Sans Serif', 'Lucida Grande', 'Verdana', 'Geneva', 'Lucid', 'Arial', 'Helvetica', 'Avant Garde', sans-serif" transform="translate(22.237 59.584375) rotate(-90)">Conc. (nM)</text>
    </g>
   </g>
   <g id="LineCollection_1">
    <path d="M 67.562958 55.63424 
L 82.056464 55.63424 
" clip-path="url(#p27960eab67)" style="fill: none; stroke: #000000; stroke-opacity: 0.8; stroke-width: 1.5"/>
    <path d="M 125.536984 56.097528 
L 140.03049 56.097528 
" clip-path="url(#p27960eab67)" style="fill: none; stroke: #000000; stroke-opacity: 0.8; stroke-width: 1.5"/>
    <path d="M 183.51101 55.876759 
L 198.004516 55.876759 
" clip-path="url(#p27960eab67)" style="fill: none; stroke: #000000; stroke-opacity: 0.8; stroke-width: 1.5"/>
    <path d="M 241.485036 55.797111 
L 255.978542 55.797111 
" clip-path="url(#p27960eab67)" style="fill: none; stroke: #000000; stroke-opacity: 0.8; stroke-width: 1.5"/>
   </g>
   <g id="patch_3">
    <path d="M 50.17075 65.679375 
L 50.17075 10.239375 
" style="fill: none; stroke: #000000; stroke-width: 0.8; stroke-linejoin: miter; stroke-linecap: square"/>
   </g>
   <g id="patch_4">
    <path d="M 50.17075 65.679375 
L 273.37075 65.679375 
" style="fill: none; stroke: #000000; stroke-width: 0.8; stroke-linejoin: miter; stroke-linecap: square"/>
   </g>
  </g>
 </g>
 <defs>
  <clipPath id="p27960eab67">
   <rect x="50.17075" y="10.239375" width="223.2" height="55.44"/>
  </clipPath>
 </defs>
</svg>
