<?xml version="1.0" encoding="utf-8" standalone="no"?>
<!DOCTYPE svg PUBLIC "-//W3C//DTD SVG 1.1//EN"
  "http://www.w3.org/Graphics/SVG/1.1/DTD/svg11.dtd">
<svg xmlns:xlink="http://www.w3.org/1999/xlink" width="280.57075pt" height="77.5825pt" viewBox="0 0 280.57075 77.5825" xmlns="http://www.w3.org/2000/svg" version="1.1">
 <metadata>
  <rdf:RDF xmlns:dc="http://purl.org/dc/elements/1.1/" xmlns:cc="http://creativecommons.org/ns#" xmlns:rdf="http://www.w3.org/1999/02/22-rdf-syntax-ns#">
   <cc:Work>
    <dc:type rdf:resource="http://purl.org/dc/dcmitype/StillImage"/>
    <dc:date>2024-11-08T16:10:02.472676</dc:date>
    <dc:format>image/svg+xml</dc:format>
    <dc:creator>
     <cc:Agent>
      <dc:title>Matplotlib v3.7.1, https://matplotlib.org/</dc:title>
     </cc:Agent>
    </dc:creator>
   </cc:Work>
  </rdf:RDF>
 </metadata>
 <defs>
  <style type="text/css">*{stroke-linejoin: round; stroke-linecap: butt}</style>
 </defs>
 <g id="figure_1">
  <g id="patch_1">
   <path d="M 0 77.5825 
L 280.57075 77.5825 
L 280.57075 0 
L 0 0 
L 0 77.5825 
z
" style="fill: none"/>
  </g>
  <g id="axes_1">
   <g id="patch_2">
    <path d="M 50.17075 65.679375 
L 273.37075 65.679375 
L 273.37075 10.239375 
L 50.17075 10.239375 
L 50.17075 65.679375 
z
" style="fill: none"/>
   </g>
   <g id="PolyCollection_1">
    <path d="M 74.887607 69.537999 
L 74.731815 69.537999 
L 74.723432 69.003811 
L 74.709025 68.469624 
L 74.676604 67.935436 
L 74.635316 67.401248 
L 74.595825 66.86706 
L 74.547525 66.332873 
L 74.456561 65.798685 
L 74.272227 65.264497 
L 73.942371 64.730309 
L 73.419546 64.196122 
L 72.635459 63.661934 
L 71.493189 63.127746 
L 69.917562 62.593558 
L 67.943566 62.059371 
L 65.778137 61.525183 
L 63.716773 60.990995 
L 61.977239 60.456808 
L 60.740018 59.92262 
L 60.316205 59.388432 
L 60.97893 58.854244 
L 62.593845 58.320057 
L 64.647616 57.785869 
L 66.6309 57.251681 
L 68.301957 56.717493 
L 69.669723 56.183306 
L 70.822191 55.649118 
L 71.800987 55.11493 
L 72.606494 54.580742 
L 73.235546 54.046555 
L 73.693146 53.512367 
L 74.001343 52.978179 
L 74.199673 52.443992 
L 74.335723 51.909804 
L 74.454302 51.375616 
L 74.576399 50.841428 
L 74.686501 50.307241 
L 74.7578 49.773053 
L 74.783058 49.238865 
L 74.772136 48.704677 
L 74.739916 48.17049 
L 74.706092 47.636302 
L 74.688214 47.102114 
L 74.688152 46.567926 
L 74.696789 46.033739 
L 74.707404 45.499551 
L 74.716791 44.965363 
L 74.724807 44.431176 
L 74.733468 43.896988 
L 74.739328 43.3628 
L 74.737496 42.828612 
L 74.735573 42.294425 
L 74.746858 41.760237 
L 74.770159 41.226049 
L 74.791925 40.691861 
L 74.804064 40.157674 
L 74.808451 39.623486 
L 74.809514 39.089298 
L 74.809689 38.55511 
L 74.809709 38.020923 
L 74.809711 37.486735 
L 74.809711 36.952547 
L 74.809711 36.41836 
L 74.809708 35.884172 
L 74.809676 35.349984 
L 74.809439 34.815796 
L 74.808225 34.281609 
L 74.804084 33.747421 
L 74.794922 33.213233 
L 74.782732 32.679045 
L 74.775548 32.144858 
L 74.779681 31.61067 
L 74.791387 31.076482 
L 74.801933 30.542294 
L 74.807279 30.008107 
L 74.808321 29.473919 
L 74.80567 28.939731 
L 74.797639 28.405544 
L 74.78339 27.871356 
L 74.76712 27.337168 
L 74.756264 26.80298 
L 74.755654 26.268793 
L 74.765281 25.734605 
L 74.779769 25.200417 
L 74.789546 24.666229 
L 74.788198 24.132042 
L 74.779647 23.597854 
L 74.775239 23.063666 
L 74.781525 22.529478 
L 74.79365 21.995291 
L 74.803355 21.461103 
L 74.807964 20.926915 
L 74.809374 20.392728 
L 74.809619 19.85854 
L 74.809349 19.324352 
L 74.807862 18.790164 
L 74.803076 18.255977 
L 74.793185 17.721789 
L 74.781136 17.187601 
L 74.775413 16.653413 
L 74.844009 16.653413 
L 74.844009 16.653413 
L 74.838286 17.187601 
L 74.826237 17.721789 
L 74.816346 18.255977 
L 74.81156 18.790164 
L 74.810073 19.324352 
L 74.809803 19.85854 
L 74.810049 20.392728 
L 74.811458 20.926915 
L 74.816067 21.461103 
L 74.825772 21.995291 
L 74.837897 22.529478 
L 74.844183 23.063666 
L 74.839775 23.597854 
L 74.831224 24.132042 
L 74.829876 24.666229 
L 74.839653 25.200417 
L 74.854141 25.734605 
L 74.863768 26.268793 
L 74.863158 26.80298 
L 74.852302 27.337168 
L 74.836032 27.871356 
L 74.821784 28.405544 
L 74.813752 28.939731 
L 74.811101 29.473919 
L 74.812143 30.008107 
L 74.817489 30.542294 
L 74.828035 31.076482 
L 74.839741 31.61067 
L 74.843874 32.144858 
L 74.83669 32.679045 
L 74.8245 33.213233 
L 74.815338 33.747421 
L 74.811197 34.281609 
L 74.809984 34.815796 
L 74.809746 35.349984 
L 74.809714 35.884172 
L 74.809711 36.41836 
L 74.809711 36.952547 
L 74.809711 37.486735 
L 74.809713 38.020923 
L 74.809733 38.55511 
L 74.809908 39.089298 
L 74.810972 39.623486 
L 74.815358 40.157674 
L 74.827497 40.691861 
L 74.849263 41.226049 
L 74.872564 41.760237 
L 74.883849 42.294425 
L 74.881926 42.828612 
L 74.880095 43.3628 
L 74.885954 43.896988 
L 74.894615 44.431176 
L 74.902631 44.965363 
L 74.912018 45.499551 
L 74.922633 46.033739 
L 74.93127 46.567926 
L 74.931208 47.102114 
L 74.91333 47.636302 
L 74.879506 48.17049 
L 74.847286 48.704677 
L 74.836364 49.238865 
L 74.861622 49.773053 
L 74.932922 50.307241 
L 75.043023 50.841428 
L 75.16512 51.375616 
L 75.283699 51.909804 
L 75.419749 52.443992 
L 75.618079 52.978179 
L 75.926276 53.512367 
L 76.383876 54.046555 
L 77.012929 54.580742 
L 77.818435 55.11493 
L 78.797231 55.649118 
L 79.949699 56.183306 
L 81.317465 56.717493 
L 82.988522 57.251681 
L 84.971806 57.785869 
L 87.025577 58.320057 
L 88.640492 58.854244 
L 89.303218 59.388432 
L 88.879404 59.92262 
L 87.642183 60.456808 
L 85.902649 60.990995 
L 83.841285 61.525183 
L 81.675856 62.059371 
L 79.70186 62.593558 
L 78.126234 63.127746 
L 76.983964 63.661934 
L 76.199876 64.196122 
L 75.677052 64.730309 
L 75.347195 65.264497 
L 75.162861 65.798685 
L 75.071897 66.332873 
L 75.023597 66.86706 
L 74.984106 67.401248 
L 74.942818 67.935436 
L 74.910397 68.469624 
L 74.89599 69.003811 
L 74.887607 69.537999 
z
" clip-path="url(#p2cc55255a8)" style="fill: #1f77b4; fill-opacity: 0.8"/>
   </g>
   <g id="PolyCollection_2">
    <path d="M 133.285158 69.537999 
L 132.282316 69.537999 
L 132.28171 69.187865 
L 132.318139 68.83773 
L 132.339454 68.487596 
L 132.31908 68.137461 
L 132.2657 67.787327 
L 132.202115 67.437193 
L 132.147217 67.087058 
L 132.112576 66.736924 
L 132.100863 66.386789 
L 132.099864 66.036655 
L 132.080198 65.686521 
L 132.003723 65.336386 
L 131.838952 64.986252 
L 131.5721 64.636117 
L 131.204598 64.285983 
L 130.739698 63.935849 
L 130.166617 63.585714 
L 129.448629 63.23558 
L 128.531401 62.885445 
L 127.390089 62.535311 
L 126.089754 62.185177 
L 124.787577 61.835042 
L 123.64152 61.484908 
L 122.691196 61.134773 
L 121.828943 60.784639 
L 120.909693 60.434505 
L 119.912338 60.08437 
L 118.999776 59.734236 
L 118.411578 59.384101 
L 118.290231 59.033967 
L 118.609609 58.683833 
L 119.253292 58.333698 
L 120.127253 57.983564 
L 121.190398 57.633429 
L 122.412762 57.283295 
L 123.736016 56.933161 
L 125.070513 56.583026 
L 126.31846 56.232892 
L 127.409614 55.882757 
L 128.331842 55.532623 
L 129.12375 55.182489 
L 129.823872 54.832354 
L 130.430805 54.48222 
L 130.922574 54.132085 
L 131.303055 53.781951 
L 131.609136 53.431817 
L 131.873625 53.081682 
L 132.098672 52.731548 
L 132.27097 52.381413 
L 132.390225 52.031279 
L 132.473082 51.681145 
L 132.535924 51.33101 
L 132.583738 50.980876 
L 132.614098 50.630741 
L 132.625232 50.280607 
L 132.620895 49.930473 
L 132.612334 49.580338 
L 132.614865 49.230204 
L 132.637921 48.880069 
L 132.677361 48.529935 
L 132.719356 48.179801 
L 132.751696 47.829666 
L 132.770683 47.479532 
L 132.779394 47.129397 
L 132.782559 46.779263 
L 132.783477 46.429129 
L 132.78369 46.078994 
L 132.78373 45.72886 
L 132.783736 45.378725 
L 132.783737 45.028591 
L 132.783737 44.678457 
L 132.783737 44.328322 
L 132.783737 43.978188 
L 132.783737 43.628053 
L 132.783737 43.277919 
L 132.783737 42.927785 
L 132.783737 42.57765 
L 132.783737 42.227516 
L 132.783737 41.877381 
L 132.783737 41.527247 
L 132.783737 41.177113 
L 132.783737 40.826978 
L 132.783737 40.476844 
L 132.783737 40.126709 
L 132.783737 39.776575 
L 132.783737 39.426441 
L 132.783737 39.076306 
L 132.783737 38.726172 
L 132.783736 38.376037 
L 132.783729 38.025903 
L 132.783685 37.675769 
L 132.783475 37.325634 
L 132.782671 36.9755 
L 132.780249 36.625365 
L 132.774534 36.275231 
L 132.764164 35.925097 
L 132.750183 35.574962 
L 132.737371 35.224828 
L 132.732093 34.874693 
L 132.835381 34.874693 
L 132.835381 34.874693 
L 132.830103 35.224828 
L 132.817291 35.574962 
L 132.80331 35.925097 
L 132.79294 36.275231 
L 132.787225 36.625365 
L 132.784803 36.9755 
L 132.783999 37.325634 
L 132.783789 37.675769 
L 132.783745 38.025903 
L 132.783738 38.376037 
L 132.783737 38.726172 
L 132.783737 39.076306 
L 132.783737 39.426441 
L 132.783737 39.776575 
L 132.783737 40.126709 
L 132.783737 40.476844 
L 132.783737 40.826978 
L 132.783737 41.177113 
L 132.783737 41.527247 
L 132.783737 41.877381 
L 132.783737 42.227516 
L 132.783737 42.57765 
L 132.783737 42.927785 
L 132.783737 43.277919 
L 132.783737 43.628053 
L 132.783737 43.978188 
L 132.783737 44.328322 
L 132.783737 44.678457 
L 132.783737 45.028591 
L 132.783738 45.378725 
L 132.783744 45.72886 
L 132.783784 46.078994 
L 132.783997 46.429129 
L 132.784915 46.779263 
L 132.78808 47.129397 
L 132.796791 47.479532 
L 132.815778 47.829666 
L 132.848118 48.179801 
L 132.890113 48.529935 
L 132.929553 48.880069 
L 132.952609 49.230204 
L 132.95514 49.580338 
L 132.946579 49.930473 
L 132.942242 50.280607 
L 132.953376 50.630741 
L 132.983736 50.980876 
L 133.03155 51.33101 
L 133.094392 51.681145 
L 133.177249 52.031279 
L 133.296504 52.381413 
L 133.468802 52.731548 
L 133.693849 53.081682 
L 133.958338 53.431817 
L 134.264419 53.781951 
L 134.6449 54.132085 
L 135.136669 54.48222 
L 135.743602 54.832354 
L 136.443724 55.182489 
L 137.235632 55.532623 
L 138.15786 55.882757 
L 139.249014 56.232892 
L 140.496961 56.583026 
L 141.831458 56.933161 
L 143.154712 57.283295 
L 144.377076 57.633429 
L 145.440221 57.983564 
L 146.314182 58.333698 
L 146.957865 58.683833 
L 147.277244 59.033967 
L 147.155896 59.384101 
L 146.567698 59.734236 
L 145.655136 60.08437 
L 144.657781 60.434505 
L 143.738531 60.784639 
L 142.876278 61.134773 
L 141.925954 61.484908 
L 140.779897 61.835042 
L 139.47772 62.185177 
L 138.177385 62.535311 
L 137.036073 62.885445 
L 136.118845 63.23558 
L 135.400857 63.585714 
L 134.827776 63.935849 
L 134.362876 64.285983 
L 133.995374 64.636117 
L 133.728522 64.986252 
L 133.563751 65.336386 
L 133.487276 65.686521 
L 133.46761 66.036655 
L 133.466611 66.386789 
L 133.454898 66.736924 
L 133.420258 67.087058 
L 133.365359 67.437193 
L 133.301774 67.787327 
L 133.248394 68.137461 
L 133.22802 68.487596 
L 133.249335 68.83773 
L 133.285764 69.187865 
L 133.285158 69.537999 
z
" clip-path="url(#p2cc55255a8)" style="fill: #1f77b4; fill-opacity: 0.8"/>
   </g>
   <g id="PolyCollection_3">
    <path d="M 191.546308 69.537999 
L 189.969218 69.537999 
L 189.894971 69.359576 
L 189.821053 69.181152 
L 189.747999 69.002729 
L 189.676234 68.824305 
L 189.606065 68.645882 
L 189.537688 68.467458 
L 189.471204 68.289035 
L 189.406631 68.110611 
L 189.34391 67.932188 
L 189.28292 67.753764 
L 189.223477 67.575341 
L 189.165331 67.396917 
L 189.108156 67.218494 
L 189.051544 67.04007 
L 188.994993 66.861647 
L 188.937897 66.683224 
L 188.879549 66.5048 
L 188.819133 66.326377 
L 188.755735 66.147953 
L 188.688343 65.96953 
L 188.615851 65.791106 
L 188.537059 65.612683 
L 188.450662 65.434259 
L 188.355242 65.255836 
L 188.249252 65.077412 
L 188.131 64.898989 
L 187.998657 64.720565 
L 187.850267 64.542142 
L 187.683795 64.363718 
L 187.497193 64.185295 
L 187.288498 64.006872 
L 187.055947 63.828448 
L 186.798101 63.650025 
L 186.51396 63.471601 
L 186.20305 63.293178 
L 185.865481 63.114754 
L 185.501944 62.936331 
L 185.113668 62.757907 
L 184.702329 62.579484 
L 184.269933 62.40106 
L 183.818688 62.222637 
L 183.350903 62.044213 
L 182.868917 61.86579 
L 182.37509 61.687366 
L 181.87186 61.508943 
L 181.361851 61.33052 
L 180.848036 61.152096 
L 180.333914 60.973673 
L 179.82367 60.795249 
L 179.322292 60.616826 
L 178.835612 60.438402 
L 178.37025 60.259979 
L 177.933444 60.081555 
L 177.532787 59.903132 
L 177.175877 59.724708 
L 176.86992 59.546285 
L 176.621317 59.367861 
L 176.435293 59.189438 
L 176.315587 59.011014 
L 176.264256 58.832591 
L 176.281594 58.654168 
L 176.36618 58.475744 
L 176.515036 58.297321 
L 176.723883 58.118897 
L 176.987435 57.940474 
L 177.299733 57.76205 
L 177.654443 57.583627 
L 178.045126 57.405203 
L 178.465438 57.22678 
L 178.909269 57.048356 
L 179.370824 56.869933 
L 179.844656 56.691509 
L 180.32567 56.513086 
L 180.809127 56.334662 
L 181.290654 56.156239 
L 181.766267 55.977816 
L 182.232426 55.799392 
L 182.686106 55.620969 
L 183.124866 55.442545 
L 183.546923 55.264122 
L 183.951198 55.085698 
L 184.337325 54.907275 
L 184.705615 54.728851 
L 185.05698 54.550428 
L 185.392809 54.372004 
L 185.714809 54.193581 
L 186.024832 54.015157 
L 186.324701 53.836734 
L 186.616051 53.65831 
L 186.900195 53.479887 
L 187.178039 53.301464 
L 187.450033 53.12304 
L 187.716169 52.944617 
L 187.976019 52.766193 
L 188.228804 52.58777 
L 188.473478 52.409346 
L 188.708832 52.230923 
L 188.933587 52.052499 
L 189.146492 51.874076 
L 192.369034 51.874076 
L 192.369034 51.874076 
L 192.581939 52.052499 
L 192.806694 52.230923 
L 193.042048 52.409346 
L 193.286722 52.58777 
L 193.539507 52.766193 
L 193.799357 52.944617 
L 194.065493 53.12304 
L 194.337487 53.301464 
L 194.615331 53.479887 
L 194.899475 53.65831 
L 195.190825 53.836734 
L 195.490694 54.015157 
L 195.800717 54.193581 
L 196.122717 54.372004 
L 196.458546 54.550428 
L 196.809911 54.728851 
L 197.178201 54.907275 
L 197.564328 55.085698 
L 197.968603 55.264122 
L 198.39066 55.442545 
L 198.82942 55.620969 
L 199.2831 55.799392 
L 199.749259 55.977816 
L 200.224872 56.156239 
L 200.706399 56.334662 
L 201.189856 56.513086 
L 201.67087 56.691509 
L 202.144702 56.869933 
L 202.606257 57.048356 
L 203.050088 57.22678 
L 203.4704 57.405203 
L 203.861083 57.583627 
L 204.215793 57.76205 
L 204.528091 57.940474 
L 204.791643 58.118897 
L 205.00049 58.297321 
L 205.149346 58.475744 
L 205.233932 58.654168 
L 205.251269 58.832591 
L 205.199939 59.011014 
L 205.080233 59.189438 
L 204.894209 59.367861 
L 204.645606 59.546285 
L 204.339649 59.724708 
L 203.982739 59.903132 
L 203.582082 60.081555 
L 203.145276 60.259979 
L 202.679914 60.438402 
L 202.193234 60.616826 
L 201.691856 60.795249 
L 201.181612 60.973673 
L 200.66749 61.152096 
L 200.153675 61.33052 
L 199.643666 61.508943 
L 199.140436 61.687366 
L 198.646609 61.86579 
L 198.164623 62.044213 
L 197.696838 62.222637 
L 197.245593 62.40106 
L 196.813197 62.579484 
L 196.401858 62.757907 
L 196.013582 62.936331 
L 195.650045 63.114754 
L 195.312476 63.293178 
L 195.001566 63.471601 
L 194.717425 63.650025 
L 194.459579 63.828448 
L 194.227028 64.006872 
L 194.018333 64.185295 
L 193.831731 64.363718 
L 193.665259 64.542142 
L 193.516869 64.720565 
L 193.384526 64.898989 
L 193.266274 65.077412 
L 193.160284 65.255836 
L 193.064864 65.434259 
L 192.978467 65.612683 
L 192.899675 65.791106 
L 192.827183 65.96953 
L 192.759791 66.147953 
L 192.696393 66.326377 
L 192.635977 66.5048 
L 192.577629 66.683224 
L 192.520533 66.861647 
L 192.463982 67.04007 
L 192.40737 67.218494 
L 192.350195 67.396917 
L 192.292049 67.575341 
L 192.232606 67.753764 
L 192.171616 67.932188 
L 192.108895 68.110611 
L 192.044321 68.289035 
L 191.977838 68.467458 
L 191.909461 68.645882 
L 191.839292 68.824305 
L 191.767527 69.002729 
L 191.694473 69.181152 
L 191.620555 69.359576 
L 191.546308 69.537999 
z
" clip-path="url(#p2cc55255a8)" style="fill: #1f77b4; fill-opacity: 0.8"/>
   </g>
   <g id="PolyCollection_4">
    <path d="M 249.793405 66.386789 
L 247.670173 66.386789 
L 247.590473 66.246909 
L 247.507945 66.107028 
L 247.422098 65.967148 
L 247.332343 65.827267 
L 247.238016 65.687387 
L 247.138394 65.547506 
L 247.032714 65.407626 
L 246.920182 65.267745 
L 246.799985 65.127865 
L 246.671295 64.987984 
L 246.533271 64.848104 
L 246.385056 64.708223 
L 246.225775 64.568342 
L 246.054533 64.428462 
L 245.870419 64.288581 
L 245.672512 64.148701 
L 245.459892 64.00882 
L 245.231658 63.86894 
L 244.986947 63.729059 
L 244.724964 63.589179 
L 244.445002 63.449298 
L 244.14647 63.309418 
L 243.828919 63.169537 
L 243.492063 63.029657 
L 243.135799 62.889776 
L 242.760233 62.749896 
L 242.3657 62.610015 
L 241.952793 62.470134 
L 241.5224 62.330254 
L 241.075743 62.190373 
L 240.614431 62.050493 
L 240.140508 61.910612 
L 239.656512 61.770732 
L 239.165518 61.630851 
L 238.671169 61.490971 
L 238.177691 61.35109 
L 237.689865 61.21121 
L 237.212973 61.071329 
L 236.752697 60.931449 
L 236.314975 60.791568 
L 235.905825 60.651688 
L 235.531131 60.511807 
L 235.196421 60.371926 
L 234.906629 60.232046 
L 234.66588 60.092165 
L 234.477302 59.952285 
L 234.342878 59.812404 
L 234.263367 59.672524 
L 234.238282 59.532643 
L 234.265944 59.392763 
L 234.3436 59.252882 
L 234.467605 59.113002 
L 234.633648 58.973121 
L 234.837008 58.833241 
L 235.072818 58.69336 
L 235.336321 58.55348 
L 235.623091 58.413599 
L 235.929214 58.273718 
L 236.251404 58.133838 
L 236.587057 57.993957 
L 236.934235 57.854077 
L 237.291592 57.714196 
L 237.658246 57.574316 
L 238.033618 57.434435 
L 238.417247 57.294555 
L 238.808604 57.154674 
L 239.206926 57.014794 
L 239.611077 56.874913 
L 240.019449 56.735033 
L 240.429923 56.595152 
L 240.839872 56.455272 
L 241.246224 56.315391 
L 241.645564 56.17551 
L 242.034278 56.03563 
L 242.408717 55.895749 
L 242.765381 55.755869 
L 243.101096 55.615988 
L 243.413181 55.476108 
L 243.699592 55.336227 
L 243.959034 55.196347 
L 244.191035 55.056466 
L 244.395978 54.916586 
L 244.575087 54.776705 
L 244.730375 54.636825 
L 244.864549 54.496944 
L 244.980882 54.357064 
L 245.083061 54.217183 
L 245.17502 54.077302 
L 245.260753 53.937422 
L 245.344139 53.797541 
L 245.428777 53.657661 
L 245.517831 53.51778 
L 245.613912 53.3779 
L 245.718987 53.238019 
L 245.834323 53.098139 
L 245.960471 52.958258 
L 246.097288 52.818378 
L 246.24399 52.678497 
L 246.399234 52.538617 
L 251.064344 52.538617 
L 251.064344 52.538617 
L 251.219588 52.678497 
L 251.36629 52.818378 
L 251.503107 52.958258 
L 251.629255 53.098139 
L 251.744591 53.238019 
L 251.849666 53.3779 
L 251.945747 53.51778 
L 252.034801 53.657661 
L 252.119439 53.797541 
L 252.202825 53.937422 
L 252.288558 54.077302 
L 252.380516 54.217183 
L 252.482696 54.357064 
L 252.599029 54.496944 
L 252.733203 54.636825 
L 252.888491 54.776705 
L 253.0676 54.916586 
L 253.272543 55.056466 
L 253.504544 55.196347 
L 253.763986 55.336227 
L 254.050397 55.476108 
L 254.362481 55.615988 
L 254.698197 55.755869 
L 255.054861 55.895749 
L 255.4293 56.03563 
L 255.818014 56.17551 
L 256.217354 56.315391 
L 256.623706 56.455272 
L 257.033655 56.595152 
L 257.444129 56.735033 
L 257.852501 56.874913 
L 258.256652 57.014794 
L 258.654974 57.154674 
L 259.046331 57.294555 
L 259.42996 57.434435 
L 259.805332 57.574316 
L 260.171986 57.714196 
L 260.529343 57.854077 
L 260.876521 57.993957 
L 261.212174 58.133838 
L 261.534364 58.273718 
L 261.840487 58.413599 
L 262.127257 58.55348 
L 262.39076 58.69336 
L 262.62657 58.833241 
L 262.82993 58.973121 
L 262.995973 59.113002 
L 263.119978 59.252882 
L 263.197634 59.392763 
L 263.225295 59.532643 
L 263.200211 59.672524 
L 263.1207 59.812404 
L 262.986276 59.952285 
L 262.797698 60.092165 
L 262.556949 60.232046 
L 262.267157 60.371926 
L 261.932447 60.511807 
L 261.557753 60.651688 
L 261.148602 60.791568 
L 260.710881 60.931449 
L 260.250605 61.071329 
L 259.773713 61.21121 
L 259.285887 61.35109 
L 258.792409 61.490971 
L 258.29806 61.630851 
L 257.807066 61.770732 
L 257.32307 61.910612 
L 256.849147 62.050493 
L 256.387835 62.190373 
L 255.941178 62.330254 
L 255.510785 62.470134 
L 255.097878 62.610015 
L 254.703345 62.749896 
L 254.327779 62.889776 
L 253.971515 63.029657 
L 253.634659 63.169537 
L 253.317108 63.309418 
L 253.018576 63.449298 
L 252.738614 63.589179 
L 252.476631 63.729059 
L 252.23192 63.86894 
L 252.003686 64.00882 
L 251.791066 64.148701 
L 251.593159 64.288581 
L 251.409045 64.428462 
L 251.237803 64.568342 
L 251.078522 64.708223 
L 250.930307 64.848104 
L 250.792283 64.987984 
L 250.663593 65.127865 
L 250.543396 65.267745 
L 250.430864 65.407626 
L 250.325184 65.547506 
L 250.225562 65.687387 
L 250.131235 65.827267 
L 250.04148 65.967148 
L 249.955632 66.107028 
L 249.873105 66.246909 
L 249.793405 66.386789 
z
" clip-path="url(#p2cc55255a8)" style="fill: #1f77b4; fill-opacity: 0.8"/>
   </g>
   <g id="matplotlib.axis_1"/>
   <g id="matplotlib.axis_2">
    <g id="ytick_1">
     <g id="line2d_1">
      <defs>
       <path id="m3694f700ff" d="M 0 0 
L -3.5 0 
"/>
      </defs>
      <g>
       <use xlink:href="#m3694f700ff" x="50.17075" y="65.679375"/>
      </g>
     </g>
     <g id="text_1">
      <text style="font: 8px 'DejaVu Sans', 'Bitstream Vera Sans', 'Computer Modern Sans Serif', 'Lucida Grande', 'Verdana', 'Geneva', 'Lucid', 'Arial', 'Helvetica', 'Avant Garde', sans-serif; text-anchor: end" x="43.17075" y="68.71875" transform="rotate(-0 43.17075 68.71875)">0</text>
     </g>
    </g>
    <g id="ytick_2">
     <g id="line2d_2">
      <g>
       <use xlink:href="#m3694f700ff" x="50.17075" y="47.199375"/>
      </g>
     </g>
     <g id="text_2">
      <text style="font: 8px 'DejaVu Sans', 'Bitstream Vera Sans', 'Computer Modern Sans Serif', 'Lucida Grande', 'Verdana', 'Geneva', 'Lucid', 'Arial', 'Helvetica', 'Avant Garde', sans-serif; text-anchor: end" x="43.17075" y="50.23875" transform="rotate(-0 43.17075 50.23875)">50</text>
     </g>
    </g>
    <g id="ytick_3">
     <g id="line2d_3">
      <g>
       <use xlink:href="#m3694f700ff" x="50.17075" y="28.719375"/>
      </g>
     </g>
     <g id="text_3">
      <text style="font: 8px 'DejaVu Sans', 'Bitstream Vera Sans', 'Computer Modern Sans Serif', 'Lucida Grande', 'Verdana', 'Geneva', 'Lucid', 'Arial', 'Helvetica', 'Avant Garde', sans-serif; text-anchor: end" x="43.17075" y="31.75875" transform="rotate(-0 43.17075 31.75875)">100</text>
     </g>
    </g>
    <g id="ytick_4">
     <g id="line2d_4">
      <g>
       <use xlink:href="#m3694f700ff" x="50.17075" y="10.239375"/>
      </g>
     </g>
     <g id="text_4">
      <text style="font: 8px 'DejaVu Sans', 'Bitstream Vera Sans', 'Computer Modern Sans Serif', 'Lucida Grande', 'Verdana', 'Geneva', 'Lucid', 'Arial', 'Helvetica', 'Avant Garde', sans-serif; text-anchor: end" x="43.17075" y="13.27875" transform="rotate(-0 43.17075 13.27875)">150</text>
     </g>
    </g>
    <g id="text_5">
     <text style="font: 8px 'DejaVu Sans', 'Bitstream Vera Sans', 'Computer Modern Sans Serif', 'Lucida Grande', 'Verdana', 'Geneva', 'Lucid', 'Arial', 'Helvetica', 'Avant Garde', sans-serif" transform="translate(13.27875 51.8525) rotate(-90)">Cdc24 </text>
     <text style="font: 8px 'DejaVu Sans', 'Bitstream Vera Sans', 'Computer Modern Sans Serif', 'Lucida Grande', 'Verdana', 'Geneva', 'Lucid', 'Arial', 'Helvetica', 'Avant Garde', sans-serif" transform="translate(22.237 59.584375) rotate(-90)">Conc. (nM)</text>
    </g>
   </g>
   <g id="LineCollection_1">
    <path d="M 67.562958 58.982619 
L 82.056464 58.982619 
" clip-path="url(#p2cc55255a8)" style="fill: none; stroke: #000000; stroke-opacity: 0.8; stroke-width: 1.5"/>
    <path d="M 125.536984 59.291477 
L 140.03049 59.291477 
" clip-path="url(#p2cc55255a8)" style="fill: none; stroke: #000000; stroke-opacity: 0.8; stroke-width: 1.5"/>
    <path d="M 183.51101 59.144298 
L 198.004516 59.144298 
" clip-path="url(#p2cc55255a8)" style="fill: none; stroke: #000000; stroke-opacity: 0.8; stroke-width: 1.5"/>
    <path d="M 241.485036 59.091199 
L 255.978542 59.091199 
" clip-path="url(#p2cc55255a8)" style="fill: none; stroke: #000000; stroke-opacity: 0.8; stroke-width: 1.5"/>
   </g>
   <g id="patch_3">
    <path d="M 50.17075 65.679375 
L 50.17075 10.239375 
" style="fill: none; stroke: #000000; stroke-width: 0.8; stroke-linejoin: miter; stroke-linecap: square"/>
   </g>
   <g id="patch_4">
    <path d="M 50.17075 65.679375 
L 273.37075 65.679375 
" style="fill: none; stroke: #000000; stroke-width: 0.8; stroke-linejoin: miter; stroke-linecap: square"/>
   </g>
  </g>
 </g>
 <defs>
  <clipPath id="p2cc55255a8">
   <rect x="50.17075" y="10.239375" width="223.2" height="55.44"/>
  </clipPath>
 </defs>
</svg>
