<?xml version="1.0" encoding="utf-8" standalone="no"?>
<!DOCTYPE svg PUBLIC "-//W3C//DTD SVG 1.1//EN"
  "http://www.w3.org/Graphics/SVG/1.1/DTD/svg11.dtd">
<svg xmlns:xlink="http://www.w3.org/1999/xlink" width="280.57075pt" height="77.5825pt" viewBox="0 0 280.57075 77.5825" xmlns="http://www.w3.org/2000/svg" version="1.1">
 <metadata>
  <rdf:RDF xmlns:dc="http://purl.org/dc/elements/1.1/" xmlns:cc="http://creativecommons.org/ns#" xmlns:rdf="http://www.w3.org/1999/02/22-rdf-syntax-ns#">
   <cc:Work>
    <dc:type rdf:resource="http://purl.org/dc/dcmitype/StillImage"/>
    <dc:date>2024-11-08T16:15:43.144251</dc:date>
    <dc:format>image/svg+xml</dc:format>
    <dc:creator>
     <cc:Agent>
      <dc:title>Matplotlib v3.7.1, https://matplotlib.org/</dc:title>
     </cc:Agent>
    </dc:creator>
   </cc:Work>
  </rdf:RDF>
 </metadata>
 <defs>
  <style type="text/css">*{stroke-linejoin: round; stroke-linecap: butt}</style>
 </defs>
 <g id="figure_1">
  <g id="patch_1">
   <path d="M 0 77.5825 
L 280.57075 77.5825 
L 280.57075 0 
L 0 0 
L 0 77.5825 
z
" style="fill: none"/>
  </g>
  <g id="axes_1">
   <g id="patch_2">
    <path d="M 50.17075 65.679375 
L 273.37075 65.679375 
L 273.37075 10.239375 
L 50.17075 10.239375 
L 50.17075 65.679375 
z
" style="fill: none"/>
   </g>
   <g id="PolyCollection_1">
    <path d="M 75.013972 68.667591 
L 74.60545 68.667591 
L 74.59415 68.427765 
L 74.587817 68.18794 
L 74.584303 67.948114 
L 74.580682 67.708289 
L 74.573618 67.468463 
L 74.559533 67.228637 
L 74.53461 66.988812 
L 74.494774 66.748986 
L 74.435872 66.509161 
L 74.354124 66.269335 
L 74.24674 66.029509 
L 74.112446 65.789684 
L 73.951646 65.549858 
L 73.766048 65.310033 
L 73.557803 65.070207 
L 73.328351 64.830381 
L 73.07723 64.590556 
L 72.801145 64.35073 
L 72.493508 64.110905 
L 72.144647 63.871079 
L 71.742826 63.631253 
L 71.276063 63.391428 
L 70.734525 63.151602 
L 70.113078 62.911777 
L 69.41337 62.671951 
L 68.644906 62.432125 
L 67.824722 62.1923 
L 66.975621 61.952474 
L 66.123255 61.712649 
L 65.292615 61.472823 
L 64.504714 61.232997 
L 63.77421 60.993172 
L 63.108577 60.753346 
L 62.509083 60.513521 
L 61.973366 60.273695 
L 61.499016 60.033869 
L 61.087253 59.794044 
L 60.745692 59.554218 
L 60.489252 59.314393 
L 60.338622 59.074567 
L 60.316205 58.834741 
L 60.440273 58.594916 
L 60.718831 58.35509 
L 61.145101 58.115265 
L 61.696394 57.875439 
L 62.337132 57.635613 
L 63.02537 57.395788 
L 63.720817 57.155962 
L 64.391746 56.916137 
L 65.018649 56.676311 
L 65.593871 56.436485 
L 66.118123 56.19666 
L 66.595833 55.956834 
L 67.031429 55.717009 
L 67.427769 55.477183 
L 67.786675 55.237357 
L 68.110607 54.997532 
L 68.404238 54.757706 
L 68.675114 54.517881 
L 68.933206 54.278055 
L 69.189657 54.038229 
L 69.455162 53.798404 
L 69.738294 53.558578 
L 70.043941 53.318753 
L 70.372031 53.078927 
L 70.716832 52.839101 
L 71.067208 52.599276 
L 71.408091 52.35945 
L 71.723116 52.119625 
L 71.99789 51.879799 
L 72.223139 51.639973 
L 72.39686 51.400148 
L 72.52494 51.160322 
L 72.620037 50.920497 
L 72.698955 50.680671 
L 72.77902 50.440845 
L 72.874233 50.20102 
L 72.992032 49.961194 
L 73.131522 49.721369 
L 73.283761 49.481543 
L 73.434206 49.241717 
L 73.566781 49.001892 
L 73.668442 48.762066 
L 73.732878 48.522241 
L 73.762229 48.282415 
L 73.766333 48.042589 
L 73.759864 47.802764 
L 73.758349 47.562938 
L 73.774372 47.323113 
L 73.815027 47.083287 
L 73.881172 46.843461 
L 73.968388 46.603636 
L 74.06904 46.36381 
L 74.174618 46.123985 
L 74.277661 45.884159 
L 74.372854 45.644333 
L 74.457273 45.404508 
L 74.529985 45.164682 
L 74.591369 44.924857 
L 75.028053 44.924857 
L 75.028053 44.924857 
L 75.089437 45.164682 
L 75.162149 45.404508 
L 75.246568 45.644333 
L 75.341761 45.884159 
L 75.444804 46.123985 
L 75.550382 46.36381 
L 75.651034 46.603636 
L 75.73825 46.843461 
L 75.804395 47.083287 
L 75.84505 47.323113 
L 75.861073 47.562938 
L 75.859558 47.802764 
L 75.853089 48.042589 
L 75.857193 48.282415 
L 75.886544 48.522241 
L 75.95098 48.762066 
L 76.052641 49.001892 
L 76.185216 49.241717 
L 76.335661 49.481543 
L 76.4879 49.721369 
L 76.62739 49.961194 
L 76.745189 50.20102 
L 76.840402 50.440845 
L 76.920467 50.680671 
L 76.999385 50.920497 
L 77.094482 51.160322 
L 77.222562 51.400148 
L 77.396283 51.639973 
L 77.621532 51.879799 
L 77.896307 52.119625 
L 78.211331 52.35945 
L 78.552214 52.599276 
L 78.90259 52.839101 
L 79.247391 53.078927 
L 79.575481 53.318753 
L 79.881128 53.558578 
L 80.16426 53.798404 
L 80.429765 54.038229 
L 80.686216 54.278055 
L 80.944308 54.517881 
L 81.215184 54.757706 
L 81.508815 54.997532 
L 81.832747 55.237357 
L 82.191654 55.477183 
L 82.587994 55.717009 
L 83.023589 55.956834 
L 83.501299 56.19666 
L 84.025551 56.436485 
L 84.600773 56.676311 
L 85.227676 56.916137 
L 85.898605 57.155962 
L 86.594052 57.395788 
L 87.28229 57.635613 
L 87.923028 57.875439 
L 88.474322 58.115265 
L 88.900592 58.35509 
L 89.179149 58.594916 
L 89.303218 58.834741 
L 89.2808 59.074567 
L 89.13017 59.314393 
L 88.87373 59.554218 
L 88.532169 59.794044 
L 88.120406 60.033869 
L 87.646057 60.273695 
L 87.110339 60.513521 
L 86.510845 60.753346 
L 85.845212 60.993172 
L 85.114708 61.232997 
L 84.326807 61.472823 
L 83.496167 61.712649 
L 82.643801 61.952474 
L 81.794701 62.1923 
L 80.974516 62.432125 
L 80.206052 62.671951 
L 79.506344 62.911777 
L 78.884897 63.151602 
L 78.343359 63.391428 
L 77.876596 63.631253 
L 77.474775 63.871079 
L 77.125914 64.110905 
L 76.818277 64.35073 
L 76.542192 64.590556 
L 76.291071 64.830381 
L 76.061619 65.070207 
L 75.853374 65.310033 
L 75.667776 65.549858 
L 75.506976 65.789684 
L 75.372682 66.029509 
L 75.265298 66.269335 
L 75.18355 66.509161 
L 75.124648 66.748986 
L 75.084812 66.988812 
L 75.059889 67.228637 
L 75.045804 67.468463 
L 75.03874 67.708289 
L 75.035119 67.948114 
L 75.031605 68.18794 
L 75.025273 68.427765 
L 75.013972 68.667591 
z
" clip-path="url(#p629e52c27d)" style="fill: #1f77b4; fill-opacity: 0.8"/>
   </g>
   <g id="PolyCollection_2">
    <path d="M 133.62527 68.667591 
L 131.942204 68.667591 
L 131.852708 68.431881 
L 131.761916 68.196172 
L 131.663869 67.960462 
L 131.55247 67.724753 
L 131.423078 67.489043 
L 131.273678 67.253333 
L 131.10528 67.017624 
L 130.921464 66.781914 
L 130.72724 66.546205 
L 130.527592 66.310495 
L 130.326069 66.074785 
L 130.123765 65.839076 
L 129.918841 65.603366 
L 129.706612 65.367657 
L 129.480101 65.131947 
L 129.230875 64.896237 
L 128.949982 64.660528 
L 128.62885 64.424818 
L 128.260018 64.189109 
L 127.837689 63.953399 
L 127.358106 63.717689 
L 126.819807 63.48198 
L 126.22383 63.24627 
L 125.573944 63.010561 
L 124.876919 62.774851 
L 124.142809 62.539141 
L 123.385128 62.303432 
L 122.620724 62.067722 
L 121.869149 61.832013 
L 121.151413 61.596303 
L 120.488191 61.360593 
L 119.897742 61.124884 
L 119.394024 60.889174 
L 118.985456 60.653465 
L 118.674679 60.417755 
L 118.45934 60.182045 
L 118.333648 59.946336 
L 118.290231 59.710626 
L 118.321816 59.474917 
L 118.422418 59.239207 
L 118.58792 59.003497 
L 118.816169 58.767788 
L 119.106699 58.532078 
L 119.46018 58.296369 
L 119.877564 58.060659 
L 120.358919 57.824949 
L 120.901988 57.58924 
L 121.500792 57.35353 
L 122.144666 57.117821 
L 122.818194 56.882111 
L 123.502267 56.646401 
L 124.17616 56.410692 
L 124.820187 56.174982 
L 125.41826 55.939273 
L 125.959748 55.703563 
L 126.440202 55.467853 
L 126.860907 55.232144 
L 127.227506 54.996434 
L 127.54818 54.760725 
L 127.831882 54.525015 
L 128.087041 54.289305 
L 128.320908 54.053596 
L 128.539484 53.817886 
L 128.74781 53.582177 
L 128.950304 53.346467 
L 129.1509 53.110757 
L 129.352881 52.875048 
L 129.558447 52.639338 
L 129.768188 52.403629 
L 129.980677 52.167919 
L 130.192384 51.932209 
L 130.397999 51.6965 
L 130.591161 51.46079 
L 130.765493 51.225081 
L 130.915737 50.989371 
L 131.038791 50.753661 
L 131.134425 50.517952 
L 131.205514 50.282242 
L 131.257721 50.046533 
L 131.298671 49.810823 
L 131.336749 49.575113 
L 131.379787 49.339404 
L 131.433869 49.103694 
L 131.502502 48.867985 
L 131.586277 48.632275 
L 131.683046 48.396565 
L 131.788519 48.160856 
L 131.897128 47.925146 
L 132.002999 47.689437 
L 132.100858 47.453727 
L 132.186769 47.218017 
L 132.25862 46.982308 
L 132.316286 46.746598 
L 132.361481 46.510889 
L 132.397283 46.275179 
L 132.427453 46.039469 
L 132.455652 45.80376 
L 132.484753 45.56805 
L 132.516378 45.332341 
L 133.051096 45.332341 
L 133.051096 45.332341 
L 133.082721 45.56805 
L 133.111822 45.80376 
L 133.140021 46.039469 
L 133.170191 46.275179 
L 133.205993 46.510889 
L 133.251188 46.746598 
L 133.308854 46.982308 
L 133.380705 47.218017 
L 133.466617 47.453727 
L 133.564475 47.689437 
L 133.670346 47.925146 
L 133.778955 48.160856 
L 133.884428 48.396565 
L 133.981197 48.632275 
L 134.064972 48.867985 
L 134.133605 49.103694 
L 134.187687 49.339404 
L 134.230725 49.575113 
L 134.268803 49.810823 
L 134.309753 50.046533 
L 134.36196 50.282242 
L 134.433049 50.517952 
L 134.528683 50.753661 
L 134.651737 50.989371 
L 134.801981 51.225081 
L 134.976313 51.46079 
L 135.169475 51.6965 
L 135.37509 51.932209 
L 135.586797 52.167919 
L 135.799286 52.403629 
L 136.009027 52.639338 
L 136.214593 52.875048 
L 136.416575 53.110757 
L 136.61717 53.346467 
L 136.819664 53.582177 
L 137.02799 53.817886 
L 137.246566 54.053596 
L 137.480433 54.289305 
L 137.735592 54.525015 
L 138.019294 54.760725 
L 138.339968 54.996434 
L 138.706567 55.232144 
L 139.127272 55.467853 
L 139.607726 55.703563 
L 140.149214 55.939273 
L 140.747287 56.174982 
L 141.391314 56.410692 
L 142.065207 56.646401 
L 142.74928 56.882111 
L 143.422808 57.117821 
L 144.066682 57.35353 
L 144.665486 57.58924 
L 145.208556 57.824949 
L 145.68991 58.060659 
L 146.107295 58.296369 
L 146.460775 58.532078 
L 146.751305 58.767788 
L 146.979554 59.003497 
L 147.145056 59.239207 
L 147.245658 59.474917 
L 147.277244 59.710626 
L 147.233826 59.946336 
L 147.108134 60.182045 
L 146.892795 60.417755 
L 146.582018 60.653465 
L 146.17345 60.889174 
L 145.669732 61.124884 
L 145.079283 61.360593 
L 144.416061 61.596303 
L 143.698325 61.832013 
L 142.94675 62.067722 
L 142.182346 62.303432 
L 141.424665 62.539141 
L 140.690555 62.774851 
L 139.99353 63.010561 
L 139.343644 63.24627 
L 138.747667 63.48198 
L 138.209368 63.717689 
L 137.729785 63.953399 
L 137.307456 64.189109 
L 136.938624 64.424818 
L 136.617492 64.660528 
L 136.336599 64.896237 
L 136.087373 65.131947 
L 135.860862 65.367657 
L 135.648633 65.603366 
L 135.443709 65.839076 
L 135.241405 66.074785 
L 135.039882 66.310495 
L 134.840234 66.546205 
L 134.64601 66.781914 
L 134.462194 67.017624 
L 134.293796 67.253333 
L 134.144396 67.489043 
L 134.015004 67.724753 
L 133.903605 67.960462 
L 133.805559 68.196172 
L 133.714766 68.431881 
L 133.62527 68.667591 
z
" clip-path="url(#p629e52c27d)" style="fill: #1f77b4; fill-opacity: 0.8"/>
   </g>
   <g id="PolyCollection_3">
    <path d="M 192.546551 68.667591 
L 188.968975 68.667591 
L 188.862036 68.440388 
L 188.753155 68.213185 
L 188.63935 67.985981 
L 188.517148 67.758778 
L 188.382788 67.531575 
L 188.232443 67.304372 
L 188.062452 67.077169 
L 187.869536 66.849965 
L 187.650984 66.622762 
L 187.404788 66.395559 
L 187.129734 66.168356 
L 186.825433 65.941153 
L 186.492297 65.713949 
L 186.131485 65.486746 
L 185.744803 65.259543 
L 185.334602 65.03234 
L 184.903657 64.805137 
L 184.455061 64.577933 
L 183.992126 64.35073 
L 183.5183 64.123527 
L 183.037106 63.896324 
L 182.552084 63.669121 
L 182.066748 63.441917 
L 181.584543 63.214714 
L 181.108805 62.987511 
L 180.642708 62.760308 
L 180.189223 62.533105 
L 179.751071 62.305901 
L 179.330683 62.078698 
L 178.930192 61.851495 
L 178.551433 61.624292 
L 178.195983 61.397089 
L 177.865234 61.169885 
L 177.560489 60.942682 
L 177.28307 60.715479 
L 177.034446 60.488276 
L 176.816323 60.261073 
L 176.630723 60.033869 
L 176.479994 59.806666 
L 176.366781 59.579463 
L 176.293914 59.35226 
L 176.264256 59.125057 
L 176.280499 58.897853 
L 176.344931 58.67065 
L 176.459215 58.443447 
L 176.624182 58.216244 
L 176.839674 57.989041 
L 177.104448 57.761837 
L 177.416156 57.534634 
L 177.771388 57.307431 
L 178.165788 57.080228 
L 178.594218 56.853025 
L 179.050946 56.625821 
L 179.529861 56.398618 
L 180.024665 56.171415 
L 180.529061 55.944212 
L 181.036893 55.717009 
L 181.542268 55.489805 
L 182.039627 55.262602 
L 182.523799 55.035399 
L 182.990031 54.808196 
L 183.434007 54.580993 
L 183.851866 54.353789 
L 184.240227 54.126586 
L 184.596226 53.899383 
L 184.91757 53.67218 
L 185.20259 53.444977 
L 185.45032 53.217773 
L 185.660553 52.99057 
L 185.833901 52.763367 
L 185.97183 52.536164 
L 186.076667 52.308961 
L 186.151569 52.081757 
L 186.200454 51.854554 
L 186.227892 51.627351 
L 186.238955 51.400148 
L 186.239039 51.172945 
L 186.233658 50.945741 
L 186.228232 50.718538 
L 186.227875 50.491335 
L 186.237198 50.264132 
L 186.260145 50.036929 
L 186.299859 49.809725 
L 186.358605 49.582522 
L 186.437732 49.355319 
L 186.537689 49.128116 
L 186.658089 48.900913 
L 186.797805 48.673709 
L 186.955094 48.446506 
L 187.127747 48.219303 
L 187.313227 47.9921 
L 187.508818 47.764897 
L 187.711751 47.537693 
L 187.919305 47.31049 
L 188.128896 47.083287 
L 188.338127 46.856084 
L 188.54482 46.628881 
L 188.747036 46.401677 
L 188.943071 46.174474 
L 192.572455 46.174474 
L 192.572455 46.174474 
L 192.76849 46.401677 
L 192.970706 46.628881 
L 193.177399 46.856084 
L 193.38663 47.083287 
L 193.596221 47.31049 
L 193.803775 47.537693 
L 194.006708 47.764897 
L 194.202299 47.9921 
L 194.387779 48.219303 
L 194.560431 48.446506 
L 194.717721 48.673709 
L 194.857437 48.900913 
L 194.977837 49.128116 
L 195.077794 49.355319 
L 195.156921 49.582522 
L 195.215667 49.809725 
L 195.255381 50.036929 
L 195.278328 50.264132 
L 195.287651 50.491335 
L 195.287294 50.718538 
L 195.281868 50.945741 
L 195.276487 51.172945 
L 195.276571 51.400148 
L 195.287634 51.627351 
L 195.315072 51.854554 
L 195.363957 52.081757 
L 195.438859 52.308961 
L 195.543696 52.536164 
L 195.681625 52.763367 
L 195.854973 52.99057 
L 196.065206 53.217773 
L 196.312935 53.444977 
L 196.597956 53.67218 
L 196.9193 53.899383 
L 197.275299 54.126586 
L 197.66366 54.353789 
L 198.081519 54.580993 
L 198.525495 54.808196 
L 198.991727 55.035399 
L 199.475899 55.262602 
L 199.973258 55.489805 
L 200.478633 55.717009 
L 200.986465 55.944212 
L 201.490861 56.171415 
L 201.985665 56.398618 
L 202.46458 56.625821 
L 202.921308 56.853025 
L 203.349738 57.080228 
L 203.744138 57.307431 
L 204.09937 57.534634 
L 204.411078 57.761837 
L 204.675852 57.989041 
L 204.891344 58.216244 
L 205.056311 58.443447 
L 205.170595 58.67065 
L 205.235027 58.897853 
L 205.251269 59.125057 
L 205.221612 59.35226 
L 205.148745 59.579463 
L 205.035532 59.806666 
L 204.884803 60.033869 
L 204.699203 60.261073 
L 204.48108 60.488276 
L 204.232456 60.715479 
L 203.955037 60.942682 
L 203.650292 61.169885 
L 203.319543 61.397089 
L 202.964093 61.624292 
L 202.585334 61.851495 
L 202.184843 62.078698 
L 201.764455 62.305901 
L 201.326302 62.533105 
L 200.872818 62.760308 
L 200.406721 62.987511 
L 199.930983 63.214714 
L 199.448778 63.441917 
L 198.963442 63.669121 
L 198.47842 63.896324 
L 197.997226 64.123527 
L 197.5234 64.35073 
L 197.060465 64.577933 
L 196.611869 64.805137 
L 196.180924 65.03234 
L 195.770723 65.259543 
L 195.384041 65.486746 
L 195.023229 65.713949 
L 194.690093 65.941153 
L 194.385792 66.168356 
L 194.110738 66.395559 
L 193.864542 66.622762 
L 193.64599 66.849965 
L 193.453074 67.077169 
L 193.283083 67.304372 
L 193.132738 67.531575 
L 192.998378 67.758778 
L 192.876176 67.985981 
L 192.762371 68.213185 
L 192.65349 68.440388 
L 192.546551 68.667591 
z
" clip-path="url(#p629e52c27d)" style="fill: #1f77b4; fill-opacity: 0.8"/>
   </g>
   <g id="PolyCollection_4">
    <path d="M 254.323366 63.995108 
L 243.140212 63.995108 
L 242.771856 63.852145 
L 242.397766 63.709183 
L 242.01894 63.566221 
L 241.63639 63.423258 
L 241.251142 63.280296 
L 240.864249 63.137333 
L 240.476799 62.994371 
L 240.089919 62.851409 
L 239.704787 62.708446 
L 239.322628 62.565484 
L 238.94472 62.422521 
L 238.57239 62.279559 
L 238.207003 62.136597 
L 237.849954 61.993634 
L 237.502654 61.850672 
L 237.166515 61.707709 
L 236.842932 61.564747 
L 236.533262 61.421785 
L 236.238816 61.278822 
L 235.960835 61.13586 
L 235.700481 60.992897 
L 235.458827 60.849935 
L 235.236853 60.706973 
L 235.035437 60.56401 
L 234.855357 60.421048 
L 234.697296 60.278085 
L 234.561841 60.135123 
L 234.449491 59.992161 
L 234.360662 59.849198 
L 234.295689 59.706236 
L 234.254833 59.563273 
L 234.238282 59.420311 
L 234.246151 59.277349 
L 234.278479 59.134386 
L 234.335228 58.991424 
L 234.416274 58.848461 
L 234.521404 58.705499 
L 234.650305 58.562537 
L 234.802558 58.419574 
L 234.97763 58.276612 
L 235.174863 58.133649 
L 235.393475 57.990687 
L 235.632546 57.847725 
L 235.891024 57.704762 
L 236.167715 57.5618 
L 236.461292 57.418837 
L 236.770293 57.275875 
L 237.093128 57.132913 
L 237.428086 56.98995 
L 237.773348 56.846988 
L 238.126998 56.704025 
L 238.487038 56.561063 
L 238.851408 56.418101 
L 239.218002 56.275138 
L 239.584697 56.132176 
L 239.94937 55.989213 
L 240.309929 55.846251 
L 240.664336 55.703289 
L 241.010634 55.560326 
L 241.346975 55.417364 
L 241.671645 55.274401 
L 241.983084 55.131439 
L 242.279909 54.988477 
L 242.560931 54.845514 
L 242.825166 54.702552 
L 243.071846 54.559589 
L 243.300425 54.416627 
L 243.510578 54.273665 
L 243.702197 54.130702 
L 243.875386 53.98774 
L 244.030451 53.844777 
L 244.167888 53.701815 
L 244.288371 53.558853 
L 244.392736 53.41589 
L 244.481966 53.272928 
L 244.557179 53.129965 
L 244.619613 52.987003 
L 244.670611 52.844041 
L 244.711609 52.701078 
L 244.744123 52.558116 
L 244.769736 52.415153 
L 244.790079 52.272191 
L 244.806823 52.129229 
L 244.821654 51.986266 
L 244.836254 51.843304 
L 244.852284 51.700341 
L 244.871352 51.557379 
L 244.894989 51.414417 
L 244.924621 51.271454 
L 244.961542 51.128492 
L 245.006878 50.985529 
L 245.061569 50.842567 
L 245.126341 50.699605 
L 245.201684 50.556642 
L 245.287842 50.41368 
L 245.384804 50.270717 
L 245.4923 50.127755 
L 245.609812 49.984793 
L 245.736585 49.84183 
L 251.726993 49.84183 
L 251.726993 49.84183 
L 251.853766 49.984793 
L 251.971278 50.127755 
L 252.078774 50.270717 
L 252.175736 50.41368 
L 252.261894 50.556642 
L 252.337237 50.699605 
L 252.402009 50.842567 
L 252.4567 50.985529 
L 252.502036 51.128492 
L 252.538956 51.271454 
L 252.568589 51.414417 
L 252.592226 51.557379 
L 252.611294 51.700341 
L 252.627324 51.843304 
L 252.641924 51.986266 
L 252.656755 52.129229 
L 252.673499 52.272191 
L 252.693842 52.415153 
L 252.719455 52.558116 
L 252.751969 52.701078 
L 252.792967 52.844041 
L 252.843965 52.987003 
L 252.906398 53.129965 
L 252.981612 53.272928 
L 253.070842 53.41589 
L 253.175207 53.558853 
L 253.29569 53.701815 
L 253.433127 53.844777 
L 253.588192 53.98774 
L 253.761381 54.130702 
L 253.953 54.273665 
L 254.163153 54.416627 
L 254.391732 54.559589 
L 254.638412 54.702552 
L 254.902647 54.845514 
L 255.183668 54.988477 
L 255.480494 55.131439 
L 255.791933 55.274401 
L 256.116603 55.417364 
L 256.452944 55.560326 
L 256.799242 55.703289 
L 257.153649 55.846251 
L 257.514207 55.989213 
L 257.878881 56.132176 
L 258.245576 56.275138 
L 258.61217 56.418101 
L 258.97654 56.561063 
L 259.33658 56.704025 
L 259.69023 56.846988 
L 260.035492 56.98995 
L 260.37045 57.132913 
L 260.693285 57.275875 
L 261.002286 57.418837 
L 261.295863 57.5618 
L 261.572554 57.704762 
L 261.831032 57.847725 
L 262.070103 57.990687 
L 262.288715 58.133649 
L 262.485948 58.276612 
L 262.66102 58.419574 
L 262.813273 58.562537 
L 262.942174 58.705499 
L 263.047304 58.848461 
L 263.12835 58.991424 
L 263.185099 59.134386 
L 263.217427 59.277349 
L 263.225295 59.420311 
L 263.208745 59.563273 
L 263.167889 59.706236 
L 263.102916 59.849198 
L 263.014087 59.992161 
L 262.901737 60.135123 
L 262.766282 60.278085 
L 262.608221 60.421048 
L 262.428141 60.56401 
L 262.226725 60.706973 
L 262.004751 60.849935 
L 261.763097 60.992897 
L 261.502743 61.13586 
L 261.224762 61.278822 
L 260.930316 61.421785 
L 260.620646 61.564747 
L 260.297062 61.707709 
L 259.960924 61.850672 
L 259.613624 61.993634 
L 259.256575 62.136597 
L 258.891188 62.279559 
L 258.518857 62.422521 
L 258.14095 62.565484 
L 257.758791 62.708446 
L 257.373659 62.851409 
L 256.986779 62.994371 
L 256.599329 63.137333 
L 256.212436 63.280296 
L 255.827188 63.423258 
L 255.444638 63.566221 
L 255.065812 63.709183 
L 254.691722 63.852145 
L 254.323366 63.995108 
z
" clip-path="url(#p629e52c27d)" style="fill: #1f77b4; fill-opacity: 0.8"/>
   </g>
   <g id="matplotlib.axis_1"/>
   <g id="matplotlib.axis_2">
    <g id="ytick_1">
     <g id="line2d_1">
      <defs>
       <path id="m6150488c20" d="M 0 0 
L -3.5 0 
"/>
      </defs>
      <g>
       <use xlink:href="#m6150488c20" x="50.17075" y="65.679375"/>
      </g>
     </g>
     <g id="text_1">
      <text style="font: 8px 'DejaVu Sans', 'Bitstream Vera Sans', 'Computer Modern Sans Serif', 'Lucida Grande', 'Verdana', 'Geneva', 'Lucid', 'Arial', 'Helvetica', 'Avant Garde', sans-serif; text-anchor: end" x="43.17075" y="68.71875" transform="rotate(-0 43.17075 68.71875)">0</text>
     </g>
    </g>
    <g id="ytick_2">
     <g id="line2d_2">
      <g>
       <use xlink:href="#m6150488c20" x="50.17075" y="37.959375"/>
      </g>
     </g>
     <g id="text_2">
      <text style="font: 8px 'DejaVu Sans', 'Bitstream Vera Sans', 'Computer Modern Sans Serif', 'Lucida Grande', 'Verdana', 'Geneva', 'Lucid', 'Arial', 'Helvetica', 'Avant Garde', sans-serif; text-anchor: end" x="43.17075" y="40.99875" transform="rotate(-0 43.17075 40.99875)">100</text>
     </g>
    </g>
    <g id="ytick_3">
     <g id="line2d_3">
      <g>
       <use xlink:href="#m6150488c20" x="50.17075" y="10.239375"/>
      </g>
     </g>
     <g id="text_3">
      <text style="font: 8px 'DejaVu Sans', 'Bitstream Vera Sans', 'Computer Modern Sans Serif', 'Lucida Grande', 'Verdana', 'Geneva', 'Lucid', 'Arial', 'Helvetica', 'Avant Garde', sans-serif; text-anchor: end" x="43.17075" y="13.27875" transform="rotate(-0 43.17075 13.27875)">200</text>
     </g>
    </g>
    <g id="text_4">
     <text style="font: 8px 'DejaVu Sans', 'Bitstream Vera Sans', 'Computer Modern Sans Serif', 'Lucida Grande', 'Verdana', 'Geneva', 'Lucid', 'Arial', 'Helvetica', 'Avant Garde', sans-serif" transform="translate(13.27875 51.8525) rotate(-90)">Cdc42 </text>
     <text style="font: 8px 'DejaVu Sans', 'Bitstream Vera Sans', 'Computer Modern Sans Serif', 'Lucida Grande', 'Verdana', 'Geneva', 'Lucid', 'Arial', 'Helvetica', 'Avant Garde', sans-serif" transform="translate(22.237 59.584375) rotate(-90)">Conc. (nM)</text>
    </g>
   </g>
   <g id="LineCollection_1">
    <path d="M 67.562958 57.835267 
L 82.056464 57.835267 
" clip-path="url(#p629e52c27d)" style="fill: none; stroke: #000000; stroke-opacity: 0.8; stroke-width: 1.5"/>
    <path d="M 125.536984 58.926932 
L 140.03049 58.926932 
" clip-path="url(#p629e52c27d)" style="fill: none; stroke: #000000; stroke-opacity: 0.8; stroke-width: 1.5"/>
    <path d="M 183.51101 58.210203 
L 198.004516 58.210203 
" clip-path="url(#p629e52c27d)" style="fill: none; stroke: #000000; stroke-opacity: 0.8; stroke-width: 1.5"/>
    <path d="M 241.485036 58.314479 
L 255.978542 58.314479 
" clip-path="url(#p629e52c27d)" style="fill: none; stroke: #000000; stroke-opacity: 0.8; stroke-width: 1.5"/>
   </g>
   <g id="patch_3">
    <path d="M 50.17075 65.679375 
L 50.17075 10.239375 
" style="fill: none; stroke: #000000; stroke-width: 0.8; stroke-linejoin: miter; stroke-linecap: square"/>
   </g>
   <g id="patch_4">
    <path d="M 50.17075 65.679375 
L 273.37075 65.679375 
" style="fill: none; stroke: #000000; stroke-width: 0.8; stroke-linejoin: miter; stroke-linecap: square"/>
   </g>
  </g>
 </g>
 <defs>
  <clipPath id="p629e52c27d">
   <rect x="50.17075" y="10.239375" width="223.2" height="55.44"/>
  </clipPath>
 </defs>
</svg>
