<?xml version="1.0" encoding="utf-8" standalone="no"?>
<!DOCTYPE svg PUBLIC "-//W3C//DTD SVG 1.1//EN"
  "http://www.w3.org/Graphics/SVG/1.1/DTD/svg11.dtd">
<svg xmlns:xlink="http://www.w3.org/1999/xlink" width="447.97075pt" height="87.621875pt" viewBox="0 0 447.97075 87.621875" xmlns="http://www.w3.org/2000/svg" version="1.1">
 <metadata>
  <rdf:RDF xmlns:dc="http://purl.org/dc/elements/1.1/" xmlns:cc="http://creativecommons.org/ns#" xmlns:rdf="http://www.w3.org/1999/02/22-rdf-syntax-ns#">
   <cc:Work>
    <dc:type rdf:resource="http://purl.org/dc/dcmitype/StillImage"/>
    <dc:date>2024-11-08T15:06:25.643402</dc:date>
    <dc:format>image/svg+xml</dc:format>
    <dc:creator>
     <cc:Agent>
      <dc:title>Matplotlib v3.7.1, https://matplotlib.org/</dc:title>
     </cc:Agent>
    </dc:creator>
   </cc:Work>
  </rdf:RDF>
 </metadata>
 <defs>
  <style type="text/css">*{stroke-linejoin: round; stroke-linecap: butt}</style>
 </defs>
 <g id="figure_1">
  <g id="patch_1">
   <path d="M 0 87.621875 
L 447.97075 87.621875 
L 447.97075 0 
L 0 0 
L 0 87.621875 
z
" style="fill: none"/>
  </g>
  <g id="axes_1">
   <g id="patch_2">
    <path d="M 50.17075 65.679375 
L 440.77075 65.679375 
L 440.77075 10.239375 
L 50.17075 10.239375 
L 50.17075 65.679375 
z
" style="fill: none"/>
   </g>
   <g id="PolyCollection_1">
    <path d="M 84.293263 68.667591 
L 83.838319 68.667591 
L 83.825734 68.427765 
L 83.818682 68.18794 
L 83.814769 67.948114 
L 83.810737 67.708289 
L 83.802869 67.468463 
L 83.787184 67.228637 
L 83.759429 66.988812 
L 83.715066 66.748986 
L 83.649471 66.509161 
L 83.558433 66.269335 
L 83.438846 66.029509 
L 83.289292 65.789684 
L 83.110219 65.549858 
L 82.90353 65.310033 
L 82.671621 65.070207 
L 82.416095 64.830381 
L 82.136437 64.590556 
L 81.828979 64.35073 
L 81.486383 64.110905 
L 81.097879 63.871079 
L 80.650397 63.631253 
L 80.130592 63.391428 
L 79.527516 63.151602 
L 78.83545 62.911777 
L 78.05623 62.671951 
L 77.20044 62.432125 
L 76.287053 62.1923 
L 75.341464 61.952474 
L 74.392238 61.712649 
L 73.467207 61.472823 
L 72.589772 61.232997 
L 71.776256 60.993172 
L 71.034983 60.753346 
L 70.367364 60.513521 
L 69.77077 60.273695 
L 69.242517 60.033869 
L 68.783964 59.794044 
L 68.403588 59.554218 
L 68.118008 59.314393 
L 67.950261 59.074567 
L 67.925295 58.834741 
L 68.063463 58.594916 
L 68.373674 58.35509 
L 68.848384 58.115265 
L 69.462325 57.875439 
L 70.175874 57.635613 
L 70.942321 57.395788 
L 71.716796 57.155962 
L 72.463967 56.916137 
L 73.162108 56.676311 
L 73.802697 56.436485 
L 74.386523 56.19666 
L 74.918518 55.956834 
L 75.403613 55.717009 
L 75.844992 55.477183 
L 76.244683 55.237357 
L 76.605425 54.997532 
L 76.932423 54.757706 
L 77.234081 54.517881 
L 77.521501 54.278055 
L 77.807094 54.038229 
L 78.102771 53.798404 
L 78.418077 53.558578 
L 78.758456 53.318753 
L 79.123829 53.078927 
L 79.507813 52.839101 
L 79.898003 52.599276 
L 80.277624 52.35945 
L 80.628446 52.119625 
L 80.934446 51.879799 
L 81.185291 51.639973 
L 81.378753 51.400148 
L 81.521387 51.160322 
L 81.627291 50.920497 
L 81.715176 50.680671 
L 81.80434 50.440845 
L 81.910372 50.20102 
L 82.041558 49.961194 
L 82.196899 49.721369 
L 82.366438 49.481543 
L 82.533979 49.241717 
L 82.68162 49.001892 
L 82.794833 48.762066 
L 82.866591 48.522241 
L 82.899277 48.282415 
L 82.903848 48.042589 
L 82.896643 47.802764 
L 82.894956 47.562938 
L 82.912801 47.323113 
L 82.958075 47.083287 
L 83.031736 46.843461 
L 83.128863 46.603636 
L 83.240953 46.36381 
L 83.358529 46.123985 
L 83.473281 45.884159 
L 83.579292 45.644333 
L 83.673303 45.404508 
L 83.754278 45.164682 
L 83.822638 44.924857 
L 84.308945 44.924857 
L 84.308945 44.924857 
L 84.377304 45.164682 
L 84.45828 45.404508 
L 84.552291 45.644333 
L 84.658302 45.884159 
L 84.773054 46.123985 
L 84.89063 46.36381 
L 85.00272 46.603636 
L 85.099847 46.843461 
L 85.173507 47.083287 
L 85.218782 47.323113 
L 85.236627 47.562938 
L 85.23494 47.802764 
L 85.227735 48.042589 
L 85.232305 48.282415 
L 85.264991 48.522241 
L 85.33675 48.762066 
L 85.449963 49.001892 
L 85.597604 49.241717 
L 85.765145 49.481543 
L 85.934683 49.721369 
L 86.090025 49.961194 
L 86.22121 50.20102 
L 86.327243 50.440845 
L 86.416406 50.680671 
L 86.504291 50.920497 
L 86.610196 51.160322 
L 86.75283 51.400148 
L 86.946292 51.639973 
L 87.197137 51.879799 
L 87.503136 52.119625 
L 87.853959 52.35945 
L 88.233579 52.599276 
L 88.62377 52.839101 
L 89.007753 53.078927 
L 89.373126 53.318753 
L 89.713506 53.558578 
L 90.028812 53.798404 
L 90.324488 54.038229 
L 90.610081 54.278055 
L 90.897502 54.517881 
L 91.199159 54.757706 
L 91.526157 54.997532 
L 91.8869 55.237357 
L 92.286591 55.477183 
L 92.72797 55.717009 
L 93.213065 55.956834 
L 93.745059 56.19666 
L 94.328885 56.436485 
L 94.969474 56.676311 
L 95.667615 56.916137 
L 96.414787 57.155962 
L 97.189262 57.395788 
L 97.955709 57.635613 
L 98.669258 57.875439 
L 99.283198 58.115265 
L 99.757908 58.35509 
L 100.06812 58.594916 
L 100.206287 58.834741 
L 100.181322 59.074567 
L 100.013575 59.314393 
L 99.727994 59.554218 
L 99.347619 59.794044 
L 98.889066 60.033869 
L 98.360812 60.273695 
L 97.764218 60.513521 
L 97.0966 60.753346 
L 96.355327 60.993172 
L 95.54181 61.232997 
L 94.664375 61.472823 
L 93.739345 61.712649 
L 92.790118 61.952474 
L 91.84453 62.1923 
L 90.931142 62.432125 
L 90.075353 62.671951 
L 89.296133 62.911777 
L 88.604066 63.151602 
L 88.00099 63.391428 
L 87.481186 63.631253 
L 87.033704 63.871079 
L 86.6452 64.110905 
L 86.302603 64.35073 
L 85.995146 64.590556 
L 85.715488 64.830381 
L 85.459961 65.070207 
L 85.228053 65.310033 
L 85.021364 65.549858 
L 84.842291 65.789684 
L 84.692737 66.029509 
L 84.573149 66.269335 
L 84.482112 66.509161 
L 84.416516 66.748986 
L 84.372154 66.988812 
L 84.344398 67.228637 
L 84.328713 67.468463 
L 84.320846 67.708289 
L 84.316813 67.948114 
L 84.3129 68.18794 
L 84.305848 68.427765 
L 84.293263 68.667591 
z
" clip-path="url(#p71f5b626a5)" style="fill: #1f77b4; fill-opacity: 0.8"/>
   </g>
   <g id="PolyCollection_2">
    <path d="M 149.564936 68.667591 
L 147.690613 68.667591 
L 147.590947 68.431881 
L 147.489837 68.196172 
L 147.380649 67.960462 
L 147.256592 67.724753 
L 147.112495 67.489043 
L 146.946118 67.253333 
L 146.758584 67.017624 
L 146.553879 66.781914 
L 146.337585 66.546205 
L 146.11525 66.310495 
L 145.890826 66.074785 
L 145.665533 65.839076 
L 145.437322 65.603366 
L 145.200976 65.367657 
L 144.948726 65.131947 
L 144.671178 64.896237 
L 144.358366 64.660528 
L 144.000742 64.424818 
L 143.589996 64.189109 
L 143.119676 63.953399 
L 142.585595 63.717689 
L 141.986125 63.48198 
L 141.322424 63.24627 
L 140.598688 63.010561 
L 139.822455 62.774851 
L 139.004923 62.539141 
L 138.161142 62.303432 
L 137.309874 62.067722 
L 136.472892 61.832013 
L 135.673596 61.596303 
L 134.935008 61.360593 
L 134.277463 61.124884 
L 133.716504 60.889174 
L 133.261508 60.653465 
L 132.915415 60.417755 
L 132.675606 60.182045 
L 132.53563 59.946336 
L 132.487279 59.710626 
L 132.522454 59.474917 
L 132.634487 59.239207 
L 132.818797 59.003497 
L 133.072983 58.767788 
L 133.396528 58.532078 
L 133.790177 58.296369 
L 134.254992 58.060659 
L 134.791045 57.824949 
L 135.395827 57.58924 
L 136.062677 57.35353 
L 136.779719 57.117821 
L 137.529784 56.882111 
L 138.291592 56.646401 
L 139.042064 56.410692 
L 139.759276 56.174982 
L 140.425312 55.939273 
L 141.028333 55.703563 
L 141.563384 55.467853 
L 142.031896 55.232144 
L 142.440154 54.996434 
L 142.797268 54.760725 
L 143.113209 54.525015 
L 143.397364 54.289305 
L 143.657806 54.053596 
L 143.90122 53.817886 
L 144.13322 53.582177 
L 144.358724 53.346467 
L 144.582115 53.110757 
L 144.807049 52.875048 
L 145.035975 52.639338 
L 145.26955 52.403629 
L 145.506185 52.167919 
L 145.74195 51.932209 
L 145.97093 51.6965 
L 146.186043 51.46079 
L 146.380185 51.225081 
L 146.547502 50.989371 
L 146.68454 50.753661 
L 146.791041 50.517952 
L 146.870208 50.282242 
L 146.928348 50.046533 
L 146.973951 49.810823 
L 147.016356 49.575113 
L 147.064285 49.339404 
L 147.124513 49.103694 
L 147.200945 48.867985 
L 147.29424 48.632275 
L 147.402006 48.396565 
L 147.519463 48.160856 
L 147.640415 47.925146 
L 147.758316 47.689437 
L 147.867295 47.453727 
L 147.96297 47.218017 
L 148.042985 46.982308 
L 148.107205 46.746598 
L 148.157535 46.510889 
L 148.197406 46.275179 
L 148.231004 46.039469 
L 148.262408 45.80376 
L 148.294815 45.56805 
L 148.330034 45.332341 
L 148.925515 45.332341 
L 148.925515 45.332341 
L 148.960734 45.56805 
L 148.993142 45.80376 
L 149.024546 46.039469 
L 149.058144 46.275179 
L 149.098015 46.510889 
L 149.148345 46.746598 
L 149.212565 46.982308 
L 149.29258 47.218017 
L 149.388254 47.453727 
L 149.497233 47.689437 
L 149.615135 47.925146 
L 149.736086 48.160856 
L 149.853544 48.396565 
L 149.96131 48.632275 
L 150.054605 48.867985 
L 150.131037 49.103694 
L 150.191264 49.339404 
L 150.239193 49.575113 
L 150.281599 49.810823 
L 150.327201 50.046533 
L 150.385342 50.282242 
L 150.464508 50.517952 
L 150.57101 50.753661 
L 150.708048 50.989371 
L 150.875365 51.225081 
L 151.069507 51.46079 
L 151.28462 51.6965 
L 151.5136 51.932209 
L 151.749364 52.167919 
L 151.986 52.403629 
L 152.219575 52.639338 
L 152.448501 52.875048 
L 152.673435 53.110757 
L 152.896825 53.346467 
L 153.122329 53.582177 
L 153.354329 53.817886 
L 153.597744 54.053596 
L 153.858186 54.289305 
L 154.142341 54.525015 
L 154.458281 54.760725 
L 154.815395 54.996434 
L 155.223654 55.232144 
L 155.692166 55.467853 
L 156.227217 55.703563 
L 156.830238 55.939273 
L 157.496274 56.174982 
L 158.213485 56.410692 
L 158.963957 56.646401 
L 159.725766 56.882111 
L 160.475831 57.117821 
L 161.192873 57.35353 
L 161.859723 57.58924 
L 162.464504 57.824949 
L 163.000558 58.060659 
L 163.465373 58.296369 
L 163.859021 58.532078 
L 164.182566 58.767788 
L 164.436753 59.003497 
L 164.621062 59.239207 
L 164.733095 59.474917 
L 164.768271 59.710626 
L 164.719919 59.946336 
L 164.579944 60.182045 
L 164.340134 60.417755 
L 163.994042 60.653465 
L 163.539046 60.889174 
L 162.978087 61.124884 
L 162.320542 61.360593 
L 161.581953 61.596303 
L 160.782657 61.832013 
L 159.945675 62.067722 
L 159.094407 62.303432 
L 158.250627 62.539141 
L 157.433095 62.774851 
L 156.656862 63.010561 
L 155.933126 63.24627 
L 155.269424 63.48198 
L 154.669955 63.717689 
L 154.135874 63.953399 
L 153.665553 64.189109 
L 153.254808 64.424818 
L 152.897183 64.660528 
L 152.584371 64.896237 
L 152.306823 65.131947 
L 152.054573 65.367657 
L 151.818228 65.603366 
L 151.590016 65.839076 
L 151.364723 66.074785 
L 151.1403 66.310495 
L 150.917964 66.546205 
L 150.70167 66.781914 
L 150.496966 67.017624 
L 150.309432 67.253333 
L 150.143054 67.489043 
L 149.998958 67.724753 
L 149.8749 67.960462 
L 149.765712 68.196172 
L 149.664603 68.431881 
L 149.564936 68.667591 
z
" clip-path="url(#p71f5b626a5)" style="fill: #1f77b4; fill-opacity: 0.8"/>
   </g>
   <g id="PolyCollection_3">
    <path d="M 215.181817 68.667591 
L 211.197699 68.667591 
L 211.078608 68.440388 
L 210.957354 68.213185 
L 210.830616 67.985981 
L 210.694528 67.758778 
L 210.5449 67.531575 
L 210.37747 67.304372 
L 210.188162 67.077169 
L 209.973324 66.849965 
L 209.729936 66.622762 
L 209.455763 66.395559 
L 209.149454 66.168356 
L 208.810572 65.941153 
L 208.43958 65.713949 
L 208.037766 65.486746 
L 207.607144 65.259543 
L 207.150329 65.03234 
L 206.670413 64.805137 
L 206.17084 64.577933 
L 205.655299 64.35073 
L 205.127629 64.123527 
L 204.591754 63.896324 
L 204.051616 63.669121 
L 203.511128 63.441917 
L 202.974127 63.214714 
L 202.444328 62.987511 
L 201.925265 62.760308 
L 201.420248 62.533105 
L 200.932305 62.305901 
L 200.464147 62.078698 
L 200.018145 61.851495 
L 199.596345 61.624292 
L 199.200503 61.397089 
L 198.83217 61.169885 
L 198.492794 60.942682 
L 198.183851 60.715479 
L 197.906973 60.488276 
L 197.664064 60.261073 
L 197.457373 60.033869 
L 197.289516 59.806666 
L 197.163437 59.579463 
L 197.08229 59.35226 
L 197.049262 59.125057 
L 197.06735 58.897853 
L 197.139104 58.67065 
L 197.266376 58.443447 
L 197.450089 58.216244 
L 197.690068 57.989041 
L 197.984931 57.761837 
L 198.332059 57.534634 
L 198.727659 57.307431 
L 199.166877 57.080228 
L 199.643992 56.853025 
L 200.152622 56.625821 
L 200.685958 56.398618 
L 201.23699 56.171415 
L 201.798703 55.944212 
L 202.364244 55.717009 
L 202.927048 55.489805 
L 203.480924 55.262602 
L 204.020116 55.035399 
L 204.539329 54.808196 
L 205.033758 54.580993 
L 205.4991 54.353789 
L 205.931593 54.126586 
L 206.328047 53.899383 
L 206.685907 53.67218 
L 207.003316 53.444977 
L 207.279197 53.217773 
L 207.51332 52.99057 
L 207.706366 52.763367 
L 207.85997 52.536164 
L 207.97672 52.308961 
L 208.060133 52.081757 
L 208.114573 51.854554 
L 208.145129 51.627351 
L 208.15745 51.400148 
L 208.157543 51.172945 
L 208.151551 50.945741 
L 208.145508 50.718538 
L 208.14511 50.491335 
L 208.155493 50.264132 
L 208.181047 50.036929 
L 208.225275 49.809725 
L 208.290696 49.582522 
L 208.378815 49.355319 
L 208.490131 49.128116 
L 208.624213 48.900913 
L 208.779805 48.673709 
L 208.954968 48.446506 
L 209.14724 48.219303 
L 209.353797 47.9921 
L 209.571615 47.764897 
L 209.797608 47.537693 
L 210.028749 47.31049 
L 210.262157 47.083287 
L 210.495163 46.856084 
L 210.725344 46.628881 
L 210.95054 46.401677 
L 211.168851 46.174474 
L 215.210666 46.174474 
L 215.210666 46.174474 
L 215.428977 46.401677 
L 215.654172 46.628881 
L 215.884353 46.856084 
L 216.11736 47.083287 
L 216.350768 47.31049 
L 216.581909 47.537693 
L 216.807902 47.764897 
L 217.025719 47.9921 
L 217.232276 48.219303 
L 217.424548 48.446506 
L 217.599712 48.673709 
L 217.755304 48.900913 
L 217.889386 49.128116 
L 218.000702 49.355319 
L 218.08882 49.582522 
L 218.154242 49.809725 
L 218.19847 50.036929 
L 218.224024 50.264132 
L 218.234406 50.491335 
L 218.234008 50.718538 
L 218.227966 50.945741 
L 218.221973 51.172945 
L 218.222067 51.400148 
L 218.234388 51.627351 
L 218.264943 51.854554 
L 218.319383 52.081757 
L 218.402797 52.308961 
L 218.519547 52.536164 
L 218.67315 52.763367 
L 218.866197 52.99057 
L 219.10032 53.217773 
L 219.3762 53.444977 
L 219.69361 53.67218 
L 220.051469 53.899383 
L 220.447924 54.126586 
L 220.880416 54.353789 
L 221.345759 54.580993 
L 221.840187 54.808196 
L 222.3594 55.035399 
L 222.898592 55.262602 
L 223.452469 55.489805 
L 224.015272 55.717009 
L 224.580813 55.944212 
L 225.142526 56.171415 
L 225.693558 56.398618 
L 226.226895 56.625821 
L 226.735524 56.853025 
L 227.212639 57.080228 
L 227.651858 57.307431 
L 228.047457 57.534634 
L 228.394586 57.761837 
L 228.689448 57.989041 
L 228.929428 58.216244 
L 229.113141 58.443447 
L 229.240412 58.67065 
L 229.312166 58.897853 
L 229.330254 59.125057 
L 229.297227 59.35226 
L 229.216079 59.579463 
L 229.090001 59.806666 
L 228.922144 60.033869 
L 228.715452 60.261073 
L 228.472543 60.488276 
L 228.195666 60.715479 
L 227.886723 60.942682 
L 227.547347 61.169885 
L 227.179013 61.397089 
L 226.783172 61.624292 
L 226.361371 61.851495 
L 225.91537 62.078698 
L 225.447211 62.305901 
L 224.959268 62.533105 
L 224.454251 62.760308 
L 223.935189 62.987511 
L 223.405389 63.214714 
L 222.868389 63.441917 
L 222.327901 63.669121 
L 221.787763 63.896324 
L 221.251887 64.123527 
L 220.724218 64.35073 
L 220.208676 64.577933 
L 219.709103 64.805137 
L 219.229187 65.03234 
L 218.772373 65.259543 
L 218.34175 65.486746 
L 217.939936 65.713949 
L 217.568944 65.941153 
L 217.230063 66.168356 
L 216.923753 66.395559 
L 216.649581 66.622762 
L 216.406192 66.849965 
L 216.191354 67.077169 
L 216.002046 67.304372 
L 215.834616 67.531575 
L 215.684988 67.758778 
L 215.5489 67.985981 
L 215.422162 68.213185 
L 215.300909 68.440388 
L 215.181817 68.667591 
z
" clip-path="url(#p71f5b626a5)" style="fill: #1f77b4; fill-opacity: 0.8"/>
   </g>
   <g id="PolyCollection_4">
    <path d="M 283.978726 63.995108 
L 271.524758 63.995108 
L 271.114543 63.852145 
L 270.697943 63.709183 
L 270.276069 63.566221 
L 269.850048 63.423258 
L 269.421021 63.280296 
L 268.990164 63.137333 
L 268.558685 62.994371 
L 268.127842 62.851409 
L 267.698944 62.708446 
L 267.273358 62.565484 
L 266.852506 62.422521 
L 266.437866 62.279559 
L 266.030957 62.136597 
L 265.633335 61.993634 
L 265.246569 61.850672 
L 264.872233 61.707709 
L 264.511878 61.564747 
L 264.167019 61.421785 
L 263.839113 61.278822 
L 263.529543 61.13586 
L 263.239603 60.992897 
L 262.970489 60.849935 
L 262.723291 60.706973 
L 262.498986 60.56401 
L 262.298442 60.421048 
L 262.12242 60.278085 
L 261.971572 60.135123 
L 261.846456 59.992161 
L 261.747532 59.849198 
L 261.675176 59.706236 
L 261.629677 59.563273 
L 261.611246 59.420311 
L 261.620009 59.277349 
L 261.656011 59.134386 
L 261.719208 58.991424 
L 261.809464 58.848461 
L 261.92654 58.705499 
L 262.070089 58.562537 
L 262.239644 58.419574 
L 262.43461 58.276612 
L 262.654256 58.133649 
L 262.89771 57.990687 
L 263.163949 57.847725 
L 263.451798 57.704762 
L 263.759932 57.5618 
L 264.08687 57.418837 
L 264.430985 57.275875 
L 264.790505 57.132913 
L 265.163527 56.98995 
L 265.548024 56.846988 
L 265.941861 56.704025 
L 266.342815 56.561063 
L 266.74859 56.418101 
L 267.156843 56.275138 
L 267.565208 56.132176 
L 267.971321 55.989213 
L 268.372853 55.846251 
L 268.767532 55.703289 
L 269.153183 55.560326 
L 269.527745 55.417364 
L 269.889309 55.274401 
L 270.236139 55.131439 
L 270.566694 54.988477 
L 270.87965 54.845514 
L 271.173911 54.702552 
L 271.448623 54.559589 
L 271.703178 54.416627 
L 271.937211 54.273665 
L 272.150605 54.130702 
L 272.343474 53.98774 
L 272.51616 53.844777 
L 272.669216 53.701815 
L 272.80339 53.558853 
L 272.919615 53.41589 
L 273.018985 53.272928 
L 273.102745 53.129965 
L 273.172273 52.987003 
L 273.229066 52.844041 
L 273.274723 52.701078 
L 273.310932 52.558116 
L 273.339455 52.415153 
L 273.362111 52.272191 
L 273.380757 52.129229 
L 273.397273 51.986266 
L 273.413533 51.843304 
L 273.431384 51.700341 
L 273.452619 51.557379 
L 273.478942 51.414417 
L 273.511942 51.271454 
L 273.553057 51.128492 
L 273.603545 50.985529 
L 273.664452 50.842567 
L 273.736583 50.699605 
L 273.820488 50.556642 
L 273.916437 50.41368 
L 274.024417 50.270717 
L 274.144129 50.127755 
L 274.274994 49.984793 
L 274.416174 49.84183 
L 281.08731 49.84183 
L 281.08731 49.84183 
L 281.228489 49.984793 
L 281.359355 50.127755 
L 281.479066 50.270717 
L 281.587046 50.41368 
L 281.682995 50.556642 
L 281.7669 50.699605 
L 281.839032 50.842567 
L 281.899938 50.985529 
L 281.950426 51.128492 
L 281.991542 51.271454 
L 282.024542 51.414417 
L 282.050865 51.557379 
L 282.072099 51.700341 
L 282.089951 51.843304 
L 282.106211 51.986266 
L 282.122726 52.129229 
L 282.141373 52.272191 
L 282.164028 52.415153 
L 282.192551 52.558116 
L 282.22876 52.701078 
L 282.274417 52.844041 
L 282.33121 52.987003 
L 282.400739 53.129965 
L 282.484499 53.272928 
L 282.583869 53.41589 
L 282.700093 53.558853 
L 282.834268 53.701815 
L 282.987323 53.844777 
L 283.160009 53.98774 
L 283.352879 54.130702 
L 283.566272 54.273665 
L 283.800306 54.416627 
L 284.05486 54.559589 
L 284.329572 54.702552 
L 284.623834 54.845514 
L 284.936789 54.988477 
L 285.267345 55.131439 
L 285.614174 55.274401 
L 285.975739 55.417364 
L 286.350301 55.560326 
L 286.735951 55.703289 
L 287.130631 55.846251 
L 287.532162 55.989213 
L 287.938276 56.132176 
L 288.34664 56.275138 
L 288.754894 56.418101 
L 289.160669 56.561063 
L 289.561622 56.704025 
L 289.95546 56.846988 
L 290.339956 56.98995 
L 290.712978 57.132913 
L 291.072498 57.275875 
L 291.416613 57.418837 
L 291.743551 57.5618 
L 292.051685 57.704762 
L 292.339535 57.847725 
L 292.605773 57.990687 
L 292.849227 58.133649 
L 293.068874 58.276612 
L 293.26384 58.419574 
L 293.433394 58.562537 
L 293.576943 58.705499 
L 293.69402 58.848461 
L 293.784276 58.991424 
L 293.847473 59.134386 
L 293.883475 59.277349 
L 293.892238 59.420311 
L 293.873806 59.563273 
L 293.828308 59.706236 
L 293.755951 59.849198 
L 293.657028 59.992161 
L 293.531911 60.135123 
L 293.381064 60.278085 
L 293.205041 60.421048 
L 293.004498 60.56401 
L 292.780193 60.706973 
L 292.532994 60.849935 
L 292.263881 60.992897 
L 291.973941 61.13586 
L 291.664371 61.278822 
L 291.336464 61.421785 
L 290.991606 61.564747 
L 290.631251 61.707709 
L 290.256914 61.850672 
L 289.870149 61.993634 
L 289.472526 62.136597 
L 289.065618 62.279559 
L 288.650977 62.422521 
L 288.230126 62.565484 
L 287.80454 62.708446 
L 287.375642 62.851409 
L 286.944799 62.994371 
L 286.51332 63.137333 
L 286.082462 63.280296 
L 285.653436 63.423258 
L 285.227414 63.566221 
L 284.805541 63.709183 
L 284.38894 63.852145 
L 283.978726 63.995108 
z
" clip-path="url(#p71f5b626a5)" style="fill: #1f77b4; fill-opacity: 0.8"/>
   </g>
   <g id="PolyCollection_5">
    <path d="M 343.647871 52.938709 
L 340.97958 52.938709 
L 340.755971 52.263136 
L 340.517581 51.587563 
L 340.267685 50.91199 
L 340.010026 50.236417 
L 339.74855 49.560845 
L 339.487094 48.885272 
L 339.229057 48.209699 
L 338.977103 47.534126 
L 338.732943 46.858553 
L 338.497223 46.182981 
L 338.269566 45.507408 
L 338.04874 44.831835 
L 337.832944 44.156262 
L 337.620157 43.480689 
L 337.408493 42.805117 
L 337.196479 42.129544 
L 336.983215 41.453971 
L 336.768376 40.778398 
L 336.552043 40.102825 
L 336.334405 39.427253 
L 336.115379 38.75168 
L 335.894226 38.076107 
L 335.669245 37.400534 
L 335.437612 36.724961 
L 335.19541 36.049389 
L 334.937867 35.373816 
L 334.659774 34.698243 
L 334.356037 34.02267 
L 334.022272 33.347097 
L 333.655379 32.671525 
L 333.253992 31.995952 
L 332.818756 31.320379 
L 332.352387 30.644806 
L 331.859523 29.969233 
L 331.346392 29.293661 
L 330.820366 28.618088 
L 330.289471 27.942515 
L 329.761935 27.266942 
L 329.24584 26.591369 
L 328.748898 25.915797 
L 328.278364 25.240224 
L 327.841041 24.564651 
L 327.443315 23.889078 
L 327.091157 23.213505 
L 326.790037 22.537933 
L 326.544713 21.86236 
L 326.358922 21.186787 
L 326.235006 20.511214 
L 326.173568 19.835641 
L 326.173229 19.160069 
L 326.230585 18.484496 
L 326.340381 17.808923 
L 326.495931 17.13335 
L 326.689713 16.457777 
L 326.914076 15.782205 
L 327.161933 15.106632 
L 327.42734 14.431059 
L 327.705883 13.755486 
L 327.994814 13.079913 
L 328.292942 12.404341 
L 328.600324 11.728768 
L 328.917827 11.053195 
L 329.246656 10.377622 
L 329.58794 9.702049 
L 329.942429 9.026477 
L 330.310359 8.350904 
L 330.69146 7.675331 
L 331.085088 6.999758 
L 331.490412 6.324185 
L 331.906599 5.648613 
L 332.332936 4.97304 
L 332.768854 4.297467 
L 333.213838 3.621894 
L 333.66725 2.946321 
L 334.128095 2.270749 
L 334.594803 1.595176 
L 335.065053 0.919603 
L 335.535722 0.24403 
L 336.002949 -0.431543 
L 336.462336 -1.107115 
L 336.909249 -1.782688 
L 337.339186 -2.458261 
L 337.748151 -3.133834 
L 338.13298 -3.809407 
L 338.491576 -4.484979 
L 338.823022 -5.160552 
L 339.127567 -5.836125 
L 339.40648 -6.511698 
L 339.661828 -7.187271 
L 339.896181 -7.862843 
L 340.112315 -8.538416 
L 340.312931 -9.213989 
L 340.500434 -9.889562 
L 340.67678 -10.565135 
L 340.843396 -11.240707 
L 341.001178 -11.91628 
L 341.150538 -12.591853 
L 341.291497 -13.267426 
L 341.423788 -13.942999 
L 343.203662 -13.942999 
L 343.203662 -13.942999 
L 343.335953 -13.267426 
L 343.476912 -12.591853 
L 343.626273 -11.91628 
L 343.784055 -11.240707 
L 343.950671 -10.565135 
L 344.127016 -9.889562 
L 344.314519 -9.213989 
L 344.515135 -8.538416 
L 344.731269 -7.862843 
L 344.965622 -7.187271 
L 345.22097 -6.511698 
L 345.499884 -5.836125 
L 345.804428 -5.160552 
L 346.135875 -4.484979 
L 346.494471 -3.809407 
L 346.8793 -3.133834 
L 347.288265 -2.458261 
L 347.718202 -1.782688 
L 348.165114 -1.107115 
L 348.624501 -0.431543 
L 349.091728 0.24403 
L 349.562398 0.919603 
L 350.032648 1.595176 
L 350.499355 2.270749 
L 350.960201 2.946321 
L 351.413612 3.621894 
L 351.858597 4.297467 
L 352.294514 4.97304 
L 352.720852 5.648613 
L 353.137038 6.324185 
L 353.542362 6.999758 
L 353.93599 7.675331 
L 354.317092 8.350904 
L 354.685022 9.026477 
L 355.039511 9.702049 
L 355.380794 10.377622 
L 355.709624 11.053195 
L 356.027127 11.728768 
L 356.334509 12.404341 
L 356.632637 13.079913 
L 356.921567 13.755486 
L 357.20011 14.431059 
L 357.465518 15.106632 
L 357.713374 15.782205 
L 357.937738 16.457777 
L 358.13152 17.13335 
L 358.287069 17.808923 
L 358.396865 18.484496 
L 358.454221 19.160069 
L 358.453883 19.835641 
L 358.392444 20.511214 
L 358.268529 21.186787 
L 358.082737 21.86236 
L 357.837414 22.537933 
L 357.536293 23.213505 
L 357.184135 23.889078 
L 356.786409 24.564651 
L 356.349086 25.240224 
L 355.878553 25.915797 
L 355.38161 26.591369 
L 354.865515 27.266942 
L 354.337979 27.942515 
L 353.807084 28.618088 
L 353.281058 29.293661 
L 352.767928 29.969233 
L 352.275064 30.644806 
L 351.808695 31.320379 
L 351.373459 31.995952 
L 350.972072 32.671525 
L 350.605179 33.347097 
L 350.271414 34.02267 
L 349.967676 34.698243 
L 349.689584 35.373816 
L 349.432041 36.049389 
L 349.189839 36.724961 
L 348.958205 37.400534 
L 348.733224 38.076107 
L 348.512072 38.75168 
L 348.293046 39.427253 
L 348.075408 40.102825 
L 347.859075 40.778398 
L 347.644235 41.453971 
L 347.430972 42.129544 
L 347.218957 42.805117 
L 347.007293 43.480689 
L 346.794507 44.156262 
L 346.57871 44.831835 
L 346.357884 45.507408 
L 346.130227 46.182981 
L 345.894508 46.858553 
L 345.650347 47.534126 
L 345.398394 48.209699 
L 345.140356 48.885272 
L 344.8789 49.560845 
L 344.617424 50.236417 
L 344.359765 50.91199 
L 344.10987 51.587563 
L 343.87148 52.263136 
L 343.647871 52.938709 
z
" clip-path="url(#p71f5b626a5)" style="fill: #d62728; fill-opacity: 0.8"/>
   </g>
   <g id="PolyCollection_6">
    <path d="M 423.016205 93.399375 
L 390.735213 93.399375 
L 390.735213 93.399375 
L 390.735213 93.399375 
L 390.735213 93.399375 
L 390.735213 93.399375 
L 390.735213 93.399375 
L 390.735213 93.399375 
L 390.735213 93.399375 
L 390.735213 93.399375 
L 390.735213 93.399375 
L 390.735213 93.399375 
L 390.735213 93.399375 
L 390.735213 93.399375 
L 390.735213 93.399375 
L 390.735213 93.399375 
L 390.735213 93.399375 
L 390.735213 93.399375 
L 390.735213 93.399375 
L 390.735213 93.399375 
L 390.735213 93.399375 
L 390.735213 93.399375 
L 390.735213 93.399375 
L 390.735213 93.399375 
L 390.735213 93.399375 
L 390.735213 93.399375 
L 390.735213 93.399375 
L 390.735213 93.399375 
L 390.735213 93.399375 
L 390.735213 93.399375 
L 390.735213 93.399375 
L 390.735213 93.399375 
L 390.735213 93.399375 
L 390.735213 93.399375 
L 390.735213 93.399375 
L 390.735213 93.399375 
L 390.735213 93.399375 
L 390.735213 93.399375 
L 390.735213 93.399375 
L 390.735213 93.399375 
L 390.735213 93.399375 
L 390.735213 93.399375 
L 390.735213 93.399375 
L 390.735213 93.399375 
L 390.735213 93.399375 
L 390.735213 93.399375 
L 390.735213 93.399375 
L 390.735213 93.399375 
L 390.735213 93.399375 
L 390.735213 93.399375 
L 390.735213 93.399375 
L 390.735213 93.399375 
L 390.735213 93.399375 
L 390.735213 93.399375 
L 390.735213 93.399375 
L 390.735213 93.399375 
L 390.735213 93.399375 
L 390.735213 93.399375 
L 390.735213 93.399375 
L 390.735213 93.399375 
L 390.735213 93.399375 
L 390.735213 93.399375 
L 390.735213 93.399375 
L 390.735213 93.399375 
L 390.735213 93.399375 
L 390.735213 93.399375 
L 390.735213 93.399375 
L 390.735213 93.399375 
L 390.735213 93.399375 
L 390.735213 93.399375 
L 390.735213 93.399375 
L 390.735213 93.399375 
L 390.735213 93.399375 
L 390.735213 93.399375 
L 390.735213 93.399375 
L 390.735213 93.399375 
L 390.735213 93.399375 
L 390.735213 93.399375 
L 390.735213 93.399375 
L 390.735213 93.399375 
L 390.735213 93.399375 
L 390.735213 93.399375 
L 390.735213 93.399375 
L 390.735213 93.399375 
L 390.735213 93.399375 
L 390.735213 93.399375 
L 390.735213 93.399375 
L 390.735213 93.399375 
L 390.735213 93.399375 
L 390.735213 93.399375 
L 390.735213 93.399375 
L 390.735213 93.399375 
L 390.735213 93.399375 
L 390.735213 93.399375 
L 390.735213 93.399375 
L 390.735213 93.399375 
L 390.735213 93.399375 
L 390.735213 93.399375 
L 390.735213 93.399375 
L 390.735213 93.399375 
L 390.735213 93.399375 
L 423.016205 93.399375 
L 423.016205 93.399375 
L 423.016205 93.399375 
L 423.016205 93.399375 
L 423.016205 93.399375 
L 423.016205 93.399375 
L 423.016205 93.399375 
L 423.016205 93.399375 
L 423.016205 93.399375 
L 423.016205 93.399375 
L 423.016205 93.399375 
L 423.016205 93.399375 
L 423.016205 93.399375 
L 423.016205 93.399375 
L 423.016205 93.399375 
L 423.016205 93.399375 
L 423.016205 93.399375 
L 423.016205 93.399375 
L 423.016205 93.399375 
L 423.016205 93.399375 
L 423.016205 93.399375 
L 423.016205 93.399375 
L 423.016205 93.399375 
L 423.016205 93.399375 
L 423.016205 93.399375 
L 423.016205 93.399375 
L 423.016205 93.399375 
L 423.016205 93.399375 
L 423.016205 93.399375 
L 423.016205 93.399375 
L 423.016205 93.399375 
L 423.016205 93.399375 
L 423.016205 93.399375 
L 423.016205 93.399375 
L 423.016205 93.399375 
L 423.016205 93.399375 
L 423.016205 93.399375 
L 423.016205 93.399375 
L 423.016205 93.399375 
L 423.016205 93.399375 
L 423.016205 93.399375 
L 423.016205 93.399375 
L 423.016205 93.399375 
L 423.016205 93.399375 
L 423.016205 93.399375 
L 423.016205 93.399375 
L 423.016205 93.399375 
L 423.016205 93.399375 
L 423.016205 93.399375 
L 423.016205 93.399375 
L 423.016205 93.399375 
L 423.016205 93.399375 
L 423.016205 93.399375 
L 423.016205 93.399375 
L 423.016205 93.399375 
L 423.016205 93.399375 
L 423.016205 93.399375 
L 423.016205 93.399375 
L 423.016205 93.399375 
L 423.016205 93.399375 
L 423.016205 93.399375 
L 423.016205 93.399375 
L 423.016205 93.399375 
L 423.016205 93.399375 
L 423.016205 93.399375 
L 423.016205 93.399375 
L 423.016205 93.399375 
L 423.016205 93.399375 
L 423.016205 93.399375 
L 423.016205 93.399375 
L 423.016205 93.399375 
L 423.016205 93.399375 
L 423.016205 93.399375 
L 423.016205 93.399375 
L 423.016205 93.399375 
L 423.016205 93.399375 
L 423.016205 93.399375 
L 423.016205 93.399375 
L 423.016205 93.399375 
L 423.016205 93.399375 
L 423.016205 93.399375 
L 423.016205 93.399375 
L 423.016205 93.399375 
L 423.016205 93.399375 
L 423.016205 93.399375 
L 423.016205 93.399375 
L 423.016205 93.399375 
L 423.016205 93.399375 
L 423.016205 93.399375 
L 423.016205 93.399375 
L 423.016205 93.399375 
L 423.016205 93.399375 
L 423.016205 93.399375 
L 423.016205 93.399375 
L 423.016205 93.399375 
L 423.016205 93.399375 
L 423.016205 93.399375 
L 423.016205 93.399375 
L 423.016205 93.399375 
L 423.016205 93.399375 
L 423.016205 93.399375 
z
" clip-path="url(#p71f5b626a5)" style="fill: #1f77b4; fill-opacity: 0.8"/>
   </g>
   <g id="matplotlib.axis_1">
    <g id="xtick_1">
     <g id="line2d_1">
      <defs>
       <path id="m6e16914a9f" d="M 0 0 
L 0 3.5 
"/>
      </defs>
      <g>
       <use xlink:href="#m6e16914a9f" x="180.908767" y="65.679375"/>
      </g>
     </g>
     <g id="text_1">
      <text style="font: 8px 'DejaVu Sans', 'Bitstream Vera Sans', 'Computer Modern Sans Serif', 'Lucida Grande', 'Verdana', 'Geneva', 'Lucid', 'Arial', 'Helvetica', 'Avant Garde', sans-serif; text-anchor: middle" x="180.908767" y="78.758125" transform="rotate(-0 180.908767 78.758125)">ApCdc42</text>
     </g>
    </g>
    <g id="xtick_2">
     <g id="line2d_2">
      <g>
       <use xlink:href="#m6e16914a9f" x="342.313725" y="65.679375"/>
      </g>
     </g>
     <g id="text_2">
      <text style="font: 8px 'DejaVu Sans', 'Bitstream Vera Sans', 'Computer Modern Sans Serif', 'Lucida Grande', 'Verdana', 'Geneva', 'Lucid', 'Arial', 'Helvetica', 'Avant Garde', sans-serif; text-anchor: middle" x="342.313725" y="78.758125" transform="rotate(-0 342.313725 78.758125)">ScCdc42</text>
     </g>
    </g>
   </g>
   <g id="matplotlib.axis_2">
    <g id="ytick_1">
     <g id="line2d_3">
      <defs>
       <path id="m13a31ecf6a" d="M 0 0 
L -3.5 0 
"/>
      </defs>
      <g>
       <use xlink:href="#m13a31ecf6a" x="50.17075" y="65.679375"/>
      </g>
     </g>
     <g id="text_3">
      <text style="font: 8px 'DejaVu Sans', 'Bitstream Vera Sans', 'Computer Modern Sans Serif', 'Lucida Grande', 'Verdana', 'Geneva', 'Lucid', 'Arial', 'Helvetica', 'Avant Garde', sans-serif; text-anchor: end" x="43.17075" y="68.71875" transform="rotate(-0 43.17075 68.71875)">0</text>
     </g>
    </g>
    <g id="ytick_2">
     <g id="line2d_4">
      <g>
       <use xlink:href="#m13a31ecf6a" x="50.17075" y="37.959375"/>
      </g>
     </g>
     <g id="text_4">
      <text style="font: 8px 'DejaVu Sans', 'Bitstream Vera Sans', 'Computer Modern Sans Serif', 'Lucida Grande', 'Verdana', 'Geneva', 'Lucid', 'Arial', 'Helvetica', 'Avant Garde', sans-serif; text-anchor: end" x="43.17075" y="40.99875" transform="rotate(-0 43.17075 40.99875)">100</text>
     </g>
    </g>
    <g id="ytick_3">
     <g id="line2d_5">
      <g>
       <use xlink:href="#m13a31ecf6a" x="50.17075" y="10.239375"/>
      </g>
     </g>
     <g id="text_5">
      <text style="font: 8px 'DejaVu Sans', 'Bitstream Vera Sans', 'Computer Modern Sans Serif', 'Lucida Grande', 'Verdana', 'Geneva', 'Lucid', 'Arial', 'Helvetica', 'Avant Garde', sans-serif; text-anchor: end" x="43.17075" y="13.27875" transform="rotate(-0 43.17075 13.27875)">200</text>
     </g>
    </g>
    <g id="text_6">
     <text style="font: 8px 'DejaVu Sans', 'Bitstream Vera Sans', 'Computer Modern Sans Serif', 'Lucida Grande', 'Verdana', 'Geneva', 'Lucid', 'Arial', 'Helvetica', 'Avant Garde', sans-serif" transform="translate(13.27875 51.8525) rotate(-90)">Cdc42 </text>
     <text style="font: 8px 'DejaVu Sans', 'Bitstream Vera Sans', 'Computer Modern Sans Serif', 'Lucida Grande', 'Verdana', 'Geneva', 'Lucid', 'Arial', 'Helvetica', 'Avant Garde', sans-serif" transform="translate(22.237 76.635) rotate(-90)">Concentration (nM)</text>
    </g>
   </g>
   <g id="LineCollection_1">
    <path d="M 75.995543 57.835267 
L 92.136039 57.835267 
" clip-path="url(#p71f5b626a5)" style="fill: none; stroke: #000000; stroke-opacity: 0.8; stroke-width: 1.5"/>
    <path d="M 140.557527 58.926932 
L 156.698023 58.926932 
" clip-path="url(#p71f5b626a5)" style="fill: none; stroke: #000000; stroke-opacity: 0.8; stroke-width: 1.5"/>
    <path d="M 205.11951 58.210203 
L 221.260006 58.210203 
" clip-path="url(#p71f5b626a5)" style="fill: none; stroke: #000000; stroke-opacity: 0.8; stroke-width: 1.5"/>
    <path d="M 269.681494 58.314479 
L 285.82199 58.314479 
" clip-path="url(#p71f5b626a5)" style="fill: none; stroke: #000000; stroke-opacity: 0.8; stroke-width: 1.5"/>
    <path d="M 334.243477 19.579819 
L 350.383973 19.579819 
" clip-path="url(#p71f5b626a5)" style="fill: none; stroke: #000000; stroke-opacity: 0.8; stroke-width: 1.5"/>
    <path clip-path="url(#p71f5b626a5)" style="fill: none; stroke: #000000; stroke-opacity: 0.8; stroke-width: 1.5"/>
   </g>
   <g id="patch_3">
    <path d="M 50.17075 65.679375 
L 50.17075 10.239375 
" style="fill: none; stroke: #000000; stroke-width: 0.8; stroke-linejoin: miter; stroke-linecap: square"/>
   </g>
   <g id="patch_4">
    <path d="M 50.17075 65.679375 
L 440.77075 65.679375 
" style="fill: none; stroke: #000000; stroke-width: 0.8; stroke-linejoin: miter; stroke-linecap: square"/>
   </g>
  </g>
 </g>
 <defs>
  <clipPath id="p71f5b626a5">
   <rect x="50.17075" y="10.239375" width="390.6" height="55.44"/>
  </clipPath>
 </defs>
</svg>
