<?xml version="1.0" encoding="utf-8" standalone="no"?>
<!DOCTYPE svg PUBLIC "-//W3C//DTD SVG 1.1//EN"
  "http://www.w3.org/Graphics/SVG/1.1/DTD/svg11.dtd">
<svg xmlns:xlink="http://www.w3.org/1999/xlink" width="180pt" height="36pt" viewBox="0 0 180 36" xmlns="http://www.w3.org/2000/svg" version="1.1">
 <metadata>
  <rdf:RDF xmlns:dc="http://purl.org/dc/elements/1.1/" xmlns:cc="http://creativecommons.org/ns#" xmlns:rdf="http://www.w3.org/1999/02/22-rdf-syntax-ns#">
   <cc:Work>
    <dc:type rdf:resource="http://purl.org/dc/dcmitype/StillImage"/>
    <dc:date>2024-11-13T12:41:18.078393</dc:date>
    <dc:format>image/svg+xml</dc:format>
    <dc:creator>
     <cc:Agent>
      <dc:title>Matplotlib v3.9.1, https://matplotlib.org/</dc:title>
     </cc:Agent>
    </dc:creator>
   </cc:Work>
  </rdf:RDF>
 </metadata>
 <defs>
  <style type="text/css">*{stroke-linejoin: round; stroke-linecap: butt}</style>
 </defs>
 <g id="figure_1">
  <g id="patch_1">
   <path d="M 0 36 
L 180 36 
L 180 0 
L 0 0 
L 0 36 
z
" style="fill: none"/>
  </g>
  <g id="axes_1">
   <g id="patch_2">
    <path d="M 22.5 32.04 
L 162 32.04 
L 162 4.32 
L 22.5 4.32 
L 22.5 32.04 
z
" style="fill: none"/>
   </g>
   <g id="matplotlib.axis_1">
    <g id="xtick_1"/>
    <g id="xtick_2"/>
    <g id="xtick_3"/>
    <g id="xtick_4"/>
   </g>
   <g id="matplotlib.axis_2">
    <g id="ytick_1"/>
    <g id="ytick_2"/>
    <g id="ytick_3"/>
   </g>
   <g id="line2d_1">
    <path d="M 28.840909 21.472873 
L 29.545455 19.785616 
L 30.25 20.329892 
L 30.954545 22.724708 
L 31.659091 21.654298 
L 32.363636 23.323413 
L 33.068182 26.00851 
L 33.772727 26.29879 
L 35.181818 29.818445 
L 35.886364 28.893175 
L 37.295455 24.865529 
L 38 25.591231 
L 38.704545 24.339395 
L 39.409091 25.173952 
L 40.113636 24.883672 
L 40.818182 22.797279 
L 41.522727 18.715205 
L 42.227273 22.942419 
L 42.931818 19.45905 
L 44.340909 16.302246 
L 45.75 18.334212 
L 46.454545 20.239179 
L 47.159091 19.640475 
L 47.863636 18.715205 
L 48.568182 22.071577 
L 49.272727 23.595551 
L 49.977273 23.30527 
L 50.681818 21.654298 
L 51.386364 23.37784 
L 52.090909 23.668121 
L 52.795455 24.15797 
L 53.5 24.811102 
L 54.204545 21.5273 
L 54.909091 25.482376 
L 55.613636 25.591231 
L 56.318182 24.611533 
L 57.022727 24.357538 
L 57.727273 22.416285 
L 58.431818 24.266825 
L 59.136364 25.718229 
L 59.840909 25.990367 
L 60.545455 28.294471 
L 61.25 29.618877 
L 61.954545 29.419309 
L 62.659091 30.562289 
L 63.363636 29.00203 
L 64.068182 28.85689 
L 64.772727 29.981728 
L 65.477273 29.691447 
L 66.181818 27.605054 
L 66.886364 29.600734 
L 67.590909 29.274168 
L 68.295455 26.044795 
L 69 26.08108 
L 69.704545 25.391663 
L 70.409091 26.589071 
L 71.113636 25.736371 
L 71.818182 23.903974 
L 72.522727 23.123844 
L 73.227273 22.107862 
L 73.931818 20.112181 
L 74.636364 16.538099 
L 75.340909 15.304406 
L 76.045455 17.844363 
L 76.75 15.97568 
L 77.454545 14.814557 
L 78.159091 12.873305 
L 78.863636 14.506134 
L 79.568182 11.893607 
L 80.272727 10.913909 
L 80.977273 8.246955 
L 81.681818 9.444363 
L 82.386364 8.083672 
L 83.090909 8.156242 
L 84.5 13.762289 
L 85.204545 15.340691 
L 85.909091 22.361857 
L 86.613636 24.847387 
L 87.318182 25.192095 
L 88.022727 25.391663 
L 88.727273 25.15581 
L 89.431818 25.573089 
L 90.136364 26.189935 
L 91.545455 21.146307 
L 92.25 19.586048 
L 92.954545 21.853866 
L 93.659091 17.971361 
L 94.363636 21.037451 
L 95.068182 21.5273 
L 95.772727 21.509158 
L 96.477273 21.908294 
L 97.181818 21.146307 
L 97.886364 22.869849 
L 98.590909 24.176112 
L 99.295455 25.065097 
L 100 22.162289 
L 100.704545 22.924276 
L 101.409091 21.799438 
L 102.113636 21.073737 
L 102.818182 23.758834 
L 103.522727 23.16013 
L 104.227273 25.518661 
L 104.931818 25.518661 
L 105.636364 25.373521 
L 106.340909 19.386479 
L 107.045455 21.59987 
L 107.75 21.690583 
L 108.454545 20.45689 
L 109.159091 15.703542 
L 109.863636 17.136803 
L 111.272727 14.560562 
L 111.977273 14.469849 
L 112.681818 15.249978 
L 113.386364 15.032268 
L 114.090909 14.97784 
L 114.795455 12.601166 
L 115.5 9.027084 
L 116.204545 6.831836 
L 116.909091 5.888423 
L 117.613636 5.58 
L 118.318182 8.936371 
L 119.022727 10.932052 
L 119.727273 8.646091 
L 120.431818 12.510454 
L 121.136364 11.766609 
L 122.545455 22.670281 
L 123.25 23.105702 
L 123.954545 23.37784 
L 124.659091 23.395983 
L 125.363636 27.260346 
L 126.068182 27.351058 
L 126.772727 29.310454 
L 127.477273 29.292311 
L 128.181818 30.163153 
L 128.886364 30.78 
L 130.295455 29.800302 
L 131 26.026652 
L 131.704545 27.677624 
L 132.409091 24.15797 
L 133.113636 24.321253 
L 134.522727 21.636156 
L 135.227273 21.345875 
L 135.931818 22.325572 
L 136.636364 17.499654 
L 137.340909 21.745011 
L 138.045455 21.436587 
L 138.75 22.434428 
L 139.454545 23.776976 
L 140.159091 23.631836 
L 141.568182 21.472873 
L 142.272727 18.969201 
L 142.977273 16.90095 
L 143.681818 16.592527 
L 144.386364 14.215853 
L 145.090909 13.961857 
L 145.795455 15.83054 
L 146.5 10.805054 
L 147.204545 10.623629 
L 147.909091 10.805054 
L 149.318182 8.936371 
L 150.022727 12.2746 
L 150.727273 12.075032 
L 151.431818 11.458186 
L 152.136364 11.530756 
L 152.840909 13.290583 
L 153.545455 17.989503 
L 154.25 18.007646 
L 155.659091 25.065097 
L 155.659091 25.065097 
" clip-path="url(#p908ba206ca)" style="fill: none; stroke: #1f77b4; stroke-width: 2; stroke-linecap: square"/>
   </g>
   <g id="patch_3">
    <path d="M 22.5 32.04 
L 22.5 4.32 
" style="fill: none; stroke: #000000; stroke-width: 0.8; stroke-linejoin: miter; stroke-linecap: square"/>
   </g>
   <g id="patch_4">
    <path d="M 162 32.04 
L 162 4.32 
" style="fill: none; stroke: #000000; stroke-width: 0.8; stroke-linejoin: miter; stroke-linecap: square"/>
   </g>
   <g id="patch_5">
    <path d="M 22.5 32.04 
L 162 32.04 
" style="fill: none; stroke: #000000; stroke-width: 0.8; stroke-linejoin: miter; stroke-linecap: square"/>
   </g>
   <g id="patch_6">
    <path d="M 22.5 4.32 
L 162 4.32 
" style="fill: none; stroke: #000000; stroke-width: 0.8; stroke-linejoin: miter; stroke-linecap: square"/>
   </g>
  </g>
 </g>
 <defs>
  <clipPath id="p908ba206ca">
   <rect x="22.5" y="4.32" width="139.5" height="27.72"/>
  </clipPath>
 </defs>
</svg>
