<?xml version="1.0" encoding="utf-8" standalone="no"?>
<!DOCTYPE svg PUBLIC "-//W3C//DTD SVG 1.1//EN"
  "http://www.w3.org/Graphics/SVG/1.1/DTD/svg11.dtd">
<svg xmlns:xlink="http://www.w3.org/1999/xlink" width="180pt" height="36pt" viewBox="0 0 180 36" xmlns="http://www.w3.org/2000/svg" version="1.1">
 <metadata>
  <rdf:RDF xmlns:dc="http://purl.org/dc/elements/1.1/" xmlns:cc="http://creativecommons.org/ns#" xmlns:rdf="http://www.w3.org/1999/02/22-rdf-syntax-ns#">
   <cc:Work>
    <dc:type rdf:resource="http://purl.org/dc/dcmitype/StillImage"/>
    <dc:date>2024-11-13T12:41:20.707082</dc:date>
    <dc:format>image/svg+xml</dc:format>
    <dc:creator>
     <cc:Agent>
      <dc:title>Matplotlib v3.9.1, https://matplotlib.org/</dc:title>
     </cc:Agent>
    </dc:creator>
   </cc:Work>
  </rdf:RDF>
 </metadata>
 <defs>
  <style type="text/css">*{stroke-linejoin: round; stroke-linecap: butt}</style>
 </defs>
 <g id="figure_1">
  <g id="patch_1">
   <path d="M 0 36 
L 180 36 
L 180 0 
L 0 0 
L 0 36 
z
" style="fill: none"/>
  </g>
  <g id="axes_1">
   <g id="patch_2">
    <path d="M 22.5 32.04 
L 162 32.04 
L 162 4.32 
L 22.5 4.32 
L 22.5 32.04 
z
" style="fill: none"/>
   </g>
   <g id="matplotlib.axis_1">
    <g id="xtick_1"/>
    <g id="xtick_2"/>
    <g id="xtick_3"/>
    <g id="xtick_4"/>
   </g>
   <g id="matplotlib.axis_2">
    <g id="ytick_1"/>
    <g id="ytick_2"/>
    <g id="ytick_3"/>
   </g>
   <g id="line2d_1">
    <path d="M 28.840909 23.004 
L 29.545455 19.548 
L 30.25 18.54 
L 30.954545 20.076 
L 31.659091 19.74 
L 32.363636 21.276 
L 33.068182 20.076 
L 34.477273 25.212 
L 35.181818 28.308 
L 35.886364 27.108 
L 37.295455 22.524 
L 38.704545 21.732 
L 40.113636 21.804 
L 40.818182 18.42 
L 41.522727 21.372 
L 42.227273 19.884 
L 42.931818 22.764 
L 43.636364 23.028 
L 44.340909 23.868 
L 45.045455 28.14 
L 45.75 30.444 
L 46.454545 27.468 
L 47.159091 27.564 
L 47.863636 26.748 
L 49.272727 18.18 
L 49.977273 15.972 
L 51.386364 18.516 
L 52.090909 21.684 
L 53.5 29.676 
L 54.204545 29.988 
L 54.909091 30.78 
L 56.318182 29.628 
L 57.022727 28.212 
L 57.727273 27.612 
L 59.136364 19.116 
L 59.840909 18.18 
L 60.545455 20.652 
L 61.25 20.988 
L 61.954545 16.116 
L 62.659091 16.572 
L 63.363636 13.332 
L 64.068182 18.06 
L 65.477273 19.668 
L 66.181818 19.164 
L 66.886364 20.772 
L 67.590909 21.732 
L 68.295455 24.468 
L 69.704545 28.116 
L 70.409091 26.508 
L 71.113636 23.22 
L 71.818182 20.508 
L 72.522727 18.66 
L 73.227273 14.148 
L 73.931818 16.212 
L 74.636364 16.956 
L 75.340909 17.196 
L 76.045455 16.332 
L 76.75 18.06 
L 78.159091 20.82 
L 78.863636 23.436 
L 79.568182 23.796 
L 80.977273 21.516 
L 81.681818 17.916 
L 82.386364 12.108 
L 83.090909 8.556 
L 83.795455 15.204 
L 84.5 14.1 
L 85.204545 17.004 
L 85.909091 16.908 
L 86.613636 17.652 
L 87.318182 20.676 
L 88.022727 17.436 
L 88.727273 14.94 
L 89.431818 15.036 
L 90.136364 14.412 
L 90.840909 17.724 
L 91.545455 18.516 
L 92.25 20.364 
L 92.954545 22.908 
L 93.659091 23.196 
L 94.363636 21.18 
L 95.068182 21.636 
L 95.772727 20.436 
L 96.477273 17.484 
L 97.181818 12.828 
L 97.886364 10.956 
L 99.295455 14.22 
L 100 12.9 
L 101.409091 15.708 
L 102.113636 15.252 
L 102.818182 18.516 
L 103.522727 22.884 
L 104.227273 16.044 
L 104.931818 13.524 
L 105.636364 12.396 
L 106.340909 10.044 
L 107.045455 6.444 
L 107.75 11.916 
L 108.454545 7.116 
L 109.159091 9.876 
L 109.863636 13.188 
L 110.568182 13.14 
L 111.272727 15.516 
L 111.977273 13.02 
L 112.681818 17.964 
L 113.386364 17.436 
L 114.090909 19.932 
L 115.5 17.988 
L 116.909091 20.868 
L 117.613636 17.172 
L 118.318182 16.668 
L 119.022727 19.644 
L 119.727273 20.34 
L 120.431818 15.78 
L 121.136364 15.444 
L 121.840909 17.124 
L 122.545455 15.852 
L 123.25 17.652 
L 123.954545 18.036 
L 124.659091 15.9 
L 126.068182 18.804 
L 126.772727 17.652 
L 128.181818 16.74 
L 128.886364 12.612 
L 130.295455 10.14 
L 131 12.828 
L 131.704545 10.14 
L 132.409091 11.028 
L 133.113636 16.668 
L 133.818182 18.204 
L 134.522727 15.972 
L 135.227273 6.828 
L 135.931818 12.636 
L 136.636364 7.572 
L 137.340909 11.076 
L 138.045455 10.188 
L 138.75 9.924 
L 139.454545 9.468 
L 140.159091 10.14 
L 140.863636 12.708 
L 141.568182 9.9 
L 142.272727 10.908 
L 142.977273 9.996 
L 143.681818 9.852 
L 144.386364 8.724 
L 145.090909 8.652 
L 145.795455 9.804 
L 146.5 11.508 
L 147.204545 10.884 
L 147.909091 12.3 
L 148.613636 10.884 
L 149.318182 8.724 
L 150.022727 8.58 
L 150.727273 5.58 
L 151.431818 7.524 
L 152.136364 5.772 
L 152.840909 5.964 
L 153.545455 10.092 
L 154.25 9.252 
L 154.954545 13.116 
L 155.659091 8.484 
L 155.659091 8.484 
" clip-path="url(#pf1e63a5870)" style="fill: none; stroke: #1f77b4; stroke-width: 2; stroke-linecap: square"/>
   </g>
   <g id="patch_3">
    <path d="M 22.5 32.04 
L 22.5 4.32 
" style="fill: none; stroke: #000000; stroke-width: 0.8; stroke-linejoin: miter; stroke-linecap: square"/>
   </g>
   <g id="patch_4">
    <path d="M 162 32.04 
L 162 4.32 
" style="fill: none; stroke: #000000; stroke-width: 0.8; stroke-linejoin: miter; stroke-linecap: square"/>
   </g>
   <g id="patch_5">
    <path d="M 22.5 32.04 
L 162 32.04 
" style="fill: none; stroke: #000000; stroke-width: 0.8; stroke-linejoin: miter; stroke-linecap: square"/>
   </g>
   <g id="patch_6">
    <path d="M 22.5 4.32 
L 162 4.32 
" style="fill: none; stroke: #000000; stroke-width: 0.8; stroke-linejoin: miter; stroke-linecap: square"/>
   </g>
  </g>
 </g>
 <defs>
  <clipPath id="pf1e63a5870">
   <rect x="22.5" y="4.32" width="139.5" height="27.72"/>
  </clipPath>
 </defs>
</svg>
