<?xml version="1.0" encoding="utf-8" standalone="no"?>
<!DOCTYPE svg PUBLIC "-//W3C//DTD SVG 1.1//EN"
  "http://www.w3.org/Graphics/SVG/1.1/DTD/svg11.dtd">
<svg xmlns:xlink="http://www.w3.org/1999/xlink" width="180pt" height="36pt" viewBox="0 0 180 36" xmlns="http://www.w3.org/2000/svg" version="1.1">
 <metadata>
  <rdf:RDF xmlns:dc="http://purl.org/dc/elements/1.1/" xmlns:cc="http://creativecommons.org/ns#" xmlns:rdf="http://www.w3.org/1999/02/22-rdf-syntax-ns#">
   <cc:Work>
    <dc:type rdf:resource="http://purl.org/dc/dcmitype/StillImage"/>
    <dc:date>2024-11-13T12:41:18.798688</dc:date>
    <dc:format>image/svg+xml</dc:format>
    <dc:creator>
     <cc:Agent>
      <dc:title>Matplotlib v3.9.1, https://matplotlib.org/</dc:title>
     </cc:Agent>
    </dc:creator>
   </cc:Work>
  </rdf:RDF>
 </metadata>
 <defs>
  <style type="text/css">*{stroke-linejoin: round; stroke-linecap: butt}</style>
 </defs>
 <g id="figure_1">
  <g id="patch_1">
   <path d="M 0 36 
L 180 36 
L 180 0 
L 0 0 
L 0 36 
z
" style="fill: none"/>
  </g>
  <g id="axes_1">
   <g id="patch_2">
    <path d="M 22.5 32.04 
L 162 32.04 
L 162 4.32 
L 22.5 4.32 
L 22.5 32.04 
z
" style="fill: none"/>
   </g>
   <g id="matplotlib.axis_1">
    <g id="xtick_1"/>
    <g id="xtick_2"/>
    <g id="xtick_3"/>
    <g id="xtick_4"/>
   </g>
   <g id="matplotlib.axis_2">
    <g id="ytick_1"/>
    <g id="ytick_2"/>
    <g id="ytick_3"/>
   </g>
   <g id="line2d_1">
    <path d="M 28.840909 17.055 
L 29.545455 20.115 
L 30.25 20.115 
L 30.954545 18.405 
L 31.659091 18.315 
L 32.363636 20.385 
L 33.068182 22.05 
L 33.772727 21.375 
L 34.477273 20.475 
L 35.181818 20.61 
L 35.886364 17.235 
L 36.590909 17.73 
L 37.295455 12.42 
L 38 22.95 
L 38.704545 25.92 
L 39.409091 24.975 
L 40.113636 26.1 
L 40.818182 25.65 
L 41.522727 29.655 
L 42.227273 29.925 
L 42.931818 29.655 
L 43.636364 30.33 
L 44.340909 29.07 
L 45.045455 30.78 
L 45.75 28.575 
L 46.454545 29.97 
L 47.159091 29.97 
L 47.863636 29.7 
L 48.568182 26.19 
L 49.272727 25.11 
L 49.977273 24.525 
L 50.681818 29.16 
L 51.386364 28.17 
L 52.090909 29.43 
L 52.795455 29.565 
L 53.5 28.89 
L 54.204545 28.44 
L 54.909091 25.155 
L 55.613636 26.865 
L 56.318182 29.7 
L 57.022727 28.71 
L 57.727273 29.115 
L 59.136364 28.35 
L 59.840909 27.63 
L 60.545455 26.685 
L 61.25 26.415 
L 61.954545 28.08 
L 62.659091 28.395 
L 63.363636 28.26 
L 64.068182 27.99 
L 64.772727 28.71 
L 65.477273 26.775 
L 66.181818 24.165 
L 66.886364 22.725 
L 67.590909 17.19 
L 68.295455 14.31 
L 69 16.515 
L 69.704545 17.91 
L 70.409091 17.415 
L 71.113636 15.435 
L 71.818182 11.34 
L 72.522727 15.48 
L 73.227273 15.435 
L 73.931818 16.65 
L 74.636364 14.535 
L 75.340909 7.875 
L 76.045455 12.42 
L 76.75 15.3 
L 77.454545 9.9 
L 78.159091 17.19 
L 78.863636 14.31 
L 79.568182 20.655 
L 80.272727 22.05 
L 80.977273 20.385 
L 81.681818 19.08 
L 82.386364 20.88 
L 83.090909 20.655 
L 83.795455 24.075 
L 84.5 20.07 
L 85.204545 24.435 
L 85.909091 24.39 
L 86.613636 24.84 
L 87.318182 23.58 
L 88.022727 24.165 
L 88.727273 25.155 
L 89.431818 24.885 
L 90.136364 23.535 
L 90.840909 23.535 
L 91.545455 18.585 
L 92.25 18.09 
L 92.954545 16.335 
L 93.659091 16.245 
L 94.363636 16.425 
L 95.068182 16.47 
L 95.772727 17.415 
L 96.477273 14.625 
L 97.181818 19.53 
L 97.886364 19.845 
L 98.590909 22.5 
L 99.295455 24.39 
L 100 22.32 
L 100.704545 21.105 
L 101.409091 22.5 
L 102.113636 22.185 
L 102.818182 23.895 
L 104.227273 26.46 
L 104.931818 27.27 
L 105.636364 25.56 
L 106.340909 24.885 
L 107.045455 22.275 
L 107.75 23.85 
L 108.454545 23.76 
L 109.159091 21.06 
L 109.863636 14.535 
L 110.568182 11.205 
L 111.272727 15.165 
L 111.977273 14.31 
L 112.681818 12.105 
L 113.386364 13.545 
L 114.090909 20.88 
L 114.795455 21.195 
L 115.5 24.75 
L 116.204545 24.885 
L 116.909091 21.735 
L 117.613636 26.73 
L 118.318182 23.58 
L 119.022727 26.1 
L 119.727273 26.145 
L 120.431818 24.075 
L 121.136364 24.885 
L 121.840909 22.5 
L 122.545455 18.54 
L 123.25 18.315 
L 123.954545 14.76 
L 124.659091 13.185 
L 125.363636 7.56 
L 126.068182 10.8 
L 126.772727 12.42 
L 127.477273 11.205 
L 128.181818 7.425 
L 128.886364 5.58 
L 129.590909 7.92 
L 130.295455 8.82 
L 131 10.26 
L 131.704545 10.17 
L 132.409091 12.69 
L 133.113636 14.445 
L 133.818182 12.465 
L 134.522727 11.34 
L 135.227273 10.8 
L 135.931818 14.265 
L 136.636364 12.69 
L 137.340909 9.72 
L 138.045455 13.455 
L 138.75 12.465 
L 139.454545 16.695 
L 140.159091 14.535 
L 140.863636 13.32 
L 141.568182 16.515 
L 142.977273 14.625 
L 143.681818 14.4 
L 144.386364 18.99 
L 145.090909 16.56 
L 145.795455 21.33 
L 146.5 22.59 
L 147.204545 19.26 
L 147.909091 18.495 
L 148.613636 15.795 
L 149.318182 17.865 
L 150.022727 17.1 
L 150.727273 18.945 
L 151.431818 18.675 
L 152.136364 16.65 
L 152.840909 16.695 
L 153.545455 16.2 
L 154.25 16.11 
L 154.954545 14.22 
L 155.659091 13.095 
L 155.659091 13.095 
" clip-path="url(#pcb8e0c3879)" style="fill: none; stroke: #1f77b4; stroke-width: 2; stroke-linecap: square"/>
   </g>
   <g id="patch_3">
    <path d="M 22.5 32.04 
L 22.5 4.32 
" style="fill: none; stroke: #000000; stroke-width: 0.8; stroke-linejoin: miter; stroke-linecap: square"/>
   </g>
   <g id="patch_4">
    <path d="M 162 32.04 
L 162 4.32 
" style="fill: none; stroke: #000000; stroke-width: 0.8; stroke-linejoin: miter; stroke-linecap: square"/>
   </g>
   <g id="patch_5">
    <path d="M 22.5 32.04 
L 162 32.04 
" style="fill: none; stroke: #000000; stroke-width: 0.8; stroke-linejoin: miter; stroke-linecap: square"/>
   </g>
   <g id="patch_6">
    <path d="M 22.5 4.32 
L 162 4.32 
" style="fill: none; stroke: #000000; stroke-width: 0.8; stroke-linejoin: miter; stroke-linecap: square"/>
   </g>
  </g>
 </g>
 <defs>
  <clipPath id="pcb8e0c3879">
   <rect x="22.5" y="4.32" width="139.5" height="27.72"/>
  </clipPath>
 </defs>
</svg>
