<?xml version="1.0" encoding="utf-8" standalone="no"?>
<!DOCTYPE svg PUBLIC "-//W3C//DTD SVG 1.1//EN"
  "http://www.w3.org/Graphics/SVG/1.1/DTD/svg11.dtd">
<svg xmlns:xlink="http://www.w3.org/1999/xlink" width="180pt" height="36pt" viewBox="0 0 180 36" xmlns="http://www.w3.org/2000/svg" version="1.1">
 <metadata>
  <rdf:RDF xmlns:dc="http://purl.org/dc/elements/1.1/" xmlns:cc="http://creativecommons.org/ns#" xmlns:rdf="http://www.w3.org/1999/02/22-rdf-syntax-ns#">
   <cc:Work>
    <dc:type rdf:resource="http://purl.org/dc/dcmitype/StillImage"/>
    <dc:date>2024-11-13T12:41:21.112610</dc:date>
    <dc:format>image/svg+xml</dc:format>
    <dc:creator>
     <cc:Agent>
      <dc:title>Matplotlib v3.9.1, https://matplotlib.org/</dc:title>
     </cc:Agent>
    </dc:creator>
   </cc:Work>
  </rdf:RDF>
 </metadata>
 <defs>
  <style type="text/css">*{stroke-linejoin: round; stroke-linecap: butt}</style>
 </defs>
 <g id="figure_1">
  <g id="patch_1">
   <path d="M 0 36 
L 180 36 
L 180 0 
L 0 0 
L 0 36 
z
" style="fill: none"/>
  </g>
  <g id="axes_1">
   <g id="patch_2">
    <path d="M 22.5 32.04 
L 162 32.04 
L 162 4.32 
L 22.5 4.32 
L 22.5 32.04 
z
" style="fill: none"/>
   </g>
   <g id="matplotlib.axis_1">
    <g id="xtick_1"/>
    <g id="xtick_2"/>
    <g id="xtick_3"/>
    <g id="xtick_4"/>
   </g>
   <g id="matplotlib.axis_2">
    <g id="ytick_1"/>
    <g id="ytick_2"/>
   </g>
   <g id="line2d_1">
    <path d="M 28.840909 20.649347 
L 29.545455 20.77598 
L 30.25 21.852362 
L 30.954545 21.060905 
L 31.659091 24.495829 
L 32.363636 21.361658 
L 33.068182 19.319698 
L 33.772727 13.383769 
L 34.477273 13.019698 
L 35.181818 13.288794 
L 35.886364 14.460151 
L 36.590909 7.321206 
L 37.295455 11.705879 
L 38.704545 8.350101 
L 39.409091 10.898593 
L 40.113636 11.32598 
L 40.818182 8.603367 
L 41.522727 8.54005 
L 42.227273 5.58 
L 42.931818 9.347337 
L 43.636364 13.92196 
L 44.340909 17.420201 
L 45.045455 15.837286 
L 45.75 12.972211 
L 46.454545 19.367186 
L 47.159091 22.612161 
L 47.863636 23.73603 
L 48.568182 22.042312 
L 49.272727 25.857136 
L 49.977273 22.786281 
L 50.681818 22.912915 
L 51.386364 21.947337 
L 52.090909 20.206131 
L 52.795455 19.636281 
L 53.5 18.227487 
L 54.204545 17.610151 
L 54.909091 16.739548 
L 55.613636 18.417437 
L 56.318182 16.13804 
L 57.022727 15.900603 
L 57.727273 15.94809 
L 58.431818 15.188291 
L 59.840909 9.347337 
L 60.545455 9.711407 
L 61.25 7.732764 
L 61.954545 9.252362 
L 62.659091 12.734774 
L 64.068182 16.802864 
L 64.772727 18.433266 
L 65.477273 17.784271 
L 66.181818 15.77397 
L 66.886364 17.910905 
L 67.590909 15.58402 
L 68.295455 13.937789 
L 69 14.681759 
L 69.704545 16.13804 
L 70.409091 19.09809 
L 71.113636 17.578492 
L 71.818182 18.781508 
L 72.522727 18.243317 
L 73.227273 12.79809 
L 74.636364 19.430503 
L 75.340909 13.716181 
L 76.045455 18.955628 
L 76.75 16.69206 
L 77.454545 16.51794 
L 78.159091 15.599849 
L 78.863636 21.551608 
L 79.568182 22.786281 
L 80.272727 20.997588 
L 80.977273 21.599095 
L 81.681818 22.042312 
L 83.090909 16.407136 
L 83.795455 17.974221 
L 85.204545 23.609397 
L 85.909091 24.242563 
L 86.613636 22.62799 
L 87.318182 24.163417 
L 88.022727 23.403618 
L 88.727273 24.210905 
L 89.431818 24.828241 
L 90.136364 26.094573 
L 90.840909 24.84407 
L 91.545455 25.698844 
L 92.25 25.683015 
L 92.954545 25.540553 
L 93.659091 24.210905 
L 94.363636 22.43804 
L 95.068182 21.155879 
L 95.772727 22.24809 
L 96.477273 23.862663 
L 97.181818 22.738794 
L 97.886364 20.443568 
L 99.295455 19.414673 
L 100 17.81593 
L 100.704545 21.393317 
L 101.409091 22.865427 
L 102.113636 23.37196 
L 102.818182 21.108392 
L 103.522727 22.311407 
L 104.227273 22.643819 
L 104.931818 22.232261 
L 105.636364 20.142814 
L 106.340909 18.702362 
L 107.045455 16.628744 
L 107.75 14.191055 
L 108.454545 15.473216 
L 109.159091 14.935025 
L 110.568182 20.839296 
L 111.272727 21.599095 
L 111.977273 21.203367 
L 112.681818 22.24809 
L 113.386364 25.255628 
L 114.090909 27.155126 
L 114.795455 30.099347 
L 115.5 29.038794 
L 116.204545 29.371206 
L 116.909091 30.78 
L 117.613636 29.497839 
L 118.318182 27.566683 
L 119.022727 27.471709 
L 119.727273 29.513668 
L 120.431818 28.120704 
L 121.136364 27.487538 
L 121.840909 28.817186 
L 123.25 22.580503 
L 123.954545 23.150352 
L 124.659091 21.69407 
L 125.363636 20.823467 
L 126.068182 22.501357 
L 126.772727 27.772462 
L 127.477273 30.020201 
L 128.886364 29.624472 
L 129.590909 29.165427 
L 130.295455 28.943819 
L 131 29.877739 
L 131.704545 27.360905 
L 132.409091 29.149598 
L 133.113636 27.81995 
L 133.818182 27.899095 
L 134.522727 26.284523 
L 135.227273 22.327236 
L 135.931818 22.24809 
L 136.636364 22.976231 
L 137.340909 20.997588 
L 138.045455 20.712663 
L 138.75 18.654874 
L 139.454545 20.285276 
L 140.159091 21.424975 
L 140.863636 19.652111 
L 141.568182 21.092563 
L 142.272727 20.823467 
L 142.977273 24.11593 
L 143.681818 24.385025 
L 144.386364 23.213668 
L 145.090909 22.881256 
L 145.795455 24.385025 
L 147.204545 24.574975 
L 147.909091 24.416683 
L 148.613636 25.524724 
L 149.318182 20.934271 
L 150.022727 22.374724 
L 150.727273 22.691307 
L 151.431818 20.791809 
L 152.136364 22.24809 
L 152.840909 19.034774 
L 153.545455 21.361658 
L 154.25 19.715427 
L 154.954545 16.597085 
L 155.659091 16.771206 
L 155.659091 16.771206 
" clip-path="url(#pfc70d8f529)" style="fill: none; stroke: #1f77b4; stroke-width: 2; stroke-linecap: square"/>
   </g>
   <g id="patch_3">
    <path d="M 22.5 32.04 
L 22.5 4.32 
" style="fill: none; stroke: #000000; stroke-width: 0.8; stroke-linejoin: miter; stroke-linecap: square"/>
   </g>
   <g id="patch_4">
    <path d="M 162 32.04 
L 162 4.32 
" style="fill: none; stroke: #000000; stroke-width: 0.8; stroke-linejoin: miter; stroke-linecap: square"/>
   </g>
   <g id="patch_5">
    <path d="M 22.5 32.04 
L 162 32.04 
" style="fill: none; stroke: #000000; stroke-width: 0.8; stroke-linejoin: miter; stroke-linecap: square"/>
   </g>
   <g id="patch_6">
    <path d="M 22.5 4.32 
L 162 4.32 
" style="fill: none; stroke: #000000; stroke-width: 0.8; stroke-linejoin: miter; stroke-linecap: square"/>
   </g>
  </g>
 </g>
 <defs>
  <clipPath id="pfc70d8f529">
   <rect x="22.5" y="4.32" width="139.5" height="27.72"/>
  </clipPath>
 </defs>
</svg>
