<?xml version="1.0" encoding="utf-8" standalone="no"?>
<!DOCTYPE svg PUBLIC "-//W3C//DTD SVG 1.1//EN"
  "http://www.w3.org/Graphics/SVG/1.1/DTD/svg11.dtd">
<svg xmlns:xlink="http://www.w3.org/1999/xlink" width="180pt" height="36pt" viewBox="0 0 180 36" xmlns="http://www.w3.org/2000/svg" version="1.1">
 <metadata>
  <rdf:RDF xmlns:dc="http://purl.org/dc/elements/1.1/" xmlns:cc="http://creativecommons.org/ns#" xmlns:rdf="http://www.w3.org/1999/02/22-rdf-syntax-ns#">
   <cc:Work>
    <dc:type rdf:resource="http://purl.org/dc/dcmitype/StillImage"/>
    <dc:date>2024-11-13T12:41:21.502020</dc:date>
    <dc:format>image/svg+xml</dc:format>
    <dc:creator>
     <cc:Agent>
      <dc:title>Matplotlib v3.9.1, https://matplotlib.org/</dc:title>
     </cc:Agent>
    </dc:creator>
   </cc:Work>
  </rdf:RDF>
 </metadata>
 <defs>
  <style type="text/css">*{stroke-linejoin: round; stroke-linecap: butt}</style>
 </defs>
 <g id="figure_1">
  <g id="patch_1">
   <path d="M 0 36 
L 180 36 
L 180 0 
L 0 0 
L 0 36 
z
" style="fill: none"/>
  </g>
  <g id="axes_1">
   <g id="patch_2">
    <path d="M 22.5 32.04 
L 162 32.04 
L 162 4.32 
L 22.5 4.32 
L 22.5 32.04 
z
" style="fill: none"/>
   </g>
   <g id="matplotlib.axis_1">
    <g id="xtick_1"/>
    <g id="xtick_2"/>
    <g id="xtick_3"/>
    <g id="xtick_4"/>
   </g>
   <g id="matplotlib.axis_2">
    <g id="ytick_1"/>
    <g id="ytick_2"/>
   </g>
   <g id="line2d_1">
    <path d="M 28.840909 20.942832 
L 29.545455 22.404779 
L 30.25 20.249027 
L 30.954545 25.452566 
L 31.659091 24.461416 
L 32.363636 24.758761 
L 33.068182 24.263186 
L 33.772727 20.992389 
L 34.477273 24.064956 
L 35.181818 24.040177 
L 35.886364 25.749912 
L 36.590909 27.112743 
L 37.295455 22.751681 
L 38 20.026018 
L 38.704545 23.470265 
L 39.409091 24.164071 
L 40.113636 25.749912 
L 40.818182 25.427788 
L 42.227273 27.533982 
L 42.931818 27.880885 
L 43.636364 26.319823 
L 45.045455 26.468496 
L 45.75 28.475575 
L 46.454545 29.095044 
L 47.863636 28.673805 
L 48.568182 28.673805 
L 49.272727 28.302124 
L 49.977273 28.426018 
L 50.681818 25.229558 
L 51.386364 23.643717 
L 52.090909 23.470265 
L 52.795455 19.38177 
L 53.5 17.721593 
L 54.204545 17.027788 
L 54.909091 18.935752 
L 55.613636 17.077345 
L 56.318182 18.266726 
L 57.022727 17.647257 
L 57.727273 20.17469 
L 58.431818 17.845487 
L 59.136364 19.158761 
L 62.659091 23.866726 
L 63.363636 25.427788 
L 64.068182 23.37115 
L 64.772727 19.951681 
L 65.477273 19.679115 
L 66.181818 17.870265 
L 66.886364 15.020708 
L 67.590909 16.086195 
L 68.295455 13.484425 
L 69 19.77823 
L 69.704545 17.820708 
L 70.409091 20.050796 
L 71.113636 24.709204 
L 71.818182 25.57646 
L 72.522727 28.723363 
L 73.227273 27.732212 
L 73.931818 27.112743 
L 74.636364 25.526903 
L 75.340909 25.97292 
L 76.045455 25.57646 
L 76.75 23.123363 
L 77.454545 19.059646 
L 78.159091 19.208319 
L 78.863636 20.794159 
L 79.568182 23.594159 
L 80.272727 24.287965 
L 80.977273 22.082655 
L 81.681818 21.859646 
L 82.386364 20.348142 
L 83.090909 23.519823 
L 83.795455 24.535752 
L 84.5 23.470265 
L 85.204545 20.422478 
L 85.909091 21.611858 
L 86.613636 24.907434 
L 87.318182 26.765841 
L 88.727273 29.417168 
L 89.431818 29.937522 
L 90.136364 30.036637 
L 90.840909 30.259646 
L 91.545455 29.194159 
L 92.25 30.135752 
L 92.954545 29.937522 
L 93.659091 30.036637 
L 94.363636 29.863186 
L 95.772727 30.309204 
L 96.477273 30.210088 
L 97.181818 29.392389 
L 97.886364 29.194159 
L 98.590909 30.78 
L 99.295455 30.457876 
L 100 30.482655 
L 100.704545 29.838407 
L 101.409091 30.086195 
L 102.113636 28.698584 
L 102.818182 28.252566 
L 103.522727 28.227788 
L 104.227273 24.907434 
L 104.931818 23.965841 
L 105.636364 24.287965 
L 106.340909 23.742832 
L 107.045455 24.337522 
L 107.75 22.156991 
L 108.454545 22.900354 
L 109.159091 25.502124 
L 109.863636 26.790619 
L 110.568182 26.047257 
L 111.272727 26.741062 
L 111.977273 27.063186 
L 112.681818 28.128673 
L 113.386364 29.689735 
L 114.090909 30.036637 
L 114.795455 29.293274 
L 115.5 29.466726 
L 116.204545 29.417168 
L 116.909091 29.937522 
L 117.613636 27.360531 
L 118.318182 28.896814 
L 119.022727 28.77292 
L 119.727273 29.367611 
L 120.431818 28.822478 
L 121.136364 29.516283 
L 121.840909 29.541062 
L 122.545455 28.079115 
L 123.25 27.360531 
L 123.954545 26.369381 
L 124.659091 26.641947 
L 125.363636 24.98177 
L 126.068182 21.165841 
L 126.772727 18.415398 
L 127.477273 18.316283 
L 128.181818 19.827788 
L 128.886364 13.484425 
L 129.590909 11.57646 
L 130.295455 11.675575 
L 131 11.006549 
L 131.704545 11.77469 
L 132.409091 10.58531 
L 133.113636 6.893274 
L 133.818182 7.562301 
L 134.522727 5.58 
L 135.227273 10.461416 
L 136.636364 17.325133 
L 137.340909 14.995929 
L 138.045455 13.162301 
L 138.75 21.091504 
L 139.454545 24.560531 
L 140.159091 28.921593 
L 140.863636 29.268496 
L 141.568182 29.392389 
L 142.272727 29.887965 
L 142.977273 30.556991 
L 143.681818 30.333982 
L 144.386364 29.664956 
L 145.795455 29.318053 
L 146.5 29.764071 
L 147.204545 28.500354 
L 148.613636 23.024248 
L 149.318182 18.539292 
L 150.022727 17.102124 
L 150.727273 16.705664 
L 151.431818 14.77292 
L 152.136364 16.532212 
L 152.840909 19.505664 
L 153.545455 20.818938 
L 154.954545 28.599469 
L 155.659091 29.119823 
L 155.659091 29.119823 
" clip-path="url(#p34bc2abe3c)" style="fill: none; stroke: #1f77b4; stroke-width: 2; stroke-linecap: square"/>
   </g>
   <g id="patch_3">
    <path d="M 22.5 32.04 
L 22.5 4.32 
" style="fill: none; stroke: #000000; stroke-width: 0.8; stroke-linejoin: miter; stroke-linecap: square"/>
   </g>
   <g id="patch_4">
    <path d="M 162 32.04 
L 162 4.32 
" style="fill: none; stroke: #000000; stroke-width: 0.8; stroke-linejoin: miter; stroke-linecap: square"/>
   </g>
   <g id="patch_5">
    <path d="M 22.5 32.04 
L 162 32.04 
" style="fill: none; stroke: #000000; stroke-width: 0.8; stroke-linejoin: miter; stroke-linecap: square"/>
   </g>
   <g id="patch_6">
    <path d="M 22.5 4.32 
L 162 4.32 
" style="fill: none; stroke: #000000; stroke-width: 0.8; stroke-linejoin: miter; stroke-linecap: square"/>
   </g>
  </g>
 </g>
 <defs>
  <clipPath id="p34bc2abe3c">
   <rect x="22.5" y="4.32" width="139.5" height="27.72"/>
  </clipPath>
 </defs>
</svg>
