<?xml version="1.0" encoding="utf-8" standalone="no"?>
<!DOCTYPE svg PUBLIC "-//W3C//DTD SVG 1.1//EN"
  "http://www.w3.org/Graphics/SVG/1.1/DTD/svg11.dtd">
<svg xmlns:xlink="http://www.w3.org/1999/xlink" width="180pt" height="36pt" viewBox="0 0 180 36" xmlns="http://www.w3.org/2000/svg" version="1.1">
 <metadata>
  <rdf:RDF xmlns:dc="http://purl.org/dc/elements/1.1/" xmlns:cc="http://creativecommons.org/ns#" xmlns:rdf="http://www.w3.org/1999/02/22-rdf-syntax-ns#">
   <cc:Work>
    <dc:type rdf:resource="http://purl.org/dc/dcmitype/StillImage"/>
    <dc:date>2024-11-13T12:41:21.013698</dc:date>
    <dc:format>image/svg+xml</dc:format>
    <dc:creator>
     <cc:Agent>
      <dc:title>Matplotlib v3.9.1, https://matplotlib.org/</dc:title>
     </cc:Agent>
    </dc:creator>
   </cc:Work>
  </rdf:RDF>
 </metadata>
 <defs>
  <style type="text/css">*{stroke-linejoin: round; stroke-linecap: butt}</style>
 </defs>
 <g id="figure_1">
  <g id="patch_1">
   <path d="M 0 36 
L 180 36 
L 180 0 
L 0 0 
L 0 36 
z
" style="fill: none"/>
  </g>
  <g id="axes_1">
   <g id="patch_2">
    <path d="M 22.5 32.04 
L 162 32.04 
L 162 4.32 
L 22.5 4.32 
L 22.5 32.04 
z
" style="fill: none"/>
   </g>
   <g id="matplotlib.axis_1">
    <g id="xtick_1"/>
    <g id="xtick_2"/>
    <g id="xtick_3"/>
    <g id="xtick_4"/>
   </g>
   <g id="matplotlib.axis_2">
    <g id="ytick_1"/>
    <g id="ytick_2"/>
    <g id="ytick_3"/>
   </g>
   <g id="line2d_1">
    <path d="M 28.840909 15.934615 
L 29.545455 13.430769 
L 30.25 12.752308 
L 30.954545 15.918462 
L 31.659091 18.486923 
L 32.363636 21.766154 
L 33.068182 23.333077 
L 33.772727 24.237692 
L 35.181818 27.21 
L 35.886364 27.452308 
L 36.590909 23.543077 
L 37.295455 22.283077 
L 38 23.688462 
L 38.704545 27.726923 
L 39.409091 26.919231 
L 40.113636 26.854615 
L 40.818182 26.256923 
L 41.522727 26.886923 
L 42.227273 25.384615 
L 42.931818 25.675385 
L 43.636364 25.691538 
L 44.340909 21.798462 
L 45.75 20.296154 
L 46.454545 21.96 
L 47.159091 24.867692 
L 49.272727 30.699231 
L 49.977273 29.713846 
L 50.681818 28.938462 
L 51.386364 29.455385 
L 52.090909 30.15 
L 52.795455 29.956154 
L 53.5 27.662308 
L 54.204545 28.922308 
L 54.909091 29.148462 
L 55.613636 29.843077 
L 56.318182 29.277692 
L 57.022727 28.195385 
L 57.727273 28.082308 
L 58.431818 27.646154 
L 59.136364 25.400769 
L 59.840909 25.061538 
L 60.545455 22.428462 
L 61.25 22.719231 
L 61.954545 21.507692 
L 62.659091 23.575385 
L 63.363636 24.302308 
L 64.068182 23.462308 
L 64.772727 25.465385 
L 65.477273 26.935385 
L 66.181818 26.046923 
L 66.886364 24.576923 
L 67.590909 27.403846 
L 68.295455 28.566923 
L 69 27.678462 
L 69.704545 27.597692 
L 70.409091 25.465385 
L 71.113636 25.788462 
L 71.818182 25.061538 
L 72.522727 25.933846 
L 73.227273 28.05 
L 73.931818 27.403846 
L 74.636364 26.37 
L 75.340909 27.145385 
L 76.045455 25.158462 
L 76.75 24.205385 
L 77.454545 25.966154 
L 78.159091 26.111538 
L 78.863636 24.786923 
L 79.568182 26.030769 
L 80.272727 26.612308 
L 80.977273 25.206923 
L 81.681818 21.507692 
L 82.386364 20.021538 
L 83.090909 19.472308 
L 83.795455 20.457692 
L 84.5 14.529231 
L 85.204545 14.852308 
L 85.909091 13.834615 
L 86.613636 13.059231 
L 87.318182 11.346923 
L 88.022727 10.490769 
L 88.727273 13.834615 
L 89.431818 10.506923 
L 90.136364 7.906154 
L 90.840909 9.893077 
L 91.545455 10.555385 
L 92.25 18.632308 
L 92.954545 19.197692 
L 93.659091 21.766154 
L 94.363636 22.137692 
L 95.068182 23.817692 
L 95.772727 22.557692 
L 96.477273 19.86 
L 97.181818 19.197692 
L 97.886364 13.608462 
L 98.590909 14.222308 
L 99.295455 15.03 
L 100 14.706923 
L 100.704545 14.803846 
L 101.409091 16.419231 
L 102.113636 13.414615 
L 103.522727 17.291538 
L 104.227273 20.457692 
L 104.931818 22.573846 
L 105.636364 26.903077 
L 107.045455 29.374615 
L 107.75 27.500769 
L 108.454545 29.665385 
L 109.159091 30.78 
L 109.863636 30.295385 
L 110.568182 30.15 
L 111.272727 28.179231 
L 111.977273 26.935385 
L 112.681818 25.077692 
L 113.386364 21.863077 
L 114.090909 19.246154 
L 114.795455 15.078462 
L 116.204545 15.498462 
L 116.909091 13.253077 
L 117.613636 14.028462 
L 118.318182 11.330769 
L 119.022727 11.928462 
L 119.727273 10.280769 
L 120.431818 12.429231 
L 121.136364 7.841538 
L 121.840909 5.58 
L 122.545455 8.487692 
L 123.954545 16.451538 
L 124.659091 15.756923 
L 125.363636 12.816923 
L 126.068182 12.768462 
L 126.772727 15.627692 
L 127.477273 14.981538 
L 128.181818 14.028462 
L 128.886364 15.062308 
L 129.590909 16.936154 
L 130.295455 19.666154 
L 131 18.438462 
L 131.704545 20.732308 
L 133.113636 24.463846 
L 133.818182 24.415385 
L 134.522727 24.706154 
L 135.227273 21.006923 
L 135.931818 18.357692 
L 136.636364 19.003846 
L 138.045455 17.630769 
L 138.75 16.92 
L 139.454545 16.806923 
L 140.159091 15.999231 
L 140.863636 15.886154 
L 141.568182 17.986154 
L 142.272727 15.159231 
L 142.977273 18.503077 
L 143.681818 17.630769 
L 144.386364 18.373846 
L 145.090909 17.76 
L 145.795455 16.871538 
L 146.5 18.874615 
L 147.204545 17.501538 
L 148.613636 19.375385 
L 149.318182 19.391538 
L 150.022727 17.646923 
L 150.727273 16.71 
L 151.431818 17.291538 
L 152.136364 19.359231 
L 152.840909 18.212308 
L 153.545455 18.115385 
L 154.25 15.369231 
L 154.954545 17.856923 
L 155.659091 14.286923 
L 155.659091 14.286923 
" clip-path="url(#pb0f52634ca)" style="fill: none; stroke: #1f77b4; stroke-width: 2; stroke-linecap: square"/>
   </g>
   <g id="patch_3">
    <path d="M 22.5 32.04 
L 22.5 4.32 
" style="fill: none; stroke: #000000; stroke-width: 0.8; stroke-linejoin: miter; stroke-linecap: square"/>
   </g>
   <g id="patch_4">
    <path d="M 162 32.04 
L 162 4.32 
" style="fill: none; stroke: #000000; stroke-width: 0.8; stroke-linejoin: miter; stroke-linecap: square"/>
   </g>
   <g id="patch_5">
    <path d="M 22.5 32.04 
L 162 32.04 
" style="fill: none; stroke: #000000; stroke-width: 0.8; stroke-linejoin: miter; stroke-linecap: square"/>
   </g>
   <g id="patch_6">
    <path d="M 22.5 4.32 
L 162 4.32 
" style="fill: none; stroke: #000000; stroke-width: 0.8; stroke-linejoin: miter; stroke-linecap: square"/>
   </g>
  </g>
 </g>
 <defs>
  <clipPath id="pb0f52634ca">
   <rect x="22.5" y="4.32" width="139.5" height="27.72"/>
  </clipPath>
 </defs>
</svg>
