<?xml version="1.0" encoding="utf-8" standalone="no"?>
<!DOCTYPE svg PUBLIC "-//W3C//DTD SVG 1.1//EN"
  "http://www.w3.org/Graphics/SVG/1.1/DTD/svg11.dtd">
<svg xmlns:xlink="http://www.w3.org/1999/xlink" width="180pt" height="36pt" viewBox="0 0 180 36" xmlns="http://www.w3.org/2000/svg" version="1.1">
 <metadata>
  <rdf:RDF xmlns:dc="http://purl.org/dc/elements/1.1/" xmlns:cc="http://creativecommons.org/ns#" xmlns:rdf="http://www.w3.org/1999/02/22-rdf-syntax-ns#">
   <cc:Work>
    <dc:type rdf:resource="http://purl.org/dc/dcmitype/StillImage"/>
    <dc:date>2024-11-13T12:41:19.710647</dc:date>
    <dc:format>image/svg+xml</dc:format>
    <dc:creator>
     <cc:Agent>
      <dc:title>Matplotlib v3.9.1, https://matplotlib.org/</dc:title>
     </cc:Agent>
    </dc:creator>
   </cc:Work>
  </rdf:RDF>
 </metadata>
 <defs>
  <style type="text/css">*{stroke-linejoin: round; stroke-linecap: butt}</style>
 </defs>
 <g id="figure_1">
  <g id="patch_1">
   <path d="M 0 36 
L 180 36 
L 180 0 
L 0 0 
L 0 36 
z
" style="fill: none"/>
  </g>
  <g id="axes_1">
   <g id="patch_2">
    <path d="M 22.5 32.04 
L 162 32.04 
L 162 4.32 
L 22.5 4.32 
L 22.5 32.04 
z
" style="fill: none"/>
   </g>
   <g id="matplotlib.axis_1">
    <g id="xtick_1"/>
    <g id="xtick_2"/>
    <g id="xtick_3"/>
    <g id="xtick_4"/>
   </g>
   <g id="matplotlib.axis_2">
    <g id="ytick_1"/>
    <g id="ytick_2"/>
   </g>
   <g id="line2d_1">
    <path d="M 28.840909 21.272202 
L 29.545455 24.79789 
L 30.25 24.711193 
L 30.954545 25.491468 
L 31.659091 28.410275 
L 32.363636 29.19055 
L 33.068182 28.410275 
L 33.772727 26.965321 
L 34.477273 26.329541 
L 35.181818 26.06945 
L 35.886364 24.16211 
L 36.590909 27.023119 
L 37.295455 27.861193 
L 38.704545 26.098349 
L 39.409091 23.468532 
L 40.113636 25.43367 
L 40.818182 27.890092 
L 41.522727 28.785963 
L 42.227273 28.554771 
L 42.931818 28.988257 
L 43.636364 25.982752 
L 44.340909 27.94789 
L 45.045455 26.878624 
L 45.75 27.427706 
L 46.454545 25.43367 
L 47.159091 25.693761 
L 47.863636 24.624495 
L 48.568182 24.248807 
L 49.272727 28.352477 
L 49.977273 28.034587 
L 50.681818 27.254312 
L 51.386364 27.803394 
L 52.090909 30.057523 
L 52.795455 29.797431 
L 53.5 30.78 
L 54.204545 30.14422 
L 54.909091 29.306147 
L 55.613636 27.398807 
L 56.318182 28.323578 
L 57.022727 28.525872 
L 57.727273 27.254312 
L 58.431818 24.508899 
L 59.136364 25.173578 
L 59.840909 19.798349 
L 60.545455 15.607982 
L 61.25 19.624954 
L 61.954545 21.301101 
L 62.659091 22.572661 
L 63.363636 24.248807 
L 64.068182 21.705688 
L 64.772727 21.792385 
L 65.477273 28.58367 
L 66.181818 26.878624 
L 66.886364 28.034587 
L 67.590909 25.289174 
L 68.295455 24.537798 
L 69 20.925413 
L 69.704545 20.202936 
L 70.409091 17.024037 
L 71.113636 19.682752 
L 71.818182 18.844679 
L 72.522727 13.180459 
L 73.227273 20.780917 
L 73.931818 17.573119 
L 74.636364 17.602018 
L 75.340909 18.671284 
L 76.045455 24.277706 
L 76.75 23.295138 
L 77.454545 21.301101 
L 78.863636 16.157064 
L 80.272727 21.792385 
L 80.977273 21.33 
L 81.681818 19.422661 
L 82.386364 12.920367 
L 83.090909 14.567615 
L 83.795455 13.585046 
L 84.5 12.862569 
L 85.204545 17.428624 
L 85.909091 20.087339 
L 86.613636 21.01211 
L 87.318182 19.538257 
L 88.022727 19.567156 
L 88.727273 21.041009 
L 89.431818 18.382294 
L 90.136364 17.399725 
L 90.840909 17.081835 
L 91.545455 17.833211 
L 92.25 21.069908 
L 92.954545 18.757982 
L 93.659091 15.781376 
L 94.363636 15.521284 
L 95.068182 12.920367 
L 95.772727 7.342844 
L 96.477273 5.58 
L 97.181818 7.631835 
L 97.886364 10.31945 
L 98.590909 15.203394 
L 100 21.156606 
L 100.704545 19.278165 
L 101.409091 20.780917 
L 102.113636 23.266239 
L 102.818182 18.960275 
L 103.522727 20.289633 
L 104.227273 18.844679 
L 104.931818 20.405229 
L 105.636364 19.942844 
L 106.340909 18.295596 
L 107.045455 15.607982 
L 107.75 14.07633 
L 108.454545 16.966239 
L 109.159091 20.405229 
L 109.863636 20.896514 
L 110.568182 23.035046 
L 111.272727 18.757982 
L 111.977273 18.295596 
L 112.681818 19.885046 
L 113.386364 14.914404 
L 114.090909 21.156606 
L 114.795455 16.446055 
L 115.5 17.891009 
L 116.204545 18.006606 
L 116.909091 18.989174 
L 117.613636 18.468991 
L 118.318182 19.509358 
L 119.022727 18.902477 
L 119.727273 14.278624 
L 120.431818 15.954771 
L 121.840909 10.752936 
L 122.545455 11.041927 
L 123.25 15.145596 
L 123.954545 14.798807 
L 124.659091 16.157064 
L 125.363636 17.197431 
L 126.068182 16.61945 
L 126.772727 20.000642 
L 127.477273 19.162569 
L 128.181818 15.925872 
L 128.886364 19.624954 
L 129.590909 18.902477 
L 130.295455 17.486422 
L 131 13.007064 
L 131.704545 16.041468 
L 132.409091 16.792844 
L 133.113636 13.642844 
L 133.818182 12.689174 
L 134.522727 11.388716 
L 135.227273 9.452477 
L 135.931818 14.480917 
L 136.636364 14.220826 
L 137.340909 15.925872 
L 138.045455 15.318991 
L 138.75 19.162569 
L 139.454545 16.388257 
L 140.159091 19.653853 
L 140.863636 17.457523 
L 142.272727 20.896514 
L 142.977273 19.596055 
L 143.681818 19.220367 
L 144.386364 16.966239 
L 145.090909 19.335963 
L 145.795455 20.983211 
L 146.5 20.463028 
L 147.204545 16.070367 
L 147.909091 15.607982 
L 148.613636 17.717615 
L 149.318182 21.994679 
L 150.022727 22.60156 
L 150.727273 21.503394 
L 151.431818 22.861651 
L 152.136364 20.925413 
L 152.840909 21.503394 
L 153.545455 18.122202 
L 154.25 15.896972 
L 155.659091 9.163486 
L 155.659091 9.163486 
" clip-path="url(#p23bf99dee8)" style="fill: none; stroke: #1f77b4; stroke-width: 2; stroke-linecap: square"/>
   </g>
   <g id="patch_3">
    <path d="M 22.5 32.04 
L 22.5 4.32 
" style="fill: none; stroke: #000000; stroke-width: 0.8; stroke-linejoin: miter; stroke-linecap: square"/>
   </g>
   <g id="patch_4">
    <path d="M 162 32.04 
L 162 4.32 
" style="fill: none; stroke: #000000; stroke-width: 0.8; stroke-linejoin: miter; stroke-linecap: square"/>
   </g>
   <g id="patch_5">
    <path d="M 22.5 32.04 
L 162 32.04 
" style="fill: none; stroke: #000000; stroke-width: 0.8; stroke-linejoin: miter; stroke-linecap: square"/>
   </g>
   <g id="patch_6">
    <path d="M 22.5 4.32 
L 162 4.32 
" style="fill: none; stroke: #000000; stroke-width: 0.8; stroke-linejoin: miter; stroke-linecap: square"/>
   </g>
  </g>
 </g>
 <defs>
  <clipPath id="p23bf99dee8">
   <rect x="22.5" y="4.32" width="139.5" height="27.72"/>
  </clipPath>
 </defs>
</svg>
