<?xml version="1.0" encoding="utf-8" standalone="no"?>
<!DOCTYPE svg PUBLIC "-//W3C//DTD SVG 1.1//EN"
  "http://www.w3.org/Graphics/SVG/1.1/DTD/svg11.dtd">
<svg xmlns:xlink="http://www.w3.org/1999/xlink" width="180pt" height="36pt" viewBox="0 0 180 36" xmlns="http://www.w3.org/2000/svg" version="1.1">
 <metadata>
  <rdf:RDF xmlns:dc="http://purl.org/dc/elements/1.1/" xmlns:cc="http://creativecommons.org/ns#" xmlns:rdf="http://www.w3.org/1999/02/22-rdf-syntax-ns#">
   <cc:Work>
    <dc:type rdf:resource="http://purl.org/dc/dcmitype/StillImage"/>
    <dc:date>2024-11-13T12:41:20.910740</dc:date>
    <dc:format>image/svg+xml</dc:format>
    <dc:creator>
     <cc:Agent>
      <dc:title>Matplotlib v3.9.1, https://matplotlib.org/</dc:title>
     </cc:Agent>
    </dc:creator>
   </cc:Work>
  </rdf:RDF>
 </metadata>
 <defs>
  <style type="text/css">*{stroke-linejoin: round; stroke-linecap: butt}</style>
 </defs>
 <g id="figure_1">
  <g id="patch_1">
   <path d="M 0 36 
L 180 36 
L 180 0 
L 0 0 
L 0 36 
z
" style="fill: none"/>
  </g>
  <g id="axes_1">
   <g id="patch_2">
    <path d="M 22.5 32.04 
L 162 32.04 
L 162 4.32 
L 22.5 4.32 
L 22.5 32.04 
z
" style="fill: none"/>
   </g>
   <g id="matplotlib.axis_1">
    <g id="xtick_1"/>
    <g id="xtick_2"/>
    <g id="xtick_3"/>
    <g id="xtick_4"/>
   </g>
   <g id="matplotlib.axis_2">
    <g id="ytick_1"/>
    <g id="ytick_2"/>
   </g>
   <g id="line2d_1">
    <path d="M 28.840909 18.950201 
L 29.545455 19.166819 
L 30.25 20.23788 
L 30.954545 20.394327 
L 31.659091 19.732436 
L 32.363636 17.289456 
L 33.068182 19.756504 
L 34.477273 14.653926 
L 35.181818 16.531289 
L 35.886364 16.80808 
L 36.590909 16.880287 
L 37.295455 17.891175 
L 38 19.672264 
L 40.113636 26.38745 
L 40.818182 27.037307 
L 41.522727 28.012092 
L 42.227273 27.013238 
L 42.931818 27.590888 
L 43.636364 29.612665 
L 45.045455 27.506648 
L 45.75 28.986877 
L 46.454545 29.720974 
L 47.159091 30.78 
L 47.863636 30.334728 
L 48.568182 30.045903 
L 49.272727 30.78 
L 49.977273 30.431003 
L 51.386364 30.443037 
L 52.090909 29.829284 
L 53.5 29.468252 
L 54.204545 29.468252 
L 54.909091 29.155358 
L 55.613636 28.324986 
L 56.318182 27.891748 
L 57.022727 28.252779 
L 57.727273 27.65106 
L 58.431818 26.134728 
L 59.136364 25.50894 
L 59.840909 26.736447 
L 60.545455 25.412665 
L 61.25 25.232149 
L 61.954545 23.55937 
L 62.659091 21.429284 
L 63.363636 20.887736 
L 64.068182 20.959943 
L 64.772727 21.645903 
L 65.477273 19.612092 
L 66.181818 22.404069 
L 66.886364 18.035587 
L 67.590909 21.044183 
L 68.295455 19.383438 
L 69 18.119828 
L 69.704545 14.66596 
L 70.409091 14.064241 
L 71.113636 15.303782 
L 71.818182 13.751347 
L 72.522727 16.254499 
L 73.227273 14.702063 
L 73.931818 15.809226 
L 74.636364 12.728424 
L 75.340909 15.977708 
L 76.045455 14.786304 
L 77.454545 9.828138 
L 78.159091 6.277994 
L 78.863636 5.58 
L 79.568182 8.949628 
L 80.272727 8.660802 
L 80.977273 11.693467 
L 81.681818 10.778854 
L 82.386364 11.500917 
L 83.090909 13.474556 
L 83.795455 14.052206 
L 84.5 16.567393 
L 85.204545 15.785158 
L 85.909091 16.771977 
L 86.613636 17.060802 
L 87.318182 15.604642 
L 88.022727 12.427564 
L 88.727273 12.764527 
L 89.431818 12.283152 
L 90.136364 9.647622 
L 90.840909 11.849914 
L 91.545455 12.11467 
L 92.25 12.162808 
L 92.954545 16.061948 
L 93.659091 12.487736 
L 94.363636 12.764527 
L 95.068182 15.580573 
L 95.772727 13.967966 
L 96.477273 14.882579 
L 97.181818 15.267679 
L 98.590909 20.057364 
L 99.295455 21.044183 
L 100 18.637307 
L 101.409091 23.499198 
L 102.113636 21.30894 
L 102.818182 21.164527 
L 103.522727 18.950201 
L 104.227273 21.357077 
L 104.931818 20.225845 
L 105.636364 17.650487 
L 106.340909 17.818968 
L 107.045455 17.590315 
L 107.75 15.773123 
L 108.454545 14.834441 
L 109.159091 13.5949 
L 109.863636 14.208653 
L 110.568182 13.570831 
L 111.272727 14.437307 
L 111.977273 18.167966 
L 112.681818 19.094613 
L 113.386364 18.492894 
L 114.090909 18.071691 
L 114.795455 19.082579 
L 115.5 18.841891 
L 116.204545 17.915244 
L 116.909091 18.5651 
L 117.613636 19.816676 
L 118.318182 22.548481 
L 119.022727 20.141605 
L 119.727273 21.272837 
L 120.431818 19.961089 
L 121.136364 21.778281 
L 121.840909 20.32212 
L 122.545455 21.609799 
L 123.25 19.419542 
L 123.954545 20.851633 
L 124.659091 23.077994 
L 126.068182 23.992607 
L 126.772727 25.328424 
L 127.477273 24.907221 
L 128.181818 25.761662 
L 128.886364 26.363381 
L 129.590909 26.724413 
L 130.295455 25.70149 
L 131.704545 26.495759 
L 132.409091 25.809799 
L 133.113636 24.281433 
L 133.818182 25.328424 
L 134.522727 25.051633 
L 135.227273 25.918109 
L 135.931818 26.026418 
L 136.636364 25.364527 
L 138.045455 22.355931 
L 138.75 21.766246 
L 139.454545 22.692894 
L 140.159091 21.00808 
L 140.863636 18.083725 
L 141.568182 17.542178 
L 142.272727 17.193181 
L 142.977273 12.066533 
L 143.681818 14.124413 
L 144.386364 13.017249 
L 145.090909 13.811519 
L 145.795455 14.076275 
L 146.5 12.439599 
L 147.204545 14.389169 
L 147.909091 16.675702 
L 148.613636 13.462521 
L 149.318182 15.640745 
L 150.022727 15.532436 
L 150.727273 17.096905 
L 151.431818 17.542178 
L 152.136364 20.346189 
L 152.840909 20.021261 
L 153.545455 20.947908 
L 154.25 18.432722 
L 154.954545 20.683152 
L 155.659091 17.289456 
L 155.659091 17.289456 
" clip-path="url(#p4de8dac86e)" style="fill: none; stroke: #1f77b4; stroke-width: 2; stroke-linecap: square"/>
   </g>
   <g id="patch_3">
    <path d="M 22.5 32.04 
L 22.5 4.32 
" style="fill: none; stroke: #000000; stroke-width: 0.8; stroke-linejoin: miter; stroke-linecap: square"/>
   </g>
   <g id="patch_4">
    <path d="M 162 32.04 
L 162 4.32 
" style="fill: none; stroke: #000000; stroke-width: 0.8; stroke-linejoin: miter; stroke-linecap: square"/>
   </g>
   <g id="patch_5">
    <path d="M 22.5 32.04 
L 162 32.04 
" style="fill: none; stroke: #000000; stroke-width: 0.8; stroke-linejoin: miter; stroke-linecap: square"/>
   </g>
   <g id="patch_6">
    <path d="M 22.5 4.32 
L 162 4.32 
" style="fill: none; stroke: #000000; stroke-width: 0.8; stroke-linejoin: miter; stroke-linecap: square"/>
   </g>
  </g>
 </g>
 <defs>
  <clipPath id="p4de8dac86e">
   <rect x="22.5" y="4.32" width="139.5" height="27.72"/>
  </clipPath>
 </defs>
</svg>
