<?xml version="1.0" encoding="utf-8" standalone="no"?>
<!DOCTYPE svg PUBLIC "-//W3C//DTD SVG 1.1//EN"
  "http://www.w3.org/Graphics/SVG/1.1/DTD/svg11.dtd">
<svg xmlns:xlink="http://www.w3.org/1999/xlink" width="180pt" height="36pt" viewBox="0 0 180 36" xmlns="http://www.w3.org/2000/svg" version="1.1">
 <metadata>
  <rdf:RDF xmlns:dc="http://purl.org/dc/elements/1.1/" xmlns:cc="http://creativecommons.org/ns#" xmlns:rdf="http://www.w3.org/1999/02/22-rdf-syntax-ns#">
   <cc:Work>
    <dc:type rdf:resource="http://purl.org/dc/dcmitype/StillImage"/>
    <dc:date>2024-11-13T12:41:18.650409</dc:date>
    <dc:format>image/svg+xml</dc:format>
    <dc:creator>
     <cc:Agent>
      <dc:title>Matplotlib v3.9.1, https://matplotlib.org/</dc:title>
     </cc:Agent>
    </dc:creator>
   </cc:Work>
  </rdf:RDF>
 </metadata>
 <defs>
  <style type="text/css">*{stroke-linejoin: round; stroke-linecap: butt}</style>
 </defs>
 <g id="figure_1">
  <g id="patch_1">
   <path d="M 0 36 
L 180 36 
L 180 0 
L 0 0 
L 0 36 
z
" style="fill: none"/>
  </g>
  <g id="axes_1">
   <g id="patch_2">
    <path d="M 22.5 32.04 
L 162 32.04 
L 162 4.32 
L 22.5 4.32 
L 22.5 32.04 
z
" style="fill: none"/>
   </g>
   <g id="matplotlib.axis_1">
    <g id="xtick_1"/>
    <g id="xtick_2"/>
    <g id="xtick_3"/>
    <g id="xtick_4"/>
   </g>
   <g id="matplotlib.axis_2">
    <g id="ytick_1"/>
    <g id="ytick_2"/>
    <g id="ytick_3"/>
   </g>
   <g id="line2d_1">
    <path d="M 28.840909 20.561583 
L 29.545455 19.543813 
L 30.25 22.739612 
L 30.954545 23.798094 
L 31.659091 26.240743 
L 32.363636 22.515703 
L 33.068182 16.734766 
L 33.772727 13.885008 
L 34.477273 10.343166 
L 35.181818 11.625557 
L 35.886364 18.220711 
L 36.590909 14.292116 
L 37.295455 12.704394 
L 38 18.648174 
L 38.704545 14.007141 
L 39.409091 15.248821 
L 40.113636 15.47273 
L 40.818182 14.556737 
L 41.522727 12.602617 
L 42.227273 13.192924 
L 42.931818 12.663683 
L 43.636364 12.399063 
L 44.340909 14.393893 
L 45.75 17.20294 
L 46.454545 17.874669 
L 47.159091 21.253667 
L 47.863636 21.335089 
L 48.568182 20.17483 
L 49.272727 21.192601 
L 49.977273 20.052698 
L 50.681818 22.149305 
L 51.386364 18.912795 
L 52.090909 18.200355 
L 52.795455 13.009725 
L 53.5 14.393893 
L 54.204545 13.885008 
L 54.909091 9.101486 
L 55.613636 5.966753 
L 56.318182 5.58 
L 57.022727 17.040097 
L 57.727273 14.9842 
L 58.431818 19.136704 
L 59.136364 17.630404 
L 59.840909 19.095994 
L 60.545455 15.411664 
L 61.25 19.218126 
L 61.954545 15.879838 
L 62.659091 20.480162 
L 63.363636 22.271438 
L 64.068182 20.439451 
L 64.772727 19.462391 
L 65.477273 20.337674 
L 66.886364 23.044943 
L 67.590909 23.004233 
L 68.295455 18.912795 
L 69 19.136704 
L 69.704545 23.10601 
L 70.409091 25.569015 
L 71.113636 26.586785 
L 71.818182 27.258514 
L 72.522727 26.322165 
L 73.227273 25.019418 
L 73.931818 24.408756 
L 74.636364 22.943166 
L 75.340909 21.029758 
L 76.045455 17.528627 
L 76.75 21.416511 
L 77.454545 21.86433 
L 78.159091 19.828788 
L 78.863636 17.284362 
L 79.568182 16.6737 
L 80.272727 16.348013 
L 80.977273 17.42685 
L 81.681818 19.340258 
L 82.386364 25.182262 
L 83.090909 23.533473 
L 83.795455 19.747367 
L 84.5 18.912795 
L 85.204545 19.625234 
L 85.909091 19.075638 
L 86.613636 22.149305 
L 87.318182 23.37063 
L 88.022727 21.070468 
L 88.727273 24.958352 
L 89.431818 23.207787 
L 90.136364 25.039774 
L 90.840909 25.996478 
L 91.545455 25.976123 
L 92.25 27.441712 
L 92.954545 29.192278 
L 93.659091 30.433958 
L 95.068182 30.210048 
L 95.772727 28.764814 
L 96.477273 25.161906 
L 97.181818 23.248498 
L 97.886364 18.220711 
L 98.590909 17.040097 
L 99.295455 12.907948 
L 100 15.635574 
L 100.704545 20.927981 
L 101.409091 13.783231 
L 102.113636 15.594863 
L 102.818182 11.584847 
L 103.522727 9.142197 
L 104.227273 14.149628 
L 104.931818 17.895024 
L 105.636364 20.459806 
L 106.340909 21.009402 
L 107.045455 25.955767 
L 107.75 29.171922 
L 108.454545 29.131212 
L 109.159091 29.986139 
L 109.863636 30.230404 
L 110.568182 30.78 
L 111.272727 28.276284 
L 111.977273 24.61231 
L 112.681818 21.966107 
L 114.090909 13.498255 
L 114.795455 12.806171 
L 115.5 7.656252 
L 116.204545 8.429758 
L 116.909091 11.605202 
L 117.613636 8.124426 
L 118.318182 10.587431 
L 119.022727 16.144459 
L 119.727273 19.604879 
L 120.431818 21.172246 
L 121.136364 18.18 
L 121.840909 21.233312 
L 122.545455 23.390985 
L 123.25 23.187431 
L 123.954545 24.083069 
L 124.659091 23.59454 
L 125.363636 29.456898 
L 126.068182 26.34252 
L 126.772727 27.828465 
L 127.477273 28.378061 
L 128.181818 25.772569 
L 128.886364 24.001648 
L 129.590909 25.467237 
L 130.295455 22.556414 
L 131 20.358029 
L 131.704545 15.085977 
L 132.409091 12.317641 
L 133.113636 8.083716 
L 133.818182 8.165137 
L 134.522727 9.345751 
L 135.227273 11.483069 
L 135.931818 16.592278 
L 136.636364 15.513441 
L 137.340909 19.116349 
L 138.045455 25.243328 
L 138.75 27.930242 
L 139.454545 28.154152 
L 140.159091 26.83105 
L 140.863636 26.281454 
L 141.568182 25.446882 
L 142.272727 20.683716 
L 142.977273 17.080808 
L 143.681818 18.851729 
L 144.386364 13.396478 
L 145.090909 13.416834 
L 145.795455 11.788401 
L 146.5 14.373538 
L 147.204545 14.332827 
L 147.909091 14.862068 
L 149.318182 9.630727 
L 150.022727 12.460129 
L 150.727273 7.819095 
L 151.431818 10.892763 
L 152.136364 9.060775 
L 152.840909 8.490824 
L 153.545455 15.778061 
L 154.25 15.798417 
L 154.954545 22.515703 
L 155.659091 21.029758 
L 155.659091 21.029758 
" clip-path="url(#p9ba7799710)" style="fill: none; stroke: #1f77b4; stroke-width: 2; stroke-linecap: square"/>
   </g>
   <g id="patch_3">
    <path d="M 22.5 32.04 
L 22.5 4.32 
" style="fill: none; stroke: #000000; stroke-width: 0.8; stroke-linejoin: miter; stroke-linecap: square"/>
   </g>
   <g id="patch_4">
    <path d="M 162 32.04 
L 162 4.32 
" style="fill: none; stroke: #000000; stroke-width: 0.8; stroke-linejoin: miter; stroke-linecap: square"/>
   </g>
   <g id="patch_5">
    <path d="M 22.5 32.04 
L 162 32.04 
" style="fill: none; stroke: #000000; stroke-width: 0.8; stroke-linejoin: miter; stroke-linecap: square"/>
   </g>
   <g id="patch_6">
    <path d="M 22.5 4.32 
L 162 4.32 
" style="fill: none; stroke: #000000; stroke-width: 0.8; stroke-linejoin: miter; stroke-linecap: square"/>
   </g>
  </g>
 </g>
 <defs>
  <clipPath id="p9ba7799710">
   <rect x="22.5" y="4.32" width="139.5" height="27.72"/>
  </clipPath>
 </defs>
</svg>
