<?xml version="1.0" encoding="utf-8" standalone="no"?>
<!DOCTYPE svg PUBLIC "-//W3C//DTD SVG 1.1//EN"
  "http://www.w3.org/Graphics/SVG/1.1/DTD/svg11.dtd">
<svg xmlns:xlink="http://www.w3.org/1999/xlink" width="180pt" height="36pt" viewBox="0 0 180 36" xmlns="http://www.w3.org/2000/svg" version="1.1">
 <metadata>
  <rdf:RDF xmlns:dc="http://purl.org/dc/elements/1.1/" xmlns:cc="http://creativecommons.org/ns#" xmlns:rdf="http://www.w3.org/1999/02/22-rdf-syntax-ns#">
   <cc:Work>
    <dc:type rdf:resource="http://purl.org/dc/dcmitype/StillImage"/>
    <dc:date>2024-11-13T12:41:21.301478</dc:date>
    <dc:format>image/svg+xml</dc:format>
    <dc:creator>
     <cc:Agent>
      <dc:title>Matplotlib v3.9.1, https://matplotlib.org/</dc:title>
     </cc:Agent>
    </dc:creator>
   </cc:Work>
  </rdf:RDF>
 </metadata>
 <defs>
  <style type="text/css">*{stroke-linejoin: round; stroke-linecap: butt}</style>
 </defs>
 <g id="figure_1">
  <g id="patch_1">
   <path d="M 0 36 
L 180 36 
L 180 0 
L 0 0 
L 0 36 
z
" style="fill: none"/>
  </g>
  <g id="axes_1">
   <g id="patch_2">
    <path d="M 22.5 32.04 
L 162 32.04 
L 162 4.32 
L 22.5 4.32 
L 22.5 32.04 
z
" style="fill: none"/>
   </g>
   <g id="matplotlib.axis_1">
    <g id="xtick_1"/>
    <g id="xtick_2"/>
    <g id="xtick_3"/>
    <g id="xtick_4"/>
   </g>
   <g id="matplotlib.axis_2">
    <g id="ytick_1"/>
    <g id="ytick_2"/>
    <g id="ytick_3"/>
   </g>
   <g id="line2d_1">
    <path d="M 28.840909 23.327059 
L 29.545455 22.338824 
L 30.25 20.259412 
L 30.954545 18.735882 
L 31.659091 20.547647 
L 32.363636 23.491765 
L 34.477273 22.071176 
L 35.181818 19.147647 
L 35.886364 18.282941 
L 36.590909 15.256471 
L 37.295455 10.027059 
L 38 13.382941 
L 38.704545 6.053529 
L 39.409091 12.065294 
L 40.113636 13.794706 
L 40.818182 14.474118 
L 41.522727 13.835882 
L 42.227273 13.424118 
L 42.931818 13.835882 
L 43.636364 16.100588 
L 44.340909 21.227059 
L 45.045455 20.98 
L 45.75 14.803529 
L 46.454545 16.532941 
L 47.159091 16.100588 
L 47.863636 13.835882 
L 48.568182 13.321176 
L 49.272727 13.465294 
L 49.977273 17.644706 
L 50.681818 20.485882 
L 51.386364 20.382941 
L 52.090909 17.006471 
L 52.795455 15.194706 
L 53.5 14.988824 
L 54.204545 15.03 
L 54.909091 8.421176 
L 55.613636 11.859412 
L 56.318182 12.435882 
L 57.022727 16.491765 
L 57.727273 12.353529 
L 58.431818 12.477059 
L 59.136364 10.48 
L 59.840909 9.100588 
L 60.545455 12.23 
L 61.25 11.138824 
L 61.954545 10.541765 
L 63.363636 17.088824 
L 64.068182 22.853529 
L 64.772727 22.832941 
L 65.477273 25.447647 
L 66.181818 25.694706 
L 66.886364 22.606471 
L 67.590909 22.997647 
L 68.295455 19.950588 
L 69.704545 22.174118 
L 71.113636 18.859412 
L 71.818182 19.682941 
L 73.227273 8.874118 
L 73.931818 15.091765 
L 74.636364 8.071176 
L 75.340909 5.58 
L 76.045455 7.968235 
L 76.75 7.741765 
L 77.454545 15.688824 
L 78.159091 17.377059 
L 79.568182 24.418235 
L 80.272727 27.98 
L 80.977273 25.015294 
L 81.681818 27.588824 
L 82.386364 25.694706 
L 83.090909 22.853529 
L 83.795455 24.891765 
L 84.5 19.950588 
L 85.204545 19.085882 
L 85.909091 16.841765 
L 86.613636 17.253529 
L 87.318182 18.962353 
L 88.022727 18.282941 
L 88.727273 14.844706 
L 89.431818 12.724118 
L 90.136364 9.594706 
L 90.840909 16.162353 
L 91.545455 17.809412 
L 92.25 17.541765 
L 92.954545 18.818235 
L 93.659091 19.024118 
L 95.068182 17.768235 
L 95.772727 13.753529 
L 96.477273 23.718235 
L 97.181818 24.191765 
L 97.886364 23.203529 
L 98.590909 26.703529 
L 99.295455 27.321176 
L 100 26.518235 
L 100.704545 27.053529 
L 101.409091 23.162353 
L 102.113636 23.656471 
L 102.818182 21.350588 
L 103.522727 17.006471 
L 104.227273 21.803529 
L 104.931818 18.88 
L 105.636364 17.665294 
L 106.340909 21.844706 
L 107.045455 20.835882 
L 108.454545 20.547647 
L 109.159091 21.082941 
L 109.863636 23.182941 
L 110.568182 18.859412 
L 111.272727 21.144706 
L 111.977273 22.73 
L 112.681818 26.312353 
L 113.386364 27.177059 
L 114.090909 27.382941 
L 115.5 28.968235 
L 116.204545 30.759412 
L 117.613636 28.371176 
L 118.318182 25.324118 
L 119.022727 25.406471 
L 119.727273 25.015294 
L 120.431818 25.694706 
L 121.136364 27.938824 
L 121.840909 29.112353 
L 122.545455 25.941765 
L 123.25 25.900588 
L 123.954545 25.18 
L 124.659091 25.838824 
L 125.363636 25.097647 
L 126.068182 24.582941 
L 127.477273 22.853529 
L 128.181818 19.744706 
L 128.886364 20.053529 
L 129.590909 22.009412 
L 130.295455 21.535882 
L 131.704545 25.612353 
L 133.113636 22.812353 
L 133.818182 19.724118 
L 134.522727 19.58 
L 135.931818 23.018235 
L 136.636364 25.612353 
L 137.340909 26.682941 
L 138.045455 25.653529 
L 138.75 28.453529 
L 139.454545 28.082941 
L 140.159091 26.847647 
L 140.863636 26.374118 
L 141.568182 27.527059 
L 142.272727 25.406471 
L 142.977273 25.447647 
L 143.681818 23.038824 
L 144.386364 22.915294 
L 145.090909 20.012353 
L 145.795455 20.28 
L 146.5 23.244706 
L 147.204545 24.809412 
L 147.909091 25.365294 
L 148.613636 24.747647 
L 149.318182 25.694706 
L 150.022727 25.859412 
L 150.727273 28.782941 
L 151.431818 29.297647 
L 152.136364 28.803529 
L 152.840909 28.803529 
L 153.545455 28.556471 
L 154.25 30.471176 
L 154.954545 30.78 
L 155.659091 29.071176 
L 155.659091 29.071176 
" clip-path="url(#p3c887fd382)" style="fill: none; stroke: #1f77b4; stroke-width: 2; stroke-linecap: square"/>
   </g>
   <g id="patch_3">
    <path d="M 22.5 32.04 
L 22.5 4.32 
" style="fill: none; stroke: #000000; stroke-width: 0.8; stroke-linejoin: miter; stroke-linecap: square"/>
   </g>
   <g id="patch_4">
    <path d="M 162 32.04 
L 162 4.32 
" style="fill: none; stroke: #000000; stroke-width: 0.8; stroke-linejoin: miter; stroke-linecap: square"/>
   </g>
   <g id="patch_5">
    <path d="M 22.5 32.04 
L 162 32.04 
" style="fill: none; stroke: #000000; stroke-width: 0.8; stroke-linejoin: miter; stroke-linecap: square"/>
   </g>
   <g id="patch_6">
    <path d="M 22.5 4.32 
L 162 4.32 
" style="fill: none; stroke: #000000; stroke-width: 0.8; stroke-linejoin: miter; stroke-linecap: square"/>
   </g>
  </g>
 </g>
 <defs>
  <clipPath id="p3c887fd382">
   <rect x="22.5" y="4.32" width="139.5" height="27.72"/>
  </clipPath>
 </defs>
</svg>
