<?xml version="1.0" encoding="utf-8" standalone="no"?>
<!DOCTYPE svg PUBLIC "-//W3C//DTD SVG 1.1//EN"
  "http://www.w3.org/Graphics/SVG/1.1/DTD/svg11.dtd">
<svg xmlns:xlink="http://www.w3.org/1999/xlink" width="180pt" height="36pt" viewBox="0 0 180 36" xmlns="http://www.w3.org/2000/svg" version="1.1">
 <metadata>
  <rdf:RDF xmlns:dc="http://purl.org/dc/elements/1.1/" xmlns:cc="http://creativecommons.org/ns#" xmlns:rdf="http://www.w3.org/1999/02/22-rdf-syntax-ns#">
   <cc:Work>
    <dc:type rdf:resource="http://purl.org/dc/dcmitype/StillImage"/>
    <dc:date>2024-11-13T12:41:21.711456</dc:date>
    <dc:format>image/svg+xml</dc:format>
    <dc:creator>
     <cc:Agent>
      <dc:title>Matplotlib v3.9.1, https://matplotlib.org/</dc:title>
     </cc:Agent>
    </dc:creator>
   </cc:Work>
  </rdf:RDF>
 </metadata>
 <defs>
  <style type="text/css">*{stroke-linejoin: round; stroke-linecap: butt}</style>
 </defs>
 <g id="figure_1">
  <g id="patch_1">
   <path d="M 0 36 
L 180 36 
L 180 0 
L 0 0 
L 0 36 
z
" style="fill: none"/>
  </g>
  <g id="axes_1">
   <g id="patch_2">
    <path d="M 22.5 32.04 
L 162 32.04 
L 162 4.32 
L 22.5 4.32 
L 22.5 32.04 
z
" style="fill: none"/>
   </g>
   <g id="matplotlib.axis_1">
    <g id="xtick_1"/>
    <g id="xtick_2"/>
    <g id="xtick_3"/>
    <g id="xtick_4"/>
   </g>
   <g id="matplotlib.axis_2">
    <g id="ytick_1"/>
    <g id="ytick_2"/>
   </g>
   <g id="line2d_1">
    <path d="M 28.840909 21.806247 
L 29.545455 25.229424 
L 30.25 24.861965 
L 30.954545 28.884682 
L 31.659091 27.782302 
L 32.363636 27.182763 
L 33.068182 25.500184 
L 33.772727 25.384144 
L 34.477273 22.753906 
L 35.181818 22.599186 
L 35.886364 22.908626 
L 36.590909 24.803945 
L 37.295455 24.591205 
L 38 26.389823 
L 38.704545 26.737943 
L 39.409091 28.014382 
L 40.113636 27.240783 
L 40.818182 25.248764 
L 41.522727 25.074705 
L 42.227273 28.517222 
L 42.931818 29.271481 
L 43.636364 30.78 
L 44.340909 28.130422 
L 45.045455 28.072402 
L 45.75 25.519524 
L 46.454545 23.952985 
L 47.159091 21.902947 
L 47.863636 23.121366 
L 48.568182 19.098649 
L 49.272727 17.86089 
L 49.977273 16.178312 
L 50.681818 17.087291 
L 52.090909 19.408089 
L 52.795455 19.988289 
L 53.5 24.030345 
L 54.204545 25.809624 
L 54.909091 24.823285 
L 55.613636 22.889286 
L 56.318182 16.797191 
L 57.022727 18.11231 
L 57.727273 15.868872 
L 58.431818 18.71185 
L 59.136364 18.22835 
L 59.840909 19.156669 
L 60.545455 19.388749 
L 61.25 15.830192 
L 61.954545 15.269332 
L 62.659091 15.249992 
L 63.363636 15.075932 
L 64.068182 13.045234 
L 64.772727 13.006554 
L 65.477273 14.031573 
L 66.181818 18.05429 
L 66.886364 16.874551 
L 67.590909 13.180614 
L 68.295455 17.70617 
L 69 17.183991 
L 69.704545 19.485449 
L 70.409091 19.214689 
L 71.113636 18.24769 
L 71.818182 17.067951 
L 72.522727 17.319371 
L 73.227273 11.072556 
L 73.931818 15.211312 
L 74.636364 10.531036 
L 75.340909 16.777851 
L 76.045455 15.791512 
L 76.75 18.924589 
L 77.454545 21.264728 
L 78.159091 21.864267 
L 78.863636 21.206708 
L 79.568182 25.190744 
L 80.272727 26.718603 
L 80.977273 25.248764 
L 81.681818 23.411466 
L 82.386364 23.082686 
L 83.090909 19.234029 
L 83.795455 20.123668 
L 84.5 22.135027 
L 85.204545 16.932571 
L 85.909091 16.023592 
L 86.613636 13.045234 
L 88.022727 6.256899 
L 88.727273 12.271635 
L 89.431818 7.204559 
L 90.136364 10.569716 
L 91.545455 13.180614 
L 92.25 12.368335 
L 92.954545 5.58 
L 93.659091 8.983837 
L 94.363636 13.644774 
L 95.068182 10.298956 
L 95.772727 10.356976 
L 96.477273 7.494658 
L 97.181818 10.975856 
L 97.886364 12.600414 
L 98.590909 9.796117 
L 99.295455 11.091896 
L 100 10.917836 
L 100.704545 12.078235 
L 101.409091 11.749455 
L 102.113636 13.238634 
L 102.818182 13.315994 
L 103.522727 15.269332 
L 104.227273 11.227276 
L 105.636364 16.352371 
L 106.340909 21.264728 
L 107.045455 19.968949 
L 107.75 22.715226 
L 108.454545 22.251067 
L 109.159091 21.264728 
L 109.863636 22.270407 
L 110.568182 17.99627 
L 111.272727 22.541167 
L 112.681818 16.913231 
L 113.386364 17.222671 
L 114.090909 17.82221 
L 114.795455 16.816531 
L 115.5 16.081612 
L 116.204545 17.74485 
L 116.909091 18.26703 
L 117.613636 19.620829 
L 118.318182 11.207936 
L 119.022727 12.290975 
L 119.727273 12.407015 
L 120.431818 13.393354 
L 121.136364 13.296654 
L 121.840909 14.882533 
L 122.545455 13.315994 
L 123.25 14.031573 
L 123.954545 13.896193 
L 124.659091 11.846155 
L 125.363636 13.896193 
L 126.068182 13.954213 
L 126.772727 14.747153 
L 127.477273 17.164651 
L 128.181818 16.932571 
L 128.886364 15.308012 
L 129.590909 17.91891 
L 130.295455 18.15099 
L 131 19.659509 
L 131.704545 19.292049 
L 132.409091 16.255672 
L 133.113636 10.917836 
L 133.818182 15.888212 
L 134.522727 11.575395 
L 135.227273 14.166953 
L 135.931818 15.559432 
L 136.636364 13.432034 
L 137.340909 10.511696 
L 138.045455 12.735794 
L 138.75 11.149916 
L 139.454545 14.495733 
L 140.159091 14.766493 
L 140.863636 10.937176 
L 141.568182 10.569716 
L 142.272727 15.404712 
L 142.977273 16.023592 
L 143.681818 19.968949 
L 145.090909 23.488826 
L 145.795455 23.778926 
L 146.5 23.450146 
L 147.204545 20.317068 
L 147.909091 21.148688 
L 148.613636 21.670867 
L 149.318182 20.568488 
L 150.022727 22.309087 
L 150.727273 14.843853 
L 151.431818 19.717529 
L 152.136364 13.625434 
L 152.840909 14.341013 
L 153.545455 11.633415 
L 154.25 12.851834 
L 154.954545 12.368335 
L 155.659091 11.207936 
L 155.659091 11.207936 
" clip-path="url(#p60bf26bb5b)" style="fill: none; stroke: #1f77b4; stroke-width: 2; stroke-linecap: square"/>
   </g>
   <g id="patch_3">
    <path d="M 22.5 32.04 
L 22.5 4.32 
" style="fill: none; stroke: #000000; stroke-width: 0.8; stroke-linejoin: miter; stroke-linecap: square"/>
   </g>
   <g id="patch_4">
    <path d="M 162 32.04 
L 162 4.32 
" style="fill: none; stroke: #000000; stroke-width: 0.8; stroke-linejoin: miter; stroke-linecap: square"/>
   </g>
   <g id="patch_5">
    <path d="M 22.5 32.04 
L 162 32.04 
" style="fill: none; stroke: #000000; stroke-width: 0.8; stroke-linejoin: miter; stroke-linecap: square"/>
   </g>
   <g id="patch_6">
    <path d="M 22.5 4.32 
L 162 4.32 
" style="fill: none; stroke: #000000; stroke-width: 0.8; stroke-linejoin: miter; stroke-linecap: square"/>
   </g>
  </g>
 </g>
 <defs>
  <clipPath id="p60bf26bb5b">
   <rect x="22.5" y="4.32" width="139.5" height="27.72"/>
  </clipPath>
 </defs>
</svg>
