<?xml version="1.0" encoding="utf-8" standalone="no"?>
<!DOCTYPE svg PUBLIC "-//W3C//DTD SVG 1.1//EN"
  "http://www.w3.org/Graphics/SVG/1.1/DTD/svg11.dtd">
<svg xmlns:xlink="http://www.w3.org/1999/xlink" width="180pt" height="36pt" viewBox="0 0 180 36" xmlns="http://www.w3.org/2000/svg" version="1.1">
 <metadata>
  <rdf:RDF xmlns:dc="http://purl.org/dc/elements/1.1/" xmlns:cc="http://creativecommons.org/ns#" xmlns:rdf="http://www.w3.org/1999/02/22-rdf-syntax-ns#">
   <cc:Work>
    <dc:type rdf:resource="http://purl.org/dc/dcmitype/StillImage"/>
    <dc:date>2024-11-13T12:41:19.203340</dc:date>
    <dc:format>image/svg+xml</dc:format>
    <dc:creator>
     <cc:Agent>
      <dc:title>Matplotlib v3.9.1, https://matplotlib.org/</dc:title>
     </cc:Agent>
    </dc:creator>
   </cc:Work>
  </rdf:RDF>
 </metadata>
 <defs>
  <style type="text/css">*{stroke-linejoin: round; stroke-linecap: butt}</style>
 </defs>
 <g id="figure_1">
  <g id="patch_1">
   <path d="M 0 36 
L 180 36 
L 180 0 
L 0 0 
L 0 36 
z
" style="fill: none"/>
  </g>
  <g id="axes_1">
   <g id="patch_2">
    <path d="M 22.5 32.04 
L 162 32.04 
L 162 4.32 
L 22.5 4.32 
L 22.5 32.04 
z
" style="fill: none"/>
   </g>
   <g id="matplotlib.axis_1">
    <g id="xtick_1"/>
    <g id="xtick_2"/>
    <g id="xtick_3"/>
    <g id="xtick_4"/>
   </g>
   <g id="matplotlib.axis_2">
    <g id="ytick_1"/>
    <g id="ytick_2"/>
    <g id="ytick_3"/>
   </g>
   <g id="line2d_1">
    <path d="M 28.840909 30.522857 
L 29.545455 30.78 
L 30.25 30.42 
L 30.954545 30.248571 
L 33.068182 30.505714 
L 33.772727 29.991429 
L 34.477273 30.608571 
L 35.181818 30.437143 
L 35.886364 30.66 
L 36.590909 30.522857 
L 37.295455 29.82 
L 38 30.042857 
L 38.704545 29.185714 
L 39.409091 29.888571 
L 40.113636 29.922857 
L 40.818182 28.945714 
L 41.522727 29.802857 
L 42.227273 28.328571 
L 42.931818 28.328571 
L 43.636364 29.888571 
L 44.340909 30.248571 
L 45.045455 29.94 
L 45.75 30.454286 
L 47.159091 30.128571 
L 48.568182 29.682857 
L 49.272727 29.477143 
L 49.977273 29.802857 
L 50.681818 28.945714 
L 51.386364 28.311429 
L 52.090909 28.431429 
L 52.795455 28.86 
L 53.5 29.597143 
L 54.204545 27.951429 
L 54.909091 29.408571 
L 55.613636 27.917143 
L 56.318182 27.848571 
L 57.022727 25.654286 
L 57.727273 24.402857 
L 58.431818 24.865714 
L 59.136364 26.408571 
L 59.840909 24.162857 
L 60.545455 24.694286 
L 61.25 25.637143 
L 61.954545 25.962857 
L 62.659091 23.065714 
L 63.363636 24.248571 
L 64.068182 23.237143 
L 64.772727 23.58 
L 65.477273 23.597143 
L 66.181818 22.242857 
L 66.886364 19.465714 
L 67.590909 17.151429 
L 68.295455 18.488571 
L 69 21.574286 
L 69.704545 21.557143 
L 70.409091 20.168571 
L 71.113636 19.088571 
L 72.522727 14.202857 
L 73.227273 12.505714 
L 73.931818 8.802857 
L 74.636364 10.962857 
L 75.340909 10.654286 
L 76.045455 11.271429 
L 76.75 5.58 
L 77.454545 12.214286 
L 78.159091 14.58 
L 78.863636 16.311429 
L 80.272727 18.351429 
L 80.977273 22.002857 
L 81.681818 20.391429 
L 82.386364 16.825714 
L 83.090909 16.688571 
L 83.795455 15.78 
L 84.5 17.734286 
L 85.204545 18.642857 
L 85.909091 18.025714 
L 86.613636 12.831429 
L 88.727273 15.951429 
L 89.431818 14.322857 
L 90.136364 14.614286 
L 90.840909 12.968571 
L 91.545455 13.654286 
L 92.25 12.728571 
L 92.954545 12.917143 
L 93.659091 16.602857 
L 94.363636 18.625714 
L 95.068182 17.082857 
L 96.477273 23.837143 
L 97.181818 18.968571 
L 97.886364 16.997143 
L 98.590909 8.528571 
L 99.295455 10.774286 
L 100 11.305714 
L 101.409091 13.98 
L 102.113636 12.522857 
L 102.818182 12.454286 
L 103.522727 10.842857 
L 104.227273 14.408571 
L 104.931818 14.768571 
L 105.636364 13.928571 
L 106.340909 18.557143 
L 107.045455 17.528571 
L 108.454545 21.471429 
L 109.159091 21.351429 
L 109.863636 23.237143 
L 110.568182 21.06 
L 111.272727 24.711429 
L 111.977273 26.442857 
L 112.681818 23.305714 
L 113.386364 28.397143 
L 114.090909 28.877143 
L 114.795455 29.974286 
L 116.204545 30.574286 
L 116.909091 30.248571 
L 117.613636 29.322857 
L 118.318182 30.231429 
L 119.022727 28.808571 
L 119.727273 27.094286 
L 120.431818 23.425714 
L 121.136364 20.682857 
L 121.840909 19.02 
L 122.545455 19.054286 
L 123.25 16.894286 
L 123.954545 15.488571 
L 124.659091 14.597143 
L 125.363636 11.477143 
L 126.068182 14.511429 
L 126.772727 12.985714 
L 127.477273 12.968571 
L 128.181818 11.785714 
L 128.886364 12.917143 
L 129.590909 17.837143 
L 130.295455 18.865714 
L 131 22.02 
L 131.704545 20.134286 
L 132.409091 19.877143 
L 133.113636 17.322857 
L 133.818182 17.408571 
L 134.522727 19.757143 
L 135.227273 18.762857 
L 135.931818 19.757143 
L 136.636364 19.328571 
L 137.340909 20.837143 
L 138.045455 20.802857 
L 138.75 21.574286 
L 139.454545 21.197143 
L 140.159091 21.54 
L 140.863636 19.945714 
L 141.568182 21.505714 
L 142.272727 20.185714 
L 142.977273 21.368571 
L 143.681818 21.814286 
L 144.386364 20.305714 
L 145.090909 21.694286 
L 145.795455 21.488571 
L 146.5 23.271429 
L 147.204545 21.882857 
L 148.613636 19.911429 
L 149.318182 19.928571 
L 150.022727 18.351429 
L 150.727273 18.42 
L 151.431818 17.117143 
L 152.136364 18.728571 
L 152.840909 18.882857 
L 153.545455 15.985714 
L 154.25 16.345714 
L 154.954545 17.425714 
L 155.659091 16.174286 
L 155.659091 16.174286 
" clip-path="url(#p9aac54fdcd)" style="fill: none; stroke: #1f77b4; stroke-width: 2; stroke-linecap: square"/>
   </g>
   <g id="patch_3">
    <path d="M 22.5 32.04 
L 22.5 4.32 
" style="fill: none; stroke: #000000; stroke-width: 0.8; stroke-linejoin: miter; stroke-linecap: square"/>
   </g>
   <g id="patch_4">
    <path d="M 162 32.04 
L 162 4.32 
" style="fill: none; stroke: #000000; stroke-width: 0.8; stroke-linejoin: miter; stroke-linecap: square"/>
   </g>
   <g id="patch_5">
    <path d="M 22.5 32.04 
L 162 32.04 
" style="fill: none; stroke: #000000; stroke-width: 0.8; stroke-linejoin: miter; stroke-linecap: square"/>
   </g>
   <g id="patch_6">
    <path d="M 22.5 4.32 
L 162 4.32 
" style="fill: none; stroke: #000000; stroke-width: 0.8; stroke-linejoin: miter; stroke-linecap: square"/>
   </g>
  </g>
 </g>
 <defs>
  <clipPath id="p9aac54fdcd">
   <rect x="22.5" y="4.32" width="139.5" height="27.72"/>
  </clipPath>
 </defs>
</svg>
