<?xml version="1.0" encoding="utf-8" standalone="no"?>
<!DOCTYPE svg PUBLIC "-//W3C//DTD SVG 1.1//EN"
  "http://www.w3.org/Graphics/SVG/1.1/DTD/svg11.dtd">
<svg xmlns:xlink="http://www.w3.org/1999/xlink" width="180pt" height="36pt" viewBox="0 0 180 36" xmlns="http://www.w3.org/2000/svg" version="1.1">
 <metadata>
  <rdf:RDF xmlns:dc="http://purl.org/dc/elements/1.1/" xmlns:cc="http://creativecommons.org/ns#" xmlns:rdf="http://www.w3.org/1999/02/22-rdf-syntax-ns#">
   <cc:Work>
    <dc:type rdf:resource="http://purl.org/dc/dcmitype/StillImage"/>
    <dc:date>2024-11-13T12:41:22.628340</dc:date>
    <dc:format>image/svg+xml</dc:format>
    <dc:creator>
     <cc:Agent>
      <dc:title>Matplotlib v3.9.1, https://matplotlib.org/</dc:title>
     </cc:Agent>
    </dc:creator>
   </cc:Work>
  </rdf:RDF>
 </metadata>
 <defs>
  <style type="text/css">*{stroke-linejoin: round; stroke-linecap: butt}</style>
 </defs>
 <g id="figure_1">
  <g id="patch_1">
   <path d="M 0 36 
L 180 36 
L 180 0 
L 0 0 
L 0 36 
z
" style="fill: none"/>
  </g>
  <g id="axes_1">
   <g id="patch_2">
    <path d="M 22.5 32.04 
L 162 32.04 
L 162 4.32 
L 22.5 4.32 
L 22.5 32.04 
z
" style="fill: none"/>
   </g>
   <g id="matplotlib.axis_1">
    <g id="xtick_1"/>
    <g id="xtick_2"/>
    <g id="xtick_3"/>
    <g id="xtick_4"/>
   </g>
   <g id="matplotlib.axis_2">
    <g id="ytick_1"/>
    <g id="ytick_2"/>
   </g>
   <g id="line2d_1">
    <path d="M 28.840909 24.021818 
L 29.545455 28.431818 
L 30.25 29.233636 
L 30.954545 28.947273 
L 31.659091 26.770909 
L 32.363636 27.687273 
L 33.068182 26.885455 
L 33.772727 28.145455 
L 34.477273 26.713636 
L 35.181818 26.713636 
L 35.886364 26.484545 
L 36.590909 25.396364 
L 37.295455 27.229091 
L 38 27.229091 
L 38.704545 25.396364 
L 39.409091 26.713636 
L 40.113636 26.828182 
L 40.818182 27.687273 
L 41.522727 30.035455 
L 42.227273 28.030909 
L 42.931818 27.171818 
L 43.636364 28.832727 
L 44.340909 29.176364 
L 45.045455 27.63 
L 45.75 27.171818 
L 46.454545 27.687273 
L 47.159091 26.770909 
L 47.863636 27.171818 
L 48.568182 24.193636 
L 49.272727 27.400909 
L 49.977273 27.859091 
L 50.681818 26.541818 
L 51.386364 26.828182 
L 52.090909 28.603636 
L 52.795455 28.718182 
L 53.5 29.119091 
L 54.204545 30.264545 
L 54.909091 30.78 
L 55.613636 28.030909 
L 56.318182 27.171818 
L 57.022727 28.431818 
L 57.727273 27.916364 
L 58.431818 28.374545 
L 59.136364 27.343636 
L 59.840909 27.687273 
L 60.545455 27 
L 61.25 27.171818 
L 61.954545 28.718182 
L 62.659091 27.973636 
L 63.363636 27 
L 64.068182 29.233636 
L 64.772727 26.656364 
L 65.477273 25.797273 
L 66.181818 28.546364 
L 66.886364 28.030909 
L 67.590909 27.687273 
L 68.295455 27.572727 
L 69 29.004545 
L 69.704545 28.374545 
L 70.409091 29.061818 
L 71.113636 29.176364 
L 71.818182 29.634545 
L 72.522727 29.233636 
L 73.227273 26.713636 
L 73.931818 26.942727 
L 74.636364 26.484545 
L 75.340909 27.229091 
L 76.045455 26.026364 
L 76.75 28.718182 
L 77.454545 28.088182 
L 78.159091 25.682727 
L 78.863636 28.202727 
L 79.568182 26.312727 
L 80.272727 27.114545 
L 80.977273 26.942727 
L 81.681818 24.308182 
L 82.386364 26.484545 
L 83.090909 25.396364 
L 83.795455 20.470909 
L 84.5 21.559091 
L 85.204545 20.127273 
L 85.909091 24.136364 
L 86.613636 22.933636 
L 87.318182 24.422727 
L 88.022727 23.792727 
L 88.727273 22.704545 
L 89.431818 21.33 
L 90.136364 17.492727 
L 90.840909 21.788182 
L 91.545455 20.528182 
L 92.25 25.625455 
L 92.954545 27.572727 
L 93.659091 26.026364 
L 94.363636 27 
L 95.068182 20.470909 
L 95.772727 16.92 
L 97.181818 5.58 
L 97.886364 8.787273 
L 98.590909 15.488182 
L 99.295455 20.929091 
L 100 21.444545 
L 100.704545 24.651818 
L 101.409091 21.272727 
L 102.113636 21.100909 
L 102.818182 21.215455 
L 103.522727 19.210909 
L 104.227273 21.444545 
L 104.931818 20.470909 
L 105.636364 21.33 
L 106.340909 20.929091 
L 107.045455 25.854545 
L 107.75 24.537273 
L 108.454545 25.797273 
L 109.159091 22.418182 
L 109.863636 20.413636 
L 110.568182 10.62 
L 111.272727 13.712727 
L 111.977273 15.430909 
L 112.681818 16.29 
L 113.386364 11.020909 
L 114.090909 11.708182 
L 114.795455 12.166364 
L 115.5 12.968182 
L 116.204545 12.968182 
L 116.909091 14.285455 
L 117.613636 12.968182 
L 118.318182 17.721818 
L 119.022727 17.950909 
L 119.727273 14.686364 
L 120.431818 15.201818 
L 121.136364 18.981818 
L 121.840909 21.501818 
L 122.545455 16.748182 
L 123.25 16.690909 
L 123.954545 7.584545 
L 124.659091 14.800909 
L 125.363636 15.201818 
L 126.068182 11.020909 
L 126.772727 17.091818 
L 127.477273 19.382727 
L 128.181818 20.986364 
L 128.886364 18.81 
L 129.590909 21.272727 
L 130.295455 21.272727 
L 131 22.59 
L 131.704545 21.501818 
L 132.409091 22.074545 
L 133.113636 22.819091 
L 133.818182 18.008182 
L 134.522727 18.752727 
L 135.227273 21.387273 
L 135.931818 21.559091 
L 136.636364 18.924545 
L 137.340909 19.325455 
L 138.045455 16.977273 
L 138.75 18.237273 
L 139.454545 18.294545 
L 140.159091 14.514545 
L 140.863636 14.056364 
L 141.568182 15.488182 
L 142.272727 20.184545 
L 142.977273 23.563636 
L 143.681818 25.453636 
L 144.386364 25.396364 
L 145.090909 25.052727 
L 145.795455 23.334545 
L 146.5 23.907273 
L 147.204545 19.325455 
L 147.909091 21.272727 
L 148.613636 20.241818 
L 149.318182 21.33 
L 150.022727 19.44 
L 150.727273 18.122727 
L 151.431818 21.100909 
L 152.136364 18.351818 
L 152.840909 22.532727 
L 153.545455 22.532727 
L 154.25 20.757273 
L 155.659091 16.519091 
L 155.659091 16.519091 
" clip-path="url(#p13b983bbd5)" style="fill: none; stroke: #1f77b4; stroke-width: 2; stroke-linecap: square"/>
   </g>
   <g id="patch_3">
    <path d="M 22.5 32.04 
L 22.5 4.32 
" style="fill: none; stroke: #000000; stroke-width: 0.8; stroke-linejoin: miter; stroke-linecap: square"/>
   </g>
   <g id="patch_4">
    <path d="M 162 32.04 
L 162 4.32 
" style="fill: none; stroke: #000000; stroke-width: 0.8; stroke-linejoin: miter; stroke-linecap: square"/>
   </g>
   <g id="patch_5">
    <path d="M 22.5 32.04 
L 162 32.04 
" style="fill: none; stroke: #000000; stroke-width: 0.8; stroke-linejoin: miter; stroke-linecap: square"/>
   </g>
   <g id="patch_6">
    <path d="M 22.5 4.32 
L 162 4.32 
" style="fill: none; stroke: #000000; stroke-width: 0.8; stroke-linejoin: miter; stroke-linecap: square"/>
   </g>
  </g>
 </g>
 <defs>
  <clipPath id="p13b983bbd5">
   <rect x="22.5" y="4.32" width="139.5" height="27.72"/>
  </clipPath>
 </defs>
</svg>
