<?xml version="1.0" encoding="utf-8" standalone="no"?>
<!DOCTYPE svg PUBLIC "-//W3C//DTD SVG 1.1//EN"
  "http://www.w3.org/Graphics/SVG/1.1/DTD/svg11.dtd">
<svg xmlns:xlink="http://www.w3.org/1999/xlink" width="180pt" height="36pt" viewBox="0 0 180 36" xmlns="http://www.w3.org/2000/svg" version="1.1">
 <metadata>
  <rdf:RDF xmlns:dc="http://purl.org/dc/elements/1.1/" xmlns:cc="http://creativecommons.org/ns#" xmlns:rdf="http://www.w3.org/1999/02/22-rdf-syntax-ns#">
   <cc:Work>
    <dc:type rdf:resource="http://purl.org/dc/dcmitype/StillImage"/>
    <dc:date>2024-11-13T12:41:22.760441</dc:date>
    <dc:format>image/svg+xml</dc:format>
    <dc:creator>
     <cc:Agent>
      <dc:title>Matplotlib v3.9.1, https://matplotlib.org/</dc:title>
     </cc:Agent>
    </dc:creator>
   </cc:Work>
  </rdf:RDF>
 </metadata>
 <defs>
  <style type="text/css">*{stroke-linejoin: round; stroke-linecap: butt}</style>
 </defs>
 <g id="figure_1">
  <g id="patch_1">
   <path d="M 0 36 
L 180 36 
L 180 0 
L 0 0 
L 0 36 
z
" style="fill: none"/>
  </g>
  <g id="axes_1">
   <g id="patch_2">
    <path d="M 22.5 32.04 
L 162 32.04 
L 162 4.32 
L 22.5 4.32 
L 22.5 32.04 
z
" style="fill: none"/>
   </g>
   <g id="matplotlib.axis_1">
    <g id="xtick_1"/>
    <g id="xtick_2"/>
    <g id="xtick_3"/>
    <g id="xtick_4"/>
   </g>
   <g id="matplotlib.axis_2">
    <g id="ytick_1"/>
    <g id="ytick_2"/>
   </g>
   <g id="line2d_1">
    <path d="M 28.840909 23.530946 
L 29.545455 21.775912 
L 30.25 25.152445 
L 30.954545 25.762892 
L 31.659091 19.601196 
L 32.363636 19.811037 
L 33.068182 12.027843 
L 33.772727 16.758804 
L 34.477273 14.908388 
L 35.181818 11.970613 
L 35.886364 15.576064 
L 36.590909 12.25676 
L 37.295455 12.676442 
L 39.409091 24.198622 
L 40.113636 23.092188 
L 40.818182 22.5962 
L 41.522727 27.289008 
L 42.227273 17.769856 
L 42.931818 17.292945 
L 43.636364 19.238743 
L 44.340909 20.326101 
L 45.045455 18.075079 
L 45.75 15.080076 
L 46.454545 12.695519 
L 47.159091 16.415428 
L 48.568182 5.58 
L 49.272727 11.207555 
L 49.977273 15.213611 
L 50.681818 16.434504 
L 51.386364 19.734731 
L 52.090909 25.858274 
L 52.795455 24.141393 
L 53.5 18.475685 
L 54.204545 22.157441 
L 54.909091 23.550023 
L 55.613636 25.93458 
L 56.318182 22.844194 
L 57.022727 24.026934 
L 57.727273 24.770916 
L 58.431818 29.27296 
L 59.136364 28.109296 
L 59.840909 28.662513 
L 60.545455 25.648433 
L 61.25 21.241771 
L 61.954545 21.394383 
L 62.659091 22.310053 
L 63.363636 24.618304 
L 64.068182 13.401347 
L 64.772727 9.109145 
L 65.477273 9.204527 
L 66.181818 15.308993 
L 67.590909 17.235715 
L 68.295455 20.402407 
L 69 25.648433 
L 69.704545 25.953656 
L 70.409091 27.784996 
L 71.113636 29.27296 
L 71.818182 29.578183 
L 72.522727 28.548055 
L 73.227273 23.607252 
L 73.931818 23.073111 
L 74.636364 19.830114 
L 75.340909 19.143361 
L 76.045455 19.429508 
L 76.75 18.132309 
L 77.454545 16.568039 
L 78.159091 10.673414 
L 78.863636 11.417396 
L 79.568182 10.558955 
L 80.272727 11.436472 
L 80.977273 13.649341 
L 81.681818 22.233747 
L 82.386364 19.25782 
L 83.090909 17.407403 
L 83.795455 21.508842 
L 84.5 21.623301 
L 85.204545 26.812097 
L 85.909091 21.222695 
L 86.613636 22.386359 
L 87.318182 19.009826 
L 88.022727 19.811037 
L 88.727273 8.422392 
L 89.431818 10.005738 
L 90.136364 8.956533 
L 90.840909 9.910356 
L 91.545455 9.376215 
L 92.25 9.643285 
L 92.954545 13.82103 
L 93.659091 19.906419 
L 94.363636 23.473717 
L 95.068182 29.005889 
L 95.772727 29.578183 
L 96.477273 21.108236 
L 97.181818 23.378335 
L 97.886364 24.637381 
L 98.590909 26.20165 
L 99.295455 24.274928 
L 100 23.18757 
L 100.704545 23.149417 
L 101.409091 18.590144 
L 102.113636 16.930492 
L 102.818182 22.00483 
L 103.522727 22.386359 
L 104.227273 27.422544 
L 104.931818 22.329129 
L 105.636364 19.734731 
L 106.340909 22.157441 
L 107.045455 23.397411 
L 107.75 21.41346 
L 108.454545 23.435564 
L 109.159091 20.17349 
L 109.863636 21.012854 
L 110.568182 21.394383 
L 111.272727 23.149417 
L 111.977273 20.955625 
L 112.681818 19.791961 
L 113.386364 24.294005 
L 114.090909 27.670537 
L 114.795455 28.03299 
L 115.5 28.185602 
L 116.204545 29.768948 
L 116.909091 28.548055 
L 117.613636 24.332157 
L 118.318182 25.324133 
L 119.022727 22.100212 
L 119.727273 23.321105 
L 120.431818 26.506874 
L 121.136364 25.781968 
L 122.545455 20.020878 
L 123.25 24.332157 
L 123.954545 23.683558 
L 124.659091 23.817093 
L 125.363636 26.010886 
L 126.772727 22.977729 
L 127.477273 21.108236 
L 128.181818 25.228751 
L 129.590909 27.899455 
L 130.295455 28.62436 
L 131 29.139425 
L 131.704545 27.842226 
L 132.409091 28.319137 
L 133.113636 29.520954 
L 133.818182 25.629357 
L 134.522727 26.182574 
L 135.227273 22.786964 
L 135.931818 28.776972 
L 136.636364 26.068115 
L 137.340909 25.400439 
L 138.045455 24.408463 
L 138.75 24.408463 
L 139.454545 25.114292 
L 140.159091 25.34321 
L 140.863636 27.994837 
L 141.568182 30.150477 
L 142.272727 30.341241 
L 142.977273 27.994837 
L 143.681818 30.78 
L 145.090909 25.324133 
L 145.795455 26.220727 
L 146.5 24.656457 
L 147.204545 23.51187 
L 147.909091 26.545026 
L 148.613636 25.381363 
L 149.318182 27.346238 
L 150.022727 27.994837 
L 150.727273 28.223755 
L 151.431818 26.564103 
L 152.136364 23.721711 
L 152.840909 23.435564 
L 153.545455 22.176518 
L 154.25 24.10324 
L 154.954545 22.748812 
L 155.659091 22.157441 
L 155.659091 22.157441 
" clip-path="url(#p735e841891)" style="fill: none; stroke: #1f77b4; stroke-width: 2; stroke-linecap: square"/>
   </g>
   <g id="patch_3">
    <path d="M 22.5 32.04 
L 22.5 4.32 
" style="fill: none; stroke: #000000; stroke-width: 0.8; stroke-linejoin: miter; stroke-linecap: square"/>
   </g>
   <g id="patch_4">
    <path d="M 162 32.04 
L 162 4.32 
" style="fill: none; stroke: #000000; stroke-width: 0.8; stroke-linejoin: miter; stroke-linecap: square"/>
   </g>
   <g id="patch_5">
    <path d="M 22.5 32.04 
L 162 32.04 
" style="fill: none; stroke: #000000; stroke-width: 0.8; stroke-linejoin: miter; stroke-linecap: square"/>
   </g>
   <g id="patch_6">
    <path d="M 22.5 4.32 
L 162 4.32 
" style="fill: none; stroke: #000000; stroke-width: 0.8; stroke-linejoin: miter; stroke-linecap: square"/>
   </g>
  </g>
 </g>
 <defs>
  <clipPath id="p735e841891">
   <rect x="22.5" y="4.32" width="139.5" height="27.72"/>
  </clipPath>
 </defs>
</svg>
