<?xml version="1.0" encoding="utf-8" standalone="no"?>
<!DOCTYPE svg PUBLIC "-//W3C//DTD SVG 1.1//EN"
  "http://www.w3.org/Graphics/SVG/1.1/DTD/svg11.dtd">
<svg xmlns:xlink="http://www.w3.org/1999/xlink" width="180pt" height="36pt" viewBox="0 0 180 36" xmlns="http://www.w3.org/2000/svg" version="1.1">
 <metadata>
  <rdf:RDF xmlns:dc="http://purl.org/dc/elements/1.1/" xmlns:cc="http://creativecommons.org/ns#" xmlns:rdf="http://www.w3.org/1999/02/22-rdf-syntax-ns#">
   <cc:Work>
    <dc:type rdf:resource="http://purl.org/dc/dcmitype/StillImage"/>
    <dc:date>2024-11-13T12:41:18.219903</dc:date>
    <dc:format>image/svg+xml</dc:format>
    <dc:creator>
     <cc:Agent>
      <dc:title>Matplotlib v3.9.1, https://matplotlib.org/</dc:title>
     </cc:Agent>
    </dc:creator>
   </cc:Work>
  </rdf:RDF>
 </metadata>
 <defs>
  <style type="text/css">*{stroke-linejoin: round; stroke-linecap: butt}</style>
 </defs>
 <g id="figure_1">
  <g id="patch_1">
   <path d="M 0 36 
L 180 36 
L 180 0 
L 0 0 
L 0 36 
z
" style="fill: none"/>
  </g>
  <g id="axes_1">
   <g id="patch_2">
    <path d="M 22.5 32.04 
L 162 32.04 
L 162 4.32 
L 22.5 4.32 
L 22.5 32.04 
z
" style="fill: none"/>
   </g>
   <g id="matplotlib.axis_1">
    <g id="xtick_1"/>
    <g id="xtick_2"/>
    <g id="xtick_3"/>
    <g id="xtick_4"/>
   </g>
   <g id="matplotlib.axis_2">
    <g id="ytick_1"/>
    <g id="ytick_2"/>
   </g>
   <g id="line2d_1">
    <path d="M 28.840909 19.89018 
L 29.545455 23.033892 
L 30.25 24.09018 
L 30.954545 25.599162 
L 31.659091 23.788383 
L 32.363636 24.442275 
L 33.068182 23.989581 
L 33.772727 20.644671 
L 34.477273 22.908144 
L 35.181818 22.329701 
L 35.886364 19.588383 
L 36.590909 21.49976 
L 37.295455 18.054251 
L 38 21.273413 
L 38.704545 22.832695 
L 39.409091 20.493772 
L 40.113636 22.656647 
L 40.818182 20.493772 
L 42.227273 22.908144 
L 42.931818 19.638683 
L 43.636364 19.588383 
L 44.340909 19.764431 
L 45.045455 18.431497 
L 45.75 20.166826 
L 46.454545 18.003952 
L 47.159091 18.431497 
L 47.863636 19.211138 
L 48.568182 21.374012 
L 49.272727 19.135689 
L 49.977273 20.72012 
L 50.681818 26.353653 
L 51.386364 30.78 
L 52.795455 27.912934 
L 53.5 28.642275 
L 54.204545 25.69976 
L 54.909091 22.078204 
L 55.613636 23.461437 
L 56.318182 23.939281 
L 57.022727 23.687784 
L 57.727273 24.467425 
L 58.431818 22.782395 
L 59.136364 22.078204 
L 59.840909 21.826707 
L 60.545455 18.98479 
L 61.25 21.977605 
L 61.954545 23.511737 
L 62.659091 23.436287 
L 63.363636 25.951257 
L 64.068182 24.92012 
L 64.772727 25.071018 
L 66.181818 17.802754 
L 66.886364 17.576407 
L 67.590909 19.613533 
L 68.295455 17.450659 
L 69 15.815928 
L 69.704545 19.412335 
L 70.409091 15.941677 
L 71.113636 13.426707 
L 71.818182 15.941677 
L 72.522727 12.370419 
L 73.227273 14.382395 
L 73.931818 6.636287 
L 74.636364 5.58 
L 75.340909 11.288982 
L 76.045455 8.522515 
L 76.75 11.615928 
L 77.454545 13.049461 
L 78.159091 15.765629 
L 78.863636 16.218323 
L 79.568182 21.223114 
L 80.977273 22.480599 
L 81.681818 22.103353 
L 82.386364 23.763234 
L 83.090909 24.241078 
L 83.795455 23.989581 
L 85.204545 17.551257 
L 85.909091 16.922515 
L 86.613636 18.481796 
L 87.318182 22.857844 
L 88.022727 22.304551 
L 88.727273 19.236287 
L 89.431818 18.607545 
L 90.136364 17.123713 
L 90.840909 17.073413 
L 91.545455 15.488982 
L 92.25 10.836287 
L 92.954545 14.684192 
L 93.659091 13.98 
L 94.363636 12.848263 
L 95.068182 8.497365 
L 95.772727 10.081796 
L 96.477273 8.92491 
L 97.181818 13.074611 
L 97.886364 9.80515 
L 98.590909 10.408743 
L 99.295455 17.777605 
L 100 19.362036 
L 100.704545 15.891377 
L 101.409091 19.261437 
L 102.113636 17.802754 
L 102.818182 17.023114 
L 103.522727 17.048263 
L 104.227273 16.645868 
L 104.931818 12.948862 
L 106.340909 14.181198 
L 107.045455 14.130898 
L 107.75 14.759641 
L 108.454545 18.808743 
L 109.159091 19.135689 
L 109.863636 18.557246 
L 110.568182 19.311737 
L 111.272727 21.801557 
L 111.977273 16.067425 
L 112.681818 19.714132 
L 113.386364 17.123713 
L 114.090909 18.884192 
L 114.795455 19.990778 
L 115.5 19.261437 
L 116.204545 17.123713 
L 116.909091 12.445868 
L 117.613636 8.849461 
L 118.318182 14.432695 
L 119.022727 12.345269 
L 119.727273 12.496168 
L 120.431818 16.972814 
L 121.136364 16.218323 
L 121.840909 16.394371 
L 122.545455 15.514132 
L 123.25 15.162036 
L 123.954545 16.394371 
L 124.659091 15.212335 
L 125.363636 12.999162 
L 126.068182 14.80994 
L 126.772727 15.966826 
L 127.477273 17.626707 
L 128.181818 17.752455 
L 128.886364 18.003952 
L 129.590909 18.708144 
L 130.295455 18.934491 
L 131 22.681796 
L 131.704545 19.336886 
L 132.409091 20.820719 
L 133.818182 18.506946 
L 134.522727 19.588383 
L 135.227273 18.708144 
L 135.931818 13.678204 
L 136.636364 13.95485 
L 137.340909 16.620719 
L 138.045455 12.068623 
L 138.75 9.679401 
L 139.454545 10.408743 
L 140.159091 10.081796 
L 140.863636 9.956048 
L 141.568182 14.78479 
L 142.272727 12.747665 
L 142.977273 14.608743 
L 143.681818 15.514132 
L 144.386364 17.802754 
L 145.090909 17.37521 
L 145.795455 18.003952 
L 146.5 19.387186 
L 147.204545 17.023114 
L 147.909091 18.532096 
L 149.318182 16.922515 
L 150.022727 16.771617 
L 150.727273 16.293772 
L 151.431818 19.387186 
L 152.136364 18.657844 
L 152.840909 19.110539 
L 153.545455 14.130898 
L 154.25 13.703353 
L 154.954545 19.814731 
L 155.659091 21.57521 
L 155.659091 21.57521 
" clip-path="url(#p0ca3df2e3c)" style="fill: none; stroke: #1f77b4; stroke-width: 2; stroke-linecap: square"/>
   </g>
   <g id="patch_3">
    <path d="M 22.5 32.04 
L 22.5 4.32 
" style="fill: none; stroke: #000000; stroke-width: 0.8; stroke-linejoin: miter; stroke-linecap: square"/>
   </g>
   <g id="patch_4">
    <path d="M 162 32.04 
L 162 4.32 
" style="fill: none; stroke: #000000; stroke-width: 0.8; stroke-linejoin: miter; stroke-linecap: square"/>
   </g>
   <g id="patch_5">
    <path d="M 22.5 32.04 
L 162 32.04 
" style="fill: none; stroke: #000000; stroke-width: 0.8; stroke-linejoin: miter; stroke-linecap: square"/>
   </g>
   <g id="patch_6">
    <path d="M 22.5 4.32 
L 162 4.32 
" style="fill: none; stroke: #000000; stroke-width: 0.8; stroke-linejoin: miter; stroke-linecap: square"/>
   </g>
  </g>
 </g>
 <defs>
  <clipPath id="p0ca3df2e3c">
   <rect x="22.5" y="4.32" width="139.5" height="27.72"/>
  </clipPath>
 </defs>
</svg>
