<?xml version="1.0" encoding="utf-8" standalone="no"?>
<!DOCTYPE svg PUBLIC "-//W3C//DTD SVG 1.1//EN"
  "http://www.w3.org/Graphics/SVG/1.1/DTD/svg11.dtd">
<svg xmlns:xlink="http://www.w3.org/1999/xlink" width="180pt" height="36pt" viewBox="0 0 180 36" xmlns="http://www.w3.org/2000/svg" version="1.1">
 <metadata>
  <rdf:RDF xmlns:dc="http://purl.org/dc/elements/1.1/" xmlns:cc="http://creativecommons.org/ns#" xmlns:rdf="http://www.w3.org/1999/02/22-rdf-syntax-ns#">
   <cc:Work>
    <dc:type rdf:resource="http://purl.org/dc/dcmitype/StillImage"/>
    <dc:date>2024-11-13T12:41:23.006027</dc:date>
    <dc:format>image/svg+xml</dc:format>
    <dc:creator>
     <cc:Agent>
      <dc:title>Matplotlib v3.9.1, https://matplotlib.org/</dc:title>
     </cc:Agent>
    </dc:creator>
   </cc:Work>
  </rdf:RDF>
 </metadata>
 <defs>
  <style type="text/css">*{stroke-linejoin: round; stroke-linecap: butt}</style>
 </defs>
 <g id="figure_1">
  <g id="patch_1">
   <path d="M 0 36 
L 180 36 
L 180 0 
L 0 0 
L 0 36 
z
" style="fill: none"/>
  </g>
  <g id="axes_1">
   <g id="patch_2">
    <path d="M 22.5 32.04 
L 162 32.04 
L 162 4.32 
L 22.5 4.32 
L 22.5 32.04 
z
" style="fill: none"/>
   </g>
   <g id="matplotlib.axis_1">
    <g id="xtick_1"/>
    <g id="xtick_2"/>
    <g id="xtick_3"/>
    <g id="xtick_4"/>
   </g>
   <g id="matplotlib.axis_2">
    <g id="ytick_1"/>
    <g id="ytick_2"/>
   </g>
   <g id="line2d_1">
    <path d="M 28.840909 20.83125 
L 29.545455 20.7525 
L 30.25 26.4225 
L 30.954545 28.1025 
L 31.659091 29.02125 
L 32.363636 27.86625 
L 33.068182 28.2075 
L 33.772727 27.945 
L 34.477273 30.4125 
L 35.181818 30.78 
L 35.886364 28.68 
L 36.590909 28.1025 
L 37.295455 27.81375 
L 38 28.68 
L 38.704545 28.81125 
L 39.409091 25.8975 
L 40.113636 25.45125 
L 40.818182 25.97625 
L 41.522727 24.19125 
L 42.227273 25.6875 
L 42.931818 22.695 
L 43.636364 22.77375 
L 44.340909 20.7 
L 45.75 17.55 
L 46.454545 15.9225 
L 47.863636 9.9375 
L 48.568182 13.8225 
L 49.272727 11.0925 
L 49.977273 10.83 
L 50.681818 14.21625 
L 51.386364 12.51 
L 52.090909 12.90375 
L 52.795455 14.21625 
L 53.5 18.15375 
L 54.204545 15.05625 
L 54.909091 16.7625 
L 55.613636 19.72875 
L 56.318182 21.93375 
L 57.022727 20.8575 
L 57.727273 20.93625 
L 58.431818 19.46625 
L 59.136364 19.125 
L 59.840909 18.915 
L 60.545455 18.5475 
L 61.25 19.83375 
L 61.954545 16.71 
L 62.659091 19.125 
L 63.363636 17.3925 
L 64.068182 14.19 
L 64.772727 15.47625 
L 65.477273 18.57375 
L 66.181818 17.94375 
L 66.886364 15.94875 
L 67.590909 21.09375 
L 68.295455 17.1825 
L 69 18.9675 
L 69.704545 17.52375 
L 70.409091 19.7025 
L 71.818182 12.825 
L 72.522727 15.00375 
L 73.931818 17.31375 
L 74.636364 17.36625 
L 75.340909 18.73125 
L 76.045455 20.93625 
L 76.75 21.5925 
L 77.454545 21.04125 
L 78.159091 21.93375 
L 78.863636 20.72625 
L 79.568182 21.1725 
L 80.272727 22.98375 
L 80.977273 21.96 
L 81.681818 16.3425 
L 82.386364 16.08 
L 83.090909 17.15625 
L 84.5 9.78 
L 85.204545 15.66 
L 85.909091 13.21875 
L 86.613636 16.15875 
L 87.318182 14.16375 
L 88.022727 16.10625 
L 88.727273 19.02 
L 90.136364 12.11625 
L 90.840909 12.72 
L 91.545455 12.8775 
L 92.25 14.05875 
L 92.954545 11.0925 
L 93.659091 15.63375 
L 95.068182 10.095 
L 95.772727 11.9325 
L 96.477273 12.11625 
L 97.181818 9.0975 
L 97.886364 11.775 
L 98.590909 12.37875 
L 99.295455 5.58 
L 100 10.59375 
L 100.704545 17.2875 
L 101.409091 14.89875 
L 102.113636 17.78625 
L 102.818182 19.23 
L 103.522727 17.31375 
L 104.227273 20.5425 
L 104.931818 19.7025 
L 105.636364 22.9575 
L 106.340909 22.2225 
L 107.045455 17.6025 
L 107.75 16.6575 
L 109.159091 19.57125 
L 109.863636 19.30875 
L 110.568182 19.1775 
L 111.977273 18.10125 
L 112.681818 20.2275 
L 113.386364 18.81 
L 114.090909 17.89125 
L 114.795455 15.73875 
L 115.5 12.43125 
L 116.204545 10.2525 
L 116.909091 15.73875 
L 117.613636 15.94875 
L 118.318182 13.69125 
L 119.022727 18.915 
L 119.727273 18.8625 
L 120.431818 19.44 
L 121.136364 16.36875 
L 121.840909 17.10375 
L 122.545455 19.0725 
L 123.25 20.6475 
L 123.954545 22.7475 
L 124.659091 21.1725 
L 125.363636 17.13 
L 126.068182 18.46875 
L 126.772727 15.63375 
L 127.477273 11.11875 
L 128.181818 13.37625 
L 128.886364 16.29 
L 129.590909 16.21125 
L 130.295455 19.04625 
L 131 20.2275 
L 131.704545 22.0125 
L 132.409091 22.59 
L 133.113636 25.95 
L 133.818182 27.44625 
L 134.522727 27.44625 
L 135.931818 25.6875 
L 136.636364 26.58 
L 137.340909 24.3225 
L 138.045455 24.0075 
L 138.75 21.645 
L 139.454545 23.50875 
L 140.159091 21.61875 
L 140.863636 20.91 
L 141.568182 18.41625 
L 142.272727 18.6525 
L 142.977273 19.44 
L 143.681818 18.62625 
L 144.386364 18.81 
L 145.090909 19.335 
L 147.204545 26.34375 
L 147.909091 25.92375 
L 148.613636 24.3225 
L 149.318182 24.92625 
L 150.022727 23.2725 
L 151.431818 21.09375 
L 152.136364 21.88125 
L 152.840909 23.61375 
L 153.545455 23.71875 
L 154.25 25.76625 
L 154.954545 25.74 
L 155.659091 24.5325 
L 155.659091 24.5325 
" clip-path="url(#pd800c99cbc)" style="fill: none; stroke: #1f77b4; stroke-width: 2; stroke-linecap: square"/>
   </g>
   <g id="patch_3">
    <path d="M 22.5 32.04 
L 22.5 4.32 
" style="fill: none; stroke: #000000; stroke-width: 0.8; stroke-linejoin: miter; stroke-linecap: square"/>
   </g>
   <g id="patch_4">
    <path d="M 162 32.04 
L 162 4.32 
" style="fill: none; stroke: #000000; stroke-width: 0.8; stroke-linejoin: miter; stroke-linecap: square"/>
   </g>
   <g id="patch_5">
    <path d="M 22.5 32.04 
L 162 32.04 
" style="fill: none; stroke: #000000; stroke-width: 0.8; stroke-linejoin: miter; stroke-linecap: square"/>
   </g>
   <g id="patch_6">
    <path d="M 22.5 4.32 
L 162 4.32 
" style="fill: none; stroke: #000000; stroke-width: 0.8; stroke-linejoin: miter; stroke-linecap: square"/>
   </g>
  </g>
 </g>
 <defs>
  <clipPath id="pd800c99cbc">
   <rect x="22.5" y="4.32" width="139.5" height="27.72"/>
  </clipPath>
 </defs>
</svg>
