<?xml version="1.0" encoding="utf-8" standalone="no"?>
<!DOCTYPE svg PUBLIC "-//W3C//DTD SVG 1.1//EN"
  "http://www.w3.org/Graphics/SVG/1.1/DTD/svg11.dtd">
<svg xmlns:xlink="http://www.w3.org/1999/xlink" width="180pt" height="36pt" viewBox="0 0 180 36" xmlns="http://www.w3.org/2000/svg" version="1.1">
 <metadata>
  <rdf:RDF xmlns:dc="http://purl.org/dc/elements/1.1/" xmlns:cc="http://creativecommons.org/ns#" xmlns:rdf="http://www.w3.org/1999/02/22-rdf-syntax-ns#">
   <cc:Work>
    <dc:type rdf:resource="http://purl.org/dc/dcmitype/StillImage"/>
    <dc:date>2024-11-13T12:41:19.025297</dc:date>
    <dc:format>image/svg+xml</dc:format>
    <dc:creator>
     <cc:Agent>
      <dc:title>Matplotlib v3.9.1, https://matplotlib.org/</dc:title>
     </cc:Agent>
    </dc:creator>
   </cc:Work>
  </rdf:RDF>
 </metadata>
 <defs>
  <style type="text/css">*{stroke-linejoin: round; stroke-linecap: butt}</style>
 </defs>
 <g id="figure_1">
  <g id="patch_1">
   <path d="M 0 36 
L 180 36 
L 180 0 
L 0 0 
L 0 36 
z
" style="fill: none"/>
  </g>
  <g id="axes_1">
   <g id="patch_2">
    <path d="M 22.5 32.04 
L 162 32.04 
L 162 4.32 
L 22.5 4.32 
L 22.5 32.04 
z
" style="fill: none"/>
   </g>
   <g id="matplotlib.axis_1">
    <g id="xtick_1"/>
    <g id="xtick_2"/>
    <g id="xtick_3"/>
    <g id="xtick_4"/>
   </g>
   <g id="matplotlib.axis_2">
    <g id="ytick_1"/>
    <g id="ytick_2"/>
   </g>
   <g id="line2d_1">
    <path d="M 28.840909 21.351219 
L 29.545455 18.913007 
L 30.25 19.869773 
L 30.954545 18.94387 
L 31.659091 18.342033 
L 32.363636 19.237073 
L 33.068182 16.274182 
L 33.772727 17.909945 
L 34.477273 17.771059 
L 35.886364 25.548647 
L 36.590909 27.601066 
L 37.295455 28.619559 
L 38 28.5424 
L 38.704545 29.900392 
L 39.409091 29.313987 
L 40.113636 30.085573 
L 40.818182 30.101004 
L 41.522727 30.625683 
L 42.931818 30.224458 
L 43.636364 29.468304 
L 44.340909 28.943625 
L 45.045455 26.459118 
L 45.75 26.443686 
L 46.454545 23.78943 
L 47.159091 24.823356 
L 47.863636 23.69684 
L 48.568182 23.835726 
L 49.272727 21.829602 
L 49.977273 24.993105 
L 50.681818 24.190655 
L 51.386364 24.468426 
L 52.090909 24.977673 
L 52.795455 21.335787 
L 53.5 19.453117 
L 54.204545 12.586001 
L 55.613636 9.191023 
L 56.318182 5.58 
L 57.022727 10.826785 
L 57.727273 8.820661 
L 58.431818 14.468671 
L 59.136364 15.487165 
L 59.840909 20.718518 
L 60.545455 19.113619 
L 61.25 19.406822 
L 62.659091 16.258751 
L 63.363636 13.959424 
L 64.068182 14.869896 
L 64.772727 15.595187 
L 65.477273 14.900759 
L 66.181818 16.351341 
L 66.886364 17.092064 
L 67.590909 16.814293 
L 68.295455 21.166038 
L 69 20.980857 
L 69.704545 23.233889 
L 70.409091 22.61662 
L 71.818182 26.505413 
L 72.522727 23.403637 
L 73.227273 20.811108 
L 73.931818 20.240135 
L 74.636364 18.40376 
L 75.340909 14.715579 
L 76.045455 19.237073 
L 76.75 16.906883 
L 77.454545 18.866712 
L 78.159091 19.962364 
L 78.863636 17.585879 
L 79.568182 14.576693 
L 81.681818 25.471488 
L 82.386364 26.875775 
L 83.090909 27.415885 
L 83.795455 27.493043 
L 84.5 28.326356 
L 85.204545 30.78 
L 85.909091 30.039277 
L 86.613636 30.347912 
L 87.318182 27.786246 
L 89.431818 24.267814 
L 90.136364 25.178285 
L 90.840909 22.508598 
L 91.545455 24.360404 
L 92.25 24.68447 
L 92.954545 23.619682 
L 93.659091 22.292554 
L 94.363636 20.579633 
L 95.068182 21.088879 
L 95.772727 19.823478 
L 96.477273 21.737012 
L 97.181818 19.977795 
L 97.886364 17.894513 
L 98.590909 18.712394 
L 99.295455 14.746442 
L 100 16.474795 
L 100.704545 14.962486 
L 102.113636 18.635236 
L 102.818182 18.696963 
L 103.522727 22.493166 
L 104.227273 23.203025 
L 104.931818 26.783184 
L 105.636364 26.952933 
L 106.340909 26.057893 
L 107.045455 23.804862 
L 107.75 24.931378 
L 108.454545 22.632051 
L 109.159091 24.483858 
L 109.863636 17.879081 
L 110.568182 19.592002 
L 111.272727 21.845034 
L 111.977273 20.471611 
L 112.681818 23.480796 
L 113.386364 23.125867 
L 114.090909 23.095003 
L 114.795455 25.57951 
L 115.5 26.135052 
L 116.204545 23.372774 
L 116.909091 26.181347 
L 117.613636 27.230704 
L 118.318182 24.406699 
L 119.022727 25.502352 
L 119.727273 21.845034 
L 120.431818 22.724642 
L 121.136364 20.209271 
L 121.840909 18.264874 
L 122.545455 17.693901 
L 123.25 20.471611 
L 123.954545 19.993227 
L 124.659091 19.051892 
L 125.363636 16.212456 
L 126.068182 18.743258 
L 126.772727 17.477857 
L 127.477273 17.446993 
L 128.181818 16.443931 
L 128.886364 13.264997 
L 129.590909 16.289614 
L 130.295455 16.289614 
L 131 15.548892 
L 131.704545 15.826663 
L 132.409091 15.672345 
L 133.113636 18.727826 
L 133.818182 20.687655 
L 134.522727 18.866712 
L 135.227273 19.514844 
L 135.931818 21.058016 
L 136.636364 21.304923 
L 137.340909 20.949994 
L 138.045455 19.885205 
L 138.75 22.307985 
L 139.454545 17.817355 
L 140.159091 16.089002 
L 140.863636 16.582817 
L 141.568182 16.783429 
L 142.272727 15.163099 
L 142.977273 13.218702 
L 143.681818 15.903821 
L 144.386364 15.379143 
L 145.090909 16.243319 
L 145.795455 15.502596 
L 146.5 16.721702 
L 147.204545 21.320355 
L 147.909091 24.993105 
L 148.613636 27.122682 
L 149.318182 27.925132 
L 150.022727 27.385021 
L 150.727273 28.959057 
L 151.431818 29.823233 
L 152.136364 29.144238 
L 152.840909 29.992982 
L 153.545455 29.715211 
L 154.25 28.588696 
L 154.954545 25.332603 
L 155.659091 24.777061 
L 155.659091 24.777061 
" clip-path="url(#p7b7a6d9aa2)" style="fill: none; stroke: #1f77b4; stroke-width: 2; stroke-linecap: square"/>
   </g>
   <g id="patch_3">
    <path d="M 22.5 32.04 
L 22.5 4.32 
" style="fill: none; stroke: #000000; stroke-width: 0.8; stroke-linejoin: miter; stroke-linecap: square"/>
   </g>
   <g id="patch_4">
    <path d="M 162 32.04 
L 162 4.32 
" style="fill: none; stroke: #000000; stroke-width: 0.8; stroke-linejoin: miter; stroke-linecap: square"/>
   </g>
   <g id="patch_5">
    <path d="M 22.5 32.04 
L 162 32.04 
" style="fill: none; stroke: #000000; stroke-width: 0.8; stroke-linejoin: miter; stroke-linecap: square"/>
   </g>
   <g id="patch_6">
    <path d="M 22.5 4.32 
L 162 4.32 
" style="fill: none; stroke: #000000; stroke-width: 0.8; stroke-linejoin: miter; stroke-linecap: square"/>
   </g>
  </g>
 </g>
 <defs>
  <clipPath id="p7b7a6d9aa2">
   <rect x="22.5" y="4.32" width="139.5" height="27.72"/>
  </clipPath>
 </defs>
</svg>
