<?xml version="1.0" encoding="utf-8" standalone="no"?>
<!DOCTYPE svg PUBLIC "-//W3C//DTD SVG 1.1//EN"
  "http://www.w3.org/Graphics/SVG/1.1/DTD/svg11.dtd">
<svg xmlns:xlink="http://www.w3.org/1999/xlink" width="180pt" height="36pt" viewBox="0 0 180 36" xmlns="http://www.w3.org/2000/svg" version="1.1">
 <metadata>
  <rdf:RDF xmlns:dc="http://purl.org/dc/elements/1.1/" xmlns:cc="http://creativecommons.org/ns#" xmlns:rdf="http://www.w3.org/1999/02/22-rdf-syntax-ns#">
   <cc:Work>
    <dc:type rdf:resource="http://purl.org/dc/dcmitype/StillImage"/>
    <dc:date>2024-11-13T12:41:20.287875</dc:date>
    <dc:format>image/svg+xml</dc:format>
    <dc:creator>
     <cc:Agent>
      <dc:title>Matplotlib v3.9.1, https://matplotlib.org/</dc:title>
     </cc:Agent>
    </dc:creator>
   </cc:Work>
  </rdf:RDF>
 </metadata>
 <defs>
  <style type="text/css">*{stroke-linejoin: round; stroke-linecap: butt}</style>
 </defs>
 <g id="figure_1">
  <g id="patch_1">
   <path d="M 0 36 
L 180 36 
L 180 0 
L 0 0 
L 0 36 
z
" style="fill: none"/>
  </g>
  <g id="axes_1">
   <g id="patch_2">
    <path d="M 22.5 32.04 
L 162 32.04 
L 162 4.32 
L 22.5 4.32 
L 22.5 32.04 
z
" style="fill: none"/>
   </g>
   <g id="matplotlib.axis_1">
    <g id="xtick_1"/>
    <g id="xtick_2"/>
    <g id="xtick_3"/>
    <g id="xtick_4"/>
   </g>
   <g id="matplotlib.axis_2">
    <g id="ytick_1"/>
    <g id="ytick_2"/>
    <g id="ytick_3"/>
   </g>
   <g id="line2d_1">
    <path d="M 28.840909 16.147742 
L 29.545455 19.30022 
L 30.25 18.289048 
L 30.954545 20.33122 
L 31.659091 21.401873 
L 32.363636 21.679449 
L 33.068182 18.586452 
L 33.772727 17.020126 
L 34.477273 17.971817 
L 35.181818 18.328702 
L 35.886364 18.546798 
L 36.590909 20.826892 
L 37.295455 22.036334 
L 38 23.880236 
L 38.704545 26.695657 
L 39.409091 28.836963 
L 40.113636 29.550732 
L 40.818182 28.618867 
L 41.522727 30.760173 
L 42.931818 30.680865 
L 43.636364 29.927443 
L 44.340909 30.601558 
L 45.045455 29.411943 
L 45.75 29.411943 
L 46.454545 29.967097 
L 47.159091 30.78 
L 48.568182 29.986924 
L 49.272727 26.180157 
L 49.977273 24.296601 
L 50.681818 24.276774 
L 51.386364 22.175122 
L 52.090909 17.020126 
L 52.795455 18.487317 
L 53.5 16.881338 
L 54.204545 13.153879 
L 54.909091 15.116743 
L 55.613636 11.09188 
L 56.318182 10.536727 
L 57.022727 7.344595 
L 57.727273 7.126499 
L 58.431818 10.100535 
L 59.136364 11.528072 
L 59.840909 13.590071 
L 60.545455 21.084642 
L 61.25 21.322565 
L 61.954545 23.582832 
L 62.659091 18.665759 
L 63.363636 20.64845 
L 64.068182 19.676932 
L 64.772727 16.524453 
L 65.477273 14.601243 
L 66.181818 14.640897 
L 66.886364 12.896129 
L 67.590909 5.798096 
L 68.295455 7.126499 
L 69 8.157498 
L 69.704545 13.986609 
L 70.409091 12.856475 
L 71.113636 17.05978 
L 71.818182 17.833029 
L 72.522727 19.498489 
L 73.227273 21.937199 
L 73.931818 23.483698 
L 74.636364 23.067333 
L 75.340909 21.957026 
L 76.045455 23.880236 
L 76.75 24.514697 
L 77.454545 22.274256 
L 78.159091 19.201086 
L 78.863636 18.963163 
L 79.568182 19.419182 
L 80.272727 20.529489 
L 80.977273 19.756239 
L 81.681818 16.683068 
L 82.386364 18.289048 
L 83.795455 8.653171 
L 84.5 8.732478 
L 85.204545 13.748686 
L 85.909091 16.088261 
L 86.613636 16.583934 
L 87.318182 17.991644 
L 88.022727 20.192431 
L 88.727273 20.965681 
L 89.431818 23.027679 
L 90.136364 24.415563 
L 90.840909 19.161432 
L 91.545455 18.606279 
L 92.25 16.385665 
L 92.954545 12.18236 
L 93.659091 9.406593 
L 94.363636 9.94192 
L 95.068182 6.868749 
L 95.772727 11.825476 
L 96.477273 9.723824 
L 97.181818 13.193533 
L 97.886364 14.323666 
L 98.590909 12.400456 
L 99.295455 16.207223 
L 100 13.134052 
L 100.704545 13.371975 
L 101.409091 13.21336 
L 102.113636 13.292667 
L 103.522727 12.222014 
L 104.227273 13.233186 
L 104.931818 7.205806 
L 105.636364 5.58 
L 106.340909 9.961747 
L 107.75 15.235704 
L 108.454545 15.71155 
L 109.159091 18.804548 
L 109.863636 20.787238 
L 110.568182 21.005334 
L 111.272727 23.642313 
L 111.977273 18.566625 
L 112.681818 19.835547 
L 113.386364 18.447663 
L 114.090909 17.733895 
L 114.795455 14.740031 
L 115.5 14.938301 
L 116.204545 16.683068 
L 116.909091 15.096916 
L 117.613636 13.78834 
L 118.318182 16.782203 
L 119.022727 15.533108 
L 119.727273 16.22705 
L 120.431818 17.733895 
L 121.136364 17.238222 
L 121.840909 18.388183 
L 122.545455 15.691723 
L 123.25 16.920991 
L 123.954545 17.733895 
L 124.659091 13.827994 
L 125.363636 16.484799 
L 126.068182 17.833029 
L 126.772727 15.215877 
L 127.477273 16.901164 
L 128.181818 16.385665 
L 128.886364 19.676932 
L 129.590909 19.082124 
L 130.295455 18.308875 
L 131 15.691723 
L 131.704545 11.191015 
L 132.409091 10.179843 
L 133.113636 20.291566 
L 133.818182 18.764894 
L 134.522727 22.928544 
L 135.227273 25.188812 
L 135.931818 25.188812 
L 136.636364 27.25081 
L 137.340909 28.955924 
L 138.045455 28.559386 
L 138.75 27.528387 
L 139.454545 29.17402 
L 140.159091 29.649866 
L 140.863636 29.570559 
L 141.568182 28.85679 
L 142.272727 26.616349 
L 142.977273 26.378426 
L 143.681818 26.3586 
L 144.386364 23.463871 
L 145.090909 21.183777 
L 145.795455 21.282911 
L 146.5 23.34491 
L 147.204545 22.393218 
L 147.909091 21.064815 
L 148.613636 22.274256 
L 149.318182 22.769929 
L 150.022727 22.294083 
L 150.727273 23.285429 
L 152.136364 17.63476 
L 152.840909 16.841684 
L 153.545455 13.78834 
L 154.25 18.645932 
L 154.954545 15.592589 
L 155.659091 17.456318 
L 155.659091 17.456318 
" clip-path="url(#p29a7436520)" style="fill: none; stroke: #1f77b4; stroke-width: 2; stroke-linecap: square"/>
   </g>
   <g id="patch_3">
    <path d="M 22.5 32.04 
L 22.5 4.32 
" style="fill: none; stroke: #000000; stroke-width: 0.8; stroke-linejoin: miter; stroke-linecap: square"/>
   </g>
   <g id="patch_4">
    <path d="M 162 32.04 
L 162 4.32 
" style="fill: none; stroke: #000000; stroke-width: 0.8; stroke-linejoin: miter; stroke-linecap: square"/>
   </g>
   <g id="patch_5">
    <path d="M 22.5 32.04 
L 162 32.04 
" style="fill: none; stroke: #000000; stroke-width: 0.8; stroke-linejoin: miter; stroke-linecap: square"/>
   </g>
   <g id="patch_6">
    <path d="M 22.5 4.32 
L 162 4.32 
" style="fill: none; stroke: #000000; stroke-width: 0.8; stroke-linejoin: miter; stroke-linecap: square"/>
   </g>
  </g>
 </g>
 <defs>
  <clipPath id="p29a7436520">
   <rect x="22.5" y="4.32" width="139.5" height="27.72"/>
  </clipPath>
 </defs>
</svg>
