<?xml version="1.0" encoding="utf-8" standalone="no"?>
<!DOCTYPE svg PUBLIC "-//W3C//DTD SVG 1.1//EN"
  "http://www.w3.org/Graphics/SVG/1.1/DTD/svg11.dtd">
<svg xmlns:xlink="http://www.w3.org/1999/xlink" width="180pt" height="36pt" viewBox="0 0 180 36" xmlns="http://www.w3.org/2000/svg" version="1.1">
 <metadata>
  <rdf:RDF xmlns:dc="http://purl.org/dc/elements/1.1/" xmlns:cc="http://creativecommons.org/ns#" xmlns:rdf="http://www.w3.org/1999/02/22-rdf-syntax-ns#">
   <cc:Work>
    <dc:type rdf:resource="http://purl.org/dc/dcmitype/StillImage"/>
    <dc:date>2024-11-13T12:41:20.603667</dc:date>
    <dc:format>image/svg+xml</dc:format>
    <dc:creator>
     <cc:Agent>
      <dc:title>Matplotlib v3.9.1, https://matplotlib.org/</dc:title>
     </cc:Agent>
    </dc:creator>
   </cc:Work>
  </rdf:RDF>
 </metadata>
 <defs>
  <style type="text/css">*{stroke-linejoin: round; stroke-linecap: butt}</style>
 </defs>
 <g id="figure_1">
  <g id="patch_1">
   <path d="M 0 36 
L 180 36 
L 180 0 
L 0 0 
L 0 36 
z
" style="fill: none"/>
  </g>
  <g id="axes_1">
   <g id="patch_2">
    <path d="M 22.5 32.04 
L 162 32.04 
L 162 4.32 
L 22.5 4.32 
L 22.5 32.04 
z
" style="fill: none"/>
   </g>
   <g id="matplotlib.axis_1">
    <g id="xtick_1"/>
    <g id="xtick_2"/>
    <g id="xtick_3"/>
    <g id="xtick_4"/>
   </g>
   <g id="matplotlib.axis_2">
    <g id="ytick_1"/>
    <g id="ytick_2"/>
   </g>
   <g id="line2d_1">
    <path d="M 28.840909 30.580593 
L 29.545455 29.758042 
L 30.25 30.306409 
L 30.954545 29.633412 
L 31.659091 29.508783 
L 32.363636 29.259525 
L 33.068182 30.107003 
L 33.772727 29.733116 
L 34.477273 29.558635 
L 35.181818 30.78 
L 35.886364 29.234599 
L 36.590909 29.40908 
L 37.295455 28.237567 
L 38 28.686231 
L 39.409091 26.093947 
L 40.113636 26.791869 
L 40.818182 25.171691 
L 42.227273 22.878516 
L 42.931818 22.604332 
L 43.636364 24.82273 
L 44.340909 23.077923 
L 45.045455 24.723027 
L 45.75 23.352107 
L 46.454545 24.174659 
L 47.159091 27.190682 
L 47.863636 23.576439 
L 48.568182 24.772878 
L 49.272727 22.828665 
L 50.681818 20.53549 
L 51.386364 19.538457 
L 52.090909 13.406706 
L 52.795455 14.378813 
L 53.5 14.054777 
L 54.204545 17.245282 
L 54.909091 19.613234 
L 55.613636 25.246469 
L 56.318182 23.701068 
L 57.022727 23.576439 
L 57.727273 24.149733 
L 58.431818 23.426884 
L 59.136364 23.75092 
L 60.545455 22.305223 
L 61.954545 13.780593 
L 62.659091 11.088605 
L 63.363636 11.437567 
L 64.068182 12.160415 
L 64.772727 15.724807 
L 65.477273 15.176439 
L 66.181818 14.378813 
L 66.886364 13.905223 
L 67.590909 14.57822 
L 68.295455 19.887418 
L 69 21.6073 
L 69.704545 22.704036 
L 70.409091 24.124807 
L 71.113636 22.504629 
L 71.818182 22.355074 
L 73.227273 18.26724 
L 73.931818 19.015015 
L 74.636364 21.358042 
L 75.340909 21.108783 
L 76.045455 21.083858 
L 76.75 22.604332 
L 77.454545 25.371098 
L 78.159091 19.887418 
L 78.863636 18.416795 
L 79.568182 19.488605 
L 80.272727 19.862493 
L 80.977273 17.918279 
L 81.681818 20.635193 
L 82.386364 16.796617 
L 83.090909 15.65003 
L 83.795455 19.363976 
L 84.5 19.214421 
L 85.204545 15.874362 
L 86.613636 16.796617 
L 87.318182 19.837567 
L 88.022727 19.688012 
L 88.727273 19.363976 
L 89.431818 16.771691 
L 90.136364 19.63816 
L 90.840909 16.846469 
L 91.545455 17.095727 
L 92.25 18.915312 
L 92.954545 22.305223 
L 93.659091 18.690979 
L 95.068182 19.16457 
L 95.772727 18.815608 
L 96.477273 19.613234 
L 97.181818 18.441721 
L 97.886364 11.213234 
L 98.590909 11.362789 
L 100 10.340831 
L 100.704545 6.502255 
L 101.409091 7.574065 
L 102.113636 7.075549 
L 102.818182 7.399585 
L 103.522727 7.997804 
L 104.227273 5.58 
L 104.931818 10.141424 
L 105.636364 11.263086 
L 106.340909 11.53727 
L 107.045455 11.412641 
L 107.75 15.400772 
L 108.454545 13.331929 
L 109.159091 12.260119 
L 109.863636 17.145579 
L 110.568182 18.017982 
L 111.272727 21.083858 
L 112.681818 23.052997 
L 113.386364 26.991276 
L 115.5 26.143798 
L 116.204545 26.168724 
L 116.909091 24.05003 
L 117.613636 20.061899 
L 118.318182 20.061899 
L 119.022727 16.397804 
L 119.727273 13.830445 
L 120.431818 16.771691 
L 121.136364 17.070801 
L 121.840909 19.039941 
L 122.545455 22.230445 
L 123.25 21.283264 
L 123.954545 22.654184 
L 124.659091 21.582374 
L 125.363636 20.211454 
L 126.068182 22.230445 
L 126.772727 21.632226 
L 127.477273 22.953294 
L 128.181818 21.083858 
L 128.886364 20.036973 
L 129.590909 23.75092 
L 130.295455 22.230445 
L 131 17.818576 
L 131.704545 17.02095 
L 132.409091 16.72184 
L 133.113636 20.410861 
L 133.818182 19.63816 
L 134.522727 21.058932 
L 135.227273 20.809674 
L 135.931818 21.258338 
L 136.636364 21.158635 
L 137.340909 20.560415 
L 138.045455 20.759822 
L 138.75 21.707003 
L 139.454545 20.560415 
L 140.159091 19.189496 
L 140.863636 19.33905 
L 141.568182 19.613234 
L 142.272727 22.604332 
L 142.977273 22.604332 
L 143.681818 21.482671 
L 144.386364 21.283264 
L 145.090909 17.943205 
L 145.795455 17.619169 
L 146.5 20.186528 
L 147.204545 17.320059 
L 147.909091 17.818576 
L 148.613636 17.145579 
L 149.318182 16.946172 
L 150.022727 19.388902 
L 150.727273 17.444688 
L 151.431818 20.834599 
L 152.136364 19.737864 
L 152.840909 20.510564 
L 153.545455 19.63816 
L 154.25 23.825697 
L 154.954545 23.601365 
L 155.659091 26.642315 
L 155.659091 26.642315 
" clip-path="url(#p0cd10e7aa2)" style="fill: none; stroke: #1f77b4; stroke-width: 2; stroke-linecap: square"/>
   </g>
   <g id="patch_3">
    <path d="M 22.5 32.04 
L 22.5 4.32 
" style="fill: none; stroke: #000000; stroke-width: 0.8; stroke-linejoin: miter; stroke-linecap: square"/>
   </g>
   <g id="patch_4">
    <path d="M 162 32.04 
L 162 4.32 
" style="fill: none; stroke: #000000; stroke-width: 0.8; stroke-linejoin: miter; stroke-linecap: square"/>
   </g>
   <g id="patch_5">
    <path d="M 22.5 32.04 
L 162 32.04 
" style="fill: none; stroke: #000000; stroke-width: 0.8; stroke-linejoin: miter; stroke-linecap: square"/>
   </g>
   <g id="patch_6">
    <path d="M 22.5 4.32 
L 162 4.32 
" style="fill: none; stroke: #000000; stroke-width: 0.8; stroke-linejoin: miter; stroke-linecap: square"/>
   </g>
  </g>
 </g>
 <defs>
  <clipPath id="p0cd10e7aa2">
   <rect x="22.5" y="4.32" width="139.5" height="27.72"/>
  </clipPath>
 </defs>
</svg>
