<?xml version="1.0" encoding="utf-8" standalone="no"?>
<!DOCTYPE svg PUBLIC "-//W3C//DTD SVG 1.1//EN"
  "http://www.w3.org/Graphics/SVG/1.1/DTD/svg11.dtd">
<svg xmlns:xlink="http://www.w3.org/1999/xlink" width="180pt" height="36pt" viewBox="0 0 180 36" xmlns="http://www.w3.org/2000/svg" version="1.1">
 <metadata>
  <rdf:RDF xmlns:dc="http://purl.org/dc/elements/1.1/" xmlns:cc="http://creativecommons.org/ns#" xmlns:rdf="http://www.w3.org/1999/02/22-rdf-syntax-ns#">
   <cc:Work>
    <dc:type rdf:resource="http://purl.org/dc/dcmitype/StillImage"/>
    <dc:date>2024-11-13T12:41:18.535392</dc:date>
    <dc:format>image/svg+xml</dc:format>
    <dc:creator>
     <cc:Agent>
      <dc:title>Matplotlib v3.9.1, https://matplotlib.org/</dc:title>
     </cc:Agent>
    </dc:creator>
   </cc:Work>
  </rdf:RDF>
 </metadata>
 <defs>
  <style type="text/css">*{stroke-linejoin: round; stroke-linecap: butt}</style>
 </defs>
 <g id="figure_1">
  <g id="patch_1">
   <path d="M 0 36 
L 180 36 
L 180 0 
L 0 0 
L 0 36 
z
" style="fill: none"/>
  </g>
  <g id="axes_1">
   <g id="patch_2">
    <path d="M 22.5 32.04 
L 162 32.04 
L 162 4.32 
L 22.5 4.32 
L 22.5 32.04 
z
" style="fill: none"/>
   </g>
   <g id="matplotlib.axis_1">
    <g id="xtick_1"/>
    <g id="xtick_2"/>
    <g id="xtick_3"/>
    <g id="xtick_4"/>
   </g>
   <g id="matplotlib.axis_2">
    <g id="ytick_1"/>
    <g id="ytick_2"/>
    <g id="ytick_3"/>
   </g>
   <g id="line2d_1">
    <path d="M 28.840909 21.651954 
L 29.545455 20.724726 
L 30.25 20.930777 
L 30.954545 19.406002 
L 31.659091 16.892183 
L 32.363636 16.830368 
L 33.068182 15.964955 
L 33.772727 11.740916 
L 34.477273 14.666836 
L 35.181818 12.606329 
L 35.886364 20.085969 
L 36.590909 19.179346 
L 37.295455 21.75498 
L 38 25.566917 
L 38.704545 24.742715 
L 39.409091 24.825135 
L 40.113636 21.384088 
L 40.818182 20.53928 
L 41.522727 18.849665 
L 42.227273 22.455552 
L 42.931818 24.351218 
L 43.636364 20.807146 
L 44.340909 21.548929 
L 45.045455 19.385397 
L 45.75 22.908863 
L 46.454545 23.691856 
L 47.159091 22.579182 
L 47.863636 20.992592 
L 48.568182 22.991284 
L 49.272727 18.004857 
L 49.977273 14.295944 
L 50.681818 19.055715 
L 52.795455 22.270106 
L 53.5 24.021537 
L 54.204545 24.206983 
L 54.909091 21.363483 
L 55.613636 23.609436 
L 56.318182 22.661603 
L 57.022727 16.768553 
L 57.727273 16.912788 
L 58.431818 17.180654 
L 59.136364 19.117531 
L 59.840909 13.306901 
L 60.545455 15.408618 
L 61.25 16.397661 
L 61.954545 16.871578 
L 62.659091 19.385397 
L 64.772727 25.299052 
L 65.477273 26.082044 
L 66.181818 25.752363 
L 66.886364 28.224971 
L 67.590909 29.790957 
L 68.295455 28.678283 
L 69 30.203058 
L 69.704545 30.388504 
L 70.409091 29.687931 
L 71.113636 29.23462 
L 71.818182 30.718185 
L 72.522727 29.955797 
L 73.227273 28.884334 
L 73.931818 27.277138 
L 74.636364 29.31704 
L 75.340909 28.863729 
L 76.045455 28.554652 
L 76.75 27.524399 
L 77.454545 27.112298 
L 78.159091 23.897907 
L 78.863636 23.38278 
L 79.568182 21.672559 
L 80.272727 17.963647 
L 80.977273 21.095617 
L 81.681818 19.509027 
L 83.090909 25.093001 
L 83.795455 25.175421 
L 84.5 26.700196 
L 85.204545 22.991284 
L 85.909091 24.474849 
L 86.613636 27.503794 
L 87.318182 26.741406 
L 88.022727 29.19341 
L 88.727273 30.78 
L 89.431818 30.017612 
L 90.136364 30.388504 
L 90.840909 29.914587 
L 91.545455 30.264873 
L 92.25 29.028569 
L 92.954545 29.420065 
L 93.659091 28.018921 
L 94.363636 25.711153 
L 95.068182 24.413034 
L 95.772727 26.3087 
L 96.477273 25.010581 
L 97.181818 21.87861 
L 97.886364 20.436255 
L 98.590909 20.065364 
L 99.295455 20.745331 
L 100 17.592756 
L 100.704545 20.37444 
L 101.409091 20.127179 
L 102.113636 20.848357 
L 102.818182 16.397661 
L 103.522727 17.242469 
L 104.227273 21.672559 
L 104.931818 23.032494 
L 105.636364 19.591447 
L 106.340909 19.818103 
L 107.045455 20.765936 
L 107.75 19.364791 
L 108.454545 18.973295 
L 109.159091 16.377056 
L 109.863636 16.06798 
L 110.568182 12.256043 
L 111.272727 16.109191 
L 111.977273 16.768553 
L 112.681818 14.708046 
L 113.386364 16.335846 
L 114.090909 16.294636 
L 114.795455 16.438872 
L 115.5 14.893491 
L 116.909091 15.964955 
L 117.613636 16.212216 
L 118.318182 16.212216 
L 119.022727 17.201259 
L 119.727273 13.904448 
L 120.431818 18.664219 
L 121.840909 24.165773 
L 122.545455 22.125871 
L 123.25 22.434947 
L 123.954545 21.569534 
L 124.659091 23.362175 
L 125.363636 22.331922 
L 126.068182 25.814178 
L 126.772727 23.032494 
L 127.477273 21.816795 
L 128.181818 18.375748 
L 128.886364 19.509027 
L 129.590909 10.978528 
L 130.295455 16.789158 
L 131 16.850973 
L 131.704545 15.573459 
L 132.409091 15.655879 
L 133.113636 7.825953 
L 133.818182 7.990793 
L 134.522727 7.2078 
L 135.227273 8.217449 
L 135.931818 6.733884 
L 136.636364 11.493655 
L 137.340909 14.069289 
L 138.045455 11.452445 
L 138.75 9.515568 
L 139.454545 5.58 
L 140.159091 7.970188 
L 140.863636 6.404203 
L 141.568182 8.58834 
L 142.272727 15.573459 
L 142.977273 17.510335 
L 143.681818 19.076321 
L 144.386364 18.499379 
L 145.090909 17.736991 
L 145.795455 22.970679 
L 146.5 21.384088 
L 147.204545 26.3087 
L 147.909091 26.123254 
L 148.613636 26.3087 
L 149.318182 24.72211 
L 150.022727 22.764628 
L 150.727273 24.536664 
L 151.431818 22.888258 
L 152.136364 24.495454 
L 152.840909 22.744023 
L 153.545455 18.767244 
L 154.25 20.085969 
L 155.659091 15.573459 
L 155.659091 15.573459 
" clip-path="url(#p995b76b63f)" style="fill: none; stroke: #1f77b4; stroke-width: 2; stroke-linecap: square"/>
   </g>
   <g id="patch_3">
    <path d="M 22.5 32.04 
L 22.5 4.32 
" style="fill: none; stroke: #000000; stroke-width: 0.8; stroke-linejoin: miter; stroke-linecap: square"/>
   </g>
   <g id="patch_4">
    <path d="M 162 32.04 
L 162 4.32 
" style="fill: none; stroke: #000000; stroke-width: 0.8; stroke-linejoin: miter; stroke-linecap: square"/>
   </g>
   <g id="patch_5">
    <path d="M 22.5 32.04 
L 162 32.04 
" style="fill: none; stroke: #000000; stroke-width: 0.8; stroke-linejoin: miter; stroke-linecap: square"/>
   </g>
   <g id="patch_6">
    <path d="M 22.5 4.32 
L 162 4.32 
" style="fill: none; stroke: #000000; stroke-width: 0.8; stroke-linejoin: miter; stroke-linecap: square"/>
   </g>
  </g>
 </g>
 <defs>
  <clipPath id="p995b76b63f">
   <rect x="22.5" y="4.32" width="139.5" height="27.72"/>
  </clipPath>
 </defs>
</svg>
