<?xml version="1.0" encoding="utf-8" standalone="no"?>
<!DOCTYPE svg PUBLIC "-//W3C//DTD SVG 1.1//EN"
  "http://www.w3.org/Graphics/SVG/1.1/DTD/svg11.dtd">
<svg xmlns:xlink="http://www.w3.org/1999/xlink" width="180pt" height="36pt" viewBox="0 0 180 36" xmlns="http://www.w3.org/2000/svg" version="1.1">
 <metadata>
  <rdf:RDF xmlns:dc="http://purl.org/dc/elements/1.1/" xmlns:cc="http://creativecommons.org/ns#" xmlns:rdf="http://www.w3.org/1999/02/22-rdf-syntax-ns#">
   <cc:Work>
    <dc:type rdf:resource="http://purl.org/dc/dcmitype/StillImage"/>
    <dc:date>2024-11-13T12:41:22.522224</dc:date>
    <dc:format>image/svg+xml</dc:format>
    <dc:creator>
     <cc:Agent>
      <dc:title>Matplotlib v3.9.1, https://matplotlib.org/</dc:title>
     </cc:Agent>
    </dc:creator>
   </cc:Work>
  </rdf:RDF>
 </metadata>
 <defs>
  <style type="text/css">*{stroke-linejoin: round; stroke-linecap: butt}</style>
 </defs>
 <g id="figure_1">
  <g id="patch_1">
   <path d="M 0 36 
L 180 36 
L 180 0 
L 0 0 
L 0 36 
z
" style="fill: none"/>
  </g>
  <g id="axes_1">
   <g id="patch_2">
    <path d="M 22.5 32.04 
L 162 32.04 
L 162 4.32 
L 22.5 4.32 
L 22.5 32.04 
z
" style="fill: none"/>
   </g>
   <g id="matplotlib.axis_1">
    <g id="xtick_1"/>
    <g id="xtick_2"/>
    <g id="xtick_3"/>
    <g id="xtick_4"/>
   </g>
   <g id="matplotlib.axis_2">
    <g id="ytick_1"/>
    <g id="ytick_2"/>
   </g>
   <g id="line2d_1">
    <path d="M 28.840909 22.931755 
L 29.545455 22.903216 
L 30.25 24.187475 
L 30.954545 21.076716 
L 31.659091 24.301631 
L 32.363636 25.842741 
L 33.068182 24.815334 
L 33.772727 25.300498 
L 34.477273 23.987701 
L 35.181818 22.960294 
L 35.886364 25.842741 
L 36.590909 24.187475 
L 37.295455 24.472865 
L 38 26.327905 
L 38.704545 26.4706 
L 39.409091 25.528811 
L 40.113636 25.357576 
L 40.818182 22.446591 
L 41.522727 21.476263 
L 42.227273 22.960294 
L 42.931818 20.448856 
L 43.636364 19.250215 
L 44.340909 15.197667 
L 45.045455 12.34376 
L 45.75 11.772978 
L 46.454545 11.601744 
L 47.159091 13.000159 
L 47.863636 18.451121 
L 48.568182 19.250215 
L 49.272727 19.449989 
L 49.977273 17.081246 
L 50.681818 17.709105 
L 51.386364 17.594949 
L 52.090909 14.826659 
L 52.795455 18.822129 
L 53.5 15.197667 
L 54.204545 16.967089 
L 54.909091 10.20333 
L 55.613636 9.204462 
L 56.318182 6.550328 
L 57.022727 6.350555 
L 57.727273 7.206727 
L 58.431818 5.58 
L 59.136364 8.091438 
L 59.840909 12.115447 
L 60.545455 12.65769 
L 61.25 9.689626 
L 61.954545 12.372299 
L 62.659091 13.88487 
L 63.363636 17.851801 
L 64.068182 17.423715 
L 64.772727 18.47966 
L 65.477273 14.370034 
L 66.181818 16.225074 
L 66.886364 15.11205 
L 67.590909 13.485323 
L 68.295455 18.508199 
L 69 20.505934 
L 69.704545 21.647497 
L 70.409091 21.704575 
L 71.113636 18.080113 
L 71.818182 17.052707 
L 72.522727 20.448856 
L 73.227273 20.620091 
L 73.931818 23.645232 
L 74.636364 22.532208 
L 75.340909 22.18974 
L 76.045455 24.529943 
L 76.75 25.528811 
L 77.454545 26.071053 
L 78.159091 27.383851 
L 78.863636 27.383851 
L 79.568182 28.867882 
L 80.977273 26.641835 
L 81.681818 26.727452 
L 83.090909 24.130396 
L 83.795455 24.130396 
L 84.5 22.931755 
L 85.204545 25.414655 
L 85.909091 25.985436 
L 86.613636 25.614428 
L 87.318182 23.217146 
L 88.022727 22.78906 
L 88.727273 18.451121 
L 89.431818 19.963692 
L 90.136364 19.221676 
L 90.840909 21.419185 
L 91.545455 22.589287 
L 92.25 21.133794 
L 92.954545 25.300498 
L 93.659091 24.529943 
L 94.363636 25.471733 
L 95.068182 25.471733 
L 95.772727 27.09846 
L 96.477273 28.154405 
L 97.181818 28.753726 
L 98.590909 30.78 
L 99.295455 30.18068 
L 100 30.066523 
L 100.704545 29.609898 
L 101.409091 27.840476 
L 102.113636 28.01171 
L 102.818182 27.269694 
L 103.522727 26.78453 
L 104.227273 24.387248 
L 104.931818 25.642967 
L 105.636364 23.473998 
L 106.340909 25.015108 
L 107.045455 20.848403 
L 107.75 19.678301 
L 108.454545 18.19427 
L 109.159091 20.306161 
L 109.863636 20.591552 
L 110.568182 17.338097 
L 111.272727 16.881472 
L 111.977273 17.908879 
L 112.681818 17.195402 
L 113.386364 16.910011 
L 114.090909 15.796988 
L 114.795455 16.0253 
L 115.5 11.7159 
L 116.204545 11.573205 
L 116.909091 13.970487 
L 118.318182 17.138324 
L 119.022727 18.308426 
L 119.727273 19.70684 
L 120.431818 18.222809 
L 121.136364 16.0253 
L 121.840909 15.796988 
L 122.545455 14.312956 
L 123.25 15.597214 
L 123.954545 12.486455 
L 124.659091 13.656557 
L 125.363636 11.259275 
L 126.068182 13.485323 
L 126.772727 16.225074 
L 127.477273 12.886002 
L 128.181818 16.795855 
L 128.886364 18.222809 
L 129.590909 18.650895 
L 130.295455 12.886002 
L 131 13.342627 
L 131.704545 15.368901 
L 132.409091 8.804915 
L 133.113636 12.001291 
L 133.818182 14.1988 
L 134.522727 14.569807 
L 135.227273 13.941948 
L 135.931818 14.712503 
L 136.636364 9.832322 
L 137.340909 9.147384 
L 138.045455 11.11658 
L 138.75 17.423715 
L 139.454545 18.023035 
L 140.159091 21.305028 
L 140.863636 22.903216 
L 141.568182 22.132661 
L 142.272727 22.1612 
L 142.977273 22.503669 
L 143.681818 23.987701 
L 144.386364 24.92949 
L 145.090909 23.188607 
L 145.795455 23.588154 
L 146.5 16.767316 
L 147.204545 12.914541 
L 147.909091 12.828924 
L 148.613636 13.941948 
L 149.318182 13.999026 
L 150.022727 17.56641 
L 150.727273 14.084643 
L 151.431818 15.540136 
L 152.136364 17.452254 
L 152.840909 20.02077 
L 153.545455 24.130396 
L 154.25 22.903216 
L 155.659091 24.872412 
L 155.659091 24.872412 
" clip-path="url(#paadbf73dfb)" style="fill: none; stroke: #1f77b4; stroke-width: 2; stroke-linecap: square"/>
   </g>
   <g id="patch_3">
    <path d="M 22.5 32.04 
L 22.5 4.32 
" style="fill: none; stroke: #000000; stroke-width: 0.8; stroke-linejoin: miter; stroke-linecap: square"/>
   </g>
   <g id="patch_4">
    <path d="M 162 32.04 
L 162 4.32 
" style="fill: none; stroke: #000000; stroke-width: 0.8; stroke-linejoin: miter; stroke-linecap: square"/>
   </g>
   <g id="patch_5">
    <path d="M 22.5 32.04 
L 162 32.04 
" style="fill: none; stroke: #000000; stroke-width: 0.8; stroke-linejoin: miter; stroke-linecap: square"/>
   </g>
   <g id="patch_6">
    <path d="M 22.5 4.32 
L 162 4.32 
" style="fill: none; stroke: #000000; stroke-width: 0.8; stroke-linejoin: miter; stroke-linecap: square"/>
   </g>
  </g>
 </g>
 <defs>
  <clipPath id="paadbf73dfb">
   <rect x="22.5" y="4.32" width="139.5" height="27.72"/>
  </clipPath>
 </defs>
</svg>
