<?xml version="1.0" encoding="utf-8" standalone="no"?>
<!DOCTYPE svg PUBLIC "-//W3C//DTD SVG 1.1//EN"
  "http://www.w3.org/Graphics/SVG/1.1/DTD/svg11.dtd">
<svg xmlns:xlink="http://www.w3.org/1999/xlink" width="180pt" height="36pt" viewBox="0 0 180 36" xmlns="http://www.w3.org/2000/svg" version="1.1">
 <metadata>
  <rdf:RDF xmlns:dc="http://purl.org/dc/elements/1.1/" xmlns:cc="http://creativecommons.org/ns#" xmlns:rdf="http://www.w3.org/1999/02/22-rdf-syntax-ns#">
   <cc:Work>
    <dc:type rdf:resource="http://purl.org/dc/dcmitype/StillImage"/>
    <dc:date>2024-11-13T12:41:18.428524</dc:date>
    <dc:format>image/svg+xml</dc:format>
    <dc:creator>
     <cc:Agent>
      <dc:title>Matplotlib v3.9.1, https://matplotlib.org/</dc:title>
     </cc:Agent>
    </dc:creator>
   </cc:Work>
  </rdf:RDF>
 </metadata>
 <defs>
  <style type="text/css">*{stroke-linejoin: round; stroke-linecap: butt}</style>
 </defs>
 <g id="figure_1">
  <g id="patch_1">
   <path d="M 0 36 
L 180 36 
L 180 0 
L 0 0 
L 0 36 
z
" style="fill: none"/>
  </g>
  <g id="axes_1">
   <g id="patch_2">
    <path d="M 22.5 32.04 
L 162 32.04 
L 162 4.32 
L 22.5 4.32 
L 22.5 32.04 
z
" style="fill: none"/>
   </g>
   <g id="matplotlib.axis_1">
    <g id="xtick_1"/>
    <g id="xtick_2"/>
    <g id="xtick_3"/>
    <g id="xtick_4"/>
   </g>
   <g id="matplotlib.axis_2">
    <g id="ytick_1"/>
    <g id="ytick_2"/>
    <g id="ytick_3"/>
   </g>
   <g id="line2d_1">
    <path d="M 28.840909 22.517165 
L 29.545455 20.953481 
L 30.25 20.772423 
L 30.954545 20.11403 
L 31.659091 20.607825 
L 33.068182 17.480457 
L 33.772727 17.891953 
L 34.477273 14.221411 
L 35.181818 15.373599 
L 35.886364 18.912462 
L 36.590909 18.928922 
L 37.295455 21.743553 
L 38 22.615924 
L 38.704545 23.94917 
L 39.409091 23.99855 
L 40.113636 24.558184 
L 40.818182 25.545774 
L 41.522727 23.99855 
L 42.227273 26.665042 
L 42.931818 25.660993 
L 43.636364 27.89953 
L 44.340909 28.442704 
L 45.045455 27.685552 
L 45.75 27.290516 
L 46.454545 26.138328 
L 47.159091 24.113769 
L 47.863636 25.315336 
L 48.568182 24.03147 
L 49.272727 24.706323 
L 50.681818 24.146688 
L 51.386364 23.192018 
L 52.090909 23.652894 
L 52.795455 24.344206 
L 53.5 24.492345 
L 54.204545 25.051979 
L 54.909091 22.895741 
L 55.613636 24.673403 
L 56.318182 24.903841 
L 57.022727 25.94081 
L 57.727273 24.903841 
L 58.431818 25.0026 
L 59.136364 25.595153 
L 59.840909 25.035519 
L 60.545455 27.208217 
L 61.25 27.83369 
L 61.954545 27.224677 
L 62.659091 28.640222 
L 63.363636 27.636172 
L 64.068182 26.401685 
L 64.772727 27.83369 
L 66.181818 26.434605 
L 66.886364 27.932449 
L 67.590909 29.743031 
L 68.295455 30.105147 
L 69 30.78 
L 70.409091 30.105147 
L 72.522727 27.685552 
L 73.227273 27.586793 
L 73.931818 27.603253 
L 74.636364 26.91194 
L 75.340909 25.348256 
L 76.045455 24.838001 
L 76.75 23.850411 
L 77.454545 23.356617 
L 78.159091 21.825852 
L 78.863636 23.01096 
L 80.272727 24.196068 
L 81.681818 24.772162 
L 82.386364 25.825591 
L 83.090909 26.220627 
L 83.795455 24.179608 
L 84.5 22.714683 
L 85.204545 25.677453 
L 85.909091 23.504755 
L 86.613636 24.574644 
L 87.318182 27.504494 
L 88.022727 27.685552 
L 88.727273 28.656682 
L 89.431818 28.393325 
L 90.136364 27.948909 
L 90.840909 27.339895 
L 91.545455 26.220627 
L 92.25 23.932711 
L 92.954545 24.739242 
L 93.659091 24.113769 
L 94.363636 24.574644 
L 95.068182 23.076799 
L 95.772727 20.805343 
L 96.477273 23.175558 
L 97.181818 20.360927 
L 98.590909 18.846623 
L 99.295455 18.13885 
L 100 18.599726 
L 100.704545 21.282678 
L 101.409091 23.323697 
L 102.113636 24.03147 
L 102.818182 25.693912 
L 103.522727 24.739242 
L 104.227273 24.212528 
L 104.931818 24.410046 
L 105.636364 25.117818 
L 106.340909 22.895741 
L 107.045455 25.364716 
L 107.75 22.615924 
L 108.454545 21.0687 
L 109.159091 21.019321 
L 109.863636 21.710634 
L 110.568182 18.566806 
L 111.272727 18.040091 
L 111.977273 15.916773 
L 112.681818 17.068961 
L 113.386364 14.517688 
L 114.090909 17.118341 
L 114.795455 15.406519 
L 115.5 19.883592 
L 116.909091 24.047929 
L 117.613636 28.080588 
L 118.318182 28.245186 
L 119.022727 26.204167 
L 119.727273 27.520954 
L 120.431818 27.076538 
L 122.545455 23.241398 
L 123.25 19.949432 
L 123.954545 18.994762 
L 124.659091 17.677975 
L 126.068182 17.003122 
L 126.772727 16.608086 
L 127.477273 14.583527 
L 128.181818 14.33663 
L 128.886364 12.065173 
L 129.590909 10.46857 
L 130.295455 11.159882 
L 131 11.159882 
L 131.704545 9.958315 
L 132.409091 9.46452 
L 133.113636 10.238132 
L 134.522727 5.58 
L 135.931818 9.629118 
L 136.636364 9.398681 
L 137.340909 13.678236 
L 138.045455 15.538197 
L 138.75 15.949693 
L 139.454545 20.640745 
L 140.863636 21.513116 
L 141.568182 22.418406 
L 142.272727 18.797244 
L 142.977273 13.661777 
L 143.681818 14.353089 
L 144.386364 10.238132 
L 145.090909 12.822325 
L 145.795455 8.921346 
L 146.5 10.764847 
L 147.204545 11.39032 
L 147.909091 8.52631 
L 148.613636 13.744076 
L 149.318182 17.727355 
L 150.022727 18.649105 
L 150.727273 19.044141 
L 152.136364 20.492606 
L 152.840909 21.282678 
L 153.545455 20.179869 
L 154.25 21.578955 
L 154.954545 18.402208 
L 155.659091 21.941071 
L 155.659091 21.941071 
" clip-path="url(#p0472213c61)" style="fill: none; stroke: #1f77b4; stroke-width: 2; stroke-linecap: square"/>
   </g>
   <g id="patch_3">
    <path d="M 22.5 32.04 
L 22.5 4.32 
" style="fill: none; stroke: #000000; stroke-width: 0.8; stroke-linejoin: miter; stroke-linecap: square"/>
   </g>
   <g id="patch_4">
    <path d="M 162 32.04 
L 162 4.32 
" style="fill: none; stroke: #000000; stroke-width: 0.8; stroke-linejoin: miter; stroke-linecap: square"/>
   </g>
   <g id="patch_5">
    <path d="M 22.5 32.04 
L 162 32.04 
" style="fill: none; stroke: #000000; stroke-width: 0.8; stroke-linejoin: miter; stroke-linecap: square"/>
   </g>
   <g id="patch_6">
    <path d="M 22.5 4.32 
L 162 4.32 
" style="fill: none; stroke: #000000; stroke-width: 0.8; stroke-linejoin: miter; stroke-linecap: square"/>
   </g>
  </g>
 </g>
 <defs>
  <clipPath id="p0472213c61">
   <rect x="22.5" y="4.32" width="139.5" height="27.72"/>
  </clipPath>
 </defs>
</svg>
