<?xml version="1.0" encoding="utf-8" standalone="no"?>
<!DOCTYPE svg PUBLIC "-//W3C//DTD SVG 1.1//EN"
  "http://www.w3.org/Graphics/SVG/1.1/DTD/svg11.dtd">
<svg xmlns:xlink="http://www.w3.org/1999/xlink" width="180pt" height="36pt" viewBox="0 0 180 36" xmlns="http://www.w3.org/2000/svg" version="1.1">
 <metadata>
  <rdf:RDF xmlns:dc="http://purl.org/dc/elements/1.1/" xmlns:cc="http://creativecommons.org/ns#" xmlns:rdf="http://www.w3.org/1999/02/22-rdf-syntax-ns#">
   <cc:Work>
    <dc:type rdf:resource="http://purl.org/dc/dcmitype/StillImage"/>
    <dc:date>2024-11-13T12:41:21.599097</dc:date>
    <dc:format>image/svg+xml</dc:format>
    <dc:creator>
     <cc:Agent>
      <dc:title>Matplotlib v3.9.1, https://matplotlib.org/</dc:title>
     </cc:Agent>
    </dc:creator>
   </cc:Work>
  </rdf:RDF>
 </metadata>
 <defs>
  <style type="text/css">*{stroke-linejoin: round; stroke-linecap: butt}</style>
 </defs>
 <g id="figure_1">
  <g id="patch_1">
   <path d="M 0 36 
L 180 36 
L 180 0 
L 0 0 
L 0 36 
z
" style="fill: none"/>
  </g>
  <g id="axes_1">
   <g id="patch_2">
    <path d="M 22.5 32.04 
L 162 32.04 
L 162 4.32 
L 22.5 4.32 
L 22.5 32.04 
z
" style="fill: none"/>
   </g>
   <g id="matplotlib.axis_1">
    <g id="xtick_1"/>
    <g id="xtick_2"/>
    <g id="xtick_3"/>
    <g id="xtick_4"/>
   </g>
   <g id="matplotlib.axis_2">
    <g id="ytick_1"/>
    <g id="ytick_2"/>
    <g id="ytick_3"/>
   </g>
   <g id="line2d_1">
    <path d="M 28.840909 30.287129 
L 29.545455 30.78 
L 30.25 30.096341 
L 30.954545 30.207634 
L 31.659091 29.221893 
L 32.363636 30.11224 
L 33.068182 28.792618 
L 33.772727 29.460379 
L 34.477273 29.746562 
L 35.181818 29.667066 
L 35.886364 29.826057 
L 36.590909 30.159937 
L 37.295455 29.969148 
L 38 29.921451 
L 38.704545 29.015205 
L 40.113636 29.158297 
L 40.818182 29.873754 
L 41.522727 30.016845 
L 42.227273 29.969148 
L 42.931818 29.730662 
L 43.636364 30.398423 
L 44.340909 30.573312 
L 45.045455 29.619369 
L 45.75 30.700505 
L 46.454545 30.398423 
L 47.863636 28.585931 
L 48.568182 29.317287 
L 49.272727 29.364984 
L 49.977273 29.889653 
L 50.681818 29.810158 
L 51.386364 29.396782 
L 52.090909 28.681325 
L 52.795455 29.492177 
L 53.5 30.080442 
L 54.204545 30.462019 
L 54.909091 29.985047 
L 55.613636 29.826057 
L 56.318182 29.317287 
L 57.022727 28.474637 
L 57.727273 29.667066 
L 58.431818 28.872114 
L 59.136364 30.318927 
L 59.840909 29.015205 
L 60.545455 29.714763 
L 61.954545 29.841956 
L 62.659091 30.493817 
L 63.363636 29.667066 
L 64.068182 30.048644 
L 65.477273 29.762461 
L 66.886364 29.905552 
L 67.590909 30.350726 
L 68.295455 30.016845 
L 69 29.969148 
L 69.704545 30.382524 
L 70.409091 30.621009 
L 71.818182 30.064543 
L 72.522727 29.762461 
L 73.227273 30.573312 
L 73.931818 30.318927 
L 75.340909 30.080442 
L 76.045455 29.889653 
L 76.75 29.444479 
L 77.454545 29.635268 
L 78.159091 28.124858 
L 78.863636 26.169274 
L 79.568182 25.151735 
L 80.977273 24.945047 
L 82.386364 23.371041 
L 83.090909 22.591987 
L 83.795455 20.429716 
L 84.5 20.747697 
L 85.204545 23.593628 
L 85.909091 24.436278 
L 86.613636 27.409401 
L 87.318182 27.075521 
L 88.022727 26.900631 
L 88.727273 27.504795 
L 89.431818 26.423659 
L 90.136364 26.185174 
L 90.840909 23.832114 
L 91.545455 23.100757 
L 92.25 20.079937 
L 92.954545 16.232366 
L 93.659091 17.234006 
L 94.363636 15.977981 
L 95.068182 15.278423 
L 95.772727 15.198927 
L 96.477273 9.920442 
L 97.181818 12.623281 
L 97.886364 14.801451 
L 98.590909 14.356278 
L 99.295455 16.16877 
L 100 14.674259 
L 100.704545 12.225804 
L 101.409091 11.812429 
L 102.113636 5.611798 
L 102.818182 5.58 
L 103.522727 8.44183 
L 104.227273 9.459369 
L 104.931818 10.143028 
L 105.636364 12.829968 
L 107.045455 16.900126 
L 107.75 18.124353 
L 108.454545 20.175331 
L 109.159091 19.682461 
L 109.863636 20.811293 
L 110.568182 22.894069 
L 111.272727 21.574448 
L 111.977273 22.162713 
L 112.681818 18.760315 
L 113.386364 18.633123 
L 114.090909 16.868328 
L 114.795455 13.100252 
L 115.5 11.812429 
L 116.204545 5.627697 
L 116.909091 5.675394 
L 117.613636 11.049274 
L 118.318182 6.565741 
L 119.022727 12.607382 
L 119.727273 11.414953 
L 120.431818 9.141388 
L 121.136364 14.833249 
L 121.840909 12.416593 
L 122.545455 14.419874 
L 123.25 14.48347 
L 123.954545 17.090915 
L 124.659091 16.868328 
L 125.363636 16.423155 
L 126.068182 17.154511 
L 126.772727 18.140252 
L 127.477273 14.880946 
L 128.181818 13.545426 
L 128.886364 13.179748 
L 129.590909 11.62164 
L 130.295455 11.176467 
L 131 11.017476 
L 131.704545 12.368896 
L 132.409091 11.367256 
L 133.113636 12.066814 
L 133.818182 16.121073 
L 134.522727 15.882587 
L 135.227273 19.062397 
L 135.931818 16.184669 
L 136.636364 14.30858 
L 137.340909 15.691798 
L 138.75 16.232366 
L 139.454545 15.564606 
L 140.159091 14.419874 
L 140.863636 15.230726 
L 141.568182 9.666057 
L 142.272727 12.368896 
L 142.977273 10.222524 
L 143.681818 11.605741 
L 144.386364 11.637539 
L 145.090909 10.540505 
L 145.795455 8.378233 
L 146.5 13.354637 
L 147.204545 13.624921 
L 147.909091 12.97306 
L 148.613636 13.434132 
L 149.318182 15.167129 
L 150.022727 14.276782 
L 150.727273 13.81571 
L 151.431818 17.218107 
L 152.136364 15.787192 
L 152.840909 17.933565 
L 153.545455 17.790473 
L 154.25 19.459874 
L 154.954545 19.618864 
L 155.659091 17.456593 
L 155.659091 17.456593 
" clip-path="url(#p0f5627e32e)" style="fill: none; stroke: #1f77b4; stroke-width: 2; stroke-linecap: square"/>
   </g>
   <g id="patch_3">
    <path d="M 22.5 32.04 
L 22.5 4.32 
" style="fill: none; stroke: #000000; stroke-width: 0.8; stroke-linejoin: miter; stroke-linecap: square"/>
   </g>
   <g id="patch_4">
    <path d="M 162 32.04 
L 162 4.32 
" style="fill: none; stroke: #000000; stroke-width: 0.8; stroke-linejoin: miter; stroke-linecap: square"/>
   </g>
   <g id="patch_5">
    <path d="M 22.5 32.04 
L 162 32.04 
" style="fill: none; stroke: #000000; stroke-width: 0.8; stroke-linejoin: miter; stroke-linecap: square"/>
   </g>
   <g id="patch_6">
    <path d="M 22.5 4.32 
L 162 4.32 
" style="fill: none; stroke: #000000; stroke-width: 0.8; stroke-linejoin: miter; stroke-linecap: square"/>
   </g>
  </g>
 </g>
 <defs>
  <clipPath id="p0f5627e32e">
   <rect x="22.5" y="4.32" width="139.5" height="27.72"/>
  </clipPath>
 </defs>
</svg>
