<?xml version="1.0" encoding="utf-8" standalone="no"?>
<!DOCTYPE svg PUBLIC "-//W3C//DTD SVG 1.1//EN"
  "http://www.w3.org/Graphics/SVG/1.1/DTD/svg11.dtd">
<svg xmlns:xlink="http://www.w3.org/1999/xlink" width="180pt" height="36pt" viewBox="0 0 180 36" xmlns="http://www.w3.org/2000/svg" version="1.1">
 <metadata>
  <rdf:RDF xmlns:dc="http://purl.org/dc/elements/1.1/" xmlns:cc="http://creativecommons.org/ns#" xmlns:rdf="http://www.w3.org/1999/02/22-rdf-syntax-ns#">
   <cc:Work>
    <dc:type rdf:resource="http://purl.org/dc/dcmitype/StillImage"/>
    <dc:date>2024-11-13T12:41:19.497360</dc:date>
    <dc:format>image/svg+xml</dc:format>
    <dc:creator>
     <cc:Agent>
      <dc:title>Matplotlib v3.9.1, https://matplotlib.org/</dc:title>
     </cc:Agent>
    </dc:creator>
   </cc:Work>
  </rdf:RDF>
 </metadata>
 <defs>
  <style type="text/css">*{stroke-linejoin: round; stroke-linecap: butt}</style>
 </defs>
 <g id="figure_1">
  <g id="patch_1">
   <path d="M 0 36 
L 180 36 
L 180 0 
L 0 0 
L 0 36 
z
" style="fill: none"/>
  </g>
  <g id="axes_1">
   <g id="patch_2">
    <path d="M 22.5 32.04 
L 162 32.04 
L 162 4.32 
L 22.5 4.32 
L 22.5 32.04 
z
" style="fill: none"/>
   </g>
   <g id="matplotlib.axis_1">
    <g id="xtick_1"/>
    <g id="xtick_2"/>
    <g id="xtick_3"/>
    <g id="xtick_4"/>
   </g>
   <g id="matplotlib.axis_2">
    <g id="ytick_1"/>
    <g id="ytick_2"/>
   </g>
   <g id="line2d_1">
    <path d="M 28.840909 30.333982 
L 29.545455 30.232615 
L 30.25 30.455623 
L 30.954545 29.908238 
L 31.659091 29.948785 
L 32.363636 30.496171 
L 33.068182 29.4014 
L 34.477273 30.313709 
L 35.886364 29.502767 
L 37.295455 30.110973 
L 38 28.448544 
L 40.113636 29.198665 
L 40.818182 29.685229 
L 41.522727 30.394803 
L 42.227273 30.78 
L 42.931818 30.0907 
L 43.636364 30.110973 
L 45.045455 29.624409 
L 45.75 29.583862 
L 47.159091 29.05675 
L 48.568182 27.860611 
L 49.272727 27.698423 
L 49.977273 27.232132 
L 50.681818 24.29247 
L 51.386364 23.278793 
L 52.090909 22.934143 
L 52.795455 21.87992 
L 53.5 22.467852 
L 54.204545 22.812502 
L 54.909091 22.143475 
L 55.613636 22.731408 
L 56.318182 22.812502 
L 57.022727 20.237763 
L 57.727273 16.933178 
L 58.431818 20.339131 
L 59.136364 22.22457 
L 59.840909 20.643234 
L 60.545455 20.704055 
L 61.25 18.109043 
L 61.954545 16.223604 
L 62.659091 13.182574 
L 63.363636 17.095366 
L 64.068182 17.237281 
L 64.772727 18.14959 
L 65.477273 17.967128 
L 66.181818 19.791746 
L 66.886364 15.838407 
L 67.590909 17.034545 
L 68.295455 16.446613 
L 69 14.946372 
L 69.704545 17.095366 
L 70.409091 18.007675 
L 71.113636 18.250957 
L 71.818182 13.506951 
L 72.522727 14.115157 
L 73.227273 10.506468 
L 73.931818 12.087804 
L 74.636364 9.533339 
L 75.340909 15.209928 
L 76.045455 15.960048 
L 76.75 17.541384 
L 77.454545 21.616364 
L 78.159091 23.359887 
L 78.863636 22.812502 
L 79.568182 24.900676 
L 80.272727 25.691344 
L 80.977273 23.299067 
L 81.681818 24.596573 
L 83.090909 20.886516 
L 83.795455 19.345728 
L 84.5 16.608801 
L 85.204545 17.886034 
L 85.909091 17.987401 
L 86.613636 16.365519 
L 87.318182 17.338648 
L 88.022727 14.682816 
L 88.727273 15.980322 
L 89.431818 15.554578 
L 90.136364 13.750233 
L 90.840909 8.945406 
L 91.545455 8.215559 
L 92.25 10.222639 
L 92.954545 12.979839 
L 93.659091 18.291504 
L 94.363636 15.372116 
L 95.068182 18.250957 
L 95.772727 16.953451 
L 96.477273 17.602204 
L 97.181818 18.088769 
L 97.886364 17.784666 
L 98.590909 16.588528 
L 99.295455 14.682816 
L 100 13.750233 
L 100.704545 9.229236 
L 101.409091 7.911456 
L 103.522727 5.58 
L 104.227273 10.506468 
L 104.931818 6.492309 
L 105.636364 9.938809 
L 106.340909 8.580483 
L 107.045455 15.027466 
L 107.75 14.500354 
L 108.454545 18.879437 
L 109.159091 16.710169 
L 109.863636 20.055302 
L 111.272727 14.196251 
L 111.977273 14.76391 
L 112.681818 16.689895 
L 113.386364 11.540418 
L 114.090909 11.398504 
L 114.795455 17.298101 
L 115.5 14.216525 
L 116.204545 18.960531 
L 116.909091 19.649831 
L 117.613636 18.027949 
L 118.318182 17.926581 
L 119.022727 17.440016 
L 119.727273 13.405583 
L 120.431818 17.298101 
L 121.136364 18.514513 
L 121.840909 17.602204 
L 122.545455 21.778552 
L 123.25 22.123202 
L 123.954545 21.859646 
L 124.659091 21.332534 
L 125.363636 21.494722 
L 126.068182 21.068978 
L 126.772727 17.602204 
L 127.477273 18.169863 
L 128.181818 17.52111 
L 128.886364 18.453693 
L 129.590909 11.337683 
L 130.295455 14.13543 
L 131 13.608319 
L 131.704545 16.42634 
L 132.409091 14.317892 
L 133.113636 17.52111 
L 133.818182 17.967128 
L 134.522727 18.818616 
L 135.227273 17.440016 
L 135.931818 15.149107 
L 136.636364 16.750716 
L 137.340909 15.899228 
L 138.045455 19.670105 
L 140.159091 15.493757 
L 140.863636 16.912904 
L 142.272727 18.14959 
L 143.681818 18.778069 
L 144.386364 19.812019 
L 145.090909 18.798343 
L 145.795455 18.656428 
L 146.5 20.683781 
L 147.204545 21.150072 
L 147.909091 20.886516 
L 148.613636 20.055302 
L 150.022727 21.312261 
L 150.727273 19.041625 
L 151.431818 20.521593 
L 152.136364 20.197216 
L 152.840909 21.312261 
L 153.545455 21.900193 
L 154.25 24.576299 
L 154.954545 24.474932 
L 155.659091 22.001561 
L 155.659091 22.001561 
" clip-path="url(#p61ab2ee13c)" style="fill: none; stroke: #1f77b4; stroke-width: 2; stroke-linecap: square"/>
   </g>
   <g id="patch_3">
    <path d="M 22.5 32.04 
L 22.5 4.32 
" style="fill: none; stroke: #000000; stroke-width: 0.8; stroke-linejoin: miter; stroke-linecap: square"/>
   </g>
   <g id="patch_4">
    <path d="M 162 32.04 
L 162 4.32 
" style="fill: none; stroke: #000000; stroke-width: 0.8; stroke-linejoin: miter; stroke-linecap: square"/>
   </g>
   <g id="patch_5">
    <path d="M 22.5 32.04 
L 162 32.04 
" style="fill: none; stroke: #000000; stroke-width: 0.8; stroke-linejoin: miter; stroke-linecap: square"/>
   </g>
   <g id="patch_6">
    <path d="M 22.5 4.32 
L 162 4.32 
" style="fill: none; stroke: #000000; stroke-width: 0.8; stroke-linejoin: miter; stroke-linecap: square"/>
   </g>
  </g>
 </g>
 <defs>
  <clipPath id="p61ab2ee13c">
   <rect x="22.5" y="4.32" width="139.5" height="27.72"/>
  </clipPath>
 </defs>
</svg>
