<?xml version="1.0" encoding="utf-8" standalone="no"?>
<!DOCTYPE svg PUBLIC "-//W3C//DTD SVG 1.1//EN"
  "http://www.w3.org/Graphics/SVG/1.1/DTD/svg11.dtd">
<svg xmlns:xlink="http://www.w3.org/1999/xlink" width="180pt" height="36pt" viewBox="0 0 180 36" xmlns="http://www.w3.org/2000/svg" version="1.1">
 <metadata>
  <rdf:RDF xmlns:dc="http://purl.org/dc/elements/1.1/" xmlns:cc="http://creativecommons.org/ns#" xmlns:rdf="http://www.w3.org/1999/02/22-rdf-syntax-ns#">
   <cc:Work>
    <dc:type rdf:resource="http://purl.org/dc/dcmitype/StillImage"/>
    <dc:date>2024-11-13T12:41:22.014007</dc:date>
    <dc:format>image/svg+xml</dc:format>
    <dc:creator>
     <cc:Agent>
      <dc:title>Matplotlib v3.9.1, https://matplotlib.org/</dc:title>
     </cc:Agent>
    </dc:creator>
   </cc:Work>
  </rdf:RDF>
 </metadata>
 <defs>
  <style type="text/css">*{stroke-linejoin: round; stroke-linecap: butt}</style>
 </defs>
 <g id="figure_1">
  <g id="patch_1">
   <path d="M 0 36 
L 180 36 
L 180 0 
L 0 0 
L 0 36 
z
" style="fill: none"/>
  </g>
  <g id="axes_1">
   <g id="patch_2">
    <path d="M 22.5 32.04 
L 162 32.04 
L 162 4.32 
L 22.5 4.32 
L 22.5 32.04 
z
" style="fill: none"/>
   </g>
   <g id="matplotlib.axis_1">
    <g id="xtick_1"/>
    <g id="xtick_2"/>
    <g id="xtick_3"/>
    <g id="xtick_4"/>
   </g>
   <g id="matplotlib.axis_2">
    <g id="ytick_1"/>
    <g id="ytick_2"/>
    <g id="ytick_3"/>
   </g>
   <g id="line2d_1">
    <path d="M 28.840909 6.935028 
L 29.545455 9.134749 
L 30.25 7.990894 
L 31.659091 12.143966 
L 32.363636 12.636704 
L 33.068182 12.795084 
L 33.772727 14.607654 
L 35.181818 21.734749 
L 35.886364 23.001788 
L 36.590909 22.82581 
L 37.295455 24.092849 
L 38 24.95514 
L 38.704545 26.186983 
L 39.409091 26.538939 
L 40.113636 27.225251 
L 40.818182 27.594804 
L 41.522727 29.724134 
L 42.227273 30.392849 
L 42.931818 30.375251 
L 43.636364 30.005698 
L 44.340909 30.568827 
L 45.045455 30.480838 
L 45.75 30.78 
L 46.454545 29.952905 
L 47.159091 30.093687 
L 47.863636 28.80905 
L 48.568182 28.96743 
L 49.272727 27.278045 
L 49.977273 26.046201 
L 50.681818 22.861006 
L 51.386364 22.50905 
L 52.090909 23.441732 
L 52.795455 21.541173 
L 53.5 20.69648 
L 54.204545 16.508212 
L 54.909091 11.528045 
L 55.613636 15.698715 
L 56.318182 9.821061 
L 57.022727 5.58 
L 57.727273 8.782793 
L 58.431818 15.03 
L 59.840909 22.702626 
L 60.545455 23.635307 
L 61.25 25.764637 
L 62.659091 25.50067 
L 63.363636 25.007933 
L 64.068182 25.236704 
L 64.772727 20.960447 
L 65.477273 23.177765 
L 66.181818 23.160168 
L 66.886364 22.033911 
L 67.590909 20.643687 
L 68.295455 17.141732 
L 69 18.795922 
L 69.704545 19.83419 
L 70.409091 21.101229 
L 71.818182 18.584749 
L 72.522727 19.499832 
L 73.227273 17.54648 
L 73.931818 17.986425 
L 74.636364 15.980279 
L 75.340909 15.751508 
L 76.045455 14.519665 
L 76.75 13.815754 
L 78.159091 19.411844 
L 78.863636 18.778324 
L 79.568182 18.65514 
L 80.272727 19.253464 
L 80.977273 21.206816 
L 81.681818 22.403464 
L 82.386364 20.890056 
L 83.090909 21.048436 
L 83.795455 21.928324 
L 84.5 21.118827 
L 85.204545 21.435587 
L 85.909091 20.274134 
L 86.613636 20.925251 
L 87.318182 23.230559 
L 88.022727 23.230559 
L 88.727273 20.925251 
L 90.136364 22.421061 
L 90.840909 24.110447 
L 91.545455 23.600112 
L 92.25 24.620782 
L 92.954545 23.14257 
L 93.659091 24.620782 
L 94.363636 24.374413 
L 95.068182 22.016313 
L 95.772727 20.837263 
L 96.477273 20.432514 
L 97.181818 17.124134 
L 97.886364 17.845642 
L 98.590909 17.15933 
L 99.295455 17.54648 
L 100 18.637542 
L 100.704545 19.059888 
L 101.409091 13.903743 
L 102.113636 16.561006 
L 102.818182 17.775251 
L 103.522727 18.074413 
L 104.227273 21.189218 
L 104.931818 19.077486 
L 105.636364 20.203743 
L 106.340909 18.49676 
L 107.045455 18.514358 
L 107.75 20.942849 
L 109.159091 20.168547 
L 109.863636 22.192291 
L 110.568182 23.564916 
L 111.272727 24.532793 
L 112.681818 21.312402 
L 113.386364 24.902346 
L 114.090909 24.374413 
L 114.795455 25.095922 
L 115.5 24.867151 
L 116.204545 26.274972 
L 116.909091 26.908492 
L 117.613636 27.366034 
L 118.318182 26.591732 
L 119.022727 25.535866 
L 119.727273 23.388939 
L 120.431818 22.878603 
L 121.136364 24.726369 
L 121.840909 23.723296 
L 122.545455 24.286425 
L 123.25 23.019385 
L 123.954545 22.843408 
L 124.659091 21.453184 
L 125.363636 23.388939 
L 126.068182 24.95514 
L 126.772727 21.400391 
L 127.477273 23.600112 
L 128.181818 23.089777 
L 128.886364 23.001788 
L 129.590909 21.893128 
L 130.295455 26.098994 
L 131 22.843408 
L 132.409091 21.998715 
L 133.113636 25.254302 
L 133.818182 25.50067 
L 134.522727 26.961285 
L 135.227273 28.96743 
L 135.931818 29.917709 
L 136.636364 29.970503 
L 137.340909 29.020223 
L 138.045455 30.30486 
L 138.75 30.040894 
L 139.454545 29.248994 
L 140.159091 29.248994 
L 141.568182 30.287263 
L 142.272727 29.301788 
L 142.977273 28.527486 
L 143.681818 26.802905 
L 144.386364 26.556536 
L 145.090909 26.046201 
L 146.5 22.544246 
L 147.204545 22.192291 
L 148.613636 20.837263 
L 149.318182 20.397318 
L 150.022727 18.197598 
L 151.431818 22.597039 
L 152.136364 23.529721 
L 152.840909 22.913799 
L 153.545455 22.139497 
L 154.954545 26.855698 
L 155.659091 28.756257 
L 155.659091 28.756257 
" clip-path="url(#p929f65f511)" style="fill: none; stroke: #1f77b4; stroke-width: 2; stroke-linecap: square"/>
   </g>
   <g id="patch_3">
    <path d="M 22.5 32.04 
L 22.5 4.32 
" style="fill: none; stroke: #000000; stroke-width: 0.8; stroke-linejoin: miter; stroke-linecap: square"/>
   </g>
   <g id="patch_4">
    <path d="M 162 32.04 
L 162 4.32 
" style="fill: none; stroke: #000000; stroke-width: 0.8; stroke-linejoin: miter; stroke-linecap: square"/>
   </g>
   <g id="patch_5">
    <path d="M 22.5 32.04 
L 162 32.04 
" style="fill: none; stroke: #000000; stroke-width: 0.8; stroke-linejoin: miter; stroke-linecap: square"/>
   </g>
   <g id="patch_6">
    <path d="M 22.5 4.32 
L 162 4.32 
" style="fill: none; stroke: #000000; stroke-width: 0.8; stroke-linejoin: miter; stroke-linecap: square"/>
   </g>
  </g>
 </g>
 <defs>
  <clipPath id="p929f65f511">
   <rect x="22.5" y="4.32" width="139.5" height="27.72"/>
  </clipPath>
 </defs>
</svg>
