<?xml version="1.0" encoding="utf-8" standalone="no"?>
<!DOCTYPE svg PUBLIC "-//W3C//DTD SVG 1.1//EN"
  "http://www.w3.org/Graphics/SVG/1.1/DTD/svg11.dtd">
<svg xmlns:xlink="http://www.w3.org/1999/xlink" width="180pt" height="36pt" viewBox="0 0 180 36" xmlns="http://www.w3.org/2000/svg" version="1.1">
 <metadata>
  <rdf:RDF xmlns:dc="http://purl.org/dc/elements/1.1/" xmlns:cc="http://creativecommons.org/ns#" xmlns:rdf="http://www.w3.org/1999/02/22-rdf-syntax-ns#">
   <cc:Work>
    <dc:type rdf:resource="http://purl.org/dc/dcmitype/StillImage"/>
    <dc:date>2024-11-13T12:41:19.402013</dc:date>
    <dc:format>image/svg+xml</dc:format>
    <dc:creator>
     <cc:Agent>
      <dc:title>Matplotlib v3.9.1, https://matplotlib.org/</dc:title>
     </cc:Agent>
    </dc:creator>
   </cc:Work>
  </rdf:RDF>
 </metadata>
 <defs>
  <style type="text/css">*{stroke-linejoin: round; stroke-linecap: butt}</style>
 </defs>
 <g id="figure_1">
  <g id="patch_1">
   <path d="M 0 36 
L 180 36 
L 180 0 
L 0 0 
L 0 36 
z
" style="fill: none"/>
  </g>
  <g id="axes_1">
   <g id="patch_2">
    <path d="M 22.5 32.04 
L 162 32.04 
L 162 4.32 
L 22.5 4.32 
L 22.5 32.04 
z
" style="fill: none"/>
   </g>
   <g id="matplotlib.axis_1">
    <g id="xtick_1"/>
    <g id="xtick_2"/>
    <g id="xtick_3"/>
    <g id="xtick_4"/>
   </g>
   <g id="matplotlib.axis_2">
    <g id="ytick_1"/>
    <g id="ytick_2"/>
   </g>
   <g id="line2d_1">
    <path d="M 28.840909 23.229934 
L 29.545455 22.749777 
L 30.25 21.060946 
L 30.954545 20.878817 
L 31.659091 22.865677 
L 32.363636 24.008121 
L 33.068182 27.170539 
L 33.772727 28.379212 
L 34.477273 30.515085 
L 35.181818 29.968699 
L 35.886364 30.78 
L 36.590909 29.852799 
L 37.295455 28.32954 
L 38 26.044652 
L 38.704545 24.703522 
L 39.409091 21.176846 
L 40.113636 23.329277 
L 40.818182 21.955033 
L 41.522727 20.050959 
L 42.227273 21.375532 
L 42.931818 21.011275 
L 43.636364 21.358975 
L 44.340909 20.017845 
L 45.045455 20.911932 
L 45.75 14.686439 
L 46.454545 15.812326 
L 47.159091 19.488016 
L 47.863636 20.299317 
L 48.568182 16.938213 
L 49.272727 17.401813 
L 49.977273 18.130329 
L 50.681818 19.140315 
L 51.386364 16.855427 
L 52.090909 18.4118 
L 52.795455 17.219685 
L 53.5 13.941367 
L 54.204545 18.047543 
L 54.909091 13.808909 
L 55.613636 15.448068 
L 56.318182 18.627043 
L 57.022727 16.259369 
L 57.727273 17.766071 
L 58.431818 15.38184 
L 59.136364 17.732957 
L 59.840909 17.219685 
L 60.545455 15.911669 
L 61.25 19.488016 
L 61.954545 18.858844 
L 62.659091 20.100631 
L 63.363636 19.852273 
L 64.068182 17.236242 
L 64.772727 19.885388 
L 65.477273 14.967911 
L 66.181818 16.871984 
L 66.886364 15.72954 
L 67.590909 11.855164 
L 68.295455 17.269356 
L 69 16.027569 
L 69.704545 17.18657 
L 70.409091 20.51456 
L 71.113636 21.259632 
L 71.818182 18.229671 
L 72.522727 18.395243 
L 73.227273 13.875138 
L 73.931818 18.776058 
L 74.636364 18.163443 
L 75.340909 18.146886 
L 76.045455 16.391827 
L 76.75 13.808909 
L 77.454545 18.279343 
L 78.159091 20.365545 
L 78.863636 23.577635 
L 79.568182 24.802865 
L 80.272727 25.150565 
L 80.977273 24.670407 
L 81.681818 22.219947 
L 82.386364 15.448068 
L 83.090909 14.852011 
L 83.795455 16.342155 
L 84.5 12.583679 
L 85.204545 12.252536 
L 86.613636 12.981051 
L 87.318182 14.686439 
L 88.022727 21.011275 
L 88.727273 23.627306 
L 89.431818 23.561078 
L 90.136364 28.246754 
L 90.840909 29.024941 
L 91.545455 27.948725 
L 92.954545 23.908778 
L 93.659091 24.008121 
L 94.363636 21.706675 
L 95.068182 17.799185 
L 95.772727 18.478029 
L 96.477273 16.805756 
L 97.181818 21.839133 
L 97.886364 21.839133 
L 98.590909 23.527963 
L 99.295455 24.239921 
L 100 19.819159 
L 101.409091 13.196294 
L 102.113636 14.818896 
L 102.818182 13.808909 
L 103.522727 12.997608 
L 104.227273 17.699842 
L 105.636364 18.809172 
L 106.340909 20.547674 
L 107.045455 18.842286 
L 107.75 18.610486 
L 108.454545 18.643601 
L 109.159091 16.044126 
L 109.863636 15.232825 
L 110.568182 19.63703 
L 111.272727 18.0641 
L 111.977273 20.299317 
L 112.681818 19.951616 
L 113.386364 14.454639 
L 114.090909 12.004179 
L 114.795455 10.331905 
L 116.204545 9.60339 
L 116.909091 5.58 
L 117.613636 10.36502 
L 118.318182 11.639921 
L 119.022727 13.196294 
L 119.727273 18.461472 
L 120.431818 19.454901 
L 121.136364 20.249645 
L 121.840909 21.226518 
L 122.545455 21.044389 
L 123.25 22.451748 
L 123.954545 22.567648 
L 125.363636 16.226255 
L 126.068182 17.153456 
L 126.772727 15.116925 
L 127.477273 17.799185 
L 128.181818 18.478029 
L 128.886364 14.471196 
L 129.590909 14.007595 
L 130.295455 15.100368 
L 131 10.398134 
L 131.704545 13.577109 
L 132.409091 10.795506 
L 133.113636 11.82205 
L 133.818182 11.971064 
L 134.522727 8.411275 
L 135.227273 12.136636 
L 135.931818 13.808909 
L 136.636364 14.553982 
L 137.340909 15.928226 
L 138.045455 17.617057 
L 138.75 16.176583 
L 139.454545 14.305624 
L 140.159091 16.524284 
L 140.863636 16.259369 
L 141.568182 14.885125 
L 142.272727 16.458055 
L 142.977273 15.72954 
L 143.681818 16.441498 
L 144.386364 14.007595 
L 145.090909 14.322181 
L 145.795455 13.212852 
L 147.204545 18.345572 
L 147.909091 18.792615 
L 148.613636 18.18 
L 149.318182 21.193403 
L 150.022727 18.378686 
L 150.727273 21.524547 
L 151.431818 23.064363 
L 152.840909 20.696689 
L 153.545455 15.001025 
L 154.25 14.818896 
L 154.954545 17.749514 
L 155.659091 10.977635 
L 155.659091 10.977635 
" clip-path="url(#pb872cc1063)" style="fill: none; stroke: #1f77b4; stroke-width: 2; stroke-linecap: square"/>
   </g>
   <g id="patch_3">
    <path d="M 22.5 32.04 
L 22.5 4.32 
" style="fill: none; stroke: #000000; stroke-width: 0.8; stroke-linejoin: miter; stroke-linecap: square"/>
   </g>
   <g id="patch_4">
    <path d="M 162 32.04 
L 162 4.32 
" style="fill: none; stroke: #000000; stroke-width: 0.8; stroke-linejoin: miter; stroke-linecap: square"/>
   </g>
   <g id="patch_5">
    <path d="M 22.5 32.04 
L 162 32.04 
" style="fill: none; stroke: #000000; stroke-width: 0.8; stroke-linejoin: miter; stroke-linecap: square"/>
   </g>
   <g id="patch_6">
    <path d="M 22.5 4.32 
L 162 4.32 
" style="fill: none; stroke: #000000; stroke-width: 0.8; stroke-linejoin: miter; stroke-linecap: square"/>
   </g>
  </g>
 </g>
 <defs>
  <clipPath id="pb872cc1063">
   <rect x="22.5" y="4.32" width="139.5" height="27.72"/>
  </clipPath>
 </defs>
</svg>
