<?xml version="1.0" encoding="utf-8" standalone="no"?>
<!DOCTYPE svg PUBLIC "-//W3C//DTD SVG 1.1//EN"
  "http://www.w3.org/Graphics/SVG/1.1/DTD/svg11.dtd">
<svg xmlns:xlink="http://www.w3.org/1999/xlink" width="180pt" height="36pt" viewBox="0 0 180 36" xmlns="http://www.w3.org/2000/svg" version="1.1">
 <metadata>
  <rdf:RDF xmlns:dc="http://purl.org/dc/elements/1.1/" xmlns:cc="http://creativecommons.org/ns#" xmlns:rdf="http://www.w3.org/1999/02/22-rdf-syntax-ns#">
   <cc:Work>
    <dc:type rdf:resource="http://purl.org/dc/dcmitype/StillImage"/>
    <dc:date>2024-11-13T12:41:20.386518</dc:date>
    <dc:format>image/svg+xml</dc:format>
    <dc:creator>
     <cc:Agent>
      <dc:title>Matplotlib v3.9.1, https://matplotlib.org/</dc:title>
     </cc:Agent>
    </dc:creator>
   </cc:Work>
  </rdf:RDF>
 </metadata>
 <defs>
  <style type="text/css">*{stroke-linejoin: round; stroke-linecap: butt}</style>
 </defs>
 <g id="figure_1">
  <g id="patch_1">
   <path d="M 0 36 
L 180 36 
L 180 0 
L 0 0 
L 0 36 
z
" style="fill: none"/>
  </g>
  <g id="axes_1">
   <g id="patch_2">
    <path d="M 22.5 32.04 
L 162 32.04 
L 162 4.32 
L 22.5 4.32 
L 22.5 32.04 
z
" style="fill: none"/>
   </g>
   <g id="matplotlib.axis_1">
    <g id="xtick_1"/>
    <g id="xtick_2"/>
    <g id="xtick_3"/>
    <g id="xtick_4"/>
   </g>
   <g id="matplotlib.axis_2">
    <g id="ytick_1"/>
    <g id="ytick_2"/>
   </g>
   <g id="line2d_1">
    <path d="M 28.840909 28.746932 
L 29.545455 29.098327 
L 30.25 29.173625 
L 30.954545 30.453705 
L 31.659091 29.801116 
L 32.363636 30.15251 
L 33.068182 29.449721 
L 33.772727 29.148526 
L 34.477273 29.776016 
L 35.886364 29.750916 
L 36.590909 30.202709 
L 37.295455 30.227809 
L 38 29.299124 
L 38.704545 28.621434 
L 39.409091 27.291155 
L 40.113636 28.320239 
L 41.522727 28.671633 
L 42.227273 28.420637 
L 42.931818 28.89753 
L 43.636364 29.198725 
L 44.340909 28.621434 
L 45.045455 27.717849 
L 45.75 28.521036 
L 46.454545 25.960876 
L 47.159091 27.316255 
L 47.863636 27.341355 
L 48.568182 29.073227 
L 49.272727 28.87243 
L 49.977273 29.851315 
L 50.681818 28.89753 
L 51.386364 29.148526 
L 52.090909 29.55012 
L 52.795455 30.328207 
L 53.5 29.625418 
L 54.909091 28.671633 
L 55.613636 28.847331 
L 56.318182 28.069243 
L 57.022727 30.353307 
L 57.727273 29.776016 
L 58.431818 30.78 
L 59.136364 30.604303 
L 59.840909 30.278008 
L 60.545455 28.87243 
L 61.25 30.554104 
L 61.954545 29.776016 
L 62.659091 30.453705 
L 63.363636 27.416653 
L 64.068182 27.517052 
L 64.772727 26.764064 
L 65.477273 26.538167 
L 66.181818 29.173625 
L 66.886364 28.094343 
L 67.590909 25.358486 
L 69 24.856494 
L 69.704545 25.383586 
L 70.409091 26.412669 
L 71.818182 25.960876 
L 72.522727 26.487968 
L 73.227273 27.165657 
L 73.931818 27.491952 
L 74.636364 26.262072 
L 75.340909 27.01506 
L 76.045455 28.144542 
L 76.75 25.157689 
L 77.454545 23.275219 
L 78.159091 22.371633 
L 78.863636 18.80749 
L 79.568182 16.347729 
L 80.272727 16.347729 
L 80.977273 23.099522 
L 81.681818 18.355697 
L 82.386364 14.540558 
L 83.795455 16.92502 
L 84.5 17.075618 
L 85.204545 17.678008 
L 86.613636 21.367649 
L 87.318182 24.279203 
L 88.022727 23.526215 
L 88.727273 21.493147 
L 89.431818 18.857689 
L 90.136364 17.050518 
L 90.840909 18.079602 
L 91.545455 11.829801 
L 92.954545 21.166853 
L 93.659091 22.045339 
L 94.363636 24.931793 
L 95.068182 19.058486 
L 95.772727 16.674024 
L 96.477273 14.917052 
L 97.181818 14.490359 
L 97.886364 9.570837 
L 98.590909 12.808685 
L 99.295455 12.457291 
L 100 11.9051 
L 100.704545 15.04255 
L 101.409091 15.745339 
L 102.113636 19.183984 
L 102.818182 19.685976 
L 103.522727 20.514263 
L 104.227273 21.091554 
L 104.931818 18.2051 
L 105.636364 20.68996 
L 106.340909 14.515458 
L 107.045455 17.301514 
L 107.75 13.084781 
L 108.454545 13.10988 
L 109.159091 13.737371 
L 109.863636 7.161275 
L 110.568182 8.817849 
L 111.272727 5.780797 
L 111.977273 8.441355 
L 112.681818 5.58 
L 113.386364 9.37004 
L 114.090909 6.784781 
L 115.5 13.938167 
L 116.204545 13.561673 
L 116.909091 15.142948 
L 117.613636 9.595936 
L 118.318182 8.667251 
L 119.727273 12.48239 
L 120.431818 16.448127 
L 121.136364 15.368845 
L 121.840909 13.009482 
L 122.545455 17.929004 
L 123.25 18.556494 
L 123.954545 18.757291 
L 124.659091 16.071633 
L 126.068182 8.290757 
L 126.772727 7.813865 
L 127.477273 8.441355 
L 128.181818 12.582789 
L 128.886364 8.215458 
L 129.590909 12.156096 
L 130.295455 13.636972 
L 131 14.364861 
L 131.704545 12.080797 
L 132.409091 13.963267 
L 133.113636 9.746534 
L 133.818182 12.858884 
L 134.522727 13.561673 
L 135.227273 15.720239 
L 135.931818 16.347729 
L 136.636364 12.683187 
L 137.340909 15.494343 
L 138.045455 13.887968 
L 138.75 17.075618 
L 139.454545 21.518247 
L 140.159091 19.811474 
L 140.863636 14.590757 
L 141.568182 19.108685 
L 142.272727 18.907888 
L 142.977273 20.514263 
L 143.681818 17.903904 
L 144.386364 16.498327 
L 145.090909 16.674024 
L 145.795455 18.430996 
L 146.5 17.401912 
L 147.204545 14.942151 
L 147.909091 14.289562 
L 148.613636 15.64494 
L 149.318182 15.996335 
L 150.022727 19.158884 
L 150.727273 16.749323 
L 151.431818 21.819442 
L 152.136364 21.166853 
L 152.840909 21.066454 
L 153.545455 22.873625 
L 154.25 25.584382 
L 154.954545 24.48 
L 155.659091 24.229004 
L 155.659091 24.229004 
" clip-path="url(#pc961bc05f0)" style="fill: none; stroke: #1f77b4; stroke-width: 2; stroke-linecap: square"/>
   </g>
   <g id="patch_3">
    <path d="M 22.5 32.04 
L 22.5 4.32 
" style="fill: none; stroke: #000000; stroke-width: 0.8; stroke-linejoin: miter; stroke-linecap: square"/>
   </g>
   <g id="patch_4">
    <path d="M 162 32.04 
L 162 4.32 
" style="fill: none; stroke: #000000; stroke-width: 0.8; stroke-linejoin: miter; stroke-linecap: square"/>
   </g>
   <g id="patch_5">
    <path d="M 22.5 32.04 
L 162 32.04 
" style="fill: none; stroke: #000000; stroke-width: 0.8; stroke-linejoin: miter; stroke-linecap: square"/>
   </g>
   <g id="patch_6">
    <path d="M 22.5 4.32 
L 162 4.32 
" style="fill: none; stroke: #000000; stroke-width: 0.8; stroke-linejoin: miter; stroke-linecap: square"/>
   </g>
  </g>
 </g>
 <defs>
  <clipPath id="pc961bc05f0">
   <rect x="22.5" y="4.32" width="139.5" height="27.72"/>
  </clipPath>
 </defs>
</svg>
