<?xml version="1.0" encoding="utf-8" standalone="no"?>
<!DOCTYPE svg PUBLIC "-//W3C//DTD SVG 1.1//EN"
  "http://www.w3.org/Graphics/SVG/1.1/DTD/svg11.dtd">
<svg xmlns:xlink="http://www.w3.org/1999/xlink" width="180pt" height="36pt" viewBox="0 0 180 36" xmlns="http://www.w3.org/2000/svg" version="1.1">
 <metadata>
  <rdf:RDF xmlns:dc="http://purl.org/dc/elements/1.1/" xmlns:cc="http://creativecommons.org/ns#" xmlns:rdf="http://www.w3.org/1999/02/22-rdf-syntax-ns#">
   <cc:Work>
    <dc:type rdf:resource="http://purl.org/dc/dcmitype/StillImage"/>
    <dc:date>2024-11-13T12:41:19.610536</dc:date>
    <dc:format>image/svg+xml</dc:format>
    <dc:creator>
     <cc:Agent>
      <dc:title>Matplotlib v3.9.1, https://matplotlib.org/</dc:title>
     </cc:Agent>
    </dc:creator>
   </cc:Work>
  </rdf:RDF>
 </metadata>
 <defs>
  <style type="text/css">*{stroke-linejoin: round; stroke-linecap: butt}</style>
 </defs>
 <g id="figure_1">
  <g id="patch_1">
   <path d="M 0 36 
L 180 36 
L 180 0 
L 0 0 
L 0 36 
z
" style="fill: none"/>
  </g>
  <g id="axes_1">
   <g id="patch_2">
    <path d="M 22.5 32.04 
L 162 32.04 
L 162 4.32 
L 22.5 4.32 
L 22.5 32.04 
z
" style="fill: none"/>
   </g>
   <g id="matplotlib.axis_1">
    <g id="xtick_1"/>
    <g id="xtick_2"/>
    <g id="xtick_3"/>
    <g id="xtick_4"/>
   </g>
   <g id="matplotlib.axis_2">
    <g id="ytick_1"/>
    <g id="ytick_2"/>
   </g>
   <g id="line2d_1">
    <path d="M 28.840909 28.23283 
L 29.545455 29.829057 
L 30.25 29.998868 
L 30.954545 30.508302 
L 31.659091 28.810189 
L 32.363636 29.115849 
L 33.068182 28.504528 
L 33.772727 29.829057 
L 34.477273 29.659245 
L 35.181818 28.640377 
L 35.886364 30.134717 
L 36.590909 30.78 
L 37.295455 29.251698 
L 38.704545 30.134717 
L 39.409091 30.644151 
L 40.113636 29.72717 
L 40.818182 29.28566 
L 41.522727 29.964906 
L 42.227273 28.98 
L 42.931818 28.98 
L 43.636364 30.47434 
L 44.340909 28.912075 
L 45.045455 28.164906 
L 45.75 27.757358 
L 46.454545 28.300755 
L 47.159091 26.466792 
L 47.863636 26.025283 
L 48.568182 27.995094 
L 49.272727 28.742264 
L 49.977273 27.825283 
L 50.681818 28.436604 
L 51.386364 28.844151 
L 52.090909 27.587547 
L 52.795455 24.530943 
L 53.5 29.081887 
L 54.204545 26.806415 
L 54.909091 26.976226 
L 55.613636 23.613962 
L 56.318182 22.08566 
L 57.022727 22.459245 
L 57.727273 23.206415 
L 58.431818 22.866792 
L 59.136364 21.576226 
L 59.840909 17.12717 
L 60.545455 17.670566 
L 61.25 17.330943 
L 61.954545 16.447925 
L 62.659091 16.549811 
L 63.363636 15.666792 
L 64.068182 13.730943 
L 64.772727 13.153585 
L 65.477273 13.629057 
L 66.181818 13.357358 
L 66.886364 14.036604 
L 67.590909 14.342264 
L 68.295455 11.829057 
L 69 18.48566 
L 69.704545 21.881887 
L 70.409091 22.83283 
L 71.113636 22.900755 
L 71.818182 21.304528 
L 73.227273 18.893208 
L 74.636364 17.330943 
L 75.340909 14.681887 
L 76.045455 15.395094 
L 77.454545 13.119623 
L 78.159091 16.447925 
L 78.863636 14.546038 
L 79.568182 17.12717 
L 80.272727 14.919623 
L 80.977273 14.172453 
L 81.681818 16.515849 
L 82.386364 13.696981 
L 83.090909 14.817736 
L 83.795455 13.730943 
L 84.5 16.07434 
L 85.204545 11.930943 
L 85.909091 11.625283 
L 86.613636 10.606415 
L 87.318182 11.489434 
L 88.022727 7.787547 
L 88.727273 9.146038 
L 89.431818 11.455472 
L 90.136364 8.87434 
L 90.840909 11.863019 
L 91.545455 12.202642 
L 92.25 16.278113 
L 92.954545 15.32717 
L 93.659091 19.130943 
L 94.363636 18.689434 
L 95.068182 14.342264 
L 95.772727 18.859245 
L 96.477273 13.561132 
L 97.181818 13.221509 
L 97.886364 8.738491 
L 98.590909 10.810189 
L 99.295455 13.595094 
L 100 11.625283 
L 100.704545 15.157358 
L 101.409091 13.561132 
L 102.113636 12.406415 
L 102.818182 15.429057 
L 103.522727 13.663019 
L 104.227273 13.595094 
L 104.931818 16.719623 
L 105.636364 15.055472 
L 106.340909 22.493208 
L 107.045455 20.013962 
L 107.75 20.761132 
L 109.863636 15.429057 
L 110.568182 21.542264 
L 111.272727 21.338491 
L 111.977273 21.610189 
L 112.681818 16.957358 
L 113.386364 19.029057 
L 114.090909 15.870566 
L 114.795455 18.451698 
L 115.5 18.825283 
L 116.204545 15.564906 
L 116.909091 15.564906 
L 117.613636 15.904528 
L 119.022727 18.689434 
L 119.727273 18.383774 
L 120.431818 20.183774 
L 121.136364 20.217736 
L 122.545455 12.304528 
L 123.25 13.764906 
L 123.954545 13.391321 
L 124.659091 12.066792 
L 125.363636 9.044151 
L 126.068182 12.847925 
L 126.772727 12.915849 
L 127.477273 10.708302 
L 128.181818 5.749811 
L 128.886364 7.413962 
L 129.590909 5.58 
L 130.295455 6.63283 
L 131 9.112075 
L 131.704545 7.38 
L 132.409091 12.134717 
L 133.113636 8.025283 
L 133.818182 11.251698 
L 134.522727 11.998868 
L 135.227273 12.338491 
L 135.931818 14.647925 
L 136.636364 12.508302 
L 137.340909 13.798868 
L 138.045455 16.68566 
L 138.75 18.995094 
L 139.454545 19.810189 
L 140.159091 23.172453 
L 140.863636 22.017736 
L 141.568182 22.595094 
L 142.272727 22.663019 
L 142.977273 22.934717 
L 143.681818 23.376226 
L 145.090909 26.093208 
L 145.795455 25.957358 
L 146.5 24.395094 
L 147.204545 22.357358 
L 147.909091 23.104528 
L 148.613636 22.866792 
L 149.318182 24.63283 
L 150.022727 25.108302 
L 150.727273 25.346038 
L 151.431818 24.63283 
L 152.136364 24.123396 
L 152.840909 23.138491 
L 153.545455 21.576226 
L 154.25 18.92717 
L 154.954545 8.908302 
L 155.659091 17.263019 
L 155.659091 17.263019 
" clip-path="url(#p599b4294be)" style="fill: none; stroke: #1f77b4; stroke-width: 2; stroke-linecap: square"/>
   </g>
   <g id="patch_3">
    <path d="M 22.5 32.04 
L 22.5 4.32 
" style="fill: none; stroke: #000000; stroke-width: 0.8; stroke-linejoin: miter; stroke-linecap: square"/>
   </g>
   <g id="patch_4">
    <path d="M 162 32.04 
L 162 4.32 
" style="fill: none; stroke: #000000; stroke-width: 0.8; stroke-linejoin: miter; stroke-linecap: square"/>
   </g>
   <g id="patch_5">
    <path d="M 22.5 32.04 
L 162 32.04 
" style="fill: none; stroke: #000000; stroke-width: 0.8; stroke-linejoin: miter; stroke-linecap: square"/>
   </g>
   <g id="patch_6">
    <path d="M 22.5 4.32 
L 162 4.32 
" style="fill: none; stroke: #000000; stroke-width: 0.8; stroke-linejoin: miter; stroke-linecap: square"/>
   </g>
  </g>
 </g>
 <defs>
  <clipPath id="p599b4294be">
   <rect x="22.5" y="4.32" width="139.5" height="27.72"/>
  </clipPath>
 </defs>
</svg>
