<?xml version="1.0" encoding="utf-8" standalone="no"?>
<!DOCTYPE svg PUBLIC "-//W3C//DTD SVG 1.1//EN"
  "http://www.w3.org/Graphics/SVG/1.1/DTD/svg11.dtd">
<svg xmlns:xlink="http://www.w3.org/1999/xlink" width="180pt" height="36pt" viewBox="0 0 180 36" xmlns="http://www.w3.org/2000/svg" version="1.1">
 <metadata>
  <rdf:RDF xmlns:dc="http://purl.org/dc/elements/1.1/" xmlns:cc="http://creativecommons.org/ns#" xmlns:rdf="http://www.w3.org/1999/02/22-rdf-syntax-ns#">
   <cc:Work>
    <dc:type rdf:resource="http://purl.org/dc/dcmitype/StillImage"/>
    <dc:date>2024-11-13T12:41:20.808267</dc:date>
    <dc:format>image/svg+xml</dc:format>
    <dc:creator>
     <cc:Agent>
      <dc:title>Matplotlib v3.9.1, https://matplotlib.org/</dc:title>
     </cc:Agent>
    </dc:creator>
   </cc:Work>
  </rdf:RDF>
 </metadata>
 <defs>
  <style type="text/css">*{stroke-linejoin: round; stroke-linecap: butt}</style>
 </defs>
 <g id="figure_1">
  <g id="patch_1">
   <path d="M 0 36 
L 180 36 
L 180 0 
L 0 0 
L 0 36 
z
" style="fill: none"/>
  </g>
  <g id="axes_1">
   <g id="patch_2">
    <path d="M 22.5 32.04 
L 162 32.04 
L 162 4.32 
L 22.5 4.32 
L 22.5 32.04 
z
" style="fill: none"/>
   </g>
   <g id="matplotlib.axis_1">
    <g id="xtick_1"/>
    <g id="xtick_2"/>
    <g id="xtick_3"/>
    <g id="xtick_4"/>
   </g>
   <g id="matplotlib.axis_2">
    <g id="ytick_1"/>
    <g id="ytick_2"/>
   </g>
   <g id="line2d_1">
    <path d="M 28.840909 22.000939 
L 29.545455 20.65148 
L 30.25 22.031264 
L 30.954545 26.291913 
L 31.659091 23.714296 
L 32.363636 25.397329 
L 33.068182 27.641372 
L 33.772727 25.988664 
L 34.477273 26.883249 
L 35.181818 26.094801 
L 35.886364 27.762671 
L 36.590909 25.988664 
L 37.295455 24.639206 
L 38 22.956173 
L 38.704545 24.578556 
L 39.409091 27.050036 
L 40.818182 25.382166 
L 41.522727 23.486859 
L 42.931818 29.096968 
L 43.636364 30.78 
L 44.340909 28.596606 
L 45.045455 28.793718 
L 45.75 26.322238 
L 46.454545 25.912852 
L 47.159091 27.26231 
L 47.863636 28.975668 
L 48.568182 29.85509 
L 49.272727 28.020433 
L 49.977273 28.839206 
L 50.681818 27.959783 
L 51.386364 25.609603 
L 52.090909 24.97278 
L 52.795455 26.807437 
L 53.5 27.792996 
L 54.204545 27.929458 
L 54.909091 28.763394 
L 55.613636 28.733069 
L 57.022727 28.99083 
L 57.727273 28.172058 
L 58.431818 28.869531 
L 59.136364 26.504188 
L 59.840909 26.291913 
L 60.545455 26.610325 
L 61.25 26.352563 
L 61.954545 23.411047 
L 62.659091 21.788664 
L 63.363636 18.0587 
L 64.068182 15.844982 
L 64.772727 12.857978 
L 65.477273 12.236318 
L 66.181818 10.46231 
L 66.886364 10.204549 
L 67.590909 13.328014 
L 68.295455 13.509964 
L 69 15.344621 
L 69.704545 19.271697 
L 70.409091 16.284693 
L 71.113636 15.76917 
L 71.818182 16.830542 
L 72.522727 15.58722 
L 73.227273 18.907798 
L 73.931818 16.709242 
L 74.636364 15.283971 
L 75.340909 14.601661 
L 76.045455 16.057256 
L 76.75 13.600939 
L 77.454545 20.257256 
L 78.159091 19.16556 
L 78.863636 15.64787 
L 79.568182 13.464477 
L 80.272727 15.465921 
L 80.977273 15.814657 
L 81.681818 14.070975 
L 82.386364 13.11574 
L 83.090909 13.737401 
L 83.795455 15.64787 
L 84.5 13.676751 
L 85.204545 14.146787 
L 85.909091 17.785776 
L 86.613636 18.892635 
L 87.318182 22.486137 
L 88.022727 20.77278 
L 88.727273 20.393718 
L 89.431818 17.967726 
L 90.136364 19.696245 
L 90.840909 18.468087 
L 91.545455 15.678195 
L 92.25 18.346787 
L 93.659091 13.464477 
L 94.363636 13.904188 
L 95.068182 13.009603 
L 95.772727 9.355451 
L 96.477273 12.509242 
L 97.181818 11.129458 
L 97.886364 12.19083 
L 98.590909 12.751841 
L 99.295455 12.403105 
L 100 12.903466 
L 100.704545 8.839928 
L 101.409091 8.930903 
L 102.113636 8.657978 
L 102.818182 9.173502 
L 103.522727 7.444982 
L 104.227273 7.778556 
L 104.931818 15.026209 
L 106.340909 17.179278 
L 107.045455 12.812491 
L 107.75 13.798051 
L 108.454545 13.798051 
L 109.159091 12.221155 
L 109.863636 14.131625 
L 110.568182 13.949675 
L 111.272727 15.814657 
L 111.977273 16.072419 
L 112.681818 19.984332 
L 113.386364 22.728736 
L 114.090909 23.350397 
L 114.795455 25.291191 
L 115.5 23.744621 
L 116.204545 23.820433 
L 116.909091 24.578556 
L 118.318182 17.967726 
L 119.022727 12.767004 
L 119.727273 15.147509 
L 120.431818 12.645704 
L 121.136364 18.164838 
L 121.840909 17.891913 
L 122.545455 20.499856 
L 123.25 21.257978 
L 123.954545 22.228375 
L 124.659091 19.180722 
L 125.363636 20.196606 
L 126.068182 17.831264 
L 126.772727 16.496968 
L 127.477273 12.615379 
L 128.181818 15.996606 
L 128.886364 14.90491 
L 129.590909 14.283249 
L 130.295455 18.619711 
L 131 18.695523 
L 131.704545 20.424043 
L 132.409091 20.044982 
L 133.113636 24.154007 
L 133.818182 24.063032 
L 134.522727 24.548231 
L 135.227273 24.16917 
L 135.931818 22.516462 
L 136.636364 21.925126 
L 138.045455 27.535235 
L 138.75 29.673141 
L 139.454545 27.141011 
L 140.159091 22.38 
L 140.863636 20.302744 
L 141.568182 19.150397 
L 142.977273 13.889025 
L 143.681818 10.234874 
L 144.386364 12.115018 
L 145.090909 13.100578 
L 145.795455 12.281805 
L 146.5 10.341011 
L 147.204545 12.084693 
L 147.909091 7.884693 
L 148.613636 11.933069 
L 149.318182 13.17639 
L 150.022727 11.902744 
L 150.727273 6.44426 
L 151.431818 5.58 
L 152.136364 11.50852 
L 152.840909 14.237762 
L 153.545455 19.271697 
L 154.25 15.238484 
L 154.954545 17.816101 
L 155.659091 19.195884 
L 155.659091 19.195884 
" clip-path="url(#p3c8457fbdf)" style="fill: none; stroke: #1f77b4; stroke-width: 2; stroke-linecap: square"/>
   </g>
   <g id="patch_3">
    <path d="M 22.5 32.04 
L 22.5 4.32 
" style="fill: none; stroke: #000000; stroke-width: 0.8; stroke-linejoin: miter; stroke-linecap: square"/>
   </g>
   <g id="patch_4">
    <path d="M 162 32.04 
L 162 4.32 
" style="fill: none; stroke: #000000; stroke-width: 0.8; stroke-linejoin: miter; stroke-linecap: square"/>
   </g>
   <g id="patch_5">
    <path d="M 22.5 32.04 
L 162 32.04 
" style="fill: none; stroke: #000000; stroke-width: 0.8; stroke-linejoin: miter; stroke-linecap: square"/>
   </g>
   <g id="patch_6">
    <path d="M 22.5 4.32 
L 162 4.32 
" style="fill: none; stroke: #000000; stroke-width: 0.8; stroke-linejoin: miter; stroke-linecap: square"/>
   </g>
  </g>
 </g>
 <defs>
  <clipPath id="p3c8457fbdf">
   <rect x="22.5" y="4.32" width="139.5" height="27.72"/>
  </clipPath>
 </defs>
</svg>
