<?xml version="1.0" encoding="utf-8" standalone="no"?>
<!DOCTYPE svg PUBLIC "-//W3C//DTD SVG 1.1//EN"
  "http://www.w3.org/Graphics/SVG/1.1/DTD/svg11.dtd">
<svg xmlns:xlink="http://www.w3.org/1999/xlink" width="180pt" height="36pt" viewBox="0 0 180 36" xmlns="http://www.w3.org/2000/svg" version="1.1">
 <metadata>
  <rdf:RDF xmlns:dc="http://purl.org/dc/elements/1.1/" xmlns:cc="http://creativecommons.org/ns#" xmlns:rdf="http://www.w3.org/1999/02/22-rdf-syntax-ns#">
   <cc:Work>
    <dc:type rdf:resource="http://purl.org/dc/dcmitype/StillImage"/>
    <dc:date>2024-11-13T12:41:22.389736</dc:date>
    <dc:format>image/svg+xml</dc:format>
    <dc:creator>
     <cc:Agent>
      <dc:title>Matplotlib v3.9.1, https://matplotlib.org/</dc:title>
     </cc:Agent>
    </dc:creator>
   </cc:Work>
  </rdf:RDF>
 </metadata>
 <defs>
  <style type="text/css">*{stroke-linejoin: round; stroke-linecap: butt}</style>
 </defs>
 <g id="figure_1">
  <g id="patch_1">
   <path d="M 0 36 
L 180 36 
L 180 0 
L 0 0 
L 0 36 
z
" style="fill: none"/>
  </g>
  <g id="axes_1">
   <g id="patch_2">
    <path d="M 22.5 32.04 
L 162 32.04 
L 162 4.32 
L 22.5 4.32 
L 22.5 32.04 
z
" style="fill: none"/>
   </g>
   <g id="matplotlib.axis_1">
    <g id="xtick_1"/>
    <g id="xtick_2"/>
    <g id="xtick_3"/>
    <g id="xtick_4"/>
   </g>
   <g id="matplotlib.axis_2">
    <g id="ytick_1"/>
    <g id="ytick_2"/>
    <g id="ytick_3"/>
   </g>
   <g id="line2d_1">
    <path d="M 28.840909 23.381626 
L 29.545455 21.606016 
L 30.25 17.758862 
L 30.954545 12.523089 
L 31.659091 15.937724 
L 32.363636 15.16374 
L 33.068182 21.423902 
L 33.772727 18.441789 
L 34.477273 20.877561 
L 35.181818 19.42065 
L 35.886364 16.825528 
L 37.295455 20.877561 
L 38 21.856423 
L 38.704545 19.557236 
L 39.409091 18.737724 
L 40.113636 22.106829 
L 40.818182 22.630407 
L 41.522727 18.669431 
L 42.227273 18.737724 
L 42.931818 18.623902 
L 43.636364 20.445041 
L 44.340909 21.401138 
L 45.045455 24.064553 
L 45.75 16.484065 
L 46.454545 15.527967 
L 47.159091 14.845041 
L 47.863636 22.015772 
L 48.568182 20.126341 
L 49.272727 23.017398 
L 49.977273 23.518211 
L 51.386364 17.622276 
L 52.090909 15.049919 
L 52.795455 11.976748 
L 53.5 13.54748 
L 54.204545 17.667805 
L 54.909091 25.088943 
L 55.613636 23.654797 
L 56.318182 20.60439 
L 57.022727 18.942602 
L 57.727273 19.261301 
L 58.431818 21.514959 
L 59.136364 17.986504 
L 59.840909 16.074309 
L 60.545455 13.456423 
L 61.25 16.279187 
L 61.954545 19.625528 
L 62.659091 15.823902 
L 63.363636 20.672683 
L 64.068182 20.854797 
L 64.772727 20.422276 
L 65.477273 21.264553 
L 66.181818 24.952358 
L 66.886364 27.069431 
L 68.295455 28.207642 
L 69 25.157236 
L 69.704545 26.318211 
L 70.409091 24.178374 
L 71.113636 24.42878 
L 71.818182 24.132846 
L 72.522727 26.045041 
L 73.227273 26.841789 
L 73.931818 26.022276 
L 74.636364 22.197886 
L 75.340909 22.425528 
L 76.045455 19.466179 
L 76.75 18.942602 
L 77.454545 17.53122 
L 78.159091 15.345854 
L 78.863636 8.038537 
L 79.568182 7.651545 
L 80.272727 9.199512 
L 80.977273 9.518211 
L 81.681818 6.718211 
L 82.386364 12.36374 
L 83.090909 12.568618 
L 83.795455 14.048293 
L 84.5 19.170244 
L 85.204545 23.108455 
L 85.909091 22.858049 
L 86.613636 22.152358 
L 87.318182 26.022276 
L 88.022727 24.815772 
L 88.727273 22.858049 
L 89.431818 19.853171 
L 90.136364 18.623902 
L 90.840909 16.597886 
L 91.545455 10.975122 
L 92.25 12.249919 
L 92.954545 9.245041 
L 93.659091 10.064553 
L 94.363636 14.981626 
L 95.068182 19.101951 
L 95.772727 19.853171 
L 96.477273 17.986504 
L 97.181818 25.202764 
L 97.886364 27.706829 
L 98.590909 26.136098 
L 100 29.254797 
L 101.409091 28.298699 
L 102.113636 28.617398 
L 102.818182 29.937724 
L 103.522727 30.34748 
L 104.227273 29.140976 
L 104.931818 30.78 
L 107.045455 28.366992 
L 107.75 25.726341 
L 108.454545 25.271057 
L 109.159091 22.311707 
L 109.863636 23.13122 
L 110.568182 14.184878 
L 111.272727 14.526341 
L 111.977273 13.775122 
L 112.681818 16.324715 
L 113.386364 12.614146 
L 114.795455 24.360488 
L 115.5 27.069431 
L 116.204545 23.654797 
L 116.909091 24.223902 
L 117.613636 24.58813 
L 118.318182 23.609268 
L 119.022727 23.791382 
L 119.727273 23.472683 
L 120.431818 20.627154 
L 121.136364 24.701951 
L 122.545455 20.968618 
L 123.25 18.327967 
L 123.954545 14.389756 
L 124.659091 13.524715 
L 125.363636 14.640163 
L 126.068182 19.238537 
L 126.772727 20.672683 
L 127.477273 24.110081 
L 128.181818 20.194634 
L 128.886364 22.448293 
L 129.590909 27.684065 
L 130.295455 27.684065 
L 131 24.451545 
L 131.704545 23.495447 
L 132.409091 26.227154 
L 133.113636 24.360488 
L 133.818182 25.999512 
L 134.522727 20.877561 
L 135.227273 18.737724 
L 135.931818 21.856423 
L 136.636364 21.401138 
L 137.340909 16.552358 
L 138.045455 8.243415 
L 138.75 7.423902 
L 139.454545 5.58 
L 140.159091 7.492195 
L 140.863636 11.271057 
L 141.568182 5.716585 
L 142.272727 8.493821 
L 142.977273 9.449919 
L 143.681818 9.381626 
L 144.386364 13.82065 
L 145.090909 20.103577 
L 145.795455 20.513333 
L 147.204545 26.136098 
L 147.909091 28.13935 
L 148.613636 28.002764 
L 149.318182 30.279187 
L 150.727273 29.869431 
L 151.431818 30.415772 
L 152.136364 26.409268 
L 152.840909 23.586504 
L 153.545455 26.864553 
L 154.25 22.926341 
L 154.954545 25.066179 
L 155.659091 21.924715 
L 155.659091 21.924715 
" clip-path="url(#pd67baa7db9)" style="fill: none; stroke: #1f77b4; stroke-width: 2; stroke-linecap: square"/>
   </g>
   <g id="patch_3">
    <path d="M 22.5 32.04 
L 22.5 4.32 
" style="fill: none; stroke: #000000; stroke-width: 0.8; stroke-linejoin: miter; stroke-linecap: square"/>
   </g>
   <g id="patch_4">
    <path d="M 162 32.04 
L 162 4.32 
" style="fill: none; stroke: #000000; stroke-width: 0.8; stroke-linejoin: miter; stroke-linecap: square"/>
   </g>
   <g id="patch_5">
    <path d="M 22.5 32.04 
L 162 32.04 
" style="fill: none; stroke: #000000; stroke-width: 0.8; stroke-linejoin: miter; stroke-linecap: square"/>
   </g>
   <g id="patch_6">
    <path d="M 22.5 4.32 
L 162 4.32 
" style="fill: none; stroke: #000000; stroke-width: 0.8; stroke-linejoin: miter; stroke-linecap: square"/>
   </g>
  </g>
 </g>
 <defs>
  <clipPath id="pd67baa7db9">
   <rect x="22.5" y="4.32" width="139.5" height="27.72"/>
  </clipPath>
 </defs>
</svg>
