<?xml version="1.0" encoding="utf-8" standalone="no"?>
<!DOCTYPE svg PUBLIC "-//W3C//DTD SVG 1.1//EN"
  "http://www.w3.org/Graphics/SVG/1.1/DTD/svg11.dtd">
<svg xmlns:xlink="http://www.w3.org/1999/xlink" width="180pt" height="36pt" viewBox="0 0 180 36" xmlns="http://www.w3.org/2000/svg" version="1.1">
 <metadata>
  <rdf:RDF xmlns:dc="http://purl.org/dc/elements/1.1/" xmlns:cc="http://creativecommons.org/ns#" xmlns:rdf="http://www.w3.org/1999/02/22-rdf-syntax-ns#">
   <cc:Work>
    <dc:type rdf:resource="http://purl.org/dc/dcmitype/StillImage"/>
    <dc:date>2024-11-13T12:41:21.836924</dc:date>
    <dc:format>image/svg+xml</dc:format>
    <dc:creator>
     <cc:Agent>
      <dc:title>Matplotlib v3.9.1, https://matplotlib.org/</dc:title>
     </cc:Agent>
    </dc:creator>
   </cc:Work>
  </rdf:RDF>
 </metadata>
 <defs>
  <style type="text/css">*{stroke-linejoin: round; stroke-linecap: butt}</style>
 </defs>
 <g id="figure_1">
  <g id="patch_1">
   <path d="M 0 36 
L 180 36 
L 180 0 
L 0 0 
L 0 36 
z
" style="fill: none"/>
  </g>
  <g id="axes_1">
   <g id="patch_2">
    <path d="M 22.5 32.04 
L 162 32.04 
L 162 4.32 
L 22.5 4.32 
L 22.5 32.04 
z
" style="fill: none"/>
   </g>
   <g id="matplotlib.axis_1">
    <g id="xtick_1"/>
    <g id="xtick_2"/>
    <g id="xtick_3"/>
    <g id="xtick_4"/>
   </g>
   <g id="matplotlib.axis_2">
    <g id="ytick_1"/>
    <g id="ytick_2"/>
   </g>
   <g id="line2d_1">
    <path d="M 28.840909 19.855145 
L 29.545455 17.498024 
L 30.25 17.166968 
L 30.954545 18.266075 
L 31.659091 16.597551 
L 32.363636 10.982838 
L 33.068182 11.671435 
L 33.772727 8.016574 
L 34.477273 6.75856 
L 35.181818 10.016153 
L 35.886364 10.770962 
L 36.590909 16.266495 
L 37.295455 14.915786 
L 38 12.532181 
L 38.704545 16.994819 
L 39.409091 17.431813 
L 40.113636 17.484782 
L 41.522727 22.662501 
L 42.227273 20.901282 
L 42.931818 21.099916 
L 43.636364 20.927767 
L 44.340909 18.438224 
L 45.045455 16.743216 
L 45.75 12.849995 
L 47.159091 7.473642 
L 47.863636 9.52619 
L 48.568182 8.890562 
L 49.272727 10.386936 
L 49.977273 16.266495 
L 50.681818 15.2336 
L 51.386364 14.717152 
L 52.090909 17.18021 
L 52.795455 15.246842 
L 53.5 16.226768 
L 54.909091 10.731235 
L 55.613636 11.380105 
L 56.318182 7.354461 
L 57.022727 5.58 
L 57.727273 6.308324 
L 58.431818 7.566337 
L 59.136364 12.17464 
L 59.840909 15.697078 
L 60.545455 18.266075 
L 61.25 18.822249 
L 61.954545 16.729974 
L 63.363636 23.89403 
L 64.068182 27.48268 
L 64.772727 30.051676 
L 65.477273 29.998707 
L 66.886364 30.78 
L 67.590909 30.117888 
L 68.295455 29.680893 
L 69 29.667651 
L 69.704545 30.223826 
L 70.409091 29.363079 
L 71.113636 29.032023 
L 71.818182 28.184519 
L 72.522727 27.032444 
L 73.227273 25.536069 
L 73.931818 24.648839 
L 74.636364 24.622354 
L 75.340909 21.29855 
L 76.045455 21.53691 
L 76.75 18.372013 
L 77.454545 20.278896 
L 78.159091 19.457877 
L 78.863636 17.484782 
L 79.568182 17.736385 
L 80.272727 17.047788 
L 80.977273 21.219096 
L 81.681818 22.914104 
L 82.386364 25.072591 
L 83.090909 21.192612 
L 83.795455 20.742375 
L 84.5 18.067441 
L 85.204545 16.756458 
L 85.909091 17.696658 
L 86.613636 19.630026 
L 87.318182 18.729553 
L 88.022727 19.047367 
L 88.727273 20.504015 
L 89.431818 20.014051 
L 90.136364 17.511266 
L 90.840909 18.848734 
L 91.545455 18.093925 
L 92.25 17.789354 
L 92.954545 18.014472 
L 93.659091 15.710321 
L 94.363636 18.107168 
L 95.068182 17.723142 
L 95.772727 16.955092 
L 96.477273 15.35278 
L 97.181818 14.425822 
L 97.886364 14.134493 
L 98.590909 13.710741 
L 99.295455 14.611214 
L 100 16.465129 
L 100.704545 16.729974 
L 101.409091 18.305801 
L 102.113636 16.067861 
L 102.818182 18.332286 
L 103.522727 16.187042 
L 104.227273 15.048208 
L 104.931818 15.816259 
L 105.636364 17.153726 
L 106.340909 15.485202 
L 107.045455 16.968334 
L 107.75 15.339538 
L 108.454545 20.927767 
L 109.159091 17.921776 
L 110.568182 20.225927 
L 111.272727 20.252412 
L 111.977273 22.900862 
L 113.386364 22.0666 
L 114.090909 19.312212 
L 114.795455 19.82866 
L 115.5 19.034125 
L 116.204545 15.617625 
L 116.909091 14.439065 
L 117.613636 14.968755 
L 118.318182 13.088355 
L 119.022727 10.744477 
L 119.727273 9.301072 
L 120.431818 9.354041 
L 121.136364 8.864078 
L 121.840909 12.571908 
L 122.545455 17.325875 
L 123.25 19.338697 
L 123.954545 20.901282 
L 124.659091 24.873957 
L 125.363636 27.495922 
L 126.068182 28.634756 
L 126.772727 26.979475 
L 127.477273 28.038854 
L 128.886364 25.853883 
L 129.590909 24.569385 
L 130.295455 21.020462 
L 131 19.934598 
L 131.704545 19.735964 
L 132.409091 16.385675 
L 133.113636 15.988408 
L 133.818182 14.571487 
L 134.522727 16.796185 
L 135.227273 15.127662 
L 135.931818 18.160137 
L 136.636364 17.219937 
L 137.340909 16.862396 
L 138.045455 13.684256 
L 138.75 14.081524 
L 139.454545 14.068282 
L 140.159091 17.948261 
L 140.863636 18.875218 
L 141.568182 20.914524 
L 142.272727 21.311792 
L 142.977273 21.192612 
L 143.681818 22.013631 
L 144.386364 23.443794 
L 145.090909 23.020042 
L 145.795455 19.934598 
L 146.5 17.842323 
L 147.204545 19.272486 
L 147.909091 17.749627 
L 148.613636 14.968755 
L 149.318182 13.47238 
L 150.022727 14.876059 
L 151.431818 12.17464 
L 152.136364 11.181471 
L 152.840909 11.353621 
L 153.545455 10.519359 
L 154.25 9.327556 
L 154.954545 11.380105 
L 155.659091 12.955933 
L 155.659091 12.955933 
" clip-path="url(#p2751f9b509)" style="fill: none; stroke: #1f77b4; stroke-width: 2; stroke-linecap: square"/>
   </g>
   <g id="patch_3">
    <path d="M 22.5 32.04 
L 22.5 4.32 
" style="fill: none; stroke: #000000; stroke-width: 0.8; stroke-linejoin: miter; stroke-linecap: square"/>
   </g>
   <g id="patch_4">
    <path d="M 162 32.04 
L 162 4.32 
" style="fill: none; stroke: #000000; stroke-width: 0.8; stroke-linejoin: miter; stroke-linecap: square"/>
   </g>
   <g id="patch_5">
    <path d="M 22.5 32.04 
L 162 32.04 
" style="fill: none; stroke: #000000; stroke-width: 0.8; stroke-linejoin: miter; stroke-linecap: square"/>
   </g>
   <g id="patch_6">
    <path d="M 22.5 4.32 
L 162 4.32 
" style="fill: none; stroke: #000000; stroke-width: 0.8; stroke-linejoin: miter; stroke-linecap: square"/>
   </g>
  </g>
 </g>
 <defs>
  <clipPath id="p2751f9b509">
   <rect x="22.5" y="4.32" width="139.5" height="27.72"/>
  </clipPath>
 </defs>
</svg>
