<?xml version="1.0" encoding="utf-8" standalone="no"?>
<!DOCTYPE svg PUBLIC "-//W3C//DTD SVG 1.1//EN"
  "http://www.w3.org/Graphics/SVG/1.1/DTD/svg11.dtd">
<svg xmlns:xlink="http://www.w3.org/1999/xlink" width="180pt" height="36pt" viewBox="0 0 180 36" xmlns="http://www.w3.org/2000/svg" version="1.1">
 <metadata>
  <rdf:RDF xmlns:dc="http://purl.org/dc/elements/1.1/" xmlns:cc="http://creativecommons.org/ns#" xmlns:rdf="http://www.w3.org/1999/02/22-rdf-syntax-ns#">
   <cc:Work>
    <dc:type rdf:resource="http://purl.org/dc/dcmitype/StillImage"/>
    <dc:date>2024-11-13T12:41:19.813459</dc:date>
    <dc:format>image/svg+xml</dc:format>
    <dc:creator>
     <cc:Agent>
      <dc:title>Matplotlib v3.9.1, https://matplotlib.org/</dc:title>
     </cc:Agent>
    </dc:creator>
   </cc:Work>
  </rdf:RDF>
 </metadata>
 <defs>
  <style type="text/css">*{stroke-linejoin: round; stroke-linecap: butt}</style>
 </defs>
 <g id="figure_1">
  <g id="patch_1">
   <path d="M 0 36 
L 180 36 
L 180 0 
L 0 0 
L 0 36 
z
" style="fill: none"/>
  </g>
  <g id="axes_1">
   <g id="patch_2">
    <path d="M 22.5 32.04 
L 162 32.04 
L 162 4.32 
L 22.5 4.32 
L 22.5 32.04 
z
" style="fill: none"/>
   </g>
   <g id="matplotlib.axis_1">
    <g id="xtick_1"/>
    <g id="xtick_2"/>
    <g id="xtick_3"/>
    <g id="xtick_4"/>
   </g>
   <g id="matplotlib.axis_2">
    <g id="ytick_1"/>
    <g id="ytick_2"/>
   </g>
   <g id="line2d_1">
    <path d="M 28.840909 21.314171 
L 29.545455 19.857889 
L 30.25 16.660402 
L 30.954545 19.921206 
L 31.659091 16.027236 
L 32.363636 11.025226 
L 33.068182 7.416181 
L 33.772727 10.898593 
L 34.477273 6.086533 
L 35.181818 6.403116 
L 35.886364 5.58 
L 36.590909 12.038291 
L 37.295455 13.019698 
L 38 15.96392 
L 38.704545 17.356884 
L 39.409091 19.921206 
L 40.113636 21.820704 
L 40.818182 22.928744 
L 41.522727 24.923216 
L 42.227273 27.26593 
L 42.931818 27.740804 
L 43.636364 29.513668 
L 44.340909 28.722211 
L 45.045455 28.405628 
L 45.75 26.664422 
L 46.454545 28.753869 
L 47.159091 24.511658 
L 47.863636 23.56191 
L 48.568182 18.623216 
L 49.272727 22.643819 
L 49.977273 22.295578 
L 50.681818 21.472462 
L 51.386364 19.003116 
L 52.090909 17.705126 
L 52.795455 19.952864 
L 53.5 18.528241 
L 54.204545 16.597085 
L 54.909091 19.161407 
L 55.613636 18.116683 
L 56.318182 19.161407 
L 57.022727 19.762915 
L 58.431818 17.451859 
L 59.136364 18.211658 
L 59.840909 18.781508 
L 60.545455 18.053367 
L 61.25 22.232261 
L 62.659091 18.085025 
L 63.363636 20.39608 
L 64.068182 19.224724 
L 64.772727 10.803618 
L 66.181818 19.383015 
L 66.886364 15.837286 
L 67.590909 12.956382 
L 68.295455 14.855879 
L 69 9.442312 
L 69.704545 10.930251 
L 70.409091 10.043819 
L 71.113636 12.354874 
L 71.818182 10.96191 
L 72.522727 11.088543 
L 73.227273 14.634271 
L 73.931818 16.755377 
L 74.636364 17.166935 
L 75.340909 15.742312 
L 76.045455 16.69206 
L 76.75 16.312161 
L 77.454545 8.270955 
L 78.863636 8.682513 
L 79.568182 8.36593 
L 80.272727 8.397588 
L 80.977273 10.107136 
L 81.681818 10.518693 
L 82.386364 14.28603 
L 83.090909 13.17799 
L 83.795455 14.919196 
L 84.5 11.721709 
L 85.204545 9.727236 
L 85.909091 16.913668 
L 86.613636 15.710653 
L 88.727273 27.139296 
L 89.431818 29.545327 
L 90.136364 30.305126 
L 90.840909 30.78 
L 91.545455 29.893568 
L 92.25 26.031256 
L 92.954545 24.638291 
L 93.659091 24.258392 
L 94.363636 22.897085 
L 95.068182 19.414673 
L 95.772727 17.958392 
L 96.477273 18.939799 
L 97.886364 11.88 
L 98.590909 11.785025 
L 100 8.745829 
L 100.704545 9.948844 
L 101.409091 11.373467 
L 102.113636 16.090553 
L 102.818182 18.433266 
L 103.522727 19.193065 
L 104.227273 22.485528 
L 104.931818 24.258392 
L 106.340909 25.081508 
L 107.045455 25.714673 
L 107.75 24.226734 
L 108.454545 20.681005 
L 109.159091 24.511658 
L 109.863636 20.997588 
L 110.568182 19.604623 
L 111.272727 19.319698 
L 111.977273 15.172462 
L 112.681818 14.570955 
L 114.795455 23.783518 
L 115.5 27.139296 
L 116.204545 27.899095 
L 116.909091 27.867437 
L 117.613636 29.070452 
L 118.318182 30.716683 
L 119.022727 27.804121 
L 119.727273 27.962412 
L 120.431818 27.772462 
L 121.136364 29.735276 
L 121.840909 29.323719 
L 122.545455 25.746332 
L 123.25 24.226734 
L 123.954545 25.049849 
L 124.659091 25.366432 
L 125.363636 27.772462 
L 126.068182 28.278995 
L 126.772727 23.656884 
L 127.477273 25.714673 
L 128.181818 26.601106 
L 128.886364 26.316181 
L 129.590909 25.176482 
L 130.295455 22.07397 
L 131 20.807638 
L 131.704545 20.997588 
L 133.113636 17.99005 
L 133.818182 15.995578 
L 134.522727 15.39407 
L 135.227273 18.021709 
L 135.931818 10.835276 
L 136.636364 13.779497 
L 137.340909 10.58201 
L 138.045455 8.587538 
L 138.75 8.935779 
L 139.454545 9.505628 
L 140.159091 13.019698 
L 140.863636 15.647337 
L 141.568182 11.595075 
L 142.272727 12.79809 
L 142.977273 16.185528 
L 143.681818 17.705126 
L 144.386364 12.766432 
L 145.090909 17.388543 
L 145.795455 13.146332 
L 146.5 17.325226 
L 147.204545 17.800101 
L 147.909091 19.383015 
L 148.613636 18.749849 
L 149.318182 17.356884 
L 150.022727 17.546834 
L 150.727273 14.570955 
L 151.431818 14.507638 
L 152.136364 11.215176 
L 152.840909 15.710653 
L 153.545455 10.012161 
L 154.25 11.341809 
L 154.954545 14.982513 
L 155.659091 10.233769 
L 155.659091 10.233769 
" clip-path="url(#p64fd1839ea)" style="fill: none; stroke: #1f77b4; stroke-width: 2; stroke-linecap: square"/>
   </g>
   <g id="patch_3">
    <path d="M 22.5 32.04 
L 22.5 4.32 
" style="fill: none; stroke: #000000; stroke-width: 0.8; stroke-linejoin: miter; stroke-linecap: square"/>
   </g>
   <g id="patch_4">
    <path d="M 162 32.04 
L 162 4.32 
" style="fill: none; stroke: #000000; stroke-width: 0.8; stroke-linejoin: miter; stroke-linecap: square"/>
   </g>
   <g id="patch_5">
    <path d="M 22.5 32.04 
L 162 32.04 
" style="fill: none; stroke: #000000; stroke-width: 0.8; stroke-linejoin: miter; stroke-linecap: square"/>
   </g>
   <g id="patch_6">
    <path d="M 22.5 4.32 
L 162 4.32 
" style="fill: none; stroke: #000000; stroke-width: 0.8; stroke-linejoin: miter; stroke-linecap: square"/>
   </g>
  </g>
 </g>
 <defs>
  <clipPath id="p64fd1839ea">
   <rect x="22.5" y="4.32" width="139.5" height="27.72"/>
  </clipPath>
 </defs>
</svg>
