<?xml version="1.0" encoding="utf-8" standalone="no"?>
<!DOCTYPE svg PUBLIC "-//W3C//DTD SVG 1.1//EN"
  "http://www.w3.org/Graphics/SVG/1.1/DTD/svg11.dtd">
<svg xmlns:xlink="http://www.w3.org/1999/xlink" width="180pt" height="36pt" viewBox="0 0 180 36" xmlns="http://www.w3.org/2000/svg" version="1.1">
 <metadata>
  <rdf:RDF xmlns:dc="http://purl.org/dc/elements/1.1/" xmlns:cc="http://creativecommons.org/ns#" xmlns:rdf="http://www.w3.org/1999/02/22-rdf-syntax-ns#">
   <cc:Work>
    <dc:type rdf:resource="http://purl.org/dc/dcmitype/StillImage"/>
    <dc:date>2024-11-13T12:41:20.091740</dc:date>
    <dc:format>image/svg+xml</dc:format>
    <dc:creator>
     <cc:Agent>
      <dc:title>Matplotlib v3.9.1, https://matplotlib.org/</dc:title>
     </cc:Agent>
    </dc:creator>
   </cc:Work>
  </rdf:RDF>
 </metadata>
 <defs>
  <style type="text/css">*{stroke-linejoin: round; stroke-linecap: butt}</style>
 </defs>
 <g id="figure_1">
  <g id="patch_1">
   <path d="M 0 36 
L 180 36 
L 180 0 
L 0 0 
L 0 36 
z
" style="fill: none"/>
  </g>
  <g id="axes_1">
   <g id="patch_2">
    <path d="M 22.5 32.04 
L 162 32.04 
L 162 4.32 
L 22.5 4.32 
L 22.5 32.04 
z
" style="fill: none"/>
   </g>
   <g id="matplotlib.axis_1">
    <g id="xtick_1"/>
    <g id="xtick_2"/>
    <g id="xtick_3"/>
    <g id="xtick_4"/>
   </g>
   <g id="matplotlib.axis_2">
    <g id="ytick_1"/>
    <g id="ytick_2"/>
   </g>
   <g id="line2d_1">
    <path d="M 28.840909 18.565153 
L 29.545455 20.006725 
L 30.25 20.644978 
L 30.954545 16.353275 
L 31.659091 18.246026 
L 32.363636 19.159389 
L 33.068182 22.779825 
L 33.772727 22.944891 
L 34.477273 27.280611 
L 35.181818 26.730393 
L 35.886364 28.502096 
L 36.590909 28.843231 
L 37.295455 29.492489 
L 38 29.580524 
L 38.704545 28.898253 
L 39.409091 29.778603 
L 40.113636 29.943668 
L 40.818182 29.195371 
L 42.227273 30.020699 
L 43.636364 29.349432 
L 44.340909 28.711179 
L 45.045455 28.26 
L 45.75 29.096332 
L 46.454545 28.854236 
L 47.159091 29.29441 
L 47.863636 28.931266 
L 49.977273 26.488297 
L 50.681818 26.499301 
L 51.386364 26.994498 
L 52.090909 26.279214 
L 53.5 21.932489 
L 54.204545 21.899476 
L 55.613636 22.61476 
L 56.318182 26.09214 
L 57.022727 27.896856 
L 57.727273 28.039913 
L 58.431818 27.874847 
L 59.136364 27.445677 
L 59.840909 26.598341 
L 60.545455 27.610742 
L 61.25 27.027511 
L 61.954545 28.392052 
L 62.659091 28.722183 
L 63.363636 27.016507 
L 64.068182 24.848646 
L 64.772727 25.695983 
L 65.477273 25.046725 
L 66.181818 25.156769 
L 66.886364 24.518515 
L 67.590909 25.145764 
L 68.295455 24.375459 
L 69 23.363057 
L 70.409091 23.693188 
L 71.113636 23.561135 
L 71.818182 26.136157 
L 72.522727 27.258603 
L 73.227273 27.148559 
L 73.931818 29.008297 
L 74.636364 29.624541 
L 75.340909 29.448472 
L 76.045455 30.086725 
L 76.75 30.009694 
L 77.454545 30.78 
L 78.159091 30.405852 
L 78.863636 30.647948 
L 80.272727 30.152751 
L 80.977273 30.537904 
L 81.681818 29.987686 
L 82.386364 29.657555 
L 83.090909 29.888646 
L 83.795455 29.811616 
L 84.5 28.975284 
L 85.204545 28.86524 
L 85.909091 30.042707 
L 86.613636 30.119738 
L 87.318182 29.723581 
L 88.022727 30.152751 
L 88.727273 30.284803 
L 89.431818 30.548908 
L 90.136364 29.877642 
L 90.840909 30.185764 
L 91.545455 29.74559 
L 92.25 30.020699 
L 92.954545 30.108734 
L 94.363636 29.228384 
L 95.772727 27.764803 
L 96.477273 27.258603 
L 97.181818 26.928472 
L 97.886364 24.892664 
L 98.590909 24.133362 
L 99.295455 22.79083 
L 100 20.292838 
L 101.409091 19.74262 
L 102.113636 18.664192 
L 102.818182 19.225415 
L 103.522727 19.060349 
L 104.227273 19.159389 
L 104.931818 21.525328 
L 106.340909 20.380873 
L 107.045455 21.525328 
L 108.454545 19.302445 
L 109.159091 22.163581 
L 109.863636 19.753624 
L 111.272727 18.422096 
L 111.977273 17.508734 
L 112.681818 16.353275 
L 113.386364 16.199214 
L 114.090909 17.134585 
L 114.795455 16.606376 
L 115.5 16.408297 
L 116.204545 15.450917 
L 116.909091 15.208821 
L 117.613636 16.79345 
L 118.318182 16.452314 
L 119.022727 17.618777 
L 119.727273 20.149782 
L 120.431818 18.807249 
L 121.136364 19.005328 
L 121.840909 19.434498 
L 122.545455 17.816856 
L 123.25 17.871878 
L 123.954545 16.925502 
L 124.659091 16.232227 
L 125.363636 17.354672 
L 126.068182 19.522533 
L 126.772727 18.202009 
L 127.477273 17.288646 
L 128.181818 17.728821 
L 128.886364 15.417904 
L 129.590909 16.507336 
L 130.295455 17.915895 
L 131 16.045153 
L 131.704545 17.453712 
L 132.409091 17.662795 
L 133.113636 15.770044 
L 133.818182 18.025939 
L 134.522727 16.991528 
L 135.227273 18.70821 
L 135.931818 22.108559 
L 136.636364 19.885677 
L 137.340909 17.211616 
L 138.045455 19.874672 
L 138.75 19.335459 
L 139.454545 16.177205 
L 140.159091 17.420699 
L 140.863636 16.859476 
L 141.568182 14.163406 
L 142.272727 13.56917 
L 142.977273 8.859301 
L 143.681818 8.595197 
L 144.386364 7.835895 
L 145.090909 7.417729 
L 145.795455 14.009345 
L 146.5 10.994148 
L 147.204545 13.481135 
L 147.909091 13.844279 
L 148.613636 10.686026 
L 149.318182 5.58 
L 150.022727 7.725852 
L 151.431818 7.384716 
L 152.136364 9.321485 
L 152.840909 12.644803 
L 153.545455 13.899301 
L 154.25 13.448122 
L 154.954545 16.298253 
L 155.659091 19.929694 
L 155.659091 19.929694 
" clip-path="url(#pb8b12308a5)" style="fill: none; stroke: #1f77b4; stroke-width: 2; stroke-linecap: square"/>
   </g>
   <g id="patch_3">
    <path d="M 22.5 32.04 
L 22.5 4.32 
" style="fill: none; stroke: #000000; stroke-width: 0.8; stroke-linejoin: miter; stroke-linecap: square"/>
   </g>
   <g id="patch_4">
    <path d="M 162 32.04 
L 162 4.32 
" style="fill: none; stroke: #000000; stroke-width: 0.8; stroke-linejoin: miter; stroke-linecap: square"/>
   </g>
   <g id="patch_5">
    <path d="M 22.5 32.04 
L 162 32.04 
" style="fill: none; stroke: #000000; stroke-width: 0.8; stroke-linejoin: miter; stroke-linecap: square"/>
   </g>
   <g id="patch_6">
    <path d="M 22.5 4.32 
L 162 4.32 
" style="fill: none; stroke: #000000; stroke-width: 0.8; stroke-linejoin: miter; stroke-linecap: square"/>
   </g>
  </g>
 </g>
 <defs>
  <clipPath id="pb8b12308a5">
   <rect x="22.5" y="4.32" width="139.5" height="27.72"/>
  </clipPath>
 </defs>
</svg>
