<?xml version="1.0" encoding="utf-8" standalone="no"?>
<!DOCTYPE svg PUBLIC "-//W3C//DTD SVG 1.1//EN"
  "http://www.w3.org/Graphics/SVG/1.1/DTD/svg11.dtd">
<svg xmlns:xlink="http://www.w3.org/1999/xlink" width="180pt" height="36pt" viewBox="0 0 180 36" xmlns="http://www.w3.org/2000/svg" version="1.1">
 <metadata>
  <rdf:RDF xmlns:dc="http://purl.org/dc/elements/1.1/" xmlns:cc="http://creativecommons.org/ns#" xmlns:rdf="http://www.w3.org/1999/02/22-rdf-syntax-ns#">
   <cc:Work>
    <dc:type rdf:resource="http://purl.org/dc/dcmitype/StillImage"/>
    <dc:date>2024-11-13T12:41:21.390740</dc:date>
    <dc:format>image/svg+xml</dc:format>
    <dc:creator>
     <cc:Agent>
      <dc:title>Matplotlib v3.9.1, https://matplotlib.org/</dc:title>
     </cc:Agent>
    </dc:creator>
   </cc:Work>
  </rdf:RDF>
 </metadata>
 <defs>
  <style type="text/css">*{stroke-linejoin: round; stroke-linecap: butt}</style>
 </defs>
 <g id="figure_1">
  <g id="patch_1">
   <path d="M 0 36 
L 180 36 
L 180 0 
L 0 0 
L 0 36 
z
" style="fill: none"/>
  </g>
  <g id="axes_1">
   <g id="patch_2">
    <path d="M 22.5 32.04 
L 162 32.04 
L 162 4.32 
L 22.5 4.32 
L 22.5 32.04 
z
" style="fill: none"/>
   </g>
   <g id="matplotlib.axis_1">
    <g id="xtick_1"/>
    <g id="xtick_2"/>
    <g id="xtick_3"/>
    <g id="xtick_4"/>
   </g>
   <g id="matplotlib.axis_2">
    <g id="ytick_1"/>
    <g id="ytick_2"/>
    <g id="ytick_3"/>
   </g>
   <g id="line2d_1">
    <path d="M 28.840909 27.812836 
L 30.25 30.132239 
L 30.954545 30.59194 
L 31.659091 29.944179 
L 32.363636 27.541194 
L 33.068182 30.17403 
L 33.772727 29.860597 
L 34.477273 30.78 
L 35.181818 30.194925 
L 35.886364 28.96209 
L 36.590909 29.944179 
L 37.295455 27.457612 
L 38.704545 28.063582 
L 39.409091 27.875522 
L 40.113636 25.326269 
L 40.818182 21.899403 
L 41.522727 19.914328 
L 42.227273 20.394925 
L 42.931818 17.448657 
L 43.636364 18.012836 
L 44.340909 17.532239 
L 45.045455 16.738209 
L 45.75 16.508358 
L 46.454545 14.230746 
L 47.159091 12.914328 
L 47.863636 8.79791 
L 48.568182 10.908358 
L 49.272727 15.317313 
L 49.977273 18.117313 
L 50.681818 18.660597 
L 51.386364 18.97403 
L 52.090909 18.994925 
L 52.795455 15.609851 
L 53.5 18.514328 
L 54.909091 13.37403 
L 55.613636 8.777015 
L 56.318182 11.994925 
L 57.022727 5.58 
L 57.727273 6.060597 
L 58.431818 10.009851 
L 59.136364 6.56209 
L 59.840909 12.078507 
L 60.545455 9.821791 
L 61.25 15.212836 
L 61.954545 11.78597 
L 62.659091 13.060597 
L 63.363636 12.914328 
L 64.068182 12.977015 
L 64.772727 9.508358 
L 65.477273 14.272537 
L 66.181818 15.735224 
L 66.886364 16.278507 
L 67.590909 15.317313 
L 68.295455 15.505373 
L 69 17.030746 
L 69.704545 15.860597 
L 70.409091 12.078507 
L 71.113636 14.147164 
L 71.818182 13.060597 
L 72.522727 14.209851 
L 73.227273 13.666567 
L 73.931818 16.445672 
L 74.636364 13.123284 
L 76.045455 14.899403 
L 76.75 15.463582 
L 77.454545 11.138209 
L 78.159091 10.866567 
L 78.863636 12.39194 
L 79.568182 20.060597 
L 80.272727 21.606866 
L 80.977273 23.424776 
L 81.681818 17.406866 
L 82.386364 17.490448 
L 83.090909 18.430746 
L 83.795455 18.848657 
L 84.5 16.508358 
L 85.204545 16.550149 
L 85.909091 16.132239 
L 86.613636 16.069552 
L 87.318182 18.806866 
L 88.022727 16.884478 
L 88.727273 17.344179 
L 89.431818 17.281493 
L 90.136364 17.030746 
L 90.840909 19.559104 
L 91.545455 19.914328 
L 92.25 21.544179 
L 92.954545 22.463582 
L 93.659091 21.627761 
L 94.363636 19.851642 
L 95.068182 20.332239 
L 95.772727 25.242687 
L 97.181818 26.956119 
L 98.590909 24.76209 
L 99.295455 22.965075 
L 100 22.359104 
L 100.704545 24.156119 
L 101.409091 25.451642 
L 102.818182 20.165075 
L 103.522727 23.612836 
L 104.227273 24.908358 
L 104.931818 25.806866 
L 105.636364 25.660597 
L 106.340909 27.018806 
L 107.045455 28.96209 
L 107.75 27.938209 
L 108.454545 27.394925 
L 109.159091 26.120299 
L 111.272727 21.544179 
L 111.977273 23.654627 
L 112.681818 22.38 
L 113.386364 23.445672 
L 114.090909 23.299403 
L 114.795455 21.878507 
L 115.5 24.720299 
L 116.909091 21.272537 
L 117.613636 22.609851 
L 119.022727 20.394925 
L 119.727273 22.965075 
L 120.431818 19.58 
L 121.136364 21.293433 
L 121.840909 21.606866 
L 122.545455 19.475522 
L 123.954545 20.165075 
L 124.659091 15.609851 
L 125.363636 19.036716 
L 126.068182 20.290448 
L 126.772727 22.003881 
L 127.477273 19.705373 
L 128.181818 20.353134 
L 128.886364 19.538209 
L 129.590909 16.382985 
L 130.295455 14.042687 
L 131 17.57403 
L 131.704545 16.96806 
L 132.409091 15.505373 
L 133.113636 15.338209 
L 133.818182 18.36806 
L 134.522727 19.120299 
L 135.227273 20.436716 
L 135.931818 20.248657 
L 136.636364 20.959104 
L 137.340909 17.845672 
L 138.045455 20.687463 
L 138.75 20.290448 
L 140.159091 21.251642 
L 140.863636 19.350149 
L 141.568182 20.18597 
L 142.272727 20.708358 
L 142.977273 19.559104 
L 143.681818 19.099403 
L 144.386364 16.403881 
L 145.090909 17.657612 
L 145.795455 16.905373 
L 146.5 12.412836 
L 147.909091 16.048657 
L 148.613636 19.914328 
L 149.318182 18.994925 
L 150.727273 19.266567 
L 151.431818 19.830746 
L 152.136364 21.669552 
L 152.840909 18.096418 
L 153.545455 18.472537 
L 154.25 16.800896 
L 154.954545 14.711343 
L 155.659091 19.935224 
L 155.659091 19.935224 
" clip-path="url(#pbcb814290e)" style="fill: none; stroke: #1f77b4; stroke-width: 2; stroke-linecap: square"/>
   </g>
   <g id="patch_3">
    <path d="M 22.5 32.04 
L 22.5 4.32 
" style="fill: none; stroke: #000000; stroke-width: 0.8; stroke-linejoin: miter; stroke-linecap: square"/>
   </g>
   <g id="patch_4">
    <path d="M 162 32.04 
L 162 4.32 
" style="fill: none; stroke: #000000; stroke-width: 0.8; stroke-linejoin: miter; stroke-linecap: square"/>
   </g>
   <g id="patch_5">
    <path d="M 22.5 32.04 
L 162 32.04 
" style="fill: none; stroke: #000000; stroke-width: 0.8; stroke-linejoin: miter; stroke-linecap: square"/>
   </g>
   <g id="patch_6">
    <path d="M 22.5 4.32 
L 162 4.32 
" style="fill: none; stroke: #000000; stroke-width: 0.8; stroke-linejoin: miter; stroke-linecap: square"/>
   </g>
  </g>
 </g>
 <defs>
  <clipPath id="pbcb814290e">
   <rect x="22.5" y="4.32" width="139.5" height="27.72"/>
  </clipPath>
 </defs>
</svg>
