<?xml version="1.0" encoding="utf-8" standalone="no"?>
<!DOCTYPE svg PUBLIC "-//W3C//DTD SVG 1.1//EN"
  "http://www.w3.org/Graphics/SVG/1.1/DTD/svg11.dtd">
<svg xmlns:xlink="http://www.w3.org/1999/xlink" width="180pt" height="36pt" viewBox="0 0 180 36" xmlns="http://www.w3.org/2000/svg" version="1.1">
 <metadata>
  <rdf:RDF xmlns:dc="http://purl.org/dc/elements/1.1/" xmlns:cc="http://creativecommons.org/ns#" xmlns:rdf="http://www.w3.org/1999/02/22-rdf-syntax-ns#">
   <cc:Work>
    <dc:type rdf:resource="http://purl.org/dc/dcmitype/StillImage"/>
    <dc:date>2024-11-13T12:41:21.204176</dc:date>
    <dc:format>image/svg+xml</dc:format>
    <dc:creator>
     <cc:Agent>
      <dc:title>Matplotlib v3.9.1, https://matplotlib.org/</dc:title>
     </cc:Agent>
    </dc:creator>
   </cc:Work>
  </rdf:RDF>
 </metadata>
 <defs>
  <style type="text/css">*{stroke-linejoin: round; stroke-linecap: butt}</style>
 </defs>
 <g id="figure_1">
  <g id="patch_1">
   <path d="M 0 36 
L 180 36 
L 180 0 
L 0 0 
L 0 36 
z
" style="fill: none"/>
  </g>
  <g id="axes_1">
   <g id="patch_2">
    <path d="M 22.5 32.04 
L 162 32.04 
L 162 4.32 
L 22.5 4.32 
L 22.5 32.04 
z
" style="fill: none"/>
   </g>
   <g id="matplotlib.axis_1">
    <g id="xtick_1"/>
    <g id="xtick_2"/>
    <g id="xtick_3"/>
    <g id="xtick_4"/>
   </g>
   <g id="matplotlib.axis_2">
    <g id="ytick_1"/>
    <g id="ytick_2"/>
    <g id="ytick_3"/>
   </g>
   <g id="line2d_1">
    <path d="M 28.840909 19.697087 
L 29.545455 21.277765 
L 30.25 17.862048 
L 30.954545 20.750872 
L 31.659091 21.35044 
L 32.363636 22.349719 
L 33.068182 22.113526 
L 33.772727 21.295934 
L 34.477273 19.533569 
L 35.181818 16.299539 
L 35.886364 15.917996 
L 36.590909 13.937606 
L 37.295455 10.994275 
L 38 13.011002 
L 38.704545 8.014607 
L 39.409091 5.58 
L 40.113636 14.44633 
L 40.818182 17.662192 
L 41.522727 17.480505 
L 42.227273 18.497952 
L 42.931818 16.862769 
L 44.340909 24.875169 
L 45.045455 26.583028 
L 45.75 26.27416 
L 46.454545 24.784326 
L 47.159091 24.72982 
L 47.863636 23.657866 
L 48.568182 24.620807 
L 49.272727 22.858443 
L 49.977273 23.276323 
L 50.681818 22.967455 
L 51.386364 22.168032 
L 52.090909 17.153468 
L 52.795455 19.170195 
L 53.5 18.53429 
L 54.204545 19.170195 
L 54.909091 21.441283 
L 55.613636 20.278486 
L 56.318182 18.843158 
L 57.022727 17.898385 
L 57.727273 16.226864 
L 58.431818 17.498673 
L 59.136364 20.332992 
L 59.840909 19.860606 
L 60.545455 17.97106 
L 61.25 19.5154 
L 61.954545 18.461615 
L 62.659091 21.132415 
L 63.363636 22.767599 
L 64.068182 24.003071 
L 64.772727 21.150584 
L 65.477273 22.585912 
L 66.181818 23.185479 
L 66.886364 22.967455 
L 67.590909 18.53429 
L 69 21.76832 
L 69.704545 24.402783 
L 70.409091 25.347556 
L 71.113636 27.654982 
L 71.818182 28.200043 
L 72.522727 27.182596 
L 73.931818 26.001629 
L 74.636364 24.693482 
L 75.340909 25.838111 
L 76.045455 23.766878 
L 76.75 25.311218 
L 77.454545 22.676756 
L 78.159091 23.149142 
L 78.863636 23.367167 
L 79.568182 23.094636 
L 80.272727 23.239986 
L 80.977273 25.056857 
L 81.681818 24.784326 
L 82.386364 24.384614 
L 83.090909 25.910786 
L 83.795455 25.747267 
L 84.5 26.601197 
L 85.204545 26.546691 
L 85.909091 26.801053 
L 87.318182 24.72982 
L 88.727273 23.112805 
L 89.431818 20.896222 
L 90.136364 21.241428 
L 90.840909 19.878774 
L 91.545455 21.223259 
L 92.25 23.112805 
L 92.954545 23.31266 
L 93.659091 25.747267 
L 94.363636 27.364283 
L 95.068182 27.237102 
L 96.477273 29.471853 
L 97.886364 29.290166 
L 98.590909 28.52708 
L 99.295455 28.67243 
L 100 26.928234 
L 100.704545 26.873727 
L 101.409091 24.003071 
L 102.113636 24.202927 
L 102.818182 24.766157 
L 103.522727 21.423115 
L 104.227273 22.168032 
L 104.931818 23.167311 
L 105.636364 23.076467 
L 106.340909 22.168032 
L 107.045455 23.112805 
L 107.75 23.403504 
L 108.454545 23.839553 
L 109.159091 23.149142 
L 110.568182 25.274881 
L 111.272727 25.910786 
L 111.977273 25.674593 
L 113.386364 25.529243 
L 115.5 23.439841 
L 116.204545 21.950007 
L 116.909091 19.624412 
L 117.613636 19.24287 
L 118.318182 22.404225 
L 119.022727 21.186921 
L 119.727273 25.129531 
L 120.431818 25.765436 
L 121.136364 27.691319 
L 121.840909 28.763273 
L 122.545455 28.617924 
L 123.25 30.307614 
L 123.954545 30.78 
L 124.659091 30.089589 
L 125.363636 28.926792 
L 126.068182 26.365004 
L 126.772727 25.801774 
L 128.181818 19.5154 
L 128.886364 22.803937 
L 129.590909 22.858443 
L 130.295455 22.059019 
L 131 20.423836 
L 131.704545 20.169474 
L 132.409091 22.658587 
L 133.113636 19.896943 
L 133.818182 20.278486 
L 134.522727 21.277765 
L 135.227273 20.060461 
L 135.931818 20.678198 
L 136.636364 21.62297 
L 138.045455 21.20509 
L 138.75 22.4769 
L 139.454545 22.803937 
L 140.159091 22.640418 
L 140.863636 21.314102 
L 141.568182 20.714535 
L 142.272727 19.715256 
L 142.977273 22.404225 
L 143.681818 19.678919 
L 144.386364 17.716698 
L 145.090909 17.82571 
L 145.795455 18.606965 
L 146.5 22.604081 
L 147.204545 23.694203 
L 147.909091 23.367167 
L 149.318182 24.711651 
L 150.022727 24.620807 
L 150.727273 23.094636 
L 151.431818 24.947844 
L 152.136364 25.256712 
L 152.840909 24.929676 
L 153.545455 24.766157 
L 154.25 23.730541 
L 154.954545 24.202927 
L 155.659091 23.694203 
L 155.659091 23.694203 
" clip-path="url(#p4c1a06c0a9)" style="fill: none; stroke: #1f77b4; stroke-width: 2; stroke-linecap: square"/>
   </g>
   <g id="patch_3">
    <path d="M 22.5 32.04 
L 22.5 4.32 
" style="fill: none; stroke: #000000; stroke-width: 0.8; stroke-linejoin: miter; stroke-linecap: square"/>
   </g>
   <g id="patch_4">
    <path d="M 162 32.04 
L 162 4.32 
" style="fill: none; stroke: #000000; stroke-width: 0.8; stroke-linejoin: miter; stroke-linecap: square"/>
   </g>
   <g id="patch_5">
    <path d="M 22.5 32.04 
L 162 32.04 
" style="fill: none; stroke: #000000; stroke-width: 0.8; stroke-linejoin: miter; stroke-linecap: square"/>
   </g>
   <g id="patch_6">
    <path d="M 22.5 4.32 
L 162 4.32 
" style="fill: none; stroke: #000000; stroke-width: 0.8; stroke-linejoin: miter; stroke-linecap: square"/>
   </g>
  </g>
 </g>
 <defs>
  <clipPath id="p4c1a06c0a9">
   <rect x="22.5" y="4.32" width="139.5" height="27.72"/>
  </clipPath>
 </defs>
</svg>
