<?xml version="1.0" encoding="utf-8" standalone="no"?>
<!DOCTYPE svg PUBLIC "-//W3C//DTD SVG 1.1//EN"
  "http://www.w3.org/Graphics/SVG/1.1/DTD/svg11.dtd">
<svg xmlns:xlink="http://www.w3.org/1999/xlink" width="180pt" height="36pt" viewBox="0 0 180 36" xmlns="http://www.w3.org/2000/svg" version="1.1">
 <metadata>
  <rdf:RDF xmlns:dc="http://purl.org/dc/elements/1.1/" xmlns:cc="http://creativecommons.org/ns#" xmlns:rdf="http://www.w3.org/1999/02/22-rdf-syntax-ns#">
   <cc:Work>
    <dc:type rdf:resource="http://purl.org/dc/dcmitype/StillImage"/>
    <dc:date>2024-11-13T12:41:22.882287</dc:date>
    <dc:format>image/svg+xml</dc:format>
    <dc:creator>
     <cc:Agent>
      <dc:title>Matplotlib v3.9.1, https://matplotlib.org/</dc:title>
     </cc:Agent>
    </dc:creator>
   </cc:Work>
  </rdf:RDF>
 </metadata>
 <defs>
  <style type="text/css">*{stroke-linejoin: round; stroke-linecap: butt}</style>
 </defs>
 <g id="figure_1">
  <g id="patch_1">
   <path d="M 0 36 
L 180 36 
L 180 0 
L 0 0 
L 0 36 
z
" style="fill: none"/>
  </g>
  <g id="axes_1">
   <g id="patch_2">
    <path d="M 22.5 32.04 
L 162 32.04 
L 162 4.32 
L 22.5 4.32 
L 22.5 32.04 
z
" style="fill: none"/>
   </g>
   <g id="matplotlib.axis_1">
    <g id="xtick_1"/>
    <g id="xtick_2"/>
    <g id="xtick_3"/>
    <g id="xtick_4"/>
   </g>
   <g id="matplotlib.axis_2">
    <g id="ytick_1"/>
    <g id="ytick_2"/>
    <g id="ytick_3"/>
   </g>
   <g id="line2d_1">
    <path d="M 28.840909 27.288917 
L 29.545455 26.927771 
L 30.25 26.105159 
L 30.954545 26.807389 
L 31.659091 25.844331 
L 32.363636 27.128408 
L 35.181818 29.09465 
L 35.886364 29.014395 
L 36.590909 29.255159 
L 37.295455 28.131592 
L 38 28.873949 
L 38.704545 28.673312 
L 39.409091 28.693376 
L 40.818182 26.386051 
L 41.522727 27.409299 
L 42.227273 25.001656 
L 42.931818 26.16535 
L 43.636364 28.432548 
L 44.340909 28.071401 
L 45.045455 29.716624 
L 45.75 29.816943 
L 46.454545 29.796879 
L 47.159091 28.01121 
L 47.863636 28.914076 
L 48.568182 28.914076 
L 49.272727 29.295287 
L 49.977273 29.375541 
L 50.681818 28.974268 
L 51.386364 29.756752 
L 52.090909 28.693376 
L 52.795455 29.877134 
L 53.5 28.873949 
L 54.204545 26.86758 
L 54.909091 28.39242 
L 55.613636 28.292102 
L 56.318182 29.375541 
L 57.022727 28.432548 
L 57.727273 28.292102 
L 58.431818 28.031274 
L 59.136364 29.776815 
L 59.840909 30.378726 
L 60.545455 29.495924 
L 61.25 30.78 
L 61.954545 28.151656 
L 62.659091 28.653248 
L 63.363636 25.463121 
L 64.068182 25.041783 
L 65.477273 25.322675 
L 66.181818 23.035414 
L 66.886364 23.456752 
L 67.590909 22.212803 
L 68.295455 24.038599 
L 69 22.714395 
L 69.704545 22.594013 
L 70.409091 24.821083 
L 71.113636 21.149427 
L 71.818182 19.163121 
L 72.522727 21.149427 
L 73.227273 22.754522 
L 73.931818 25.703885 
L 74.636364 25.523312 
L 75.340909 26.004841 
L 76.045455 24.520127 
L 76.75 23.797834 
L 77.454545 20.667898 
L 78.159091 21.109299 
L 78.863636 22.433503 
L 79.568182 22.413439 
L 80.272727 23.697516 
L 80.977273 22.353248 
L 81.681818 19.86535 
L 82.386364 20.366943 
L 83.090909 23.195924 
L 83.795455 22.333185 
L 85.204545 18.240191 
L 85.909091 20.106115 
L 86.613636 15.070127 
L 87.318182 20.186369 
L 88.022727 20.045924 
L 88.727273 19.403885 
L 89.431818 19.383822 
L 90.136364 21.129363 
L 90.840909 20.086051 
L 91.545455 22.493694 
L 92.25 18.039554 
L 92.954545 21.16949 
L 94.363636 24.158981 
L 95.068182 23.677452 
L 95.772727 22.072357 
L 96.477273 17.778726 
L 97.181818 21.691146 
L 97.886364 20.186369 
L 98.590909 23.436688 
L 99.295455 23.01535 
L 100 20.487325 
L 100.704545 19.64465 
L 101.409091 18.18 
L 102.113636 18.039554 
L 102.818182 17.377452 
L 104.227273 12.100701 
L 104.931818 11.980318 
L 105.636364 9.753248 
L 107.045455 15.752293 
L 107.75 14.287643 
L 108.454545 13.72586 
L 109.159091 14.809299 
L 109.863636 9.351975 
L 110.568182 5.58 
L 111.272727 10.816624 
L 111.977273 7.606433 
L 112.681818 6.141783 
L 113.386364 9.392102 
L 114.090909 10.214713 
L 114.795455 9.893694 
L 115.5 7.365669 
L 116.204545 10.41535 
L 116.909091 10.274904 
L 117.613636 11.037325 
L 118.318182 15.872675 
L 119.022727 13.304522 
L 119.727273 15.03 
L 120.431818 14.227452 
L 121.136364 13.204204 
L 121.840909 13.063758 
L 122.545455 10.03414 
L 123.25 11.49879 
L 123.954545 11.88 
L 124.659091 11.659299 
L 125.363636 12.522038 
L 126.068182 15.79242 
L 126.772727 17.879045 
L 127.477273 19.423949 
L 128.181818 19.925541 
L 128.886364 17.297197 
L 130.295455 15.491465 
L 131 14.046879 
L 131.704545 15.210573 
L 132.409091 15.371083 
L 133.113636 11.659299 
L 133.818182 11.057389 
L 134.522727 7.04465 
L 135.227273 7.144968 
L 135.931818 6.543057 
L 136.636364 10.736369 
L 137.340909 7.626497 
L 138.045455 14.207389 
L 138.75 12.281274 
L 139.454545 14.448153 
L 140.159091 20.226497 
L 140.863636 23.436688 
L 141.568182 23.236051 
L 142.272727 19.785096 
L 142.977273 19.163121 
L 143.681818 17.899108 
L 144.386364 13.605478 
L 145.090909 14.749108 
L 145.795455 12.381592 
L 146.5 14.046879 
L 147.204545 15.270764 
L 147.909091 11.197834 
L 148.613636 12.100701 
L 149.318182 13.745924 
L 150.022727 12.943376 
L 150.727273 14.929682 
L 151.431818 10.595924 
L 152.136364 9.512484 
L 152.840909 14.307707 
L 153.545455 11.49879 
L 154.25 13.625541 
L 154.954545 16.213758 
L 155.659091 18.039554 
L 155.659091 18.039554 
" clip-path="url(#p5250decf6b)" style="fill: none; stroke: #1f77b4; stroke-width: 2; stroke-linecap: square"/>
   </g>
   <g id="patch_3">
    <path d="M 22.5 32.04 
L 22.5 4.32 
" style="fill: none; stroke: #000000; stroke-width: 0.8; stroke-linejoin: miter; stroke-linecap: square"/>
   </g>
   <g id="patch_4">
    <path d="M 162 32.04 
L 162 4.32 
" style="fill: none; stroke: #000000; stroke-width: 0.8; stroke-linejoin: miter; stroke-linecap: square"/>
   </g>
   <g id="patch_5">
    <path d="M 22.5 32.04 
L 162 32.04 
" style="fill: none; stroke: #000000; stroke-width: 0.8; stroke-linejoin: miter; stroke-linecap: square"/>
   </g>
   <g id="patch_6">
    <path d="M 22.5 4.32 
L 162 4.32 
" style="fill: none; stroke: #000000; stroke-width: 0.8; stroke-linejoin: miter; stroke-linecap: square"/>
   </g>
  </g>
 </g>
 <defs>
  <clipPath id="p5250decf6b">
   <rect x="22.5" y="4.32" width="139.5" height="27.72"/>
  </clipPath>
 </defs>
</svg>
