<?xml version="1.0" encoding="utf-8" standalone="no"?>
<!DOCTYPE svg PUBLIC "-//W3C//DTD SVG 1.1//EN"
  "http://www.w3.org/Graphics/SVG/1.1/DTD/svg11.dtd">
<svg xmlns:xlink="http://www.w3.org/1999/xlink" width="180pt" height="36pt" viewBox="0 0 180 36" xmlns="http://www.w3.org/2000/svg" version="1.1">
 <metadata>
  <rdf:RDF xmlns:dc="http://purl.org/dc/elements/1.1/" xmlns:cc="http://creativecommons.org/ns#" xmlns:rdf="http://www.w3.org/1999/02/22-rdf-syntax-ns#">
   <cc:Work>
    <dc:type rdf:resource="http://purl.org/dc/dcmitype/StillImage"/>
    <dc:date>2024-11-13T12:41:19.308926</dc:date>
    <dc:format>image/svg+xml</dc:format>
    <dc:creator>
     <cc:Agent>
      <dc:title>Matplotlib v3.9.1, https://matplotlib.org/</dc:title>
     </cc:Agent>
    </dc:creator>
   </cc:Work>
  </rdf:RDF>
 </metadata>
 <defs>
  <style type="text/css">*{stroke-linejoin: round; stroke-linecap: butt}</style>
 </defs>
 <g id="figure_1">
  <g id="patch_1">
   <path d="M 0 36 
L 180 36 
L 180 0 
L 0 0 
L 0 36 
z
" style="fill: none"/>
  </g>
  <g id="axes_1">
   <g id="patch_2">
    <path d="M 22.5 32.04 
L 162 32.04 
L 162 4.32 
L 22.5 4.32 
L 22.5 32.04 
z
" style="fill: none"/>
   </g>
   <g id="matplotlib.axis_1">
    <g id="xtick_1"/>
    <g id="xtick_2"/>
    <g id="xtick_3"/>
    <g id="xtick_4"/>
   </g>
   <g id="matplotlib.axis_2">
    <g id="ytick_1"/>
    <g id="ytick_2"/>
   </g>
   <g id="line2d_1">
    <path d="M 28.840909 20.532558 
L 29.545455 24.668372 
L 30.25 26.560465 
L 30.954545 30.729767 
L 31.659091 30.78 
L 32.363636 28.971628 
L 33.068182 28.151163 
L 33.772727 23.831163 
L 34.477273 22.156744 
L 35.181818 21.269302 
L 35.886364 22.692558 
L 36.590909 19.98 
L 38 23.697209 
L 38.704545 24.216279 
L 39.409091 26.108372 
L 40.113636 26.242326 
L 41.522727 24.266512 
L 42.227273 21.955814 
L 42.931818 20.348372 
L 43.636364 19.829302 
L 45.045455 13.918605 
L 45.75 8.845116 
L 46.454545 5.58 
L 47.159091 11.088837 
L 48.568182 11.390233 
L 49.272727 13.90186 
L 49.977273 13.784651 
L 51.386364 22.993953 
L 52.090909 24.065581 
L 52.795455 27.933488 
L 54.204545 26.443256 
L 54.909091 24.366977 
L 55.613636 19.728837 
L 56.318182 22.257209 
L 57.022727 18.456279 
L 57.727273 19.293488 
L 58.431818 18.489767 
L 59.136364 18.355814 
L 59.840909 19.142791 
L 60.545455 17.836744 
L 61.25 18.456279 
L 61.954545 21.73814 
L 62.659091 22.474884 
L 63.363636 19.695349 
L 64.068182 15.090698 
L 64.772727 17.853488 
L 65.477273 19.544651 
L 66.181818 23.26186 
L 66.886364 25.907442 
L 67.590909 23.328837 
L 68.295455 25.555814 
L 69 24.233023 
L 69.704545 22.491628 
L 70.409091 18.439535 
L 71.113636 19.678605 
L 72.522727 16.195814 
L 73.227273 18.640465 
L 74.636364 19.310233 
L 75.340909 15.894419 
L 76.045455 16.028372 
L 76.75 14.002326 
L 77.454545 18.439535 
L 78.159091 17.116744 
L 78.863636 19.728837 
L 79.568182 19.628372 
L 80.272727 19.377209 
L 80.977273 17.384651 
L 81.681818 17.284186 
L 82.386364 20.733488 
L 83.090909 20.264651 
L 83.795455 20.030233 
L 84.5 17.200465 
L 85.204545 20.616279 
L 85.909091 21.436744 
L 86.613636 23.864651 
L 87.318182 22.709302 
L 88.022727 20.348372 
L 88.727273 20.415349 
L 89.431818 15.207907 
L 90.136364 17.30093 
L 90.840909 16.296279 
L 92.25 22.943721 
L 92.954545 22.374419 
L 93.659091 23.010698 
L 94.363636 21.486977 
L 95.068182 21.085116 
L 95.772727 18.74093 
L 96.477273 20.331628 
L 97.181818 20.766977 
L 97.886364 18.305581 
L 98.590909 17.987442 
L 99.295455 16.58093 
L 100 16.966047 
L 101.409091 23.027442 
L 102.113636 24.61814 
L 102.818182 18.94186 
L 103.522727 24.333488 
L 104.227273 21.570698 
L 104.931818 20.616279 
L 105.636364 23.17814 
L 106.340909 22.558605 
L 107.045455 23.312093 
L 107.75 24.601395 
L 108.454545 23.211628 
L 109.159091 24.634884 
L 109.863636 24.902791 
L 111.272727 23.17814 
L 111.977273 20.917674 
L 112.681818 19.77907 
L 113.386364 19.360465 
L 114.090909 20.817209 
L 114.795455 20.934419 
L 115.5 21.93907 
L 116.204545 19.946512 
L 116.909091 18.322326 
L 117.613636 21.001395 
L 118.318182 21.01814 
L 119.022727 20.833953 
L 119.727273 21.353023 
L 120.431818 21.704651 
L 121.136364 21.805116 
L 121.840909 22.759535 
L 122.545455 23.345581 
L 123.25 25.522326 
L 123.954545 26.25907 
L 124.659091 24.350233 
L 125.363636 23.194884 
L 126.068182 26.577209 
L 126.772727 23.127907 
L 127.477273 26.342791 
L 128.181818 26.627442 
L 128.886364 28.268372 
L 129.590909 27.615349 
L 130.295455 27.163256 
L 131 21.10186 
L 131.704545 21.21907 
L 132.409091 17.284186 
L 133.113636 19.126047 
L 133.818182 22.206977 
L 134.522727 20.013488 
L 135.227273 21.252558 
L 135.931818 18.807907 
L 136.636364 18.606977 
L 137.340909 19.126047 
L 138.045455 20.800465 
L 138.75 18.690698 
L 139.454545 18.774419 
L 140.159091 19.243256 
L 140.863636 17.702791 
L 141.568182 19.343721 
L 142.272727 20.29814 
L 142.977273 14.035814 
L 143.681818 15.057209 
L 144.386364 16.765116 
L 145.090909 18.992093 
L 145.795455 15.726977 
L 146.5 21.302791 
L 147.909091 19.142791 
L 148.613636 20.733488 
L 149.318182 21.855349 
L 150.022727 19.46093 
L 150.727273 20.984651 
L 151.431818 21.721395 
L 152.136364 21.838605 
L 152.840909 20.934419 
L 153.545455 20.29814 
L 154.25 18.958605 
L 154.954545 20.013488 
L 155.659091 20.616279 
L 155.659091 20.616279 
" clip-path="url(#p8b40415a3e)" style="fill: none; stroke: #1f77b4; stroke-width: 2; stroke-linecap: square"/>
   </g>
   <g id="patch_3">
    <path d="M 22.5 32.04 
L 22.5 4.32 
" style="fill: none; stroke: #000000; stroke-width: 0.8; stroke-linejoin: miter; stroke-linecap: square"/>
   </g>
   <g id="patch_4">
    <path d="M 162 32.04 
L 162 4.32 
" style="fill: none; stroke: #000000; stroke-width: 0.8; stroke-linejoin: miter; stroke-linecap: square"/>
   </g>
   <g id="patch_5">
    <path d="M 22.5 32.04 
L 162 32.04 
" style="fill: none; stroke: #000000; stroke-width: 0.8; stroke-linejoin: miter; stroke-linecap: square"/>
   </g>
   <g id="patch_6">
    <path d="M 22.5 4.32 
L 162 4.32 
" style="fill: none; stroke: #000000; stroke-width: 0.8; stroke-linejoin: miter; stroke-linecap: square"/>
   </g>
  </g>
 </g>
 <defs>
  <clipPath id="p8b40415a3e">
   <rect x="22.5" y="4.32" width="139.5" height="27.72"/>
  </clipPath>
 </defs>
</svg>
