<?xml version="1.0" encoding="utf-8" standalone="no"?>
<!DOCTYPE svg PUBLIC "-//W3C//DTD SVG 1.1//EN"
  "http://www.w3.org/Graphics/SVG/1.1/DTD/svg11.dtd">
<svg xmlns:xlink="http://www.w3.org/1999/xlink" width="180pt" height="36pt" viewBox="0 0 180 36" xmlns="http://www.w3.org/2000/svg" version="1.1">
 <metadata>
  <rdf:RDF xmlns:dc="http://purl.org/dc/elements/1.1/" xmlns:cc="http://creativecommons.org/ns#" xmlns:rdf="http://www.w3.org/1999/02/22-rdf-syntax-ns#">
   <cc:Work>
    <dc:type rdf:resource="http://purl.org/dc/dcmitype/StillImage"/>
    <dc:date>2024-11-13T12:41:22.135895</dc:date>
    <dc:format>image/svg+xml</dc:format>
    <dc:creator>
     <cc:Agent>
      <dc:title>Matplotlib v3.9.1, https://matplotlib.org/</dc:title>
     </cc:Agent>
    </dc:creator>
   </cc:Work>
  </rdf:RDF>
 </metadata>
 <defs>
  <style type="text/css">*{stroke-linejoin: round; stroke-linecap: butt}</style>
 </defs>
 <g id="figure_1">
  <g id="patch_1">
   <path d="M 0 36 
L 180 36 
L 180 0 
L 0 0 
L 0 36 
z
" style="fill: none"/>
  </g>
  <g id="axes_1">
   <g id="patch_2">
    <path d="M 22.5 32.04 
L 162 32.04 
L 162 4.32 
L 22.5 4.32 
L 22.5 32.04 
z
" style="fill: none"/>
   </g>
   <g id="matplotlib.axis_1">
    <g id="xtick_1"/>
    <g id="xtick_2"/>
    <g id="xtick_3"/>
    <g id="xtick_4"/>
   </g>
   <g id="matplotlib.axis_2">
    <g id="ytick_1"/>
    <g id="ytick_2"/>
   </g>
   <g id="line2d_1">
    <path d="M 28.840909 14.942751 
L 29.545455 15.520401 
L 30.25 13.306074 
L 30.954545 18.167966 
L 32.363636 20.887736 
L 33.068182 23.053926 
L 33.772727 23.222407 
L 34.477273 20.719255 
L 35.181818 23.294613 
L 35.886364 22.18745 
L 36.590909 20.574842 
L 38 14.485444 
L 38.704545 13.691175 
L 39.409091 13.618968 
L 40.113636 12.078567 
L 40.818182 21.320974 
L 41.522727 23.246476 
L 42.931818 30.78 
L 44.340909 29.817249 
L 45.045455 29.720974 
L 45.75 28.63788 
L 46.454545 28.03616 
L 47.159091 25.990315 
L 47.863636 26.158797 
L 48.568182 26.134728 
L 49.272727 27.626991 
L 49.977273 23.414957 
L 50.681818 23.679713 
L 51.386364 22.38 
L 52.090909 22.620688 
L 52.795455 20.358223 
L 53.5 20.839599 
L 54.909091 25.70149 
L 55.613636 25.845903 
L 56.318182 27.626991 
L 57.022727 29.745043 
L 57.727273 29.432149 
L 58.431818 27.410372 
L 59.840909 25.821834 
L 61.25 19.924986 
L 61.954545 15.881433 
L 62.659091 17.30149 
L 63.363636 18.095759 
L 64.068182 16.868252 
L 64.772727 18.167966 
L 65.477273 20.502636 
L 66.181818 18.962235 
L 66.886364 23.005788 
L 67.590909 24.52212 
L 68.295455 23.968539 
L 69 22.428138 
L 69.704545 25.099771 
L 70.409091 26.471691 
L 71.113636 28.132436 
L 71.818182 27.578854 
L 72.522727 29.648768 
L 73.227273 30.346762 
L 73.931818 28.397192 
L 74.636364 27.410372 
L 75.340909 25.31639 
L 76.045455 25.797765 
L 76.75 24.738739 
L 77.454545 24.401777 
L 78.159091 24.618395 
L 79.568182 18.192034 
L 80.272727 16.868252 
L 80.977273 12.60808 
L 81.681818 12.728424 
L 82.386364 13.354212 
L 83.090909 15.616676 
L 83.795455 20.959943 
L 84.5 21.128424 
L 85.204545 20.382292 
L 85.909091 23.342751 
L 86.613636 20.261948 
L 88.022727 15.472264 
L 88.727273 16.964527 
L 89.431818 17.806934 
L 90.136364 20.454499 
L 90.840909 22.524413 
L 91.545455 26.038453 
L 92.25 25.075702 
L 93.659091 23.896332 
L 95.068182 18.841891 
L 95.772727 19.756504 
L 96.477273 18.095759 
L 97.181818 16.771977 
L 97.886364 15.183438 
L 98.590909 17.49404 
L 99.295455 16.098052 
L 100 13.618968 
L 100.704545 10.634441 
L 101.409091 5.58 
L 102.113636 9.936447 
L 102.818182 13.474556 
L 103.522727 17.734728 
L 104.227273 20.165673 
L 104.931818 20.310086 
L 105.636364 22.235587 
L 106.340909 21.898625 
L 107.045455 21.874556 
L 107.75 21.224699 
L 108.454545 19.323266 
L 109.159091 15.616676 
L 110.568182 16.049914 
L 111.272727 12.584011 
L 111.977273 13.257937 
L 112.681818 12.848768 
L 113.386364 10.225272 
L 114.090909 13.522693 
L 114.795455 14.894613 
L 115.5 10.417822 
L 116.204545 13.5949 
L 116.909091 14.413238 
L 117.613636 13.474556 
L 118.318182 15.039026 
L 119.022727 17.277421 
L 119.727273 18.721547 
L 120.431818 19.563954 
L 121.136364 23.439026 
L 121.840909 23.511232 
L 122.545455 23.848195 
L 123.25 23.992607 
L 123.954545 20.863668 
L 124.659091 21.465387 
L 125.363636 18.528997 
L 126.068182 21.00808 
L 126.772727 20.213811 
L 128.181818 17.349628 
L 128.886364 15.087163 
L 129.590909 14.870544 
L 130.295455 13.354212 
L 131 10.104928 
L 131.704545 11.452779 
L 132.409091 10.153066 
L 133.113636 6.687163 
L 133.818182 11.861948 
L 134.522727 11.573123 
L 135.227273 13.282006 
L 135.931818 13.354212 
L 136.636364 15.087163 
L 137.340909 17.157077 
L 138.045455 19.828711 
L 138.75 20.671117 
L 139.454545 20.911805 
L 140.159091 22.692894 
L 140.863636 22.524413 
L 141.568182 20.213811 
L 142.272727 19.202923 
L 142.977273 15.809226 
L 143.681818 15.616676 
L 144.386364 19.949054 
L 145.090909 18.240172 
L 145.795455 17.205215 
L 146.5 16.91639 
L 147.204545 16.098052 
L 147.909091 13.546762 
L 148.613636 14.220688 
L 149.318182 9.912378 
L 150.022727 8.492321 
L 150.727273 12.752493 
L 151.431818 13.233868 
L 152.136364 12.367393 
L 152.840909 14.677994 
L 153.545455 15.785158 
L 154.25 19.395473 
L 155.659091 22.644756 
L 155.659091 22.644756 
" clip-path="url(#pe31ec3f193)" style="fill: none; stroke: #1f77b4; stroke-width: 2; stroke-linecap: square"/>
   </g>
   <g id="patch_3">
    <path d="M 22.5 32.04 
L 22.5 4.32 
" style="fill: none; stroke: #000000; stroke-width: 0.8; stroke-linejoin: miter; stroke-linecap: square"/>
   </g>
   <g id="patch_4">
    <path d="M 162 32.04 
L 162 4.32 
" style="fill: none; stroke: #000000; stroke-width: 0.8; stroke-linejoin: miter; stroke-linecap: square"/>
   </g>
   <g id="patch_5">
    <path d="M 22.5 32.04 
L 162 32.04 
" style="fill: none; stroke: #000000; stroke-width: 0.8; stroke-linejoin: miter; stroke-linecap: square"/>
   </g>
   <g id="patch_6">
    <path d="M 22.5 4.32 
L 162 4.32 
" style="fill: none; stroke: #000000; stroke-width: 0.8; stroke-linejoin: miter; stroke-linecap: square"/>
   </g>
  </g>
 </g>
 <defs>
  <clipPath id="pe31ec3f193">
   <rect x="22.5" y="4.32" width="139.5" height="27.72"/>
  </clipPath>
 </defs>
</svg>
