<?xml version="1.0" encoding="utf-8" standalone="no"?>
<!DOCTYPE svg PUBLIC "-//W3C//DTD SVG 1.1//EN"
  "http://www.w3.org/Graphics/SVG/1.1/DTD/svg11.dtd">
<svg xmlns:xlink="http://www.w3.org/1999/xlink" width="180pt" height="36pt" viewBox="0 0 180 36" xmlns="http://www.w3.org/2000/svg" version="1.1">
 <metadata>
  <rdf:RDF xmlns:dc="http://purl.org/dc/elements/1.1/" xmlns:cc="http://creativecommons.org/ns#" xmlns:rdf="http://www.w3.org/1999/02/22-rdf-syntax-ns#">
   <cc:Work>
    <dc:type rdf:resource="http://purl.org/dc/dcmitype/StillImage"/>
    <dc:date>2024-11-13T12:41:20.489034</dc:date>
    <dc:format>image/svg+xml</dc:format>
    <dc:creator>
     <cc:Agent>
      <dc:title>Matplotlib v3.9.1, https://matplotlib.org/</dc:title>
     </cc:Agent>
    </dc:creator>
   </cc:Work>
  </rdf:RDF>
 </metadata>
 <defs>
  <style type="text/css">*{stroke-linejoin: round; stroke-linecap: butt}</style>
 </defs>
 <g id="figure_1">
  <g id="patch_1">
   <path d="M 0 36 
L 180 36 
L 180 0 
L 0 0 
L 0 36 
z
" style="fill: none"/>
  </g>
  <g id="axes_1">
   <g id="patch_2">
    <path d="M 22.5 32.04 
L 162 32.04 
L 162 4.32 
L 22.5 4.32 
L 22.5 32.04 
z
" style="fill: none"/>
   </g>
   <g id="matplotlib.axis_1">
    <g id="xtick_1"/>
    <g id="xtick_2"/>
    <g id="xtick_3"/>
    <g id="xtick_4"/>
   </g>
   <g id="matplotlib.axis_2">
    <g id="ytick_1"/>
    <g id="ytick_2"/>
    <g id="ytick_3"/>
   </g>
   <g id="line2d_1">
    <path d="M 28.840909 25.449598 
L 29.545455 27.073556 
L 30.25 27.341031 
L 30.954545 29.519045 
L 31.659091 29.519045 
L 32.363636 30.78 
L 33.068182 28.869462 
L 34.477273 25.889022 
L 35.181818 25.583336 
L 35.886364 26.901607 
L 37.295455 21.934208 
L 38 21.571205 
L 38.704545 23.978484 
L 39.409091 25.449598 
L 40.113636 23.252479 
L 40.818182 23.252479 
L 41.522727 22.622002 
L 42.931818 26.385762 
L 43.636364 26.901607 
L 44.340909 27.589401 
L 45.045455 27.627612 
L 45.75 28.945883 
L 46.454545 29.003199 
L 47.159091 27.627612 
L 47.863636 22.79395 
L 48.568182 24.341486 
L 49.272727 24.245959 
L 49.977273 22.125262 
L 50.681818 18.32329 
L 51.386364 17.387127 
L 52.090909 17.654602 
L 52.795455 18.953768 
L 53.5 19.832616 
L 54.204545 21.781365 
L 54.909091 21.666732 
L 55.613636 24.28417 
L 56.318182 25.545125 
L 57.022727 23.558165 
L 57.727273 23.596376 
L 58.431818 24.112221 
L 59.136364 23.615481 
L 59.840909 19.03019 
L 60.545455 21.361046 
L 61.25 21.437468 
L 61.954545 20.06188 
L 62.659091 19.966353 
L 63.363636 21.80047 
L 64.068182 19.717983 
L 64.772727 21.704943 
L 65.477273 20.100091 
L 66.181818 20.577726 
L 66.886364 19.27856 
L 67.590909 18.265974 
L 68.295455 16.011539 
L 69 16.871281 
L 69.704545 20.291145 
L 70.409091 19.431403 
L 71.113636 18.342396 
L 71.818182 16.068855 
L 72.522727 18.495239 
L 73.227273 17.463548 
L 74.636364 21.036255 
L 75.340909 19.832616 
L 76.045455 16.527384 
L 76.75 21.380152 
L 77.454545 21.5521 
L 78.159091 18.82003 
L 78.863636 16.871281 
L 79.568182 13.355891 
L 80.272727 15.935118 
L 80.977273 15.667642 
L 81.681818 18.648082 
L 82.386364 19.011084 
L 83.090909 15.094481 
L 83.795455 17.864761 
L 84.5 22.125262 
L 85.204545 19.870826 
L 85.909091 20.367566 
L 86.613636 21.131782 
L 88.022727 21.819575 
L 89.431818 17.673707 
L 90.136364 20.023669 
L 90.840909 20.004564 
L 91.545455 17.78834 
L 92.954545 12.381516 
L 93.659091 14.06279 
L 94.363636 14.731478 
L 95.068182 16.470068 
L 95.772727 13.642472 
L 96.477273 13.145732 
L 97.181818 15.075375 
L 97.886364 8.579545 
L 98.590909 11.731933 
L 99.295455 9.477498 
L 100.704545 16.890387 
L 101.409091 13.050205 
L 102.113636 11.598196 
L 102.818182 18.07492 
L 103.522727 15.724958 
L 104.227273 14.693268 
L 105.636364 20.023669 
L 106.340909 21.895997 
L 107.045455 17.979393 
L 107.75 15.361956 
L 108.454545 14.998954 
L 109.159091 17.32981 
L 109.863636 17.769234 
L 110.568182 17.82655 
L 111.977273 14.101001 
L 112.681818 15.705853 
L 113.386364 11.483563 
L 114.090909 6.401531 
L 114.795455 8.331175 
L 115.5 10.700243 
L 116.204545 18.055815 
L 116.909091 19.221243 
L 117.613636 21.322835 
L 118.318182 17.979393 
L 119.022727 15.896907 
L 119.727273 17.731024 
L 120.431818 17.387127 
L 121.136364 18.934663 
L 121.840909 17.08144 
L 122.545455 17.53997 
L 123.25 19.507824 
L 123.954545 17.731024 
L 124.659091 20.252934 
L 125.363636 15.916012 
L 126.068182 16.145277 
L 126.772727 13.260364 
L 127.477273 12.687202 
L 128.181818 14.406687 
L 128.886364 11.942092 
L 129.590909 13.145732 
L 130.295455 12.801835 
L 131 14.101001 
L 131.704545 16.584701 
L 132.409091 10.203503 
L 133.113636 17.82655 
L 133.818182 20.940728 
L 134.522727 20.482199 
L 135.227273 19.584246 
L 135.931818 19.832616 
L 136.636364 19.641562 
L 137.340909 17.769234 
L 138.045455 12.725413 
L 138.75 14.502214 
L 139.454545 10.356346 
L 140.159091 9.076285 
L 140.863636 5.58 
L 142.272727 13.661577 
L 142.977273 14.731478 
L 143.681818 9.114496 
L 144.386364 8.31207 
L 145.090909 6.210478 
L 145.795455 9.420182 
L 146.5 7.146641 
L 147.204545 7.203958 
L 147.909091 13.298575 
L 148.613636 12.209568 
L 149.318182 14.960743 
L 150.022727 14.101001 
L 150.727273 15.763169 
L 151.431818 15.782274 
L 152.840909 18.667187 
L 153.545455 19.106611 
L 154.25 24.016694 
L 154.954545 25.048385 
L 155.659091 25.755284 
L 155.659091 25.755284 
" clip-path="url(#p087aa642cd)" style="fill: none; stroke: #1f77b4; stroke-width: 2; stroke-linecap: square"/>
   </g>
   <g id="patch_3">
    <path d="M 22.5 32.04 
L 22.5 4.32 
" style="fill: none; stroke: #000000; stroke-width: 0.8; stroke-linejoin: miter; stroke-linecap: square"/>
   </g>
   <g id="patch_4">
    <path d="M 162 32.04 
L 162 4.32 
" style="fill: none; stroke: #000000; stroke-width: 0.8; stroke-linejoin: miter; stroke-linecap: square"/>
   </g>
   <g id="patch_5">
    <path d="M 22.5 32.04 
L 162 32.04 
" style="fill: none; stroke: #000000; stroke-width: 0.8; stroke-linejoin: miter; stroke-linecap: square"/>
   </g>
   <g id="patch_6">
    <path d="M 22.5 4.32 
L 162 4.32 
" style="fill: none; stroke: #000000; stroke-width: 0.8; stroke-linejoin: miter; stroke-linecap: square"/>
   </g>
  </g>
 </g>
 <defs>
  <clipPath id="p087aa642cd">
   <rect x="22.5" y="4.32" width="139.5" height="27.72"/>
  </clipPath>
 </defs>
</svg>
