<?xml version="1.0" encoding="utf-8" standalone="no"?>
<!DOCTYPE svg PUBLIC "-//W3C//DTD SVG 1.1//EN"
  "http://www.w3.org/Graphics/SVG/1.1/DTD/svg11.dtd">
<svg xmlns:xlink="http://www.w3.org/1999/xlink" width="180pt" height="36pt" viewBox="0 0 180 36" xmlns="http://www.w3.org/2000/svg" version="1.1">
 <metadata>
  <rdf:RDF xmlns:dc="http://purl.org/dc/elements/1.1/" xmlns:cc="http://creativecommons.org/ns#" xmlns:rdf="http://www.w3.org/1999/02/22-rdf-syntax-ns#">
   <cc:Work>
    <dc:type rdf:resource="http://purl.org/dc/dcmitype/StillImage"/>
    <dc:date>2024-11-13T12:41:18.324082</dc:date>
    <dc:format>image/svg+xml</dc:format>
    <dc:creator>
     <cc:Agent>
      <dc:title>Matplotlib v3.9.1, https://matplotlib.org/</dc:title>
     </cc:Agent>
    </dc:creator>
   </cc:Work>
  </rdf:RDF>
 </metadata>
 <defs>
  <style type="text/css">*{stroke-linejoin: round; stroke-linecap: butt}</style>
 </defs>
 <g id="figure_1">
  <g id="patch_1">
   <path d="M 0 36 
L 180 36 
L 180 0 
L 0 0 
L 0 36 
z
" style="fill: none"/>
  </g>
  <g id="axes_1">
   <g id="patch_2">
    <path d="M 22.5 32.04 
L 162 32.04 
L 162 4.32 
L 22.5 4.32 
L 22.5 32.04 
z
" style="fill: none"/>
   </g>
   <g id="matplotlib.axis_1">
    <g id="xtick_1"/>
    <g id="xtick_2"/>
    <g id="xtick_3"/>
    <g id="xtick_4"/>
   </g>
   <g id="matplotlib.axis_2">
    <g id="ytick_1"/>
    <g id="ytick_2"/>
   </g>
   <g id="line2d_1">
    <path d="M 28.840909 27.270411 
L 29.545455 22.667671 
L 30.25 24.393699 
L 30.954545 26.695068 
L 31.659091 25.371781 
L 32.363636 27.615616 
L 33.068182 27.443014 
L 33.772727 26.522466 
L 34.477273 23.473151 
L 35.181818 26.17726 
L 35.886364 24.221096 
L 36.590909 26.004658 
L 37.295455 26.925205 
L 38 28.306027 
L 38.704545 23.530685 
L 40.113636 26.464932 
L 40.818182 23.300548 
L 41.522727 21.862192 
L 42.227273 23.933425 
L 42.931818 25.141644 
L 43.636364 27.040274 
L 44.340909 28.190959 
L 45.045455 27.845753 
L 46.454545 25.314247 
L 47.159091 17.834795 
L 47.863636 23.530685 
L 48.568182 21.632055 
L 49.272727 17.892329 
L 49.977273 15.130685 
L 50.681818 15.533425 
L 51.386364 11.67863 
L 52.090909 13.922466 
L 52.795455 15.706027 
L 53.5 22.149863 
L 54.204545 15.936164 
L 54.909091 14.555342 
L 55.613636 16.396438 
L 56.318182 15.533425 
L 57.022727 16.971781 
L 57.727273 9.089589 
L 59.136364 22.840274 
L 59.840909 25.429315 
L 60.545455 26.58 
L 61.954545 28.421096 
L 62.659091 27.558082 
L 63.363636 27.903288 
L 64.068182 24.27863 
L 64.772727 24.508767 
L 65.477273 21.574521 
L 67.590909 10.125205 
L 68.295455 9.664932 
L 69 5.58 
L 69.704545 8.686849 
L 70.409091 8.744384 
L 71.113636 12.253973 
L 71.818182 18.755342 
L 72.522727 22.034795 
L 73.227273 26.234795 
L 73.931818 24.393699 
L 74.636364 29.169041 
L 75.340909 29.571781 
L 76.045455 28.536164 
L 76.75 29.28411 
L 77.454545 25.774521 
L 78.159091 27.443014 
L 78.863636 21.516986 
L 79.568182 20.941644 
L 80.272727 14.095068 
L 80.977273 26.98274 
L 82.386364 23.818356 
L 83.090909 24.163562 
L 83.795455 23.760822 
L 84.5 25.026575 
L 85.204545 18.927945 
L 85.909091 17.547123 
L 86.613636 19.158082 
L 87.318182 15.015616 
L 88.022727 15.821096 
L 88.727273 16.453973 
L 89.431818 19.215616 
L 90.136364 15.821096 
L 90.840909 18.295068 
L 91.545455 19.445753 
L 92.25 18.18 
L 92.954545 18.410137 
L 93.659091 18.927945 
L 94.363636 19.215616 
L 95.068182 23.760822 
L 95.772727 22.092329 
L 96.477273 22.38 
L 97.181818 19.618356 
L 97.886364 21.689589 
L 98.590909 19.848493 
L 99.295455 19.100548 
L 100 18.18 
L 100.704545 18.640274 
L 101.409091 15.706027 
L 102.113636 19.790959 
L 102.818182 20.826575 
L 103.522727 17.547123 
L 104.227273 21.689589 
L 104.931818 24.738904 
L 105.636364 22.322466 
L 106.340909 20.999178 
L 107.045455 23.588219 
L 107.75 23.760822 
L 108.454545 19.388219 
L 109.159091 21.056712 
L 109.863636 20.07863 
L 110.568182 17.949863 
L 111.977273 25.601918 
L 112.681818 22.552603 
L 113.386364 24.508767 
L 114.090909 24.623836 
L 114.795455 22.78274 
L 115.5 23.530685 
L 116.204545 18.58274 
L 116.909091 16.914247 
L 117.613636 16.799178 
L 118.318182 15.533425 
L 119.022727 16.971781 
L 119.727273 17.892329 
L 120.431818 16.223836 
L 121.136364 21.862192 
L 121.840909 22.149863 
L 123.25 25.371781 
L 123.954545 19.560822 
L 124.659091 18.064932 
L 125.363636 16.223836 
L 126.068182 21.286849 
L 126.772727 23.645753 
L 127.477273 23.530685 
L 128.181818 25.774521 
L 128.886364 26.695068 
L 129.590909 28.363562 
L 130.295455 30.78 
L 131 25.256712 
L 131.704545 25.716986 
L 132.409091 27.385479 
L 133.113636 26.062192 
L 133.818182 25.314247 
L 134.522727 26.464932 
L 135.227273 26.119726 
L 135.931818 29.28411 
L 136.636364 24.451233 
L 137.340909 24.451233 
L 138.045455 26.004658 
L 138.75 24.27863 
L 139.454545 21.459452 
L 140.159091 27.443014 
L 140.863636 27.270411 
L 141.568182 25.659452 
L 142.272727 22.667671 
L 142.977273 21.516986 
L 143.681818 24.393699 
L 144.386364 24.048493 
L 145.090909 25.256712 
L 146.5 20.308767 
L 147.204545 19.848493 
L 147.909091 18.812877 
L 148.613636 14.843014 
L 149.318182 16.569041 
L 150.022727 17.604658 
L 150.727273 16.569041 
L 151.431818 13.232055 
L 152.136364 16.971781 
L 152.840909 16.223836 
L 153.545455 21.862192 
L 154.25 21.862192 
L 154.954545 27.327945 
L 155.659091 25.08411 
L 155.659091 25.08411 
" clip-path="url(#pfc1f0d6f3c)" style="fill: none; stroke: #1f77b4; stroke-width: 2; stroke-linecap: square"/>
   </g>
   <g id="patch_3">
    <path d="M 22.5 32.04 
L 22.5 4.32 
" style="fill: none; stroke: #000000; stroke-width: 0.8; stroke-linejoin: miter; stroke-linecap: square"/>
   </g>
   <g id="patch_4">
    <path d="M 162 32.04 
L 162 4.32 
" style="fill: none; stroke: #000000; stroke-width: 0.8; stroke-linejoin: miter; stroke-linecap: square"/>
   </g>
   <g id="patch_5">
    <path d="M 22.5 32.04 
L 162 32.04 
" style="fill: none; stroke: #000000; stroke-width: 0.8; stroke-linejoin: miter; stroke-linecap: square"/>
   </g>
   <g id="patch_6">
    <path d="M 22.5 4.32 
L 162 4.32 
" style="fill: none; stroke: #000000; stroke-width: 0.8; stroke-linejoin: miter; stroke-linecap: square"/>
   </g>
  </g>
 </g>
 <defs>
  <clipPath id="pfc1f0d6f3c">
   <rect x="22.5" y="4.32" width="139.5" height="27.72"/>
  </clipPath>
 </defs>
</svg>
