<?xml version="1.0" encoding="utf-8" standalone="no"?>
<!DOCTYPE svg PUBLIC "-//W3C//DTD SVG 1.1//EN"
  "http://www.w3.org/Graphics/SVG/1.1/DTD/svg11.dtd">
<svg xmlns:xlink="http://www.w3.org/1999/xlink" width="180pt" height="36pt" viewBox="0 0 180 36" xmlns="http://www.w3.org/2000/svg" version="1.1">
 <metadata>
  <rdf:RDF xmlns:dc="http://purl.org/dc/elements/1.1/" xmlns:cc="http://creativecommons.org/ns#" xmlns:rdf="http://www.w3.org/1999/02/22-rdf-syntax-ns#">
   <cc:Work>
    <dc:type rdf:resource="http://purl.org/dc/dcmitype/StillImage"/>
    <dc:date>2024-11-13T12:41:22.266207</dc:date>
    <dc:format>image/svg+xml</dc:format>
    <dc:creator>
     <cc:Agent>
      <dc:title>Matplotlib v3.9.1, https://matplotlib.org/</dc:title>
     </cc:Agent>
    </dc:creator>
   </cc:Work>
  </rdf:RDF>
 </metadata>
 <defs>
  <style type="text/css">*{stroke-linejoin: round; stroke-linecap: butt}</style>
 </defs>
 <g id="figure_1">
  <g id="patch_1">
   <path d="M 0 36 
L 180 36 
L 180 0 
L 0 0 
L 0 36 
z
" style="fill: none"/>
  </g>
  <g id="axes_1">
   <g id="patch_2">
    <path d="M 22.5 32.04 
L 162 32.04 
L 162 4.32 
L 22.5 4.32 
L 22.5 32.04 
z
" style="fill: none"/>
   </g>
   <g id="matplotlib.axis_1">
    <g id="xtick_1"/>
    <g id="xtick_2"/>
    <g id="xtick_3"/>
    <g id="xtick_4"/>
   </g>
   <g id="matplotlib.axis_2">
    <g id="ytick_1"/>
    <g id="ytick_2"/>
   </g>
   <g id="line2d_1">
    <path d="M 28.840909 23.566957 
L 29.545455 22.197391 
L 30.25 24.145217 
L 30.954545 21.101739 
L 31.659091 24.41913 
L 32.363636 22.38 
L 33.068182 18.88 
L 33.772727 10.41913 
L 35.181818 11.849565 
L 35.886364 13.797391 
L 36.590909 17.297391 
L 37.295455 10.906087 
L 38 6.188696 
L 38.704545 10.875652 
L 39.409091 16.749565 
L 40.113636 10.449565 
L 40.818182 11.271304 
L 41.522727 16.14087 
L 42.227273 11.24087 
L 42.931818 14.649565 
L 43.636364 8.927826 
L 44.340909 15.136522 
L 45.045455 22.836522 
L 45.75 18.362609 
L 46.454545 19.336522 
L 47.159091 17.48 
L 48.568182 21.375652 
L 49.272727 20.827826 
L 49.977273 17.358261 
L 50.681818 17.632174 
L 52.090909 15.38 
L 52.795455 12.458261 
L 53.5 19.306087 
L 54.204545 17.297391 
L 54.909091 18.423478 
L 55.613636 18.788696 
L 56.318182 15.501739 
L 57.022727 18.18 
L 57.727273 16.962609 
L 58.431818 24.510435 
L 59.136364 24.875652 
L 59.840909 25.88 
L 61.25 23.749565 
L 61.954545 22.014783 
L 62.659091 20.888696 
L 63.363636 14.893043 
L 64.068182 12.093043 
L 64.772727 11.393043 
L 65.477273 8.714783 
L 66.181818 8.897391 
L 66.886364 12.51913 
L 67.590909 11.484348 
L 68.295455 17.388696 
L 69 15.958261 
L 69.704545 11.697391 
L 70.409091 11.11913 
L 71.113636 5.610435 
L 71.818182 9.262609 
L 72.522727 14.61913 
L 73.931818 10.693043 
L 74.636364 5.58 
L 75.340909 14.527826 
L 76.045455 16.14087 
L 77.454545 10.753913 
L 78.159091 15.988696 
L 78.863636 15.31913 
L 79.568182 16.01913 
L 80.272727 19.51913 
L 80.977273 13.188696 
L 81.681818 17.449565 
L 82.386364 19.245217 
L 83.090909 17.966957 
L 83.795455 17.966957 
L 84.5 16.445217 
L 85.204545 19.032174 
L 85.909091 16.262609 
L 86.613636 12.458261 
L 87.318182 13.645217 
L 88.022727 9.871304 
L 88.727273 13.371304 
L 89.431818 15.136522 
L 90.136364 17.966957 
L 90.840909 18.697391 
L 91.545455 22.106087 
L 92.25 24.753913 
L 92.954545 23.536522 
L 93.659091 24.266957 
L 94.363636 27.98 
L 95.068182 27.066957 
L 95.772727 27.097391 
L 96.477273 23.658261 
L 97.181818 26.001739 
L 97.886364 23.049565 
L 99.295455 20.401739 
L 100 22.866957 
L 100.704545 21.710435 
L 101.409091 18.24087 
L 102.113636 18.24087 
L 102.818182 17.936522 
L 103.522727 12.032174 
L 104.227273 15.197391 
L 104.931818 11.94087 
L 105.636364 18.24087 
L 106.340909 17.571304 
L 107.045455 20.493043 
L 107.75 21.436522 
L 108.454545 20.91913 
L 109.159091 19.123478 
L 110.568182 30.14087 
L 111.272727 29.227826 
L 112.681818 28.04087 
L 113.386364 28.284348 
L 114.795455 25.393043 
L 115.5 26.336522 
L 116.204545 25.758261 
L 116.909091 22.227826 
L 117.613636 20.827826 
L 118.318182 22.288696 
L 119.022727 22.653913 
L 120.431818 21.862609 
L 121.136364 22.653913 
L 121.840909 20.858261 
L 122.545455 20.98 
L 123.25 21.406087 
L 123.954545 22.897391 
L 124.659091 21.162609 
L 125.363636 22.44087 
L 126.068182 19.610435 
L 126.772727 21.832174 
L 127.477273 22.106087 
L 128.181818 22.745217 
L 128.886364 24.449565 
L 129.590909 23.414783 
L 131 21.68 
L 131.704545 23.536522 
L 132.409091 27.98 
L 133.113636 26.032174 
L 133.818182 27.158261 
L 134.522727 27.401739 
L 135.227273 27.34087 
L 135.931818 27.006087 
L 136.636364 24.966957 
L 137.340909 24.966957 
L 138.045455 25.758261 
L 138.75 27.401739 
L 139.454545 27.888696 
L 140.863636 23.901739 
L 141.568182 25.027826 
L 142.272727 23.871304 
L 142.977273 24.266957 
L 143.681818 26.001739 
L 145.090909 24.175652 
L 145.795455 21.771304 
L 146.5 24.48 
L 147.204545 26.58 
L 148.613636 22.775652 
L 149.318182 23.110435 
L 150.022727 23.901739 
L 150.727273 25.362609 
L 151.431818 22.014783 
L 152.136364 23.506087 
L 153.545455 30.78 
L 154.25 27.888696 
L 154.954545 28.284348 
L 155.659091 28.466957 
L 155.659091 28.466957 
" clip-path="url(#p1db12988d1)" style="fill: none; stroke: #1f77b4; stroke-width: 2; stroke-linecap: square"/>
   </g>
   <g id="patch_3">
    <path d="M 22.5 32.04 
L 22.5 4.32 
" style="fill: none; stroke: #000000; stroke-width: 0.8; stroke-linejoin: miter; stroke-linecap: square"/>
   </g>
   <g id="patch_4">
    <path d="M 162 32.04 
L 162 4.32 
" style="fill: none; stroke: #000000; stroke-width: 0.8; stroke-linejoin: miter; stroke-linecap: square"/>
   </g>
   <g id="patch_5">
    <path d="M 22.5 32.04 
L 162 32.04 
" style="fill: none; stroke: #000000; stroke-width: 0.8; stroke-linejoin: miter; stroke-linecap: square"/>
   </g>
   <g id="patch_6">
    <path d="M 22.5 4.32 
L 162 4.32 
" style="fill: none; stroke: #000000; stroke-width: 0.8; stroke-linejoin: miter; stroke-linecap: square"/>
   </g>
  </g>
 </g>
 <defs>
  <clipPath id="p1db12988d1">
   <rect x="22.5" y="4.32" width="139.5" height="27.72"/>
  </clipPath>
 </defs>
</svg>
