<?xml version="1.0" encoding="utf-8" standalone="no"?>
<!DOCTYPE svg PUBLIC "-//W3C//DTD SVG 1.1//EN"
  "http://www.w3.org/Graphics/SVG/1.1/DTD/svg11.dtd">
<svg xmlns:xlink="http://www.w3.org/1999/xlink" width="180pt" height="36pt" viewBox="0 0 180 36" xmlns="http://www.w3.org/2000/svg" version="1.1">
 <metadata>
  <rdf:RDF xmlns:dc="http://purl.org/dc/elements/1.1/" xmlns:cc="http://creativecommons.org/ns#" xmlns:rdf="http://www.w3.org/1999/02/22-rdf-syntax-ns#">
   <cc:Work>
    <dc:type rdf:resource="http://purl.org/dc/dcmitype/StillImage"/>
    <dc:date>2024-11-13T12:41:20.191802</dc:date>
    <dc:format>image/svg+xml</dc:format>
    <dc:creator>
     <cc:Agent>
      <dc:title>Matplotlib v3.9.1, https://matplotlib.org/</dc:title>
     </cc:Agent>
    </dc:creator>
   </cc:Work>
  </rdf:RDF>
 </metadata>
 <defs>
  <style type="text/css">*{stroke-linejoin: round; stroke-linecap: butt}</style>
 </defs>
 <g id="figure_1">
  <g id="patch_1">
   <path d="M 0 36 
L 180 36 
L 180 0 
L 0 0 
L 0 36 
z
" style="fill: none"/>
  </g>
  <g id="axes_1">
   <g id="patch_2">
    <path d="M 22.5 32.04 
L 162 32.04 
L 162 4.32 
L 22.5 4.32 
L 22.5 32.04 
z
" style="fill: none"/>
   </g>
   <g id="matplotlib.axis_1">
    <g id="xtick_1"/>
    <g id="xtick_2"/>
    <g id="xtick_3"/>
    <g id="xtick_4"/>
   </g>
   <g id="matplotlib.axis_2">
    <g id="ytick_1"/>
    <g id="ytick_2"/>
   </g>
   <g id="line2d_1">
    <path d="M 28.840909 8.192824 
L 29.545455 11.401555 
L 30.25 13.246576 
L 30.954545 11.390095 
L 32.363636 12.066221 
L 33.068182 10.289959 
L 33.772727 13.601828 
L 34.477273 15.320791 
L 35.181818 18.208649 
L 35.886364 23.846849 
L 36.590909 26.837844 
L 37.295455 28.786003 
L 38.704545 30.78 
L 39.409091 30.172633 
L 40.113636 30.035116 
L 40.818182 30.092415 
L 41.522727 29.656944 
L 42.931818 24.431296 
L 43.636364 19.664038 
L 44.340909 18.678499 
L 45.045455 7.883411 
L 45.75 7.975089 
L 46.454545 6.084229 
L 47.159091 7.860491 
L 47.863636 5.58 
L 48.568182 6.829113 
L 49.272727 13.452851 
L 49.977273 13.177817 
L 50.681818 11.344256 
L 51.386364 11.688049 
L 52.090909 9.877408 
L 52.795455 10.645211 
L 53.5 15.538527 
L 54.204545 16.065675 
L 54.909091 14.140437 
L 55.613636 14.965539 
L 56.318182 13.922701 
L 57.022727 12.398554 
L 57.727273 9.522156 
L 58.431818 12.318336 
L 59.136364 13.280955 
L 59.840909 11.218199 
L 60.545455 12.513151 
L 61.25 6.771814 
L 61.954545 11.470314 
L 62.659091 9.705512 
L 63.363636 8.754352 
L 64.068182 8.479318 
L 64.772727 11.859945 
L 65.477273 11.791187 
L 66.181818 11.252578 
L 66.886364 13.555989 
L 67.590909 14.128977 
L 68.295455 16.145894 
L 69 14.679045 
L 69.704545 16.833479 
L 70.409091 14.197735 
L 71.113636 15.492688 
L 71.818182 17.177271 
L 72.522727 15.194734 
L 73.227273 15.756262 
L 73.931818 9.166903 
L 74.636364 8.754352 
L 75.340909 9.556535 
L 76.045455 7.207285 
L 76.75 6.233206 
L 77.454545 11.66513 
L 78.159091 10.817108 
L 78.863636 11.894325 
L 79.568182 11.424475 
L 80.272727 13.888322 
L 80.977273 15.160355 
L 81.681818 13.475771 
L 82.386364 13.819563 
L 83.090909 15.240573 
L 83.795455 17.956535 
L 84.5 15.481228 
L 85.204545 15.423929 
L 85.909091 14.323793 
L 86.613636 13.750805 
L 87.318182 15.618745 
L 88.022727 18.942074 
L 88.727273 19.790095 
L 89.431818 18.392005 
L 90.136364 19.721337 
L 90.840909 20.282865 
L 91.545455 20.019291 
L 92.25 20.340164 
L 92.954545 21.955989 
L 93.659091 22.082046 
L 94.363636 21.302783 
L 95.068182 23.067585 
L 95.772727 18.942074 
L 96.477273 15.813561 
L 97.181818 15.423929 
L 97.886364 12.845484 
L 98.590909 11.516153 
L 100 10.645211 
L 100.704545 13.945621 
L 101.409091 12.146439 
L 102.113636 9.247121 
L 102.818182 8.548076 
L 103.522727 6.06131 
L 104.227273 6.955171 
L 104.931818 10.874407 
L 105.636364 11.791187 
L 106.340909 7.837572 
L 107.045455 9.854488 
L 107.75 13.223656 
L 108.454545 17.566903 
L 109.159091 15.698963 
L 109.863636 14.266494 
L 110.568182 9.808649 
L 111.272727 9.396098 
L 111.977273 11.710969 
L 112.681818 10.69105 
L 113.386364 11.332797 
L 114.090909 11.092142 
L 114.795455 13.636207 
L 115.5 13.086139 
L 116.204545 12.215198 
L 116.909091 13.452851 
L 117.613636 13.269495 
L 118.318182 15.779181 
L 119.022727 11.321337 
L 119.727273 12.639209 
L 120.431818 13.51015 
L 121.136364 12.662128 
L 121.840909 13.865402 
L 122.545455 12.55899 
L 123.25 14.163356 
L 123.954545 20.855853 
L 124.659091 20.202647 
L 125.363636 20.52352 
L 126.068182 20.443302 
L 126.772727 17.589823 
L 127.477273 20.214106 
L 128.181818 19.664038 
L 129.590909 21.337162 
L 131 16.77618 
L 131.704545 16.77618 
L 132.409091 17.532524 
L 133.113636 20.615198 
L 133.818182 18.816016 
L 134.522727 17.452306 
L 135.227273 17.945075 
L 135.931818 17.005375 
L 136.636364 18.758718 
L 137.340909 18.392005 
L 138.045455 17.097053 
L 139.454545 19.698417 
L 140.159091 19.136889 
L 140.863636 18.311787 
L 141.568182 17.887776 
L 142.272727 16.260491 
L 142.977273 16.890778 
L 143.681818 15.492688 
L 144.386364 12.169359 
L 145.090909 11.64221 
L 146.5 13.659127 
L 147.204545 11.997462 
L 147.909091 10.771269 
L 148.613636 13.922701 
L 149.318182 13.189277 
L 150.727273 16.088595 
L 151.431818 15.653124 
L 152.136364 16.925157 
L 152.840909 19.045211 
L 153.545455 20.5006 
L 154.25 21.497599 
L 155.659091 17.463765 
L 155.659091 17.463765 
" clip-path="url(#p36d43728ae)" style="fill: none; stroke: #1f77b4; stroke-width: 2; stroke-linecap: square"/>
   </g>
   <g id="patch_3">
    <path d="M 22.5 32.04 
L 22.5 4.32 
" style="fill: none; stroke: #000000; stroke-width: 0.8; stroke-linejoin: miter; stroke-linecap: square"/>
   </g>
   <g id="patch_4">
    <path d="M 162 32.04 
L 162 4.32 
" style="fill: none; stroke: #000000; stroke-width: 0.8; stroke-linejoin: miter; stroke-linecap: square"/>
   </g>
   <g id="patch_5">
    <path d="M 22.5 32.04 
L 162 32.04 
" style="fill: none; stroke: #000000; stroke-width: 0.8; stroke-linejoin: miter; stroke-linecap: square"/>
   </g>
   <g id="patch_6">
    <path d="M 22.5 4.32 
L 162 4.32 
" style="fill: none; stroke: #000000; stroke-width: 0.8; stroke-linejoin: miter; stroke-linecap: square"/>
   </g>
  </g>
 </g>
 <defs>
  <clipPath id="p36d43728ae">
   <rect x="22.5" y="4.32" width="139.5" height="27.72"/>
  </clipPath>
 </defs>
</svg>
