<?xml version="1.0" encoding="utf-8" standalone="no"?>
<!DOCTYPE svg PUBLIC "-//W3C//DTD SVG 1.1//EN"
  "http://www.w3.org/Graphics/SVG/1.1/DTD/svg11.dtd">
<svg xmlns:xlink="http://www.w3.org/1999/xlink" width="180pt" height="36pt" viewBox="0 0 180 36" xmlns="http://www.w3.org/2000/svg" version="1.1">
 <metadata>
  <rdf:RDF xmlns:dc="http://purl.org/dc/elements/1.1/" xmlns:cc="http://creativecommons.org/ns#" xmlns:rdf="http://www.w3.org/1999/02/22-rdf-syntax-ns#">
   <cc:Work>
    <dc:type rdf:resource="http://purl.org/dc/dcmitype/StillImage"/>
    <dc:date>2024-11-15T20:38:27.726631</dc:date>
    <dc:format>image/svg+xml</dc:format>
    <dc:creator>
     <cc:Agent>
      <dc:title>Matplotlib v3.9.1, https://matplotlib.org/</dc:title>
     </cc:Agent>
    </dc:creator>
   </cc:Work>
  </rdf:RDF>
 </metadata>
 <defs>
  <style type="text/css">*{stroke-linejoin: round; stroke-linecap: butt}</style>
 </defs>
 <g id="figure_1">
  <g id="patch_1">
   <path d="M 0 36 
L 180 36 
L 180 0 
L 0 0 
L 0 36 
z
" style="fill: none"/>
  </g>
  <g id="axes_1">
   <g id="patch_2">
    <path d="M 22.5 32.04 
L 162 32.04 
L 162 4.32 
L 22.5 4.32 
L 22.5 32.04 
z
" style="fill: none"/>
   </g>
   <g id="matplotlib.axis_1">
    <g id="xtick_1"/>
    <g id="xtick_2"/>
    <g id="xtick_3"/>
    <g id="xtick_4"/>
   </g>
   <g id="matplotlib.axis_2">
    <g id="ytick_1"/>
    <g id="ytick_2"/>
   </g>
   <g id="line2d_1">
    <path d="M 28.840909 11.32077 
L 29.545455 18.387855 
L 30.25 15.715428 
L 30.954545 14.705844 
L 31.659091 13.953606 
L 32.363636 12.686677 
L 33.068182 15.002781 
L 33.772727 14.804823 
L 34.477273 16.962561 
L 35.181818 14.4485 
L 35.886364 11.45934 
L 36.590909 15.279921 
L 37.295455 20.723755 
L 38 20.308044 
L 38.704545 23.851485 
L 39.409091 18.585813 
L 40.113636 18.36806 
L 40.818182 13.55769 
L 41.522727 14.07238 
L 42.227273 16.725012 
L 42.931818 16.883378 
L 43.636364 16.665625 
L 44.340909 12.548107 
L 45.045455 15.299717 
L 45.75 13.577486 
L 46.454545 13.28055 
L 47.159091 16.091548 
L 47.863636 14.250542 
L 48.568182 10.410165 
L 49.272727 12.310558 
L 49.977273 14.606866 
L 50.681818 11.538523 
L 51.386364 9.618335 
L 52.090909 12.528311 
L 52.795455 11.142608 
L 53.5 9.044258 
L 54.204545 11.063425 
L 55.613636 14.111972 
L 56.318182 13.003409 
L 57.022727 15.200738 
L 57.727273 14.844415 
L 58.431818 15.002781 
L 59.136364 16.487463 
L 59.840909 10.133024 
L 60.545455 18.031532 
L 61.25 17.457455 
L 61.954545 14.646457 
L 62.659091 14.824619 
L 63.363636 11.716685 
L 64.068182 8.074266 
L 64.772727 7.203252 
L 65.477273 9.677722 
L 66.181818 8.588955 
L 66.886364 5.58 
L 67.590909 7.02509 
L 68.295455 7.302231 
L 69 6.688562 
L 69.704545 11.241587 
L 70.409091 14.864211 
L 71.113636 10.271595 
L 71.818182 12.191783 
L 72.522727 11.439544 
L 73.227273 15.180943 
L 73.931818 13.003409 
L 74.636364 14.4485 
L 75.340909 17.912757 
L 76.045455 12.62729 
L 76.75 13.41912 
L 77.454545 17.002152 
L 78.159091 11.162404 
L 78.863636 13.973401 
L 80.272727 12.884635 
L 80.977273 14.131767 
L 81.681818 15.121555 
L 82.386364 14.547478 
L 83.090909 12.825247 
L 83.795455 12.686677 
L 84.5 12.132396 
L 85.204545 12.350149 
L 85.909091 7.480393 
L 86.613636 9.222419 
L 87.318182 6.589584 
L 88.022727 10.330982 
L 88.727273 7.579372 
L 89.431818 8.272223 
L 90.136364 11.776072 
L 90.840909 12.389741 
L 91.545455 13.617078 
L 92.25 11.855255 
L 92.954545 16.40828 
L 93.659091 15.933181 
L 94.363636 11.004038 
L 95.068182 12.666881 
L 95.772727 11.221791 
L 96.477273 13.062797 
L 97.181818 12.350149 
L 97.886364 10.984242 
L 98.590909 11.677093 
L 99.295455 9.380786 
L 100 10.647714 
L 100.704545 10.568531 
L 101.409091 13.894218 
L 102.113636 16.170731 
L 102.818182 16.190526 
L 103.522727 14.903802 
L 104.227273 15.853998 
L 104.931818 15.200738 
L 105.636364 20.050699 
L 106.340909 16.942765 
L 107.045455 14.982985 
L 107.75 14.785027 
L 108.454545 16.883378 
L 109.159091 17.06154 
L 109.863636 17.081335 
L 110.568182 18.882749 
L 111.272727 17.892962 
L 111.977273 22.030275 
L 112.681818 19.714171 
L 113.386364 18.50663 
L 114.090909 22.485577 
L 114.795455 22.604352 
L 115.5 19.258869 
L 116.204545 20.308044 
L 116.909091 24.267196 
L 117.613636 21.654156 
L 118.318182 22.069866 
L 119.022727 21.416606 
L 119.727273 22.881493 
L 120.431818 21.357219 
L 121.136364 19.060911 
L 121.840909 19.793354 
L 122.545455 19.338052 
L 123.25 24.227604 
L 123.954545 27.137581 
L 124.659091 22.327211 
L 125.363636 25.811265 
L 126.068182 24.76209 
L 126.772727 24.148421 
L 127.477273 27.315742 
L 128.181818 27.65227 
L 128.886364 25.355962 
L 129.590909 26.009222 
L 130.295455 22.742922 
L 131.704545 25.55392 
L 132.409091 23.138837 
L 133.113636 21.179057 
L 133.818182 21.555177 
L 134.522727 22.188641 
L 135.227273 18.942137 
L 135.931818 22.129254 
L 136.636364 21.11967 
L 137.340909 22.742922 
L 138.045455 18.942137 
L 138.75 23.07945 
L 139.454545 22.42619 
L 140.159091 22.386599 
L 140.863636 24.326583 
L 141.568182 24.346379 
L 142.272727 25.059026 
L 142.977273 24.623519 
L 143.681818 26.464525 
L 144.386364 27.553291 
L 145.090909 29.869395 
L 145.795455 28.523284 
L 147.204545 26.781257 
L 147.909091 23.653527 
L 148.613636 26.385342 
L 149.318182 30.344493 
L 150.022727 25.652899 
L 150.727273 26.642687 
L 151.431818 26.424933 
L 152.136364 24.583928 
L 152.840909 28.384713 
L 153.545455 30.78 
L 154.25 29.98817 
L 154.954545 26.622891 
L 155.659091 26.840644 
L 155.659091 26.840644 
" clip-path="url(#pcd4173350b)" style="fill: none; stroke: #e377c2; stroke-width: 2; stroke-linecap: square"/>
   </g>
   <g id="patch_3">
    <path d="M 22.5 32.04 
L 22.5 4.32 
" style="fill: none; stroke: #000000; stroke-width: 0.8; stroke-linejoin: miter; stroke-linecap: square"/>
   </g>
   <g id="patch_4">
    <path d="M 162 32.04 
L 162 4.32 
" style="fill: none; stroke: #000000; stroke-width: 0.8; stroke-linejoin: miter; stroke-linecap: square"/>
   </g>
   <g id="patch_5">
    <path d="M 22.5 32.04 
L 162 32.04 
" style="fill: none; stroke: #000000; stroke-width: 0.8; stroke-linejoin: miter; stroke-linecap: square"/>
   </g>
   <g id="patch_6">
    <path d="M 22.5 4.32 
L 162 4.32 
" style="fill: none; stroke: #000000; stroke-width: 0.8; stroke-linejoin: miter; stroke-linecap: square"/>
   </g>
  </g>
 </g>
 <defs>
  <clipPath id="pcd4173350b">
   <rect x="22.5" y="4.32" width="139.5" height="27.72"/>
  </clipPath>
 </defs>
</svg>
