<?xml version="1.0" encoding="utf-8" standalone="no"?>
<!DOCTYPE svg PUBLIC "-//W3C//DTD SVG 1.1//EN"
  "http://www.w3.org/Graphics/SVG/1.1/DTD/svg11.dtd">
<svg xmlns:xlink="http://www.w3.org/1999/xlink" width="180pt" height="36pt" viewBox="0 0 180 36" xmlns="http://www.w3.org/2000/svg" version="1.1">
 <metadata>
  <rdf:RDF xmlns:dc="http://purl.org/dc/elements/1.1/" xmlns:cc="http://creativecommons.org/ns#" xmlns:rdf="http://www.w3.org/1999/02/22-rdf-syntax-ns#">
   <cc:Work>
    <dc:type rdf:resource="http://purl.org/dc/dcmitype/StillImage"/>
    <dc:date>2024-11-15T20:38:28.520306</dc:date>
    <dc:format>image/svg+xml</dc:format>
    <dc:creator>
     <cc:Agent>
      <dc:title>Matplotlib v3.9.1, https://matplotlib.org/</dc:title>
     </cc:Agent>
    </dc:creator>
   </cc:Work>
  </rdf:RDF>
 </metadata>
 <defs>
  <style type="text/css">*{stroke-linejoin: round; stroke-linecap: butt}</style>
 </defs>
 <g id="figure_1">
  <g id="patch_1">
   <path d="M 0 36 
L 180 36 
L 180 0 
L 0 0 
L 0 36 
z
" style="fill: none"/>
  </g>
  <g id="axes_1">
   <g id="patch_2">
    <path d="M 22.5 32.04 
L 162 32.04 
L 162 4.32 
L 22.5 4.32 
L 22.5 32.04 
z
" style="fill: none"/>
   </g>
   <g id="matplotlib.axis_1">
    <g id="xtick_1"/>
    <g id="xtick_2"/>
    <g id="xtick_3"/>
    <g id="xtick_4"/>
   </g>
   <g id="matplotlib.axis_2">
    <g id="ytick_1"/>
    <g id="ytick_2"/>
    <g id="ytick_3"/>
   </g>
   <g id="line2d_1">
    <path d="M 28.840909 23.76663 
L 29.545455 30.78 
L 30.25 19.847394 
L 30.954545 20.947531 
L 31.659091 19.159809 
L 32.363636 15.687503 
L 33.068182 19.262947 
L 33.772727 14.346712 
L 35.181818 22.288322 
L 35.886364 27.720246 
L 36.590909 25.244939 
L 37.295455 25.588731 
L 38 24.522974 
L 38.704545 20.775634 
L 39.409091 24.179181 
L 40.113636 21.703874 
L 40.818182 20.741255 
L 41.522727 16.615744 
L 42.227273 21.016289 
L 43.636364 24.901146 
L 44.340909 19.537981 
L 45.75 24.041664 
L 46.454545 18.265948 
L 47.159091 25.65749 
L 47.863636 11.905784 
L 48.568182 12.283956 
L 49.272727 15.928158 
L 49.977273 13.487231 
L 50.681818 20.156808 
L 51.386364 21.016289 
L 52.090909 15.996917 
L 52.795455 25.038663 
L 53.5 15.996917 
L 54.204545 12.765266 
L 54.909091 21.978909 
L 55.613636 14.00292 
L 56.318182 10.977544 
L 57.022727 10.152442 
L 57.727273 6.336344 
L 58.431818 13.452851 
L 59.136364 13.280955 
L 59.840909 21.016289 
L 60.545455 24.69487 
L 61.25 17.853397 
L 61.954545 20.259945 
L 62.659091 15.068677 
L 63.363636 13.693506 
L 64.068182 20.294325 
L 64.772727 23.663492 
L 65.477273 15.790641 
L 66.181818 13.52161 
L 66.886364 17.200191 
L 67.590909 13.109059 
L 68.295455 22.013288 
L 69 21.566357 
L 69.704545 17.26895 
L 70.409091 18.128431 
L 71.113636 7.195825 
L 71.818182 16.168813 
L 72.522727 12.421473 
L 73.227273 20.706876 
L 73.931818 17.097053 
L 74.636364 14.965539 
L 75.340909 19.606739 
L 76.045455 22.528977 
L 76.75 21.325703 
L 77.454545 23.525975 
L 78.159091 27.685866 
L 78.863636 16.753261 
L 79.568182 12.455853 
L 80.272727 14.071678 
L 80.977273 10.840027 
L 81.681818 15.962538 
L 82.386364 18.506603 
L 83.090909 20.53498 
L 83.795455 16.409468 
L 84.5 10.874407 
L 85.204545 12.318336 
L 85.909091 24.282319 
L 86.613636 23.354079 
L 87.318182 24.866767 
L 88.022727 18.678499 
L 88.727273 24.72925 
L 89.431818 23.354079 
L 90.136364 23.285321 
L 90.840909 26.826385 
L 91.545455 24.591733 
L 92.25 24.935525 
L 92.954545 22.425839 
L 93.659091 23.044666 
L 94.363636 25.107422 
L 95.068182 20.947531 
L 95.772727 23.182183 
L 96.477273 20.844393 
L 97.181818 19.606739 
L 97.886364 25.107422 
L 98.590909 20.328704 
L 99.295455 23.250941 
L 100 25.65749 
L 100.704545 16.546985 
L 101.409091 19.847394 
L 102.113636 22.35708 
L 102.818182 20.844393 
L 103.522727 15.618745 
L 104.227273 11.974543 
L 104.931818 14.862401 
L 105.636364 20.431842 
L 106.340909 13.590368 
L 107.045455 21.222565 
L 107.75 23.629113 
L 108.454545 19.744256 
L 109.159091 21.085048 
L 109.863636 15.309332 
L 110.568182 16.271951 
L 111.272727 15.584366 
L 111.977273 10.564993 
L 112.681818 9.567995 
L 113.386364 14.965539 
L 114.090909 15.82502 
L 114.795455 18.059673 
L 115.5 19.778636 
L 116.204545 19.950532 
L 116.909091 21.635116 
L 117.613636 21.188186 
L 118.318182 15.962538 
L 119.022727 11.802647 
L 119.727273 15.274952 
L 120.431818 11.18382 
L 121.136364 16.203192 
L 121.840909 14.243574 
L 122.545455 14.724884 
L 123.25 19.469222 
L 123.954545 13.96854 
L 124.659091 15.721883 
L 125.363636 21.394461 
L 126.772727 16.134434 
L 127.477273 13.555989 
L 128.181818 15.206194 
L 128.886364 20.810014 
L 129.590909 14.484229 
L 130.295455 19.194188 
L 131 14.518608 
L 131.704545 18.850396 
L 132.409091 29.301692 
L 133.113636 20.466221 
L 133.818182 25.966903 
L 134.522727 20.431842 
L 135.227273 20.741255 
L 135.931818 25.073042 
L 136.636364 17.578363 
L 137.340909 19.12543 
L 138.045455 17.131432 
L 138.75 16.650123 
L 139.454545 20.741255 
L 140.159091 20.947531 
L 140.863636 17.612742 
L 141.568182 19.09105 
L 142.272727 21.050668 
L 142.977273 24.832387 
L 143.681818 21.566357 
L 144.386364 16.822019 
L 145.090909 14.415471 
L 145.795455 18.094052 
L 146.5 17.406467 
L 147.204545 17.647121 
L 147.909091 17.71588 
L 148.613636 12.11206 
L 149.318182 5.58 
L 150.022727 14.552988 
L 150.727273 17.406467 
L 151.431818 17.062674 
L 152.136364 15.034297 
L 152.840909 19.331705 
L 153.545455 22.528977 
L 154.25 19.194188 
L 155.659091 27.617108 
L 155.659091 27.617108 
" clip-path="url(#p6c8c505f10)" style="fill: none; stroke: #e377c2; stroke-width: 2; stroke-linecap: square"/>
   </g>
   <g id="patch_3">
    <path d="M 22.5 32.04 
L 22.5 4.32 
" style="fill: none; stroke: #000000; stroke-width: 0.8; stroke-linejoin: miter; stroke-linecap: square"/>
   </g>
   <g id="patch_4">
    <path d="M 162 32.04 
L 162 4.32 
" style="fill: none; stroke: #000000; stroke-width: 0.8; stroke-linejoin: miter; stroke-linecap: square"/>
   </g>
   <g id="patch_5">
    <path d="M 22.5 32.04 
L 162 32.04 
" style="fill: none; stroke: #000000; stroke-width: 0.8; stroke-linejoin: miter; stroke-linecap: square"/>
   </g>
   <g id="patch_6">
    <path d="M 22.5 4.32 
L 162 4.32 
" style="fill: none; stroke: #000000; stroke-width: 0.8; stroke-linejoin: miter; stroke-linecap: square"/>
   </g>
  </g>
 </g>
 <defs>
  <clipPath id="p6c8c505f10">
   <rect x="22.5" y="4.32" width="139.5" height="27.72"/>
  </clipPath>
 </defs>
</svg>
