<?xml version="1.0" encoding="utf-8" standalone="no"?>
<!DOCTYPE svg PUBLIC "-//W3C//DTD SVG 1.1//EN"
  "http://www.w3.org/Graphics/SVG/1.1/DTD/svg11.dtd">
<svg xmlns:xlink="http://www.w3.org/1999/xlink" width="180pt" height="36pt" viewBox="0 0 180 36" xmlns="http://www.w3.org/2000/svg" version="1.1">
 <metadata>
  <rdf:RDF xmlns:dc="http://purl.org/dc/elements/1.1/" xmlns:cc="http://creativecommons.org/ns#" xmlns:rdf="http://www.w3.org/1999/02/22-rdf-syntax-ns#">
   <cc:Work>
    <dc:type rdf:resource="http://purl.org/dc/dcmitype/StillImage"/>
    <dc:date>2024-11-15T20:38:28.116493</dc:date>
    <dc:format>image/svg+xml</dc:format>
    <dc:creator>
     <cc:Agent>
      <dc:title>Matplotlib v3.9.1, https://matplotlib.org/</dc:title>
     </cc:Agent>
    </dc:creator>
   </cc:Work>
  </rdf:RDF>
 </metadata>
 <defs>
  <style type="text/css">*{stroke-linejoin: round; stroke-linecap: butt}</style>
 </defs>
 <g id="figure_1">
  <g id="patch_1">
   <path d="M 0 36 
L 180 36 
L 180 0 
L 0 0 
L 0 36 
z
" style="fill: none"/>
  </g>
  <g id="axes_1">
   <g id="patch_2">
    <path d="M 22.5 32.04 
L 162 32.04 
L 162 4.32 
L 22.5 4.32 
L 22.5 32.04 
z
" style="fill: none"/>
   </g>
   <g id="matplotlib.axis_1">
    <g id="xtick_1"/>
    <g id="xtick_2"/>
    <g id="xtick_3"/>
    <g id="xtick_4"/>
   </g>
   <g id="matplotlib.axis_2">
    <g id="ytick_1"/>
    <g id="ytick_2"/>
   </g>
   <g id="line2d_1">
    <path d="M 28.840909 14.54906 
L 29.545455 18.320142 
L 30.25 18.294661 
L 30.954545 19.211951 
L 31.659091 13.198605 
L 32.363636 15.874034 
L 33.068182 17.683134 
L 33.772727 21.989302 
L 34.477273 17.785056 
L 35.181818 21.377776 
L 35.886364 18.065339 
L 36.590909 19.135511 
L 37.295455 16.995167 
L 38 10.95634 
L 38.704545 11.822669 
L 39.409091 9.121759 
L 40.113636 13.478888 
L 40.818182 19.492235 
L 41.522727 16.332679 
L 42.227273 10.395774 
L 42.931818 11.644307 
L 43.636364 11.542386 
L 44.340909 19.415794 
L 45.045455 14.727422 
L 45.75 19.008109 
L 46.454545 17.402851 
L 47.159091 21.250374 
L 47.863636 13.173124 
L 48.568182 19.313873 
L 49.272727 18.549464 
L 49.977273 19.466754 
L 50.681818 20.103761 
L 51.386364 11.134702 
L 52.090909 13.835612 
L 52.795455 18.090819 
L 53.5 19.619636 
L 54.204545 18.600425 
L 54.909091 20.638847 
L 55.613636 16.485561 
L 56.318182 14.141375 
L 57.022727 16.689403 
L 57.727273 14.013974 
L 58.431818 13.275046 
L 59.136364 12.281314 
L 59.840909 8.815996 
L 60.545455 12.230354 
L 61.25 11.542386 
L 61.954545 13.249565 
L 62.659091 11.669788 
L 63.363636 11.618827 
L 64.068182 8.866957 
L 64.772727 9.402042 
L 65.477273 5.58 
L 66.181818 10.421254 
L 66.886364 16.077877 
L 67.590909 15.51731 
L 68.295455 14.701941 
L 69 11.185662 
L 69.704545 14.294257 
L 70.409091 15.797594 
L 71.113636 14.54906 
L 71.818182 9.733286 
L 72.522727 20.740768 
L 73.227273 24.588291 
L 73.931818 24.384449 
L 74.636364 23.849363 
L 75.340909 23.084954 
L 76.045455 27.467563 
L 76.75 21.250374 
L 77.454545 22.269585 
L 78.159091 20.052801 
L 78.863636 21.122973 
L 79.568182 23.772922 
L 80.272727 17.886977 
L 81.681818 21.683539 
L 82.386364 19.186471 
L 83.090909 15.058665 
L 83.795455 18.957149 
L 84.5 21.734499 
L 85.909091 21.989302 
L 86.613636 19.899919 
L 87.318182 12.8164 
L 88.022727 18.065339 
L 88.727273 18.880708 
L 89.431818 18.14178 
L 90.136364 14.523579 
L 90.840909 14.54906 
L 91.545455 18.014378 
L 92.25 19.211951 
L 93.659091 16.38364 
L 94.363636 23.874843 
L 95.068182 20.791729 
L 95.772727 13.096684 
L 96.477273 17.555733 
L 97.181818 13.198605 
L 97.886364 14.013974 
L 98.590909 16.179798 
L 99.295455 14.090415 
L 100 13.326006 
L 100.704545 22.447947 
L 101.409091 17.886977 
L 102.113636 20.384044 
L 102.818182 20.409525 
L 103.522727 16.791325 
L 104.227273 22.524388 
L 104.931818 21.250374 
L 105.636364 21.938342 
L 106.340909 15.313468 
L 107.045455 17.937937 
L 107.75 21.046532 
L 108.454545 20.435005 
L 109.159091 19.670597 
L 109.863636 20.91913 
L 110.568182 21.75998 
L 111.272727 19.874439 
L 111.977273 18.447543 
L 112.681818 18.422063 
L 113.386364 19.619636 
L 114.090909 25.607503 
L 114.795455 21.581618 
L 115.5 24.180607 
L 116.204545 25.887786 
L 116.909091 22.269585 
L 117.613636 22.065743 
L 118.318182 21.683539 
L 119.022727 22.549869 
L 119.727273 22.447947 
L 120.431818 22.804671 
L 121.136364 15.695672 
L 121.840909 22.091223 
L 122.545455 20.995571 
L 123.25 21.836421 
L 123.954545 16.765844 
L 124.659091 20.562406 
L 125.363636 18.982629 
L 126.068182 24.078686 
L 126.772727 20.84269 
L 127.477273 18.371102 
L 128.181818 17.224489 
L 128.886364 23.645521 
L 129.590909 28.461294 
L 130.295455 22.983033 
L 131 26.677674 
L 131.704545 20.435005 
L 132.409091 18.982629 
L 133.113636 23.110435 
L 133.818182 24.664732 
L 134.522727 24.078686 
L 135.227273 24.308008 
L 135.931818 21.326815 
L 136.636364 20.817209 
L 137.340909 19.313873 
L 138.045455 21.224894 
L 138.75 20.664328 
L 139.454545 24.664732 
L 140.863636 17.708615 
L 141.568182 25.709424 
L 142.272727 19.135511 
L 142.977273 26.524793 
L 143.681818 25.811345 
L 144.386364 28.614176 
L 145.090909 28.818018 
L 145.795455 30.78 
L 146.5 25.480101 
L 147.204545 26.346431 
L 147.909091 27.569484 
L 148.613636 26.830556 
L 149.318182 26.524793 
L 150.022727 28.94542 
L 150.727273 29.149262 
L 151.431818 27.110839 
L 152.136364 23.56908 
L 152.840909 26.422872 
L 153.545455 27.696886 
L 154.25 29.684348 
L 154.954545 29.990111 
L 155.659091 26.626714 
L 155.659091 26.626714 
" clip-path="url(#pee50320b6a)" style="fill: none; stroke: #e377c2; stroke-width: 2; stroke-linecap: square"/>
   </g>
   <g id="patch_3">
    <path d="M 22.5 32.04 
L 22.5 4.32 
" style="fill: none; stroke: #000000; stroke-width: 0.8; stroke-linejoin: miter; stroke-linecap: square"/>
   </g>
   <g id="patch_4">
    <path d="M 162 32.04 
L 162 4.32 
" style="fill: none; stroke: #000000; stroke-width: 0.8; stroke-linejoin: miter; stroke-linecap: square"/>
   </g>
   <g id="patch_5">
    <path d="M 22.5 32.04 
L 162 32.04 
" style="fill: none; stroke: #000000; stroke-width: 0.8; stroke-linejoin: miter; stroke-linecap: square"/>
   </g>
   <g id="patch_6">
    <path d="M 22.5 4.32 
L 162 4.32 
" style="fill: none; stroke: #000000; stroke-width: 0.8; stroke-linejoin: miter; stroke-linecap: square"/>
   </g>
  </g>
 </g>
 <defs>
  <clipPath id="pee50320b6a">
   <rect x="22.5" y="4.32" width="139.5" height="27.72"/>
  </clipPath>
 </defs>
</svg>
