<?xml version="1.0" encoding="utf-8" standalone="no"?>
<!DOCTYPE svg PUBLIC "-//W3C//DTD SVG 1.1//EN"
  "http://www.w3.org/Graphics/SVG/1.1/DTD/svg11.dtd">
<svg xmlns:xlink="http://www.w3.org/1999/xlink" width="180pt" height="36pt" viewBox="0 0 180 36" xmlns="http://www.w3.org/2000/svg" version="1.1">
 <metadata>
  <rdf:RDF xmlns:dc="http://purl.org/dc/elements/1.1/" xmlns:cc="http://creativecommons.org/ns#" xmlns:rdf="http://www.w3.org/1999/02/22-rdf-syntax-ns#">
   <cc:Work>
    <dc:type rdf:resource="http://purl.org/dc/dcmitype/StillImage"/>
    <dc:date>2024-11-15T20:38:27.924688</dc:date>
    <dc:format>image/svg+xml</dc:format>
    <dc:creator>
     <cc:Agent>
      <dc:title>Matplotlib v3.9.1, https://matplotlib.org/</dc:title>
     </cc:Agent>
    </dc:creator>
   </cc:Work>
  </rdf:RDF>
 </metadata>
 <defs>
  <style type="text/css">*{stroke-linejoin: round; stroke-linecap: butt}</style>
 </defs>
 <g id="figure_1">
  <g id="patch_1">
   <path d="M 0 36 
L 180 36 
L 180 0 
L 0 0 
L 0 36 
z
" style="fill: none"/>
  </g>
  <g id="axes_1">
   <g id="patch_2">
    <path d="M 22.5 32.04 
L 162 32.04 
L 162 4.32 
L 22.5 4.32 
L 22.5 32.04 
z
" style="fill: none"/>
   </g>
   <g id="matplotlib.axis_1">
    <g id="xtick_1"/>
    <g id="xtick_2"/>
    <g id="xtick_3"/>
    <g id="xtick_4"/>
   </g>
   <g id="matplotlib.axis_2">
    <g id="ytick_1"/>
    <g id="ytick_2"/>
   </g>
   <g id="line2d_1">
    <path d="M 28.840909 10.724637 
L 29.545455 23.651626 
L 30.25 14.168927 
L 30.954545 18.50699 
L 31.659091 17.896609 
L 32.363636 18.332595 
L 33.068182 22.212872 
L 33.772727 16.91564 
L 34.477273 16.523253 
L 35.181818 19.378962 
L 35.886364 18.136401 
L 36.590909 13.841938 
L 37.295455 18.441592 
L 38 14.648512 
L 38.704545 19.771349 
L 39.409091 14.975502 
L 40.113636 16.959239 
L 40.818182 16.501453 
L 41.522727 16.414256 
L 42.227273 15.934671 
L 42.931818 20.970311 
L 43.636364 17.090035 
L 44.340909 22.169273 
L 45.045455 14.561315 
L 45.75 19.335363 
L 46.454545 16.327059 
L 47.159091 18.027405 
L 47.863636 14.801107 
L 48.568182 19.226367 
L 49.272727 21.97308 
L 49.977273 20.926713 
L 51.386364 15.215294 
L 52.090909 17.090035 
L 52.795455 19.596955 
L 53.5 15.455087 
L 54.204545 9.155087 
L 54.909091 12.010796 
L 55.613636 11.073426 
L 56.318182 12.599377 
L 57.022727 15.629481 
L 57.727273 18.158201 
L 58.431818 12.032595 
L 59.136364 12.490381 
L 59.840909 14.234325 
L 60.545455 10.724637 
L 61.25 11.029827 
L 62.659091 13.602145 
L 63.363636 11.814602 
L 64.068182 7.999723 
L 64.772727 5.667197 
L 65.477273 5.58 
L 66.181818 8.021522 
L 66.886364 8.304913 
L 67.590909 10.572042 
L 68.295455 14.910104 
L 69 10.092457 
L 69.704545 17.090035 
L 70.409091 19.357163 
L 71.113636 13.253356 
L 71.818182 16.327059 
L 72.522727 12.424983 
L 73.227273 16.414256 
L 73.931818 18.376194 
L 74.636364 14.016332 
L 75.340909 15.65128 
L 76.045455 10.899031 
L 76.75 12.795571 
L 77.454545 19.836747 
L 78.159091 16.91564 
L 78.863636 14.844706 
L 79.568182 17.526021 
L 80.272727 18.855779 
L 80.977273 18.703183 
L 81.681818 22.452664 
L 82.386364 17.962007 
L 83.090909 14.801107 
L 83.795455 21.253702 
L 84.5 16.043668 
L 85.204545 17.678616 
L 85.909091 15.455087 
L 86.613636 14.779308 
L 87.318182 17.613218 
L 88.022727 16.043668 
L 88.727273 17.22083 
L 89.431818 14.168927 
L 90.136364 15.171696 
L 90.840909 14.822907 
L 91.545455 18.681384 
L 92.25 16.065467 
L 92.954545 16.239862 
L 94.363636 22.452664 
L 95.068182 18.092803 
L 95.772727 15.106298 
L 96.477273 19.858547 
L 97.181818 17.87481 
L 97.886364 20.643322 
L 98.590909 18.158201 
L 99.295455 17.068235 
L 100 24.240208 
L 100.704545 22.474464 
L 101.409091 23.608028 
L 102.113636 22.997647 
L 102.818182 18.528789 
L 103.522727 17.090035 
L 104.227273 18.223599 
L 104.931818 16.91564 
L 105.636364 17.765813 
L 106.340909 18.899377 
L 107.045455 22.256471 
L 107.75 21.602491 
L 108.454545 21.428097 
L 109.159091 21.842284 
L 110.568182 25.591765 
L 111.272727 19.575156 
L 111.977273 22.27827 
L 112.681818 28.098685 
L 114.090909 22.234671 
L 114.795455 23.717024 
L 115.5 20.011142 
L 116.909091 26.899723 
L 117.613636 21.035709 
L 118.318182 16.261661 
L 119.022727 20.556125 
L 119.727273 19.291765 
L 120.431818 19.335363 
L 121.136364 23.695225 
L 121.840909 21.275502 
L 122.545455 20.861315 
L 123.25 24.78519 
L 123.954545 22.365467 
L 124.659091 20.926713 
L 125.363636 20.599723 
L 126.068182 21.057509 
L 126.772727 22.343668 
L 127.477273 17.329827 
L 128.181818 18.136401 
L 128.886364 19.618754 
L 129.590909 20.599723 
L 130.295455 26.37654 
L 131 24.959585 
L 131.704545 25.548166 
L 132.409091 23.477232 
L 133.113636 27.967889 
L 133.818182 25.373772 
L 134.522727 25.264775 
L 135.227273 25.003183 
L 135.931818 21.297301 
L 136.636364 24.501799 
L 137.340909 23.128443 
L 138.045455 24.414602 
L 138.75 24.501799 
L 139.454545 30.235017 
L 140.159091 25.504567 
L 140.863636 17.569619 
L 141.568182 22.779654 
L 142.272727 25.330173 
L 142.977273 24.959585 
L 143.681818 27.684498 
L 144.386364 27.684498 
L 145.090909 25.199377 
L 145.795455 27.728097 
L 146.5 27.662699 
L 147.204545 30.126021 
L 147.909091 27.575502 
L 148.613636 25.700761 
L 149.318182 26.725329 
L 150.727273 30.78 
L 151.431818 28.992457 
L 152.136364 30.082422 
L 152.840909 30.126021 
L 153.545455 24.262007 
L 154.25 28.665467 
L 154.954545 26.659931 
L 155.659091 28.57827 
L 155.659091 28.57827 
" clip-path="url(#pfac8742843)" style="fill: none; stroke: #e377c2; stroke-width: 2; stroke-linecap: square"/>
   </g>
   <g id="patch_3">
    <path d="M 22.5 32.04 
L 22.5 4.32 
" style="fill: none; stroke: #000000; stroke-width: 0.8; stroke-linejoin: miter; stroke-linecap: square"/>
   </g>
   <g id="patch_4">
    <path d="M 162 32.04 
L 162 4.32 
" style="fill: none; stroke: #000000; stroke-width: 0.8; stroke-linejoin: miter; stroke-linecap: square"/>
   </g>
   <g id="patch_5">
    <path d="M 22.5 32.04 
L 162 32.04 
" style="fill: none; stroke: #000000; stroke-width: 0.8; stroke-linejoin: miter; stroke-linecap: square"/>
   </g>
   <g id="patch_6">
    <path d="M 22.5 4.32 
L 162 4.32 
" style="fill: none; stroke: #000000; stroke-width: 0.8; stroke-linejoin: miter; stroke-linecap: square"/>
   </g>
  </g>
 </g>
 <defs>
  <clipPath id="pfac8742843">
   <rect x="22.5" y="4.32" width="139.5" height="27.72"/>
  </clipPath>
 </defs>
</svg>
