<?xml version="1.0" encoding="utf-8" standalone="no"?>
<!DOCTYPE svg PUBLIC "-//W3C//DTD SVG 1.1//EN"
  "http://www.w3.org/Graphics/SVG/1.1/DTD/svg11.dtd">
<svg xmlns:xlink="http://www.w3.org/1999/xlink" width="180pt" height="36pt" viewBox="0 0 180 36" xmlns="http://www.w3.org/2000/svg" version="1.1">
 <metadata>
  <rdf:RDF xmlns:dc="http://purl.org/dc/elements/1.1/" xmlns:cc="http://creativecommons.org/ns#" xmlns:rdf="http://www.w3.org/1999/02/22-rdf-syntax-ns#">
   <cc:Work>
    <dc:type rdf:resource="http://purl.org/dc/dcmitype/StillImage"/>
    <dc:date>2024-11-15T20:38:27.521919</dc:date>
    <dc:format>image/svg+xml</dc:format>
    <dc:creator>
     <cc:Agent>
      <dc:title>Matplotlib v3.9.1, https://matplotlib.org/</dc:title>
     </cc:Agent>
    </dc:creator>
   </cc:Work>
  </rdf:RDF>
 </metadata>
 <defs>
  <style type="text/css">*{stroke-linejoin: round; stroke-linecap: butt}</style>
 </defs>
 <g id="figure_1">
  <g id="patch_1">
   <path d="M 0 36 
L 180 36 
L 180 0 
L 0 0 
L 0 36 
z
" style="fill: none"/>
  </g>
  <g id="axes_1">
   <g id="patch_2">
    <path d="M 22.5 32.04 
L 162 32.04 
L 162 4.32 
L 22.5 4.32 
L 22.5 32.04 
z
" style="fill: none"/>
   </g>
   <g id="matplotlib.axis_1">
    <g id="xtick_1"/>
    <g id="xtick_2"/>
    <g id="xtick_3"/>
    <g id="xtick_4"/>
   </g>
   <g id="matplotlib.axis_2">
    <g id="ytick_1"/>
    <g id="ytick_2"/>
   </g>
   <g id="line2d_1">
    <path d="M 28.840909 23.499373 
L 29.545455 18.899597 
L 30.25 16.754916 
L 30.954545 21.241814 
L 31.659091 17.799037 
L 32.363636 20.225913 
L 33.068182 17.037111 
L 33.772727 20.056596 
L 34.477273 26.095566 
L 35.886364 21.298253 
L 37.295455 24.76925 
L 38 16.049429 
L 38.704545 21.213595 
L 39.409091 14.977088 
L 40.818182 23.527592 
L 41.522727 21.382912 
L 42.227273 18.476305 
L 43.636364 27.083247 
L 45.045455 24.402396 
L 45.75 28.381344 
L 46.454545 24.599933 
L 47.159091 24.091982 
L 47.863636 20.846741 
L 48.568182 22.709227 
L 49.272727 24.966786 
L 49.977273 13.029944 
L 50.681818 23.696909 
L 51.386364 27.196125 
L 52.090909 25.023225 
L 52.795455 17.799037 
L 53.5 23.753348 
L 54.204545 24.289518 
L 54.909091 22.03196 
L 55.613636 23.13252 
L 56.318182 20.90318 
L 57.022727 21.439351 
L 57.727273 19.971937 
L 58.431818 19.633303 
L 59.136364 21.044278 
L 59.840909 24.797469 
L 60.545455 23.217178 
L 61.25 23.527592 
L 61.954545 24.74103 
L 62.659091 21.439351 
L 63.363636 20.790302 
L 64.068182 18.335207 
L 64.772727 30.78 
L 65.477273 24.091982 
L 66.181818 25.390078 
L 66.886364 30.046293 
L 67.590909 22.963203 
L 68.295455 20.677424 
L 69 18.956036 
L 69.704545 21.975521 
L 70.409091 21.580448 
L 71.113636 21.890862 
L 71.818182 24.007324 
L 72.522727 27.026809 
L 73.227273 23.584031 
L 73.931818 27.901613 
L 74.636364 24.966786 
L 75.340909 18.137671 
L 76.045455 24.148421 
L 76.75 22.201277 
L 77.454545 25.051445 
L 78.159091 19.520426 
L 78.863636 24.656372 
L 79.568182 24.23308 
L 80.272727 26.659955 
L 80.977273 27.196125 
L 81.681818 24.656372 
L 82.386364 22.624569 
L 83.795455 26.264882 
L 84.5 21.213595 
L 85.204545 17.940134 
L 85.909091 19.717962 
L 86.613636 23.950885 
L 87.318182 21.100717 
L 88.022727 22.342374 
L 88.727273 23.979104 
L 90.136364 18.306988 
L 90.840909 23.301837 
L 91.545455 17.516842 
L 92.25 20.479888 
L 92.954545 21.185375 
L 93.659091 15.795454 
L 94.363636 22.285935 
L 95.068182 21.411131 
L 95.772727 22.116618 
L 96.477273 22.427032 
L 97.181818 26.631736 
L 97.886364 19.605084 
L 98.590909 19.520426 
L 99.295455 23.781568 
L 100 24.374177 
L 100.704545 17.319306 
L 101.409091 18.476305 
L 102.113636 20.874961 
L 102.818182 13.735431 
L 103.522727 12.493774 
L 104.227273 11.929384 
L 104.931818 12.521993 
L 105.636364 24.148421 
L 106.340909 20.733863 
L 107.045455 24.148421 
L 107.75 21.947301 
L 108.454545 17.347525 
L 109.159091 15.626137 
L 109.863636 20.000157 
L 110.568182 17.996573 
L 111.272727 17.149989 
L 111.977273 17.545062 
L 112.681818 20.649205 
L 113.386364 17.319306 
L 114.090909 19.181792 
L 114.795455 16.55738 
L 115.5 22.00374 
L 116.204545 20.790302 
L 116.909091 23.894446 
L 117.613636 19.774401 
L 118.318182 24.23308 
L 119.022727 21.975521 
L 119.727273 21.270034 
L 120.431818 25.051445 
L 121.136364 19.576865 
L 121.840909 15.908331 
L 122.545455 14.751333 
L 123.25 19.012475 
L 123.954545 22.116618 
L 124.659091 17.516842 
L 125.363636 16.924233 
L 126.068182 23.13252 
L 126.772727 16.500941 
L 127.477273 19.153572 
L 128.181818 16.642038 
L 128.886364 19.971937 
L 129.590909 19.520426 
L 130.295455 19.887279 
L 131 16.698477 
L 131.704545 22.56813 
L 132.409091 24.148421 
L 133.113636 20.959619 
L 133.818182 21.552228 
L 134.522727 20.762083 
L 135.227273 20.9314 
L 135.931818 23.414714 
L 136.636364 25.333639 
L 137.340909 26.716394 
L 138.045455 20.113035 
L 138.75 16.218746 
L 139.454545 16.980672 
L 140.159091 16.783135 
L 140.863636 19.520426 
L 141.568182 18.927816 
L 142.272727 21.270034 
L 142.977273 15.936551 
L 143.681818 18.222329 
L 144.386364 16.952452 
L 145.090909 10.659507 
L 145.795455 16.021209 
L 146.5 11.111019 
L 147.204545 17.460403 
L 147.909091 12.550213 
L 148.613636 5.58 
L 150.727273 20.564546 
L 151.431818 22.144838 
L 152.136364 22.991422 
L 152.840909 21.185375 
L 153.545455 20.169474 
L 154.25 23.838007 
L 154.954545 16.896013 
L 155.659091 19.068914 
L 155.659091 19.068914 
" clip-path="url(#p87197f4c29)" style="fill: none; stroke: #e377c2; stroke-width: 2; stroke-linecap: square"/>
   </g>
   <g id="patch_3">
    <path d="M 22.5 32.04 
L 22.5 4.32 
" style="fill: none; stroke: #000000; stroke-width: 0.8; stroke-linejoin: miter; stroke-linecap: square"/>
   </g>
   <g id="patch_4">
    <path d="M 162 32.04 
L 162 4.32 
" style="fill: none; stroke: #000000; stroke-width: 0.8; stroke-linejoin: miter; stroke-linecap: square"/>
   </g>
   <g id="patch_5">
    <path d="M 22.5 32.04 
L 162 32.04 
" style="fill: none; stroke: #000000; stroke-width: 0.8; stroke-linejoin: miter; stroke-linecap: square"/>
   </g>
   <g id="patch_6">
    <path d="M 22.5 4.32 
L 162 4.32 
" style="fill: none; stroke: #000000; stroke-width: 0.8; stroke-linejoin: miter; stroke-linecap: square"/>
   </g>
  </g>
 </g>
 <defs>
  <clipPath id="p87197f4c29">
   <rect x="22.5" y="4.32" width="139.5" height="27.72"/>
  </clipPath>
 </defs>
</svg>
