<?xml version="1.0" encoding="utf-8" standalone="no"?>
<!DOCTYPE svg PUBLIC "-//W3C//DTD SVG 1.1//EN"
  "http://www.w3.org/Graphics/SVG/1.1/DTD/svg11.dtd">
<svg xmlns:xlink="http://www.w3.org/1999/xlink" width="180pt" height="36pt" viewBox="0 0 180 36" xmlns="http://www.w3.org/2000/svg" version="1.1">
 <metadata>
  <rdf:RDF xmlns:dc="http://purl.org/dc/elements/1.1/" xmlns:cc="http://creativecommons.org/ns#" xmlns:rdf="http://www.w3.org/1999/02/22-rdf-syntax-ns#">
   <cc:Work>
    <dc:type rdf:resource="http://purl.org/dc/dcmitype/StillImage"/>
    <dc:date>2024-11-15T20:38:28.822338</dc:date>
    <dc:format>image/svg+xml</dc:format>
    <dc:creator>
     <cc:Agent>
      <dc:title>Matplotlib v3.9.1, https://matplotlib.org/</dc:title>
     </cc:Agent>
    </dc:creator>
   </cc:Work>
  </rdf:RDF>
 </metadata>
 <defs>
  <style type="text/css">*{stroke-linejoin: round; stroke-linecap: butt}</style>
 </defs>
 <g id="figure_1">
  <g id="patch_1">
   <path d="M 0 36 
L 180 36 
L 180 0 
L 0 0 
L 0 36 
z
" style="fill: none"/>
  </g>
  <g id="axes_1">
   <g id="patch_2">
    <path d="M 22.5 32.04 
L 162 32.04 
L 162 4.32 
L 22.5 4.32 
L 22.5 32.04 
z
" style="fill: none"/>
   </g>
   <g id="matplotlib.axis_1">
    <g id="xtick_1"/>
    <g id="xtick_2"/>
    <g id="xtick_3"/>
    <g id="xtick_4"/>
   </g>
   <g id="matplotlib.axis_2">
    <g id="ytick_1"/>
    <g id="ytick_2"/>
   </g>
   <g id="line2d_1">
    <path d="M 28.840909 21.796377 
L 29.545455 22.755186 
L 30.25 19.274293 
L 30.954545 17.189926 
L 31.659091 17.89861 
L 32.363636 15.084715 
L 33.068182 16.981489 
L 33.772727 9.144268 
L 34.477273 11.457916 
L 35.181818 13.167097 
L 35.886364 8.47727 
L 36.590909 9.227643 
L 37.295455 17.44005 
L 38 17.377519 
L 38.704545 15.710025 
L 39.409091 10.06139 
L 40.113636 5.58 
L 40.818182 14.751216 
L 41.522727 8.498114 
L 42.227273 13.000347 
L 42.931818 11.207792 
L 43.636364 12.145757 
L 44.340909 16.460397 
L 45.045455 17.210769 
L 45.75 14.292655 
L 46.454545 17.294144 
L 47.159091 13.396377 
L 47.863636 12.291663 
L 48.568182 15.084715 
L 49.272727 17.04402 
L 49.977273 14.709529 
L 50.681818 9.311017 
L 51.386364 9.248486 
L 52.090909 14.813747 
L 52.795455 14.042531 
L 53.5 15.960149 
L 54.204545 20.33732 
L 54.909091 23.192903 
L 55.613636 19.441042 
L 56.318182 20.253945 
L 57.022727 22.630124 
L 57.727273 25.6733 
L 58.431818 20.629132 
L 59.136364 17.377519 
L 59.840909 18.29464 
L 60.545455 21.817221 
L 61.25 18.91995 
L 62.659091 16.293648 
L 63.363636 15.751712 
L 64.068182 18.440546 
L 64.772727 13.896625 
L 65.477273 18.190422 
L 66.181818 14.897122 
L 66.886364 15.689181 
L 67.590909 20.983474 
L 68.295455 14.521935 
L 69.704545 15.022184 
L 70.409091 12.312506 
L 71.818182 22.525906 
L 72.522727 18.190422 
L 73.227273 17.356675 
L 73.931818 17.961141 
L 74.636364 19.024169 
L 75.340909 16.522928 
L 76.75 13.271315 
L 77.454545 15.084715 
L 78.159091 17.836079 
L 78.863636 16.543772 
L 79.568182 14.876278 
L 80.272727 19.857916 
L 80.977273 20.5666 
L 81.681818 18.669826 
L 82.386364 20.649975 
L 83.090909 19.170074 
L 83.795455 22.755186 
L 84.5 17.981985 
L 85.204545 18.69067 
L 85.909091 21.462878 
L 86.613636 19.045012 
L 87.318182 21.337816 
L 88.022727 21.254442 
L 88.727273 21.900596 
L 89.431818 20.10804 
L 90.136364 22.254938 
L 90.840909 23.901588 
L 91.545455 24.881241 
L 92.954545 24.943772 
L 93.659091 23.17206 
L 94.363636 22.755186 
L 95.068182 23.693151 
L 95.772727 24.089181 
L 96.477273 22.630124 
L 97.181818 20.045509 
L 97.886364 25.360645 
L 98.590909 23.672308 
L 99.295455 23.088685 
L 100 18.440546 
L 100.704545 18.565608 
L 101.409091 14.730372 
L 102.113636 17.606799 
L 102.818182 17.856923 
L 103.522727 15.710025 
L 104.227273 19.420199 
L 104.931818 16.439553 
L 105.636364 12.604318 
L 106.340909 12.437568 
L 107.045455 16.106055 
L 107.75 15.084715 
L 108.454545 6.788933 
L 109.159091 18.586452 
L 109.863636 12.56263 
L 110.568182 12.458412 
L 111.272727 16.939801 
L 111.977273 17.189926 
L 112.681818 13.959156 
L 113.386364 13.479752 
L 114.090909 16.627146 
L 114.795455 17.981985 
L 115.5 15.022184 
L 116.204545 16.106055 
L 116.909091 21.108536 
L 117.613636 22.838561 
L 118.318182 20.5666 
L 119.022727 20.691663 
L 119.727273 19.670323 
L 120.431818 24.485211 
L 121.136364 23.526402 
L 121.840909 26.215236 
L 122.545455 25.694144 
L 123.25 25.881737 
L 124.659091 29.008288 
L 125.363636 27.278263 
L 126.068182 26.46536 
L 126.772727 24.777022 
L 127.477273 27.632605 
L 128.181818 27.153201 
L 128.886364 25.464864 
L 129.590909 27.257419 
L 130.295455 24.401836 
L 131.704545 24.464367 
L 132.409091 24.610273 
L 133.113636 25.339801 
L 133.818182 24.631117 
L 134.522727 27.590918 
L 135.227273 26.69464 
L 136.636364 22.77603 
L 137.340909 26.027643 
L 138.045455 23.234591 
L 138.75 22.192407 
L 139.454545 24.089181 
L 140.159091 23.151216 
L 141.568182 21.98397 
L 142.272727 23.859901 
L 142.977273 22.15072 
L 143.681818 23.17206 
L 144.386364 20.5666 
L 145.090909 21.963127 
L 145.795455 21.004318 
L 146.5 23.776526 
L 147.909091 24.65196 
L 148.613636 28.382978 
L 149.318182 26.507047 
L 150.022727 22.671811 
L 150.727273 27.632605 
L 151.431818 28.487196 
L 152.136364 26.86139 
L 152.840909 27.632605 
L 153.545455 30.113002 
L 154.25 26.236079 
L 154.954545 30.78 
L 155.659091 29.591911 
L 155.659091 29.591911 
" clip-path="url(#p9b7892c0ba)" style="fill: none; stroke: #e377c2; stroke-width: 2; stroke-linecap: square"/>
   </g>
   <g id="patch_3">
    <path d="M 22.5 32.04 
L 22.5 4.32 
" style="fill: none; stroke: #000000; stroke-width: 0.8; stroke-linejoin: miter; stroke-linecap: square"/>
   </g>
   <g id="patch_4">
    <path d="M 162 32.04 
L 162 4.32 
" style="fill: none; stroke: #000000; stroke-width: 0.8; stroke-linejoin: miter; stroke-linecap: square"/>
   </g>
   <g id="patch_5">
    <path d="M 22.5 32.04 
L 162 32.04 
" style="fill: none; stroke: #000000; stroke-width: 0.8; stroke-linejoin: miter; stroke-linecap: square"/>
   </g>
   <g id="patch_6">
    <path d="M 22.5 4.32 
L 162 4.32 
" style="fill: none; stroke: #000000; stroke-width: 0.8; stroke-linejoin: miter; stroke-linecap: square"/>
   </g>
  </g>
 </g>
 <defs>
  <clipPath id="p9b7892c0ba">
   <rect x="22.5" y="4.32" width="139.5" height="27.72"/>
  </clipPath>
 </defs>
</svg>
