<?xml version="1.0" encoding="utf-8" standalone="no"?>
<!DOCTYPE svg PUBLIC "-//W3C//DTD SVG 1.1//EN"
  "http://www.w3.org/Graphics/SVG/1.1/DTD/svg11.dtd">
<svg xmlns:xlink="http://www.w3.org/1999/xlink" width="180pt" height="36pt" viewBox="0 0 180 36" xmlns="http://www.w3.org/2000/svg" version="1.1">
 <metadata>
  <rdf:RDF xmlns:dc="http://purl.org/dc/elements/1.1/" xmlns:cc="http://creativecommons.org/ns#" xmlns:rdf="http://www.w3.org/1999/02/22-rdf-syntax-ns#">
   <cc:Work>
    <dc:type rdf:resource="http://purl.org/dc/dcmitype/StillImage"/>
    <dc:date>2024-11-15T20:38:27.002194</dc:date>
    <dc:format>image/svg+xml</dc:format>
    <dc:creator>
     <cc:Agent>
      <dc:title>Matplotlib v3.9.1, https://matplotlib.org/</dc:title>
     </cc:Agent>
    </dc:creator>
   </cc:Work>
  </rdf:RDF>
 </metadata>
 <defs>
  <style type="text/css">*{stroke-linejoin: round; stroke-linecap: butt}</style>
 </defs>
 <g id="figure_1">
  <g id="patch_1">
   <path d="M 0 36 
L 180 36 
L 180 0 
L 0 0 
L 0 36 
z
" style="fill: none"/>
  </g>
  <g id="axes_1">
   <g id="patch_2">
    <path d="M 22.5 32.04 
L 162 32.04 
L 162 4.32 
L 22.5 4.32 
L 22.5 32.04 
z
" style="fill: none"/>
   </g>
   <g id="matplotlib.axis_1">
    <g id="xtick_1"/>
    <g id="xtick_2"/>
    <g id="xtick_3"/>
    <g id="xtick_4"/>
   </g>
   <g id="matplotlib.axis_2">
    <g id="ytick_1"/>
    <g id="ytick_2"/>
   </g>
   <g id="line2d_1">
    <path d="M 28.840909 28.6419 
L 29.545455 29.099104 
L 30.25 30.78 
L 30.954545 30.390032 
L 31.659091 29.489072 
L 32.363636 30.295902 
L 33.068182 29.368047 
L 33.772727 29.247022 
L 34.477273 28.843607 
L 35.181818 29.54286 
L 35.886364 29.361323 
L 36.590909 28.520875 
L 37.295455 28.749477 
L 38 29.462177 
L 38.704545 26.443287 
L 39.409091 28.278826 
L 40.113636 27.31063 
L 40.818182 26.967727 
L 41.522727 27.290459 
L 42.227273 26.174344 
L 43.636364 27.290459 
L 44.340909 28.440192 
L 45.045455 27.989712 
L 45.75 26.678613 
L 46.454545 25.817994 
L 47.159091 23.901772 
L 47.863636 24.049691 
L 48.568182 23.881601 
L 49.272727 21.474557 
L 49.977273 23.471462 
L 50.681818 23.350438 
L 51.386364 22.610843 
L 52.090909 22.812551 
L 52.795455 22.879787 
L 53.5 22.69825 
L 54.204545 23.377332 
L 54.909091 21.548517 
L 55.613636 19.195261 
L 56.318182 18.717887 
L 57.022727 21.582134 
L 57.727273 20.74841 
L 58.431818 18.697716 
L 59.136364 15.752785 
L 59.840909 13.809669 
L 60.545455 14.717353 
L 61.25 13.668474 
L 61.954545 11.698463 
L 62.659091 14.871996 
L 63.363636 16.075518 
L 64.068182 13.063351 
L 64.772727 14.919061 
L 65.477273 12.955774 
L 66.181818 10.535283 
L 66.886364 11.490032 
L 67.590909 11.866553 
L 68.295455 10.743714 
L 69 7.442433 
L 69.704545 7.012124 
L 70.409091 7.462604 
L 71.113636 8.524931 
L 71.818182 5.58 
L 72.522727 8.733362 
L 73.227273 9.082988 
L 73.931818 9.748623 
L 74.636364 12.606147 
L 75.340909 13.278506 
L 76.045455 13.412978 
L 76.75 13.870181 
L 77.454545 13.318847 
L 78.159091 10.407535 
L 78.863636 11.846382 
L 79.568182 9.809136 
L 80.272727 8.86111 
L 80.977273 13.513831 
L 81.681818 9.076265 
L 82.386364 11.382455 
L 83.090909 8.24254 
L 83.795455 11.315219 
L 84.5 10.172209 
L 85.204545 6.447343 
L 85.909091 10.064632 
L 86.613636 9.304867 
L 87.318182 8.834216 
L 88.022727 9.022476 
L 88.727273 11.268154 
L 89.431818 11.772423 
L 90.136364 13.150758 
L 90.840909 13.21127 
L 91.545455 13.971035 
L 92.25 11.268154 
L 92.954545 12.001025 
L 93.659091 9.694835 
L 94.363636 8.78715 
L 95.068182 11.207641 
L 95.772727 10.051185 
L 96.477273 9.647769 
L 97.181818 8.269434 
L 97.886364 10.091526 
L 98.590909 12.283415 
L 99.295455 12.895261 
L 100 11.234536 
L 100.704545 11.664845 
L 101.409091 13.964312 
L 102.113636 13.540726 
L 102.818182 13.332295 
L 103.522727 9.425891 
L 104.227273 9.889819 
L 104.931818 14.125678 
L 105.636364 13.883629 
L 106.340909 14.327385 
L 107.045455 14.97285 
L 108.454545 14.172743 
L 109.159091 17.487471 
L 109.863636 15.739338 
L 110.568182 15.658655 
L 111.272727 17.588324 
L 111.977273 14.603052 
L 112.681818 14.421515 
L 113.386364 14.623223 
L 114.795455 11.07317 
L 115.5 11.859829 
L 116.204545 10.743714 
L 116.909091 8.807321 
L 117.613636 11.254707 
L 118.318182 11.906894 
L 119.022727 8.901451 
L 119.727273 8.05428 
L 120.431818 7.946702 
L 121.136364 10.494941 
L 121.840909 13.47349 
L 122.545455 10.071355 
L 123.954545 11.416073 
L 124.659091 11.207641 
L 125.363636 9.862924 
L 126.068182 13.036457 
L 126.772727 10.306681 
L 127.477273 16.969755 
L 128.181818 13.715539 
L 128.886364 14.757695 
L 129.590909 12.841473 
L 130.295455 12.505293 
L 131 10.763885 
L 131.704545 10.683202 
L 132.409091 6.635603 
L 133.113636 7.301238 
L 134.522727 9.728453 
L 135.227273 6.944888 
L 135.931818 7.758442 
L 136.636364 7.926531 
L 138.045455 11.846382 
L 138.75 10.239445 
L 139.454545 11.624504 
L 140.159091 12.175838 
L 141.568182 13.668474 
L 142.272727 13.850011 
L 142.977273 11.960683 
L 143.681818 14.468581 
L 144.386364 13.802946 
L 145.090909 12.249797 
L 145.795455 12.861644 
L 146.5 12.357375 
L 147.204545 12.834749 
L 147.909091 13.621409 
L 148.613636 14.764418 
L 149.318182 14.18619 
L 150.022727 13.917247 
L 150.727273 12.996115 
L 151.431818 14.824931 
L 152.840909 12.283415 
L 153.545455 16.452038 
L 154.25 14.246702 
L 154.954545 14.529093 
L 155.659091 14.63667 
L 155.659091 14.63667 
" clip-path="url(#p8e47284f13)" style="fill: none; stroke: #e377c2; stroke-width: 2; stroke-linecap: square"/>
   </g>
   <g id="patch_3">
    <path d="M 22.5 32.04 
L 22.5 4.32 
" style="fill: none; stroke: #000000; stroke-width: 0.8; stroke-linejoin: miter; stroke-linecap: square"/>
   </g>
   <g id="patch_4">
    <path d="M 162 32.04 
L 162 4.32 
" style="fill: none; stroke: #000000; stroke-width: 0.8; stroke-linejoin: miter; stroke-linecap: square"/>
   </g>
   <g id="patch_5">
    <path d="M 22.5 32.04 
L 162 32.04 
" style="fill: none; stroke: #000000; stroke-width: 0.8; stroke-linejoin: miter; stroke-linecap: square"/>
   </g>
   <g id="patch_6">
    <path d="M 22.5 4.32 
L 162 4.32 
" style="fill: none; stroke: #000000; stroke-width: 0.8; stroke-linejoin: miter; stroke-linecap: square"/>
   </g>
  </g>
 </g>
 <defs>
  <clipPath id="p8e47284f13">
   <rect x="22.5" y="4.32" width="139.5" height="27.72"/>
  </clipPath>
 </defs>
</svg>
