<?xml version="1.0" encoding="utf-8" standalone="no"?>
<!DOCTYPE svg PUBLIC "-//W3C//DTD SVG 1.1//EN"
  "http://www.w3.org/Graphics/SVG/1.1/DTD/svg11.dtd">
<svg xmlns:xlink="http://www.w3.org/1999/xlink" width="180pt" height="36pt" viewBox="0 0 180 36" xmlns="http://www.w3.org/2000/svg" version="1.1">
 <metadata>
  <rdf:RDF xmlns:dc="http://purl.org/dc/elements/1.1/" xmlns:cc="http://creativecommons.org/ns#" xmlns:rdf="http://www.w3.org/1999/02/22-rdf-syntax-ns#">
   <cc:Work>
    <dc:type rdf:resource="http://purl.org/dc/dcmitype/StillImage"/>
    <dc:date>2024-11-15T20:38:27.313664</dc:date>
    <dc:format>image/svg+xml</dc:format>
    <dc:creator>
     <cc:Agent>
      <dc:title>Matplotlib v3.9.1, https://matplotlib.org/</dc:title>
     </cc:Agent>
    </dc:creator>
   </cc:Work>
  </rdf:RDF>
 </metadata>
 <defs>
  <style type="text/css">*{stroke-linejoin: round; stroke-linecap: butt}</style>
 </defs>
 <g id="figure_1">
  <g id="patch_1">
   <path d="M 0 36 
L 180 36 
L 180 0 
L 0 0 
L 0 36 
z
" style="fill: none"/>
  </g>
  <g id="axes_1">
   <g id="patch_2">
    <path d="M 22.5 32.04 
L 162 32.04 
L 162 4.32 
L 22.5 4.32 
L 22.5 32.04 
z
" style="fill: none"/>
   </g>
   <g id="matplotlib.axis_1">
    <g id="xtick_1"/>
    <g id="xtick_2"/>
    <g id="xtick_3"/>
    <g id="xtick_4"/>
   </g>
   <g id="matplotlib.axis_2">
    <g id="ytick_1"/>
    <g id="ytick_2"/>
    <g id="ytick_3"/>
   </g>
   <g id="line2d_1">
    <path d="M 28.840909 11.367986 
L 29.545455 7.592438 
L 30.25 9.177456 
L 30.954545 11.296749 
L 31.659091 15.107915 
L 32.363636 15.553145 
L 33.068182 16.336749 
L 33.772727 17.832721 
L 34.477273 16.10523 
L 35.886364 14.609258 
L 36.590909 10.441908 
L 37.295455 10.976184 
L 38 7.307491 
L 39.409091 9.622686 
L 40.113636 7.752721 
L 40.818182 8.963746 
L 42.227273 16.53265 
L 42.931818 11.207703 
L 43.636364 15.499717 
L 44.340909 17.512155 
L 45.75 19.310883 
L 46.454545 20.7 
L 47.159091 18.651943 
L 47.863636 11.563887 
L 48.568182 15.553145 
L 49.272727 13.433852 
L 49.977273 14.039364 
L 50.681818 12.721484 
L 52.090909 13.237951 
L 52.795455 11.314558 
L 53.5 5.58 
L 54.204545 13.843463 
L 54.909091 19.186219 
L 55.613636 18.72318 
L 56.318182 20.023251 
L 57.022727 20.236961 
L 57.727273 19.578021 
L 58.431818 19.417739 
L 59.136364 13.540707 
L 59.840909 15.00106 
L 60.545455 15.891519 
L 61.25 14.662686 
L 61.954545 14.288693 
L 62.659091 13.540707 
L 63.363636 15.784664 
L 64.068182 17.512155 
L 64.772727 14.003746 
L 65.477273 12.953004 
L 66.181818 16.692933 
L 66.886364 17.173781 
L 67.590909 18.188905 
L 68.295455 20.646572 
L 69 20.165724 
L 70.409091 23.923463 
L 71.113636 21.537032 
L 71.818182 22.516537 
L 72.522727 21.519223 
L 73.227273 16.53265 
L 73.931818 21.180848 
L 74.636364 23.816608 
L 75.340909 22.23159 
L 76.045455 13.309187 
L 76.75 13.505088 
L 77.454545 20.432862 
L 78.159091 13.113286 
L 78.863636 15.357244 
L 79.568182 13.113286 
L 80.272727 12.81053 
L 80.977273 16.675124 
L 81.681818 14.34212 
L 82.386364 16.888834 
L 83.090909 14.235265 
L 83.795455 13.611943 
L 84.5 18.651943 
L 85.204545 18.527279 
L 85.909091 17.19159 
L 86.613636 16.942261 
L 87.318182 14.466784 
L 88.022727 10.246007 
L 88.727273 17.529965 
L 89.431818 14.983251 
L 90.136364 16.76417 
L 90.840909 17.85053 
L 91.545455 16.158657 
L 92.25 16.657314 
L 92.954545 19.417739 
L 93.659091 19.720495 
L 94.363636 21.252085 
L 95.068182 22.249399 
L 95.772727 22.641201 
L 96.477273 22.106926 
L 97.181818 21.911025 
L 97.886364 23.139859 
L 98.590909 20.468481 
L 99.295455 24.368693 
L 100 24.279647 
L 100.704545 23.175477 
L 101.409091 20.753428 
L 102.818182 25.045442 
L 103.522727 22.641201 
L 104.227273 22.908339 
L 105.636364 16.354558 
L 106.340909 19.399929 
L 107.045455 13.843463 
L 107.75 20.094488 
L 108.454545 23.424806 
L 109.159091 16.069611 
L 110.568182 22.534346 
L 111.272727 22.516537 
L 111.977273 23.389187 
L 112.681818 20.789046 
L 113.386364 20.967138 
L 114.090909 22.498728 
L 114.795455 26.042756 
L 115.5 26.16742 
L 116.204545 20.415053 
L 116.909091 24.333074 
L 118.318182 27.414064 
L 119.022727 27.912721 
L 119.727273 25.009823 
L 120.431818 26.131802 
L 121.136364 24.546784 
L 122.545455 26.861979 
L 123.25 29.46212 
L 123.954545 27.609965 
L 124.659091 27.912721 
L 126.068182 30.601908 
L 126.772727 25.864664 
L 127.477273 25.989329 
L 128.181818 25.633145 
L 128.886364 30.78 
L 130.295455 23.211095 
L 131 26.61265 
L 131.704545 27.538728 
L 132.409091 29.90735 
L 133.113636 29.747067 
L 133.818182 25.455053 
L 134.522727 28.340141 
L 135.227273 28.820989 
L 135.931818 27.681201 
L 136.636364 26.986643 
L 137.340909 29.444311 
L 138.045455 28.874417 
L 138.75 29.479929 
L 139.454545 26.113993 
L 140.159091 27.414064 
L 140.863636 27.663392 
L 141.568182 24.938587 
L 142.272727 27.378445 
L 142.977273 21.911025 
L 143.681818 20.628763 
L 144.386364 24.226219 
L 145.090909 20.379435 
L 145.795455 20.361625 
L 146.5 21.038375 
L 147.204545 19.987633 
L 147.909091 18.634134 
L 148.613636 21.946643 
L 149.318182 23.015194 
L 150.022727 24.849541 
L 150.727273 27.734629 
L 151.431818 28.838799 
L 152.136364 24.315265 
L 152.840909 25.52629 
L 153.545455 24.671449 
L 154.954545 28.019576 
L 155.659091 29.978587 
L 155.659091 29.978587 
" clip-path="url(#p1ae49ad152)" style="fill: none; stroke: #e377c2; stroke-width: 2; stroke-linecap: square"/>
   </g>
   <g id="patch_3">
    <path d="M 22.5 32.04 
L 22.5 4.32 
" style="fill: none; stroke: #000000; stroke-width: 0.8; stroke-linejoin: miter; stroke-linecap: square"/>
   </g>
   <g id="patch_4">
    <path d="M 162 32.04 
L 162 4.32 
" style="fill: none; stroke: #000000; stroke-width: 0.8; stroke-linejoin: miter; stroke-linecap: square"/>
   </g>
   <g id="patch_5">
    <path d="M 22.5 32.04 
L 162 32.04 
" style="fill: none; stroke: #000000; stroke-width: 0.8; stroke-linejoin: miter; stroke-linecap: square"/>
   </g>
   <g id="patch_6">
    <path d="M 22.5 4.32 
L 162 4.32 
" style="fill: none; stroke: #000000; stroke-width: 0.8; stroke-linejoin: miter; stroke-linecap: square"/>
   </g>
  </g>
 </g>
 <defs>
  <clipPath id="p1ae49ad152">
   <rect x="22.5" y="4.32" width="139.5" height="27.72"/>
  </clipPath>
 </defs>
</svg>
