<?xml version="1.0" encoding="utf-8" standalone="no"?>
<!DOCTYPE svg PUBLIC "-//W3C//DTD SVG 1.1//EN"
  "http://www.w3.org/Graphics/SVG/1.1/DTD/svg11.dtd">
<svg xmlns:xlink="http://www.w3.org/1999/xlink" width="180pt" height="36pt" viewBox="0 0 180 36" xmlns="http://www.w3.org/2000/svg" version="1.1">
 <metadata>
  <rdf:RDF xmlns:dc="http://purl.org/dc/elements/1.1/" xmlns:cc="http://creativecommons.org/ns#" xmlns:rdf="http://www.w3.org/1999/02/22-rdf-syntax-ns#">
   <cc:Work>
    <dc:type rdf:resource="http://purl.org/dc/dcmitype/StillImage"/>
    <dc:date>2024-11-15T20:38:27.109309</dc:date>
    <dc:format>image/svg+xml</dc:format>
    <dc:creator>
     <cc:Agent>
      <dc:title>Matplotlib v3.9.1, https://matplotlib.org/</dc:title>
     </cc:Agent>
    </dc:creator>
   </cc:Work>
  </rdf:RDF>
 </metadata>
 <defs>
  <style type="text/css">*{stroke-linejoin: round; stroke-linecap: butt}</style>
 </defs>
 <g id="figure_1">
  <g id="patch_1">
   <path d="M 0 36 
L 180 36 
L 180 0 
L 0 0 
L 0 36 
z
" style="fill: none"/>
  </g>
  <g id="axes_1">
   <g id="patch_2">
    <path d="M 22.5 32.04 
L 162 32.04 
L 162 4.32 
L 22.5 4.32 
L 22.5 32.04 
z
" style="fill: none"/>
   </g>
   <g id="matplotlib.axis_1">
    <g id="xtick_1"/>
    <g id="xtick_2"/>
    <g id="xtick_3"/>
    <g id="xtick_4"/>
   </g>
   <g id="matplotlib.axis_2">
    <g id="ytick_1"/>
    <g id="ytick_2"/>
   </g>
   <g id="line2d_1">
    <path d="M 28.840909 28.510582 
L 29.545455 27.454672 
L 30.25 30.78 
L 30.954545 29.802889 
L 31.659091 30.449043 
L 33.068182 28.68394 
L 33.772727 27.470432 
L 35.181818 28.116585 
L 35.886364 28.211144 
L 36.590909 27.060675 
L 37.295455 28.274184 
L 38 26.6194 
L 38.704545 28.352983 
L 39.409091 27.549231 
L 40.113636 27.391632 
L 40.818182 25.957486 
L 41.522727 27.423152 
L 42.227273 25.910206 
L 42.931818 25.894447 
L 43.636364 25.56349 
L 44.340909 23.735347 
L 45.045455 21.166492 
L 45.75 25.689568 
L 46.454545 23.152233 
L 47.159091 24.680938 
L 47.863636 24.838537 
L 48.568182 23.40439 
L 49.272727 22.316961 
L 49.977273 22.915835 
L 50.681818 24.034784 
L 51.386364 24.680938 
L 52.090909 21.087692 
L 52.795455 20.740976 
L 53.5 22.994634 
L 54.204545 23.955985 
L 54.909091 23.231032 
L 55.613636 25.673809 
L 56.318182 25.201013 
L 57.022727 26.367242 
L 57.727273 22.064803 
L 58.431818 24.397261 
L 59.136364 26.099325 
L 59.840909 26.115084 
L 60.545455 24.743977 
L 61.25 25.453171 
L 61.954545 24.680938 
L 63.363636 20.142101 
L 64.068182 23.152233 
L 64.772727 23.278311 
L 65.477273 21.29257 
L 66.181818 22.127842 
L 66.886364 21.450169 
L 67.590909 17.431407 
L 69 19.495947 
L 69.704545 16.548856 
L 70.409091 16.343977 
L 71.113636 21.245291 
L 71.818182 19.968743 
L 72.522727 18.392758 
L 73.227273 17.967242 
L 73.931818 15.335347 
L 74.636364 15.335347 
L 76.045455 5.58 
L 76.75 7.392383 
L 77.454545 10.638912 
L 78.159091 11.85242 
L 78.863636 8.133096 
L 79.568182 12.183377 
L 80.272727 9.062927 
L 80.977273 10.78075 
L 81.681818 11.710582 
L 82.386364 12.404015 
L 83.090909 13.586004 
L 83.795455 13.99576 
L 84.5 13.255047 
L 85.909091 11.143227 
L 86.613636 6.163114 
L 87.318182 10.638912 
L 88.022727 12.262176 
L 88.727273 13.302326 
L 89.431818 12.151857 
L 90.840909 11.600263 
L 91.545455 7.786379 
L 92.25 10.055797 
L 92.954545 10.103077 
L 93.659091 11.363865 
L 94.363636 11.285066 
L 95.068182 13.94848 
L 95.772727 13.727842 
L 96.477273 14.909831 
L 97.181818 13.806642 
L 97.886364 11.032908 
L 98.590909 11.363865 
L 99.295455 12.120338 
L 100 11.663302 
L 100.704545 12.829531 
L 101.409091 14.815272 
L 102.113636 12.545854 
L 102.818182 12.89257 
L 104.227273 17.604765 
L 104.931818 16.265178 
L 106.340909 12.088818 
L 107.045455 12.088818 
L 107.75 10.134597 
L 108.454545 8.558612 
L 109.159091 9.630281 
L 109.863636 10.906829 
L 110.568182 13.554484 
L 111.272727 14.500075 
L 111.977273 12.041538 
L 112.681818 12.561614 
L 113.386364 13.838161 
L 114.090909 12.356735 
L 115.5 16.659174 
L 116.204545 15.902702 
L 116.909091 14.184878 
L 117.613636 16.07606 
L 118.318182 16.438537 
L 119.022727 13.333846 
L 119.727273 15.839662 
L 120.431818 17.11621 
L 121.136364 18.897073 
L 121.840909 16.596135 
L 122.545455 15.902702 
L 123.25 14.247917 
L 123.954545 14.610394 
L 124.659091 18.723715 
L 125.363636 17.841163 
L 126.068182 15.319587 
L 126.772727 17.589006 
L 127.477273 17.730844 
L 128.886364 15.130469 
L 129.590909 14.578874 
L 130.295455 18.1406 
L 131 16.737974 
L 131.704545 15.745103 
L 132.409091 17.935722 
L 133.113636 16.879812 
L 133.818182 17.021651 
L 134.522727 21.434409 
L 135.227273 21.276811 
L 135.931818 19.779625 
L 136.636364 19.937223 
L 137.340909 21.056173 
L 138.045455 18.046041 
L 138.75 22.537598 
L 139.454545 20.977373 
L 140.159091 17.604765 
L 140.863636 16.879812 
L 141.568182 19.984503 
L 142.272727 20.473058 
L 142.977273 22.458799 
L 143.681818 23.45167 
L 144.386364 21.087692 
L 145.090909 21.875685 
L 145.795455 21.812645 
L 146.5 25.610769 
L 147.204545 22.710957 
L 147.909091 22.537598 
L 148.613636 23.026154 
L 149.318182 19.101951 
L 150.022727 22.569118 
L 150.727273 22.521839 
L 151.431818 19.369869 
L 152.136364 24.129343 
L 152.840909 21.150732 
L 153.545455 23.514709 
L 154.25 23.43591 
L 154.954545 25.248293 
L 155.659091 22.710957 
L 155.659091 22.710957 
" clip-path="url(#pbad28d27cc)" style="fill: none; stroke: #e377c2; stroke-width: 2; stroke-linecap: square"/>
   </g>
   <g id="patch_3">
    <path d="M 22.5 32.04 
L 22.5 4.32 
" style="fill: none; stroke: #000000; stroke-width: 0.8; stroke-linejoin: miter; stroke-linecap: square"/>
   </g>
   <g id="patch_4">
    <path d="M 162 32.04 
L 162 4.32 
" style="fill: none; stroke: #000000; stroke-width: 0.8; stroke-linejoin: miter; stroke-linecap: square"/>
   </g>
   <g id="patch_5">
    <path d="M 22.5 32.04 
L 162 32.04 
" style="fill: none; stroke: #000000; stroke-width: 0.8; stroke-linejoin: miter; stroke-linecap: square"/>
   </g>
   <g id="patch_6">
    <path d="M 22.5 4.32 
L 162 4.32 
" style="fill: none; stroke: #000000; stroke-width: 0.8; stroke-linejoin: miter; stroke-linecap: square"/>
   </g>
  </g>
 </g>
 <defs>
  <clipPath id="pbad28d27cc">
   <rect x="22.5" y="4.32" width="139.5" height="27.72"/>
  </clipPath>
 </defs>
</svg>
