<?xml version="1.0" encoding="utf-8" standalone="no"?>
<!DOCTYPE svg PUBLIC "-//W3C//DTD SVG 1.1//EN"
  "http://www.w3.org/Graphics/SVG/1.1/DTD/svg11.dtd">
<svg xmlns:xlink="http://www.w3.org/1999/xlink" width="180pt" height="36pt" viewBox="0 0 180 36" xmlns="http://www.w3.org/2000/svg" version="1.1">
 <metadata>
  <rdf:RDF xmlns:dc="http://purl.org/dc/elements/1.1/" xmlns:cc="http://creativecommons.org/ns#" xmlns:rdf="http://www.w3.org/1999/02/22-rdf-syntax-ns#">
   <cc:Work>
    <dc:type rdf:resource="http://purl.org/dc/dcmitype/StillImage"/>
    <dc:date>2024-11-15T20:38:28.723664</dc:date>
    <dc:format>image/svg+xml</dc:format>
    <dc:creator>
     <cc:Agent>
      <dc:title>Matplotlib v3.9.1, https://matplotlib.org/</dc:title>
     </cc:Agent>
    </dc:creator>
   </cc:Work>
  </rdf:RDF>
 </metadata>
 <defs>
  <style type="text/css">*{stroke-linejoin: round; stroke-linecap: butt}</style>
 </defs>
 <g id="figure_1">
  <g id="patch_1">
   <path d="M 0 36 
L 180 36 
L 180 0 
L 0 0 
L 0 36 
z
" style="fill: none"/>
  </g>
  <g id="axes_1">
   <g id="patch_2">
    <path d="M 22.5 32.04 
L 162 32.04 
L 162 4.32 
L 22.5 4.32 
L 22.5 32.04 
z
" style="fill: none"/>
   </g>
   <g id="matplotlib.axis_1">
    <g id="xtick_1"/>
    <g id="xtick_2"/>
    <g id="xtick_3"/>
    <g id="xtick_4"/>
   </g>
   <g id="matplotlib.axis_2">
    <g id="ytick_1"/>
    <g id="ytick_2"/>
   </g>
   <g id="line2d_1">
    <path d="M 28.840909 19.831034 
L 29.545455 20.317655 
L 30.25 17.536966 
L 30.954545 21.395172 
L 31.659091 19.970069 
L 33.068182 24.801517 
L 33.772727 25.322897 
L 34.477273 21.916552 
L 35.181818 24.592966 
L 35.886364 25.600966 
L 36.590909 23.863034 
L 37.295455 26.782759 
L 38 26.887034 
L 38.704545 22.750759 
L 39.409091 25.044828 
L 40.113636 26.400414 
L 40.818182 27.234621 
L 41.522727 20.908552 
L 42.227273 25.844276 
L 42.931818 27.095586 
L 43.636364 23.932552 
L 44.340909 22.95931 
L 45.045455 25.948552 
L 45.75 23.341655 
L 46.454545 19.93531 
L 47.159091 19.692 
L 47.863636 18.996828 
L 48.568182 21.186621 
L 49.272727 20.560966 
L 49.977273 23.445931 
L 50.681818 23.445931 
L 51.386364 25.079586 
L 52.090909 19.796276 
L 52.795455 27.130345 
L 53.5 27.790759 
L 54.204545 22.194621 
L 54.909091 21.812276 
L 55.613636 21.082345 
L 56.318182 17.363172 
L 57.022727 14.373931 
L 57.727273 9.229655 
L 58.431818 19.309655 
L 59.136364 20.560966 
L 59.840909 20.178621 
L 60.545455 21.012828 
L 61.25 20.839034 
L 61.954545 24.314897 
L 62.659091 23.724 
L 63.363636 20.734759 
L 64.068182 20.630483 
L 64.772727 27.373655 
L 65.477273 25.044828 
L 66.181818 28.555448 
L 66.886364 29.146345 
L 67.590909 25.705241 
L 68.295455 25.531448 
L 69.704545 23.863034 
L 70.409091 27.165103 
L 71.113636 26.921793 
L 71.818182 25.566207 
L 72.522727 24.766759 
L 73.227273 26.087586 
L 73.931818 23.306897 
L 74.636364 21.047586 
L 75.340909 26.956552 
L 76.045455 26.435172 
L 76.75 23.619724 
L 77.454545 25.531448 
L 78.159091 24.836276 
L 78.863636 27.199862 
L 79.568182 27.060828 
L 80.272727 25.461931 
L 80.977273 25.670483 
L 81.681818 24.036828 
L 82.386364 21.95131 
L 83.090909 26.539448 
L 83.795455 24.071586 
L 84.5 16.285655 
L 85.204545 19.552966 
L 85.909091 14.234897 
L 86.613636 15.938069 
L 87.318182 15.208138 
L 88.022727 12.149379 
L 88.727273 13.226897 
L 89.431818 12.357931 
L 90.136364 17.536966 
L 91.545455 8.84731 
L 92.25 12.87931 
L 92.954545 9.542483 
L 93.659091 9.507724 
L 95.068182 14.512966 
L 95.772727 8.36069 
L 96.477273 10.550483 
L 97.181818 11.732276 
L 97.886364 5.58 
L 98.590909 14.964828 
L 99.295455 13.192138 
L 101.409091 22.507448 
L 102.113636 22.507448 
L 102.818182 20.560966 
L 103.522727 22.611724 
L 104.227273 27.026069 
L 104.931818 27.373655 
L 105.636364 25.809517 
L 106.340909 28.798759 
L 107.045455 28.485931 
L 107.75 28.798759 
L 108.454545 25.010069 
L 109.159091 28.694483 
L 109.863636 29.911034 
L 110.568182 30.78 
L 111.272727 21.742759 
L 111.977273 22.229379 
L 112.681818 21.46469 
L 113.386364 25.253379 
L 114.090909 27.929793 
L 114.795455 24.175862 
L 115.5 25.844276 
L 116.204545 25.670483 
L 116.909091 22.298897 
L 117.613636 24.48869 
L 118.318182 25.913793 
L 119.022727 20.074345 
L 119.727273 19.483448 
L 120.431818 19.066345 
L 121.136364 18.162621 
L 121.840909 20.630483 
L 122.545455 23.724 
L 123.25 21.082345 
L 123.954545 16.146621 
L 125.363636 14.269655 
L 126.068182 17.015586 
L 126.772727 12.775034 
L 127.477273 12.253655 
L 128.181818 11.558483 
L 128.886364 8.638759 
L 129.590909 16.320414 
L 130.295455 11.662759 
L 131 12.948828 
L 131.704545 19.865793 
L 132.409091 17.467448 
L 133.113636 20.873793 
L 133.818182 18.093103 
L 134.522727 20.769517 
L 135.227273 16.389931 
L 135.931818 19.44869 
L 136.636364 16.563724 
L 137.340909 22.681241 
L 138.045455 25.705241 
L 138.75 23.654483 
L 139.454545 23.828276 
L 140.159091 20.630483 
L 140.863636 21.534207 
L 141.568182 28.103586 
L 142.272727 27.269379 
L 142.977273 27.686483 
L 143.681818 26.887034 
L 144.386364 28.624966 
L 145.090909 29.493931 
L 145.795455 28.451172 
L 146.5 28.624966 
L 147.204545 30.223862 
L 147.909091 28.346897 
L 148.613636 28.173103 
L 149.318182 27.373655 
L 150.022727 23.689241 
L 150.727273 25.149103 
L 151.431818 20.804276 
L 152.136364 21.117103 
L 152.840909 25.635724 
L 153.545455 20.143862 
L 154.25 23.028828 
L 154.954545 17.710759 
L 155.659091 16.598483 
L 155.659091 16.598483 
" clip-path="url(#p1c35a19ada)" style="fill: none; stroke: #e377c2; stroke-width: 2; stroke-linecap: square"/>
   </g>
   <g id="patch_3">
    <path d="M 22.5 32.04 
L 22.5 4.32 
" style="fill: none; stroke: #000000; stroke-width: 0.8; stroke-linejoin: miter; stroke-linecap: square"/>
   </g>
   <g id="patch_4">
    <path d="M 162 32.04 
L 162 4.32 
" style="fill: none; stroke: #000000; stroke-width: 0.8; stroke-linejoin: miter; stroke-linecap: square"/>
   </g>
   <g id="patch_5">
    <path d="M 22.5 32.04 
L 162 32.04 
" style="fill: none; stroke: #000000; stroke-width: 0.8; stroke-linejoin: miter; stroke-linecap: square"/>
   </g>
   <g id="patch_6">
    <path d="M 22.5 4.32 
L 162 4.32 
" style="fill: none; stroke: #000000; stroke-width: 0.8; stroke-linejoin: miter; stroke-linecap: square"/>
   </g>
  </g>
 </g>
 <defs>
  <clipPath id="p1c35a19ada">
   <rect x="22.5" y="4.32" width="139.5" height="27.72"/>
  </clipPath>
 </defs>
</svg>
