<?xml version="1.0" encoding="utf-8" standalone="no"?>
<!DOCTYPE svg PUBLIC "-//W3C//DTD SVG 1.1//EN"
  "http://www.w3.org/Graphics/SVG/1.1/DTD/svg11.dtd">
<svg xmlns:xlink="http://www.w3.org/1999/xlink" width="180pt" height="36pt" viewBox="0 0 180 36" xmlns="http://www.w3.org/2000/svg" version="1.1">
 <metadata>
  <rdf:RDF xmlns:dc="http://purl.org/dc/elements/1.1/" xmlns:cc="http://creativecommons.org/ns#" xmlns:rdf="http://www.w3.org/1999/02/22-rdf-syntax-ns#">
   <cc:Work>
    <dc:type rdf:resource="http://purl.org/dc/dcmitype/StillImage"/>
    <dc:date>2024-11-15T20:38:27.622344</dc:date>
    <dc:format>image/svg+xml</dc:format>
    <dc:creator>
     <cc:Agent>
      <dc:title>Matplotlib v3.9.1, https://matplotlib.org/</dc:title>
     </cc:Agent>
    </dc:creator>
   </cc:Work>
  </rdf:RDF>
 </metadata>
 <defs>
  <style type="text/css">*{stroke-linejoin: round; stroke-linecap: butt}</style>
 </defs>
 <g id="figure_1">
  <g id="patch_1">
   <path d="M 0 36 
L 180 36 
L 180 0 
L 0 0 
L 0 36 
z
" style="fill: none"/>
  </g>
  <g id="axes_1">
   <g id="patch_2">
    <path d="M 22.5 32.04 
L 162 32.04 
L 162 4.32 
L 22.5 4.32 
L 22.5 32.04 
z
" style="fill: none"/>
   </g>
   <g id="matplotlib.axis_1">
    <g id="xtick_1"/>
    <g id="xtick_2"/>
    <g id="xtick_3"/>
    <g id="xtick_4"/>
   </g>
   <g id="matplotlib.axis_2">
    <g id="ytick_1"/>
    <g id="ytick_2"/>
   </g>
   <g id="line2d_1">
    <path d="M 28.840909 7.152994 
L 29.545455 6.093631 
L 30.25 9.239618 
L 30.954545 10.427389 
L 31.659091 10.170573 
L 33.068182 13.284459 
L 33.772727 13.509172 
L 34.477273 19.319618 
L 35.181818 16.783567 
L 35.886364 11.165732 
L 36.590909 11.133631 
L 37.295455 15.595796 
L 38 18.035541 
L 38.704545 9.592739 
L 39.409091 17.875032 
L 40.113636 9.881656 
L 40.818182 15.050064 
L 41.522727 15.017962 
L 42.227273 18.196051 
L 42.931818 16.558854 
L 43.636364 18.966497 
L 44.340909 21.855669 
L 45.045455 24.263312 
L 45.75 27.698217 
L 47.159091 21.630955 
L 47.863636 27.890828 
L 48.568182 23.589172 
L 49.272727 26.478344 
L 49.977273 22.401401 
L 50.681818 20.250573 
L 51.386364 22.786624 
L 52.090909 20.828408 
L 52.795455 23.011338 
L 53.5 22.786624 
L 54.909091 24.712739 
L 55.613636 23.685478 
L 56.318182 22.20879 
L 57.022727 25.451083 
L 57.727273 17.040382 
L 58.431818 16.623057 
L 59.136364 17.554013 
L 59.840909 18.228153 
L 60.545455 14.82535 
L 61.25 16.173631 
L 61.954545 18.581274 
L 62.659091 16.590955 
L 63.363636 16.526752 
L 64.068182 19.383822 
L 64.772727 20.571592 
L 65.477273 23.236051 
L 66.181818 18.388662 
L 66.886364 18.292357 
L 67.590909 22.016178 
L 68.295455 17.00828 
L 69 19.094904 
L 70.409091 15.210573 
L 71.113636 17.714522 
L 71.818182 19.287516 
L 73.227273 27.280892 
L 73.931818 29.078599 
L 74.636364 22.786624 
L 75.340909 21.502548 
L 76.045455 24.038599 
L 76.75 22.786624 
L 77.454545 23.974395 
L 78.159091 24.776943 
L 78.863636 20.057962 
L 79.568182 19.640637 
L 80.272727 23.589172 
L 80.977273 20.378981 
L 81.681818 22.72242 
L 82.386364 14.600637 
L 83.090909 15.371083 
L 83.795455 17.971338 
L 84.5 15.49949 
L 85.909091 14.375924 
L 86.613636 18.998599 
L 87.318182 14.953758 
L 88.022727 18.805987 
L 88.727273 12.160892 
L 89.431818 14.343822 
L 90.136364 15.306879 
L 90.840909 11.96828 
L 91.545455 12.899236 
L 92.25 14.729045 
L 92.954545 12.449809 
L 93.659091 14.857452 
L 94.363636 10.812611 
L 95.068182 14.696943 
L 95.772727 16.526752 
L 96.477273 16.398344 
L 97.181818 14.536433 
L 97.886364 13.252357 
L 98.590909 5.58 
L 99.295455 7.666624 
L 100 8.886497 
L 100.704545 14.889554 
L 101.409091 10.716306 
L 102.113636 16.911975 
L 102.818182 9.528535 
L 103.522727 16.173631 
L 104.227273 15.210573 
L 104.931818 17.040382 
L 105.636364 13.830191 
L 106.340909 16.976178 
L 107.045455 18.67758 
L 108.454545 12.353503 
L 109.159091 17.104586 
L 109.863636 17.265096 
L 110.568182 23.524968 
L 111.272727 18.163949 
L 111.977273 17.971338 
L 112.681818 19.736943 
L 113.386364 28.468662 
L 114.090909 23.492866 
L 114.795455 25.130064 
L 115.5 27.505605 
L 116.204545 28.436561 
L 116.909091 26.991975 
L 117.613636 26.895669 
L 118.318182 26.093121 
L 119.022727 24.23121 
L 119.727273 27.184586 
L 120.431818 27.955032 
L 121.136364 22.979236 
L 121.840909 25.57949 
L 122.545455 26.478344 
L 123.25 26.253631 
L 123.954545 24.873248 
L 124.659091 21.919873 
L 125.363636 25.996815 
L 126.068182 23.428662 
L 126.772727 25.772102 
L 127.477273 25.322675 
L 128.181818 24.23121 
L 128.886364 22.529809 
L 129.590909 24.616433 
L 130.295455 21.759363 
L 131 20.443185 
L 131.704545 19.512229 
L 132.409091 19.35172 
L 133.113636 15.788408 
L 133.818182 14.664841 
L 134.522727 18.452866 
L 135.227273 14.761146 
L 135.931818 20.764204 
L 136.636364 16.944076 
L 137.340909 23.460764 
L 138.75 19.672739 
L 139.454545 25.483185 
L 140.159091 19.480127 
L 140.863636 21.791465 
L 141.568182 27.345096 
L 142.272727 24.712739 
L 142.977273 24.23121 
L 143.681818 27.601911 
L 144.386364 25.932611 
L 145.090909 27.730318 
L 145.795455 27.024076 
L 146.5 26.606752 
L 147.204545 30.78 
L 147.909091 28.276051 
L 148.613636 28.725478 
L 150.022727 26.959873 
L 150.727273 25.611592 
L 152.136364 27.858726 
L 152.840909 26.510446 
L 153.545455 27.858726 
L 154.25 24.199108 
L 154.954545 21.309936 
L 155.659091 22.626115 
L 155.659091 22.626115 
" clip-path="url(#p95553873e2)" style="fill: none; stroke: #e377c2; stroke-width: 2; stroke-linecap: square"/>
   </g>
   <g id="patch_3">
    <path d="M 22.5 32.04 
L 22.5 4.32 
" style="fill: none; stroke: #000000; stroke-width: 0.8; stroke-linejoin: miter; stroke-linecap: square"/>
   </g>
   <g id="patch_4">
    <path d="M 162 32.04 
L 162 4.32 
" style="fill: none; stroke: #000000; stroke-width: 0.8; stroke-linejoin: miter; stroke-linecap: square"/>
   </g>
   <g id="patch_5">
    <path d="M 22.5 32.04 
L 162 32.04 
" style="fill: none; stroke: #000000; stroke-width: 0.8; stroke-linejoin: miter; stroke-linecap: square"/>
   </g>
   <g id="patch_6">
    <path d="M 22.5 4.32 
L 162 4.32 
" style="fill: none; stroke: #000000; stroke-width: 0.8; stroke-linejoin: miter; stroke-linecap: square"/>
   </g>
  </g>
 </g>
 <defs>
  <clipPath id="p95553873e2">
   <rect x="22.5" y="4.32" width="139.5" height="27.72"/>
  </clipPath>
 </defs>
</svg>
