<?xml version="1.0" encoding="utf-8" standalone="no"?>
<!DOCTYPE svg PUBLIC "-//W3C//DTD SVG 1.1//EN"
  "http://www.w3.org/Graphics/SVG/1.1/DTD/svg11.dtd">
<svg xmlns:xlink="http://www.w3.org/1999/xlink" width="180pt" height="36pt" viewBox="0 0 180 36" xmlns="http://www.w3.org/2000/svg" version="1.1">
 <metadata>
  <rdf:RDF xmlns:dc="http://purl.org/dc/elements/1.1/" xmlns:cc="http://creativecommons.org/ns#" xmlns:rdf="http://www.w3.org/1999/02/22-rdf-syntax-ns#">
   <cc:Work>
    <dc:type rdf:resource="http://purl.org/dc/dcmitype/StillImage"/>
    <dc:date>2024-11-15T20:38:28.321210</dc:date>
    <dc:format>image/svg+xml</dc:format>
    <dc:creator>
     <cc:Agent>
      <dc:title>Matplotlib v3.9.1, https://matplotlib.org/</dc:title>
     </cc:Agent>
    </dc:creator>
   </cc:Work>
  </rdf:RDF>
 </metadata>
 <defs>
  <style type="text/css">*{stroke-linejoin: round; stroke-linecap: butt}</style>
 </defs>
 <g id="figure_1">
  <g id="patch_1">
   <path d="M 0 36 
L 180 36 
L 180 0 
L 0 0 
L 0 36 
z
" style="fill: none"/>
  </g>
  <g id="axes_1">
   <g id="patch_2">
    <path d="M 22.5 32.04 
L 162 32.04 
L 162 4.32 
L 22.5 4.32 
L 22.5 32.04 
z
" style="fill: none"/>
   </g>
   <g id="matplotlib.axis_1">
    <g id="xtick_1"/>
    <g id="xtick_2"/>
    <g id="xtick_3"/>
    <g id="xtick_4"/>
   </g>
   <g id="matplotlib.axis_2">
    <g id="ytick_1"/>
    <g id="ytick_2"/>
   </g>
   <g id="line2d_1">
    <path d="M 28.840909 27.649246 
L 29.545455 19.950672 
L 30.25 21.079796 
L 30.954545 30.215438 
L 32.363636 30.78 
L 33.772727 22.722159 
L 34.477273 24.621141 
L 35.181818 18.975519 
L 35.886364 25.647617 
L 36.590909 18.770224 
L 37.295455 24.005255 
L 38 23.851283 
L 38.704545 25.031731 
L 39.409091 29.44558 
L 40.113636 21.336415 
L 40.818182 26.828065 
L 41.522727 27.341303 
L 42.227273 24.826436 
L 42.931818 20.515234 
L 43.636364 26.314827 
L 44.340909 28.675723 
L 45.045455 26.930713 
L 45.75 23.492016 
L 46.454545 27.957189 
L 47.159091 26.879389 
L 47.863636 26.828065 
L 48.568182 23.492016 
L 49.272727 24.621141 
L 49.977273 30.472057 
L 50.681818 26.674094 
L 51.386364 27.495275 
L 52.090909 29.137637 
L 52.795455 25.801589 
L 53.5 23.953931 
L 54.204545 21.387739 
L 54.909091 28.213809 
L 55.613636 19.334786 
L 56.318182 23.799959 
L 57.022727 26.109532 
L 57.727273 25.698941 
L 58.431818 22.722159 
L 59.136364 27.341303 
L 59.840909 19.848024 
L 60.545455 23.748635 
L 61.25 25.493646 
L 61.954545 24.569817 
L 62.659091 25.442322 
L 64.068182 20.566558 
L 64.772727 21.439063 
L 65.477273 17.127862 
L 66.181818 17.795071 
L 66.886364 20.515234 
L 67.590909 8.608106 
L 68.295455 16.563299 
L 69 18.462281 
L 69.704545 23.953931 
L 70.409091 11.379593 
L 71.113636 21.028473 
L 71.818182 19.796701 
L 72.522727 17.076538 
L 73.227273 21.593035 
L 73.931818 20.001996 
L 74.636364 16.768595 
L 75.340909 22.46554 
L 76.045455 22.619511 
L 76.75 24.980407 
L 77.454545 17.6411 
L 78.159091 21.952301 
L 78.863636 18.975519 
L 79.568182 16.768595 
L 80.272727 19.488758 
L 80.977273 23.697312 
L 81.681818 18.256986 
L 82.386364 21.849654 
L 83.090909 19.642729 
L 83.795455 21.028473 
L 84.5 22.003625 
L 85.204545 19.488758 
L 85.909091 19.745377 
L 86.613636 13.227251 
L 87.318182 15.434175 
L 88.022727 18.513605 
L 88.727273 17.846395 
L 89.431818 18.616253 
L 90.136364 23.132749 
L 91.545455 18.975519 
L 92.25 22.208921 
L 92.954545 17.589776 
L 93.659091 20.977149 
L 94.363636 15.331527 
L 95.068182 17.589776 
L 95.772727 5.887943 
L 97.181818 14.972261 
L 97.886364 10.199145 
L 98.590909 12.970631 
L 99.295455 15.126232 
L 100 13.124603 
L 100.704545 10.661059 
L 101.409091 5.58 
L 102.113636 13.073279 
L 103.522727 19.283462 
L 104.227273 12.457393 
L 104.931818 18.205662 
L 105.636364 18.975519 
L 106.340909 20.977149 
L 107.045455 21.079796 
L 107.75 20.309939 
L 108.454545 21.285092 
L 109.159091 25.031731 
L 109.863636 14.356375 
L 110.568182 19.334786 
L 111.272727 21.747006 
L 111.977273 15.742118 
L 112.681818 20.258615 
L 113.386364 19.283462 
L 114.090909 19.437434 
L 114.795455 18.154338 
L 115.5 21.849654 
L 116.204545 20.46391 
L 116.909091 20.361263 
L 117.613636 18.975519 
L 118.318182 18.256986 
L 119.022727 10.353116 
L 119.727273 17.795071 
L 120.431818 12.867984 
L 121.136364 19.796701 
L 121.840909 22.054949 
L 122.545455 17.692424 
L 123.25 10.507088 
L 123.954545 19.745377 
L 124.659091 19.488758 
L 125.363636 13.997108 
L 126.772727 20.617882 
L 127.477273 16.922566 
L 128.181818 18.924196 
L 128.886364 10.096497 
L 129.590909 19.950672 
L 130.295455 19.950672 
L 131 15.434175 
L 131.704545 15.074908 
L 132.409091 15.793442 
L 133.113636 10.815031 
L 133.818182 18.205662 
L 134.522727 15.280204 
L 135.227273 19.026843 
L 135.931818 21.336415 
L 136.636364 24.980407 
L 137.340909 18.821548 
L 138.045455 27.905866 
L 138.75 19.026843 
L 139.454545 17.743747 
L 140.159091 23.799959 
L 140.863636 18.462281 
L 141.568182 22.414216 
L 142.272727 16.97389 
L 142.977273 17.897719 
L 143.681818 20.05332 
L 144.386364 17.281833 
L 145.090909 16.717271 
L 145.795455 16.460652 
L 146.5 22.054949 
L 147.204545 22.619511 
L 147.909091 18.975519 
L 148.613636 18.872872 
L 149.318182 8.608106 
L 150.022727 13.997108 
L 150.727273 18.103014 
L 151.431818 20.771853 
L 152.136364 21.387739 
L 152.840909 13.89446 
L 153.545455 24.621141 
L 154.25 20.566558 
L 154.954545 21.13112 
L 155.659091 20.412587 
L 155.659091 20.412587 
" clip-path="url(#pa3b9e7440c)" style="fill: none; stroke: #e377c2; stroke-width: 2; stroke-linecap: square"/>
   </g>
   <g id="patch_3">
    <path d="M 22.5 32.04 
L 22.5 4.32 
" style="fill: none; stroke: #000000; stroke-width: 0.8; stroke-linejoin: miter; stroke-linecap: square"/>
   </g>
   <g id="patch_4">
    <path d="M 162 32.04 
L 162 4.32 
" style="fill: none; stroke: #000000; stroke-width: 0.8; stroke-linejoin: miter; stroke-linecap: square"/>
   </g>
   <g id="patch_5">
    <path d="M 22.5 32.04 
L 162 32.04 
" style="fill: none; stroke: #000000; stroke-width: 0.8; stroke-linejoin: miter; stroke-linecap: square"/>
   </g>
   <g id="patch_6">
    <path d="M 22.5 4.32 
L 162 4.32 
" style="fill: none; stroke: #000000; stroke-width: 0.8; stroke-linejoin: miter; stroke-linecap: square"/>
   </g>
  </g>
 </g>
 <defs>
  <clipPath id="pa3b9e7440c">
   <rect x="22.5" y="4.32" width="139.5" height="27.72"/>
  </clipPath>
 </defs>
</svg>
