<?xml version="1.0" encoding="utf-8" standalone="no"?>
<!DOCTYPE svg PUBLIC "-//W3C//DTD SVG 1.1//EN"
  "http://www.w3.org/Graphics/SVG/1.1/DTD/svg11.dtd">
<svg xmlns:xlink="http://www.w3.org/1999/xlink" width="180pt" height="36pt" viewBox="0 0 180 36" xmlns="http://www.w3.org/2000/svg" version="1.1">
 <metadata>
  <rdf:RDF xmlns:dc="http://purl.org/dc/elements/1.1/" xmlns:cc="http://creativecommons.org/ns#" xmlns:rdf="http://www.w3.org/1999/02/22-rdf-syntax-ns#">
   <cc:Work>
    <dc:type rdf:resource="http://purl.org/dc/dcmitype/StillImage"/>
    <dc:date>2024-11-15T20:38:26.869559</dc:date>
    <dc:format>image/svg+xml</dc:format>
    <dc:creator>
     <cc:Agent>
      <dc:title>Matplotlib v3.9.1, https://matplotlib.org/</dc:title>
     </cc:Agent>
    </dc:creator>
   </cc:Work>
  </rdf:RDF>
 </metadata>
 <defs>
  <style type="text/css">*{stroke-linejoin: round; stroke-linecap: butt}</style>
 </defs>
 <g id="figure_1">
  <g id="patch_1">
   <path d="M 0 36 
L 180 36 
L 180 0 
L 0 0 
L 0 36 
z
" style="fill: none"/>
  </g>
  <g id="axes_1">
   <g id="patch_2">
    <path d="M 22.5 32.04 
L 162 32.04 
L 162 4.32 
L 22.5 4.32 
L 22.5 32.04 
z
" style="fill: none"/>
   </g>
   <g id="matplotlib.axis_1">
    <g id="xtick_1"/>
    <g id="xtick_2"/>
    <g id="xtick_3"/>
    <g id="xtick_4"/>
   </g>
   <g id="matplotlib.axis_2">
    <g id="ytick_1"/>
    <g id="ytick_2"/>
   </g>
   <g id="line2d_1">
    <path d="M 28.840909 28.933641 
L 29.545455 26.796341 
L 30.25 26.874671 
L 30.954545 26.337549 
L 31.659091 25.945897 
L 32.363636 29.627425 
L 33.068182 26.326359 
L 33.772727 27.691545 
L 34.477273 28.474849 
L 35.181818 29.974316 
L 35.886364 30.433108 
L 36.590909 30.063837 
L 37.295455 29.951936 
L 38 28.441279 
L 38.704545 28.206288 
L 39.409091 21.413925 
L 40.113636 15.796519 
L 40.818182 11.622629 
L 41.522727 12.137371 
L 42.227273 15.393677 
L 42.931818 15.964369 
L 43.636364 16.758863 
L 44.340909 13.692789 
L 45.045455 13.703979 
L 45.75 9.563659 
L 47.159091 16.501492 
L 47.863636 14.733464 
L 48.568182 8.858686 
L 49.272727 11.745719 
L 49.977273 10.760995 
L 50.681818 18.18 
L 51.386364 13.222806 
L 52.090909 14.722274 
L 52.795455 23.920497 
L 53.5 19.478046 
L 54.204545 18.347851 
L 54.909091 19.276625 
L 55.613636 19.936838 
L 56.318182 21.537016 
L 57.022727 18.649982 
L 57.727273 16.937904 
L 58.431818 18.314281 
L 59.136364 16.400782 
L 59.840909 20.33968 
L 61.25 14.476092 
L 61.954545 14.509663 
L 62.659091 15.97556 
L 63.363636 12.103801 
L 64.068182 21.111794 
L 64.772727 16.266501 
L 65.477273 17.116945 
L 66.181818 10.951226 
L 66.886364 12.831155 
L 67.590909 11.309307 
L 68.295455 5.68071 
L 69 10.492433 
L 69.704545 13.099716 
L 70.409091 10.335773 
L 71.113636 11.93595 
L 72.522727 7.482309 
L 73.227273 9.76508 
L 73.931818 7.471119 
L 74.636364 7.77325 
L 75.340909 9.67556 
L 76.045455 6.575915 
L 76.75 8.981776 
L 77.454545 7.001137 
L 78.159091 9.418188 
L 78.863636 10.201492 
L 79.568182 5.58 
L 80.272727 9.272718 
L 80.977273 10.089591 
L 81.681818 12.864725 
L 82.386364 16.423162 
L 83.090909 12.103801 
L 83.795455 11.342877 
L 84.5 14.162771 
L 85.204545 12.685684 
L 85.909091 15.113925 
L 86.613636 12.517833 
L 87.318182 11.298117 
L 88.022727 15.460817 
L 88.727273 17.508597 
L 89.431818 15.98675 
L 90.136364 16.434352 
L 90.840909 14.0173 
L 92.25 13.379467 
L 92.954545 11.029556 
L 93.659091 14.207531 
L 94.363636 14.095631 
L 95.068182 21.738437 
L 95.772727 20.059929 
L 96.477273 20.093499 
L 97.181818 16.624583 
L 97.886364 20.026359 
L 99.295455 14.487282 
L 100 15.225826 
L 100.704545 16.389591 
L 101.409091 13.334707 
L 102.113636 13.815879 
L 102.818182 15.98675 
L 103.522727 11.712149 
L 104.227273 18.07929 
L 104.931818 18.20238 
L 105.636364 20.36206 
L 106.340909 16.747673 
L 107.045455 13.726359 
L 107.75 16.960284 
L 108.454545 14.03968 
L 109.159091 16.646963 
L 109.863636 17.665258 
L 110.568182 14.632753 
L 111.272727 14.811794 
L 111.977273 14.0173 
L 112.681818 10.313393 
L 113.386364 17.889059 
L 114.090909 13.737549 
L 114.795455 16.792433 
L 115.5 15.046785 
L 116.204545 11.96952 
L 116.909091 14.420142 
L 117.613636 15.830089 
L 118.318182 18.448561 
L 119.022727 13.648028 
L 119.727273 18.493321 
L 120.431818 15.259396 
L 121.136364 20.496341 
L 121.840909 18.649982 
L 122.545455 16.255311 
L 123.25 17.217655 
L 123.954545 19.735417 
L 124.659091 18.952114 
L 125.363636 13.379467 
L 126.772727 19.354956 
L 127.477273 18.493321 
L 128.181818 21.749627 
L 129.590909 18.873783 
L 130.295455 15.069165 
L 131 21.078224 
L 131.704545 20.406821 
L 132.409091 22.4546 
L 133.113636 26.51659 
L 133.818182 23.752647 
L 134.522727 24.815702 
L 135.227273 23.898117 
L 135.931818 25.173783 
L 136.636364 27.277513 
L 137.340909 26.818721 
L 138.045455 22.790302 
L 138.75 26.203268 
L 139.454545 26.091368 
L 140.863636 24.748561 
L 141.568182 20.955133 
L 142.272727 24.815702 
L 142.977273 19.567567 
L 144.386364 21.514636 
L 145.090909 19.757798 
L 145.795455 19.992789 
L 146.5 21.805577 
L 147.204545 20.25016 
L 147.909091 25.453535 
L 148.613636 22.3427 
L 149.318182 19.813748 
L 150.022727 21.783197 
L 150.727273 25.431155 
L 151.431818 27.960107 
L 152.136364 26.729201 
L 152.840909 28.70984 
L 153.545455 27.355844 
L 154.25 30.78 
L 155.659091 28.295808 
L 155.659091 28.295808 
" clip-path="url(#p5d970bd0c9)" style="fill: none; stroke: #e377c2; stroke-width: 2; stroke-linecap: square"/>
   </g>
   <g id="patch_3">
    <path d="M 22.5 32.04 
L 22.5 4.32 
" style="fill: none; stroke: #000000; stroke-width: 0.8; stroke-linejoin: miter; stroke-linecap: square"/>
   </g>
   <g id="patch_4">
    <path d="M 162 32.04 
L 162 4.32 
" style="fill: none; stroke: #000000; stroke-width: 0.8; stroke-linejoin: miter; stroke-linecap: square"/>
   </g>
   <g id="patch_5">
    <path d="M 22.5 32.04 
L 162 32.04 
" style="fill: none; stroke: #000000; stroke-width: 0.8; stroke-linejoin: miter; stroke-linecap: square"/>
   </g>
   <g id="patch_6">
    <path d="M 22.5 4.32 
L 162 4.32 
" style="fill: none; stroke: #000000; stroke-width: 0.8; stroke-linejoin: miter; stroke-linecap: square"/>
   </g>
  </g>
 </g>
 <defs>
  <clipPath id="p5d970bd0c9">
   <rect x="22.5" y="4.32" width="139.5" height="27.72"/>
  </clipPath>
 </defs>
</svg>
