<?xml version="1.0" encoding="utf-8" standalone="no"?>
<!DOCTYPE svg PUBLIC "-//W3C//DTD SVG 1.1//EN"
  "http://www.w3.org/Graphics/SVG/1.1/DTD/svg11.dtd">
<svg xmlns:xlink="http://www.w3.org/1999/xlink" width="180pt" height="36pt" viewBox="0 0 180 36" xmlns="http://www.w3.org/2000/svg" version="1.1">
 <metadata>
  <rdf:RDF xmlns:dc="http://purl.org/dc/elements/1.1/" xmlns:cc="http://creativecommons.org/ns#" xmlns:rdf="http://www.w3.org/1999/02/22-rdf-syntax-ns#">
   <cc:Work>
    <dc:type rdf:resource="http://purl.org/dc/dcmitype/StillImage"/>
    <dc:date>2024-11-15T20:38:26.754265</dc:date>
    <dc:format>image/svg+xml</dc:format>
    <dc:creator>
     <cc:Agent>
      <dc:title>Matplotlib v3.9.1, https://matplotlib.org/</dc:title>
     </cc:Agent>
    </dc:creator>
   </cc:Work>
  </rdf:RDF>
 </metadata>
 <defs>
  <style type="text/css">*{stroke-linejoin: round; stroke-linecap: butt}</style>
 </defs>
 <g id="figure_1">
  <g id="patch_1">
   <path d="M 0 36 
L 180 36 
L 180 0 
L 0 0 
L 0 36 
z
" style="fill: none"/>
  </g>
  <g id="axes_1">
   <g id="patch_2">
    <path d="M 22.5 32.04 
L 162 32.04 
L 162 4.32 
L 22.5 4.32 
L 22.5 32.04 
z
" style="fill: none"/>
   </g>
   <g id="matplotlib.axis_1">
    <g id="xtick_1"/>
    <g id="xtick_2"/>
    <g id="xtick_3"/>
    <g id="xtick_4"/>
   </g>
   <g id="matplotlib.axis_2">
    <g id="ytick_1"/>
    <g id="ytick_2"/>
   </g>
   <g id="line2d_1">
    <path d="M 28.840909 27.18 
L 29.545455 26.475652 
L 30.25 27.466957 
L 30.954545 26.736522 
L 31.659091 30.78 
L 32.363636 28.745217 
L 33.068182 28.875652 
L 33.772727 28.275652 
L 34.477273 29.449565 
L 35.181818 29.266957 
L 35.886364 27.127826 
L 36.590909 26.397391 
L 37.295455 24.101739 
L 38 25.171304 
L 38.704545 27.049565 
L 39.409091 23.893043 
L 40.113636 25.745217 
L 40.818182 19.458261 
L 41.522727 16.536522 
L 42.227273 19.666957 
L 42.931818 21.101739 
L 43.636364 23.214783 
L 44.340909 26.449565 
L 45.045455 26.945217 
L 45.75 25.953913 
L 47.159091 20.162609 
L 47.863636 22.666957 
L 48.568182 18.336522 
L 49.272727 16.093043 
L 49.977273 18.493043 
L 50.681818 18.832174 
L 51.386364 13.484348 
L 52.090909 16.145217 
L 52.795455 20.449565 
L 53.5 14.866957 
L 54.204545 16.823478 
L 54.909091 16.014783 
L 55.613636 18.701739 
L 56.318182 18.075652 
L 57.022727 16.510435 
L 57.727273 17.162609 
L 58.431818 20.762609 
L 59.136364 18.414783 
L 59.840909 8.606087 
L 60.545455 9.832174 
L 61.25 5.58 
L 61.954545 12.023478 
L 62.659091 14.658261 
L 63.363636 11.788696 
L 64.068182 7.275652 
L 64.772727 12.388696 
L 65.477273 8.814783 
L 66.181818 9.44087 
L 66.886364 8.293043 
L 67.590909 11.162609 
L 68.295455 7.04087 
L 69 7.823478 
L 69.704545 12.127826 
L 70.409091 11.214783 
L 71.113636 9.832174 
L 71.818182 11.997391 
L 73.227273 18.18 
L 73.931818 16.614783 
L 74.636364 20.736522 
L 75.340909 20.162609 
L 76.045455 21.936522 
L 76.75 22.066957 
L 77.454545 22.614783 
L 78.159091 25.275652 
L 78.863636 21.075652 
L 79.568182 22.510435 
L 80.977273 18.153913 
L 81.681818 24.101739 
L 82.386364 19.327826 
L 83.090909 21.284348 
L 83.795455 17.345217 
L 85.204545 23.058261 
L 85.909091 22.693043 
L 86.613636 19.953913 
L 87.318182 16.745217 
L 88.022727 17.449565 
L 88.727273 17.84087 
L 89.431818 18.545217 
L 90.136364 20.345217 
L 91.545455 16.301739 
L 92.25 13.797391 
L 92.954545 18.414783 
L 93.659091 19.11913 
L 94.363636 15.545217 
L 95.068182 18.153913 
L 95.772727 21.806087 
L 96.477273 21.78 
L 97.181818 16.171304 
L 97.886364 14.866957 
L 98.590909 21.962609 
L 99.295455 14.58 
L 100 20.397391 
L 100.704545 21.258261 
L 101.409091 22.666957 
L 102.113636 22.197391 
L 102.818182 20.214783 
L 103.522727 20.423478 
L 104.227273 20.188696 
L 104.931818 21.988696 
L 105.636364 19.849565 
L 106.340909 21.884348 
L 107.045455 18.910435 
L 107.75 23.293043 
L 108.454545 22.588696 
L 109.159091 22.327826 
L 109.863636 21.336522 
L 110.568182 19.353913 
L 111.272727 16.64087 
L 111.977273 18.675652 
L 112.681818 24.753913 
L 113.386364 26.945217 
L 114.090909 25.093043 
L 114.795455 23.814783 
L 115.5 23.31913 
L 116.204545 22.458261 
L 116.909091 24.884348 
L 117.613636 24.232174 
L 118.318182 24.936522 
L 119.022727 23.788696 
L 119.727273 24.832174 
L 120.431818 24.127826 
L 121.136364 20.162609 
L 121.840909 23.945217 
L 122.545455 24.258261 
L 123.25 24.258261 
L 123.954545 23.136522 
L 124.659091 24.310435 
L 125.363636 22.510435 
L 126.068182 25.823478 
L 126.772727 21.493043 
L 127.477273 23.945217 
L 128.181818 22.666957 
L 128.886364 26.893043 
L 129.590909 24.597391 
L 130.295455 20.971304 
L 131 23.788696 
L 131.704545 24.44087 
L 132.409091 23.997391 
L 133.113636 26.606087 
L 133.818182 22.849565 
L 134.522727 21.075652 
L 135.227273 21.727826 
L 135.931818 22.875652 
L 136.636364 22.458261 
L 137.340909 19.71913 
L 138.045455 20.084348 
L 138.75 20.632174 
L 140.159091 17.214783 
L 140.863636 21.571304 
L 141.568182 17.449565 
L 142.272727 20.814783 
L 142.977273 20.31913 
L 143.681818 21.127826 
L 144.386364 21.049565 
L 145.090909 20.423478 
L 145.795455 20.945217 
L 146.5 18.623478 
L 147.204545 24.310435 
L 147.909091 19.745217 
L 148.613636 22.406087 
L 149.318182 23.866957 
L 150.022727 23.814783 
L 150.727273 21.701739 
L 151.431818 21.910435 
L 152.136364 20.501739 
L 152.840909 23.866957 
L 153.545455 24.153913 
L 154.25 25.301739 
L 154.954545 25.693043 
L 155.659091 23.423478 
L 155.659091 23.423478 
" clip-path="url(#p8a8cb26a15)" style="fill: none; stroke: #e377c2; stroke-width: 2; stroke-linecap: square"/>
   </g>
   <g id="patch_3">
    <path d="M 22.5 32.04 
L 22.5 4.32 
" style="fill: none; stroke: #000000; stroke-width: 0.8; stroke-linejoin: miter; stroke-linecap: square"/>
   </g>
   <g id="patch_4">
    <path d="M 162 32.04 
L 162 4.32 
" style="fill: none; stroke: #000000; stroke-width: 0.8; stroke-linejoin: miter; stroke-linecap: square"/>
   </g>
   <g id="patch_5">
    <path d="M 22.5 32.04 
L 162 32.04 
" style="fill: none; stroke: #000000; stroke-width: 0.8; stroke-linejoin: miter; stroke-linecap: square"/>
   </g>
   <g id="patch_6">
    <path d="M 22.5 4.32 
L 162 4.32 
" style="fill: none; stroke: #000000; stroke-width: 0.8; stroke-linejoin: miter; stroke-linecap: square"/>
   </g>
  </g>
 </g>
 <defs>
  <clipPath id="p8a8cb26a15">
   <rect x="22.5" y="4.32" width="139.5" height="27.72"/>
  </clipPath>
 </defs>
</svg>
