<?xml version="1.0" encoding="utf-8" standalone="no"?>
<!DOCTYPE svg PUBLIC "-//W3C//DTD SVG 1.1//EN"
  "http://www.w3.org/Graphics/SVG/1.1/DTD/svg11.dtd">
<svg xmlns:xlink="http://www.w3.org/1999/xlink" width="180pt" height="36pt" viewBox="0 0 180 36" xmlns="http://www.w3.org/2000/svg" version="1.1">
 <metadata>
  <rdf:RDF xmlns:dc="http://purl.org/dc/elements/1.1/" xmlns:cc="http://creativecommons.org/ns#" xmlns:rdf="http://www.w3.org/1999/02/22-rdf-syntax-ns#">
   <cc:Work>
    <dc:type rdf:resource="http://purl.org/dc/dcmitype/StillImage"/>
    <dc:date>2024-11-15T20:38:28.621484</dc:date>
    <dc:format>image/svg+xml</dc:format>
    <dc:creator>
     <cc:Agent>
      <dc:title>Matplotlib v3.9.1, https://matplotlib.org/</dc:title>
     </cc:Agent>
    </dc:creator>
   </cc:Work>
  </rdf:RDF>
 </metadata>
 <defs>
  <style type="text/css">*{stroke-linejoin: round; stroke-linecap: butt}</style>
 </defs>
 <g id="figure_1">
  <g id="patch_1">
   <path d="M 0 36 
L 180 36 
L 180 0 
L 0 0 
L 0 36 
z
" style="fill: none"/>
  </g>
  <g id="axes_1">
   <g id="patch_2">
    <path d="M 22.5 32.04 
L 162 32.04 
L 162 4.32 
L 22.5 4.32 
L 22.5 32.04 
z
" style="fill: none"/>
   </g>
   <g id="matplotlib.axis_1">
    <g id="xtick_1"/>
    <g id="xtick_2"/>
    <g id="xtick_3"/>
    <g id="xtick_4"/>
   </g>
   <g id="matplotlib.axis_2">
    <g id="ytick_1"/>
    <g id="ytick_2"/>
    <g id="ytick_3"/>
   </g>
   <g id="line2d_1">
    <path d="M 28.840909 29.550732 
L 29.545455 30.418451 
L 30.25 29.623042 
L 30.954545 28.104534 
L 31.659091 27.815294 
L 32.363636 30.78 
L 33.068182 26.369096 
L 33.772727 23.33208 
L 34.477273 17.908838 
L 35.181818 18.631937 
L 35.886364 25.862927 
L 36.590909 21.922037 
L 37.295455 23.042841 
L 38 22.536671 
L 38.704545 20.656614 
L 39.409091 21.705108 
L 40.113636 26.260631 
L 40.818182 26.658336 
L 42.227273 20.801234 
L 42.931818 26.224476 
L 43.636364 27.923759 
L 44.340909 28.176844 
L 45.045455 25.139828 
L 46.454545 22.825911 
L 47.159091 25.899082 
L 47.863636 22.464362 
L 48.568182 21.632798 
L 49.272727 19.463501 
L 49.977273 23.25977 
L 50.681818 18.740402 
L 51.386364 21.596643 
L 52.090909 22.392052 
L 52.795455 26.224476 
L 53.5 26.296786 
L 54.204545 28.104534 
L 54.909091 23.006686 
L 55.613636 27.05604 
L 57.022727 24.525194 
L 57.727273 23.440545 
L 58.431818 27.309125 
L 59.136364 27.309125 
L 59.840909 26.224476 
L 60.545455 24.886743 
L 61.25 26.405251 
L 61.954545 30.671535 
L 62.659091 28.249154 
L 63.363636 22.572826 
L 64.068182 26.98373 
L 64.772727 27.706829 
L 65.477273 27.164505 
L 66.181818 23.729785 
L 67.590909 27.851449 
L 68.295455 25.935237 
L 69 27.887604 
L 70.409091 23.729785 
L 71.113636 22.283587 
L 71.818182 25.935237 
L 72.522727 20.982009 
L 73.227273 20.367374 
L 73.931818 18.595782 
L 74.636364 22.211277 
L 75.340909 18.234232 
L 76.045455 21.560488 
L 76.75 18.089613 
L 77.454545 16.860344 
L 78.159091 16.1734 
L 78.863636 16.498795 
L 79.568182 18.776557 
L 80.272727 13.895638 
L 81.681818 18.848867 
L 82.386364 16.932654 
L 83.090909 5.58 
L 83.795455 6.194634 
L 84.5 11.003242 
L 85.204545 18.053458 
L 85.909091 18.704247 
L 86.613636 15.377991 
L 87.318182 21.054319 
L 88.022727 18.451162 
L 88.727273 19.029641 
L 89.431818 14.546428 
L 90.136364 21.885882 
L 90.840909 17.872683 
L 91.545455 20.403529 
L 92.25 18.451162 
L 92.954545 23.151306 
L 93.659091 21.958192 
L 94.363636 20.11429 
L 95.068182 17.511133 
L 95.772727 21.379713 
L 96.477273 23.585165 
L 97.181818 19.318881 
L 98.590909 24.525194 
L 99.295455 25.356758 
L 100 25.899082 
L 100.704545 25.935237 
L 101.409091 28.719168 
L 102.818182 26.079857 
L 103.522727 23.62132 
L 104.227273 24.380574 
L 104.931818 21.958192 
L 105.636364 26.116011 
L 106.340909 25.429067 
L 107.045455 25.573687 
L 107.75 27.164505 
L 108.454545 23.91056 
L 109.159091 27.4899 
L 109.863636 27.996069 
L 110.568182 24.778278 
L 111.272727 25.609842 
L 111.977273 22.862066 
L 112.681818 20.728924 
L 113.386364 21.885882 
L 114.090909 21.958192 
L 114.795455 18.812712 
L 115.5 18.704247 
L 116.204545 20.25891 
L 116.909091 19.210416 
L 117.613636 15.558766 
L 118.318182 12.557905 
L 119.022727 18.595782 
L 119.727273 17.438824 
L 120.431818 15.667231 
L 121.136364 23.115151 
L 121.840909 21.090473 
L 122.545455 21.415868 
L 123.25 22.319742 
L 123.954545 18.053458 
L 124.659091 15.233372 
L 126.068182 23.33208 
L 126.772727 22.283587 
L 127.477273 17.691908 
L 128.181818 15.920316 
L 128.886364 16.137245 
L 129.590909 21.488178 
L 130.295455 19.391191 
L 131 19.138106 
L 131.704545 20.765079 
L 132.409091 21.343558 
L 133.113636 20.04198 
L 133.818182 15.016442 
L 134.522727 16.896499 
L 135.227273 19.499656 
L 135.931818 17.041119 
L 136.636364 23.042841 
L 137.340909 18.342697 
L 138.045455 21.415868 
L 138.75 22.717446 
L 139.454545 20.005825 
L 140.159091 22.211277 
L 140.863636 22.753601 
L 141.568182 19.029641 
L 142.977273 25.862927 
L 143.681818 24.995208 
L 144.386364 23.368235 
L 145.090909 22.789756 
L 145.795455 21.415868 
L 146.5 21.994347 
L 147.204545 23.151306 
L 147.909091 25.862927 
L 149.318182 22.753601 
L 150.022727 23.295925 
L 150.727273 23.4767 
L 151.431818 23.91056 
L 152.136364 28.429928 
L 152.840909 24.235954 
L 153.545455 21.271248 
L 154.25 25.573687 
L 154.954545 22.789756 
L 155.659091 21.379713 
L 155.659091 21.379713 
" clip-path="url(#pa3fbed8632)" style="fill: none; stroke: #e377c2; stroke-width: 2; stroke-linecap: square"/>
   </g>
   <g id="patch_3">
    <path d="M 22.5 32.04 
L 22.5 4.32 
" style="fill: none; stroke: #000000; stroke-width: 0.8; stroke-linejoin: miter; stroke-linecap: square"/>
   </g>
   <g id="patch_4">
    <path d="M 162 32.04 
L 162 4.32 
" style="fill: none; stroke: #000000; stroke-width: 0.8; stroke-linejoin: miter; stroke-linecap: square"/>
   </g>
   <g id="patch_5">
    <path d="M 22.5 32.04 
L 162 32.04 
" style="fill: none; stroke: #000000; stroke-width: 0.8; stroke-linejoin: miter; stroke-linecap: square"/>
   </g>
   <g id="patch_6">
    <path d="M 22.5 4.32 
L 162 4.32 
" style="fill: none; stroke: #000000; stroke-width: 0.8; stroke-linejoin: miter; stroke-linecap: square"/>
   </g>
  </g>
 </g>
 <defs>
  <clipPath id="pa3fbed8632">
   <rect x="22.5" y="4.32" width="139.5" height="27.72"/>
  </clipPath>
 </defs>
</svg>
