<?xml version="1.0" encoding="utf-8" standalone="no"?>
<!DOCTYPE svg PUBLIC "-//W3C//DTD SVG 1.1//EN"
  "http://www.w3.org/Graphics/SVG/1.1/DTD/svg11.dtd">
<svg xmlns:xlink="http://www.w3.org/1999/xlink" width="180pt" height="36pt" viewBox="0 0 180 36" xmlns="http://www.w3.org/2000/svg" version="1.1">
 <metadata>
  <rdf:RDF xmlns:dc="http://purl.org/dc/elements/1.1/" xmlns:cc="http://creativecommons.org/ns#" xmlns:rdf="http://www.w3.org/1999/02/22-rdf-syntax-ns#">
   <cc:Work>
    <dc:type rdf:resource="http://purl.org/dc/dcmitype/StillImage"/>
    <dc:date>2024-11-15T20:38:27.824198</dc:date>
    <dc:format>image/svg+xml</dc:format>
    <dc:creator>
     <cc:Agent>
      <dc:title>Matplotlib v3.9.1, https://matplotlib.org/</dc:title>
     </cc:Agent>
    </dc:creator>
   </cc:Work>
  </rdf:RDF>
 </metadata>
 <defs>
  <style type="text/css">*{stroke-linejoin: round; stroke-linecap: butt}</style>
 </defs>
 <g id="figure_1">
  <g id="patch_1">
   <path d="M 0 36 
L 180 36 
L 180 0 
L 0 0 
L 0 36 
z
" style="fill: none"/>
  </g>
  <g id="axes_1">
   <g id="patch_2">
    <path d="M 22.5 32.04 
L 162 32.04 
L 162 4.32 
L 22.5 4.32 
L 22.5 32.04 
z
" style="fill: none"/>
   </g>
   <g id="matplotlib.axis_1">
    <g id="xtick_1"/>
    <g id="xtick_2"/>
    <g id="xtick_3"/>
    <g id="xtick_4"/>
   </g>
   <g id="matplotlib.axis_2">
    <g id="ytick_1"/>
    <g id="ytick_2"/>
    <g id="ytick_3"/>
   </g>
   <g id="line2d_1">
    <path d="M 28.840909 26.954648 
L 29.545455 24.785634 
L 30.25 22.064507 
L 30.954545 25.377183 
L 31.659091 30.78 
L 33.068182 19.777183 
L 33.772727 19.146197 
L 34.477273 22.340563 
L 35.181818 24.312394 
L 35.886364 24.667324 
L 36.590909 21.551831 
L 37.295455 22.49831 
L 38 17.01662 
L 38.704545 26.284225 
L 39.409091 26.875775 
L 40.113636 25.219437 
L 40.818182 20.289859 
L 41.522727 24.509577 
L 42.227273 15.518028 
L 42.931818 17.963099 
L 43.636364 23.326479 
L 44.340909 15.399718 
L 45.045455 17.292676 
L 45.75 5.777183 
L 46.454545 6.565915 
L 47.159091 5.58 
L 47.863636 12.047606 
L 48.568182 17.095493 
L 49.272727 17.805352 
L 49.977273 12.954648 
L 50.681818 11.968732 
L 51.386364 9.878592 
L 52.090909 12.087042 
L 52.795455 6.171549 
L 53.5 8.656056 
L 54.204545 11.574366 
L 54.909091 10.233521 
L 56.318182 15.675775 
L 57.022727 18.633521 
L 57.727273 18.949014 
L 58.431818 13.309577 
L 59.136364 10.351831 
L 59.840909 13.506761 
L 60.545455 6.881408 
L 61.25 11.377183 
L 61.954545 11.377183 
L 62.659091 20.960282 
L 63.363636 21.630704 
L 64.068182 22.61662 
L 64.772727 22.537746 
L 66.181818 19.027887 
L 66.886364 16.149014 
L 67.590909 8.38 
L 68.295455 10.312394 
L 69 12.836338 
L 69.704545 13.62507 
L 70.409091 14.965915 
L 71.818182 15.241972 
L 72.522727 14.532113 
L 73.227273 11.219437 
L 73.931818 18.318028 
L 74.636364 14.019437 
L 75.340909 15.044789 
L 76.045455 18.318028 
L 76.75 7.157465 
L 77.454545 11.968732 
L 78.159091 11.889859 
L 78.863636 15.715211 
L 79.568182 21.512394 
L 80.272727 17.056056 
L 80.977273 19.067324 
L 81.681818 19.22507 
L 82.386364 21.512394 
L 83.090909 17.884225 
L 83.795455 22.182817 
L 84.5 18.396901 
L 85.204545 8.853239 
L 85.909091 14.965915 
L 86.613636 15.675775 
L 87.318182 10.903944 
L 88.022727 18.791268 
L 88.727273 15.202535 
L 89.431818 20.447606 
L 90.136364 14.768732 
L 90.840909 20.644789 
L 91.545455 19.146197 
L 92.25 21.118028 
L 92.954545 25.18 
L 93.659091 25.140563 
L 94.363636 25.574366 
L 95.068182 24.115211 
L 95.772727 25.29831 
L 96.477273 24.430704 
L 97.181818 23.287042 
L 97.886364 22.577183 
L 98.590909 19.69831 
L 99.295455 19.382817 
L 100 22.301127 
L 100.704545 20.802535 
L 101.409091 20.329296 
L 102.113636 25.41662 
L 102.818182 12.757465 
L 103.522727 24.82507 
L 104.227273 24.982817 
L 104.931818 21.630704 
L 105.636364 15.636338 
L 106.340909 18.949014 
L 107.045455 17.963099 
L 107.75 25.653239 
L 108.454545 19.146197 
L 109.159091 22.14338 
L 110.568182 17.13493 
L 111.272727 8.340563 
L 111.977273 16.42507 
L 112.681818 9.089859 
L 113.386364 7.354648 
L 114.090909 11.101127 
L 114.795455 12.836338 
L 115.5 14.177183 
L 116.204545 17.332113 
L 116.909091 11.29831 
L 117.613636 17.923662 
L 118.318182 13.151831 
L 119.022727 16.701127 
L 119.727273 18.120845 
L 120.431818 17.765915 
L 121.136364 23.878592 
L 121.840909 23.799718 
L 122.545455 21.512394 
L 123.25 18.633521 
L 123.954545 27.388451 
L 124.659091 22.932113 
L 125.363636 23.760282 
L 126.068182 28.374366 
L 126.772727 27.467324 
L 127.477273 25.613803 
L 128.181818 27.74338 
L 128.886364 26.165915 
L 129.590909 23.089859 
L 130.295455 22.853239 
L 131 16.740563 
L 131.704545 22.971549 
L 132.409091 22.813803 
L 133.113636 22.182817 
L 133.818182 18.791268 
L 134.522727 24.233521 
L 135.227273 23.444789 
L 135.931818 18.357465 
L 136.636364 12.205352 
L 137.340909 13.112394 
L 138.045455 14.926479 
L 138.75 8.695493 
L 139.454545 18.672958 
L 140.159091 12.126479 
L 140.863636 11.968732 
L 141.568182 16.070141 
L 142.272727 14.058873 
L 142.977273 13.664507 
L 143.681818 11.968732 
L 144.386364 14.571549 
L 145.090909 15.794085 
L 145.795455 19.34338 
L 146.5 21.078592 
L 147.204545 22.064507 
L 147.909091 25.929296 
L 148.613636 21.906761 
L 149.318182 23.365915 
L 150.022727 17.489859 
L 150.727273 22.61662 
L 151.431818 22.656056 
L 152.136364 11.929296 
L 152.840909 16.66169 
L 153.545455 18.712394 
L 154.25 12.008169 
L 154.954545 10.470141 
L 155.659091 13.230704 
L 155.659091 13.230704 
" clip-path="url(#p186341f3d7)" style="fill: none; stroke: #e377c2; stroke-width: 2; stroke-linecap: square"/>
   </g>
   <g id="patch_3">
    <path d="M 22.5 32.04 
L 22.5 4.32 
" style="fill: none; stroke: #000000; stroke-width: 0.8; stroke-linejoin: miter; stroke-linecap: square"/>
   </g>
   <g id="patch_4">
    <path d="M 162 32.04 
L 162 4.32 
" style="fill: none; stroke: #000000; stroke-width: 0.8; stroke-linejoin: miter; stroke-linecap: square"/>
   </g>
   <g id="patch_5">
    <path d="M 22.5 32.04 
L 162 32.04 
" style="fill: none; stroke: #000000; stroke-width: 0.8; stroke-linejoin: miter; stroke-linecap: square"/>
   </g>
   <g id="patch_6">
    <path d="M 22.5 4.32 
L 162 4.32 
" style="fill: none; stroke: #000000; stroke-width: 0.8; stroke-linejoin: miter; stroke-linecap: square"/>
   </g>
  </g>
 </g>
 <defs>
  <clipPath id="p186341f3d7">
   <rect x="22.5" y="4.32" width="139.5" height="27.72"/>
  </clipPath>
 </defs>
</svg>
