<?xml version="1.0" encoding="utf-8" standalone="no"?>
<!DOCTYPE svg PUBLIC "-//W3C//DTD SVG 1.1//EN"
  "http://www.w3.org/Graphics/SVG/1.1/DTD/svg11.dtd">
<svg xmlns:xlink="http://www.w3.org/1999/xlink" width="180pt" height="36pt" viewBox="0 0 180 36" xmlns="http://www.w3.org/2000/svg" version="1.1">
 <metadata>
  <rdf:RDF xmlns:dc="http://purl.org/dc/elements/1.1/" xmlns:cc="http://creativecommons.org/ns#" xmlns:rdf="http://www.w3.org/1999/02/22-rdf-syntax-ns#">
   <cc:Work>
    <dc:type rdf:resource="http://purl.org/dc/dcmitype/StillImage"/>
    <dc:date>2024-11-15T20:38:28.419344</dc:date>
    <dc:format>image/svg+xml</dc:format>
    <dc:creator>
     <cc:Agent>
      <dc:title>Matplotlib v3.9.1, https://matplotlib.org/</dc:title>
     </cc:Agent>
    </dc:creator>
   </cc:Work>
  </rdf:RDF>
 </metadata>
 <defs>
  <style type="text/css">*{stroke-linejoin: round; stroke-linecap: butt}</style>
 </defs>
 <g id="figure_1">
  <g id="patch_1">
   <path d="M 0 36 
L 180 36 
L 180 0 
L 0 0 
L 0 36 
z
" style="fill: none"/>
  </g>
  <g id="axes_1">
   <g id="patch_2">
    <path d="M 22.5 32.04 
L 162 32.04 
L 162 4.32 
L 22.5 4.32 
L 22.5 32.04 
z
" style="fill: none"/>
   </g>
   <g id="matplotlib.axis_1">
    <g id="xtick_1"/>
    <g id="xtick_2"/>
    <g id="xtick_3"/>
    <g id="xtick_4"/>
   </g>
   <g id="matplotlib.axis_2">
    <g id="ytick_1"/>
    <g id="ytick_2"/>
    <g id="ytick_3"/>
   </g>
   <g id="line2d_1">
    <path d="M 28.840909 16.850352 
L 29.545455 10.983015 
L 30.25 18.243317 
L 30.954545 11.616181 
L 31.659091 18.876482 
L 32.363636 10.223216 
L 33.068182 9.801106 
L 33.772727 17.019196 
L 34.477273 10.223216 
L 35.181818 14.275477 
L 35.886364 11.447337 
L 36.590909 7.817186 
L 37.295455 12.164925 
L 38 9.125729 
L 38.704545 8.112663 
L 39.409091 13.515678 
L 40.113636 11.067437 
L 40.818182 14.359899 
L 41.522727 18.243317 
L 42.227273 17.145829 
L 42.931818 9.252362 
L 43.636364 12.924724 
L 44.340909 7.057387 
L 45.75 15.626231 
L 46.454545 13.811156 
L 47.159091 12.333769 
L 47.863636 7.901608 
L 48.568182 9.801106 
L 49.272727 10.77196 
L 49.977273 6.466432 
L 50.681818 5.706633 
L 51.386364 10.645327 
L 52.090909 12.291558 
L 52.795455 11.911658 
L 53.5 5.58 
L 54.909091 13.557889 
L 55.613636 17.399095 
L 56.318182 17.778995 
L 57.022727 14.444322 
L 57.727273 20.185025 
L 58.431818 17.863417 
L 59.136364 15.96392 
L 59.840909 14.402111 
L 60.545455 17.019196 
L 61.25 16.597085 
L 61.954545 16.512663 
L 62.659091 14.528744 
L 63.363636 7.901608 
L 64.068182 17.905628 
L 64.772727 20.691558 
L 65.477273 18.581005 
L 66.181818 14.950854 
L 66.886364 13.557889 
L 67.590909 14.402111 
L 68.295455 19.847337 
L 69 17.103618 
L 69.704545 22.717688 
L 70.409091 18.412161 
L 71.113636 17.905628 
L 71.818182 19.636281 
L 72.522727 11.025226 
L 73.227273 24.279497 
L 73.931818 17.483518 
L 74.636364 23.604121 
L 75.340909 14.655377 
L 76.045455 17.356884 
L 76.75 17.230251 
L 77.454545 18.412161 
L 78.159091 11.320704 
L 78.863636 12.080503 
L 79.568182 15.752864 
L 80.272727 14.908643 
L 80.977273 13.811156 
L 81.681818 11.531759 
L 82.386364 13.98 
L 83.090909 18.201106 
L 83.795455 12.37598 
L 84.5 8.070452 
L 85.204545 8.576985 
L 85.909091 11.447337 
L 86.613636 15.668442 
L 87.318182 20.649347 
L 88.022727 16.723719 
L 88.727273 15.204121 
L 89.431818 18.243317 
L 90.136364 16.006131 
L 90.840909 18.918693 
L 91.545455 14.697588 
L 92.25 13.557889 
L 92.954545 13.17799 
L 93.659091 20.480503 
L 94.363636 17.694573 
L 95.068182 19.17196 
L 95.772727 10.940804 
L 96.477273 10.39206 
L 97.181818 11.785025 
L 97.886364 16.808141 
L 98.590909 11.025226 
L 99.295455 15.752864 
L 100 14.486533 
L 100.704545 17.99005 
L 101.409091 13.431256 
L 102.113636 19.256382 
L 103.522727 9.421206 
L 104.227273 7.099598 
L 104.931818 16.38603 
L 105.636364 20.227236 
L 106.340909 15.541809 
L 107.045455 17.441307 
L 107.75 22.168945 
L 108.454545 17.694573 
L 109.159091 22.970955 
L 109.863636 20.944824 
L 110.568182 24.659397 
L 111.272727 27.19206 
L 111.977273 25.925729 
L 112.681818 26.685528 
L 113.386364 23.519698 
L 114.090909 26.76995 
L 114.795455 28.79608 
L 115.5 25.799095 
L 116.204545 28.458392 
L 116.909091 25.96794 
L 117.613636 22.337789 
L 118.318182 22.759899 
L 119.022727 20.522714 
L 119.727273 24.78603 
L 120.431818 26.938794 
L 121.136364 23.18201 
L 121.840909 20.987035 
L 122.545455 24.237286 
L 123.25 24.068442 
L 123.954545 27.318693 
L 124.659091 23.857387 
L 125.363636 24.743819 
L 126.068182 27.234271 
L 126.772727 24.532764 
L 127.477273 24.743819 
L 128.181818 28.711658 
L 128.886364 27.614171 
L 129.590909 24.026231 
L 130.295455 22.211156 
L 131 26.136784 
L 132.409091 24.659397 
L 133.113636 23.646332 
L 133.818182 24.659397 
L 134.522727 24.448342 
L 135.931818 16.217186 
L 136.636364 22.970955 
L 137.340909 19.805126 
L 138.045455 24.321709 
L 138.75 22.211156 
L 139.454545 25.672462 
L 140.159091 19.720704 
L 140.863636 24.406131 
L 141.568182 27.740804 
L 142.272727 24.068442 
L 142.977273 28.964925 
L 143.681818 30.78 
L 144.386364 23.772965 
L 145.090909 23.013166 
L 145.795455 28.078492 
L 146.5 23.350854 
L 147.204545 28.711658 
L 147.909091 26.474472 
L 148.613636 27.698593 
L 149.318182 26.305628 
L 150.022727 27.57196 
L 150.727273 26.263417 
L 151.431818 28.669447 
L 152.136364 24.152864 
L 152.840909 26.305628 
L 154.25 21.957889 
L 154.954545 24.490553 
L 155.659091 28.922714 
L 155.659091 28.922714 
" clip-path="url(#p14c5b63d29)" style="fill: none; stroke: #e377c2; stroke-width: 2; stroke-linecap: square"/>
   </g>
   <g id="patch_3">
    <path d="M 22.5 32.04 
L 22.5 4.32 
" style="fill: none; stroke: #000000; stroke-width: 0.8; stroke-linejoin: miter; stroke-linecap: square"/>
   </g>
   <g id="patch_4">
    <path d="M 162 32.04 
L 162 4.32 
" style="fill: none; stroke: #000000; stroke-width: 0.8; stroke-linejoin: miter; stroke-linecap: square"/>
   </g>
   <g id="patch_5">
    <path d="M 22.5 32.04 
L 162 32.04 
" style="fill: none; stroke: #000000; stroke-width: 0.8; stroke-linejoin: miter; stroke-linecap: square"/>
   </g>
   <g id="patch_6">
    <path d="M 22.5 4.32 
L 162 4.32 
" style="fill: none; stroke: #000000; stroke-width: 0.8; stroke-linejoin: miter; stroke-linecap: square"/>
   </g>
  </g>
 </g>
 <defs>
  <clipPath id="p14c5b63d29">
   <rect x="22.5" y="4.32" width="139.5" height="27.72"/>
  </clipPath>
 </defs>
</svg>
