<?xml version="1.0" encoding="utf-8" standalone="no"?>
<!DOCTYPE svg PUBLIC "-//W3C//DTD SVG 1.1//EN"
  "http://www.w3.org/Graphics/SVG/1.1/DTD/svg11.dtd">
<svg xmlns:xlink="http://www.w3.org/1999/xlink" width="180pt" height="36pt" viewBox="0 0 180 36" xmlns="http://www.w3.org/2000/svg" version="1.1">
 <metadata>
  <rdf:RDF xmlns:dc="http://purl.org/dc/elements/1.1/" xmlns:cc="http://creativecommons.org/ns#" xmlns:rdf="http://www.w3.org/1999/02/22-rdf-syntax-ns#">
   <cc:Work>
    <dc:type rdf:resource="http://purl.org/dc/dcmitype/StillImage"/>
    <dc:date>2024-11-15T20:38:28.220924</dc:date>
    <dc:format>image/svg+xml</dc:format>
    <dc:creator>
     <cc:Agent>
      <dc:title>Matplotlib v3.9.1, https://matplotlib.org/</dc:title>
     </cc:Agent>
    </dc:creator>
   </cc:Work>
  </rdf:RDF>
 </metadata>
 <defs>
  <style type="text/css">*{stroke-linejoin: round; stroke-linecap: butt}</style>
 </defs>
 <g id="figure_1">
  <g id="patch_1">
   <path d="M 0 36 
L 180 36 
L 180 0 
L 0 0 
L 0 36 
z
" style="fill: none"/>
  </g>
  <g id="axes_1">
   <g id="patch_2">
    <path d="M 22.5 32.04 
L 162 32.04 
L 162 4.32 
L 22.5 4.32 
L 22.5 32.04 
z
" style="fill: none"/>
   </g>
   <g id="matplotlib.axis_1">
    <g id="xtick_1"/>
    <g id="xtick_2"/>
    <g id="xtick_3"/>
    <g id="xtick_4"/>
   </g>
   <g id="matplotlib.axis_2">
    <g id="ytick_1"/>
    <g id="ytick_2"/>
   </g>
   <g id="line2d_1">
    <path d="M 28.840909 21.868973 
L 29.545455 21.916882 
L 30.25 12.814221 
L 30.954545 18.850722 
L 31.659091 23.593688 
L 32.363636 20.47962 
L 33.068182 24.312319 
L 33.772727 24.503954 
L 34.477273 26.324487 
L 35.181818 22.443878 
L 35.886364 17.461369 
L 36.590909 19.32981 
L 37.295455 22.39597 
L 38 20.192167 
L 38.704545 21.150342 
L 39.409091 13.437034 
L 40.113636 23.833232 
L 40.818182 19.425627 
L 41.522727 22.875057 
L 42.227273 24.216502 
L 42.931818 22.491787 
L 43.636364 22.443878 
L 44.340909 22.060608 
L 45.045455 17.844639 
L 45.75 23.354144 
L 46.454545 20.958707 
L 47.159091 14.922205 
L 47.863636 15.11384 
L 48.568182 20.47962 
L 49.272727 20.623346 
L 49.977273 15.545019 
L 52.090909 18.754905 
L 52.795455 10.610418 
L 53.5 7.640076 
L 54.204545 13.772395 
L 54.909091 8.119163 
L 55.613636 7.160989 
L 56.318182 12.622586 
L 57.022727 9.268973 
L 57.727273 9.221065 
L 58.431818 16.64692 
L 59.136364 17.173916 
L 59.840909 6.681901 
L 60.545455 14.491027 
L 61.25 16.26365 
L 61.954545 14.73057 
L 62.659091 15.832471 
L 63.363636 19.521445 
L 64.068182 18.515361 
L 64.772727 21.62943 
L 65.477273 19.425627 
L 66.886364 19.521445 
L 67.590909 22.875057 
L 68.295455 23.593688 
L 69 22.252243 
L 69.704545 28.48038 
L 70.409091 28.049202 
L 71.113636 20.192167 
L 71.818182 30.78 
L 72.522727 21.437795 
L 73.227273 22.731331 
L 74.636364 19.32981 
L 75.340909 17.509278 
L 76.045455 12.670494 
L 76.75 20.431711 
L 77.454545 22.875057 
L 78.159091 26.420304 
L 79.568182 19.617262 
L 80.272727 18.227909 
L 80.977273 22.587605 
L 81.681818 26.228669 
L 82.386364 24.408137 
L 83.090909 28.528289 
L 83.795455 20.383802 
L 84.5 22.060608 
L 85.204545 24.024867 
L 85.909091 19.760989 
L 86.613636 21.62943 
L 87.318182 18.371635 
L 88.022727 19.904715 
L 88.727273 24.408137 
L 89.431818 24.503954 
L 90.840909 23.066692 
L 91.545455 20.048441 
L 92.25 18.754905 
L 92.954545 23.641597 
L 93.659091 20.671255 
L 94.363636 24.312319 
L 95.772727 16.215741 
L 96.477273 6.777719 
L 97.181818 19.138175 
L 97.886364 20.431711 
L 98.590909 20.86289 
L 99.295455 23.114601 
L 100 24.647681 
L 100.704545 20.000532 
L 101.409091 23.976958 
L 102.113636 23.449962 
L 102.818182 25.126768 
L 103.522727 24.983042 
L 104.227273 22.491787 
L 104.931818 22.443878 
L 105.636364 18.94654 
L 106.340909 24.935133 
L 107.045455 23.593688 
L 107.75 20.335894 
L 108.454545 19.617262 
L 109.159091 19.281901 
L 109.863636 17.844639 
L 110.568182 20.910798 
L 111.272727 21.62943 
L 111.977273 18.56327 
L 112.681818 20.575437 
L 113.386364 14.203574 
L 114.090909 20.144259 
L 114.795455 20.671255 
L 115.5 22.108517 
L 116.204545 21.533612 
L 116.909091 20.144259 
L 117.613636 24.408137 
L 118.318182 23.881141 
L 119.022727 24.503954 
L 119.727273 25.893308 
L 120.431818 23.641597 
L 121.136364 22.060608 
L 121.840909 26.372395 
L 122.545455 22.300152 
L 123.25 27.138935 
L 123.954545 24.647681 
L 124.659091 29.390646 
L 125.363636 30.205095 
L 126.068182 24.743498 
L 126.772727 25.174677 
L 127.477273 23.593688 
L 128.181818 28.624106 
L 128.886364 27.234753 
L 129.590909 24.887224 
L 130.295455 30.348821 
L 131 23.641597 
L 131.704545 25.414221 
L 132.409091 19.425627 
L 133.113636 18.94654 
L 133.818182 20.47962 
L 134.522727 21.725247 
L 135.227273 17.317643 
L 135.931818 23.114601 
L 136.636364 21.437795 
L 137.340909 18.754905 
L 138.045455 27.138935 
L 138.75 24.743498 
L 139.454545 19.569354 
L 140.159091 15.305475 
L 140.863636 28.528289 
L 141.568182 23.976958 
L 142.272727 23.737414 
L 142.977273 26.18076 
L 143.681818 19.473536 
L 144.386364 18.18 
L 145.090909 13.389125 
L 145.795455 16.119924 
L 146.5 20.527529 
L 147.204545 5.58 
L 147.909091 15.209658 
L 148.613636 13.341217 
L 149.318182 12.335133 
L 150.022727 18.132091 
L 150.727273 19.32981 
L 151.431818 22.635513 
L 152.136364 21.868973 
L 152.840909 16.838555 
L 153.545455 18.994449 
L 154.25 14.826388 
L 154.954545 24.503954 
L 155.659091 16.551103 
L 155.659091 16.551103 
" clip-path="url(#p3f0af2479b)" style="fill: none; stroke: #e377c2; stroke-width: 2; stroke-linecap: square"/>
   </g>
   <g id="patch_3">
    <path d="M 22.5 32.04 
L 22.5 4.32 
" style="fill: none; stroke: #000000; stroke-width: 0.8; stroke-linejoin: miter; stroke-linecap: square"/>
   </g>
   <g id="patch_4">
    <path d="M 162 32.04 
L 162 4.32 
" style="fill: none; stroke: #000000; stroke-width: 0.8; stroke-linejoin: miter; stroke-linecap: square"/>
   </g>
   <g id="patch_5">
    <path d="M 22.5 32.04 
L 162 32.04 
" style="fill: none; stroke: #000000; stroke-width: 0.8; stroke-linejoin: miter; stroke-linecap: square"/>
   </g>
   <g id="patch_6">
    <path d="M 22.5 4.32 
L 162 4.32 
" style="fill: none; stroke: #000000; stroke-width: 0.8; stroke-linejoin: miter; stroke-linecap: square"/>
   </g>
  </g>
 </g>
 <defs>
  <clipPath id="p3f0af2479b">
   <rect x="22.5" y="4.32" width="139.5" height="27.72"/>
  </clipPath>
 </defs>
</svg>
