<?xml version="1.0" encoding="utf-8" standalone="no"?>
<!DOCTYPE svg PUBLIC "-//W3C//DTD SVG 1.1//EN"
  "http://www.w3.org/Graphics/SVG/1.1/DTD/svg11.dtd">
<svg xmlns:xlink="http://www.w3.org/1999/xlink" width="180pt" height="36pt" viewBox="0 0 180 36" xmlns="http://www.w3.org/2000/svg" version="1.1">
 <metadata>
  <rdf:RDF xmlns:dc="http://purl.org/dc/elements/1.1/" xmlns:cc="http://creativecommons.org/ns#" xmlns:rdf="http://www.w3.org/1999/02/22-rdf-syntax-ns#">
   <cc:Work>
    <dc:type rdf:resource="http://purl.org/dc/dcmitype/StillImage"/>
    <dc:date>2024-11-15T20:38:28.916715</dc:date>
    <dc:format>image/svg+xml</dc:format>
    <dc:creator>
     <cc:Agent>
      <dc:title>Matplotlib v3.9.1, https://matplotlib.org/</dc:title>
     </cc:Agent>
    </dc:creator>
   </cc:Work>
  </rdf:RDF>
 </metadata>
 <defs>
  <style type="text/css">*{stroke-linejoin: round; stroke-linecap: butt}</style>
 </defs>
 <g id="figure_1">
  <g id="patch_1">
   <path d="M 0 36 
L 180 36 
L 180 0 
L 0 0 
L 0 36 
z
" style="fill: none"/>
  </g>
  <g id="axes_1">
   <g id="patch_2">
    <path d="M 22.5 32.04 
L 162 32.04 
L 162 4.32 
L 22.5 4.32 
L 22.5 32.04 
z
" style="fill: none"/>
   </g>
   <g id="matplotlib.axis_1">
    <g id="xtick_1"/>
    <g id="xtick_2"/>
    <g id="xtick_3"/>
    <g id="xtick_4"/>
   </g>
   <g id="matplotlib.axis_2">
    <g id="ytick_1"/>
    <g id="ytick_2"/>
   </g>
   <g id="line2d_1">
    <path d="M 28.840909 11.263301 
L 29.545455 10.102457 
L 30.25 11.214933 
L 30.954545 12.762726 
L 31.659091 11.31167 
L 32.363636 14.963493 
L 33.068182 15.132783 
L 33.772727 11.722802 
L 34.477273 15.592284 
L 35.181818 13.633359 
L 35.886364 13.512438 
L 36.590909 15.5681 
L 37.295455 11.239117 
L 38 8.506296 
L 38.704545 9.32856 
L 39.409091 10.465221 
L 40.113636 6.523186 
L 40.818182 13.826833 
L 41.522727 16.317812 
L 42.227273 16.608023 
L 42.931818 16.656392 
L 43.636364 15.930864 
L 44.340909 20.816084 
L 45.75 18.083263 
L 46.454545 17.430288 
L 47.159091 17.357735 
L 47.863636 13.875202 
L 48.568182 16.656392 
L 49.272727 16.608023 
L 49.977273 16.100154 
L 50.681818 16.53547 
L 51.386364 11.505144 
L 52.090909 11.190749 
L 52.795455 11.843724 
L 53.5 16.317812 
L 54.204545 13.270595 
L 54.909091 12.520883 
L 55.613636 13.609175 
L 56.318182 13.052937 
L 57.022727 5.58 
L 57.727273 10.561958 
L 58.431818 11.964645 
L 59.136364 11.214933 
L 59.840909 11.14238 
L 60.545455 12.133935 
L 61.25 12.665988 
L 61.954545 13.778464 
L 62.659091 14.237965 
L 63.363636 10.465221 
L 64.068182 14.26215 
L 64.772727 12.037198 
L 65.477273 13.899386 
L 66.181818 13.851017 
L 66.886364 11.021459 
L 67.590909 13.899386 
L 68.295455 14.600729 
L 69 16.87405 
L 69.704545 15.882495 
L 70.409091 16.124338 
L 71.113636 15.543916 
L 71.818182 19.751977 
L 72.522727 17.309367 
L 73.227273 16.946603 
L 73.931818 18.808791 
L 74.636364 17.164261 
L 75.340909 17.381919 
L 76.045455 18.832975 
L 76.75 17.551209 
L 77.454545 22.968484 
L 78.159091 21.057927 
L 78.863636 20.090557 
L 79.568182 18.857159 
L 80.272727 18.857159 
L 80.977273 16.196891 
L 81.681818 16.269443 
L 82.386364 10.465221 
L 83.090909 15.011862 
L 83.795455 14.068676 
L 84.5 10.900537 
L 85.204545 11.771171 
L 86.613636 14.600729 
L 87.318182 11.674434 
L 88.022727 9.739693 
L 88.727273 9.49785 
L 89.431818 11.553512 
L 90.136364 12.593436 
L 90.840909 12.085566 
L 91.545455 10.561958 
L 92.25 16.003417 
L 92.954545 11.118196 
L 93.659091 12.182303 
L 94.363636 14.189597 
L 95.772727 15.858311 
L 96.477273 12.424146 
L 97.181818 16.341996 
L 97.886364 9.594587 
L 98.590909 7.321267 
L 99.295455 11.214933 
L 100.704545 13.851017 
L 101.409091 9.715509 
L 102.113636 10.852169 
L 102.818182 12.496699 
L 103.522727 19.921267 
L 104.227273 12.133935 
L 104.931818 11.795355 
L 105.636364 14.455624 
L 106.340909 12.158119 
L 107.75 17.672131 
L 108.454545 16.970787 
L 109.159091 19.002265 
L 109.863636 22.799194 
L 110.568182 22.678273 
L 111.272727 22.799194 
L 111.977273 21.493244 
L 112.681818 22.339693 
L 113.386364 22.363877 
L 114.090909 23.113589 
L 114.795455 24.443724 
L 115.5 23.065221 
L 116.909091 21.082111 
L 117.613636 19.389213 
L 118.318182 18.591132 
L 119.022727 17.454472 
L 119.727273 17.236814 
L 120.431818 19.123186 
L 121.136364 21.46906 
L 121.840909 21.275585 
L 122.545455 20.477505 
L 123.25 16.487102 
L 123.954545 16.390365 
L 124.659091 15.374626 
L 125.363636 18.059079 
L 126.068182 17.986526 
L 126.772727 17.720499 
L 127.477273 16.632207 
L 128.181818 17.164261 
L 128.886364 17.067524 
L 129.590909 19.703608 
L 130.295455 18.18 
L 131 15.543916 
L 131.704545 20.018004 
L 132.409091 19.389213 
L 133.113636 17.333551 
L 133.818182 23.645643 
L 134.522727 19.123186 
L 135.227273 19.510134 
L 135.931818 19.389213 
L 136.636364 22.218772 
L 137.340909 23.137774 
L 138.045455 19.800345 
L 138.75 20.888637 
L 139.454545 20.308215 
L 140.159091 25.507831 
L 140.863636 26.52357 
L 141.568182 23.089405 
L 142.272727 24.830672 
L 142.977273 23.935854 
L 143.681818 23.645643 
L 144.386364 22.968484 
L 145.090909 25.894779 
L 145.795455 23.282879 
L 146.5 26.402649 
L 147.204545 26.741228 
L 147.909091 26.837965 
L 148.613636 27.684415 
L 149.318182 28.1681 
L 150.022727 26.765413 
L 150.727273 29.788445 
L 151.431818 30.320499 
L 152.136364 27.321651 
L 152.840909 30.78 
L 154.25 26.886334 
L 154.954545 28.33739 
L 155.659091 28.192284 
L 155.659091 28.192284 
" clip-path="url(#pf8ea8509e3)" style="fill: none; stroke: #e377c2; stroke-width: 2; stroke-linecap: square"/>
   </g>
   <g id="patch_3">
    <path d="M 22.5 32.04 
L 22.5 4.32 
" style="fill: none; stroke: #000000; stroke-width: 0.8; stroke-linejoin: miter; stroke-linecap: square"/>
   </g>
   <g id="patch_4">
    <path d="M 162 32.04 
L 162 4.32 
" style="fill: none; stroke: #000000; stroke-width: 0.8; stroke-linejoin: miter; stroke-linecap: square"/>
   </g>
   <g id="patch_5">
    <path d="M 22.5 32.04 
L 162 32.04 
" style="fill: none; stroke: #000000; stroke-width: 0.8; stroke-linejoin: miter; stroke-linecap: square"/>
   </g>
   <g id="patch_6">
    <path d="M 22.5 4.32 
L 162 4.32 
" style="fill: none; stroke: #000000; stroke-width: 0.8; stroke-linejoin: miter; stroke-linecap: square"/>
   </g>
  </g>
 </g>
 <defs>
  <clipPath id="pf8ea8509e3">
   <rect x="22.5" y="4.32" width="139.5" height="27.72"/>
  </clipPath>
 </defs>
</svg>
