<?xml version="1.0" encoding="utf-8" standalone="no"?>
<!DOCTYPE svg PUBLIC "-//W3C//DTD SVG 1.1//EN"
  "http://www.w3.org/Graphics/SVG/1.1/DTD/svg11.dtd">
<svg xmlns:xlink="http://www.w3.org/1999/xlink" width="180pt" height="36pt" viewBox="0 0 180 36" xmlns="http://www.w3.org/2000/svg" version="1.1">
 <metadata>
  <rdf:RDF xmlns:dc="http://purl.org/dc/elements/1.1/" xmlns:cc="http://creativecommons.org/ns#" xmlns:rdf="http://www.w3.org/1999/02/22-rdf-syntax-ns#">
   <cc:Work>
    <dc:type rdf:resource="http://purl.org/dc/dcmitype/StillImage"/>
    <dc:date>2024-11-15T20:38:28.023736</dc:date>
    <dc:format>image/svg+xml</dc:format>
    <dc:creator>
     <cc:Agent>
      <dc:title>Matplotlib v3.9.1, https://matplotlib.org/</dc:title>
     </cc:Agent>
    </dc:creator>
   </cc:Work>
  </rdf:RDF>
 </metadata>
 <defs>
  <style type="text/css">*{stroke-linejoin: round; stroke-linecap: butt}</style>
 </defs>
 <g id="figure_1">
  <g id="patch_1">
   <path d="M 0 36 
L 180 36 
L 180 0 
L 0 0 
L 0 36 
z
" style="fill: none"/>
  </g>
  <g id="axes_1">
   <g id="patch_2">
    <path d="M 22.5 32.04 
L 162 32.04 
L 162 4.32 
L 22.5 4.32 
L 22.5 32.04 
z
" style="fill: none"/>
   </g>
   <g id="matplotlib.axis_1">
    <g id="xtick_1"/>
    <g id="xtick_2"/>
    <g id="xtick_3"/>
    <g id="xtick_4"/>
   </g>
   <g id="matplotlib.axis_2">
    <g id="ytick_1"/>
    <g id="ytick_2"/>
   </g>
   <g id="line2d_1">
    <path d="M 28.840909 8.519093 
L 29.545455 16.873737 
L 30.25 19.45905 
L 30.954545 20.139395 
L 31.659091 22.670281 
L 32.363636 24.548035 
L 33.068182 16.247819 
L 33.772727 18.261641 
L 34.477273 20.928596 
L 35.181818 16.411102 
L 35.886364 17.744579 
L 36.590909 20.983024 
L 37.295455 18.071145 
L 38 13.472009 
L 38.704545 17.445227 
L 39.409091 12.900518 
L 40.113636 16.764881 
L 40.818182 16.519957 
L 41.522727 13.499222 
L 42.227273 15.866825 
L 42.931818 13.390367 
L 43.636364 22.044363 
L 44.340909 14.614989 
L 45.045455 20.901382 
L 45.75 20.493175 
L 46.454545 20.574816 
L 47.159091 20.112181 
L 47.863636 10.832268 
L 48.568182 13.091015 
L 49.272727 13.526436 
L 49.977273 13.608078 
L 50.681818 5.58 
L 52.090909 14.342851 
L 52.795455 17.145875 
L 53.5 19.431836 
L 54.204545 16.030108 
L 54.909091 18.098359 
L 55.613636 15.240907 
L 56.318182 15.159266 
L 57.022727 19.350194 
L 57.727273 16.90095 
L 58.431818 15.839611 
L 59.136364 16.792095 
L 59.840909 12.247387 
L 60.545455 18.860346 
L 61.25 21.010238 
L 61.954545 17.907862 
L 62.659091 21.037451 
L 63.363636 19.186911 
L 64.068182 16.111749 
L 64.772727 16.601598 
L 65.477273 21.445659 
L 66.181818 24.711317 
L 66.886364 19.867257 
L 67.590909 20.547603 
L 68.295455 20.874168 
L 69 22.779136 
L 69.704545 17.145875 
L 70.409091 23.132916 
L 71.113636 24.030972 
L 71.818182 23.568337 
L 72.522727 22.506998 
L 73.227273 24.167041 
L 73.931818 23.73162 
L 74.636364 21.5273 
L 75.340909 22.670281 
L 76.045455 17.82622 
L 76.75 21.282376 
L 77.454545 21.554514 
L 78.159091 22.479784 
L 78.863636 19.404622 
L 79.568182 21.119093 
L 80.272727 23.622765 
L 80.977273 19.159698 
L 81.681818 20.874168 
L 82.386364 18.479352 
L 83.090909 18.805918 
L 83.795455 21.88108 
L 84.5 19.241339 
L 85.204545 20.221037 
L 85.909091 19.159698 
L 86.613636 18.642635 
L 87.318182 22.044363 
L 88.022727 20.465961 
L 88.727273 18.234428 
L 89.431818 19.567905 
L 90.136364 16.383888 
L 90.840909 15.349762 
L 91.545455 20.248251 
L 92.25 21.30959 
L 92.954545 17.690151 
L 93.659091 19.377408 
L 94.363636 19.295767 
L 95.068182 20.275464 
L 95.772727 20.357106 
L 96.477273 24.466393 
L 97.181818 24.520821 
L 97.886364 22.969633 
L 98.590909 23.323413 
L 99.295455 20.057754 
L 100 21.091879 
L 100.704545 22.860778 
L 101.409091 13.90743 
L 102.113636 22.126004 
L 102.818182 15.649114 
L 103.522727 15.621901 
L 104.227273 21.037451 
L 104.931818 18.370497 
L 105.636364 17.418013 
L 106.340909 18.833132 
L 107.045455 18.833132 
L 107.75 19.703974 
L 108.454545 19.948898 
L 109.863636 28.085832 
L 111.272727 23.214557 
L 111.977273 27.623197 
L 112.681818 22.779136 
L 113.386364 24.738531 
L 114.090909 23.976544 
L 114.795455 24.194255 
L 115.5 22.697495 
L 116.204545 23.73162 
L 116.909091 23.268985 
L 117.613636 20.629244 
L 118.318182 19.921685 
L 119.022727 19.921685 
L 119.727273 20.819741 
L 120.431818 24.629676 
L 121.136364 23.350626 
L 121.840909 25.58216 
L 122.545455 19.186911 
L 123.25 28.602894 
L 123.954545 18.53378 
L 125.363636 24.248683 
L 126.068182 24.548035 
L 126.772727 28.249114 
L 127.477273 20.438747 
L 128.181818 23.02406 
L 128.886364 22.071577 
L 129.590909 22.398143 
L 130.295455 19.976112 
L 131 23.976544 
L 131.704545 19.268553 
L 132.409091 24.112613 
L 133.113636 16.247819 
L 133.818182 20.819741 
L 134.522727 21.255162 
L 135.227273 25.337235 
L 135.931818 24.520821 
L 136.636364 20.928596 
L 137.340909 26.888423 
L 138.045455 23.568337 
L 138.75 24.139827 
L 139.454545 22.23486 
L 140.159091 26.180864 
L 140.863636 17.853434 
L 141.568182 25.391663 
L 142.272727 27.323844 
L 142.977273 24.357538 
L 143.681818 26.752354 
L 144.386364 29.936371 
L 145.090909 27.214989 
L 146.5 30.78 
L 147.204545 27.895335 
L 147.909091 26.15365 
L 148.613636 25.854298 
L 150.022727 26.044795 
L 150.727273 29.119957 
L 151.431818 28.412397 
L 152.136364 29.582592 
L 152.840909 28.058618 
L 153.545455 27.351058 
L 154.25 27.378272 
L 154.954545 22.751922 
L 155.659091 27.487127 
L 155.659091 27.487127 
" clip-path="url(#p3b337a05f7)" style="fill: none; stroke: #e377c2; stroke-width: 2; stroke-linecap: square"/>
   </g>
   <g id="patch_3">
    <path d="M 22.5 32.04 
L 22.5 4.32 
" style="fill: none; stroke: #000000; stroke-width: 0.8; stroke-linejoin: miter; stroke-linecap: square"/>
   </g>
   <g id="patch_4">
    <path d="M 162 32.04 
L 162 4.32 
" style="fill: none; stroke: #000000; stroke-width: 0.8; stroke-linejoin: miter; stroke-linecap: square"/>
   </g>
   <g id="patch_5">
    <path d="M 22.5 32.04 
L 162 32.04 
" style="fill: none; stroke: #000000; stroke-width: 0.8; stroke-linejoin: miter; stroke-linecap: square"/>
   </g>
   <g id="patch_6">
    <path d="M 22.5 4.32 
L 162 4.32 
" style="fill: none; stroke: #000000; stroke-width: 0.8; stroke-linejoin: miter; stroke-linecap: square"/>
   </g>
  </g>
 </g>
 <defs>
  <clipPath id="p3b337a05f7">
   <rect x="22.5" y="4.32" width="139.5" height="27.72"/>
  </clipPath>
 </defs>
</svg>
