<?xml version="1.0" encoding="utf-8" standalone="no"?>
<!DOCTYPE svg PUBLIC "-//W3C//DTD SVG 1.1//EN"
  "http://www.w3.org/Graphics/SVG/1.1/DTD/svg11.dtd">
<svg xmlns:xlink="http://www.w3.org/1999/xlink" width="180pt" height="36pt" viewBox="0 0 180 36" xmlns="http://www.w3.org/2000/svg" version="1.1">
 <metadata>
  <rdf:RDF xmlns:dc="http://purl.org/dc/elements/1.1/" xmlns:cc="http://creativecommons.org/ns#" xmlns:rdf="http://www.w3.org/1999/02/22-rdf-syntax-ns#">
   <cc:Work>
    <dc:type rdf:resource="http://purl.org/dc/dcmitype/StillImage"/>
    <dc:date>2024-11-15T20:38:27.206961</dc:date>
    <dc:format>image/svg+xml</dc:format>
    <dc:creator>
     <cc:Agent>
      <dc:title>Matplotlib v3.9.1, https://matplotlib.org/</dc:title>
     </cc:Agent>
    </dc:creator>
   </cc:Work>
  </rdf:RDF>
 </metadata>
 <defs>
  <style type="text/css">*{stroke-linejoin: round; stroke-linecap: butt}</style>
 </defs>
 <g id="figure_1">
  <g id="patch_1">
   <path d="M 0 36 
L 180 36 
L 180 0 
L 0 0 
L 0 36 
z
" style="fill: none"/>
  </g>
  <g id="axes_1">
   <g id="patch_2">
    <path d="M 22.5 32.04 
L 162 32.04 
L 162 4.32 
L 22.5 4.32 
L 22.5 32.04 
z
" style="fill: none"/>
   </g>
   <g id="matplotlib.axis_1">
    <g id="xtick_1"/>
    <g id="xtick_2"/>
    <g id="xtick_3"/>
    <g id="xtick_4"/>
   </g>
   <g id="matplotlib.axis_2">
    <g id="ytick_1"/>
    <g id="ytick_2"/>
   </g>
   <g id="line2d_1">
    <path d="M 28.840909 28.925819 
L 29.545455 24.487023 
L 30.25 28.504415 
L 30.954545 23.728495 
L 31.659091 22.099064 
L 32.363636 20.975318 
L 33.068182 20.160602 
L 33.772727 17.800736 
L 34.477273 26.818796 
L 35.181818 26.144548 
L 35.886364 23.531839 
L 36.590909 25.835518 
L 37.295455 24.515117 
L 38 26.818796 
L 38.704545 21.087692 
L 39.409091 29.038194 
L 40.113636 21.705753 
L 40.818182 23.953244 
L 41.522727 28.139197 
L 42.227273 27.745886 
L 42.931818 29.459599 
L 43.636364 19.06495 
L 44.340909 22.183344 
L 45.045455 18.559264 
L 45.75 18.390702 
L 46.454545 18.418796 
L 47.159091 23.30709 
L 47.863636 19.851572 
L 48.568182 20.048227 
L 49.272727 20.104415 
L 49.977273 18.784013 
L 50.681818 13.839532 
L 51.386364 12.631505 
L 52.090909 8.445552 
L 52.795455 16.761271 
L 53.5 12.771973 
L 54.204545 11.788696 
L 54.909091 21.509097 
L 56.318182 17.91311 
L 57.022727 18.75592 
L 57.727273 16.705084 
L 58.431818 13.446221 
L 59.136364 9.625485 
L 59.840909 11.002074 
L 60.545455 13.05291 
L 61.25 18.615452 
L 61.954545 19.907759 
L 62.659091 16.536522 
L 63.363636 14.260936 
L 64.068182 21.790033 
L 64.772727 8.27699 
L 65.477273 10.552575 
L 66.181818 13.530502 
L 66.886364 19.233512 
L 67.590909 23.897057 
L 68.295455 23.531839 
L 69 11.816789 
L 69.704545 5.58 
L 70.409091 12.968629 
L 71.113636 16.592709 
L 71.818182 13.446221 
L 72.522727 15.44087 
L 73.227273 17.070301 
L 73.931818 15.21612 
L 74.636364 17.098395 
L 75.340909 11.339197 
L 76.045455 16.05893 
L 76.75 11.142542 
L 77.454545 8.052241 
L 78.863636 14.850903 
L 79.568182 7.630836 
L 80.272727 13.446221 
L 80.977273 11.985351 
L 81.681818 18.980669 
L 82.386364 13.249565 
L 83.090909 18.109766 
L 83.795455 14.878997 
L 84.5 14.963278 
L 85.204545 12.771973 
L 85.909091 18.194047 
L 86.613636 15.721806 
L 87.318182 8.024147 
L 88.022727 12.631505 
L 88.727273 10.693043 
L 89.431818 7.65893 
L 90.136364 15.300401 
L 90.840909 11.957258 
L 91.545455 15.44087 
L 92.25 12.659599 
L 92.954545 19.823478 
L 93.659091 15.890368 
L 94.363636 15.974649 
L 95.068182 16.255585 
L 95.772727 14.822809 
L 96.477273 17.266957 
L 97.181818 26.285017 
L 97.886364 9.007425 
L 98.590909 13.951906 
L 99.295455 15.525151 
L 100 17.744548 
L 100.704545 14.710435 
L 101.409091 23.026154 
L 102.113636 18.671639 
L 102.818182 16.480334 
L 103.522727 25.723144 
L 104.227273 15.103746 
L 104.931818 23.700401 
L 105.636364 23.475652 
L 106.340909 30.78 
L 107.045455 26.678328 
L 107.75 17.126488 
L 108.454545 26.228829 
L 109.159091 23.138528 
L 109.863636 19.093043 
L 110.568182 21.874314 
L 111.272727 16.283679 
L 111.977273 23.953244 
L 112.681818 19.036856 
L 113.386364 25.779331 
L 114.090909 27.549231 
L 114.795455 22.857592 
L 115.5 23.531839 
L 116.204545 23.644214 
L 116.909091 20.834849 
L 117.613636 25.610769 
L 118.318182 24.739866 
L 119.022727 26.706421 
L 119.727273 24.262274 
L 120.431818 23.363278 
L 121.840909 16.761271 
L 122.545455 21.958595 
L 123.25 22.941873 
L 123.954545 18.699732 
L 124.659091 20.357258 
L 125.363636 17.182676 
L 126.068182 16.67699 
L 126.772727 19.317793 
L 127.477273 18.587358 
L 128.181818 15.019465 
L 128.886364 18.75592 
L 129.590909 19.542542 
L 130.295455 16.733177 
L 131 21.818127 
L 131.704545 17.491706 
L 132.409091 16.761271 
L 133.113636 19.430167 
L 133.818182 16.648896 
L 134.522727 15.777993 
L 135.227273 8.923144 
L 135.931818 17.575987 
L 136.636364 11.451572 
L 137.340909 11.395385 
L 138.045455 22.323813 
L 138.75 19.458261 
L 139.454545 22.351906 
L 140.159091 21.003411 
L 140.863636 16.171304 
L 141.568182 7.181338 
L 142.272727 11.114448 
L 142.977273 17.238863 
L 143.681818 18.727826 
L 144.386364 18.390702 
L 145.090909 13.839532 
L 145.795455 19.626823 
L 146.5 13.727157 
L 147.204545 12.378662 
L 147.909091 21.649565 
L 148.613636 21.481003 
L 149.318182 20.357258 
L 150.022727 21.481003 
L 150.727273 16.957926 
L 151.431818 26.959264 
L 152.136364 23.559933 
L 152.840909 24.908428 
L 153.545455 21.986689 
L 154.25 21.958595 
L 154.954545 23.756589 
L 155.659091 23.644214 
L 155.659091 23.644214 
" clip-path="url(#p05537b61bb)" style="fill: none; stroke: #e377c2; stroke-width: 2; stroke-linecap: square"/>
   </g>
   <g id="patch_3">
    <path d="M 22.5 32.04 
L 22.5 4.32 
" style="fill: none; stroke: #000000; stroke-width: 0.8; stroke-linejoin: miter; stroke-linecap: square"/>
   </g>
   <g id="patch_4">
    <path d="M 162 32.04 
L 162 4.32 
" style="fill: none; stroke: #000000; stroke-width: 0.8; stroke-linejoin: miter; stroke-linecap: square"/>
   </g>
   <g id="patch_5">
    <path d="M 22.5 32.04 
L 162 32.04 
" style="fill: none; stroke: #000000; stroke-width: 0.8; stroke-linejoin: miter; stroke-linecap: square"/>
   </g>
   <g id="patch_6">
    <path d="M 22.5 4.32 
L 162 4.32 
" style="fill: none; stroke: #000000; stroke-width: 0.8; stroke-linejoin: miter; stroke-linecap: square"/>
   </g>
  </g>
 </g>
 <defs>
  <clipPath id="p05537b61bb">
   <rect x="22.5" y="4.32" width="139.5" height="27.72"/>
  </clipPath>
 </defs>
</svg>
