<?xml version="1.0" encoding="utf-8" standalone="no"?>
<!DOCTYPE svg PUBLIC "-//W3C//DTD SVG 1.1//EN"
  "http://www.w3.org/Graphics/SVG/1.1/DTD/svg11.dtd">
<svg xmlns:xlink="http://www.w3.org/1999/xlink" width="180pt" height="36pt" viewBox="0 0 180 36" xmlns="http://www.w3.org/2000/svg" version="1.1">
 <metadata>
  <rdf:RDF xmlns:dc="http://purl.org/dc/elements/1.1/" xmlns:cc="http://creativecommons.org/ns#" xmlns:rdf="http://www.w3.org/1999/02/22-rdf-syntax-ns#">
   <cc:Work>
    <dc:type rdf:resource="http://purl.org/dc/dcmitype/StillImage"/>
    <dc:date>2024-11-15T20:38:27.419307</dc:date>
    <dc:format>image/svg+xml</dc:format>
    <dc:creator>
     <cc:Agent>
      <dc:title>Matplotlib v3.9.1, https://matplotlib.org/</dc:title>
     </cc:Agent>
    </dc:creator>
   </cc:Work>
  </rdf:RDF>
 </metadata>
 <defs>
  <style type="text/css">*{stroke-linejoin: round; stroke-linecap: butt}</style>
 </defs>
 <g id="figure_1">
  <g id="patch_1">
   <path d="M 0 36 
L 180 36 
L 180 0 
L 0 0 
L 0 36 
z
" style="fill: none"/>
  </g>
  <g id="axes_1">
   <g id="patch_2">
    <path d="M 22.5 32.04 
L 162 32.04 
L 162 4.32 
L 22.5 4.32 
L 22.5 32.04 
z
" style="fill: none"/>
   </g>
   <g id="matplotlib.axis_1">
    <g id="xtick_1"/>
    <g id="xtick_2"/>
    <g id="xtick_3"/>
    <g id="xtick_4"/>
   </g>
   <g id="matplotlib.axis_2">
    <g id="ytick_1"/>
    <g id="ytick_2"/>
   </g>
   <g id="line2d_1">
    <path d="M 28.840909 16.468253 
L 29.545455 18.19287 
L 30.25 16.236588 
L 30.954545 15.490112 
L 31.659091 12.813095 
L 32.363636 15.129745 
L 33.068182 13.482349 
L 33.772727 15.979183 
L 34.477273 19.042308 
L 35.181818 16.442513 
L 35.886364 17.755281 
L 36.590909 18.089908 
L 37.295455 18.63046 
L 38 15.001042 
L 38.704545 20.04619 
L 39.409091 22.234137 
L 40.113636 13.53383 
L 40.818182 14.537712 
L 41.522727 14.589193 
L 42.931818 17.678059 
L 43.636364 13.096241 
L 44.340909 16.77714 
L 45.045455 13.945679 
L 45.75 17.575097 
L 46.454545 18.115649 
L 47.159091 20.252114 
L 47.863636 15.721777 
L 48.568182 13.842717 
L 49.272727 18.707681 
L 49.977273 19.685822 
L 50.681818 19.505638 
L 51.386364 18.887865 
L 52.090909 22.182656 
L 52.795455 20.020449 
L 53.5 16.416772 
L 54.204545 21.075812 
L 54.909091 20.123412 
L 55.613636 11.937916 
L 56.318182 16.77714 
L 57.022727 16.030664 
L 57.727273 15.515853 
L 58.431818 15.773258 
L 59.136364 14.92382 
L 59.840909 14.795117 
L 60.545455 14.331788 
L 61.25 17.678059 
L 61.954545 16.236588 
L 62.659091 14.409009 
L 63.363636 5.58 
L 64.068182 12.504208 
L 64.772727 13.276425 
L 65.477273 17.111767 
L 66.181818 12.066619 
L 66.886364 12.632911 
L 67.590909 13.636793 
L 68.295455 11.551808 
L 69 11.062737 
L 69.704545 17.086027 
L 70.409091 14.46049 
L 71.113636 17.24047 
L 71.818182 19.09379 
L 72.522727 17.935465 
L 73.227273 17.111767 
L 73.931818 17.111767 
L 74.636364 23.830051 
L 75.340909 23.418202 
L 76.045455 19.325455 
L 76.75 19.11953 
L 77.454545 22.465802 
L 78.159091 23.495424 
L 78.863636 23.804311 
L 79.568182 24.653749 
L 80.272727 23.31524 
L 80.977273 27.073361 
L 81.681818 22.697467 
L 82.386364 25.014116 
L 83.090909 26.429847 
L 83.795455 27.433728 
L 84.5 27.124842 
L 85.204545 27.073361 
L 85.909091 26.223922 
L 86.613636 28.025761 
L 87.318182 28.180204 
L 88.022727 28.025761 
L 88.727273 25.142819 
L 89.431818 25.348744 
L 90.136364 26.455587 
L 90.840909 24.73097 
L 91.545455 26.918917 
L 92.25 27.562431 
L 92.954545 24.113197 
L 93.659091 22.053953 
L 94.363636 25.709111 
L 95.068182 20.99859 
L 95.772727 22.028212 
L 96.477273 23.907273 
L 97.181818 23.186537 
L 97.886364 22.234137 
L 98.590909 24.010235 
L 99.295455 24.061716 
L 100 20.097671 
L 100.704545 22.208396 
L 101.409091 21.873769 
L 102.113636 22.697467 
L 102.818182 20.53526 
L 103.522727 21.075812 
L 104.227273 20.458039 
L 104.931818 24.164678 
L 105.636364 23.649867 
L 106.340909 25.142819 
L 107.045455 22.491542 
L 107.75 24.344862 
L 108.454545 24.576527 
L 109.159091 25.091338 
L 109.863636 21.719326 
L 110.568182 24.550787 
L 111.272727 18.810644 
L 111.977273 18.501757 
L 112.681818 22.903391 
L 113.386364 23.546905 
L 114.090909 21.255996 
L 114.795455 24.190419 
L 115.5 16.725659 
L 116.909091 24.164678 
L 117.613636 27.150582 
L 118.318182 22.594505 
L 119.022727 22.620245 
L 119.727273 27.459469 
L 120.431818 26.481328 
L 121.136364 25.220041 
L 121.840909 26.55855 
L 122.545455 25.400225 
L 123.25 25.014116 
L 123.954545 25.940776 
L 125.363636 28.128723 
L 126.772727 28.720756 
L 127.477273 30.78 
L 128.181818 28.92668 
L 128.886364 29.338529 
L 129.590909 30.754259 
L 130.295455 30.368151 
L 131 27.485209 
L 131.704545 25.889295 
L 132.409091 30.393892 
L 133.113636 28.00002 
L 133.818182 27.176323 
L 134.522727 25.477446 
L 135.227273 26.687252 
L 135.931818 25.528927 
L 136.636364 25.966517 
L 137.340909 27.04762 
L 138.045455 23.830051 
L 138.75 24.756711 
L 139.454545 23.649867 
L 140.159091 22.929132 
L 140.863636 25.863555 
L 141.568182 23.289499 
L 142.977273 23.675608 
L 143.681818 20.869888 
L 144.386364 23.392462 
L 145.090909 21.410439 
L 145.795455 20.071931 
L 147.204545 21.127293 
L 147.909091 21.539142 
L 148.613636 22.82617 
L 149.318182 20.844147 
L 150.022727 23.340981 
L 150.727273 22.053953 
L 151.431818 24.087457 
L 152.136364 21.255996 
L 152.840909 17.626578 
L 153.545455 25.117079 
L 154.25 24.26764 
L 154.954545 26.867436 
L 155.659091 25.425965 
L 155.659091 25.425965 
" clip-path="url(#pb0576f811a)" style="fill: none; stroke: #e377c2; stroke-width: 2; stroke-linecap: square"/>
   </g>
   <g id="patch_3">
    <path d="M 22.5 32.04 
L 22.5 4.32 
" style="fill: none; stroke: #000000; stroke-width: 0.8; stroke-linejoin: miter; stroke-linecap: square"/>
   </g>
   <g id="patch_4">
    <path d="M 162 32.04 
L 162 4.32 
" style="fill: none; stroke: #000000; stroke-width: 0.8; stroke-linejoin: miter; stroke-linecap: square"/>
   </g>
   <g id="patch_5">
    <path d="M 22.5 32.04 
L 162 32.04 
" style="fill: none; stroke: #000000; stroke-width: 0.8; stroke-linejoin: miter; stroke-linecap: square"/>
   </g>
   <g id="patch_6">
    <path d="M 22.5 4.32 
L 162 4.32 
" style="fill: none; stroke: #000000; stroke-width: 0.8; stroke-linejoin: miter; stroke-linecap: square"/>
   </g>
  </g>
 </g>
 <defs>
  <clipPath id="pb0576f811a">
   <rect x="22.5" y="4.32" width="139.5" height="27.72"/>
  </clipPath>
 </defs>
</svg>
