<?xml version="1.0" encoding="utf-8" standalone="no"?>
<!DOCTYPE svg PUBLIC "-//W3C//DTD SVG 1.1//EN"
  "http://www.w3.org/Graphics/SVG/1.1/DTD/svg11.dtd">
<svg xmlns:xlink="http://www.w3.org/1999/xlink" width="144pt" height="72pt" viewBox="0 0 144 72" xmlns="http://www.w3.org/2000/svg" version="1.1">
 <metadata>
  <rdf:RDF xmlns:dc="http://purl.org/dc/elements/1.1/" xmlns:cc="http://creativecommons.org/ns#" xmlns:rdf="http://www.w3.org/1999/02/22-rdf-syntax-ns#">
   <cc:Work>
    <dc:type rdf:resource="http://purl.org/dc/dcmitype/StillImage"/>
    <dc:date>2024-11-15T20:35:04.035530</dc:date>
    <dc:format>image/svg+xml</dc:format>
    <dc:creator>
     <cc:Agent>
      <dc:title>Matplotlib v3.9.1, https://matplotlib.org/</dc:title>
     </cc:Agent>
    </dc:creator>
   </cc:Work>
  </rdf:RDF>
 </metadata>
 <defs>
  <style type="text/css">*{stroke-linejoin: round; stroke-linecap: butt}</style>
 </defs>
 <g id="figure_1">
  <g id="patch_1">
   <path d="M 0 72 
L 144 72 
L 144 0 
L 0 0 
z
" style="fill: #ffffff"/>
  </g>
  <g id="axes_1">
   <g id="patch_2">
    <path d="M 18 64.08 
L 129.6 64.08 
L 129.6 8.64 
L 18 8.64 
z
" style="fill: #ffffff"/>
   </g>
   <g id="matplotlib.axis_1">
    <g id="xtick_1">
     <g id="line2d_1">
      <defs>
       <path id="m61163acb10" d="M 0 0 
L 0 3.5 
" style="stroke: #000000; stroke-width: 0.8"/>
      </defs>
      <g>
       <use xlink:href="#m61163acb10" x="20.867194" y="64.08" style="stroke: #000000; stroke-width: 0.8"/>
      </g>
     </g>
     <g id="text_1">
      <text style="font: 8px 'DejaVu Sans', 'Bitstream Vera Sans', 'Computer Modern Sans Serif', 'Lucida Grande', 'Verdana', 'Geneva', 'Lucid', 'Arial', 'Helvetica', 'Avant Garde', sans-serif; text-anchor: middle" x="20.867194" y="77.15875" transform="rotate(-0 20.867194 77.15875)">0</text>
     </g>
    </g>
    <g id="xtick_2">
     <g id="line2d_2">
      <g>
       <use xlink:href="#m61163acb10" x="34.030378" y="64.08" style="stroke: #000000; stroke-width: 0.8"/>
      </g>
     </g>
     <g id="text_2">
      <text style="font: 8px 'DejaVu Sans', 'Bitstream Vera Sans', 'Computer Modern Sans Serif', 'Lucida Grande', 'Verdana', 'Geneva', 'Lucid', 'Arial', 'Helvetica', 'Avant Garde', sans-serif; text-anchor: middle" x="34.030378" y="77.15875" transform="rotate(-0 34.030378 77.15875)">1</text>
     </g>
    </g>
    <g id="xtick_3">
     <g id="line2d_3">
      <g>
       <use xlink:href="#m61163acb10" x="47.193563" y="64.08" style="stroke: #000000; stroke-width: 0.8"/>
      </g>
     </g>
     <g id="text_3">
      <text style="font: 8px 'DejaVu Sans', 'Bitstream Vera Sans', 'Computer Modern Sans Serif', 'Lucida Grande', 'Verdana', 'Geneva', 'Lucid', 'Arial', 'Helvetica', 'Avant Garde', sans-serif; text-anchor: middle" x="47.193563" y="77.15875" transform="rotate(-0 47.193563 77.15875)">2</text>
     </g>
    </g>
    <g id="xtick_4">
     <g id="line2d_4">
      <g>
       <use xlink:href="#m61163acb10" x="60.356748" y="64.08" style="stroke: #000000; stroke-width: 0.8"/>
      </g>
     </g>
     <g id="text_4">
      <text style="font: 8px 'DejaVu Sans', 'Bitstream Vera Sans', 'Computer Modern Sans Serif', 'Lucida Grande', 'Verdana', 'Geneva', 'Lucid', 'Arial', 'Helvetica', 'Avant Garde', sans-serif; text-anchor: middle" x="60.356748" y="77.15875" transform="rotate(-0 60.356748 77.15875)">3</text>
     </g>
    </g>
    <g id="xtick_5">
     <g id="line2d_5">
      <g>
       <use xlink:href="#m61163acb10" x="73.519932" y="64.08" style="stroke: #000000; stroke-width: 0.8"/>
      </g>
     </g>
     <g id="text_5">
      <text style="font: 8px 'DejaVu Sans', 'Bitstream Vera Sans', 'Computer Modern Sans Serif', 'Lucida Grande', 'Verdana', 'Geneva', 'Lucid', 'Arial', 'Helvetica', 'Avant Garde', sans-serif; text-anchor: middle" x="73.519932" y="77.15875" transform="rotate(-0 73.519932 77.15875)">4</text>
     </g>
    </g>
    <g id="xtick_6">
     <g id="line2d_6">
      <g>
       <use xlink:href="#m61163acb10" x="86.683117" y="64.08" style="stroke: #000000; stroke-width: 0.8"/>
      </g>
     </g>
     <g id="text_6">
      <text style="font: 8px 'DejaVu Sans', 'Bitstream Vera Sans', 'Computer Modern Sans Serif', 'Lucida Grande', 'Verdana', 'Geneva', 'Lucid', 'Arial', 'Helvetica', 'Avant Garde', sans-serif; text-anchor: middle" x="86.683117" y="77.15875" transform="rotate(-0 86.683117 77.15875)">5</text>
     </g>
    </g>
    <g id="xtick_7">
     <g id="line2d_7">
      <g>
       <use xlink:href="#m61163acb10" x="99.846302" y="64.08" style="stroke: #000000; stroke-width: 0.8"/>
      </g>
     </g>
     <g id="text_7">
      <text style="font: 8px 'DejaVu Sans', 'Bitstream Vera Sans', 'Computer Modern Sans Serif', 'Lucida Grande', 'Verdana', 'Geneva', 'Lucid', 'Arial', 'Helvetica', 'Avant Garde', sans-serif; text-anchor: middle" x="99.846302" y="77.15875" transform="rotate(-0 99.846302 77.15875)">6</text>
     </g>
    </g>
    <g id="xtick_8">
     <g id="line2d_8">
      <g>
       <use xlink:href="#m61163acb10" x="113.009486" y="64.08" style="stroke: #000000; stroke-width: 0.8"/>
      </g>
     </g>
     <g id="text_8">
      <text style="font: 8px 'DejaVu Sans', 'Bitstream Vera Sans', 'Computer Modern Sans Serif', 'Lucida Grande', 'Verdana', 'Geneva', 'Lucid', 'Arial', 'Helvetica', 'Avant Garde', sans-serif; text-anchor: middle" x="113.009486" y="77.15875" transform="rotate(-0 113.009486 77.15875)">7</text>
     </g>
    </g>
    <g id="text_9">
     <text style="font: 8px 'DejaVu Sans', 'Bitstream Vera Sans', 'Computer Modern Sans Serif', 'Lucida Grande', 'Verdana', 'Geneva', 'Lucid', 'Arial', 'Helvetica', 'Avant Garde', sans-serif; text-anchor: middle" x="73.8" y="88.90125" transform="rotate(-0 73.8 88.90125)">Period (minutes)</text>
    </g>
   </g>
   <g id="matplotlib.axis_2">
    <g id="ytick_1">
     <g id="line2d_9">
      <defs>
       <path id="m7134272227" d="M 0 0 
L -3.5 0 
" style="stroke: #000000; stroke-width: 0.8"/>
      </defs>
      <g>
       <use xlink:href="#m7134272227" x="18" y="61.56263" style="stroke: #000000; stroke-width: 0.8"/>
      </g>
     </g>
     <g id="text_10">
      <text style="font: 8px 'DejaVu Sans', 'Bitstream Vera Sans', 'Computer Modern Sans Serif', 'Lucida Grande', 'Verdana', 'Geneva', 'Lucid', 'Arial', 'Helvetica', 'Avant Garde', sans-serif; text-anchor: end" x="11" y="64.602005" transform="rotate(-0 11 64.602005)">0</text>
     </g>
    </g>
    <g id="ytick_2">
     <g id="line2d_10">
      <g>
       <use xlink:href="#m7134272227" x="18" y="39.289494" style="stroke: #000000; stroke-width: 0.8"/>
      </g>
     </g>
     <g id="text_11">
      <text style="font: 8px 'DejaVu Sans', 'Bitstream Vera Sans', 'Computer Modern Sans Serif', 'Lucida Grande', 'Verdana', 'Geneva', 'Lucid', 'Arial', 'Helvetica', 'Avant Garde', sans-serif; text-anchor: end" x="11" y="42.328869" transform="rotate(-0 11 42.328869)">1</text>
     </g>
    </g>
    <g id="ytick_3">
     <g id="line2d_11">
      <g>
       <use xlink:href="#m7134272227" x="18" y="17.016359" style="stroke: #000000; stroke-width: 0.8"/>
      </g>
     </g>
     <g id="text_12">
      <text style="font: 8px 'DejaVu Sans', 'Bitstream Vera Sans', 'Computer Modern Sans Serif', 'Lucida Grande', 'Verdana', 'Geneva', 'Lucid', 'Arial', 'Helvetica', 'Avant Garde', sans-serif; text-anchor: end" x="11" y="20.055734" transform="rotate(-0 11 20.055734)">2</text>
     </g>
    </g>
    <g id="text_13">
     <text style="font: 8px 'DejaVu Sans', 'Bitstream Vera Sans', 'Computer Modern Sans Serif', 'Lucida Grande', 'Verdana', 'Geneva', 'Lucid', 'Arial', 'Helvetica', 'Avant Garde', sans-serif; text-anchor: middle" x="0.24625" y="36.36" transform="rotate(-90 0.24625 36.36)">Power / frequency</text>
    </g>
    <g id="text_14">
     <text style="font: 10px 'DejaVu Sans', 'Bitstream Vera Sans', 'Computer Modern Sans Serif', 'Lucida Grande', 'Verdana', 'Geneva', 'Lucid', 'Arial', 'Helvetica', 'Avant Garde', sans-serif; text-anchor: start" x="18" y="5.64" transform="rotate(-0 18 5.64)">1e6</text>
    </g>
   </g>
   <g id="line2d_12">
    <path d="M 124.527273 50.623136 
L 89.973913 57.629452 
L 72.697233 53.584993 
L 62.331225 59.781899 
L 55.420553 49.910441 
L 50.484359 59.561044 
L 46.782213 11.16 
L 43.902767 56.667785 
L 41.599209 57.116645 
L 39.714481 59.682849 
L 38.143874 57.818779 
L 36.814898 55.00268 
L 35.675776 59.889413 
L 34.688538 58.53414 
L 33.824704 59.456174 
L 33.062497 61.065155 
L 32.38498 60.692646 
L 31.778781 60.562296 
L 31.233202 61.213513 
L 30.739582 60.836708 
L 30.290837 61.03102 
L 29.881114 61.383344 
L 29.505534 61.363395 
L 29.16 61.316987 
L 28.841046 61.17216 
L 28.545718 61.124467 
L 28.271485 60.058725 
L 28.016165 60.607724 
L 27.777866 61.453398 
L 27.554941 61.317336 
L 27.345949 60.430376 
L 27.149623 61.327158 
L 26.964845 61.022534 
L 26.790627 61.56 
L 26.626087 61.398704 
L 26.470441 61.405564 
L 26.322987 60.911339 
L 26.183095 61.214577 
L 26.050198 61.353681 
L 25.923783 61.499414 
L 25.803388 61.397332 
L 25.688593 60.932597 
L 25.579015 61.243817 
L 25.474308 61.540017 
L 25.374154 61.488341 
L 25.278261 61.523661 
L 25.186364 61.31646 
L 25.098217 61.160344 
L 25.013597 61.016956 
L 24.932295 61.331295 
L 24.85412 61.531381 
L 24.778895 61.424277 
L 24.706456 61.373722 
L 24.636651 61.510598 
L 24.569339 61.559423 
L 24.504389 61.157339 
L 24.441679 61.212074 
L 24.381095 61.504542 
L 24.32253 61.140638 
L 24.265885 61.15014 
L 24.211067 61.314462 
L 24.15799 61.316715 
L 24.106571 60.964541 
L 24.056735 61.532841 
L 24.008408 61.549995 
L 23.961524 61.414763 
L 23.91602 61.457622 
L 23.871834 61.392602 
L 23.82891 61.249205 
L 23.787196 61.337813 
L 23.74664 61.499145 
L 23.707196 61.476137 
L 23.668817 61.524664 
L 23.631462 61.42871 
L 23.59509 61.13481 
L 23.559663 60.93904 
L 23.525144 61.445848 
L 23.491499 61.276023 
L 23.458696 61.317602 
L 23.426702 61.375241 
L 23.395488 61.427543 
L 23.365027 61.471931 
L 23.335291 61.251793 
L 23.306254 61.426256 
L 23.277893 61.416602 
L 23.250184 61.382132 
L 23.223105 61.243446 
L 23.196634 61.549211 
L 23.170751 61.246522 
L 23.145437 60.94901 
L 23.120674 61.486849 
L 23.096443 61.351641 
L 23.072727 61.462562 
" clip-path="url(#p67d513e01b)" style="fill: none; stroke: #fac205; stroke-width: 2; stroke-linecap: square"/>
   </g>
   <g id="patch_3">
    <path d="M 18 64.08 
L 18 8.64 
" style="fill: none; stroke: #000000; stroke-width: 0.8; stroke-linejoin: miter; stroke-linecap: square"/>
   </g>
   <g id="patch_4">
    <path d="M 129.6 64.08 
L 129.6 8.64 
" style="fill: none; stroke: #000000; stroke-width: 0.8; stroke-linejoin: miter; stroke-linecap: square"/>
   </g>
   <g id="patch_5">
    <path d="M 18 64.08 
L 129.6 64.08 
" style="fill: none; stroke: #000000; stroke-width: 0.8; stroke-linejoin: miter; stroke-linecap: square"/>
   </g>
   <g id="patch_6">
    <path d="M 18 8.64 
L 129.6 8.64 
" style="fill: none; stroke: #000000; stroke-width: 0.8; stroke-linejoin: miter; stroke-linecap: square"/>
   </g>
  </g>
 </g>
 <defs>
  <clipPath id="p67d513e01b">
   <rect x="18" y="8.64" width="111.6" height="55.44"/>
  </clipPath>
 </defs>
</svg>
