<?xml version="1.0" encoding="utf-8" standalone="no"?>
<!DOCTYPE svg PUBLIC "-//W3C//DTD SVG 1.1//EN"
  "http://www.w3.org/Graphics/SVG/1.1/DTD/svg11.dtd">
<svg xmlns:xlink="http://www.w3.org/1999/xlink" width="144pt" height="72pt" viewBox="0 0 144 72" xmlns="http://www.w3.org/2000/svg" version="1.1">
 <metadata>
  <rdf:RDF xmlns:dc="http://purl.org/dc/elements/1.1/" xmlns:cc="http://creativecommons.org/ns#" xmlns:rdf="http://www.w3.org/1999/02/22-rdf-syntax-ns#">
   <cc:Work>
    <dc:type rdf:resource="http://purl.org/dc/dcmitype/StillImage"/>
    <dc:date>2024-11-15T20:57:31.271219</dc:date>
    <dc:format>image/svg+xml</dc:format>
    <dc:creator>
     <cc:Agent>
      <dc:title>Matplotlib v3.9.1, https://matplotlib.org/</dc:title>
     </cc:Agent>
    </dc:creator>
   </cc:Work>
  </rdf:RDF>
 </metadata>
 <defs>
  <style type="text/css">*{stroke-linejoin: round; stroke-linecap: butt}</style>
 </defs>
 <g id="figure_1">
  <g id="patch_1">
   <path d="M 0 72 
L 144 72 
L 144 0 
L 0 0 
z
" style="fill: #ffffff"/>
  </g>
  <g id="axes_1">
   <g id="patch_2">
    <path d="M 18 64.08 
L 129.6 64.08 
L 129.6 8.64 
L 18 8.64 
z
" style="fill: #ffffff"/>
   </g>
   <g id="matplotlib.axis_1">
    <g id="xtick_1">
     <g id="line2d_1">
      <defs>
       <path id="mbce36330ef" d="M 0 0 
L 0 3.5 
" style="stroke: #000000; stroke-width: 0.8"/>
      </defs>
      <g>
       <use xlink:href="#mbce36330ef" x="23.072727" y="64.08" style="stroke: #000000; stroke-width: 0.8"/>
      </g>
     </g>
     <g id="text_1">
      <text style="font: 8px 'DejaVu Sans', 'Bitstream Vera Sans', 'Computer Modern Sans Serif', 'Lucida Grande', 'Verdana', 'Geneva', 'Lucid', 'Arial', 'Helvetica', 'Avant Garde', sans-serif; text-anchor: middle" x="23.072727" y="77.15875" transform="rotate(-0 23.072727 77.15875)">0</text>
     </g>
    </g>
    <g id="xtick_2">
     <g id="line2d_2">
      <g>
       <use xlink:href="#mbce36330ef" x="36.6" y="64.08" style="stroke: #000000; stroke-width: 0.8"/>
      </g>
     </g>
     <g id="text_2">
      <text style="font: 8px 'DejaVu Sans', 'Bitstream Vera Sans', 'Computer Modern Sans Serif', 'Lucida Grande', 'Verdana', 'Geneva', 'Lucid', 'Arial', 'Helvetica', 'Avant Garde', sans-serif; text-anchor: middle" x="36.6" y="77.15875" transform="rotate(-0 36.6 77.15875)">1</text>
     </g>
    </g>
    <g id="xtick_3">
     <g id="line2d_3">
      <g>
       <use xlink:href="#mbce36330ef" x="50.127273" y="64.08" style="stroke: #000000; stroke-width: 0.8"/>
      </g>
     </g>
     <g id="text_3">
      <text style="font: 8px 'DejaVu Sans', 'Bitstream Vera Sans', 'Computer Modern Sans Serif', 'Lucida Grande', 'Verdana', 'Geneva', 'Lucid', 'Arial', 'Helvetica', 'Avant Garde', sans-serif; text-anchor: middle" x="50.127273" y="77.15875" transform="rotate(-0 50.127273 77.15875)">2</text>
     </g>
    </g>
    <g id="xtick_4">
     <g id="line2d_4">
      <g>
       <use xlink:href="#mbce36330ef" x="63.654545" y="64.08" style="stroke: #000000; stroke-width: 0.8"/>
      </g>
     </g>
     <g id="text_4">
      <text style="font: 8px 'DejaVu Sans', 'Bitstream Vera Sans', 'Computer Modern Sans Serif', 'Lucida Grande', 'Verdana', 'Geneva', 'Lucid', 'Arial', 'Helvetica', 'Avant Garde', sans-serif; text-anchor: middle" x="63.654545" y="77.15875" transform="rotate(-0 63.654545 77.15875)">3</text>
     </g>
    </g>
    <g id="xtick_5">
     <g id="line2d_5">
      <g>
       <use xlink:href="#mbce36330ef" x="77.181818" y="64.08" style="stroke: #000000; stroke-width: 0.8"/>
      </g>
     </g>
     <g id="text_5">
      <text style="font: 8px 'DejaVu Sans', 'Bitstream Vera Sans', 'Computer Modern Sans Serif', 'Lucida Grande', 'Verdana', 'Geneva', 'Lucid', 'Arial', 'Helvetica', 'Avant Garde', sans-serif; text-anchor: middle" x="77.181818" y="77.15875" transform="rotate(-0 77.181818 77.15875)">4</text>
     </g>
    </g>
    <g id="xtick_6">
     <g id="line2d_6">
      <g>
       <use xlink:href="#mbce36330ef" x="90.709091" y="64.08" style="stroke: #000000; stroke-width: 0.8"/>
      </g>
     </g>
     <g id="text_6">
      <text style="font: 8px 'DejaVu Sans', 'Bitstream Vera Sans', 'Computer Modern Sans Serif', 'Lucida Grande', 'Verdana', 'Geneva', 'Lucid', 'Arial', 'Helvetica', 'Avant Garde', sans-serif; text-anchor: middle" x="90.709091" y="77.15875" transform="rotate(-0 90.709091 77.15875)">5</text>
     </g>
    </g>
    <g id="xtick_7">
     <g id="line2d_7">
      <g>
       <use xlink:href="#mbce36330ef" x="104.236364" y="64.08" style="stroke: #000000; stroke-width: 0.8"/>
      </g>
     </g>
     <g id="text_7">
      <text style="font: 8px 'DejaVu Sans', 'Bitstream Vera Sans', 'Computer Modern Sans Serif', 'Lucida Grande', 'Verdana', 'Geneva', 'Lucid', 'Arial', 'Helvetica', 'Avant Garde', sans-serif; text-anchor: middle" x="104.236364" y="77.15875" transform="rotate(-0 104.236364 77.15875)">6</text>
     </g>
    </g>
    <g id="xtick_8">
     <g id="line2d_8">
      <g>
       <use xlink:href="#mbce36330ef" x="117.763636" y="64.08" style="stroke: #000000; stroke-width: 0.8"/>
      </g>
     </g>
     <g id="text_8">
      <text style="font: 8px 'DejaVu Sans', 'Bitstream Vera Sans', 'Computer Modern Sans Serif', 'Lucida Grande', 'Verdana', 'Geneva', 'Lucid', 'Arial', 'Helvetica', 'Avant Garde', sans-serif; text-anchor: middle" x="117.763636" y="77.15875" transform="rotate(-0 117.763636 77.15875)">7</text>
     </g>
    </g>
    <g id="text_9">
     <text style="font: 8px 'DejaVu Sans', 'Bitstream Vera Sans', 'Computer Modern Sans Serif', 'Lucida Grande', 'Verdana', 'Geneva', 'Lucid', 'Arial', 'Helvetica', 'Avant Garde', sans-serif; text-anchor: middle" x="73.8" y="88.90125" transform="rotate(-0 73.8 88.90125)">Lag (minutes)</text>
    </g>
   </g>
   <g id="matplotlib.axis_2">
    <g id="ytick_1">
     <g id="line2d_9">
      <defs>
       <path id="m6e4b57caa9" d="M 0 0 
L -3.5 0 
" style="stroke: #000000; stroke-width: 0.8"/>
      </defs>
      <g>
       <use xlink:href="#m6e4b57caa9" x="18" y="47.082946" style="stroke: #000000; stroke-width: 0.8"/>
      </g>
     </g>
     <g id="text_10">
      <text style="font: 8px 'DejaVu Sans', 'Bitstream Vera Sans', 'Computer Modern Sans Serif', 'Lucida Grande', 'Verdana', 'Geneva', 'Lucid', 'Arial', 'Helvetica', 'Avant Garde', sans-serif; text-anchor: end" x="11" y="50.122321" transform="rotate(-0 11 50.122321)">0</text>
     </g>
    </g>
    <g id="ytick_2">
     <g id="line2d_10">
      <g>
       <use xlink:href="#m6e4b57caa9" x="18" y="11.16" style="stroke: #000000; stroke-width: 0.8"/>
      </g>
     </g>
     <g id="text_11">
      <text style="font: 8px 'DejaVu Sans', 'Bitstream Vera Sans', 'Computer Modern Sans Serif', 'Lucida Grande', 'Verdana', 'Geneva', 'Lucid', 'Arial', 'Helvetica', 'Avant Garde', sans-serif; text-anchor: end" x="11" y="14.199375" transform="rotate(-0 11 14.199375)">1</text>
     </g>
    </g>
    <g id="text_12">
     <text style="font: 8px 'DejaVu Sans', 'Bitstream Vera Sans', 'Computer Modern Sans Serif', 'Lucida Grande', 'Verdana', 'Geneva', 'Lucid', 'Arial', 'Helvetica', 'Avant Garde', sans-serif; text-anchor: middle" x="0.24625" y="36.36" transform="rotate(-90 0.24625 36.36)">Autocorrelation</text>
    </g>
   </g>
   <g id="line2d_11">
    <path d="M 23.072727 11.16 
L 24.2 19.684023 
L 25.327273 24.101117 
L 26.454545 29.731222 
L 27.581818 35.287064 
L 28.709091 40.459115 
L 29.836364 45.414739 
L 30.963636 49.70419 
L 32.090909 53.24483 
L 33.218182 57.879501 
L 34.345455 60.325224 
L 35.472727 61.390779 
L 36.6 61.329717 
L 37.727273 61.56 
L 38.854545 61.550879 
L 39.981818 60.196628 
L 41.109091 58.516064 
L 42.236364 54.867355 
L 43.363636 49.85961 
L 44.490909 45.055417 
L 45.618182 41.264434 
L 46.745455 38.299549 
L 47.872727 34.692147 
L 49 32.271323 
L 50.127273 31.392187 
L 51.254545 30.998042 
L 52.381818 31.535669 
L 53.509091 31.832177 
L 54.636364 36.638243 
L 55.763636 39.952102 
L 56.890909 42.184345 
L 58.018182 46.506679 
L 59.145455 50.849344 
L 60.272727 54.464103 
L 61.4 57.734132 
L 62.527273 58.913893 
L 63.654545 61.219652 
L 64.781818 61.34454 
L 65.909091 60.641436 
L 67.036364 59.526674 
L 68.163636 56.700229 
L 69.290909 53.622893 
L 70.418182 50.127506 
L 71.545455 47.418022 
L 72.672727 44.019198 
L 73.8 41.501988 
L 74.927273 40.373786 
L 76.054545 38.953627 
L 77.181818 37.604682 
L 78.309091 37.255817 
L 79.436364 37.079289 
L 80.563636 38.992285 
L 81.690909 40.203679 
L 82.818182 41.780804 
L 83.945455 44.44508 
L 85.072727 49.058682 
L 86.2 52.349341 
L 87.327273 54.824593 
L 88.454545 57.255123 
L 89.581818 58.651318 
L 90.709091 59.101902 
L 91.836364 60.330005 
L 92.963636 59.394218 
L 94.090909 58.431828 
L 95.218182 56.937332 
L 96.345455 53.832128 
L 97.472727 52.053007 
L 98.6 49.091883 
L 99.727273 47.567462 
L 100.854545 45.271564 
L 101.981818 42.783762 
L 103.109091 39.685174 
L 104.236364 38.851842 
L 105.363636 38.441547 
L 106.490909 39.920191 
L 107.618182 41.491747 
L 108.745455 43.53409 
L 109.872727 45.47175 
L 111 48.017664 
L 112.127273 49.213281 
L 113.254545 50.292883 
L 114.381818 51.489799 
L 115.509091 52.455685 
L 116.636364 52.201608 
L 117.763636 52.356312 
L 118.890909 52.249525 
L 120.018182 52.557695 
L 121.145455 52.624595 
L 122.272727 52.423228 
L 123.4 51.553865 
L 124.527273 50.411645 
" clip-path="url(#p2d923bb37b)" style="fill: none; stroke: #2ca02c; stroke-width: 2; stroke-linecap: square"/>
   </g>
   <g id="patch_3">
    <path d="M 18 64.08 
L 18 8.64 
" style="fill: none; stroke: #000000; stroke-width: 0.8; stroke-linejoin: miter; stroke-linecap: square"/>
   </g>
   <g id="patch_4">
    <path d="M 129.6 64.08 
L 129.6 8.64 
" style="fill: none; stroke: #000000; stroke-width: 0.8; stroke-linejoin: miter; stroke-linecap: square"/>
   </g>
   <g id="patch_5">
    <path d="M 18 64.08 
L 129.6 64.08 
" style="fill: none; stroke: #000000; stroke-width: 0.8; stroke-linejoin: miter; stroke-linecap: square"/>
   </g>
   <g id="patch_6">
    <path d="M 18 8.64 
L 129.6 8.64 
" style="fill: none; stroke: #000000; stroke-width: 0.8; stroke-linejoin: miter; stroke-linecap: square"/>
   </g>
  </g>
 </g>
 <defs>
  <clipPath id="p2d923bb37b">
   <rect x="18" y="8.64" width="111.6" height="55.44"/>
  </clipPath>
 </defs>
</svg>
