<?xml version="1.0" encoding="utf-8" standalone="no"?>
<!DOCTYPE svg PUBLIC "-//W3C//DTD SVG 1.1//EN"
  "http://www.w3.org/Graphics/SVG/1.1/DTD/svg11.dtd">
<svg xmlns:xlink="http://www.w3.org/1999/xlink" width="180pt" height="36pt" viewBox="0 0 180 36" xmlns="http://www.w3.org/2000/svg" version="1.1">
 <metadata>
  <rdf:RDF xmlns:dc="http://purl.org/dc/elements/1.1/" xmlns:cc="http://creativecommons.org/ns#" xmlns:rdf="http://www.w3.org/1999/02/22-rdf-syntax-ns#">
   <cc:Work>
    <dc:type rdf:resource="http://purl.org/dc/dcmitype/StillImage"/>
    <dc:date>2024-11-16T13:29:39.384288</dc:date>
    <dc:format>image/svg+xml</dc:format>
    <dc:creator>
     <cc:Agent>
      <dc:title>Matplotlib v3.9.1, https://matplotlib.org/</dc:title>
     </cc:Agent>
    </dc:creator>
   </cc:Work>
  </rdf:RDF>
 </metadata>
 <defs>
  <style type="text/css">*{stroke-linejoin: round; stroke-linecap: butt}</style>
 </defs>
 <g id="figure_1">
  <g id="patch_1">
   <path d="M 0 36 
L 180 36 
L 180 0 
L 0 0 
L 0 36 
z
" style="fill: none"/>
  </g>
  <g id="axes_1">
   <g id="patch_2">
    <path d="M 22.5 32.04 
L 162 32.04 
L 162 4.32 
L 22.5 4.32 
L 22.5 32.04 
z
" style="fill: none"/>
   </g>
   <g id="matplotlib.axis_1">
    <g id="xtick_1"/>
    <g id="xtick_2"/>
    <g id="xtick_3"/>
    <g id="xtick_4"/>
   </g>
   <g id="matplotlib.axis_2">
    <g id="ytick_1"/>
    <g id="ytick_2"/>
   </g>
   <g id="line2d_1">
    <path d="M 28.840909 17.356317 
L 30.954545 23.72937 
L 33.068182 15.418231 
L 35.181818 14.233687 
L 37.295455 14.824604 
L 39.409091 23.26576 
L 41.522727 22.296295 
L 43.636364 12.379174 
L 45.75 24.067504 
L 47.863636 30.105366 
L 49.977273 28.078682 
L 52.090909 17.105292 
L 54.204545 21.068824 
L 56.318182 17.525097 
L 58.431818 12.635116 
L 60.545455 21.453455 
L 62.659091 21.578322 
L 64.772727 21.704929 
L 66.886364 18.244578 
L 69 12.799445 
L 71.113636 13.727222 
L 73.227273 5.58 
L 75.340909 6.931242 
L 77.454545 20.060848 
L 79.568182 25.840453 
L 81.681818 17.019117 
L 83.795455 17.061541 
L 85.909091 11.656499 
L 88.022727 16.133315 
L 90.136364 30.78 
L 92.25 29.598811 
L 94.363636 27.824785 
L 96.477273 20.8606 
L 98.590909 14.273275 
L 100.704545 12.966 
L 102.818182 16.216871 
L 104.931818 19.088171 
L 107.045455 28.160963 
L 109.159091 19.934259 
L 111.272727 24.236499 
L 113.386364 19.974691 
L 115.5 14.318606 
L 117.613636 18.327792 
L 119.727273 18.540521 
L 121.840909 22.588308 
L 123.954545 20.945663 
L 126.068182 27.951626 
L 128.181818 27.403868 
L 130.295455 29.555903 
L 132.409091 23.984361 
L 134.522727 21.282612 
L 136.636364 16.386835 
L 138.75 12.292783 
L 140.863636 23.137645 
L 142.977273 24.574112 
L 145.090909 20.69243 
L 147.204545 11.534307 
L 149.318182 14.526615 
L 151.431818 12.672264 
L 153.545455 18.41264 
L 155.659091 20.565608 
" clip-path="url(#p240acea53f)" style="fill: none; stroke: #90ee90; stroke-width: 2; stroke-linecap: square"/>
   </g>
   <g id="line2d_2">
    <path d="M 28.840909 17.613622 
L 30.954545 21.223453 
L 33.068182 16.831916 
L 35.181818 18.197424 
L 37.295455 20.833243 
L 39.409091 19.85811 
L 41.522727 22.687271 
L 43.636364 21.416422 
L 45.75 22.784793 
L 47.863636 24.93039 
L 49.977273 27.077398 
L 52.090909 17.904237 
L 54.204545 19.174091 
L 56.318182 18.58892 
L 58.431818 21.418081 
L 60.545455 21.321555 
L 62.659091 19.565173 
L 64.772727 16.345304 
L 66.886364 19.077441 
L 69 17.710605 
L 71.113636 15.466863 
L 73.227273 9.515189 
L 75.340909 14.977348 
L 77.454545 23.952811 
L 79.568182 23.760215 
L 81.681818 22.100275 
L 83.795455 17.711683 
L 85.909091 17.71131 
L 88.022727 18.882522 
L 90.136364 23.858276 
L 92.25 24.833947 
L 94.363636 23.663565 
L 96.477273 20.148269 
L 98.590909 13.711684 
L 100.704545 16.053071 
L 102.818182 18.101313 
L 104.931818 20.63737 
L 107.045455 23.857571 
L 109.159091 24.540346 
L 111.272727 23.761169 
L 113.386364 23.659665 
L 115.5 15.467859 
L 117.613636 18.002962 
L 119.727273 17.319606 
L 121.840909 15.076943 
L 123.954545 15.956255 
L 126.068182 22.687105 
L 128.181818 25.711931 
L 130.295455 26.588919 
L 132.409091 22.003998 
L 134.522727 20.443405 
L 136.636364 17.417128 
L 138.75 10.395538 
L 140.863636 19.566168 
L 142.977273 21.321804 
L 145.090909 16.929603 
L 147.204545 12.050624 
L 149.318182 10.979007 
L 151.431818 16.831127 
L 153.545455 21.028659 
L 155.659091 16.24716 
" clip-path="url(#p240acea53f)" style="fill: none; stroke: #8b0000; stroke-opacity: 0.6; stroke-width: 2; stroke-linecap: square"/>
   </g>
   <g id="patch_3">
    <path d="M 22.5 32.04 
L 22.5 4.32 
" style="fill: none; stroke: #000000; stroke-width: 0.8; stroke-linejoin: miter; stroke-linecap: square"/>
   </g>
   <g id="patch_4">
    <path d="M 162 32.04 
L 162 4.32 
" style="fill: none; stroke: #000000; stroke-width: 0.8; stroke-linejoin: miter; stroke-linecap: square"/>
   </g>
   <g id="patch_5">
    <path d="M 22.5 32.04 
L 162 32.04 
" style="fill: none; stroke: #000000; stroke-width: 0.8; stroke-linejoin: miter; stroke-linecap: square"/>
   </g>
   <g id="patch_6">
    <path d="M 22.5 4.32 
L 162 4.32 
" style="fill: none; stroke: #000000; stroke-width: 0.8; stroke-linejoin: miter; stroke-linecap: square"/>
   </g>
  </g>
 </g>
 <defs>
  <clipPath id="p240acea53f">
   <rect x="22.5" y="4.32" width="139.5" height="27.72"/>
  </clipPath>
 </defs>
</svg>
