<?xml version="1.0" encoding="utf-8" standalone="no"?>
<!DOCTYPE svg PUBLIC "-//W3C//DTD SVG 1.1//EN"
  "http://www.w3.org/Graphics/SVG/1.1/DTD/svg11.dtd">
<svg xmlns:xlink="http://www.w3.org/1999/xlink" width="180pt" height="36pt" viewBox="0 0 180 36" xmlns="http://www.w3.org/2000/svg" version="1.1">
 <metadata>
  <rdf:RDF xmlns:dc="http://purl.org/dc/elements/1.1/" xmlns:cc="http://creativecommons.org/ns#" xmlns:rdf="http://www.w3.org/1999/02/22-rdf-syntax-ns#">
   <cc:Work>
    <dc:type rdf:resource="http://purl.org/dc/dcmitype/StillImage"/>
    <dc:date>2024-11-16T13:29:52.959737</dc:date>
    <dc:format>image/svg+xml</dc:format>
    <dc:creator>
     <cc:Agent>
      <dc:title>Matplotlib v3.9.1, https://matplotlib.org/</dc:title>
     </cc:Agent>
    </dc:creator>
   </cc:Work>
  </rdf:RDF>
 </metadata>
 <defs>
  <style type="text/css">*{stroke-linejoin: round; stroke-linecap: butt}</style>
 </defs>
 <g id="figure_1">
  <g id="patch_1">
   <path d="M 0 36 
L 180 36 
L 180 0 
L 0 0 
L 0 36 
z
" style="fill: none"/>
  </g>
  <g id="axes_1">
   <g id="patch_2">
    <path d="M 22.5 32.04 
L 162 32.04 
L 162 4.32 
L 22.5 4.32 
L 22.5 32.04 
z
" style="fill: none"/>
   </g>
   <g id="matplotlib.axis_1">
    <g id="xtick_1"/>
    <g id="xtick_2"/>
    <g id="xtick_3"/>
    <g id="xtick_4"/>
   </g>
   <g id="matplotlib.axis_2">
    <g id="ytick_1"/>
    <g id="ytick_2"/>
   </g>
   <g id="line2d_1">
    <path d="M 28.840909 29.681725 
L 30.954545 26.561683 
L 33.068182 30.677102 
L 35.181818 30.641751 
L 37.295455 30.78 
L 39.409091 29.86989 
L 41.522727 28.547416 
L 43.636364 24.279092 
L 45.75 26.31921 
L 47.863636 25.923279 
L 49.977273 21.651053 
L 52.090909 26.198051 
L 54.204545 24.741204 
L 56.318182 26.902198 
L 58.431818 21.071761 
L 60.545455 19.317696 
L 62.659091 19.574348 
L 64.772727 21.310628 
L 66.886364 21.499372 
L 69 20.794465 
L 71.113636 24.741797 
L 73.227273 25.444476 
L 75.340909 21.531774 
L 77.454545 22.391505 
L 79.568182 21.619385 
L 81.681818 16.492155 
L 83.795455 14.911922 
L 85.909091 12.733169 
L 88.022727 19.956125 
L 90.136364 15.203075 
L 92.25 14.329153 
L 94.363636 7.998792 
L 96.477273 11.428699 
L 98.590909 9.366894 
L 100.704545 8.806391 
L 102.818182 13.284258 
L 104.931818 12.424373 
L 107.045455 13.179609 
L 109.159091 14.447865 
L 111.272727 18.068564 
L 113.386364 23.728467 
L 115.5 26.062996 
L 117.613636 20.418109 
L 119.727273 19.336009 
L 121.840909 18.838932 
L 123.954545 13.694406 
L 126.068182 5.58 
L 128.181818 17.79441 
L 130.295455 15.356996 
L 132.409091 13.128456 
L 134.522727 15.768368 
L 136.636364 11.31537 
L 138.75 22.650217 
L 140.863636 21.893964 
L 142.977273 20.109339 
L 145.090909 11.8598 
L 147.204545 22.031144 
L 149.318182 23.095201 
L 151.431818 19.972623 
L 153.545455 19.868914 
L 155.659091 18.871874 
" clip-path="url(#pb80a191c9c)" style="fill: none; stroke: #90ee90; stroke-width: 2; stroke-linecap: square"/>
   </g>
   <g id="line2d_2">
    <path d="M 28.840909 28.317412 
L 30.954545 26.692096 
L 33.068182 30.334197 
L 35.181818 28.318487 
L 37.295455 29.488742 
L 39.409091 28.057524 
L 41.522727 27.732041 
L 43.636364 24.805475 
L 45.75 27.53677 
L 47.863636 25.323982 
L 49.977273 21.095923 
L 52.090909 22.657159 
L 54.204545 25.518715 
L 56.318182 24.413665 
L 58.431818 20.640813 
L 60.545455 21.356251 
L 62.659091 22.591124 
L 64.772727 21.291243 
L 66.886364 20.576488 
L 69 22.720702 
L 71.113636 24.866528 
L 73.227273 20.640716 
L 75.340909 19.795114 
L 77.454545 19.405403 
L 79.568182 19.922054 
L 81.681818 18.686546 
L 83.795455 16.801195 
L 85.909091 13.02595 
L 88.022727 19.531074 
L 90.136364 17.583937 
L 92.25 15.304089 
L 94.363636 9.777516 
L 96.477273 11.14309 
L 98.590909 7.694501 
L 100.704545 10.751719 
L 102.818182 19.920296 
L 104.931818 14.721599 
L 107.045455 14.718522 
L 109.159091 16.346818 
L 111.272727 20.379313 
L 113.386364 21.877493 
L 115.5 22.656621 
L 117.613636 16.411729 
L 119.727273 10.360885 
L 121.840909 20.053586 
L 123.954545 16.019918 
L 126.068182 10.032178 
L 128.181818 16.80183 
L 130.295455 16.087369 
L 132.409091 17.452161 
L 134.522727 18.168625 
L 136.636364 18.426267 
L 138.75 18.945702 
L 140.863636 23.176789 
L 142.977273 18.687523 
L 145.090909 16.994658 
L 147.204545 19.402961 
L 149.318182 23.632632 
L 151.431818 15.629817 
L 153.545455 19.01325 
L 155.659091 15.760713 
" clip-path="url(#pb80a191c9c)" style="fill: none; stroke: #8b0000; stroke-opacity: 0.6; stroke-width: 2; stroke-linecap: square"/>
   </g>
   <g id="patch_3">
    <path d="M 22.5 32.04 
L 22.5 4.32 
" style="fill: none; stroke: #000000; stroke-width: 0.8; stroke-linejoin: miter; stroke-linecap: square"/>
   </g>
   <g id="patch_4">
    <path d="M 162 32.04 
L 162 4.32 
" style="fill: none; stroke: #000000; stroke-width: 0.8; stroke-linejoin: miter; stroke-linecap: square"/>
   </g>
   <g id="patch_5">
    <path d="M 22.5 32.04 
L 162 32.04 
" style="fill: none; stroke: #000000; stroke-width: 0.8; stroke-linejoin: miter; stroke-linecap: square"/>
   </g>
   <g id="patch_6">
    <path d="M 22.5 4.32 
L 162 4.32 
" style="fill: none; stroke: #000000; stroke-width: 0.8; stroke-linejoin: miter; stroke-linecap: square"/>
   </g>
  </g>
 </g>
 <defs>
  <clipPath id="pb80a191c9c">
   <rect x="22.5" y="4.32" width="139.5" height="27.72"/>
  </clipPath>
 </defs>
</svg>
