<?xml version="1.0" encoding="utf-8" standalone="no"?>
<!DOCTYPE svg PUBLIC "-//W3C//DTD SVG 1.1//EN"
  "http://www.w3.org/Graphics/SVG/1.1/DTD/svg11.dtd">
<svg xmlns:xlink="http://www.w3.org/1999/xlink" width="180pt" height="36pt" viewBox="0 0 180 36" xmlns="http://www.w3.org/2000/svg" version="1.1">
 <metadata>
  <rdf:RDF xmlns:dc="http://purl.org/dc/elements/1.1/" xmlns:cc="http://creativecommons.org/ns#" xmlns:rdf="http://www.w3.org/1999/02/22-rdf-syntax-ns#">
   <cc:Work>
    <dc:type rdf:resource="http://purl.org/dc/dcmitype/StillImage"/>
    <dc:date>2024-11-16T13:30:00.647624</dc:date>
    <dc:format>image/svg+xml</dc:format>
    <dc:creator>
     <cc:Agent>
      <dc:title>Matplotlib v3.9.1, https://matplotlib.org/</dc:title>
     </cc:Agent>
    </dc:creator>
   </cc:Work>
  </rdf:RDF>
 </metadata>
 <defs>
  <style type="text/css">*{stroke-linejoin: round; stroke-linecap: butt}</style>
 </defs>
 <g id="figure_1">
  <g id="patch_1">
   <path d="M 0 36 
L 180 36 
L 180 0 
L 0 0 
L 0 36 
z
" style="fill: none"/>
  </g>
  <g id="axes_1">
   <g id="patch_2">
    <path d="M 22.5 32.04 
L 162 32.04 
L 162 4.32 
L 22.5 4.32 
L 22.5 32.04 
z
" style="fill: none"/>
   </g>
   <g id="matplotlib.axis_1">
    <g id="xtick_1"/>
    <g id="xtick_2"/>
    <g id="xtick_3"/>
    <g id="xtick_4"/>
   </g>
   <g id="matplotlib.axis_2">
    <g id="ytick_1"/>
    <g id="ytick_2"/>
   </g>
   <g id="line2d_1">
    <path d="M 28.840909 9.478133 
L 30.954545 18.617065 
L 33.068182 11.705922 
L 35.181818 14.856724 
L 37.295455 14.460936 
L 39.409091 16.475168 
L 41.522727 18.530146 
L 43.636364 18.793582 
L 45.75 18.66176 
L 47.863636 16.083552 
L 49.977273 21.637794 
L 52.090909 24.743581 
L 54.204545 24.00015 
L 56.318182 22.90622 
L 58.431818 23.78128 
L 60.545455 18.137391 
L 62.659091 11.706291 
L 64.772727 5.58 
L 66.886364 9.736723 
L 69 12.581175 
L 71.113636 16.736822 
L 73.227273 17.001607 
L 75.340909 22.292653 
L 77.454545 26.930462 
L 79.568182 22.905658 
L 81.681818 23.649041 
L 83.795455 19.801043 
L 85.909091 24.743035 
L 88.022727 23.387723 
L 90.136364 23.211591 
L 92.25 26.71132 
L 94.363636 27.280961 
L 96.477273 26.405965 
L 98.590909 29.774449 
L 100.704545 24.787088 
L 102.818182 23.211238 
L 104.931818 24.962899 
L 107.045455 28.243711 
L 109.159091 27.892858 
L 111.272727 26.144438 
L 113.386364 26.756191 
L 115.5 26.624048 
L 117.613636 27.455649 
L 119.727273 27.017814 
L 121.840909 28.943698 
L 123.954545 29.511575 
L 126.068182 30.299749 
L 128.181818 28.287282 
L 130.295455 27.498755 
L 132.409091 28.549483 
L 134.522727 29.512778 
L 136.636364 28.986596 
L 138.75 30.78 
L 140.863636 29.118386 
L 142.977273 29.161428 
L 145.090909 26.096662 
L 147.204545 25.748779 
L 149.318182 24.43752 
L 151.431818 29.555933 
L 153.545455 28.637268 
L 155.659091 24.657512 
" clip-path="url(#p6811957fbf)" style="fill: none; stroke: #90ee90; stroke-width: 2; stroke-linecap: square"/>
   </g>
   <g id="line2d_2">
    <path d="M 28.840909 19.843891 
L 30.954545 18.811349 
L 33.068182 15.325898 
L 35.181818 20.747915 
L 37.295455 15.584827 
L 39.409091 17.906661 
L 41.522727 20.616746 
L 43.636364 16.746407 
L 45.75 19.198321 
L 47.863636 21.651893 
L 49.977273 21.653124 
L 52.090909 18.942281 
L 54.204545 26.684665 
L 56.318182 26.297408 
L 58.431818 26.943878 
L 60.545455 22.812147 
L 62.659091 13.133576 
L 64.772727 6.676649 
L 66.886364 8.871102 
L 69 7.971055 
L 71.113636 16.357777 
L 73.227273 25.652028 
L 75.340909 23.845825 
L 77.454545 27.201196 
L 79.568182 26.169412 
L 81.681818 25.264819 
L 83.795455 25.137107 
L 85.909091 29.137668 
L 88.022727 25.651886 
L 90.136364 23.845399 
L 92.25 26.812614 
L 94.363636 26.16837 
L 96.477273 25.654396 
L 98.590909 27.719148 
L 100.704545 24.362215 
L 102.818182 25.264961 
L 104.931818 25.26605 
L 107.045455 27.848234 
L 109.159091 28.106121 
L 111.272727 29.654626 
L 113.386364 23.845636 
L 115.5 22.040049 
L 117.613636 25.524363 
L 119.727273 25.524363 
L 121.840909 29.913696 
L 123.954545 27.717254 
L 126.068182 27.073058 
L 128.181818 26.16856 
L 130.295455 26.0408 
L 132.409091 23.071786 
L 134.522727 25.265529 
L 136.636364 28.492809 
L 138.75 26.943783 
L 140.863636 25.652502 
L 142.977273 22.554923 
L 145.090909 21.006418 
L 147.204545 25.39523 
L 149.318182 24.877278 
L 151.431818 20.748815 
L 153.545455 21.910774 
L 155.659091 24.877989 
" clip-path="url(#p6811957fbf)" style="fill: none; stroke: #8b0000; stroke-opacity: 0.6; stroke-width: 2; stroke-linecap: square"/>
   </g>
   <g id="patch_3">
    <path d="M 22.5 32.04 
L 22.5 4.32 
" style="fill: none; stroke: #000000; stroke-width: 0.8; stroke-linejoin: miter; stroke-linecap: square"/>
   </g>
   <g id="patch_4">
    <path d="M 162 32.04 
L 162 4.32 
" style="fill: none; stroke: #000000; stroke-width: 0.8; stroke-linejoin: miter; stroke-linecap: square"/>
   </g>
   <g id="patch_5">
    <path d="M 22.5 32.04 
L 162 32.04 
" style="fill: none; stroke: #000000; stroke-width: 0.8; stroke-linejoin: miter; stroke-linecap: square"/>
   </g>
   <g id="patch_6">
    <path d="M 22.5 4.32 
L 162 4.32 
" style="fill: none; stroke: #000000; stroke-width: 0.8; stroke-linejoin: miter; stroke-linecap: square"/>
   </g>
  </g>
 </g>
 <defs>
  <clipPath id="p6811957fbf">
   <rect x="22.5" y="4.32" width="139.5" height="27.72"/>
  </clipPath>
 </defs>
</svg>
