<?xml version="1.0" encoding="utf-8" standalone="no"?>
<!DOCTYPE svg PUBLIC "-//W3C//DTD SVG 1.1//EN"
  "http://www.w3.org/Graphics/SVG/1.1/DTD/svg11.dtd">
<svg xmlns:xlink="http://www.w3.org/1999/xlink" width="180pt" height="36pt" viewBox="0 0 180 36" xmlns="http://www.w3.org/2000/svg" version="1.1">
 <metadata>
  <rdf:RDF xmlns:dc="http://purl.org/dc/elements/1.1/" xmlns:cc="http://creativecommons.org/ns#" xmlns:rdf="http://www.w3.org/1999/02/22-rdf-syntax-ns#">
   <cc:Work>
    <dc:type rdf:resource="http://purl.org/dc/dcmitype/StillImage"/>
    <dc:date>2024-11-16T13:29:49.821938</dc:date>
    <dc:format>image/svg+xml</dc:format>
    <dc:creator>
     <cc:Agent>
      <dc:title>Matplotlib v3.9.1, https://matplotlib.org/</dc:title>
     </cc:Agent>
    </dc:creator>
   </cc:Work>
  </rdf:RDF>
 </metadata>
 <defs>
  <style type="text/css">*{stroke-linejoin: round; stroke-linecap: butt}</style>
 </defs>
 <g id="figure_1">
  <g id="patch_1">
   <path d="M 0 36 
L 180 36 
L 180 0 
L 0 0 
L 0 36 
z
" style="fill: none"/>
  </g>
  <g id="axes_1">
   <g id="patch_2">
    <path d="M 22.5 32.04 
L 162 32.04 
L 162 4.32 
L 22.5 4.32 
L 22.5 32.04 
z
" style="fill: none"/>
   </g>
   <g id="matplotlib.axis_1">
    <g id="xtick_1"/>
    <g id="xtick_2"/>
    <g id="xtick_3"/>
    <g id="xtick_4"/>
   </g>
   <g id="matplotlib.axis_2">
    <g id="ytick_1"/>
    <g id="ytick_2"/>
   </g>
   <g id="line2d_1">
    <path d="M 28.840909 15.361208 
L 30.954545 12.39139 
L 33.068182 11.603831 
L 35.181818 6.714006 
L 37.295455 15.492413 
L 39.409091 20.777785 
L 41.522727 16.715907 
L 43.636364 5.58 
L 45.75 12.697278 
L 47.863636 16.45301 
L 49.977273 21.4759 
L 52.090909 15.886787 
L 54.204545 22.961546 
L 56.318182 30.78 
L 58.431818 29.119586 
L 60.545455 25.450565 
L 62.659091 21.999847 
L 64.772727 16.934196 
L 66.886364 13.483492 
L 69 11.823092 
L 71.113636 14.836631 
L 73.227273 20.036278 
L 75.340909 24.490483 
L 77.454545 25.495087 
L 79.568182 21.34571 
L 81.681818 18.943188 
L 83.795455 20.252793 
L 85.909091 24.096095 
L 88.022727 22.306393 
L 90.136364 22.612338 
L 92.25 21.432522 
L 94.363636 23.180235 
L 96.477273 22.220311 
L 98.590909 21.782345 
L 100.704545 22.612238 
L 102.818182 28.944989 
L 104.931818 28.289779 
L 107.045455 24.926889 
L 109.159091 24.009484 
L 111.272727 24.096296 
L 113.386364 17.458472 
L 115.5 17.633441 
L 117.613636 22.262772 
L 119.727273 23.9226 
L 121.840909 27.459987 
L 123.954545 24.010099 
L 126.068182 21.170799 
L 128.181818 22.786877 
L 130.295455 25.888187 
L 132.409091 24.621502 
L 134.522727 21.913493 
L 136.636364 21.870516 
L 138.75 22.743142 
L 140.863636 18.11414 
L 142.977273 23.180049 
L 145.090909 21.651054 
L 147.204545 14.793068 
L 149.318182 19.074436 
L 151.431818 22.699722 
L 153.545455 19.336446 
L 155.659091 21.258083 
" clip-path="url(#pafc15eaf1e)" style="fill: none; stroke: #90ee90; stroke-width: 2; stroke-linecap: square"/>
   </g>
   <g id="line2d_2">
    <path d="M 28.840909 17.340776 
L 30.954545 17.638154 
L 33.068182 12.987521 
L 35.181818 12.098723 
L 37.295455 17.934528 
L 39.409091 21.989562 
L 41.522727 17.142588 
L 43.636364 15.757447 
L 45.75 18.329996 
L 47.863636 19.418342 
L 49.977273 19.912579 
L 52.090909 18.923262 
L 54.204545 24.166838 
L 56.318182 25.650813 
L 58.431818 28.22252 
L 60.545455 25.451816 
L 62.659091 21.19733 
L 64.772727 20.603967 
L 66.886364 18.132003 
L 69 9.23006 
L 71.113636 15.461624 
L 73.227273 21.297915 
L 75.340909 24.562402 
L 77.454545 23.771629 
L 79.568182 19.418115 
L 81.681818 23.573442 
L 83.795455 18.527891 
L 85.909091 24.265413 
L 88.022727 18.923845 
L 90.136364 20.308241 
L 92.25 20.011414 
L 94.363636 21.792249 
L 96.477273 25.156576 
L 98.590909 21.00099 
L 100.704545 23.276938 
L 102.818182 28.024948 
L 104.931818 28.519801 
L 107.045455 24.859522 
L 109.159091 24.661626 
L 111.272727 20.703126 
L 113.386364 16.6478 
L 115.5 18.329607 
L 117.613636 18.232555 
L 119.727273 24.561722 
L 121.840909 25.057223 
L 123.954545 23.275836 
L 126.068182 21.989627 
L 128.181818 24.266158 
L 130.295455 24.562305 
L 132.409091 22.782085 
L 134.522727 20.407918 
L 136.636364 21.495616 
L 138.75 21.297947 
L 140.863636 18.923748 
L 142.977273 18.725528 
L 145.090909 15.462175 
L 147.204545 14.569813 
L 149.318182 14.570363 
L 151.431818 17.143107 
L 153.545455 21.297105 
L 155.659091 19.616043 
" clip-path="url(#pafc15eaf1e)" style="fill: none; stroke: #8b0000; stroke-opacity: 0.6; stroke-width: 2; stroke-linecap: square"/>
   </g>
   <g id="patch_3">
    <path d="M 22.5 32.04 
L 22.5 4.32 
" style="fill: none; stroke: #000000; stroke-width: 0.8; stroke-linejoin: miter; stroke-linecap: square"/>
   </g>
   <g id="patch_4">
    <path d="M 162 32.04 
L 162 4.32 
" style="fill: none; stroke: #000000; stroke-width: 0.8; stroke-linejoin: miter; stroke-linecap: square"/>
   </g>
   <g id="patch_5">
    <path d="M 22.5 32.04 
L 162 32.04 
" style="fill: none; stroke: #000000; stroke-width: 0.8; stroke-linejoin: miter; stroke-linecap: square"/>
   </g>
   <g id="patch_6">
    <path d="M 22.5 4.32 
L 162 4.32 
" style="fill: none; stroke: #000000; stroke-width: 0.8; stroke-linejoin: miter; stroke-linecap: square"/>
   </g>
  </g>
 </g>
 <defs>
  <clipPath id="pafc15eaf1e">
   <rect x="22.5" y="4.32" width="139.5" height="27.72"/>
  </clipPath>
 </defs>
</svg>
