<?xml version="1.0" encoding="utf-8" standalone="no"?>
<!DOCTYPE svg PUBLIC "-//W3C//DTD SVG 1.1//EN"
  "http://www.w3.org/Graphics/SVG/1.1/DTD/svg11.dtd">
<svg xmlns:xlink="http://www.w3.org/1999/xlink" width="360pt" height="72pt" viewBox="0 0 360 72" xmlns="http://www.w3.org/2000/svg" version="1.1">
 <metadata>
  <rdf:RDF xmlns:dc="http://purl.org/dc/elements/1.1/" xmlns:cc="http://creativecommons.org/ns#" xmlns:rdf="http://www.w3.org/1999/02/22-rdf-syntax-ns#">
   <cc:Work>
    <dc:type rdf:resource="http://purl.org/dc/dcmitype/StillImage"/>
    <dc:date>2024-11-16T13:24:28.305776</dc:date>
    <dc:format>image/svg+xml</dc:format>
    <dc:creator>
     <cc:Agent>
      <dc:title>Matplotlib v3.9.1, https://matplotlib.org/</dc:title>
     </cc:Agent>
    </dc:creator>
   </cc:Work>
  </rdf:RDF>
 </metadata>
 <defs>
  <style type="text/css">*{stroke-linejoin: round; stroke-linecap: butt}</style>
 </defs>
 <g id="figure_1">
  <g id="patch_1">
   <path d="M 0 72 
L 360 72 
L 360 0 
L 0 0 
z
" style="fill: #ffffff"/>
  </g>
  <g id="axes_1">
   <g id="patch_2">
    <path d="M 45 64.08 
L 324 64.08 
L 324 8.64 
L 45 8.64 
z
" style="fill: #ffffff"/>
   </g>
   <g id="matplotlib.axis_1">
    <g id="xtick_1">
     <g id="line2d_1">
      <defs>
       <path id="m231ee8f3af" d="M 0 0 
L 0 3.5 
" style="stroke: #000000; stroke-width: 0.8"/>
      </defs>
      <g>
       <use xlink:href="#m231ee8f3af" x="57.681818" y="64.08" style="stroke: #000000; stroke-width: 0.8"/>
      </g>
     </g>
     <g id="text_1">
      <text style="font: 8px 'DejaVu Sans', 'Bitstream Vera Sans', 'Computer Modern Sans Serif', 'Lucida Grande', 'Verdana', 'Geneva', 'Lucid', 'Arial', 'Helvetica', 'Avant Garde', sans-serif; text-anchor: middle" x="57.681818" y="77.15875" transform="rotate(-0 57.681818 77.15875)">0</text>
     </g>
    </g>
    <g id="xtick_2">
     <g id="line2d_2">
      <g>
       <use xlink:href="#m231ee8f3af" x="91.5" y="64.08" style="stroke: #000000; stroke-width: 0.8"/>
      </g>
     </g>
     <g id="text_2">
      <text style="font: 8px 'DejaVu Sans', 'Bitstream Vera Sans', 'Computer Modern Sans Serif', 'Lucida Grande', 'Verdana', 'Geneva', 'Lucid', 'Arial', 'Helvetica', 'Avant Garde', sans-serif; text-anchor: middle" x="91.5" y="77.15875" transform="rotate(-0 91.5 77.15875)">2</text>
     </g>
    </g>
    <g id="xtick_3">
     <g id="line2d_3">
      <g>
       <use xlink:href="#m231ee8f3af" x="125.318182" y="64.08" style="stroke: #000000; stroke-width: 0.8"/>
      </g>
     </g>
     <g id="text_3">
      <text style="font: 8px 'DejaVu Sans', 'Bitstream Vera Sans', 'Computer Modern Sans Serif', 'Lucida Grande', 'Verdana', 'Geneva', 'Lucid', 'Arial', 'Helvetica', 'Avant Garde', sans-serif; text-anchor: middle" x="125.318182" y="77.15875" transform="rotate(-0 125.318182 77.15875)">4</text>
     </g>
    </g>
    <g id="xtick_4">
     <g id="line2d_4">
      <g>
       <use xlink:href="#m231ee8f3af" x="159.136364" y="64.08" style="stroke: #000000; stroke-width: 0.8"/>
      </g>
     </g>
     <g id="text_4">
      <text style="font: 8px 'DejaVu Sans', 'Bitstream Vera Sans', 'Computer Modern Sans Serif', 'Lucida Grande', 'Verdana', 'Geneva', 'Lucid', 'Arial', 'Helvetica', 'Avant Garde', sans-serif; text-anchor: middle" x="159.136364" y="77.15875" transform="rotate(-0 159.136364 77.15875)">6</text>
     </g>
    </g>
    <g id="xtick_5">
     <g id="line2d_5">
      <g>
       <use xlink:href="#m231ee8f3af" x="192.954545" y="64.08" style="stroke: #000000; stroke-width: 0.8"/>
      </g>
     </g>
     <g id="text_5">
      <text style="font: 8px 'DejaVu Sans', 'Bitstream Vera Sans', 'Computer Modern Sans Serif', 'Lucida Grande', 'Verdana', 'Geneva', 'Lucid', 'Arial', 'Helvetica', 'Avant Garde', sans-serif; text-anchor: middle" x="192.954545" y="77.15875" transform="rotate(-0 192.954545 77.15875)">8</text>
     </g>
    </g>
    <g id="xtick_6">
     <g id="line2d_6">
      <g>
       <use xlink:href="#m231ee8f3af" x="226.772727" y="64.08" style="stroke: #000000; stroke-width: 0.8"/>
      </g>
     </g>
     <g id="text_6">
      <text style="font: 8px 'DejaVu Sans', 'Bitstream Vera Sans', 'Computer Modern Sans Serif', 'Lucida Grande', 'Verdana', 'Geneva', 'Lucid', 'Arial', 'Helvetica', 'Avant Garde', sans-serif; text-anchor: middle" x="226.772727" y="77.15875" transform="rotate(-0 226.772727 77.15875)">10</text>
     </g>
    </g>
    <g id="xtick_7">
     <g id="line2d_7">
      <g>
       <use xlink:href="#m231ee8f3af" x="260.590909" y="64.08" style="stroke: #000000; stroke-width: 0.8"/>
      </g>
     </g>
     <g id="text_7">
      <text style="font: 8px 'DejaVu Sans', 'Bitstream Vera Sans', 'Computer Modern Sans Serif', 'Lucida Grande', 'Verdana', 'Geneva', 'Lucid', 'Arial', 'Helvetica', 'Avant Garde', sans-serif; text-anchor: middle" x="260.590909" y="77.15875" transform="rotate(-0 260.590909 77.15875)">12</text>
     </g>
    </g>
    <g id="xtick_8">
     <g id="line2d_8">
      <g>
       <use xlink:href="#m231ee8f3af" x="294.409091" y="64.08" style="stroke: #000000; stroke-width: 0.8"/>
      </g>
     </g>
     <g id="text_8">
      <text style="font: 8px 'DejaVu Sans', 'Bitstream Vera Sans', 'Computer Modern Sans Serif', 'Lucida Grande', 'Verdana', 'Geneva', 'Lucid', 'Arial', 'Helvetica', 'Avant Garde', sans-serif; text-anchor: middle" x="294.409091" y="77.15875" transform="rotate(-0 294.409091 77.15875)">14</text>
     </g>
    </g>
    <g id="text_9">
     <text style="font: 8px 'DejaVu Sans', 'Bitstream Vera Sans', 'Computer Modern Sans Serif', 'Lucida Grande', 'Verdana', 'Geneva', 'Lucid', 'Arial', 'Helvetica', 'Avant Garde', sans-serif; text-anchor: middle" x="184.5" y="88.90125" transform="rotate(-0 184.5 88.90125)">Time (minutes)</text>
    </g>
   </g>
   <g id="matplotlib.axis_2">
    <g id="ytick_1">
     <g id="line2d_9">
      <defs>
       <path id="m14a3d94651" d="M 0 0 
L -3.5 0 
" style="stroke: #000000; stroke-width: 0.8"/>
      </defs>
      <g>
       <use xlink:href="#m14a3d94651" x="45" y="55.241633" style="stroke: #000000; stroke-width: 0.8"/>
      </g>
     </g>
     <g id="text_10">
      <text style="font: 8px 'DejaVu Sans', 'Bitstream Vera Sans', 'Computer Modern Sans Serif', 'Lucida Grande', 'Verdana', 'Geneva', 'Lucid', 'Arial', 'Helvetica', 'Avant Garde', sans-serif; text-anchor: end" x="38" y="58.281008" transform="rotate(-0 38 58.281008)">500</text>
     </g>
    </g>
    <g id="ytick_2">
     <g id="line2d_10">
      <g>
       <use xlink:href="#m14a3d94651" x="45" y="18.506939" style="stroke: #000000; stroke-width: 0.8"/>
      </g>
     </g>
     <g id="text_11">
      <text style="font: 8px 'DejaVu Sans', 'Bitstream Vera Sans', 'Computer Modern Sans Serif', 'Lucida Grande', 'Verdana', 'Geneva', 'Lucid', 'Arial', 'Helvetica', 'Avant Garde', sans-serif; text-anchor: end" x="38" y="21.546314" transform="rotate(-0 38 21.546314)">1000</text>
     </g>
    </g>
    <g id="text_12">
     <text style="font: 8px 'DejaVu Sans', 'Bitstream Vera Sans', 'Computer Modern Sans Serif', 'Lucida Grande', 'Verdana', 'Geneva', 'Lucid', 'Arial', 'Helvetica', 'Avant Garde', sans-serif; text-anchor: middle" x="11.97625" y="36.36" transform="rotate(-90 11.97625 36.36)">Fluoresence</text>
    </g>
   </g>
   <g id="line2d_11">
    <path d="M 57.681818 32.392653 
L 61.909091 41.796735 
L 66.136364 35.845714 
L 70.363636 30.188571 
L 74.590909 31.217143 
L 78.818182 43.780408 
L 83.045455 47.527347 
L 87.272727 30.555918 
L 91.5 44.294694 
L 95.727273 61.413061 
L 99.954545 56.931429 
L 104.181818 38.78449 
L 108.409091 31.364082 
L 112.636364 32.466122 
L 116.863636 30.996735 
L 121.090909 46.351837 
L 125.318182 44.515102 
L 129.545455 44.662041 
L 133.772727 40.768163 
L 138 31.143673 
L 142.227273 29.453878 
L 146.454545 11.16 
L 150.681818 15.862041 
L 154.909091 43.927347 
L 159.136364 48.188571 
L 163.363636 33.715102 
L 167.590909 34.670204 
L 171.818182 15.568163 
L 176.045455 34.523265 
L 180.272727 61.56 
L 184.5 60.531429 
L 188.727273 53.845714 
L 192.954545 42.531429 
L 197.181818 19.53551 
L 201.409091 22.106939 
L 205.636364 31.143673 
L 209.863636 40.768163 
L 214.090909 48.33551 
L 218.318182 43.706939 
L 222.545455 45.249796 
L 226.772727 42.898776 
L 231 32.392653 
L 235.227273 36.874286 
L 239.454545 41.282449 
L 243.681818 33.93551 
L 247.909091 45.323265 
L 252.136364 54.947755 
L 256.363636 56.71102 
L 260.590909 59.20898 
L 264.818182 49.364082 
L 269.045455 42.972245 
L 273.272727 36.066122 
L 277.5 29.600816 
L 281.727273 37.462041 
L 285.954545 45.617143 
L 290.181818 44.955918 
L 294.409091 29.086531 
L 298.636364 20.343673 
L 302.863636 28.645714 
L 307.090909 38.78449 
L 311.318182 43.927347 
" clip-path="url(#p90b0c7f7d6)" style="fill: none; stroke: #90ee90; stroke-width: 2; stroke-linecap: square"/>
   </g>
   <g id="line2d_12">
    <path d="M 57.681818 37.218924 
L 61.909091 43.510924 
L 66.136364 30.926924 
L 70.363636 31.777194 
L 74.590909 43.000761 
L 78.818182 43.34087 
L 83.045455 47.592221 
L 87.272727 35.008221 
L 91.5 47.592221 
L 95.727273 48.102383 
L 99.954545 54.394383 
L 104.181818 29.226384 
L 108.409091 37.729086 
L 112.636364 37.559032 
L 116.863636 41.810383 
L 121.090909 45.89168 
L 125.318182 41.810383 
L 129.545455 35.008221 
L 133.772727 41.300221 
L 138 35.008221 
L 142.227273 31.947249 
L 146.454545 20.213519 
L 150.681818 24.124762 
L 154.909091 38.409302 
L 159.136364 48.442491 
L 163.363636 39.939789 
L 167.590909 39.429627 
L 171.818182 37.89914 
L 176.045455 41.810383 
L 180.272727 50.483139 
L 184.5 52.18368 
L 188.727273 50.143031 
L 192.954545 33.477735 
L 197.181818 32.797519 
L 201.409091 36.368654 
L 205.636364 37.559032 
L 209.863636 39.599681 
L 214.090909 47.762275 
L 218.318182 48.272437 
L 222.545455 50.313085 
L 226.772727 36.028546 
L 231 35.858492 
L 235.227273 34.157951 
L 239.454545 31.267032 
L 243.681818 32.627465 
L 247.909091 36.708762 
L 252.136364 46.912005 
L 256.363636 53.714166 
L 260.590909 50.823248 
L 264.818182 45.04141 
L 269.045455 44.021086 
L 273.272727 31.267032 
L 277.5 27.015681 
L 281.727273 43.000761 
L 285.954545 46.061734 
L 290.181818 31.60714 
L 294.409091 19.703357 
L 298.636364 24.294816 
L 302.863636 27.695897 
L 307.090909 44.531248 
L 311.318182 32.457411 
" clip-path="url(#p90b0c7f7d6)" style="fill: none; stroke: #8b0000; stroke-opacity: 0.6; stroke-width: 2; stroke-linecap: square"/>
   </g>
   <g id="patch_3">
    <path d="M 45 64.08 
L 45 8.64 
" style="fill: none; stroke: #000000; stroke-width: 0.8; stroke-linejoin: miter; stroke-linecap: square"/>
   </g>
   <g id="patch_4">
    <path d="M 324 64.08 
L 324 8.64 
" style="fill: none; stroke: #000000; stroke-width: 0.8; stroke-linejoin: miter; stroke-linecap: square"/>
   </g>
   <g id="patch_5">
    <path d="M 45 64.08 
L 324 64.08 
" style="fill: none; stroke: #000000; stroke-width: 0.8; stroke-linejoin: miter; stroke-linecap: square"/>
   </g>
   <g id="patch_6">
    <path d="M 45 8.64 
L 324 8.64 
" style="fill: none; stroke: #000000; stroke-width: 0.8; stroke-linejoin: miter; stroke-linecap: square"/>
   </g>
  </g>
 </g>
 <defs>
  <clipPath id="p90b0c7f7d6">
   <rect x="45" y="8.64" width="279" height="55.44"/>
  </clipPath>
 </defs>
</svg>
