<?xml version="1.0" encoding="utf-8" standalone="no"?>
<!DOCTYPE svg PUBLIC "-//W3C//DTD SVG 1.1//EN"
  "http://www.w3.org/Graphics/SVG/1.1/DTD/svg11.dtd">
<svg xmlns:xlink="http://www.w3.org/1999/xlink" width="180pt" height="36pt" viewBox="0 0 180 36" xmlns="http://www.w3.org/2000/svg" version="1.1">
 <metadata>
  <rdf:RDF xmlns:dc="http://purl.org/dc/elements/1.1/" xmlns:cc="http://creativecommons.org/ns#" xmlns:rdf="http://www.w3.org/1999/02/22-rdf-syntax-ns#">
   <cc:Work>
    <dc:type rdf:resource="http://purl.org/dc/dcmitype/StillImage"/>
    <dc:date>2024-11-16T13:29:56.209465</dc:date>
    <dc:format>image/svg+xml</dc:format>
    <dc:creator>
     <cc:Agent>
      <dc:title>Matplotlib v3.9.1, https://matplotlib.org/</dc:title>
     </cc:Agent>
    </dc:creator>
   </cc:Work>
  </rdf:RDF>
 </metadata>
 <defs>
  <style type="text/css">*{stroke-linejoin: round; stroke-linecap: butt}</style>
 </defs>
 <g id="figure_1">
  <g id="patch_1">
   <path d="M 0 36 
L 180 36 
L 180 0 
L 0 0 
L 0 36 
z
" style="fill: none"/>
  </g>
  <g id="axes_1">
   <g id="patch_2">
    <path d="M 22.5 32.04 
L 162 32.04 
L 162 4.32 
L 22.5 4.32 
L 22.5 32.04 
z
" style="fill: none"/>
   </g>
   <g id="matplotlib.axis_1">
    <g id="xtick_1"/>
    <g id="xtick_2"/>
    <g id="xtick_3"/>
    <g id="xtick_4"/>
   </g>
   <g id="matplotlib.axis_2">
    <g id="ytick_1"/>
    <g id="ytick_2"/>
    <g id="ytick_3"/>
   </g>
   <g id="line2d_1">
    <path d="M 28.840909 5.58 
L 30.954545 10.001796 
L 33.068182 14.101531 
L 35.181818 19.216916 
L 37.295455 24.282184 
L 39.409091 25.804961 
L 41.522727 25.98905 
L 43.636364 22.439393 
L 45.75 16.313244 
L 47.863636 17.050807 
L 49.977273 16.631536 
L 52.090909 16.362011 
L 54.204545 14.793631 
L 56.318182 14.512473 
L 58.431818 19.262566 
L 60.545455 20.734435 
L 62.659091 22.717433 
L 64.772727 20.277565 
L 66.886364 29.352105 
L 69 23.869428 
L 71.113636 22.482623 
L 73.227273 16.548287 
L 75.340909 25.38918 
L 77.454545 23.26458 
L 79.568182 22.254467 
L 81.681818 19.399469 
L 83.795455 19.538466 
L 85.909091 20.644066 
L 88.022727 20.413444 
L 90.136364 21.565252 
L 92.25 18.986666 
L 94.363636 14.977998 
L 96.477273 8.165706 
L 98.590909 15.067297 
L 100.704545 16.128504 
L 102.818182 25.161816 
L 104.931818 27.601638 
L 107.045455 26.356528 
L 109.159091 30.78 
L 111.272727 27.371108 
L 113.386364 28.567217 
L 115.5 25.712591 
L 117.613636 22.16326 
L 119.727273 22.669084 
L 121.840909 21.566137 
L 123.954545 24.283813 
L 126.068182 23.224048 
L 128.181818 24.65306 
L 130.295455 23.915776 
L 132.409091 20.326565 
L 134.522727 23.314883 
L 136.636364 24.422531 
L 138.75 23.363697 
L 140.863636 25.851495 
L 142.977273 27.78554 
L 145.090909 28.75312 
L 147.204545 28.845071 
L 149.318182 28.246319 
L 151.431818 26.170998 
L 153.545455 21.934034 
L 155.659091 18.431376 
" clip-path="url(#p86a0baaecb)" style="fill: none; stroke: #90ee90; stroke-width: 2; stroke-linecap: square"/>
   </g>
   <g id="line2d_2">
    <path d="M 28.840909 13.084929 
L 30.954545 18.145084 
L 33.068182 18.723616 
L 35.181818 21.018329 
L 37.295455 24.271597 
L 39.409091 22.932635 
L 41.522727 22.644963 
L 43.636364 23.504116 
L 45.75 17.960869 
L 47.863636 20.924532 
L 49.977273 17.9543 
L 52.090909 17.579109 
L 54.204545 19.202941 
L 56.318182 15.8552 
L 58.431818 20.730657 
L 60.545455 21.020455 
L 62.659091 23.794203 
L 64.772727 21.787259 
L 66.886364 24.268988 
L 69 26.08911 
L 71.113636 21.977076 
L 73.227273 20.063833 
L 75.340909 22.263589 
L 77.454545 23.028848 
L 79.568182 22.837968 
L 81.681818 23.123998 
L 83.795455 20.829188 
L 85.909091 20.448008 
L 88.022727 21.118793 
L 90.136364 19.012834 
L 92.25 19.968779 
L 94.363636 14.035561 
L 96.477273 18.050803 
L 98.590909 15.379546 
L 100.704545 19.299251 
L 102.818182 23.028462 
L 104.931818 26.469614 
L 107.045455 24.844816 
L 109.159091 27.619048 
L 111.272727 27.428554 
L 113.386364 25.897361 
L 115.5 23.314202 
L 117.613636 20.924049 
L 119.727273 22.359609 
L 121.840909 20.637922 
L 123.954545 25.799216 
L 126.068182 22.455242 
L 128.181818 24.942188 
L 130.295455 22.262141 
L 132.409091 22.741369 
L 134.522727 21.402987 
L 136.636364 19.202265 
L 138.75 23.412637 
L 140.863636 21.78581 
L 142.977273 22.837002 
L 145.090909 25.037048 
L 147.204545 25.419195 
L 149.318182 25.420547 
L 151.431818 21.498717 
L 153.545455 19.012448 
L 155.659091 16.907358 
" clip-path="url(#p86a0baaecb)" style="fill: none; stroke: #8b0000; stroke-opacity: 0.6; stroke-width: 2; stroke-linecap: square"/>
   </g>
   <g id="patch_3">
    <path d="M 22.5 32.04 
L 22.5 4.32 
" style="fill: none; stroke: #000000; stroke-width: 0.8; stroke-linejoin: miter; stroke-linecap: square"/>
   </g>
   <g id="patch_4">
    <path d="M 162 32.04 
L 162 4.32 
" style="fill: none; stroke: #000000; stroke-width: 0.8; stroke-linejoin: miter; stroke-linecap: square"/>
   </g>
   <g id="patch_5">
    <path d="M 22.5 32.04 
L 162 32.04 
" style="fill: none; stroke: #000000; stroke-width: 0.8; stroke-linejoin: miter; stroke-linecap: square"/>
   </g>
   <g id="patch_6">
    <path d="M 22.5 4.32 
L 162 4.32 
" style="fill: none; stroke: #000000; stroke-width: 0.8; stroke-linejoin: miter; stroke-linecap: square"/>
   </g>
  </g>
 </g>
 <defs>
  <clipPath id="p86a0baaecb">
   <rect x="22.5" y="4.32" width="139.5" height="27.72"/>
  </clipPath>
 </defs>
</svg>
