<?xml version="1.0" encoding="utf-8" standalone="no"?>
<!DOCTYPE svg PUBLIC "-//W3C//DTD SVG 1.1//EN"
  "http://www.w3.org/Graphics/SVG/1.1/DTD/svg11.dtd">
<svg xmlns:xlink="http://www.w3.org/1999/xlink" width="360pt" height="72pt" viewBox="0 0 360 72" xmlns="http://www.w3.org/2000/svg" version="1.1">
 <metadata>
  <rdf:RDF xmlns:dc="http://purl.org/dc/elements/1.1/" xmlns:cc="http://creativecommons.org/ns#" xmlns:rdf="http://www.w3.org/1999/02/22-rdf-syntax-ns#">
   <cc:Work>
    <dc:type rdf:resource="http://purl.org/dc/dcmitype/StillImage"/>
    <dc:date>2024-11-15T17:44:24.756024</dc:date>
    <dc:format>image/svg+xml</dc:format>
    <dc:creator>
     <cc:Agent>
      <dc:title>Matplotlib v3.9.1, https://matplotlib.org/</dc:title>
     </cc:Agent>
    </dc:creator>
   </cc:Work>
  </rdf:RDF>
 </metadata>
 <defs>
  <style type="text/css">*{stroke-linejoin: round; stroke-linecap: butt}</style>
 </defs>
 <g id="figure_1">
  <g id="patch_1">
   <path d="M 0 72 
L 360 72 
L 360 0 
L 0 0 
z
" style="fill: #ffffff"/>
  </g>
  <g id="axes_1">
   <g id="patch_2">
    <path d="M 45 64.08 
L 324 64.08 
L 324 8.64 
L 45 8.64 
z
" style="fill: #ffffff"/>
   </g>
   <g id="matplotlib.axis_1">
    <g id="xtick_1">
     <g id="line2d_1">
      <defs>
       <path id="m0ce7f74733" d="M 0 0 
L 0 3.5 
" style="stroke: #000000; stroke-width: 0.8"/>
      </defs>
      <g>
       <use xlink:href="#m0ce7f74733" x="57.681818" y="64.08" style="stroke: #000000; stroke-width: 0.8"/>
      </g>
     </g>
     <g id="text_1">
      <text style="font: 8px 'DejaVu Sans', 'Bitstream Vera Sans', 'Computer Modern Sans Serif', 'Lucida Grande', 'Verdana', 'Geneva', 'Lucid', 'Arial', 'Helvetica', 'Avant Garde', sans-serif; text-anchor: middle" x="57.681818" y="77.15875" transform="rotate(-0 57.681818 77.15875)">0</text>
     </g>
    </g>
    <g id="xtick_2">
     <g id="line2d_2">
      <g>
       <use xlink:href="#m0ce7f74733" x="91.5" y="64.08" style="stroke: #000000; stroke-width: 0.8"/>
      </g>
     </g>
     <g id="text_2">
      <text style="font: 8px 'DejaVu Sans', 'Bitstream Vera Sans', 'Computer Modern Sans Serif', 'Lucida Grande', 'Verdana', 'Geneva', 'Lucid', 'Arial', 'Helvetica', 'Avant Garde', sans-serif; text-anchor: middle" x="91.5" y="77.15875" transform="rotate(-0 91.5 77.15875)">2</text>
     </g>
    </g>
    <g id="xtick_3">
     <g id="line2d_3">
      <g>
       <use xlink:href="#m0ce7f74733" x="125.318182" y="64.08" style="stroke: #000000; stroke-width: 0.8"/>
      </g>
     </g>
     <g id="text_3">
      <text style="font: 8px 'DejaVu Sans', 'Bitstream Vera Sans', 'Computer Modern Sans Serif', 'Lucida Grande', 'Verdana', 'Geneva', 'Lucid', 'Arial', 'Helvetica', 'Avant Garde', sans-serif; text-anchor: middle" x="125.318182" y="77.15875" transform="rotate(-0 125.318182 77.15875)">4</text>
     </g>
    </g>
    <g id="xtick_4">
     <g id="line2d_4">
      <g>
       <use xlink:href="#m0ce7f74733" x="159.136364" y="64.08" style="stroke: #000000; stroke-width: 0.8"/>
      </g>
     </g>
     <g id="text_4">
      <text style="font: 8px 'DejaVu Sans', 'Bitstream Vera Sans', 'Computer Modern Sans Serif', 'Lucida Grande', 'Verdana', 'Geneva', 'Lucid', 'Arial', 'Helvetica', 'Avant Garde', sans-serif; text-anchor: middle" x="159.136364" y="77.15875" transform="rotate(-0 159.136364 77.15875)">6</text>
     </g>
    </g>
    <g id="xtick_5">
     <g id="line2d_5">
      <g>
       <use xlink:href="#m0ce7f74733" x="192.954545" y="64.08" style="stroke: #000000; stroke-width: 0.8"/>
      </g>
     </g>
     <g id="text_5">
      <text style="font: 8px 'DejaVu Sans', 'Bitstream Vera Sans', 'Computer Modern Sans Serif', 'Lucida Grande', 'Verdana', 'Geneva', 'Lucid', 'Arial', 'Helvetica', 'Avant Garde', sans-serif; text-anchor: middle" x="192.954545" y="77.15875" transform="rotate(-0 192.954545 77.15875)">8</text>
     </g>
    </g>
    <g id="xtick_6">
     <g id="line2d_6">
      <g>
       <use xlink:href="#m0ce7f74733" x="226.772727" y="64.08" style="stroke: #000000; stroke-width: 0.8"/>
      </g>
     </g>
     <g id="text_6">
      <text style="font: 8px 'DejaVu Sans', 'Bitstream Vera Sans', 'Computer Modern Sans Serif', 'Lucida Grande', 'Verdana', 'Geneva', 'Lucid', 'Arial', 'Helvetica', 'Avant Garde', sans-serif; text-anchor: middle" x="226.772727" y="77.15875" transform="rotate(-0 226.772727 77.15875)">10</text>
     </g>
    </g>
    <g id="xtick_7">
     <g id="line2d_7">
      <g>
       <use xlink:href="#m0ce7f74733" x="260.590909" y="64.08" style="stroke: #000000; stroke-width: 0.8"/>
      </g>
     </g>
     <g id="text_7">
      <text style="font: 8px 'DejaVu Sans', 'Bitstream Vera Sans', 'Computer Modern Sans Serif', 'Lucida Grande', 'Verdana', 'Geneva', 'Lucid', 'Arial', 'Helvetica', 'Avant Garde', sans-serif; text-anchor: middle" x="260.590909" y="77.15875" transform="rotate(-0 260.590909 77.15875)">12</text>
     </g>
    </g>
    <g id="xtick_8">
     <g id="line2d_8">
      <g>
       <use xlink:href="#m0ce7f74733" x="294.409091" y="64.08" style="stroke: #000000; stroke-width: 0.8"/>
      </g>
     </g>
     <g id="text_8">
      <text style="font: 8px 'DejaVu Sans', 'Bitstream Vera Sans', 'Computer Modern Sans Serif', 'Lucida Grande', 'Verdana', 'Geneva', 'Lucid', 'Arial', 'Helvetica', 'Avant Garde', sans-serif; text-anchor: middle" x="294.409091" y="77.15875" transform="rotate(-0 294.409091 77.15875)">14</text>
     </g>
    </g>
    <g id="text_9">
     <text style="font: 8px 'DejaVu Sans', 'Bitstream Vera Sans', 'Computer Modern Sans Serif', 'Lucida Grande', 'Verdana', 'Geneva', 'Lucid', 'Arial', 'Helvetica', 'Avant Garde', sans-serif; text-anchor: middle" x="184.5" y="88.90125" transform="rotate(-0 184.5 88.90125)">Time (minutes)</text>
    </g>
   </g>
   <g id="matplotlib.axis_2">
    <g id="ytick_1">
     <g id="line2d_9">
      <defs>
       <path id="m90c79e47dc" d="M 0 0 
L -3.5 0 
" style="stroke: #000000; stroke-width: 0.8"/>
      </defs>
      <g>
       <use xlink:href="#m90c79e47dc" x="45" y="46.501806" style="stroke: #000000; stroke-width: 0.8"/>
      </g>
     </g>
     <g id="text_10">
      <text style="font: 8px 'DejaVu Sans', 'Bitstream Vera Sans', 'Computer Modern Sans Serif', 'Lucida Grande', 'Verdana', 'Geneva', 'Lucid', 'Arial', 'Helvetica', 'Avant Garde', sans-serif; text-anchor: end" x="38" y="49.541181" transform="rotate(-0 38 49.541181)">1500</text>
     </g>
    </g>
    <g id="ytick_2">
     <g id="line2d_10">
      <g>
       <use xlink:href="#m90c79e47dc" x="45" y="18.408161" style="stroke: #000000; stroke-width: 0.8"/>
      </g>
     </g>
     <g id="text_11">
      <text style="font: 8px 'DejaVu Sans', 'Bitstream Vera Sans', 'Computer Modern Sans Serif', 'Lucida Grande', 'Verdana', 'Geneva', 'Lucid', 'Arial', 'Helvetica', 'Avant Garde', sans-serif; text-anchor: end" x="38" y="21.447536" transform="rotate(-0 38 21.447536)">2000</text>
     </g>
    </g>
    <g id="text_12">
     <text style="font: 8px 'DejaVu Sans', 'Bitstream Vera Sans', 'Computer Modern Sans Serif', 'Lucida Grande', 'Verdana', 'Geneva', 'Lucid', 'Arial', 'Helvetica', 'Avant Garde', sans-serif; text-anchor: middle" x="11.97625" y="36.36" transform="rotate(-90 11.97625 36.36)">Fluoresence</text>
    </g>
   </g>
   <g id="line2d_11">
    <path d="M 57.681818 57.851639 
L 59.090909 48.974047 
L 60.5 57.008829 
L 61.909091 47.45699 
L 63.318182 44.198127 
L 64.727273 41.950635 
L 66.136364 40.321204 
L 67.545455 35.601472 
L 68.954545 53.637592 
L 70.363636 52.289097 
L 71.772727 47.063679 
L 73.181818 51.671037 
L 74.590909 49.030234 
L 76 53.637592 
L 77.409091 42.175385 
L 78.818182 58.076388 
L 80.227273 43.411505 
L 81.636364 47.906488 
L 83.045455 56.278395 
L 84.454545 55.491773 
L 85.863636 58.919197 
L 87.272727 38.1299 
L 88.681818 44.366689 
L 90.090909 37.118528 
L 91.5 36.781405 
L 92.909091 36.837592 
L 94.318182 46.614181 
L 95.727273 39.703144 
L 97.136364 40.096455 
L 98.545455 40.208829 
L 99.954545 37.568027 
L 101.363636 27.679064 
L 102.772727 25.26301 
L 104.181818 16.891104 
L 105.590909 33.522542 
L 107 25.543946 
L 108.409091 23.577391 
L 109.818182 43.018194 
L 112.636364 35.826221 
L 114.045455 37.511839 
L 115.454545 33.410167 
L 116.863636 26.892441 
L 118.272727 19.25097 
L 119.681818 22.004147 
L 121.090909 26.105819 
L 122.5 37.230903 
L 123.909091 39.815518 
L 125.318182 33.073043 
L 126.727273 28.521873 
L 128.136364 43.580067 
L 129.545455 16.55398 
L 130.954545 21.105151 
L 132.363636 27.061003 
L 133.772727 38.467023 
L 135.181818 47.794114 
L 136.590909 47.063679 
L 138 23.633579 
L 139.409091 11.16 
L 140.818182 25.937258 
L 142.227273 33.185418 
L 143.636364 26.892441 
L 145.045455 30.881739 
L 146.454545 34.140602 
L 147.863636 30.432241 
L 149.272727 34.196789 
L 150.681818 22.678395 
L 152.090909 32.11786 
L 153.5 22.285084 
L 154.909091 16.104482 
L 157.727273 29.701806 
L 159.136364 15.261672 
L 160.545455 26.892441 
L 161.954545 23.970702 
L 163.363636 37.961338 
L 164.772727 26.49913 
L 166.181818 36.219532 
L 167.590909 29.757993 
L 169 29.926555 
L 170.409091 25.543946 
L 171.818182 36.388094 
L 173.227273 31.443612 
L 174.636364 16.048294 
L 176.045455 25.26301 
L 177.454545 21.386087 
L 178.863636 15.31786 
L 180.272727 30.600803 
L 181.681818 23.914515 
L 183.090909 30.881739 
L 184.5 25.319197 
L 185.909091 39.646957 
L 187.318182 31.780736 
L 188.727273 31.949298 
L 190.136364 32.511171 
L 191.545455 29.645619 
L 192.954545 34.533913 
L 194.363636 52.570033 
L 195.772727 18.014849 
L 197.181818 27.903813 
L 198.590909 31.050301 
L 200 35.489097 
L 201.409091 29.42087 
L 202.818182 46.052308 
L 204.227273 37.343278 
L 205.636364 32.960669 
L 207.045455 51.446288 
L 208.454545 30.207492 
L 209.863636 47.400803 
L 211.272727 46.951304 
L 212.681818 61.56 
L 214.090909 53.356656 
L 215.5 34.252977 
L 216.909091 52.457659 
L 218.318182 46.277057 
L 219.727273 38.186087 
L 221.136364 43.748629 
L 222.545455 32.567358 
L 223.954545 47.906488 
L 225.363636 38.073712 
L 226.772727 51.558662 
L 228.181818 55.098462 
L 229.590909 45.715184 
L 231 47.063679 
L 232.409091 47.288428 
L 233.818182 41.669699 
L 235.227273 51.221538 
L 236.636364 49.479732 
L 238.045455 53.412843 
L 239.454545 48.524548 
L 240.863636 46.726555 
L 243.681818 33.522542 
L 245.090909 43.917191 
L 246.5 45.883746 
L 247.909091 37.399465 
L 249.318182 40.714515 
L 250.727273 34.365351 
L 252.136364 33.35398 
L 253.545455 38.635585 
L 254.954545 37.174716 
L 256.363636 30.03893 
L 257.772727 37.511839 
L 259.181818 39.085084 
L 260.590909 33.466355 
L 262 43.636254 
L 263.409091 34.983411 
L 264.818182 33.522542 
L 266.227273 38.860334 
L 267.636364 33.297793 
L 269.045455 31.555987 
L 270.454545 17.846288 
L 271.863636 35.151973 
L 273.272727 22.903144 
L 274.681818 22.790769 
L 276.090909 44.647625 
L 277.5 38.916522 
L 278.909091 44.703813 
L 280.318182 42.006823 
L 281.727273 32.342609 
L 283.136364 14.362676 
L 284.545455 22.228896 
L 285.954545 34.477726 
L 287.363636 37.455652 
L 288.772727 36.781405 
L 290.181818 27.679064 
L 291.590909 39.253645 
L 293 27.454314 
L 294.409091 24.757324 
L 295.818182 43.29913 
L 297.227273 42.962007 
L 298.636364 40.714515 
L 300.045455 42.962007 
L 301.454545 33.915853 
L 302.863636 53.918528 
L 304.272727 47.119866 
L 305.681818 49.816856 
L 307.090909 43.973378 
L 308.5 43.917191 
L 309.909091 47.513177 
L 311.318182 47.288428 
L 311.318182 47.288428 
" clip-path="url(#pf597ce5cac)" style="fill: none; stroke: #e377c2; stroke-width: 2; stroke-linecap: square"/>
   </g>
   <g id="patch_3">
    <path d="M 45 64.08 
L 45 8.64 
" style="fill: none; stroke: #000000; stroke-width: 0.8; stroke-linejoin: miter; stroke-linecap: square"/>
   </g>
   <g id="patch_4">
    <path d="M 324 64.08 
L 324 8.64 
" style="fill: none; stroke: #000000; stroke-width: 0.8; stroke-linejoin: miter; stroke-linecap: square"/>
   </g>
   <g id="patch_5">
    <path d="M 45 64.08 
L 324 64.08 
" style="fill: none; stroke: #000000; stroke-width: 0.8; stroke-linejoin: miter; stroke-linecap: square"/>
   </g>
   <g id="patch_6">
    <path d="M 45 8.64 
L 324 8.64 
" style="fill: none; stroke: #000000; stroke-width: 0.8; stroke-linejoin: miter; stroke-linecap: square"/>
   </g>
  </g>
 </g>
 <defs>
  <clipPath id="pf597ce5cac">
   <rect x="45" y="8.64" width="279" height="55.44"/>
  </clipPath>
 </defs>
</svg>
