<?xml version="1.0" encoding="utf-8" standalone="no"?>
<!DOCTYPE svg PUBLIC "-//W3C//DTD SVG 1.1//EN"
  "http://www.w3.org/Graphics/SVG/1.1/DTD/svg11.dtd">
<svg xmlns:xlink="http://www.w3.org/1999/xlink" width="180pt" height="36pt" viewBox="0 0 180 36" xmlns="http://www.w3.org/2000/svg" version="1.1">
 <metadata>
  <rdf:RDF xmlns:dc="http://purl.org/dc/elements/1.1/" xmlns:cc="http://creativecommons.org/ns#" xmlns:rdf="http://www.w3.org/1999/02/22-rdf-syntax-ns#">
   <cc:Work>
    <dc:type rdf:resource="http://purl.org/dc/dcmitype/StillImage"/>
    <dc:date>2024-11-16T13:29:46.874872</dc:date>
    <dc:format>image/svg+xml</dc:format>
    <dc:creator>
     <cc:Agent>
      <dc:title>Matplotlib v3.9.1, https://matplotlib.org/</dc:title>
     </cc:Agent>
    </dc:creator>
   </cc:Work>
  </rdf:RDF>
 </metadata>
 <defs>
  <style type="text/css">*{stroke-linejoin: round; stroke-linecap: butt}</style>
 </defs>
 <g id="figure_1">
  <g id="patch_1">
   <path d="M 0 36 
L 180 36 
L 180 0 
L 0 0 
L 0 36 
z
" style="fill: none"/>
  </g>
  <g id="axes_1">
   <g id="patch_2">
    <path d="M 22.5 32.04 
L 162 32.04 
L 162 4.32 
L 22.5 4.32 
L 22.5 32.04 
z
" style="fill: none"/>
   </g>
   <g id="matplotlib.axis_1">
    <g id="xtick_1"/>
    <g id="xtick_2"/>
    <g id="xtick_3"/>
    <g id="xtick_4"/>
   </g>
   <g id="matplotlib.axis_2">
    <g id="ytick_1"/>
    <g id="ytick_2"/>
    <g id="ytick_3"/>
   </g>
   <g id="line2d_1">
    <path d="M 28.840909 30.78 
L 30.954545 29.718544 
L 33.068182 29.119163 
L 35.181818 29.496007 
L 37.295455 24.497257 
L 39.409091 25.524017 
L 41.522727 27.08236 
L 43.636364 20.935986 
L 45.75 18.693792 
L 47.863636 24.188975 
L 49.977273 18.882269 
L 52.090909 16.193767 
L 54.204545 17.495215 
L 56.318182 20.918844 
L 58.431818 24.223303 
L 60.545455 23.504424 
L 62.659091 21.175492 
L 64.772727 16.690482 
L 66.886364 14.447461 
L 69 16.022337 
L 71.113636 11.82862 
L 73.227273 16.5876 
L 75.340909 8.866921 
L 77.454545 13.163642 
L 79.568182 16.142816 
L 81.681818 16.895706 
L 83.795455 8.130303 
L 85.909091 5.58 
L 88.022727 14.635808 
L 90.136364 15.184563 
L 92.25 15.474326 
L 94.363636 15.440624 
L 96.477273 13.763622 
L 98.590909 16.569428 
L 100.704545 15.08079 
L 102.818182 12.256444 
L 104.931818 16.108779 
L 107.045455 19.480054 
L 109.159091 16.9133 
L 111.272727 15.183857 
L 113.386364 15.885493 
L 115.5 12.786419 
L 117.613636 14.310184 
L 119.727273 14.465052 
L 121.840909 11.160908 
L 123.954545 14.567596 
L 126.068182 19.241294 
L 128.181818 23.452582 
L 130.295455 20.86769 
L 132.409091 19.908544 
L 134.522727 21.415377 
L 136.636364 17.889378 
L 138.75 22.014235 
L 140.863636 20.011776 
L 142.977273 19.069992 
L 145.090909 17.152343 
L 147.204545 20.559515 
L 149.318182 23.726428 
L 151.431818 22.459274 
L 153.545455 20.217358 
L 155.659091 18.419567 
" clip-path="url(#pe20956f882)" style="fill: none; stroke: #90ee90; stroke-width: 2; stroke-linecap: square"/>
   </g>
   <g id="line2d_2">
    <path d="M 28.840909 28.084454 
L 30.954545 26.031252 
L 33.068182 25.248852 
L 35.181818 25.4447 
L 37.295455 22.707017 
L 39.409091 25.151328 
L 41.522727 24.76012 
L 43.636364 22.706877 
L 45.75 21.093447 
L 47.863636 23.048861 
L 49.977273 20.507118 
L 52.090909 17.524636 
L 54.204545 19.13786 
L 56.318182 21.044529 
L 58.431818 23.342703 
L 60.545455 23.049059 
L 62.659091 22.755787 
L 64.772727 20.751636 
L 66.886364 17.818189 
L 69 14.543195 
L 71.113636 17.769477 
L 73.227273 14.445407 
L 75.340909 12.684685 
L 77.454545 13.320453 
L 79.568182 19.920037 
L 81.681818 16.938356 
L 83.795455 12.245012 
L 85.909091 12.000931 
L 88.022727 17.818148 
L 90.136364 17.329449 
L 92.25 16.058168 
L 94.363636 17.867339 
L 96.477273 16.742839 
L 98.590909 15.471583 
L 100.704545 14.543063 
L 102.818182 17.525578 
L 104.931818 19.871374 
L 107.045455 17.965052 
L 109.159091 17.525107 
L 111.272727 11.56187 
L 113.386364 15.47174 
L 115.5 12.832044 
L 117.613636 17.280448 
L 119.727273 13.663131 
L 121.840909 13.564997 
L 123.954545 17.573282 
L 126.068182 13.468299 
L 128.181818 19.138215 
L 130.295455 20.653229 
L 132.409091 16.547767 
L 134.522727 18.062509 
L 136.636364 20.262764 
L 138.75 18.307086 
L 140.863636 18.551456 
L 142.977273 16.791733 
L 145.090909 14.983429 
L 147.204545 19.284871 
L 149.318182 22.266924 
L 151.431818 17.72074 
L 153.545455 17.52528 
L 155.659091 14.152408 
" clip-path="url(#pe20956f882)" style="fill: none; stroke: #8b0000; stroke-opacity: 0.6; stroke-width: 2; stroke-linecap: square"/>
   </g>
   <g id="patch_3">
    <path d="M 22.5 32.04 
L 22.5 4.32 
" style="fill: none; stroke: #000000; stroke-width: 0.8; stroke-linejoin: miter; stroke-linecap: square"/>
   </g>
   <g id="patch_4">
    <path d="M 162 32.04 
L 162 4.32 
" style="fill: none; stroke: #000000; stroke-width: 0.8; stroke-linejoin: miter; stroke-linecap: square"/>
   </g>
   <g id="patch_5">
    <path d="M 22.5 32.04 
L 162 32.04 
" style="fill: none; stroke: #000000; stroke-width: 0.8; stroke-linejoin: miter; stroke-linecap: square"/>
   </g>
   <g id="patch_6">
    <path d="M 22.5 4.32 
L 162 4.32 
" style="fill: none; stroke: #000000; stroke-width: 0.8; stroke-linejoin: miter; stroke-linecap: square"/>
   </g>
  </g>
 </g>
 <defs>
  <clipPath id="pe20956f882">
   <rect x="22.5" y="4.32" width="139.5" height="27.72"/>
  </clipPath>
 </defs>
</svg>
