<?xml version="1.0" encoding="utf-8" standalone="no"?>
<!DOCTYPE svg PUBLIC "-//W3C//DTD SVG 1.1//EN"
  "http://www.w3.org/Graphics/SVG/1.1/DTD/svg11.dtd">
<svg xmlns:xlink="http://www.w3.org/1999/xlink" width="447.97075pt" height="87.621875pt" viewBox="0 0 447.97075 87.621875" xmlns="http://www.w3.org/2000/svg" version="1.1">
 <metadata>
  <rdf:RDF xmlns:dc="http://purl.org/dc/elements/1.1/" xmlns:cc="http://creativecommons.org/ns#" xmlns:rdf="http://www.w3.org/1999/02/22-rdf-syntax-ns#">
   <cc:Work>
    <dc:type rdf:resource="http://purl.org/dc/dcmitype/StillImage"/>
    <dc:date>2024-11-08T14:44:17.086709</dc:date>
    <dc:format>image/svg+xml</dc:format>
    <dc:creator>
     <cc:Agent>
      <dc:title>Matplotlib v3.7.1, https://matplotlib.org/</dc:title>
     </cc:Agent>
    </dc:creator>
   </cc:Work>
  </rdf:RDF>
 </metadata>
 <defs>
  <style type="text/css">*{stroke-linejoin: round; stroke-linecap: butt}</style>
 </defs>
 <g id="figure_1">
  <g id="patch_1">
   <path d="M 0 87.621875 
L 447.97075 87.621875 
L 447.97075 0 
L 0 0 
L 0 87.621875 
z
" style="fill: none"/>
  </g>
  <g id="axes_1">
   <g id="patch_2">
    <path d="M 50.17075 65.679375 
L 440.77075 65.679375 
L 440.77075 10.239375 
L 50.17075 10.239375 
L 50.17075 65.679375 
z
" style="fill: none"/>
   </g>
   <g id="PolyCollection_1">
    <path d="M 84.896893 64.489633 
L 83.234689 64.489633 
L 83.058247 64.054807 
L 82.866559 63.619981 
L 82.661255 63.185155 
L 82.443796 62.750329 
L 82.215489 62.315503 
L 81.977572 61.880677 
L 81.731288 61.445851 
L 81.477851 61.011025 
L 81.218209 60.576199 
L 80.952627 60.141373 
L 80.680174 59.706547 
L 80.398271 59.271721 
L 80.102471 58.836895 
L 79.786611 58.402069 
L 79.443364 57.967243 
L 79.06514 57.532417 
L 78.645173 57.097591 
L 78.1786 56.662765 
L 77.663322 56.227939 
L 77.10051 55.793113 
L 76.494692 55.358287 
L 75.853448 54.923461 
L 75.186799 54.488635 
L 74.506446 54.053809 
L 73.824954 53.618983 
L 73.154999 53.184157 
L 72.508712 52.749331 
L 71.897104 52.314505 
L 71.329569 51.879679 
L 70.813419 51.444853 
L 70.353472 51.010027 
L 69.951728 50.575201 
L 69.607206 50.140375 
L 69.31604 49.705549 
L 69.071904 49.270723 
L 68.866798 48.835897 
L 68.692133 48.401071 
L 68.539979 47.966245 
L 68.404232 47.531419 
L 68.281473 47.096593 
L 68.171288 46.661767 
L 68.075995 46.226941 
L 67.99985 45.792115 
L 67.947972 45.357289 
L 67.925295 44.922463 
L 67.93583 44.487637 
L 67.982352 44.052811 
L 68.066476 43.617985 
L 68.188898 43.183159 
L 68.349545 42.748333 
L 68.547452 42.313507 
L 68.780363 41.878681 
L 69.044237 41.443855 
L 69.332984 41.009029 
L 69.638716 40.574203 
L 69.952654 40.139377 
L 70.266562 39.704551 
L 70.574357 39.269725 
L 70.873405 38.834899 
L 71.165057 38.400073 
L 71.454188 37.965247 
L 71.74783 37.530421 
L 72.05327 37.095595 
L 72.376142 36.660769 
L 72.719042 36.225943 
L 73.080982 35.791117 
L 73.457725 35.356291 
L 73.842776 34.921465 
L 74.228638 34.486639 
L 74.607987 34.051813 
L 74.974492 33.616987 
L 75.323241 33.182161 
L 75.65085 32.747335 
L 75.955412 32.312509 
L 76.236438 31.877683 
L 76.494837 31.442857 
L 76.732918 31.008031 
L 76.954336 30.573205 
L 77.163898 30.138379 
L 77.367182 29.703553 
L 77.569998 29.268727 
L 77.77775 28.833901 
L 77.994831 28.399075 
L 78.224163 27.964249 
L 78.466969 27.529423 
L 78.722853 27.094597 
L 78.990157 26.659771 
L 79.266534 26.224945 
L 79.549613 25.790119 
L 79.837581 25.355293 
L 80.129538 24.920467 
L 80.42551 24.485641 
L 80.726093 24.050815 
L 81.031804 23.615989 
L 81.342333 23.181163 
L 81.655888 22.746337 
L 81.968858 22.311511 
L 82.275906 21.876685 
L 82.570496 21.441859 
L 85.561087 21.441859 
L 85.561087 21.441859 
L 85.855677 21.876685 
L 86.162724 22.311511 
L 86.475694 22.746337 
L 86.789249 23.181163 
L 87.099779 23.615989 
L 87.40549 24.050815 
L 87.706072 24.485641 
L 88.002045 24.920467 
L 88.294002 25.355293 
L 88.581969 25.790119 
L 88.865048 26.224945 
L 89.141426 26.659771 
L 89.40873 27.094597 
L 89.664614 27.529423 
L 89.90742 27.964249 
L 90.136751 28.399075 
L 90.353833 28.833901 
L 90.561585 29.268727 
L 90.7644 29.703553 
L 90.967685 30.138379 
L 91.177246 30.573205 
L 91.398665 31.008031 
L 91.636746 31.442857 
L 91.895145 31.877683 
L 92.176171 32.312509 
L 92.480733 32.747335 
L 92.808341 33.182161 
L 93.15709 33.616987 
L 93.523596 34.051813 
L 93.902945 34.486639 
L 94.288807 34.921465 
L 94.673857 35.356291 
L 95.050601 35.791117 
L 95.41254 36.225943 
L 95.75544 36.660769 
L 96.078313 37.095595 
L 96.383753 37.530421 
L 96.677395 37.965247 
L 96.966525 38.400073 
L 97.258177 38.834899 
L 97.557226 39.269725 
L 97.865021 39.704551 
L 98.178928 40.139377 
L 98.492867 40.574203 
L 98.798599 41.009029 
L 99.087346 41.443855 
L 99.35122 41.878681 
L 99.584131 42.313507 
L 99.782038 42.748333 
L 99.942684 43.183159 
L 100.065106 43.617985 
L 100.14923 44.052811 
L 100.195752 44.487637 
L 100.206287 44.922463 
L 100.183611 45.357289 
L 100.131732 45.792115 
L 100.055588 46.226941 
L 99.960295 46.661767 
L 99.85011 47.096593 
L 99.72735 47.531419 
L 99.591604 47.966245 
L 99.439449 48.401071 
L 99.264785 48.835897 
L 99.059679 49.270723 
L 98.815543 49.705549 
L 98.524377 50.140375 
L 98.179855 50.575201 
L 97.778111 51.010027 
L 97.318164 51.444853 
L 96.802014 51.879679 
L 96.234479 52.314505 
L 95.622871 52.749331 
L 94.976584 53.184157 
L 94.306629 53.618983 
L 93.625136 54.053809 
L 92.944783 54.488635 
L 92.278135 54.923461 
L 91.636891 55.358287 
L 91.031073 55.793113 
L 90.468261 56.227939 
L 89.952983 56.662765 
L 89.48641 57.097591 
L 89.066443 57.532417 
L 88.688219 57.967243 
L 88.344971 58.402069 
L 88.029112 58.836895 
L 87.733312 59.271721 
L 87.451409 59.706547 
L 87.178956 60.141373 
L 86.913374 60.576199 
L 86.653732 61.011025 
L 86.400295 61.445851 
L 86.154011 61.880677 
L 85.916093 62.315503 
L 85.687787 62.750329 
L 85.470328 63.185155 
L 85.265023 63.619981 
L 85.073336 64.054807 
L 84.896893 64.489633 
z
" clip-path="url(#p5f065b21f7)" style="fill: #1f77b4; fill-opacity: 0.8"/>
   </g>
   <g id="PolyCollection_2">
    <path d="M 149.981105 65.293513 
L 147.274445 65.293513 
L 147.055486 64.850161 
L 146.823246 64.406809 
L 146.576991 63.963457 
L 146.315068 63.520105 
L 146.035221 63.076753 
L 145.735064 62.633401 
L 145.412616 62.190049 
L 145.066783 61.746697 
L 144.697704 61.303345 
L 144.306865 60.859993 
L 143.897 60.416641 
L 143.471758 59.973289 
L 143.035242 59.529937 
L 142.591485 59.086585 
L 142.143971 58.643233 
L 141.695272 58.199881 
L 141.24686 57.756529 
L 140.799087 57.313177 
L 140.351327 56.869825 
L 139.902226 56.426473 
L 139.450043 55.983121 
L 138.993021 55.539769 
L 138.529807 55.096417 
L 138.059862 54.653065 
L 137.58385 54.209713 
L 137.103935 53.766361 
L 136.623922 53.323009 
L 136.149173 52.879657 
L 135.686275 52.436305 
L 135.242458 51.992953 
L 134.824873 51.549601 
L 134.43981 51.106249 
L 134.09203 50.662897 
L 133.784322 50.219545 
L 133.517354 49.776193 
L 133.289859 49.332841 
L 133.099073 48.889489 
L 132.941349 48.446137 
L 132.81278 48.002785 
L 132.70972 47.559433 
L 132.629086 47.116081 
L 132.56841 46.672729 
L 132.525694 46.229377 
L 132.499191 45.786025 
L 132.487279 45.342673 
L 132.488583 44.899321 
L 132.502439 44.455969 
L 132.529623 44.012617 
L 132.573186 43.569265 
L 132.639055 43.125913 
L 132.736108 42.682561 
L 132.875465 42.239209 
L 133.068967 41.795857 
L 133.327034 41.352505 
L 133.656327 40.909153 
L 134.057744 40.465801 
L 134.525281 40.022449 
L 135.046093 39.579097 
L 135.601839 39.135745 
L 136.171082 38.692393 
L 136.732268 38.249041 
L 137.266685 37.805689 
L 137.760852 37.362337 
L 138.207898 36.918985 
L 138.607801 36.475633 
L 138.966549 36.032281 
L 139.294534 35.588929 
L 139.604551 35.145577 
L 139.909804 34.702225 
L 140.222189 34.258873 
L 140.551033 33.815521 
L 140.902326 33.372169 
L 141.278411 32.928817 
L 141.678047 32.485465 
L 142.096803 32.042113 
L 142.527693 31.598761 
L 142.962007 31.155409 
L 143.390264 30.712057 
L 143.803166 30.268705 
L 144.192459 29.825353 
L 144.551579 29.382001 
L 144.876032 28.938649 
L 145.163504 28.495297 
L 145.41375 28.051945 
L 145.628359 27.608593 
L 145.810475 27.165241 
L 145.964519 26.721889 
L 146.095943 26.278537 
L 146.210963 25.835185 
L 146.316228 25.391833 
L 146.418406 24.948481 
L 146.523671 24.505129 
L 146.637154 24.061777 
L 146.762439 23.618425 
L 146.901197 23.175073 
L 147.053035 22.731721 
L 147.215606 22.288369 
L 147.384965 21.845017 
L 147.556109 21.401665 
L 149.699441 21.401665 
L 149.699441 21.401665 
L 149.870585 21.845017 
L 150.039944 22.288369 
L 150.202515 22.731721 
L 150.354353 23.175073 
L 150.49311 23.618425 
L 150.618395 24.061777 
L 150.731879 24.505129 
L 150.837143 24.948481 
L 150.939321 25.391833 
L 151.044587 25.835185 
L 151.159606 26.278537 
L 151.291031 26.721889 
L 151.445075 27.165241 
L 151.62719 27.608593 
L 151.8418 28.051945 
L 152.092046 28.495297 
L 152.379517 28.938649 
L 152.703971 29.382001 
L 153.06309 29.825353 
L 153.452383 30.268705 
L 153.865285 30.712057 
L 154.293542 31.155409 
L 154.727857 31.598761 
L 155.158746 32.042113 
L 155.577503 32.485465 
L 155.977139 32.928817 
L 156.353223 33.372169 
L 156.704517 33.815521 
L 157.033361 34.258873 
L 157.345745 34.702225 
L 157.650999 35.145577 
L 157.961016 35.588929 
L 158.289 36.032281 
L 158.647748 36.475633 
L 159.047651 36.918985 
L 159.494698 37.362337 
L 159.988864 37.805689 
L 160.523282 38.249041 
L 161.084467 38.692393 
L 161.653711 39.135745 
L 162.209457 39.579097 
L 162.730268 40.022449 
L 163.197805 40.465801 
L 163.599222 40.909153 
L 163.928515 41.352505 
L 164.186583 41.795857 
L 164.380085 42.239209 
L 164.519441 42.682561 
L 164.616494 43.125913 
L 164.682364 43.569265 
L 164.725926 44.012617 
L 164.753111 44.455969 
L 164.766966 44.899321 
L 164.768271 45.342673 
L 164.756358 45.786025 
L 164.729855 46.229377 
L 164.687139 46.672729 
L 164.626463 47.116081 
L 164.545829 47.559433 
L 164.44277 48.002785 
L 164.314201 48.446137 
L 164.156476 48.889489 
L 163.965691 49.332841 
L 163.738195 49.776193 
L 163.471228 50.219545 
L 163.163519 50.662897 
L 162.81574 51.106249 
L 162.430676 51.549601 
L 162.013091 51.992953 
L 161.569275 52.436305 
L 161.106376 52.879657 
L 160.631628 53.323009 
L 160.151615 53.766361 
L 159.6717 54.209713 
L 159.195688 54.653065 
L 158.725743 55.096417 
L 158.262529 55.539769 
L 157.805507 55.983121 
L 157.353323 56.426473 
L 156.904223 56.869825 
L 156.456462 57.313177 
L 156.00869 57.756529 
L 155.560278 58.199881 
L 155.111579 58.643233 
L 154.664065 59.086585 
L 154.220308 59.529937 
L 153.783792 59.973289 
L 153.35855 60.416641 
L 152.948684 60.859993 
L 152.557846 61.303345 
L 152.188766 61.746697 
L 151.842934 62.190049 
L 151.520486 62.633401 
L 151.220329 63.076753 
L 150.940482 63.520105 
L 150.678558 63.963457 
L 150.432303 64.406809 
L 150.200064 64.850161 
L 149.981105 65.293513 
z
" clip-path="url(#p5f065b21f7)" style="fill: #1f77b4; fill-opacity: 0.8"/>
   </g>
   <g id="PolyCollection_3">
    <path d="M 216.41066 64.875495 
L 209.968856 64.875495 
L 209.551273 64.447571 
L 209.108403 64.019647 
L 208.642101 63.591723 
L 208.154517 63.163799 
L 207.64809 62.735875 
L 207.125553 62.307951 
L 206.589923 61.880027 
L 206.0445 61.452103 
L 205.492834 61.024179 
L 204.938679 60.596255 
L 204.385904 60.168331 
L 203.83839 59.740407 
L 203.299884 59.312483 
L 202.773854 58.884559 
L 202.263335 58.456635 
L 201.770801 58.028711 
L 201.298074 57.600787 
L 200.846296 57.172863 
L 200.415968 56.744939 
L 200.007074 56.317015 
L 199.619271 55.889091 
L 199.252138 55.461167 
L 198.905471 55.033243 
L 198.579571 54.605319 
L 198.275503 54.177395 
L 197.995297 53.749471 
L 197.742045 53.321547 
L 197.519876 52.893623 
L 197.333811 52.465699 
L 197.189483 52.037775 
L 197.092756 51.609851 
L 197.049262 51.181927 
L 197.063914 50.754003 
L 197.140424 50.326079 
L 197.280896 49.898155 
L 197.485514 49.470231 
L 197.752379 49.042307 
L 198.077504 48.614383 
L 198.45496 48.186459 
L 198.877182 47.758535 
L 199.33538 47.330611 
L 199.820026 46.902687 
L 200.321378 46.474763 
L 200.82997 46.046839 
L 201.337059 45.618915 
L 201.83496 45.190991 
L 202.317283 44.763067 
L 202.779045 44.335143 
L 203.216675 43.907219 
L 203.627927 43.479295 
L 204.011732 43.051371 
L 204.368008 42.623447 
L 204.697473 42.195523 
L 205.001465 41.767599 
L 205.281795 41.339675 
L 205.540633 40.911751 
L 205.780433 40.483827 
L 206.003876 40.055903 
L 206.213832 39.627979 
L 206.413319 39.200055 
L 206.605443 38.772131 
L 206.793332 38.344207 
L 206.980029 37.916283 
L 207.168382 37.488359 
L 207.360914 37.060435 
L 207.559691 36.632511 
L 207.766212 36.204587 
L 207.981318 35.776663 
L 208.205136 35.348739 
L 208.437072 34.920815 
L 208.675834 34.492891 
L 208.919516 34.064967 
L 209.165694 33.637043 
L 209.411567 33.209119 
L 209.654101 32.781195 
L 209.890178 32.353271 
L 210.116748 31.925347 
L 210.330958 31.497423 
L 210.530268 31.069499 
L 210.712549 30.641575 
L 210.876157 30.213651 
L 211.019986 29.785727 
L 211.143507 29.357803 
L 211.246785 28.929879 
L 211.330487 28.501955 
L 211.395863 28.074031 
L 211.444716 27.646107 
L 211.479348 27.218183 
L 211.50249 26.790259 
L 211.517196 26.362335 
L 211.526733 25.934411 
L 211.534437 25.506487 
L 211.543565 25.078563 
L 211.557137 24.650639 
L 211.577792 24.222715 
L 211.607654 23.794791 
L 211.648223 23.366867 
L 211.700315 22.938943 
L 211.764034 22.511019 
L 214.615483 22.511019 
L 214.615483 22.511019 
L 214.679202 22.938943 
L 214.731294 23.366867 
L 214.771863 23.794791 
L 214.801724 24.222715 
L 214.82238 24.650639 
L 214.835952 25.078563 
L 214.845079 25.506487 
L 214.852783 25.934411 
L 214.86232 26.362335 
L 214.877027 26.790259 
L 214.900168 27.218183 
L 214.934801 27.646107 
L 214.983653 28.074031 
L 215.049029 28.501955 
L 215.132731 28.929879 
L 215.23601 29.357803 
L 215.35953 29.785727 
L 215.503359 30.213651 
L 215.666967 30.641575 
L 215.849249 31.069499 
L 216.048559 31.497423 
L 216.262768 31.925347 
L 216.489338 32.353271 
L 216.725416 32.781195 
L 216.967949 33.209119 
L 217.213822 33.637043 
L 217.460001 34.064967 
L 217.703682 34.492891 
L 217.942445 34.920815 
L 218.17438 35.348739 
L 218.398199 35.776663 
L 218.613305 36.204587 
L 218.819826 36.632511 
L 219.018603 37.060435 
L 219.211134 37.488359 
L 219.399487 37.916283 
L 219.586185 38.344207 
L 219.774073 38.772131 
L 219.966198 39.200055 
L 220.165684 39.627979 
L 220.375641 40.055903 
L 220.599084 40.483827 
L 220.838883 40.911751 
L 221.097722 41.339675 
L 221.378051 41.767599 
L 221.682044 42.195523 
L 222.011509 42.623447 
L 222.367785 43.051371 
L 222.751589 43.479295 
L 223.162842 43.907219 
L 223.600472 44.335143 
L 224.062234 44.763067 
L 224.544557 45.190991 
L 225.042458 45.618915 
L 225.549546 46.046839 
L 226.058139 46.474763 
L 226.55949 46.902687 
L 227.044137 47.330611 
L 227.502334 47.758535 
L 227.924556 48.186459 
L 228.302013 48.614383 
L 228.627137 49.042307 
L 228.894003 49.470231 
L 229.098621 49.898155 
L 229.239092 50.326079 
L 229.315603 50.754003 
L 229.330254 51.181927 
L 229.28676 51.609851 
L 229.190033 52.037775 
L 229.045706 52.465699 
L 228.859641 52.893623 
L 228.637472 53.321547 
L 228.384219 53.749471 
L 228.104014 54.177395 
L 227.799946 54.605319 
L 227.474045 55.033243 
L 227.127378 55.461167 
L 226.760246 55.889091 
L 226.372442 56.317015 
L 225.963548 56.744939 
L 225.533221 57.172863 
L 225.081443 57.600787 
L 224.608716 58.028711 
L 224.116181 58.456635 
L 223.605663 58.884559 
L 223.079633 59.312483 
L 222.541127 59.740407 
L 221.993612 60.168331 
L 221.440838 60.596255 
L 220.886682 61.024179 
L 220.335017 61.452103 
L 219.789594 61.880027 
L 219.253964 62.307951 
L 218.731426 62.735875 
L 218.225 63.163799 
L 217.737415 63.591723 
L 217.271113 64.019647 
L 216.828244 64.447571 
L 216.41066 64.875495 
z
" clip-path="url(#p5f065b21f7)" style="fill: #1f77b4; fill-opacity: 0.8"/>
   </g>
   <g id="PolyCollection_4">
    <path d="M 282.407073 62.688941 
L 273.09641 62.688941 
L 272.639047 62.276445 
L 272.181599 61.863949 
L 271.729835 61.451453 
L 271.289219 61.038957 
L 270.864651 60.626461 
L 270.460224 60.213965 
L 270.079026 59.801469 
L 269.722988 59.388973 
L 269.392799 58.976477 
L 269.08789 58.563981 
L 268.806481 58.151485 
L 268.54571 57.738989 
L 268.301815 57.326493 
L 268.07036 56.913997 
L 267.846508 56.501501 
L 267.625304 56.089005 
L 267.401954 55.676509 
L 267.172099 55.264013 
L 266.932044 54.851517 
L 266.678949 54.439021 
L 266.410965 54.026525 
L 266.127307 53.614029 
L 265.828272 53.201533 
L 265.515198 52.789037 
L 265.190375 52.376541 
L 264.856912 51.964045 
L 264.518587 51.551549 
L 264.179664 51.139053 
L 263.844723 50.726557 
L 263.518481 50.314061 
L 263.205632 49.901565 
L 262.91071 49.489069 
L 262.63796 49.076573 
L 262.39125 48.664077 
L 262.173985 48.251581 
L 261.989063 47.839085 
L 261.838828 47.426589 
L 261.725063 47.014093 
L 261.648982 46.601597 
L 261.611246 46.189101 
L 261.61199 45.776605 
L 261.650868 45.364109 
L 261.727098 44.951613 
L 261.839532 44.539117 
L 261.986709 44.126621 
L 262.166932 43.714125 
L 262.37832 43.301629 
L 262.618868 42.889133 
L 262.886487 42.476637 
L 263.179036 42.064141 
L 263.494343 41.651645 
L 263.830216 41.239149 
L 264.184439 40.826653 
L 264.554779 40.414157 
L 264.938982 40.001661 
L 265.334779 39.589165 
L 265.739897 39.176669 
L 266.152077 38.764173 
L 266.5691 38.351677 
L 266.988821 37.939181 
L 267.409197 37.526685 
L 267.828322 37.114189 
L 268.244452 36.701693 
L 268.656026 36.289197 
L 269.06167 35.876701 
L 269.460205 35.464205 
L 269.850633 35.051709 
L 270.232123 34.639213 
L 270.603995 34.226717 
L 270.965692 33.814221 
L 271.316767 33.401725 
L 271.656865 32.989229 
L 271.985706 32.576733 
L 272.303084 32.164237 
L 272.608854 31.751741 
L 272.902935 31.339245 
L 273.185303 30.926749 
L 273.455991 30.514253 
L 273.715081 30.101757 
L 273.962696 29.689261 
L 274.198991 29.276765 
L 274.424141 28.864269 
L 274.638334 28.451773 
L 274.841759 28.039277 
L 275.034606 27.626781 
L 275.217067 27.214285 
L 275.389341 26.801789 
L 275.551649 26.389293 
L 275.704242 25.976797 
L 275.847423 25.564301 
L 275.981556 25.151805 
L 276.107077 24.739309 
L 276.224495 24.326813 
L 276.33439 23.914317 
L 276.437393 23.501821 
L 276.534169 23.089325 
L 276.62539 22.676829 
L 276.711701 22.264333 
L 276.79369 21.851837 
L 278.709794 21.851837 
L 278.709794 21.851837 
L 278.791783 22.264333 
L 278.878093 22.676829 
L 278.969314 23.089325 
L 279.066091 23.501821 
L 279.169093 23.914317 
L 279.278988 24.326813 
L 279.396407 24.739309 
L 279.521928 25.151805 
L 279.656061 25.564301 
L 279.799242 25.976797 
L 279.951835 26.389293 
L 280.114142 26.801789 
L 280.286417 27.214285 
L 280.468878 27.626781 
L 280.661725 28.039277 
L 280.86515 28.451773 
L 281.079342 28.864269 
L 281.304493 29.276765 
L 281.540787 29.689261 
L 281.788402 30.101757 
L 282.047492 30.514253 
L 282.318181 30.926749 
L 282.600549 31.339245 
L 282.89463 31.751741 
L 283.2004 32.164237 
L 283.517777 32.576733 
L 283.846619 32.989229 
L 284.186716 33.401725 
L 284.537792 33.814221 
L 284.899489 34.226717 
L 285.27136 34.639213 
L 285.652851 35.051709 
L 286.043279 35.464205 
L 286.441814 35.876701 
L 286.847458 36.289197 
L 287.259031 36.701693 
L 287.675161 37.114189 
L 288.094287 37.526685 
L 288.514663 37.939181 
L 288.934383 38.351677 
L 289.351407 38.764173 
L 289.763586 39.176669 
L 290.168704 39.589165 
L 290.564501 40.001661 
L 290.948705 40.414157 
L 291.319045 40.826653 
L 291.673268 41.239149 
L 292.00914 41.651645 
L 292.324448 42.064141 
L 292.616997 42.476637 
L 292.884615 42.889133 
L 293.125163 43.301629 
L 293.336551 43.714125 
L 293.516774 44.126621 
L 293.663952 44.539117 
L 293.776385 44.951613 
L 293.852616 45.364109 
L 293.891493 45.776605 
L 293.892238 46.189101 
L 293.854501 46.601597 
L 293.77842 47.014093 
L 293.664655 47.426589 
L 293.514421 47.839085 
L 293.329498 48.251581 
L 293.112234 48.664077 
L 292.865523 49.076573 
L 292.592774 49.489069 
L 292.297851 49.901565 
L 291.985003 50.314061 
L 291.65876 50.726557 
L 291.323819 51.139053 
L 290.984897 51.551549 
L 290.646571 51.964045 
L 290.313109 52.376541 
L 289.988285 52.789037 
L 289.675211 53.201533 
L 289.376176 53.614029 
L 289.092518 54.026525 
L 288.824534 54.439021 
L 288.571439 54.851517 
L 288.331384 55.264013 
L 288.101529 55.676509 
L 287.87818 56.089005 
L 287.656975 56.501501 
L 287.433124 56.913997 
L 287.201669 57.326493 
L 286.957773 57.738989 
L 286.697003 58.151485 
L 286.415594 58.563981 
L 286.110684 58.976477 
L 285.780496 59.388973 
L 285.424458 59.801469 
L 285.04326 60.213965 
L 284.638832 60.626461 
L 284.214264 61.038957 
L 283.773649 61.451453 
L 283.321885 61.863949 
L 282.864436 62.276445 
L 282.407073 62.688941 
z
" clip-path="url(#p5f065b21f7)" style="fill: #1f77b4; fill-opacity: 0.8"/>
   </g>
   <g id="PolyCollection_5">
    <path d="M 342.690383 71.467311 
L 341.937067 71.467311 
L 341.897157 70.87585 
L 341.8648 70.284389 
L 341.838273 69.692929 
L 341.816078 69.101468 
L 341.797693 68.510007 
L 341.783206 67.918546 
L 341.772153 67.327085 
L 341.762422 66.735625 
L 341.750109 66.144164 
L 341.730519 65.552703 
L 341.699713 64.961242 
L 341.655579 64.369781 
L 341.59768 63.778321 
L 341.52594 63.18686 
L 341.438998 62.595399 
L 341.33328 62.003938 
L 341.203372 61.412477 
L 341.043381 60.821017 
L 340.848381 60.229556 
L 340.615101 59.638095 
L 340.341699 59.046634 
L 340.027229 58.455173 
L 339.671592 57.863713 
L 339.27624 57.272252 
L 338.845159 56.680791 
L 338.385231 56.08933 
L 337.905358 55.497869 
L 337.414481 54.906409 
L 336.919235 54.314948 
L 336.42215 53.723487 
L 335.920928 53.132026 
L 335.408913 52.540565 
L 334.876527 51.949105 
L 334.31342 51.357644 
L 333.710958 50.766183 
L 333.06457 50.174722 
L 332.375221 49.583261 
L 331.649452 48.991801 
L 330.897998 48.40034 
L 330.133838 47.808879 
L 329.371089 47.217418 
L 328.625875 46.625957 
L 327.919105 46.034497 
L 327.279692 45.443036 
L 326.745833 44.851575 
L 326.362316 44.260114 
L 326.173229 43.668653 
L 326.21145 43.077193 
L 326.487978 42.485732 
L 326.984908 41.894271 
L 327.655247 41.30281 
L 328.430832 40.711349 
L 329.236888 40.119889 
L 330.009104 39.528428 
L 330.707754 38.936967 
L 331.324029 38.345506 
L 331.876452 37.754045 
L 332.399004 37.162585 
L 332.925749 36.571124 
L 333.477938 35.979663 
L 334.05814 35.388202 
L 334.652649 34.796741 
L 335.239842 34.205281 
L 335.799963 33.61382 
L 336.321918 33.022359 
L 336.804755 32.430898 
L 337.254367 31.839437 
L 337.678076 31.247977 
L 338.080235 30.656516 
L 338.460717 30.065055 
L 338.816178 29.473594 
L 339.14245 28.882133 
L 339.436334 28.290673 
L 339.696118 27.699212 
L 339.921461 27.107751 
L 340.113688 26.51629 
L 340.276832 25.924829 
L 340.418636 25.333369 
L 340.55026 24.741908 
L 340.684052 24.150447 
L 340.830054 23.558986 
L 340.992834 22.967525 
L 341.170158 22.376065 
L 341.354042 21.784604 
L 341.533492 21.193143 
L 341.697626 20.601682 
L 341.838011 20.010221 
L 341.949711 19.418761 
L 342.031258 18.8273 
L 342.084039 18.235839 
L 342.111593 17.644378 
L 342.119028 17.052917 
L 342.112556 16.461457 
L 342.099005 15.869996 
L 342.085177 15.278535 
L 342.077014 14.687074 
L 342.078701 14.095613 
L 342.091972 13.504153 
L 342.115921 12.912692 
L 342.51153 12.912692 
L 342.51153 12.912692 
L 342.535478 13.504153 
L 342.548749 14.095613 
L 342.550436 14.687074 
L 342.542273 15.278535 
L 342.528445 15.869996 
L 342.514894 16.461457 
L 342.508422 17.052917 
L 342.515857 17.644378 
L 342.543411 18.235839 
L 342.596193 18.8273 
L 342.677739 19.418761 
L 342.78944 20.010221 
L 342.929824 20.601682 
L 343.093958 21.193143 
L 343.273408 21.784604 
L 343.457292 22.376065 
L 343.634617 22.967525 
L 343.797396 23.558986 
L 343.943399 24.150447 
L 344.077191 24.741908 
L 344.208814 25.333369 
L 344.350618 25.924829 
L 344.513762 26.51629 
L 344.70599 27.107751 
L 344.931333 27.699212 
L 345.191116 28.290673 
L 345.485 28.882133 
L 345.811272 29.473594 
L 346.166733 30.065055 
L 346.547216 30.656516 
L 346.949375 31.247977 
L 347.373084 31.839437 
L 347.822696 32.430898 
L 348.305533 33.022359 
L 348.827488 33.61382 
L 349.387609 34.205281 
L 349.974801 34.796741 
L 350.56931 35.388202 
L 351.149512 35.979663 
L 351.701702 36.571124 
L 352.228447 37.162585 
L 352.750998 37.754045 
L 353.303421 38.345506 
L 353.919696 38.936967 
L 354.618346 39.528428 
L 355.390563 40.119889 
L 356.196618 40.711349 
L 356.972204 41.30281 
L 357.642542 41.894271 
L 358.139472 42.485732 
L 358.416 43.077193 
L 358.454221 43.668653 
L 358.265134 44.260114 
L 357.881618 44.851575 
L 357.347759 45.443036 
L 356.708345 46.034497 
L 356.001575 46.625957 
L 355.256361 47.217418 
L 354.493612 47.808879 
L 353.729452 48.40034 
L 352.977999 48.991801 
L 352.25223 49.583261 
L 351.56288 50.174722 
L 350.916492 50.766183 
L 350.314031 51.357644 
L 349.750923 51.949105 
L 349.218538 52.540565 
L 348.706522 53.132026 
L 348.2053 53.723487 
L 347.708215 54.314948 
L 347.21297 54.906409 
L 346.722092 55.497869 
L 346.242219 56.08933 
L 345.782291 56.680791 
L 345.35121 57.272252 
L 344.955858 57.863713 
L 344.600221 58.455173 
L 344.285752 59.046634 
L 344.012349 59.638095 
L 343.779069 60.229556 
L 343.58407 60.821017 
L 343.424078 61.412477 
L 343.29417 62.003938 
L 343.188452 62.595399 
L 343.10151 63.18686 
L 343.02977 63.778321 
L 342.971871 64.369781 
L 342.927737 64.961242 
L 342.896932 65.552703 
L 342.877342 66.144164 
L 342.865029 66.735625 
L 342.855297 67.327085 
L 342.844244 67.918546 
L 342.829758 68.510007 
L 342.811372 69.101468 
L 342.789178 69.692929 
L 342.76265 70.284389 
L 342.730293 70.87585 
L 342.690383 71.467311 
z
" clip-path="url(#p5f065b21f7)" style="fill: #d62728; fill-opacity: 0.8"/>
   </g>
   <g id="PolyCollection_6">
    <path d="M 423.016205 93.399375 
L 390.735213 93.399375 
L 390.735213 93.399375 
L 390.735213 93.399375 
L 390.735213 93.399375 
L 390.735213 93.399375 
L 390.735213 93.399375 
L 390.735213 93.399375 
L 390.735213 93.399375 
L 390.735213 93.399375 
L 390.735213 93.399375 
L 390.735213 93.399375 
L 390.735213 93.399375 
L 390.735213 93.399375 
L 390.735213 93.399375 
L 390.735213 93.399375 
L 390.735213 93.399375 
L 390.735213 93.399375 
L 390.735213 93.399375 
L 390.735213 93.399375 
L 390.735213 93.399375 
L 390.735213 93.399375 
L 390.735213 93.399375 
L 390.735213 93.399375 
L 390.735213 93.399375 
L 390.735213 93.399375 
L 390.735213 93.399375 
L 390.735213 93.399375 
L 390.735213 93.399375 
L 390.735213 93.399375 
L 390.735213 93.399375 
L 390.735213 93.399375 
L 390.735213 93.399375 
L 390.735213 93.399375 
L 390.735213 93.399375 
L 390.735213 93.399375 
L 390.735213 93.399375 
L 390.735213 93.399375 
L 390.735213 93.399375 
L 390.735213 93.399375 
L 390.735213 93.399375 
L 390.735213 93.399375 
L 390.735213 93.399375 
L 390.735213 93.399375 
L 390.735213 93.399375 
L 390.735213 93.399375 
L 390.735213 93.399375 
L 390.735213 93.399375 
L 390.735213 93.399375 
L 390.735213 93.399375 
L 390.735213 93.399375 
L 390.735213 93.399375 
L 390.735213 93.399375 
L 390.735213 93.399375 
L 390.735213 93.399375 
L 390.735213 93.399375 
L 390.735213 93.399375 
L 390.735213 93.399375 
L 390.735213 93.399375 
L 390.735213 93.399375 
L 390.735213 93.399375 
L 390.735213 93.399375 
L 390.735213 93.399375 
L 390.735213 93.399375 
L 390.735213 93.399375 
L 390.735213 93.399375 
L 390.735213 93.399375 
L 390.735213 93.399375 
L 390.735213 93.399375 
L 390.735213 93.399375 
L 390.735213 93.399375 
L 390.735213 93.399375 
L 390.735213 93.399375 
L 390.735213 93.399375 
L 390.735213 93.399375 
L 390.735213 93.399375 
L 390.735213 93.399375 
L 390.735213 93.399375 
L 390.735213 93.399375 
L 390.735213 93.399375 
L 390.735213 93.399375 
L 390.735213 93.399375 
L 390.735213 93.399375 
L 390.735213 93.399375 
L 390.735213 93.399375 
L 390.735213 93.399375 
L 390.735213 93.399375 
L 390.735213 93.399375 
L 390.735213 93.399375 
L 390.735213 93.399375 
L 390.735213 93.399375 
L 390.735213 93.399375 
L 390.735213 93.399375 
L 390.735213 93.399375 
L 390.735213 93.399375 
L 390.735213 93.399375 
L 390.735213 93.399375 
L 390.735213 93.399375 
L 390.735213 93.399375 
L 390.735213 93.399375 
L 390.735213 93.399375 
L 423.016205 93.399375 
L 423.016205 93.399375 
L 423.016205 93.399375 
L 423.016205 93.399375 
L 423.016205 93.399375 
L 423.016205 93.399375 
L 423.016205 93.399375 
L 423.016205 93.399375 
L 423.016205 93.399375 
L 423.016205 93.399375 
L 423.016205 93.399375 
L 423.016205 93.399375 
L 423.016205 93.399375 
L 423.016205 93.399375 
L 423.016205 93.399375 
L 423.016205 93.399375 
L 423.016205 93.399375 
L 423.016205 93.399375 
L 423.016205 93.399375 
L 423.016205 93.399375 
L 423.016205 93.399375 
L 423.016205 93.399375 
L 423.016205 93.399375 
L 423.016205 93.399375 
L 423.016205 93.399375 
L 423.016205 93.399375 
L 423.016205 93.399375 
L 423.016205 93.399375 
L 423.016205 93.399375 
L 423.016205 93.399375 
L 423.016205 93.399375 
L 423.016205 93.399375 
L 423.016205 93.399375 
L 423.016205 93.399375 
L 423.016205 93.399375 
L 423.016205 93.399375 
L 423.016205 93.399375 
L 423.016205 93.399375 
L 423.016205 93.399375 
L 423.016205 93.399375 
L 423.016205 93.399375 
L 423.016205 93.399375 
L 423.016205 93.399375 
L 423.016205 93.399375 
L 423.016205 93.399375 
L 423.016205 93.399375 
L 423.016205 93.399375 
L 423.016205 93.399375 
L 423.016205 93.399375 
L 423.016205 93.399375 
L 423.016205 93.399375 
L 423.016205 93.399375 
L 423.016205 93.399375 
L 423.016205 93.399375 
L 423.016205 93.399375 
L 423.016205 93.399375 
L 423.016205 93.399375 
L 423.016205 93.399375 
L 423.016205 93.399375 
L 423.016205 93.399375 
L 423.016205 93.399375 
L 423.016205 93.399375 
L 423.016205 93.399375 
L 423.016205 93.399375 
L 423.016205 93.399375 
L 423.016205 93.399375 
L 423.016205 93.399375 
L 423.016205 93.399375 
L 423.016205 93.399375 
L 423.016205 93.399375 
L 423.016205 93.399375 
L 423.016205 93.399375 
L 423.016205 93.399375 
L 423.016205 93.399375 
L 423.016205 93.399375 
L 423.016205 93.399375 
L 423.016205 93.399375 
L 423.016205 93.399375 
L 423.016205 93.399375 
L 423.016205 93.399375 
L 423.016205 93.399375 
L 423.016205 93.399375 
L 423.016205 93.399375 
L 423.016205 93.399375 
L 423.016205 93.399375 
L 423.016205 93.399375 
L 423.016205 93.399375 
L 423.016205 93.399375 
L 423.016205 93.399375 
L 423.016205 93.399375 
L 423.016205 93.399375 
L 423.016205 93.399375 
L 423.016205 93.399375 
L 423.016205 93.399375 
L 423.016205 93.399375 
L 423.016205 93.399375 
L 423.016205 93.399375 
L 423.016205 93.399375 
L 423.016205 93.399375 
L 423.016205 93.399375 
L 423.016205 93.399375 
z
" clip-path="url(#p5f065b21f7)" style="fill: #1f77b4; fill-opacity: 0.8"/>
   </g>
   <g id="matplotlib.axis_1">
    <g id="xtick_1">
     <g id="line2d_1">
      <defs>
       <path id="m28d017cc63" d="M 0 0 
L 0 3.5 
"/>
      </defs>
      <g>
       <use xlink:href="#m28d017cc63" x="180.908767" y="65.679375"/>
      </g>
     </g>
     <g id="text_1">
      <text style="font: 8px 'DejaVu Sans', 'Bitstream Vera Sans', 'Computer Modern Sans Serif', 'Lucida Grande', 'Verdana', 'Geneva', 'Lucid', 'Arial', 'Helvetica', 'Avant Garde', sans-serif; text-anchor: middle" x="180.908767" y="78.758125" transform="rotate(-0 180.908767 78.758125)">ApBem1</text>
     </g>
    </g>
    <g id="xtick_2">
     <g id="line2d_2">
      <g>
       <use xlink:href="#m28d017cc63" x="342.313725" y="65.679375"/>
      </g>
     </g>
     <g id="text_2">
      <text style="font: 8px 'DejaVu Sans', 'Bitstream Vera Sans', 'Computer Modern Sans Serif', 'Lucida Grande', 'Verdana', 'Geneva', 'Lucid', 'Arial', 'Helvetica', 'Avant Garde', sans-serif; text-anchor: middle" x="342.313725" y="78.758125" transform="rotate(-0 342.313725 78.758125)">ScBem1</text>
     </g>
    </g>
   </g>
   <g id="matplotlib.axis_2">
    <g id="ytick_1">
     <g id="line2d_3">
      <defs>
       <path id="m52a6420eb4" d="M 0 0 
L -3.5 0 
"/>
      </defs>
      <g>
       <use xlink:href="#m52a6420eb4" x="50.17075" y="65.679375"/>
      </g>
     </g>
     <g id="text_3">
      <text style="font: 8px 'DejaVu Sans', 'Bitstream Vera Sans', 'Computer Modern Sans Serif', 'Lucida Grande', 'Verdana', 'Geneva', 'Lucid', 'Arial', 'Helvetica', 'Avant Garde', sans-serif; text-anchor: end" x="43.17075" y="68.71875" transform="rotate(-0 43.17075 68.71875)">0</text>
     </g>
    </g>
    <g id="ytick_2">
     <g id="line2d_4">
      <g>
       <use xlink:href="#m52a6420eb4" x="50.17075" y="37.959375"/>
      </g>
     </g>
     <g id="text_4">
      <text style="font: 8px 'DejaVu Sans', 'Bitstream Vera Sans', 'Computer Modern Sans Serif', 'Lucida Grande', 'Verdana', 'Geneva', 'Lucid', 'Arial', 'Helvetica', 'Avant Garde', sans-serif; text-anchor: end" x="43.17075" y="40.99875" transform="rotate(-0 43.17075 40.99875)">100</text>
     </g>
    </g>
    <g id="ytick_3">
     <g id="line2d_5">
      <g>
       <use xlink:href="#m52a6420eb4" x="50.17075" y="10.239375"/>
      </g>
     </g>
     <g id="text_5">
      <text style="font: 8px 'DejaVu Sans', 'Bitstream Vera Sans', 'Computer Modern Sans Serif', 'Lucida Grande', 'Verdana', 'Geneva', 'Lucid', 'Arial', 'Helvetica', 'Avant Garde', sans-serif; text-anchor: end" x="43.17075" y="13.27875" transform="rotate(-0 43.17075 13.27875)">200</text>
     </g>
    </g>
    <g id="text_6">
     <text style="font: 8px 'DejaVu Sans', 'Bitstream Vera Sans', 'Computer Modern Sans Serif', 'Lucida Grande', 'Verdana', 'Geneva', 'Lucid', 'Arial', 'Helvetica', 'Avant Garde', sans-serif" transform="translate(13.27875 50.8775) rotate(-90)">Bem1 </text>
     <text style="font: 8px 'DejaVu Sans', 'Bitstream Vera Sans', 'Computer Modern Sans Serif', 'Lucida Grande', 'Verdana', 'Geneva', 'Lucid', 'Arial', 'Helvetica', 'Avant Garde', sans-serif" transform="translate(22.237 76.635) rotate(-90)">Concentration (nM)</text>
    </g>
   </g>
   <g id="LineCollection_1">
    <path d="M 75.995543 42.976747 
L 92.136039 42.976747 
" clip-path="url(#p5f065b21f7)" style="fill: none; stroke: #000000; stroke-opacity: 0.8; stroke-width: 1.5"/>
    <path d="M 140.557527 44.976438 
L 156.698023 44.976438 
" clip-path="url(#p5f065b21f7)" style="fill: none; stroke: #000000; stroke-opacity: 0.8; stroke-width: 1.5"/>
    <path d="M 205.11951 48.604581 
L 221.260006 48.604581 
" clip-path="url(#p5f065b21f7)" style="fill: none; stroke: #000000; stroke-opacity: 0.8; stroke-width: 1.5"/>
    <path d="M 269.681494 46.127754 
L 285.82199 46.127754 
" clip-path="url(#p5f065b21f7)" style="fill: none; stroke: #000000; stroke-opacity: 0.8; stroke-width: 1.5"/>
    <path d="M 334.243477 43.113621 
L 350.383973 43.113621 
" clip-path="url(#p5f065b21f7)" style="fill: none; stroke: #000000; stroke-opacity: 0.8; stroke-width: 1.5"/>
    <path clip-path="url(#p5f065b21f7)" style="fill: none; stroke: #000000; stroke-opacity: 0.8; stroke-width: 1.5"/>
   </g>
   <g id="patch_3">
    <path d="M 50.17075 65.679375 
L 50.17075 10.239375 
" style="fill: none; stroke: #000000; stroke-width: 0.8; stroke-linejoin: miter; stroke-linecap: square"/>
   </g>
   <g id="patch_4">
    <path d="M 50.17075 65.679375 
L 440.77075 65.679375 
" style="fill: none; stroke: #000000; stroke-width: 0.8; stroke-linejoin: miter; stroke-linecap: square"/>
   </g>
  </g>
 </g>
 <defs>
  <clipPath id="p5f065b21f7">
   <rect x="50.17075" y="10.239375" width="390.6" height="55.44"/>
  </clipPath>
 </defs>
</svg>
