<?xml version="1.0" encoding="utf-8" standalone="no"?>
<!DOCTYPE svg PUBLIC "-//W3C//DTD SVG 1.1//EN"
  "http://www.w3.org/Graphics/SVG/1.1/DTD/svg11.dtd">
<svg xmlns:xlink="http://www.w3.org/1999/xlink" width="280.57075pt" height="77.5825pt" viewBox="0 0 280.57075 77.5825" xmlns="http://www.w3.org/2000/svg" version="1.1">
 <metadata>
  <rdf:RDF xmlns:dc="http://purl.org/dc/elements/1.1/" xmlns:cc="http://creativecommons.org/ns#" xmlns:rdf="http://www.w3.org/1999/02/22-rdf-syntax-ns#">
   <cc:Work>
    <dc:type rdf:resource="http://purl.org/dc/dcmitype/StillImage"/>
    <dc:date>2024-11-08T16:10:56.390722</dc:date>
    <dc:format>image/svg+xml</dc:format>
    <dc:creator>
     <cc:Agent>
      <dc:title>Matplotlib v3.7.1, https://matplotlib.org/</dc:title>
     </cc:Agent>
    </dc:creator>
   </cc:Work>
  </rdf:RDF>
 </metadata>
 <defs>
  <style type="text/css">*{stroke-linejoin: round; stroke-linecap: butt}</style>
 </defs>
 <g id="figure_1">
  <g id="patch_1">
   <path d="M 0 77.5825 
L 280.57075 77.5825 
L 280.57075 0 
L 0 0 
L 0 77.5825 
z
" style="fill: none"/>
  </g>
  <g id="axes_1">
   <g id="patch_2">
    <path d="M 50.17075 65.679375 
L 273.37075 65.679375 
L 273.37075 10.239375 
L 50.17075 10.239375 
L 50.17075 65.679375 
z
" style="fill: none"/>
   </g>
   <g id="PolyCollection_1">
    <path d="M 76.115726 66.521509 
L 73.503696 66.521509 
L 73.372757 66.139818 
L 73.232115 65.758128 
L 73.081141 65.376437 
L 72.919284 64.994747 
L 72.746129 64.613057 
L 72.561464 64.231366 
L 72.365336 63.849676 
L 72.158106 63.467985 
L 71.940492 63.086295 
L 71.713589 62.704605 
L 71.478876 62.322914 
L 71.238194 61.941224 
L 70.993697 61.559533 
L 70.747782 61.177843 
L 70.502989 60.796153 
L 70.261894 60.414462 
L 70.026983 60.032772 
L 69.80052 59.651081 
L 69.584429 59.269391 
L 69.380184 58.887701 
L 69.188725 58.50601 
L 69.010402 58.12432 
L 68.844951 57.742629 
L 68.691517 57.360939 
L 68.548702 56.979249 
L 68.414648 56.597558 
L 68.287153 56.215868 
L 68.163797 55.834177 
L 68.042077 55.452487 
L 67.91954 55.070797 
L 67.793906 54.689106 
L 67.66316 54.307416 
L 67.525633 53.925725 
L 67.380036 53.544035 
L 67.225473 53.162345 
L 67.061427 52.780654 
L 66.887715 52.398964 
L 66.704443 52.017273 
L 66.511937 51.635583 
L 66.310691 51.253893 
L 66.101309 50.872202 
L 65.884474 50.490512 
L 65.660924 50.108821 
L 65.431448 49.727131 
L 65.1969 49.345441 
L 64.958211 48.96375 
L 64.71642 48.58206 
L 64.472688 48.200369 
L 64.228313 47.818679 
L 63.984715 47.436989 
L 63.743418 47.055298 
L 63.505995 46.673608 
L 63.274007 46.291917 
L 63.048917 45.910227 
L 62.832007 45.528537 
L 62.624286 45.146846 
L 62.42642 44.765156 
L 62.238678 44.383465 
L 62.060913 44.001775 
L 61.892581 43.620085 
L 61.732802 43.238394 
L 61.580467 42.856704 
L 61.434376 42.475013 
L 61.293412 42.093323 
L 61.156733 41.711633 
L 61.023964 41.329942 
L 60.895377 40.948252 
L 60.772041 40.566561 
L 60.65593 40.184871 
L 60.549966 39.803181 
L 60.458 39.42149 
L 60.384726 39.0398 
L 60.335517 38.658109 
L 60.316205 38.276419 
L 60.332811 37.894729 
L 60.39124 37.513038 
L 60.496958 37.131348 
L 60.65468 36.749657 
L 60.868077 36.367967 
L 61.139541 35.986277 
L 61.46999 35.604586 
L 61.858769 35.222896 
L 62.303606 34.841205 
L 62.800671 34.459515 
L 63.344691 34.077825 
L 63.929148 33.696134 
L 64.546522 33.314444 
L 65.18858 32.932753 
L 65.846682 32.551063 
L 66.512095 32.169373 
L 67.176291 31.787682 
L 67.831222 31.405992 
L 68.469552 31.024301 
L 69.084839 30.642611 
L 69.671664 30.260921 
L 70.22571 29.87923 
L 70.743776 29.49754 
L 71.223754 29.115849 
L 71.664555 28.734159 
L 77.954867 28.734159 
L 77.954867 28.734159 
L 78.395669 29.115849 
L 78.875646 29.49754 
L 79.393712 29.87923 
L 79.947758 30.260921 
L 80.534583 30.642611 
L 81.14987 31.024301 
L 81.7882 31.405992 
L 82.443132 31.787682 
L 83.107328 32.169373 
L 83.77274 32.551063 
L 84.430842 32.932753 
L 85.0729 33.314444 
L 85.690274 33.696134 
L 86.274731 34.077825 
L 86.818751 34.459515 
L 87.315816 34.841205 
L 87.760653 35.222896 
L 88.149432 35.604586 
L 88.479881 35.986277 
L 88.751345 36.367967 
L 88.964743 36.749657 
L 89.122464 37.131348 
L 89.228182 37.513038 
L 89.286611 37.894729 
L 89.303218 38.276419 
L 89.283906 38.658109 
L 89.234696 39.0398 
L 89.161422 39.42149 
L 89.069456 39.803181 
L 88.963492 40.184871 
L 88.847381 40.566561 
L 88.724045 40.948252 
L 88.595458 41.329942 
L 88.462689 41.711633 
L 88.32601 42.093323 
L 88.185046 42.475013 
L 88.038955 42.856704 
L 87.88662 43.238394 
L 87.726841 43.620085 
L 87.558509 44.001775 
L 87.380744 44.383465 
L 87.193002 44.765156 
L 86.995136 45.146846 
L 86.787415 45.528537 
L 86.570505 45.910227 
L 86.345416 46.291917 
L 86.113427 46.673608 
L 85.876004 47.055298 
L 85.634707 47.436989 
L 85.391109 47.818679 
L 85.146734 48.200369 
L 84.903002 48.58206 
L 84.661211 48.96375 
L 84.422522 49.345441 
L 84.187974 49.727131 
L 83.958498 50.108821 
L 83.734948 50.490512 
L 83.518113 50.872202 
L 83.308731 51.253893 
L 83.107485 51.635583 
L 82.914979 52.017273 
L 82.731707 52.398964 
L 82.557996 52.780654 
L 82.393949 53.162345 
L 82.239386 53.544035 
L 82.093789 53.925725 
L 81.956262 54.307416 
L 81.825516 54.689106 
L 81.699882 55.070797 
L 81.577345 55.452487 
L 81.455625 55.834177 
L 81.332269 56.215868 
L 81.204775 56.597558 
L 81.070721 56.979249 
L 80.927905 57.360939 
L 80.774471 57.742629 
L 80.60902 58.12432 
L 80.430697 58.50601 
L 80.239238 58.887701 
L 80.034993 59.269391 
L 79.818902 59.651081 
L 79.592439 60.032772 
L 79.357528 60.414462 
L 79.116433 60.796153 
L 78.871641 61.177843 
L 78.625725 61.559533 
L 78.381228 61.941224 
L 78.140546 62.322914 
L 77.905834 62.704605 
L 77.67893 63.086295 
L 77.461316 63.467985 
L 77.254086 63.849676 
L 77.057958 64.231366 
L 76.873293 64.613057 
L 76.700138 64.994747 
L 76.538281 65.376437 
L 76.387307 65.758128 
L 76.246665 66.139818 
L 76.115726 66.521509 
z
" clip-path="url(#p19aca36ec8)" style="fill: #1f77b4; fill-opacity: 0.8"/>
   </g>
   <g id="PolyCollection_2">
    <path d="M 134.010593 68.667591 
L 131.556881 68.667591 
L 131.423174 68.234313 
L 131.284665 67.801036 
L 131.14134 67.367758 
L 130.992725 66.934481 
L 130.837777 66.501203 
L 130.674806 66.067925 
L 130.501422 65.634648 
L 130.314519 65.20137 
L 130.110319 64.768093 
L 129.88446 64.334815 
L 129.63215 63.901537 
L 129.348379 63.46826 
L 129.028185 63.034982 
L 128.666972 62.601705 
L 128.26086 62.168427 
L 127.807058 61.735149 
L 127.304235 61.301872 
L 126.752855 60.868594 
L 126.155464 60.435317 
L 125.516879 60.002039 
L 124.844264 59.568761 
L 124.147055 59.135484 
L 123.436724 58.702206 
L 122.72638 58.268929 
L 122.030198 57.835651 
L 121.362733 57.402373 
L 120.738133 56.969096 
L 120.169325 56.535818 
L 119.667246 56.102541 
L 119.240167 55.669263 
L 118.893204 55.235985 
L 118.628042 54.802708 
L 118.442918 54.36943 
L 118.332872 53.936153 
L 118.290231 53.502875 
L 118.305296 53.069597 
L 118.367163 52.63632 
L 118.46459 52.203042 
L 118.58684 51.769765 
L 118.724418 51.336487 
L 118.869637 50.903209 
L 119.016965 50.469932 
L 119.163145 50.036654 
L 119.307077 49.603377 
L 119.449503 49.170099 
L 119.592533 48.736821 
L 119.739072 48.303544 
L 119.892216 47.870266 
L 120.054677 47.436989 
L 120.228294 47.003711 
L 120.413676 46.570433 
L 120.610005 46.137156 
L 120.81501 45.703878 
L 121.025106 45.270601 
L 121.235682 44.837323 
L 121.441496 44.404045 
L 121.637139 43.970768 
L 121.817528 43.53749 
L 121.978365 43.104213 
L 122.116532 42.670935 
L 122.230379 42.237657 
L 122.319893 41.80438 
L 122.386724 41.371102 
L 122.434076 40.937825 
L 122.466485 40.504547 
L 122.489507 40.071269 
L 122.509348 39.637992 
L 122.532478 39.204714 
L 122.565262 38.771437 
L 122.613643 38.338159 
L 122.682896 37.904881 
L 122.777458 37.471604 
L 122.900848 37.038326 
L 123.055649 36.605049 
L 123.243544 36.171771 
L 123.465381 35.738493 
L 123.721247 35.305216 
L 124.010528 34.871938 
L 124.331952 34.438661 
L 124.683611 34.005383 
L 125.062958 33.572105 
L 125.466811 33.138828 
L 125.891353 32.70555 
L 126.332168 32.272273 
L 126.784312 31.838995 
L 127.242425 31.405717 
L 127.700895 30.97244 
L 128.15405 30.539162 
L 128.596377 30.105885 
L 129.022754 29.672607 
L 129.42865 29.239329 
L 129.810308 28.806052 
L 130.164869 28.372774 
L 130.490439 27.939497 
L 130.786094 27.506219 
L 131.051825 27.072941 
L 131.288429 26.639664 
L 131.497365 26.206386 
L 131.680585 25.773109 
L 133.886889 25.773109 
L 133.886889 25.773109 
L 134.070109 26.206386 
L 134.279045 26.639664 
L 134.515649 27.072941 
L 134.78138 27.506219 
L 135.077035 27.939497 
L 135.402605 28.372774 
L 135.757166 28.806052 
L 136.138824 29.239329 
L 136.54472 29.672607 
L 136.971097 30.105885 
L 137.413424 30.539162 
L 137.866579 30.97244 
L 138.325049 31.405717 
L 138.783162 31.838995 
L 139.235306 32.272273 
L 139.676121 32.70555 
L 140.100663 33.138828 
L 140.504516 33.572105 
L 140.883864 34.005383 
L 141.235522 34.438661 
L 141.556946 34.871938 
L 141.846227 35.305216 
L 142.102093 35.738493 
L 142.32393 36.171771 
L 142.511825 36.605049 
L 142.666626 37.038326 
L 142.790016 37.471604 
L 142.884578 37.904881 
L 142.953831 38.338159 
L 143.002212 38.771437 
L 143.034996 39.204714 
L 143.058126 39.637992 
L 143.077967 40.071269 
L 143.100989 40.504547 
L 143.133398 40.937825 
L 143.18075 41.371102 
L 143.247581 41.80438 
L 143.337095 42.237657 
L 143.450942 42.670935 
L 143.589109 43.104213 
L 143.749946 43.53749 
L 143.930335 43.970768 
L 144.125978 44.404045 
L 144.331792 44.837323 
L 144.542368 45.270601 
L 144.752464 45.703878 
L 144.957469 46.137156 
L 145.153798 46.570433 
L 145.33918 47.003711 
L 145.512797 47.436989 
L 145.675258 47.870266 
L 145.828402 48.303544 
L 145.974941 48.736821 
L 146.117971 49.170099 
L 146.260397 49.603377 
L 146.404329 50.036654 
L 146.550509 50.469932 
L 146.697837 50.903209 
L 146.843056 51.336487 
L 146.980634 51.769765 
L 147.102884 52.203042 
L 147.200311 52.63632 
L 147.262178 53.069597 
L 147.277244 53.502875 
L 147.234602 53.936153 
L 147.124556 54.36943 
L 146.939432 54.802708 
L 146.67427 55.235985 
L 146.327307 55.669263 
L 145.900228 56.102541 
L 145.398149 56.535818 
L 144.829342 56.969096 
L 144.204741 57.402373 
L 143.537276 57.835651 
L 142.841094 58.268929 
L 142.13075 58.702206 
L 141.420419 59.135484 
L 140.72321 59.568761 
L 140.050595 60.002039 
L 139.41201 60.435317 
L 138.814619 60.868594 
L 138.263239 61.301872 
L 137.760416 61.735149 
L 137.306614 62.168427 
L 136.900503 62.601705 
L 136.539289 63.034982 
L 136.219095 63.46826 
L 135.935324 63.901537 
L 135.683014 64.334815 
L 135.457155 64.768093 
L 135.252955 65.20137 
L 135.066052 65.634648 
L 134.892668 66.067925 
L 134.729697 66.501203 
L 134.574749 66.934481 
L 134.426134 67.367758 
L 134.282809 67.801036 
L 134.1443 68.234313 
L 134.010593 68.667591 
z
" clip-path="url(#p19aca36ec8)" style="fill: #1f77b4; fill-opacity: 0.8"/>
   </g>
   <g id="PolyCollection_3">
    <path d="M 193.768669 68.667591 
L 187.746857 68.667591 
L 187.669925 68.244192 
L 187.598448 67.820793 
L 187.53081 67.397393 
L 187.46505 66.973994 
L 187.398902 66.550595 
L 187.329855 66.127196 
L 187.255215 65.703797 
L 187.172176 65.280397 
L 187.0779 64.856998 
L 186.969592 64.433599 
L 186.844582 64.0102 
L 186.7004 63.586801 
L 186.53485 63.163401 
L 186.346073 62.740002 
L 186.13261 62.316603 
L 185.893449 61.893204 
L 185.628067 61.469805 
L 185.336461 61.046405 
L 185.019167 60.623006 
L 184.677272 60.199607 
L 184.31241 59.776208 
L 183.926746 59.352809 
L 183.522958 58.929409 
L 183.104189 58.50601 
L 182.674008 58.082611 
L 182.23634 57.659212 
L 181.795398 57.235813 
L 181.355593 56.812413 
L 180.921447 56.389014 
L 180.497482 55.965615 
L 180.08812 55.542216 
L 179.697561 55.118817 
L 179.329681 54.695417 
L 178.987915 54.272018 
L 178.675159 53.848619 
L 178.393677 53.42522 
L 178.14503 53.001821 
L 177.930014 52.578421 
L 177.748634 52.155022 
L 177.600086 51.731623 
L 177.482784 51.308224 
L 177.3944 50.884825 
L 177.331935 50.461425 
L 177.291826 50.038026 
L 177.270055 49.614627 
L 177.262297 49.191228 
L 177.264071 48.767829 
L 177.270898 48.344429 
L 177.278471 47.92103 
L 177.282808 47.497631 
L 177.280401 47.074232 
L 177.268349 46.650833 
L 177.244463 46.227433 
L 177.207348 45.804034 
L 177.156454 45.380635 
L 177.092093 44.957236 
L 177.015424 44.533837 
L 176.928406 44.110437 
L 176.833723 43.687038 
L 176.734677 43.263639 
L 176.635069 42.84024 
L 176.539055 42.416841 
L 176.450995 41.993441 
L 176.375303 41.570042 
L 176.316296 41.146643 
L 176.278046 40.723244 
L 176.264256 40.299845 
L 176.27815 39.876445 
L 176.322379 39.453046 
L 176.39896 39.029647 
L 176.509232 38.606248 
L 176.653844 38.182849 
L 176.83276 37.759449 
L 177.045292 37.33605 
L 177.290149 36.912651 
L 177.565502 36.489252 
L 177.869066 36.065853 
L 178.198185 35.642453 
L 178.549926 35.219054 
L 178.921173 34.795655 
L 179.308718 34.372256 
L 179.709347 33.948857 
L 180.119918 33.525457 
L 180.537431 33.102058 
L 180.959081 32.678659 
L 181.382303 32.25526 
L 181.804801 31.831861 
L 182.224566 31.408461 
L 182.639877 30.985062 
L 183.049297 30.561663 
L 183.451657 30.138264 
L 183.846025 29.714865 
L 184.231681 29.291465 
L 184.608078 28.868066 
L 184.974806 28.444667 
L 185.331558 28.021268 
L 185.678089 27.597869 
L 186.014193 27.174469 
L 186.339674 26.75107 
L 195.175852 26.75107 
L 195.175852 26.75107 
L 195.501333 27.174469 
L 195.837437 27.597869 
L 196.183968 28.021268 
L 196.540719 28.444667 
L 196.907448 28.868066 
L 197.283845 29.291465 
L 197.669501 29.714865 
L 198.063869 30.138264 
L 198.466229 30.561663 
L 198.875649 30.985062 
L 199.29096 31.408461 
L 199.710724 31.831861 
L 200.133223 32.25526 
L 200.556445 32.678659 
L 200.978095 33.102058 
L 201.395608 33.525457 
L 201.806179 33.948857 
L 202.206808 34.372256 
L 202.594353 34.795655 
L 202.9656 35.219054 
L 203.317341 35.642453 
L 203.64646 36.065853 
L 203.950024 36.489252 
L 204.225377 36.912651 
L 204.470234 37.33605 
L 204.682766 37.759449 
L 204.861682 38.182849 
L 205.006294 38.606248 
L 205.116566 39.029647 
L 205.193147 39.453046 
L 205.237376 39.876445 
L 205.251269 40.299845 
L 205.23748 40.723244 
L 205.19923 41.146643 
L 205.140223 41.570042 
L 205.064531 41.993441 
L 204.976471 42.416841 
L 204.880457 42.84024 
L 204.780849 43.263639 
L 204.681803 43.687038 
L 204.58712 44.110437 
L 204.500102 44.533837 
L 204.423433 44.957236 
L 204.359072 45.380635 
L 204.308178 45.804034 
L 204.271063 46.227433 
L 204.247177 46.650833 
L 204.235125 47.074232 
L 204.232718 47.497631 
L 204.237055 47.92103 
L 204.244628 48.344429 
L 204.251455 48.767829 
L 204.253229 49.191228 
L 204.245471 49.614627 
L 204.2237 50.038026 
L 204.183591 50.461425 
L 204.121126 50.884825 
L 204.032742 51.308224 
L 203.91544 51.731623 
L 203.766892 52.155022 
L 203.585512 52.578421 
L 203.370496 53.001821 
L 203.121849 53.42522 
L 202.840367 53.848619 
L 202.527611 54.272018 
L 202.185845 54.695417 
L 201.817965 55.118817 
L 201.427406 55.542216 
L 201.018044 55.965615 
L 200.594079 56.389014 
L 200.159933 56.812413 
L 199.720128 57.235813 
L 199.279186 57.659212 
L 198.841518 58.082611 
L 198.411337 58.50601 
L 197.992568 58.929409 
L 197.58878 59.352809 
L 197.203116 59.776208 
L 196.838254 60.199607 
L 196.496359 60.623006 
L 196.179065 61.046405 
L 195.887459 61.469805 
L 195.622077 61.893204 
L 195.382916 62.316603 
L 195.169453 62.740002 
L 194.980676 63.163401 
L 194.815126 63.586801 
L 194.670944 64.0102 
L 194.545934 64.433599 
L 194.437626 64.856998 
L 194.34335 65.280397 
L 194.260311 65.703797 
L 194.185671 66.127196 
L 194.116624 66.550595 
L 194.050476 66.973994 
L 193.984716 67.397393 
L 193.917078 67.820793 
L 193.845601 68.244192 
L 193.768669 68.667591 
z
" clip-path="url(#p19aca36ec8)" style="fill: #1f77b4; fill-opacity: 0.8"/>
   </g>
   <g id="PolyCollection_4">
    <path d="M 256.347942 68.667591 
L 241.115635 68.667591 
L 241.009423 68.449306 
L 240.911727 68.231021 
L 240.822704 68.012735 
L 240.742459 67.79445 
L 240.671035 67.576165 
L 240.608417 67.35788 
L 240.554529 67.139595 
L 240.509233 66.921309 
L 240.47233 66.703024 
L 240.44356 66.484739 
L 240.422602 66.266454 
L 240.409077 66.048169 
L 240.402547 65.829883 
L 240.402523 65.611598 
L 240.40846 65.393313 
L 240.419767 65.175028 
L 240.435806 64.956743 
L 240.455902 64.738457 
L 240.479338 64.520172 
L 240.505372 64.301887 
L 240.53323 64.083602 
L 240.56212 63.865317 
L 240.591236 63.647031 
L 240.619758 63.428746 
L 240.646867 63.210461 
L 240.671744 62.992176 
L 240.69358 62.773891 
L 240.711577 62.555605 
L 240.724962 62.33732 
L 240.732986 62.119035 
L 240.734931 61.90075 
L 240.730119 61.682465 
L 240.717913 61.464179 
L 240.697725 61.245894 
L 240.669018 61.027609 
L 240.631313 60.809324 
L 240.584193 60.591039 
L 240.527303 60.372753 
L 240.460358 60.154468 
L 240.383141 59.936183 
L 240.29551 59.717898 
L 240.197395 59.499613 
L 240.088803 59.281327 
L 239.969817 59.063042 
L 239.840598 58.844757 
L 239.701382 58.626472 
L 239.552479 58.408187 
L 239.394277 58.189901 
L 239.227234 57.971616 
L 239.051881 57.753331 
L 238.868813 57.535046 
L 238.678693 57.316761 
L 238.482244 57.098475 
L 238.280246 56.88019 
L 238.073532 56.661905 
L 237.862983 56.44362 
L 237.649523 56.225335 
L 237.434115 56.007049 
L 237.217753 55.788764 
L 237.001458 55.570479 
L 236.786272 55.352194 
L 236.573252 55.133909 
L 236.36346 54.915623 
L 236.157965 54.697338 
L 235.957828 54.479053 
L 235.764101 54.260768 
L 235.577819 54.042483 
L 235.399993 53.824197 
L 235.231607 53.605912 
L 235.073609 53.387627 
L 234.926905 53.169342 
L 234.792359 52.951057 
L 234.670782 52.732771 
L 234.562927 52.514486 
L 234.469492 52.296201 
L 234.391108 52.077916 
L 234.328339 51.859631 
L 234.281677 51.641345 
L 234.251544 51.42306 
L 234.238282 51.204775 
L 234.24216 50.98649 
L 234.263366 50.768205 
L 234.302009 50.549919 
L 234.35812 50.331634 
L 234.431648 50.113349 
L 234.522469 49.895064 
L 234.630377 49.676779 
L 234.755094 49.458493 
L 234.896269 49.240208 
L 235.053481 49.021923 
L 235.226241 48.803638 
L 235.414 48.585353 
L 235.616146 48.367067 
L 235.832016 48.148782 
L 236.060893 47.930497 
L 236.302018 47.712212 
L 236.554588 47.493927 
L 236.817767 47.275641 
L 237.090689 47.057356 
L 260.372889 47.057356 
L 260.372889 47.057356 
L 260.645811 47.275641 
L 260.90899 47.493927 
L 261.16156 47.712212 
L 261.402685 47.930497 
L 261.631562 48.148782 
L 261.847432 48.367067 
L 262.049578 48.585353 
L 262.237337 48.803638 
L 262.410097 49.021923 
L 262.567309 49.240208 
L 262.708484 49.458493 
L 262.833201 49.676779 
L 262.941109 49.895064 
L 263.03193 50.113349 
L 263.105458 50.331634 
L 263.161569 50.549919 
L 263.200212 50.768205 
L 263.221418 50.98649 
L 263.225295 51.204775 
L 263.212034 51.42306 
L 263.181901 51.641345 
L 263.135239 51.859631 
L 263.07247 52.077916 
L 262.994085 52.296201 
L 262.900651 52.514486 
L 262.792796 52.732771 
L 262.671219 52.951057 
L 262.536672 53.169342 
L 262.389969 53.387627 
L 262.231971 53.605912 
L 262.063584 53.824197 
L 261.885759 54.042483 
L 261.699477 54.260768 
L 261.50575 54.479053 
L 261.305613 54.697338 
L 261.100118 54.915623 
L 260.890326 55.133909 
L 260.677306 55.352194 
L 260.46212 55.570479 
L 260.245825 55.788764 
L 260.029463 56.007049 
L 259.814055 56.225335 
L 259.600595 56.44362 
L 259.390046 56.661905 
L 259.183332 56.88019 
L 258.981334 57.098475 
L 258.784885 57.316761 
L 258.594765 57.535046 
L 258.411697 57.753331 
L 258.236343 57.971616 
L 258.069301 58.189901 
L 257.911099 58.408187 
L 257.762196 58.626472 
L 257.62298 58.844757 
L 257.493761 59.063042 
L 257.374775 59.281327 
L 257.266183 59.499613 
L 257.168068 59.717898 
L 257.080437 59.936183 
L 257.00322 60.154468 
L 256.936275 60.372753 
L 256.879385 60.591039 
L 256.832265 60.809324 
L 256.79456 61.027609 
L 256.765853 61.245894 
L 256.745665 61.464179 
L 256.733459 61.682465 
L 256.728647 61.90075 
L 256.730592 62.119035 
L 256.738616 62.33732 
L 256.752001 62.555605 
L 256.769998 62.773891 
L 256.791833 62.992176 
L 256.816711 63.210461 
L 256.84382 63.428746 
L 256.872342 63.647031 
L 256.901457 63.865317 
L 256.930348 64.083602 
L 256.958206 64.301887 
L 256.984239 64.520172 
L 257.007676 64.738457 
L 257.027772 64.956743 
L 257.043811 65.175028 
L 257.055118 65.393313 
L 257.061055 65.611598 
L 257.061031 65.829883 
L 257.054501 66.048169 
L 257.040976 66.266454 
L 257.020018 66.484739 
L 256.991248 66.703024 
L 256.954345 66.921309 
L 256.909049 67.139595 
L 256.855161 67.35788 
L 256.792543 67.576165 
L 256.721119 67.79445 
L 256.640873 68.012735 
L 256.551851 68.231021 
L 256.454155 68.449306 
L 256.347942 68.667591 
z
" clip-path="url(#p19aca36ec8)" style="fill: #1f77b4; fill-opacity: 0.8"/>
   </g>
   <g id="matplotlib.axis_1"/>
   <g id="matplotlib.axis_2">
    <g id="ytick_1">
     <g id="line2d_1">
      <defs>
       <path id="m8bd39ae1d5" d="M 0 0 
L -3.5 0 
"/>
      </defs>
      <g>
       <use xlink:href="#m8bd39ae1d5" x="50.17075" y="65.679375"/>
      </g>
     </g>
     <g id="text_1">
      <text style="font: 8px 'DejaVu Sans', 'Bitstream Vera Sans', 'Computer Modern Sans Serif', 'Lucida Grande', 'Verdana', 'Geneva', 'Lucid', 'Arial', 'Helvetica', 'Avant Garde', sans-serif; text-anchor: end" x="43.17075" y="68.71875" transform="rotate(-0 43.17075 68.71875)">0</text>
     </g>
    </g>
    <g id="ytick_2">
     <g id="line2d_2">
      <g>
       <use xlink:href="#m8bd39ae1d5" x="50.17075" y="37.959375"/>
      </g>
     </g>
     <g id="text_2">
      <text style="font: 8px 'DejaVu Sans', 'Bitstream Vera Sans', 'Computer Modern Sans Serif', 'Lucida Grande', 'Verdana', 'Geneva', 'Lucid', 'Arial', 'Helvetica', 'Avant Garde', sans-serif; text-anchor: end" x="43.17075" y="40.99875" transform="rotate(-0 43.17075 40.99875)">100</text>
     </g>
    </g>
    <g id="ytick_3">
     <g id="line2d_3">
      <g>
       <use xlink:href="#m8bd39ae1d5" x="50.17075" y="10.239375"/>
      </g>
     </g>
     <g id="text_3">
      <text style="font: 8px 'DejaVu Sans', 'Bitstream Vera Sans', 'Computer Modern Sans Serif', 'Lucida Grande', 'Verdana', 'Geneva', 'Lucid', 'Arial', 'Helvetica', 'Avant Garde', sans-serif; text-anchor: end" x="43.17075" y="13.27875" transform="rotate(-0 43.17075 13.27875)">200</text>
     </g>
    </g>
    <g id="text_4">
     <text style="font: 8px 'DejaVu Sans', 'Bitstream Vera Sans', 'Computer Modern Sans Serif', 'Lucida Grande', 'Verdana', 'Geneva', 'Lucid', 'Arial', 'Helvetica', 'Avant Garde', sans-serif" transform="translate(13.27875 49.115625) rotate(-90)">Rac1 </text>
     <text style="font: 8px 'DejaVu Sans', 'Bitstream Vera Sans', 'Computer Modern Sans Serif', 'Lucida Grande', 'Verdana', 'Geneva', 'Lucid', 'Arial', 'Helvetica', 'Avant Garde', sans-serif" transform="translate(22.237 59.584375) rotate(-90)">Conc. (nM)</text>
    </g>
   </g>
   <g id="LineCollection_1">
    <path d="M 67.562958 44.325745 
L 82.056464 44.325745 
" clip-path="url(#p19aca36ec8)" style="fill: none; stroke: #000000; stroke-opacity: 0.8; stroke-width: 1.5"/>
    <path d="M 125.536984 47.322695 
L 140.03049 47.322695 
" clip-path="url(#p19aca36ec8)" style="fill: none; stroke: #000000; stroke-opacity: 0.8; stroke-width: 1.5"/>
    <path d="M 183.51101 45.755348 
L 198.004516 45.755348 
" clip-path="url(#p19aca36ec8)" style="fill: none; stroke: #000000; stroke-opacity: 0.8; stroke-width: 1.5"/>
    <path d="M 241.485036 56.358556 
L 255.978542 56.358556 
" clip-path="url(#p19aca36ec8)" style="fill: none; stroke: #000000; stroke-opacity: 0.8; stroke-width: 1.5"/>
   </g>
   <g id="patch_3">
    <path d="M 50.17075 65.679375 
L 50.17075 10.239375 
" style="fill: none; stroke: #000000; stroke-width: 0.8; stroke-linejoin: miter; stroke-linecap: square"/>
   </g>
   <g id="patch_4">
    <path d="M 50.17075 65.679375 
L 273.37075 65.679375 
" style="fill: none; stroke: #000000; stroke-width: 0.8; stroke-linejoin: miter; stroke-linecap: square"/>
   </g>
  </g>
 </g>
 <defs>
  <clipPath id="p19aca36ec8">
   <rect x="50.17075" y="10.239375" width="223.2" height="55.44"/>
  </clipPath>
 </defs>
</svg>
