<?xml version="1.0" encoding="utf-8" standalone="no"?>
<!DOCTYPE svg PUBLIC "-//W3C//DTD SVG 1.1//EN"
  "http://www.w3.org/Graphics/SVG/1.1/DTD/svg11.dtd">
<svg xmlns:xlink="http://www.w3.org/1999/xlink" width="280.57075pt" height="77.5825pt" viewBox="0 0 280.57075 77.5825" xmlns="http://www.w3.org/2000/svg" version="1.1">
 <metadata>
  <rdf:RDF xmlns:dc="http://purl.org/dc/elements/1.1/" xmlns:cc="http://creativecommons.org/ns#" xmlns:rdf="http://www.w3.org/1999/02/22-rdf-syntax-ns#">
   <cc:Work>
    <dc:type rdf:resource="http://purl.org/dc/dcmitype/StillImage"/>
    <dc:date>2024-11-08T16:13:26.374828</dc:date>
    <dc:format>image/svg+xml</dc:format>
    <dc:creator>
     <cc:Agent>
      <dc:title>Matplotlib v3.7.1, https://matplotlib.org/</dc:title>
     </cc:Agent>
    </dc:creator>
   </cc:Work>
  </rdf:RDF>
 </metadata>
 <defs>
  <style type="text/css">*{stroke-linejoin: round; stroke-linecap: butt}</style>
 </defs>
 <g id="figure_1">
  <g id="patch_1">
   <path d="M 0 77.5825 
L 280.57075 77.5825 
L 280.57075 0 
L 0 0 
L 0 77.5825 
z
" style="fill: none"/>
  </g>
  <g id="axes_1">
   <g id="patch_2">
    <path d="M 50.17075 65.679375 
L 273.37075 65.679375 
L 273.37075 10.239375 
L 50.17075 10.239375 
L 50.17075 65.679375 
z
" style="fill: none"/>
   </g>
   <g id="PolyCollection_1">
    <path d="M 75.556007 64.489633 
L 74.063415 64.489633 
L 73.904977 64.054807 
L 73.73285 63.619981 
L 73.548494 63.185155 
L 73.353225 62.750329 
L 73.148215 62.315503 
L 72.934575 61.880677 
L 72.713422 61.445851 
L 72.485846 61.011025 
L 72.252698 60.576199 
L 72.014217 60.141373 
L 71.769565 59.706547 
L 71.516427 59.271721 
L 71.250811 58.836895 
L 70.967182 58.402069 
L 70.65896 57.967243 
L 70.31933 57.532417 
L 69.942217 57.097591 
L 69.523253 56.662765 
L 69.060555 56.227939 
L 68.555172 55.793113 
L 68.011173 55.358287 
L 67.435362 54.923461 
L 66.836739 54.488635 
L 66.225809 54.053809 
L 65.613857 53.618983 
L 65.012265 53.184157 
L 64.431925 52.749331 
L 63.882727 52.314505 
L 63.373103 51.879679 
L 62.909621 51.444853 
L 62.496608 51.010027 
L 62.135858 50.575201 
L 61.826491 50.140375 
L 61.565036 49.705549 
L 61.345812 49.270723 
L 61.161635 48.835897 
L 61.004794 48.401071 
L 60.868165 47.966245 
L 60.74627 47.531419 
L 60.636037 47.096593 
L 60.537095 46.661767 
L 60.451526 46.226941 
L 60.383152 45.792115 
L 60.336567 45.357289 
L 60.316205 44.922463 
L 60.325664 44.487637 
L 60.367439 44.052811 
L 60.442979 43.617985 
L 60.552909 43.183159 
L 60.697163 42.748333 
L 60.874876 42.313507 
L 61.08402 41.878681 
L 61.320968 41.443855 
L 61.580251 41.009029 
L 61.854786 40.574203 
L 62.13669 40.139377 
L 62.418566 39.704551 
L 62.694953 39.269725 
L 62.963487 38.834899 
L 63.225378 38.400073 
L 63.485006 37.965247 
L 63.748684 37.530421 
L 64.022957 37.095595 
L 64.312883 36.660769 
L 64.620793 36.225943 
L 64.945801 35.791117 
L 65.284101 35.356291 
L 65.62986 34.921465 
L 65.976349 34.486639 
L 66.316989 34.051813 
L 66.646095 33.616987 
L 66.959258 33.182161 
L 67.253437 32.747335 
L 67.526921 32.312509 
L 67.779271 31.877683 
L 68.011303 31.442857 
L 68.22509 31.008031 
L 68.423915 30.573205 
L 68.612092 30.138379 
L 68.794634 29.703553 
L 68.976754 29.268727 
L 69.163306 28.833901 
L 69.358237 28.399075 
L 69.564167 27.964249 
L 69.782197 27.529423 
L 70.01197 27.094597 
L 70.251998 26.659771 
L 70.500174 26.224945 
L 70.754368 25.790119 
L 71.012951 25.355293 
L 71.275116 24.920467 
L 71.540887 24.485641 
L 71.810798 24.050815 
L 72.085314 23.615989 
L 72.364157 23.181163 
L 72.645717 22.746337 
L 72.926751 22.311511 
L 73.202467 21.876685 
L 73.466997 21.441859 
L 76.152425 21.441859 
L 76.152425 21.441859 
L 76.416955 21.876685 
L 76.692671 22.311511 
L 76.973706 22.746337 
L 77.255265 23.181163 
L 77.534108 23.615989 
L 77.808624 24.050815 
L 78.078535 24.485641 
L 78.344306 24.920467 
L 78.606471 25.355293 
L 78.865055 25.790119 
L 79.119248 26.224945 
L 79.367424 26.659771 
L 79.607452 27.094597 
L 79.837225 27.529423 
L 80.055255 27.964249 
L 80.261185 28.399075 
L 80.456116 28.833901 
L 80.642668 29.268727 
L 80.824788 29.703553 
L 81.00733 30.138379 
L 81.195507 30.573205 
L 81.394332 31.008031 
L 81.608119 31.442857 
L 81.840151 31.877683 
L 82.092501 32.312509 
L 82.365985 32.747335 
L 82.660164 33.182161 
L 82.973327 33.616987 
L 83.302433 34.051813 
L 83.643073 34.486639 
L 83.989562 34.921465 
L 84.335321 35.356291 
L 84.673622 35.791117 
L 84.998629 36.225943 
L 85.306539 36.660769 
L 85.596465 37.095595 
L 85.870738 37.530421 
L 86.134416 37.965247 
L 86.394044 38.400073 
L 86.655935 38.834899 
L 86.924469 39.269725 
L 87.200856 39.704551 
L 87.482732 40.139377 
L 87.764636 40.574203 
L 88.039171 41.009029 
L 88.298454 41.443855 
L 88.535402 41.878681 
L 88.744546 42.313507 
L 88.922259 42.748333 
L 89.066513 43.183159 
L 89.176443 43.617985 
L 89.251983 44.052811 
L 89.293758 44.487637 
L 89.303218 44.922463 
L 89.282855 45.357289 
L 89.23627 45.792115 
L 89.167896 46.226941 
L 89.082327 46.661767 
L 88.983385 47.096593 
L 88.873152 47.531419 
L 88.751257 47.966245 
L 88.614628 48.401071 
L 88.457787 48.835897 
L 88.27361 49.270723 
L 88.054386 49.705549 
L 87.792931 50.140375 
L 87.483564 50.575201 
L 87.122814 51.010027 
L 86.709801 51.444853 
L 86.246319 51.879679 
L 85.736695 52.314505 
L 85.187497 52.749331 
L 84.607157 53.184157 
L 84.005565 53.618983 
L 83.393613 54.053809 
L 82.782683 54.488635 
L 82.184061 54.923461 
L 81.608249 55.358287 
L 81.06425 55.793113 
L 80.558868 56.227939 
L 80.096169 56.662765 
L 79.677205 57.097591 
L 79.300092 57.532417 
L 78.960462 57.967243 
L 78.65224 58.402069 
L 78.368611 58.836895 
L 78.102995 59.271721 
L 77.849857 59.706547 
L 77.605206 60.141373 
L 77.366724 60.576199 
L 77.133576 61.011025 
L 76.906 61.445851 
L 76.684847 61.880677 
L 76.471207 62.315503 
L 76.266197 62.750329 
L 76.070928 63.185155 
L 75.886572 63.619981 
L 75.714445 64.054807 
L 75.556007 64.489633 
z
" clip-path="url(#p6f823f45a7)" style="fill: #1f77b4; fill-opacity: 0.8"/>
   </g>
   <g id="PolyCollection_2">
    <path d="M 133.998972 65.293513 
L 131.568502 65.293513 
L 131.371885 64.850161 
L 131.163344 64.406809 
L 130.942217 63.963457 
L 130.707021 63.520105 
L 130.455729 63.076753 
L 130.186201 62.633401 
L 129.896655 62.190049 
L 129.586112 61.746697 
L 129.254694 61.303345 
L 128.903737 60.859993 
L 128.535694 60.416641 
L 128.153844 59.973289 
L 127.761871 59.529937 
L 127.363395 59.086585 
L 126.961546 58.643233 
L 126.558633 58.199881 
L 126.155977 57.756529 
L 125.753895 57.313177 
L 125.351824 56.869825 
L 124.948551 56.426473 
L 124.542508 55.983121 
L 124.132121 55.539769 
L 123.716174 55.096417 
L 123.294182 54.653065 
L 122.866743 54.209713 
L 122.435799 53.766361 
L 122.004767 53.323009 
L 121.578462 52.879657 
L 121.162798 52.436305 
L 120.764269 51.992953 
L 120.389295 51.549601 
L 120.043523 51.106249 
L 119.731232 50.662897 
L 119.454922 50.219545 
L 119.215196 49.776193 
L 119.010914 49.332841 
L 118.839597 48.889489 
L 118.697966 48.446137 
L 118.582517 48.002785 
L 118.489974 47.559433 
L 118.417568 47.116081 
L 118.363083 46.672729 
L 118.324726 46.229377 
L 118.300928 45.786025 
L 118.290231 45.342673 
L 118.291402 44.899321 
L 118.303843 44.455969 
L 118.328254 44.012617 
L 118.367371 43.569265 
L 118.426519 43.125913 
L 118.513669 42.682561 
L 118.638806 42.239209 
L 118.812563 41.795857 
L 119.044297 41.352505 
L 119.339988 40.909153 
L 119.700444 40.465801 
L 120.120273 40.022449 
L 120.587941 39.579097 
L 121.086978 39.135745 
L 121.598136 38.692393 
L 122.102057 38.249041 
L 122.581942 37.805689 
L 123.025684 37.362337 
L 123.427113 36.918985 
L 123.78621 36.475633 
L 124.108351 36.032281 
L 124.402867 35.588929 
L 124.68125 35.145577 
L 124.955355 34.702225 
L 125.235864 34.258873 
L 125.531152 33.815521 
L 125.8466 33.372169 
L 126.184308 32.928817 
L 126.543165 32.485465 
L 126.919191 32.042113 
L 127.306113 31.598761 
L 127.696109 31.155409 
L 128.080666 30.712057 
L 128.451435 30.268705 
L 128.801005 29.825353 
L 129.12348 29.382001 
L 129.414825 28.938649 
L 129.672963 28.495297 
L 129.897674 28.051945 
L 130.090384 27.608593 
L 130.253917 27.165241 
L 130.392242 26.721889 
L 130.510256 26.278537 
L 130.613538 25.835185 
L 130.708062 25.391833 
L 130.799814 24.948481 
L 130.894338 24.505129 
L 130.996241 24.061777 
L 131.108742 23.618425 
L 131.233341 23.175073 
L 131.369685 22.731721 
L 131.515667 22.288369 
L 131.667744 21.845017 
L 131.821425 21.401665 
L 133.746049 21.401665 
L 133.746049 21.401665 
L 133.89973 21.845017 
L 134.051807 22.288369 
L 134.197789 22.731721 
L 134.334133 23.175073 
L 134.458732 23.618425 
L 134.571233 24.061777 
L 134.673136 24.505129 
L 134.76766 24.948481 
L 134.859412 25.391833 
L 134.953936 25.835185 
L 135.057218 26.278537 
L 135.175232 26.721889 
L 135.313557 27.165241 
L 135.47709 27.608593 
L 135.6698 28.051945 
L 135.894511 28.495297 
L 136.152649 28.938649 
L 136.443994 29.382001 
L 136.766469 29.825353 
L 137.116039 30.268705 
L 137.486808 30.712057 
L 137.871365 31.155409 
L 138.261362 31.598761 
L 138.648283 32.042113 
L 139.024309 32.485465 
L 139.383166 32.928817 
L 139.720874 33.372169 
L 140.036322 33.815521 
L 140.33161 34.258873 
L 140.612119 34.702225 
L 140.886224 35.145577 
L 141.164607 35.588929 
L 141.459123 36.032281 
L 141.781264 36.475633 
L 142.140361 36.918985 
L 142.54179 37.362337 
L 142.985532 37.805689 
L 143.465417 38.249041 
L 143.969338 38.692393 
L 144.480496 39.135745 
L 144.979533 39.579097 
L 145.447201 40.022449 
L 145.86703 40.465801 
L 146.227486 40.909153 
L 146.523177 41.352505 
L 146.754911 41.795857 
L 146.928668 42.239209 
L 147.053805 42.682561 
L 147.140955 43.125913 
L 147.200103 43.569265 
L 147.23922 44.012617 
L 147.263631 44.455969 
L 147.276072 44.899321 
L 147.277244 45.342673 
L 147.266547 45.786025 
L 147.242748 46.229377 
L 147.204391 46.672729 
L 147.149906 47.116081 
L 147.0775 47.559433 
L 146.984957 48.002785 
L 146.869508 48.446137 
L 146.727877 48.889489 
L 146.55656 49.332841 
L 146.352278 49.776193 
L 146.112552 50.219545 
L 145.836242 50.662897 
L 145.523951 51.106249 
L 145.178179 51.549601 
L 144.803205 51.992953 
L 144.404676 52.436305 
L 143.989012 52.879657 
L 143.562707 53.323009 
L 143.131675 53.766361 
L 142.700731 54.209713 
L 142.273292 54.653065 
L 141.8513 55.096417 
L 141.435353 55.539769 
L 141.024966 55.983121 
L 140.618923 56.426473 
L 140.21565 56.869825 
L 139.813579 57.313177 
L 139.411497 57.756529 
L 139.008842 58.199881 
L 138.605928 58.643233 
L 138.204079 59.086585 
L 137.805603 59.529937 
L 137.41363 59.973289 
L 137.03178 60.416641 
L 136.663737 60.859993 
L 136.31278 61.303345 
L 135.981362 61.746697 
L 135.670819 62.190049 
L 135.381273 62.633401 
L 135.111745 63.076753 
L 134.860453 63.520105 
L 134.625257 63.963457 
L 134.40413 64.406809 
L 134.195589 64.850161 
L 133.998972 65.293513 
z
" clip-path="url(#p6f823f45a7)" style="fill: #1f77b4; fill-opacity: 0.8"/>
   </g>
   <g id="PolyCollection_3">
    <path d="M 193.650001 64.875495 
L 187.865524 64.875495 
L 187.490552 64.447571 
L 187.092873 64.019647 
L 186.674153 63.591723 
L 186.236322 63.163799 
L 185.781571 62.735875 
L 185.312354 62.307951 
L 184.83138 61.880027 
L 184.341612 61.452103 
L 183.846239 61.024179 
L 183.34863 60.596255 
L 182.852261 60.168331 
L 182.360616 59.740407 
L 181.877059 59.312483 
L 181.404706 58.884559 
L 180.946281 58.456635 
L 180.504005 58.028711 
L 180.079516 57.600787 
L 179.673837 57.172863 
L 179.287421 56.744939 
L 178.920251 56.317015 
L 178.572019 55.889091 
L 178.242349 55.461167 
L 177.931056 55.033243 
L 177.638411 54.605319 
L 177.36537 54.177395 
L 177.113757 53.749471 
L 176.886347 53.321547 
L 176.686848 52.893623 
L 176.51977 52.465699 
L 176.390169 52.037775 
L 176.303312 51.609851 
L 176.264256 51.181927 
L 176.277413 50.754003 
L 176.346116 50.326079 
L 176.472254 49.898155 
L 176.655992 49.470231 
L 176.895627 49.042307 
L 177.187575 48.614383 
L 177.526516 48.186459 
L 177.905654 47.758535 
L 178.317097 47.330611 
L 178.752289 46.902687 
L 179.202482 46.474763 
L 179.659178 46.046839 
L 180.114523 45.618915 
L 180.561617 45.190991 
L 180.994724 44.763067 
L 181.409367 44.335143 
L 181.802341 43.907219 
L 182.171629 43.479295 
L 182.51627 43.051371 
L 182.836191 42.623447 
L 183.132037 42.195523 
L 183.40501 41.767599 
L 183.656735 41.339675 
L 183.889161 40.911751 
L 184.104491 40.483827 
L 184.305134 40.055903 
L 184.493666 39.627979 
L 184.672797 39.200055 
L 184.845317 38.772131 
L 185.014033 38.344207 
L 185.18168 37.916283 
L 185.350813 37.488359 
L 185.523698 37.060435 
L 185.702192 36.632511 
L 185.88764 36.204587 
L 186.080796 35.776663 
L 186.281776 35.348739 
L 186.490044 34.920815 
L 186.704444 34.492891 
L 186.92326 34.064967 
L 187.144318 33.637043 
L 187.365102 33.209119 
L 187.582887 32.781195 
L 187.794875 32.353271 
L 187.998325 31.925347 
L 188.190677 31.497423 
L 188.369649 31.069499 
L 188.53333 30.641575 
L 188.680244 30.213651 
L 188.809396 29.785727 
L 188.920312 29.357803 
L 189.013052 28.929879 
L 189.088214 28.501955 
L 189.146918 28.074031 
L 189.190786 27.646107 
L 189.221885 27.218183 
L 189.242665 26.790259 
L 189.255871 26.362335 
L 189.264435 25.934411 
L 189.271352 25.506487 
L 189.279548 25.078563 
L 189.291736 24.650639 
L 189.310283 24.222715 
L 189.337098 23.794791 
L 189.373527 23.366867 
L 189.420304 22.938943 
L 189.47752 22.511019 
L 192.038006 22.511019 
L 192.038006 22.511019 
L 192.095222 22.938943 
L 192.141999 23.366867 
L 192.178428 23.794791 
L 192.205242 24.222715 
L 192.22379 24.650639 
L 192.235978 25.078563 
L 192.244174 25.506487 
L 192.251091 25.934411 
L 192.259655 26.362335 
L 192.272861 26.790259 
L 192.293641 27.218183 
L 192.32474 27.646107 
L 192.368608 28.074031 
L 192.427312 28.501955 
L 192.502474 28.929879 
L 192.595213 29.357803 
L 192.70613 29.785727 
L 192.835282 30.213651 
L 192.982195 30.641575 
L 193.145877 31.069499 
L 193.324849 31.497423 
L 193.517201 31.925347 
L 193.720651 32.353271 
L 193.932639 32.781195 
L 194.150424 33.209119 
L 194.371208 33.637043 
L 194.592266 34.064967 
L 194.811082 34.492891 
L 195.025482 34.920815 
L 195.23375 35.348739 
L 195.43473 35.776663 
L 195.627886 36.204587 
L 195.813334 36.632511 
L 195.991827 37.060435 
L 196.164713 37.488359 
L 196.333846 37.916283 
L 196.501493 38.344207 
L 196.670209 38.772131 
L 196.842729 39.200055 
L 197.02186 39.627979 
L 197.210392 40.055903 
L 197.411035 40.483827 
L 197.626365 40.911751 
L 197.858791 41.339675 
L 198.110516 41.767599 
L 198.383489 42.195523 
L 198.679335 42.623447 
L 198.999256 43.051371 
L 199.343897 43.479295 
L 199.713185 43.907219 
L 200.106159 44.335143 
L 200.520802 44.763067 
L 200.953909 45.190991 
L 201.401003 45.618915 
L 201.856348 46.046839 
L 202.313044 46.474763 
L 202.763237 46.902687 
L 203.198429 47.330611 
L 203.609872 47.758535 
L 203.98901 48.186459 
L 204.327951 48.614383 
L 204.619899 49.042307 
L 204.859534 49.470231 
L 205.043272 49.898155 
L 205.16941 50.326079 
L 205.238113 50.754003 
L 205.251269 51.181927 
L 205.212214 51.609851 
L 205.125357 52.037775 
L 204.995756 52.465699 
L 204.828678 52.893623 
L 204.629179 53.321547 
L 204.401769 53.749471 
L 204.150156 54.177395 
L 203.877115 54.605319 
L 203.58447 55.033243 
L 203.273177 55.461167 
L 202.943507 55.889091 
L 202.595275 56.317015 
L 202.228105 56.744939 
L 201.841689 57.172863 
L 201.43601 57.600787 
L 201.011521 58.028711 
L 200.569245 58.456635 
L 200.11082 58.884559 
L 199.638467 59.312483 
L 199.15491 59.740407 
L 198.663265 60.168331 
L 198.166896 60.596255 
L 197.669287 61.024179 
L 197.173914 61.452103 
L 196.684146 61.880027 
L 196.203172 62.307951 
L 195.733955 62.735875 
L 195.279204 63.163799 
L 194.841373 63.591723 
L 194.422653 64.019647 
L 194.024974 64.447571 
L 193.650001 64.875495 
z
" clip-path="url(#p6f823f45a7)" style="fill: #1f77b4; fill-opacity: 0.8"/>
   </g>
   <g id="PolyCollection_4">
    <path d="M 252.912087 62.688941 
L 244.551491 62.688941 
L 244.140798 62.276445 
L 243.730028 61.863949 
L 243.324362 61.451453 
L 242.928708 61.038957 
L 242.547463 60.626461 
L 242.184304 60.213965 
L 241.842003 59.801469 
L 241.522296 59.388973 
L 241.2258 58.976477 
L 240.952003 58.563981 
L 240.69931 58.151485 
L 240.465149 57.738989 
L 240.24614 57.326493 
L 240.038303 56.913997 
L 239.837294 56.501501 
L 239.638661 56.089005 
L 239.438102 55.676509 
L 239.231702 55.264013 
L 239.016142 54.851517 
L 238.788873 54.439021 
L 238.548235 54.026525 
L 238.293521 53.614029 
L 238.025 53.201533 
L 237.743872 52.789037 
L 237.452194 52.376541 
L 237.152759 51.964045 
L 236.848956 51.551549 
L 236.544617 51.139053 
L 236.243854 50.726557 
L 235.950901 50.314061 
L 235.669976 49.901565 
L 235.405148 49.489069 
L 235.16023 49.076573 
L 234.938694 48.664077 
L 234.7436 48.251581 
L 234.577546 47.839085 
L 234.442642 47.426589 
L 234.340486 47.014093 
L 234.272168 46.601597 
L 234.238282 46.189101 
L 234.238951 45.776605 
L 234.273861 45.364109 
L 234.342313 44.951613 
L 234.443274 44.539117 
L 234.575433 44.126621 
L 234.737266 43.714125 
L 234.927084 43.301629 
L 235.143086 42.889133 
L 235.383397 42.476637 
L 235.646094 42.064141 
L 235.929227 41.651645 
L 236.230827 41.239149 
L 236.548905 40.826653 
L 236.881455 40.414157 
L 237.226454 40.001661 
L 237.581864 39.589165 
L 237.945643 39.176669 
L 238.315763 38.764173 
L 238.690233 38.351677 
L 239.067125 37.939181 
L 239.444606 37.526685 
L 239.820963 37.114189 
L 240.194631 36.701693 
L 240.564207 36.289197 
L 240.928459 35.876701 
L 241.286327 35.464205 
L 241.636915 35.051709 
L 241.979479 34.639213 
L 242.313404 34.226717 
L 242.638193 33.814221 
L 242.953445 33.401725 
L 243.258838 32.989229 
L 243.554125 32.576733 
L 243.839117 32.164237 
L 244.113686 31.751741 
L 244.377758 31.339245 
L 244.631313 30.926749 
L 244.87438 30.514253 
L 245.107033 30.101757 
L 245.329381 29.689261 
L 245.541564 29.276765 
L 245.743739 28.864269 
L 245.936076 28.451773 
L 246.118743 28.039277 
L 246.291912 27.626781 
L 246.455754 27.214285 
L 246.61045 26.801789 
L 246.756195 26.389293 
L 246.893218 25.976797 
L 247.021788 25.564301 
L 247.142234 25.151805 
L 247.254947 24.739309 
L 247.360384 24.326813 
L 247.459065 23.914317 
L 247.551557 23.501821 
L 247.638459 23.089325 
L 247.720371 22.676829 
L 247.797874 22.264333 
L 247.871497 21.851837 
L 249.592081 21.851837 
L 249.592081 21.851837 
L 249.665703 22.264333 
L 249.743207 22.676829 
L 249.825119 23.089325 
L 249.912021 23.501821 
L 250.004513 23.914317 
L 250.103194 24.326813 
L 250.208631 24.739309 
L 250.321344 25.151805 
L 250.44179 25.564301 
L 250.57036 25.976797 
L 250.707383 26.389293 
L 250.853128 26.801789 
L 251.007824 27.214285 
L 251.171666 27.626781 
L 251.344835 28.039277 
L 251.527502 28.451773 
L 251.719838 28.864269 
L 251.922014 29.276765 
L 252.134197 29.689261 
L 252.356545 30.101757 
L 252.589198 30.514253 
L 252.832265 30.926749 
L 253.08582 31.339245 
L 253.349892 31.751741 
L 253.624461 32.164237 
L 253.909453 32.576733 
L 254.20474 32.989229 
L 254.510133 33.401725 
L 254.825385 33.814221 
L 255.150174 34.226717 
L 255.484099 34.639213 
L 255.826663 35.051709 
L 256.177251 35.464205 
L 256.535119 35.876701 
L 256.899371 36.289197 
L 257.268947 36.701693 
L 257.642615 37.114189 
L 258.018972 37.526685 
L 258.396453 37.939181 
L 258.773345 38.351677 
L 259.147815 38.764173 
L 259.517935 39.176669 
L 259.881714 39.589165 
L 260.237124 40.001661 
L 260.582123 40.414157 
L 260.914673 40.826653 
L 261.232751 41.239149 
L 261.534351 41.651645 
L 261.817484 42.064141 
L 262.080181 42.476637 
L 262.320492 42.889133 
L 262.536494 43.301629 
L 262.726312 43.714125 
L 262.888145 44.126621 
L 263.020304 44.539117 
L 263.121265 44.951613 
L 263.189717 45.364109 
L 263.224627 45.776605 
L 263.225295 46.189101 
L 263.19141 46.601597 
L 263.123092 47.014093 
L 263.020936 47.426589 
L 262.886031 47.839085 
L 262.719978 48.251581 
L 262.524884 48.664077 
L 262.303348 49.076573 
L 262.05843 49.489069 
L 261.793602 49.901565 
L 261.512676 50.314061 
L 261.219724 50.726557 
L 260.91896 51.139053 
L 260.614622 51.551549 
L 260.310819 51.964045 
L 260.011384 52.376541 
L 259.719706 52.789037 
L 259.438578 53.201533 
L 259.170057 53.614029 
L 258.915343 54.026525 
L 258.674704 54.439021 
L 258.447436 54.851517 
L 258.231876 55.264013 
L 258.025476 55.676509 
L 257.824917 56.089005 
L 257.626284 56.501501 
L 257.425275 56.913997 
L 257.217438 57.326493 
L 256.998429 57.738989 
L 256.764268 58.151485 
L 256.511575 58.563981 
L 256.237778 58.976477 
L 255.941282 59.388973 
L 255.621575 59.801469 
L 255.279274 60.213965 
L 254.916115 60.626461 
L 254.53487 61.038957 
L 254.139216 61.451453 
L 253.73355 61.863949 
L 253.32278 62.276445 
L 252.912087 62.688941 
z
" clip-path="url(#p6f823f45a7)" style="fill: #1f77b4; fill-opacity: 0.8"/>
   </g>
   <g id="matplotlib.axis_1"/>
   <g id="matplotlib.axis_2">
    <g id="ytick_1">
     <g id="line2d_1">
      <defs>
       <path id="mc7fc877af4" d="M 0 0 
L -3.5 0 
"/>
      </defs>
      <g>
       <use xlink:href="#mc7fc877af4" x="50.17075" y="65.679375"/>
      </g>
     </g>
     <g id="text_1">
      <text style="font: 8px 'DejaVu Sans', 'Bitstream Vera Sans', 'Computer Modern Sans Serif', 'Lucida Grande', 'Verdana', 'Geneva', 'Lucid', 'Arial', 'Helvetica', 'Avant Garde', sans-serif; text-anchor: end" x="43.17075" y="68.71875" transform="rotate(-0 43.17075 68.71875)">0</text>
     </g>
    </g>
    <g id="ytick_2">
     <g id="line2d_2">
      <g>
       <use xlink:href="#mc7fc877af4" x="50.17075" y="37.959375"/>
      </g>
     </g>
     <g id="text_2">
      <text style="font: 8px 'DejaVu Sans', 'Bitstream Vera Sans', 'Computer Modern Sans Serif', 'Lucida Grande', 'Verdana', 'Geneva', 'Lucid', 'Arial', 'Helvetica', 'Avant Garde', sans-serif; text-anchor: end" x="43.17075" y="40.99875" transform="rotate(-0 43.17075 40.99875)">100</text>
     </g>
    </g>
    <g id="ytick_3">
     <g id="line2d_3">
      <g>
       <use xlink:href="#mc7fc877af4" x="50.17075" y="10.239375"/>
      </g>
     </g>
     <g id="text_3">
      <text style="font: 8px 'DejaVu Sans', 'Bitstream Vera Sans', 'Computer Modern Sans Serif', 'Lucida Grande', 'Verdana', 'Geneva', 'Lucid', 'Arial', 'Helvetica', 'Avant Garde', sans-serif; text-anchor: end" x="43.17075" y="13.27875" transform="rotate(-0 43.17075 13.27875)">200</text>
     </g>
    </g>
    <g id="text_4">
     <text style="font: 8px 'DejaVu Sans', 'Bitstream Vera Sans', 'Computer Modern Sans Serif', 'Lucida Grande', 'Verdana', 'Geneva', 'Lucid', 'Arial', 'Helvetica', 'Avant Garde', sans-serif" transform="translate(13.27875 50.8775) rotate(-90)">Bem1 </text>
     <text style="font: 8px 'DejaVu Sans', 'Bitstream Vera Sans', 'Computer Modern Sans Serif', 'Lucida Grande', 'Verdana', 'Geneva', 'Lucid', 'Arial', 'Helvetica', 'Avant Garde', sans-serif" transform="translate(22.237 59.584375) rotate(-90)">Conc. (nM)</text>
    </g>
   </g>
   <g id="LineCollection_1">
    <path d="M 67.562958 42.976747 
L 82.056464 42.976747 
" clip-path="url(#p6f823f45a7)" style="fill: none; stroke: #000000; stroke-opacity: 0.8; stroke-width: 1.5"/>
    <path d="M 125.536984 44.976438 
L 140.03049 44.976438 
" clip-path="url(#p6f823f45a7)" style="fill: none; stroke: #000000; stroke-opacity: 0.8; stroke-width: 1.5"/>
    <path d="M 183.51101 48.604581 
L 198.004516 48.604581 
" clip-path="url(#p6f823f45a7)" style="fill: none; stroke: #000000; stroke-opacity: 0.8; stroke-width: 1.5"/>
    <path d="M 241.485036 46.127754 
L 255.978542 46.127754 
" clip-path="url(#p6f823f45a7)" style="fill: none; stroke: #000000; stroke-opacity: 0.8; stroke-width: 1.5"/>
   </g>
   <g id="patch_3">
    <path d="M 50.17075 65.679375 
L 50.17075 10.239375 
" style="fill: none; stroke: #000000; stroke-width: 0.8; stroke-linejoin: miter; stroke-linecap: square"/>
   </g>
   <g id="patch_4">
    <path d="M 50.17075 65.679375 
L 273.37075 65.679375 
" style="fill: none; stroke: #000000; stroke-width: 0.8; stroke-linejoin: miter; stroke-linecap: square"/>
   </g>
  </g>
 </g>
 <defs>
  <clipPath id="p6f823f45a7">
   <rect x="50.17075" y="10.239375" width="223.2" height="55.44"/>
  </clipPath>
 </defs>
</svg>
