<?xml version="1.0" encoding="utf-8" standalone="no"?>
<!DOCTYPE svg PUBLIC "-//W3C//DTD SVG 1.1//EN"
  "http://www.w3.org/Graphics/SVG/1.1/DTD/svg11.dtd">
<svg xmlns:xlink="http://www.w3.org/1999/xlink" width="447.97075pt" height="87.621875pt" viewBox="0 0 447.97075 87.621875" xmlns="http://www.w3.org/2000/svg" version="1.1">
 <metadata>
  <rdf:RDF xmlns:dc="http://purl.org/dc/elements/1.1/" xmlns:cc="http://creativecommons.org/ns#" xmlns:rdf="http://www.w3.org/1999/02/22-rdf-syntax-ns#">
   <cc:Work>
    <dc:type rdf:resource="http://purl.org/dc/dcmitype/StillImage"/>
    <dc:date>2024-10-31T15:33:06.241940</dc:date>
    <dc:format>image/svg+xml</dc:format>
    <dc:creator>
     <cc:Agent>
      <dc:title>Matplotlib v3.7.1, https://matplotlib.org/</dc:title>
     </cc:Agent>
    </dc:creator>
   </cc:Work>
  </rdf:RDF>
 </metadata>
 <defs>
  <style type="text/css">*{stroke-linejoin: round; stroke-linecap: butt}</style>
 </defs>
 <g id="figure_1">
  <g id="patch_1">
   <path d="M 0 87.621875 
L 447.97075 87.621875 
L 447.97075 0 
L 0 0 
L 0 87.621875 
z
" style="fill: none"/>
  </g>
  <g id="axes_1">
   <g id="patch_2">
    <path d="M 50.17075 65.679375 
L 440.77075 65.679375 
L 440.77075 10.239375 
L 50.17075 10.239375 
L 50.17075 65.679375 
z
" style="fill: none"/>
   </g>
   <g id="PolyCollection_1">
    <path d="M 84.152539 69.537999 
L 83.979044 69.537999 
L 83.969707 69.003811 
L 83.953664 68.469624 
L 83.917558 67.935436 
L 83.871579 67.401248 
L 83.827601 66.86706 
L 83.773812 66.332873 
L 83.672511 65.798685 
L 83.46723 65.264497 
L 83.099889 64.730309 
L 82.517654 64.196122 
L 81.644465 63.661934 
L 80.372391 63.127746 
L 78.617716 62.593558 
L 76.419402 62.059371 
L 74.007902 61.525183 
L 71.712293 60.990995 
L 69.775083 60.456808 
L 68.39727 59.92262 
L 67.925295 59.388432 
L 68.663331 58.854244 
L 70.461758 58.320057 
L 72.748912 57.785869 
L 74.95757 57.251681 
L 76.81852 56.717493 
L 78.341714 56.183306 
L 79.625145 55.649118 
L 80.715167 55.11493 
L 81.612208 54.580742 
L 82.312744 54.046555 
L 82.822344 53.512367 
L 83.165564 52.978179 
L 83.386431 52.443992 
L 83.537941 51.909804 
L 83.669995 51.375616 
L 83.805967 50.841428 
L 83.92858 50.307241 
L 84.007981 49.773053 
L 84.03611 49.238865 
L 84.023947 48.704677 
L 83.988066 48.17049 
L 83.950397 47.636302 
L 83.930488 47.102114 
L 83.930419 46.567926 
L 83.940037 46.033739 
L 83.951858 45.499551 
L 83.962312 44.965363 
L 83.971239 44.431176 
L 83.980884 43.896988 
L 83.98741 43.3628 
L 83.98537 42.828612 
L 83.983229 42.294425 
L 83.995796 41.760237 
L 84.021745 41.226049 
L 84.045984 40.691861 
L 84.059502 40.157674 
L 84.064388 39.623486 
L 84.065572 39.089298 
L 84.065767 38.55511 
L 84.065789 38.020923 
L 84.065791 37.486735 
L 84.065791 36.952547 
L 84.065791 36.41836 
L 84.065788 35.884172 
L 84.065753 35.349984 
L 84.065488 34.815796 
L 84.064136 34.281609 
L 84.059524 33.747421 
L 84.049322 33.213233 
L 84.035747 32.679045 
L 84.027746 32.144858 
L 84.032349 31.61067 
L 84.045385 31.076482 
L 84.05713 30.542294 
L 84.063083 30.008107 
L 84.064243 29.473919 
L 84.061291 28.939731 
L 84.052347 28.405544 
L 84.036479 27.871356 
L 84.018361 27.337168 
L 84.00627 26.80298 
L 84.005592 26.268793 
L 84.016313 25.734605 
L 84.032447 25.200417 
L 84.043335 24.666229 
L 84.041834 24.132042 
L 84.032311 23.597854 
L 84.027402 23.063666 
L 84.034402 22.529478 
L 84.047906 21.995291 
L 84.058713 21.461103 
L 84.063846 20.926915 
L 84.065415 20.392728 
L 84.065689 19.85854 
L 84.065389 19.324352 
L 84.063732 18.790164 
L 84.058403 18.255977 
L 84.047387 17.721789 
L 84.033969 17.187601 
L 84.027596 16.653413 
L 84.103986 16.653413 
L 84.103986 16.653413 
L 84.097614 17.187601 
L 84.084196 17.721789 
L 84.07318 18.255977 
L 84.067851 18.790164 
L 84.066194 19.324352 
L 84.065894 19.85854 
L 84.066167 20.392728 
L 84.067736 20.926915 
L 84.07287 21.461103 
L 84.083677 21.995291 
L 84.09718 22.529478 
L 84.10418 23.063666 
L 84.099272 23.597854 
L 84.089749 24.132042 
L 84.088248 24.666229 
L 84.099136 25.200417 
L 84.11527 25.734605 
L 84.125991 26.268793 
L 84.125312 26.80298 
L 84.113222 27.337168 
L 84.095103 27.871356 
L 84.079236 28.405544 
L 84.070291 28.939731 
L 84.067339 29.473919 
L 84.0685 30.008107 
L 84.074453 30.542294 
L 84.086198 31.076482 
L 84.099233 31.61067 
L 84.103837 32.144858 
L 84.095836 32.679045 
L 84.082261 33.213233 
L 84.072058 33.747421 
L 84.067447 34.281609 
L 84.066095 34.815796 
L 84.06583 35.349984 
L 84.065795 35.884172 
L 84.065792 36.41836 
L 84.065791 36.952547 
L 84.065791 37.486735 
L 84.065793 38.020923 
L 84.065815 38.55511 
L 84.066011 39.089298 
L 84.067195 39.623486 
L 84.07208 40.157674 
L 84.085599 40.691861 
L 84.109838 41.226049 
L 84.135787 41.760237 
L 84.148354 42.294425 
L 84.146213 42.828612 
L 84.144173 43.3628 
L 84.150699 43.896988 
L 84.160343 44.431176 
L 84.16927 44.965363 
L 84.179724 45.499551 
L 84.191545 46.033739 
L 84.201164 46.567926 
L 84.201094 47.102114 
L 84.181186 47.636302 
L 84.143517 48.17049 
L 84.107636 48.704677 
L 84.095473 49.238865 
L 84.123602 49.773053 
L 84.203003 50.307241 
L 84.325616 50.841428 
L 84.461587 51.375616 
L 84.593641 51.909804 
L 84.745152 52.443992 
L 84.966019 52.978179 
L 85.309238 53.512367 
L 85.818838 54.046555 
L 86.519374 54.580742 
L 87.416415 55.11493 
L 88.506438 55.649118 
L 89.789869 56.183306 
L 91.313063 56.717493 
L 93.174013 57.251681 
L 95.38267 57.785869 
L 97.669824 58.320057 
L 99.468252 58.854244 
L 100.206287 59.388432 
L 99.734313 59.92262 
L 98.356499 60.456808 
L 96.41929 60.990995 
L 94.123681 61.525183 
L 91.71218 62.059371 
L 89.513866 62.593558 
L 87.759191 63.127746 
L 86.487118 63.661934 
L 85.613929 64.196122 
L 85.031693 64.730309 
L 84.664353 65.264497 
L 84.459072 65.798685 
L 84.357771 66.332873 
L 84.303982 66.86706 
L 84.260004 67.401248 
L 84.214024 67.935436 
L 84.177918 68.469624 
L 84.161875 69.003811 
L 84.152539 69.537999 
z
" clip-path="url(#p8854bfa238)" style="fill: #1f77b4; fill-opacity: 0.8"/>
   </g>
   <g id="PolyCollection_2">
    <path d="M 149.186176 69.537999 
L 148.069374 69.537999 
L 148.068699 69.187865 
L 148.109268 68.83773 
L 148.133005 68.487596 
L 148.110316 68.137461 
L 148.05087 67.787327 
L 147.980059 67.437193 
L 147.918922 67.087058 
L 147.880345 66.736924 
L 147.867301 66.386789 
L 147.866188 66.036655 
L 147.844288 65.686521 
L 147.759122 65.336386 
L 147.575628 64.986252 
L 147.278452 64.636117 
L 146.869188 64.285983 
L 146.351459 63.935849 
L 145.713255 63.585714 
L 144.913677 63.23558 
L 143.892219 62.885445 
L 142.621213 62.535311 
L 141.173112 62.185177 
L 139.72296 61.835042 
L 138.44667 61.484908 
L 137.388354 61.134773 
L 136.428118 60.784639 
L 135.404408 60.434505 
L 134.293717 60.08437 
L 133.277455 59.734236 
L 132.622415 59.384101 
L 132.487279 59.033967 
L 132.842951 58.683833 
L 133.559779 58.333698 
L 134.533054 57.983564 
L 135.717011 57.633429 
L 137.07828 57.283295 
L 138.551904 56.933161 
L 140.038048 56.583026 
L 141.427807 56.232892 
L 142.642956 55.882757 
L 143.669983 55.532623 
L 144.55188 55.182489 
L 145.331561 54.832354 
L 146.007464 54.48222 
L 146.555116 54.132085 
L 146.978833 53.781951 
L 147.319696 53.431817 
L 147.614241 53.081682 
L 147.864862 52.731548 
L 148.056739 52.381413 
L 148.189545 52.031279 
L 148.281818 51.681145 
L 148.351801 51.33101 
L 148.405048 50.980876 
L 148.438859 50.630741 
L 148.451258 50.280607 
L 148.446428 49.930473 
L 148.436894 49.580338 
L 148.439713 49.230204 
L 148.465389 48.880069 
L 148.509311 48.529935 
L 148.556078 48.179801 
L 148.592093 47.829666 
L 148.613237 47.479532 
L 148.622938 47.129397 
L 148.626463 46.779263 
L 148.627485 46.429129 
L 148.627723 46.078994 
L 148.627767 45.72886 
L 148.627774 45.378725 
L 148.627775 45.028591 
L 148.627775 44.678457 
L 148.627775 44.328322 
L 148.627775 43.978188 
L 148.627775 43.628053 
L 148.627775 43.277919 
L 148.627775 42.927785 
L 148.627775 42.57765 
L 148.627775 42.227516 
L 148.627775 41.877381 
L 148.627775 41.527247 
L 148.627775 41.177113 
L 148.627775 40.826978 
L 148.627775 40.476844 
L 148.627775 40.126709 
L 148.627775 39.776575 
L 148.627775 39.426441 
L 148.627775 39.076306 
L 148.627775 38.726172 
L 148.627774 38.376037 
L 148.627766 38.025903 
L 148.627717 37.675769 
L 148.627483 37.325634 
L 148.626588 36.9755 
L 148.62389 36.625365 
L 148.617526 36.275231 
L 148.605977 35.925097 
L 148.590407 35.574962 
L 148.57614 35.224828 
L 148.570262 34.874693 
L 148.685287 34.874693 
L 148.685287 34.874693 
L 148.67941 35.224828 
L 148.665142 35.574962 
L 148.649572 35.925097 
L 148.638024 36.275231 
L 148.631659 36.625365 
L 148.628961 36.9755 
L 148.628067 37.325634 
L 148.627833 37.675769 
L 148.627784 38.025903 
L 148.627776 38.376037 
L 148.627775 38.726172 
L 148.627775 39.076306 
L 148.627775 39.426441 
L 148.627775 39.776575 
L 148.627775 40.126709 
L 148.627775 40.476844 
L 148.627775 40.826978 
L 148.627775 41.177113 
L 148.627775 41.527247 
L 148.627775 41.877381 
L 148.627775 42.227516 
L 148.627775 42.57765 
L 148.627775 42.927785 
L 148.627775 43.277919 
L 148.627775 43.628053 
L 148.627775 43.978188 
L 148.627775 44.328322 
L 148.627775 44.678457 
L 148.627775 45.028591 
L 148.627776 45.378725 
L 148.627782 45.72886 
L 148.627827 46.078994 
L 148.628064 46.429129 
L 148.629086 46.779263 
L 148.632611 47.129397 
L 148.642312 47.479532 
L 148.663457 47.829666 
L 148.699472 48.179801 
L 148.746239 48.529935 
L 148.790161 48.880069 
L 148.815837 49.230204 
L 148.818655 49.580338 
L 148.809122 49.930473 
L 148.804292 50.280607 
L 148.816691 50.630741 
L 148.850501 50.980876 
L 148.903749 51.33101 
L 148.973731 51.681145 
L 149.066004 52.031279 
L 149.19881 52.381413 
L 149.390688 52.731548 
L 149.641308 53.081682 
L 149.935853 53.431817 
L 150.276716 53.781951 
L 150.700434 54.132085 
L 151.248086 54.48222 
L 151.923988 54.832354 
L 152.703669 55.182489 
L 153.585567 55.532623 
L 154.612594 55.882757 
L 155.827743 56.232892 
L 157.217501 56.583026 
L 158.703646 56.933161 
L 160.17727 57.283295 
L 161.538539 57.633429 
L 162.722495 57.983564 
L 163.695771 58.333698 
L 164.412599 58.683833 
L 164.768271 59.033967 
L 164.633134 59.384101 
L 163.978095 59.734236 
L 162.961832 60.08437 
L 161.851142 60.434505 
L 160.827431 60.784639 
L 159.867195 61.134773 
L 158.80888 61.484908 
L 157.53259 61.835042 
L 156.082438 62.185177 
L 154.634337 62.535311 
L 153.36333 62.885445 
L 152.341873 63.23558 
L 151.542295 63.585714 
L 150.904091 63.935849 
L 150.386362 64.285983 
L 149.977097 64.636117 
L 149.679922 64.986252 
L 149.496427 65.336386 
L 149.411261 65.686521 
L 149.389361 66.036655 
L 149.388248 66.386789 
L 149.375204 66.736924 
L 149.336627 67.087058 
L 149.27549 67.437193 
L 149.204679 67.787327 
L 149.145234 68.137461 
L 149.122544 68.487596 
L 149.146282 68.83773 
L 149.186851 69.187865 
L 149.186176 69.537999 
z
" clip-path="url(#p8854bfa238)" style="fill: #1f77b4; fill-opacity: 0.8"/>
   </g>
   <g id="PolyCollection_3">
    <path d="M 214.067911 69.537999 
L 212.311606 69.537999 
L 212.228922 69.359576 
L 212.146604 69.181152 
L 212.065249 69.002729 
L 211.985329 68.824305 
L 211.907185 68.645882 
L 211.831038 68.467458 
L 211.757 68.289035 
L 211.685088 68.110611 
L 211.61524 67.932188 
L 211.54732 67.753764 
L 211.481122 67.575341 
L 211.416368 67.396917 
L 211.352696 67.218494 
L 211.289651 67.04007 
L 211.226673 66.861647 
L 211.16309 66.683224 
L 211.098111 66.5048 
L 211.03083 66.326377 
L 210.960227 66.147953 
L 210.885177 65.96953 
L 210.804447 65.791106 
L 210.716701 65.612683 
L 210.620487 65.434259 
L 210.514224 65.255836 
L 210.396189 65.077412 
L 210.2645 64.898989 
L 210.117117 64.720565 
L 209.951865 64.542142 
L 209.766476 64.363718 
L 209.558669 64.185295 
L 209.326258 64.006872 
L 209.067281 63.828448 
L 208.780135 63.650025 
L 208.463705 63.471601 
L 208.117465 63.293178 
L 207.741535 63.114754 
L 207.336687 62.936331 
L 206.904289 62.757907 
L 206.446207 62.579484 
L 205.964674 62.40106 
L 205.462152 62.222637 
L 204.941209 62.044213 
L 204.404452 61.86579 
L 203.854509 61.687366 
L 203.294093 61.508943 
L 202.726129 61.33052 
L 202.153926 61.152096 
L 201.581381 60.973673 
L 201.013155 60.795249 
L 200.454801 60.616826 
L 199.912818 60.438402 
L 199.394573 60.259979 
L 198.90813 60.081555 
L 198.461944 59.903132 
L 198.064476 59.724708 
L 197.723751 59.546285 
L 197.446898 59.367861 
L 197.239735 59.189438 
L 197.106426 59.011014 
L 197.049262 58.832591 
L 197.068571 58.654168 
L 197.162768 58.475744 
L 197.32854 58.297321 
L 197.561119 58.118897 
L 197.85462 57.940474 
L 198.202407 57.76205 
L 198.597425 57.583627 
L 199.032504 57.405203 
L 199.500578 57.22678 
L 199.994845 57.048356 
L 200.508849 56.869933 
L 201.036525 56.691509 
L 201.5722 56.513086 
L 202.110596 56.334662 
L 202.646841 56.156239 
L 203.176501 55.977816 
L 203.695633 55.799392 
L 204.200867 55.620969 
L 204.689486 55.442545 
L 205.159505 55.264122 
L 205.60972 55.085698 
L 206.039725 54.907275 
L 206.449866 54.728851 
L 206.841159 54.550428 
L 207.215151 54.372004 
L 207.573741 54.193581 
L 207.918994 54.015157 
L 208.252939 53.836734 
L 208.577397 53.65831 
L 208.89383 53.479887 
L 209.203248 53.301464 
L 209.50615 53.12304 
L 209.802528 52.944617 
L 210.091907 52.766193 
L 210.373417 52.58777 
L 210.645896 52.409346 
L 210.907994 52.230923 
L 211.158289 52.052499 
L 211.395388 51.874076 
L 214.984129 51.874076 
L 214.984129 51.874076 
L 215.221227 52.052499 
L 215.471523 52.230923 
L 215.733621 52.409346 
L 216.006099 52.58777 
L 216.28761 52.766193 
L 216.576988 52.944617 
L 216.873367 53.12304 
L 217.176269 53.301464 
L 217.485686 53.479887 
L 217.80212 53.65831 
L 218.126577 53.836734 
L 218.460523 54.015157 
L 218.805775 54.193581 
L 219.164366 54.372004 
L 219.538357 54.550428 
L 219.929651 54.728851 
L 220.339792 54.907275 
L 220.769796 55.085698 
L 221.220012 55.264122 
L 221.69003 55.442545 
L 222.178649 55.620969 
L 222.683883 55.799392 
L 223.203016 55.977816 
L 223.732675 56.156239 
L 224.268921 56.334662 
L 224.807317 56.513086 
L 225.342991 56.691509 
L 225.870667 56.869933 
L 226.384672 57.048356 
L 226.878938 57.22678 
L 227.347013 57.405203 
L 227.782091 57.583627 
L 228.17711 57.76205 
L 228.524896 57.940474 
L 228.818398 58.118897 
L 229.050976 58.297321 
L 229.216749 58.475744 
L 229.310946 58.654168 
L 229.330254 58.832591 
L 229.27309 59.011014 
L 229.139782 59.189438 
L 228.932619 59.367861 
L 228.655766 59.546285 
L 228.31504 59.724708 
L 227.917573 59.903132 
L 227.471386 60.081555 
L 226.984943 60.259979 
L 226.466699 60.438402 
L 225.924715 60.616826 
L 225.366362 60.795249 
L 224.798135 60.973673 
L 224.22559 61.152096 
L 223.653388 61.33052 
L 223.085423 61.508943 
L 222.525007 61.687366 
L 221.975064 61.86579 
L 221.438307 62.044213 
L 220.917365 62.222637 
L 220.414842 62.40106 
L 219.933309 62.579484 
L 219.475227 62.757907 
L 219.042829 62.936331 
L 218.637981 63.114754 
L 218.262052 63.293178 
L 217.915812 63.471601 
L 217.599382 63.650025 
L 217.312235 63.828448 
L 217.053258 64.006872 
L 216.820847 64.185295 
L 216.61304 64.363718 
L 216.427651 64.542142 
L 216.262399 64.720565 
L 216.115017 64.898989 
L 215.983328 65.077412 
L 215.865293 65.255836 
L 215.75903 65.434259 
L 215.662815 65.612683 
L 215.575069 65.791106 
L 215.49434 65.96953 
L 215.419289 66.147953 
L 215.348687 66.326377 
L 215.281406 66.5048 
L 215.216427 66.683224 
L 215.152844 66.861647 
L 215.089866 67.04007 
L 215.026821 67.218494 
L 214.963148 67.396917 
L 214.898395 67.575341 
L 214.832197 67.753764 
L 214.764277 67.932188 
L 214.694428 68.110611 
L 214.622517 68.289035 
L 214.548478 68.467458 
L 214.472332 68.645882 
L 214.394188 68.824305 
L 214.314268 69.002729 
L 214.232913 69.181152 
L 214.150594 69.359576 
L 214.067911 69.537999 
z
" clip-path="url(#p8854bfa238)" style="fill: #1f77b4; fill-opacity: 0.8"/>
   </g>
   <g id="PolyCollection_4">
    <path d="M 278.933996 66.386789 
L 276.569488 66.386789 
L 276.480731 66.246909 
L 276.388825 66.107028 
L 276.293222 65.967148 
L 276.193267 65.827267 
L 276.088221 65.687387 
L 275.97728 65.547506 
L 275.85959 65.407626 
L 275.73427 65.267745 
L 275.600414 65.127865 
L 275.457101 64.987984 
L 275.303393 64.848104 
L 275.138335 64.708223 
L 274.960953 64.568342 
L 274.770252 64.428462 
L 274.565216 64.288581 
L 274.34482 64.148701 
L 274.108038 64.00882 
L 273.853868 63.86894 
L 273.58135 63.729059 
L 273.289596 63.589179 
L 272.977819 63.449298 
L 272.645364 63.309418 
L 272.291727 63.169537 
L 271.916592 63.029657 
L 271.519844 62.889776 
L 271.1016 62.749896 
L 270.662233 62.610015 
L 270.202405 62.470134 
L 269.723104 62.330254 
L 269.22569 62.190373 
L 268.711956 62.050493 
L 268.184179 61.910612 
L 267.645184 61.770732 
L 267.098394 61.630851 
L 266.547869 61.490971 
L 265.998314 61.35109 
L 265.455053 61.21121 
L 264.92397 61.071329 
L 264.41139 60.931449 
L 263.923927 60.791568 
L 263.468282 60.651688 
L 263.051009 60.511807 
L 262.678264 60.371926 
L 262.355541 60.232046 
L 262.087434 60.092165 
L 261.877426 59.952285 
L 261.727727 59.812404 
L 261.639181 59.672524 
L 261.611246 59.532643 
L 261.642051 59.392763 
L 261.728531 59.252882 
L 261.866627 59.113002 
L 262.051539 58.973121 
L 262.278009 58.833241 
L 262.540615 58.69336 
L 262.834061 58.55348 
L 263.153419 58.413599 
L 263.494328 58.273718 
L 263.853131 58.133838 
L 264.226927 57.993957 
L 264.613557 57.854077 
L 265.011522 57.714196 
L 265.419842 57.574316 
L 265.83787 57.434435 
L 266.265093 57.294555 
L 266.700922 57.154674 
L 267.144508 57.014794 
L 267.594585 56.874913 
L 268.049363 56.735033 
L 268.506482 56.595152 
L 268.963016 56.455272 
L 269.415545 56.315391 
L 269.860264 56.17551 
L 270.29315 56.03563 
L 270.710139 55.895749 
L 271.107333 55.755869 
L 271.481198 55.615988 
L 271.828747 55.476108 
L 272.147704 55.336227 
L 272.436628 55.196347 
L 272.694993 55.056466 
L 272.923225 54.916586 
L 273.122688 54.776705 
L 273.295622 54.636825 
L 273.445043 54.496944 
L 273.574595 54.357064 
L 273.688386 54.217183 
L 273.790795 54.077302 
L 273.886269 53.937422 
L 273.979132 53.797541 
L 274.073387 53.657661 
L 274.172561 53.51778 
L 274.279561 53.3779 
L 274.396576 53.238019 
L 274.525018 53.098139 
L 274.665501 52.958258 
L 274.817866 52.818378 
L 274.981239 52.678497 
L 275.154123 52.538617 
L 280.34936 52.538617 
L 280.34936 52.538617 
L 280.522245 52.678497 
L 280.685618 52.818378 
L 280.837982 52.958258 
L 280.978466 53.098139 
L 281.106907 53.238019 
L 281.223923 53.3779 
L 281.330922 53.51778 
L 281.430096 53.657661 
L 281.524352 53.797541 
L 281.617214 53.937422 
L 281.712689 54.077302 
L 281.815097 54.217183 
L 281.928889 54.357064 
L 282.058441 54.496944 
L 282.207861 54.636825 
L 282.380796 54.776705 
L 282.580259 54.916586 
L 282.808491 55.056466 
L 283.066856 55.196347 
L 283.355779 55.336227 
L 283.674737 55.476108 
L 284.022286 55.615988 
L 284.39615 55.755869 
L 284.793345 55.895749 
L 285.210334 56.03563 
L 285.643219 56.17551 
L 286.087939 56.315391 
L 286.540467 56.455272 
L 286.997002 56.595152 
L 287.454121 56.735033 
L 287.908899 56.874913 
L 288.358975 57.014794 
L 288.802561 57.154674 
L 289.238391 57.294555 
L 289.665613 57.434435 
L 290.083642 57.574316 
L 290.491961 57.714196 
L 290.889927 57.854077 
L 291.276557 57.993957 
L 291.650352 58.133838 
L 292.009155 58.273718 
L 292.350065 58.413599 
L 292.669422 58.55348 
L 292.962868 58.69336 
L 293.225475 58.833241 
L 293.451944 58.973121 
L 293.636856 59.113002 
L 293.774953 59.252882 
L 293.861433 59.392763 
L 293.892238 59.532643 
L 293.864302 59.672524 
L 293.775756 59.812404 
L 293.626057 59.952285 
L 293.416049 60.092165 
L 293.147943 60.232046 
L 292.82522 60.371926 
L 292.452474 60.511807 
L 292.035202 60.651688 
L 291.579557 60.791568 
L 291.092094 60.931449 
L 290.579514 61.071329 
L 290.04843 61.21121 
L 289.505169 61.35109 
L 288.955614 61.490971 
L 288.405089 61.630851 
L 287.8583 61.770732 
L 287.319305 61.910612 
L 286.791527 62.050493 
L 286.277793 62.190373 
L 285.78038 62.330254 
L 285.301078 62.470134 
L 284.84125 62.610015 
L 284.401883 62.749896 
L 283.98364 62.889776 
L 283.586892 63.029657 
L 283.211756 63.169537 
L 282.85812 63.309418 
L 282.525664 63.449298 
L 282.213888 63.589179 
L 281.922134 63.729059 
L 281.649615 63.86894 
L 281.395445 64.00882 
L 281.158664 64.148701 
L 280.938267 64.288581 
L 280.733232 64.428462 
L 280.54253 64.568342 
L 280.365149 64.708223 
L 280.200091 64.848104 
L 280.046383 64.987984 
L 279.903069 65.127865 
L 279.769213 65.267745 
L 279.643893 65.407626 
L 279.526204 65.547506 
L 279.415262 65.687387 
L 279.310216 65.827267 
L 279.210261 65.967148 
L 279.114658 66.107028 
L 279.022753 66.246909 
L 278.933996 66.386789 
z
" clip-path="url(#p8854bfa238)" style="fill: #1f77b4; fill-opacity: 0.8"/>
   </g>
   <g id="PolyCollection_5">
    <path d="M 342.601072 69.1307 
L 342.026378 69.1307 
L 341.932243 68.015986 
L 341.84889 66.901273 
L 341.776993 65.786559 
L 341.708349 64.671845 
L 341.6333 63.557132 
L 341.546071 62.442418 
L 341.443986 61.327705 
L 341.322374 60.212991 
L 341.168438 59.098277 
L 340.957926 57.983564 
L 340.659544 56.86885 
L 340.249644 55.754137 
L 339.73185 54.639423 
L 339.147177 53.524709 
L 338.558862 52.409996 
L 338.011531 51.295282 
L 337.491054 50.180569 
L 336.922121 49.065855 
L 336.212146 47.951141 
L 335.304954 46.836428 
L 334.201608 45.721714 
L 332.947244 44.607001 
L 331.612037 43.492287 
L 330.278807 42.377573 
L 329.030567 41.26286 
L 327.939104 40.148146 
L 327.063774 39.033433 
L 326.458366 37.918719 
L 326.173229 36.804005 
L 326.244838 35.689292 
L 326.676815 34.574578 
L 327.425185 33.459865 
L 328.402364 32.345151 
L 329.503997 31.230437 
L 330.641689 30.115724 
L 331.75561 29.00101 
L 332.804506 27.886297 
L 333.761118 26.771583 
L 334.62967 25.656869 
L 335.458129 24.542156 
L 336.309846 23.427442 
L 337.209449 22.312729 
L 338.117739 21.198015 
L 338.959771 20.083301 
L 339.671009 18.968588 
L 340.218415 17.853874 
L 340.596294 16.739161 
L 340.822681 15.624447 
L 340.94303 14.509733 
L 341.024155 13.39502 
L 341.129149 12.280306 
L 341.288974 11.165593 
L 341.493565 10.050879 
L 341.707752 8.936165 
L 341.89695 7.821452 
L 342.043773 6.706738 
L 342.148334 5.592025 
L 342.218939 4.477311 
L 342.264152 3.362597 
L 342.290727 2.247884 
L 342.304462 1.13317 
L 342.31042 0.018457 
L 342.312225 -1.096257 
L 342.311572 -2.210971 
L 342.308447 -3.325684 
L 342.301986 -4.440398 
L 342.291938 -5.555111 
L 342.280209 -6.669825 
L 342.271003 -7.784539 
L 342.268573 -8.899252 
L 342.274029 -10.013966 
L 342.284208 -11.128679 
L 342.2937 -12.243393 
L 342.297888 -13.358107 
L 342.294669 -14.47282 
L 342.284691 -15.587534 
L 342.27078 -16.702247 
L 342.256441 -17.816961 
L 342.243738 -18.931675 
L 342.232611 -20.046388 
L 342.222859 -21.161102 
L 342.216342 -22.275815 
L 342.21596 -23.390529 
L 342.222225 -24.505243 
L 342.232047 -25.619956 
L 342.241746 -26.73467 
L 342.250624 -27.849383 
L 342.260691 -28.964097 
L 342.273259 -30.078811 
L 342.286852 -31.193524 
L 342.298499 -32.308238 
L 342.306146 -33.422951 
L 342.309396 -34.537665 
L 342.308505 -35.652379 
L 342.303431 -36.767092 
L 342.294255 -37.881806 
L 342.282635 -38.996519 
L 342.272506 -40.111233 
L 342.26844 -41.225947 
L 342.359011 -41.225947 
L 342.359011 -41.225947 
L 342.354945 -40.111233 
L 342.344815 -38.996519 
L 342.333195 -37.881806 
L 342.324019 -36.767092 
L 342.318946 -35.652379 
L 342.318055 -34.537665 
L 342.321304 -33.422951 
L 342.328951 -32.308238 
L 342.340598 -31.193524 
L 342.354192 -30.078811 
L 342.36676 -28.964097 
L 342.376827 -27.849383 
L 342.385705 -26.73467 
L 342.395404 -25.619956 
L 342.405225 -24.505243 
L 342.41149 -23.390529 
L 342.411109 -22.275815 
L 342.404592 -21.161102 
L 342.394839 -20.046388 
L 342.383713 -18.931675 
L 342.37101 -17.816961 
L 342.35667 -16.702247 
L 342.342759 -15.587534 
L 342.332781 -14.47282 
L 342.329563 -13.358107 
L 342.33375 -12.243393 
L 342.343242 -11.128679 
L 342.353422 -10.013966 
L 342.358877 -8.899252 
L 342.356448 -7.784539 
L 342.347241 -6.669825 
L 342.335512 -5.555111 
L 342.325465 -4.440398 
L 342.319003 -3.325684 
L 342.315878 -2.210971 
L 342.315225 -1.096257 
L 342.31703 0.018457 
L 342.322989 1.13317 
L 342.336723 2.247884 
L 342.363299 3.362597 
L 342.408512 4.477311 
L 342.479116 5.592025 
L 342.583678 6.706738 
L 342.730501 7.821452 
L 342.919698 8.936165 
L 343.133885 10.050879 
L 343.338477 11.165593 
L 343.498301 12.280306 
L 343.603296 13.39502 
L 343.68442 14.509733 
L 343.804769 15.624447 
L 344.031156 16.739161 
L 344.409036 17.853874 
L 344.956441 18.968588 
L 345.667679 20.083301 
L 346.509712 21.198015 
L 347.418002 22.312729 
L 348.317604 23.427442 
L 349.169321 24.542156 
L 349.997781 25.656869 
L 350.866333 26.771583 
L 351.822945 27.886297 
L 352.871841 29.00101 
L 353.985762 30.115724 
L 355.123453 31.230437 
L 356.225087 32.345151 
L 357.202265 33.459865 
L 357.950635 34.574578 
L 358.382613 35.689292 
L 358.454221 36.804005 
L 358.169084 37.918719 
L 357.563676 39.033433 
L 356.688346 40.148146 
L 355.596884 41.26286 
L 354.348643 42.377573 
L 353.015413 43.492287 
L 351.680206 44.607001 
L 350.425842 45.721714 
L 349.322496 46.836428 
L 348.415304 47.951141 
L 347.705329 49.065855 
L 347.136396 50.180569 
L 346.61592 51.295282 
L 346.068589 52.409996 
L 345.480273 53.524709 
L 344.8956 54.639423 
L 344.377806 55.754137 
L 343.967906 56.86885 
L 343.669525 57.983564 
L 343.459013 59.098277 
L 343.305077 60.212991 
L 343.183464 61.327705 
L 343.08138 62.442418 
L 342.99415 63.557132 
L 342.919101 64.671845 
L 342.850457 65.786559 
L 342.77856 66.901273 
L 342.695207 68.015986 
L 342.601072 69.1307 
z
" clip-path="url(#p8854bfa238)" style="fill: #d62728; fill-opacity: 0.8"/>
   </g>
   <g id="PolyCollection_6">
    <path d="M 423.016205 102.639375 
L 390.735213 102.639375 
L 390.735213 102.639375 
L 390.735213 102.639375 
L 390.735213 102.639375 
L 390.735213 102.639375 
L 390.735213 102.639375 
L 390.735213 102.639375 
L 390.735213 102.639375 
L 390.735213 102.639375 
L 390.735213 102.639375 
L 390.735213 102.639375 
L 390.735213 102.639375 
L 390.735213 102.639375 
L 390.735213 102.639375 
L 390.735213 102.639375 
L 390.735213 102.639375 
L 390.735213 102.639375 
L 390.735213 102.639375 
L 390.735213 102.639375 
L 390.735213 102.639375 
L 390.735213 102.639375 
L 390.735213 102.639375 
L 390.735213 102.639375 
L 390.735213 102.639375 
L 390.735213 102.639375 
L 390.735213 102.639375 
L 390.735213 102.639375 
L 390.735213 102.639375 
L 390.735213 102.639375 
L 390.735213 102.639375 
L 390.735213 102.639375 
L 390.735213 102.639375 
L 390.735213 102.639375 
L 390.735213 102.639375 
L 390.735213 102.639375 
L 390.735213 102.639375 
L 390.735213 102.639375 
L 390.735213 102.639375 
L 390.735213 102.639375 
L 390.735213 102.639375 
L 390.735213 102.639375 
L 390.735213 102.639375 
L 390.735213 102.639375 
L 390.735213 102.639375 
L 390.735213 102.639375 
L 390.735213 102.639375 
L 390.735213 102.639375 
L 390.735213 102.639375 
L 390.735213 102.639375 
L 390.735213 102.639375 
L 390.735213 102.639375 
L 390.735213 102.639375 
L 390.735213 102.639375 
L 390.735213 102.639375 
L 390.735213 102.639375 
L 390.735213 102.639375 
L 390.735213 102.639375 
L 390.735213 102.639375 
L 390.735213 102.639375 
L 390.735213 102.639375 
L 390.735213 102.639375 
L 390.735213 102.639375 
L 390.735213 102.639375 
L 390.735213 102.639375 
L 390.735213 102.639375 
L 390.735213 102.639375 
L 390.735213 102.639375 
L 390.735213 102.639375 
L 390.735213 102.639375 
L 390.735213 102.639375 
L 390.735213 102.639375 
L 390.735213 102.639375 
L 390.735213 102.639375 
L 390.735213 102.639375 
L 390.735213 102.639375 
L 390.735213 102.639375 
L 390.735213 102.639375 
L 390.735213 102.639375 
L 390.735213 102.639375 
L 390.735213 102.639375 
L 390.735213 102.639375 
L 390.735213 102.639375 
L 390.735213 102.639375 
L 390.735213 102.639375 
L 390.735213 102.639375 
L 390.735213 102.639375 
L 390.735213 102.639375 
L 390.735213 102.639375 
L 390.735213 102.639375 
L 390.735213 102.639375 
L 390.735213 102.639375 
L 390.735213 102.639375 
L 390.735213 102.639375 
L 390.735213 102.639375 
L 390.735213 102.639375 
L 390.735213 102.639375 
L 390.735213 102.639375 
L 390.735213 102.639375 
L 390.735213 102.639375 
L 390.735213 102.639375 
L 423.016205 102.639375 
L 423.016205 102.639375 
L 423.016205 102.639375 
L 423.016205 102.639375 
L 423.016205 102.639375 
L 423.016205 102.639375 
L 423.016205 102.639375 
L 423.016205 102.639375 
L 423.016205 102.639375 
L 423.016205 102.639375 
L 423.016205 102.639375 
L 423.016205 102.639375 
L 423.016205 102.639375 
L 423.016205 102.639375 
L 423.016205 102.639375 
L 423.016205 102.639375 
L 423.016205 102.639375 
L 423.016205 102.639375 
L 423.016205 102.639375 
L 423.016205 102.639375 
L 423.016205 102.639375 
L 423.016205 102.639375 
L 423.016205 102.639375 
L 423.016205 102.639375 
L 423.016205 102.639375 
L 423.016205 102.639375 
L 423.016205 102.639375 
L 423.016205 102.639375 
L 423.016205 102.639375 
L 423.016205 102.639375 
L 423.016205 102.639375 
L 423.016205 102.639375 
L 423.016205 102.639375 
L 423.016205 102.639375 
L 423.016205 102.639375 
L 423.016205 102.639375 
L 423.016205 102.639375 
L 423.016205 102.639375 
L 423.016205 102.639375 
L 423.016205 102.639375 
L 423.016205 102.639375 
L 423.016205 102.639375 
L 423.016205 102.639375 
L 423.016205 102.639375 
L 423.016205 102.639375 
L 423.016205 102.639375 
L 423.016205 102.639375 
L 423.016205 102.639375 
L 423.016205 102.639375 
L 423.016205 102.639375 
L 423.016205 102.639375 
L 423.016205 102.639375 
L 423.016205 102.639375 
L 423.016205 102.639375 
L 423.016205 102.639375 
L 423.016205 102.639375 
L 423.016205 102.639375 
L 423.016205 102.639375 
L 423.016205 102.639375 
L 423.016205 102.639375 
L 423.016205 102.639375 
L 423.016205 102.639375 
L 423.016205 102.639375 
L 423.016205 102.639375 
L 423.016205 102.639375 
L 423.016205 102.639375 
L 423.016205 102.639375 
L 423.016205 102.639375 
L 423.016205 102.639375 
L 423.016205 102.639375 
L 423.016205 102.639375 
L 423.016205 102.639375 
L 423.016205 102.639375 
L 423.016205 102.639375 
L 423.016205 102.639375 
L 423.016205 102.639375 
L 423.016205 102.639375 
L 423.016205 102.639375 
L 423.016205 102.639375 
L 423.016205 102.639375 
L 423.016205 102.639375 
L 423.016205 102.639375 
L 423.016205 102.639375 
L 423.016205 102.639375 
L 423.016205 102.639375 
L 423.016205 102.639375 
L 423.016205 102.639375 
L 423.016205 102.639375 
L 423.016205 102.639375 
L 423.016205 102.639375 
L 423.016205 102.639375 
L 423.016205 102.639375 
L 423.016205 102.639375 
L 423.016205 102.639375 
L 423.016205 102.639375 
L 423.016205 102.639375 
L 423.016205 102.639375 
L 423.016205 102.639375 
L 423.016205 102.639375 
L 423.016205 102.639375 
L 423.016205 102.639375 
z
" clip-path="url(#p8854bfa238)" style="fill: #1f77b4; fill-opacity: 0.8"/>
   </g>
   <g id="matplotlib.axis_1">
    <g id="xtick_1">
     <g id="line2d_1">
      <defs>
       <path id="mac9b744b90" d="M 0 0 
L 0 3.5 
"/>
      </defs>
      <g>
       <use xlink:href="#mac9b744b90" x="180.908767" y="65.679375"/>
      </g>
     </g>
     <g id="text_1">
      <text style="font: 8px 'DejaVu Sans', 'Bitstream Vera Sans', 'Computer Modern Sans Serif', 'Lucida Grande', 'Verdana', 'Geneva', 'Lucid', 'Arial', 'Helvetica', 'Avant Garde', sans-serif; text-anchor: middle" x="180.908767" y="78.758125" transform="rotate(-0 180.908767 78.758125)">ApCdc24</text>
     </g>
    </g>
    <g id="xtick_2">
     <g id="line2d_2">
      <g>
       <use xlink:href="#mac9b744b90" x="342.313725" y="65.679375"/>
      </g>
     </g>
     <g id="text_2">
      <text style="font: 8px 'DejaVu Sans', 'Bitstream Vera Sans', 'Computer Modern Sans Serif', 'Lucida Grande', 'Verdana', 'Geneva', 'Lucid', 'Arial', 'Helvetica', 'Avant Garde', sans-serif; text-anchor: middle" x="342.313725" y="78.758125" transform="rotate(-0 342.313725 78.758125)">ScCdc24</text>
     </g>
    </g>
   </g>
   <g id="matplotlib.axis_2">
    <g id="ytick_1">
     <g id="line2d_3">
      <defs>
       <path id="mdd91c40023" d="M 0 0 
L -3.5 0 
"/>
      </defs>
      <g>
       <use xlink:href="#mdd91c40023" x="50.17075" y="65.679375"/>
      </g>
     </g>
     <g id="text_3">
      <text style="font: 8px 'DejaVu Sans', 'Bitstream Vera Sans', 'Computer Modern Sans Serif', 'Lucida Grande', 'Verdana', 'Geneva', 'Lucid', 'Arial', 'Helvetica', 'Avant Garde', sans-serif; text-anchor: end" x="43.17075" y="68.71875" transform="rotate(-0 43.17075 68.71875)">0</text>
     </g>
    </g>
    <g id="ytick_2">
     <g id="line2d_4">
      <g>
       <use xlink:href="#mdd91c40023" x="50.17075" y="47.199375"/>
      </g>
     </g>
     <g id="text_4">
      <text style="font: 8px 'DejaVu Sans', 'Bitstream Vera Sans', 'Computer Modern Sans Serif', 'Lucida Grande', 'Verdana', 'Geneva', 'Lucid', 'Arial', 'Helvetica', 'Avant Garde', sans-serif; text-anchor: end" x="43.17075" y="50.23875" transform="rotate(-0 43.17075 50.23875)">50</text>
     </g>
    </g>
    <g id="ytick_3">
     <g id="line2d_5">
      <g>
       <use xlink:href="#mdd91c40023" x="50.17075" y="28.719375"/>
      </g>
     </g>
     <g id="text_5">
      <text style="font: 8px 'DejaVu Sans', 'Bitstream Vera Sans', 'Computer Modern Sans Serif', 'Lucida Grande', 'Verdana', 'Geneva', 'Lucid', 'Arial', 'Helvetica', 'Avant Garde', sans-serif; text-anchor: end" x="43.17075" y="31.75875" transform="rotate(-0 43.17075 31.75875)">100</text>
     </g>
    </g>
    <g id="ytick_4">
     <g id="line2d_6">
      <g>
       <use xlink:href="#mdd91c40023" x="50.17075" y="10.239375"/>
      </g>
     </g>
     <g id="text_6">
      <text style="font: 8px 'DejaVu Sans', 'Bitstream Vera Sans', 'Computer Modern Sans Serif', 'Lucida Grande', 'Verdana', 'Geneva', 'Lucid', 'Arial', 'Helvetica', 'Avant Garde', sans-serif; text-anchor: end" x="43.17075" y="13.27875" transform="rotate(-0 43.17075 13.27875)">150</text>
     </g>
    </g>
    <g id="text_7">
     <text style="font: 8px 'DejaVu Sans', 'Bitstream Vera Sans', 'Computer Modern Sans Serif', 'Lucida Grande', 'Verdana', 'Geneva', 'Lucid', 'Arial', 'Helvetica', 'Avant Garde', sans-serif" transform="translate(13.27875 51.8525) rotate(-90)">Cdc24 </text>
     <text style="font: 8px 'DejaVu Sans', 'Bitstream Vera Sans', 'Computer Modern Sans Serif', 'Lucida Grande', 'Verdana', 'Geneva', 'Lucid', 'Arial', 'Helvetica', 'Avant Garde', sans-serif" transform="translate(22.237 76.635) rotate(-90)">Concentration (nM)</text>
    </g>
   </g>
   <g id="LineCollection_1">
    <path d="M 75.995543 58.982619 
L 92.136039 58.982619 
" clip-path="url(#p8854bfa238)" style="fill: none; stroke: #000000; stroke-opacity: 0.8; stroke-width: 1.5"/>
    <path d="M 140.557527 59.291477 
L 156.698023 59.291477 
" clip-path="url(#p8854bfa238)" style="fill: none; stroke: #000000; stroke-opacity: 0.8; stroke-width: 1.5"/>
    <path d="M 205.11951 59.144298 
L 221.260006 59.144298 
" clip-path="url(#p8854bfa238)" style="fill: none; stroke: #000000; stroke-opacity: 0.8; stroke-width: 1.5"/>
    <path d="M 269.681494 59.091199 
L 285.82199 59.091199 
" clip-path="url(#p8854bfa238)" style="fill: none; stroke: #000000; stroke-opacity: 0.8; stroke-width: 1.5"/>
    <path d="M 334.243477 36.119994 
L 350.383973 36.119994 
" clip-path="url(#p8854bfa238)" style="fill: none; stroke: #000000; stroke-opacity: 0.8; stroke-width: 1.5"/>
    <path clip-path="url(#p8854bfa238)" style="fill: none; stroke: #000000; stroke-opacity: 0.8; stroke-width: 1.5"/>
   </g>
   <g id="patch_3">
    <path d="M 50.17075 65.679375 
L 50.17075 10.239375 
" style="fill: none; stroke: #000000; stroke-width: 0.8; stroke-linejoin: miter; stroke-linecap: square"/>
   </g>
   <g id="patch_4">
    <path d="M 50.17075 65.679375 
L 440.77075 65.679375 
" style="fill: none; stroke: #000000; stroke-width: 0.8; stroke-linejoin: miter; stroke-linecap: square"/>
   </g>
  </g>
 </g>
 <defs>
  <clipPath id="p8854bfa238">
   <rect x="50.17075" y="10.239375" width="390.6" height="55.44"/>
  </clipPath>
 </defs>
</svg>
