<?xml version="1.0" encoding="utf-8" standalone="no"?>
<!DOCTYPE svg PUBLIC "-//W3C//DTD SVG 1.1//EN"
  "http://www.w3.org/Graphics/SVG/1.1/DTD/svg11.dtd">
<svg xmlns:xlink="http://www.w3.org/1999/xlink" width="280.57075pt" height="87.621875pt" viewBox="0 0 280.57075 87.621875" xmlns="http://www.w3.org/2000/svg" version="1.1">
 <metadata>
  <rdf:RDF xmlns:dc="http://purl.org/dc/elements/1.1/" xmlns:cc="http://creativecommons.org/ns#" xmlns:rdf="http://www.w3.org/1999/02/22-rdf-syntax-ns#">
   <cc:Work>
    <dc:type rdf:resource="http://purl.org/dc/dcmitype/StillImage"/>
    <dc:date>2024-11-08T16:13:16.304068</dc:date>
    <dc:format>image/svg+xml</dc:format>
    <dc:creator>
     <cc:Agent>
      <dc:title>Matplotlib v3.7.1, https://matplotlib.org/</dc:title>
     </cc:Agent>
    </dc:creator>
   </cc:Work>
  </rdf:RDF>
 </metadata>
 <defs>
  <style type="text/css">*{stroke-linejoin: round; stroke-linecap: butt}</style>
 </defs>
 <g id="figure_1">
  <g id="patch_1">
   <path d="M 0 87.621875 
L 280.57075 87.621875 
L 280.57075 0 
L 0 0 
L 0 87.621875 
z
" style="fill: none"/>
  </g>
  <g id="axes_1">
   <g id="patch_2">
    <path d="M 50.17075 65.679375 
L 273.37075 65.679375 
L 273.37075 10.239375 
L 50.17075 10.239375 
L 50.17075 65.679375 
z
" style="fill: none"/>
   </g>
   <g id="PolyCollection_1">
    <path d="M 75.02309 62.656786 
L 74.596332 62.656786 
L 74.567493 62.422524 
L 74.540337 62.188262 
L 74.513937 61.954 
L 74.486632 61.719738 
L 74.456231 61.485476 
L 74.420207 61.251214 
L 74.37585 61.016952 
L 74.320432 60.78269 
L 74.251411 60.548428 
L 74.166675 60.314166 
L 74.064773 60.079904 
L 73.945084 59.845642 
L 73.807886 59.61138 
L 73.654362 59.377118 
L 73.486554 59.142856 
L 73.307209 58.908594 
L 73.119401 58.674332 
L 72.925855 58.44007 
L 72.72799 58.205808 
L 72.524936 57.971546 
L 72.312873 57.737284 
L 72.085014 57.503022 
L 71.83232 57.26876 
L 71.544787 57.034498 
L 71.212944 56.800236 
L 70.82926 56.565974 
L 70.38925 56.331712 
L 69.892202 56.09745 
L 69.341509 55.863188 
L 68.744545 55.628926 
L 68.112046 55.394664 
L 67.457039 55.160402 
L 66.793508 54.92614 
L 66.135043 54.691878 
L 65.493765 54.457616 
L 64.879671 54.223354 
L 64.300448 53.989092 
L 63.761643 53.75483 
L 63.266965 53.520568 
L 62.818479 53.286306 
L 62.416505 53.052044 
L 62.059303 52.817782 
L 61.74293 52.58352 
L 61.461769 52.349258 
L 61.209983 52.114996 
L 60.98358 51.880734 
L 60.782152 51.646472 
L 60.609289 51.41221 
L 60.471209 51.177948 
L 60.37419 50.943686 
L 60.322207 50.709424 
L 60.316205 50.475162 
L 60.355614 50.2409 
L 60.441418 50.006638 
L 60.579121 49.772376 
L 60.779866 49.538114 
L 61.058748 49.303852 
L 61.430585 49.06959 
L 61.9045 48.835328 
L 62.479149 48.601066 
L 63.140263 48.366804 
L 63.861501 48.132542 
L 64.608577 47.89828 
L 65.345687 47.664018 
L 66.042453 47.429756 
L 66.679432 47.195494 
L 67.250644 46.961232 
L 67.762575 46.72697 
L 68.230268 46.492708 
L 68.671924 46.258446 
L 69.103732 46.024184 
L 69.536224 45.789922 
L 69.972819 45.55566 
L 70.410445 45.321398 
L 70.84166 45.087136 
L 71.257396 44.852874 
L 71.649492 44.618612 
L 72.012376 44.38435 
L 72.343609 44.150088 
L 72.64337 43.915826 
L 72.913302 43.681564 
L 73.155241 43.447302 
L 73.370311 43.21304 
L 73.558653 42.978778 
L 73.71978 42.744516 
L 73.853326 42.510254 
L 73.959845 42.275992 
L 74.041336 42.04173 
L 74.101304 41.807468 
L 74.144372 41.573206 
L 74.175623 41.338944 
L 74.199943 41.104682 
L 74.221598 40.87042 
L 74.244094 40.636158 
L 74.270236 40.401896 
L 74.302174 40.167634 
L 74.3413 39.933372 
L 74.387982 39.69911 
L 74.441304 39.464848 
L 75.178118 39.464848 
L 75.178118 39.464848 
L 75.23144 39.69911 
L 75.278122 39.933372 
L 75.317248 40.167634 
L 75.349186 40.401896 
L 75.375328 40.636158 
L 75.397824 40.87042 
L 75.419479 41.104682 
L 75.443799 41.338944 
L 75.47505 41.573206 
L 75.518118 41.807468 
L 75.578086 42.04173 
L 75.659577 42.275992 
L 75.766096 42.510254 
L 75.899642 42.744516 
L 76.060769 42.978778 
L 76.249111 43.21304 
L 76.464181 43.447302 
L 76.70612 43.681564 
L 76.976052 43.915826 
L 77.275813 44.150088 
L 77.607046 44.38435 
L 77.96993 44.618612 
L 78.362026 44.852874 
L 78.777762 45.087136 
L 79.208977 45.321398 
L 79.646603 45.55566 
L 80.083198 45.789922 
L 80.51569 46.024184 
L 80.947498 46.258446 
L 81.389154 46.492708 
L 81.856847 46.72697 
L 82.368778 46.961232 
L 82.93999 47.195494 
L 83.576969 47.429756 
L 84.273735 47.664018 
L 85.010845 47.89828 
L 85.757921 48.132542 
L 86.479159 48.366804 
L 87.140273 48.601066 
L 87.714922 48.835328 
L 88.188837 49.06959 
L 88.560674 49.303852 
L 88.839556 49.538114 
L 89.040301 49.772376 
L 89.178004 50.006638 
L 89.263808 50.2409 
L 89.303218 50.475162 
L 89.297215 50.709424 
L 89.245232 50.943686 
L 89.148213 51.177948 
L 89.010133 51.41221 
L 88.83727 51.646472 
L 88.635842 51.880734 
L 88.409439 52.114996 
L 88.157654 52.349258 
L 87.876492 52.58352 
L 87.560119 52.817782 
L 87.202917 53.052044 
L 86.800943 53.286306 
L 86.352457 53.520568 
L 85.857779 53.75483 
L 85.318974 53.989092 
L 84.739751 54.223354 
L 84.125657 54.457616 
L 83.484379 54.691878 
L 82.825914 54.92614 
L 82.162383 55.160402 
L 81.507376 55.394664 
L 80.874877 55.628926 
L 80.277913 55.863188 
L 79.727221 56.09745 
L 79.230172 56.331712 
L 78.790162 56.565974 
L 78.406478 56.800236 
L 78.074635 57.034498 
L 77.787102 57.26876 
L 77.534408 57.503022 
L 77.306549 57.737284 
L 77.094486 57.971546 
L 76.891432 58.205808 
L 76.693567 58.44007 
L 76.500021 58.674332 
L 76.312213 58.908594 
L 76.132868 59.142856 
L 75.965061 59.377118 
L 75.811537 59.61138 
L 75.674338 59.845642 
L 75.554649 60.079904 
L 75.452747 60.314166 
L 75.368011 60.548428 
L 75.29899 60.78269 
L 75.243572 61.016952 
L 75.199215 61.251214 
L 75.163191 61.485476 
L 75.13279 61.719738 
L 75.105485 61.954 
L 75.079085 62.188262 
L 75.051929 62.422524 
L 75.02309 62.656786 
z
" clip-path="url(#p327fa4b958)" style="fill: #1f77b4; fill-opacity: 0.8"/>
   </g>
   <g id="PolyCollection_2">
    <path d="M 133.600329 61.708208 
L 131.967145 61.708208 
L 131.867213 61.477275 
L 131.778207 61.246342 
L 131.702812 61.015409 
L 131.641847 60.784477 
L 131.594001 60.553544 
L 131.555831 60.322611 
L 131.522056 60.091678 
L 131.486105 59.860745 
L 131.440846 59.629813 
L 131.379382 59.39888 
L 131.295789 59.167947 
L 131.185653 58.937014 
L 131.046313 58.706081 
L 130.876763 58.475149 
L 130.677238 58.244216 
L 130.448602 58.013283 
L 130.191704 57.78235 
L 129.906902 57.551417 
L 129.593896 57.320485 
L 129.251957 57.089552 
L 128.880488 56.858619 
L 128.479741 56.627686 
L 128.051474 56.396753 
L 127.599311 56.165821 
L 127.128657 55.934888 
L 126.646173 55.703955 
L 126.15891 55.473022 
L 125.673323 55.242089 
L 125.194381 55.011157 
L 124.724948 54.780224 
L 124.265531 54.549291 
L 123.814404 54.318358 
L 123.36803 54.087425 
L 122.921744 53.856493 
L 122.470632 53.62556 
L 122.010592 53.394627 
L 121.539543 53.163694 
L 121.058667 52.932761 
L 120.573489 52.701829 
L 120.094471 52.470896 
L 119.636787 52.239963 
L 119.219055 52.00903 
L 118.861009 51.778097 
L 118.580444 51.547165 
L 118.390013 51.316232 
L 118.294641 51.085299 
L 118.290231 50.854366 
L 118.364083 50.623433 
L 118.497042 50.392501 
L 118.666934 50.161568 
L 118.852572 49.930635 
L 119.037452 49.699702 
L 119.212376 49.468769 
L 119.376514 49.237837 
L 119.536776 49.006904 
L 119.705792 48.775971 
L 119.899007 48.545038 
L 120.13161 48.314105 
L 120.415888 48.083173 
L 120.759482 47.85224 
L 121.164694 47.621307 
L 121.628774 47.390374 
L 122.144893 47.159441 
L 122.703445 46.928509 
L 123.293352 46.697576 
L 123.903119 46.466643 
L 124.521559 46.23571 
L 125.138185 46.004777 
L 125.743353 45.773845 
L 126.328286 45.542912 
L 126.885106 45.311979 
L 127.406961 45.081046 
L 127.888318 44.850113 
L 128.325381 44.619181 
L 128.716551 44.388248 
L 129.062758 44.157315 
L 129.367523 43.926382 
L 129.636612 43.695449 
L 129.877276 43.464517 
L 130.097187 43.233584 
L 130.303282 43.002651 
L 130.500765 42.771718 
L 130.692494 42.540785 
L 130.878888 42.309853 
L 131.058319 42.07892 
L 131.2279 41.847987 
L 131.384426 41.617054 
L 131.525268 41.386121 
L 131.649027 41.155189 
L 131.755854 40.924256 
L 131.847405 40.693323 
L 131.926504 40.46239 
L 131.996619 40.231457 
L 132.061273 40.000525 
L 132.12351 39.769592 
L 132.185512 39.538659 
L 132.248401 39.307726 
L 132.312247 39.076793 
L 132.376238 38.845861 
L 133.191236 38.845861 
L 133.191236 38.845861 
L 133.255227 39.076793 
L 133.319073 39.307726 
L 133.381962 39.538659 
L 133.443964 39.769592 
L 133.506201 40.000525 
L 133.570855 40.231457 
L 133.64097 40.46239 
L 133.720069 40.693323 
L 133.81162 40.924256 
L 133.918447 41.155189 
L 134.042206 41.386121 
L 134.183048 41.617054 
L 134.339574 41.847987 
L 134.509155 42.07892 
L 134.688586 42.309853 
L 134.87498 42.540785 
L 135.066709 42.771718 
L 135.264192 43.002651 
L 135.470287 43.233584 
L 135.690198 43.464517 
L 135.930862 43.695449 
L 136.199951 43.926382 
L 136.504716 44.157315 
L 136.850923 44.388248 
L 137.242093 44.619181 
L 137.679156 44.850113 
L 138.160513 45.081046 
L 138.682368 45.311979 
L 139.239188 45.542912 
L 139.824121 45.773845 
L 140.429289 46.004777 
L 141.045915 46.23571 
L 141.664356 46.466643 
L 142.274122 46.697576 
L 142.864029 46.928509 
L 143.422581 47.159441 
L 143.9387 47.390374 
L 144.40278 47.621307 
L 144.807992 47.85224 
L 145.151586 48.083173 
L 145.435864 48.314105 
L 145.668467 48.545038 
L 145.861682 48.775971 
L 146.030698 49.006904 
L 146.19096 49.237837 
L 146.355098 49.468769 
L 146.530023 49.699702 
L 146.714902 49.930635 
L 146.90054 50.161568 
L 147.070432 50.392501 
L 147.203391 50.623433 
L 147.277244 50.854366 
L 147.272833 51.085299 
L 147.177461 51.316232 
L 146.98703 51.547165 
L 146.706465 51.778097 
L 146.348419 52.00903 
L 145.930687 52.239963 
L 145.473003 52.470896 
L 144.993985 52.701829 
L 144.508807 52.932761 
L 144.027931 53.163694 
L 143.556882 53.394627 
L 143.096842 53.62556 
L 142.64573 53.856493 
L 142.199444 54.087425 
L 141.75307 54.318358 
L 141.301943 54.549291 
L 140.842526 54.780224 
L 140.373093 55.011157 
L 139.894151 55.242089 
L 139.408564 55.473022 
L 138.921301 55.703955 
L 138.438817 55.934888 
L 137.968163 56.165821 
L 137.516 56.396753 
L 137.087733 56.627686 
L 136.686986 56.858619 
L 136.315517 57.089552 
L 135.973578 57.320485 
L 135.660572 57.551417 
L 135.37577 57.78235 
L 135.118873 58.013283 
L 134.890236 58.244216 
L 134.690711 58.475149 
L 134.521161 58.706081 
L 134.381821 58.937014 
L 134.271685 59.167947 
L 134.188092 59.39888 
L 134.126628 59.629813 
L 134.081369 59.860745 
L 134.045418 60.091678 
L 134.011643 60.322611 
L 133.973473 60.553544 
L 133.925627 60.784477 
L 133.864662 61.015409 
L 133.789267 61.246342 
L 133.700261 61.477275 
L 133.600329 61.708208 
z
" clip-path="url(#p327fa4b958)" style="fill: #1f77b4; fill-opacity: 0.8"/>
   </g>
   <g id="PolyCollection_3">
    <path d="M 193.76434 61.282151 
L 187.751186 61.282151 
L 187.469098 61.061612 
L 187.17286 60.841073 
L 186.863511 60.620534 
L 186.542402 60.399995 
L 186.211203 60.179455 
L 185.871904 59.958916 
L 185.526791 59.738377 
L 185.178426 59.517838 
L 184.829597 59.297299 
L 184.483266 59.076759 
L 184.1425 58.85622 
L 183.810386 58.635681 
L 183.489954 58.415142 
L 183.184075 58.194603 
L 182.895376 57.974063 
L 182.626141 57.753524 
L 182.378233 57.532985 
L 182.15302 57.312446 
L 181.951313 57.091907 
L 181.773327 56.871367 
L 181.618655 56.650828 
L 181.486276 56.430289 
L 181.374567 56.20975 
L 181.281355 55.989211 
L 181.203977 55.768671 
L 181.139366 55.548132 
L 181.084146 55.327593 
L 181.034744 55.107054 
L 180.987505 54.886515 
L 180.938811 54.665975 
L 180.885196 54.445436 
L 180.823456 54.224897 
L 180.750746 54.004358 
L 180.664664 53.783819 
L 180.563312 53.563279 
L 180.445344 53.34274 
L 180.30999 53.122201 
L 180.157058 52.901662 
L 179.986924 52.681123 
L 179.800492 52.460583 
L 179.59915 52.240044 
L 179.384715 52.019505 
L 179.159358 51.798966 
L 178.92554 51.578427 
L 178.685938 51.357887 
L 178.443377 51.137348 
L 178.200764 50.916809 
L 177.961036 50.69627 
L 177.727105 50.475731 
L 177.501824 50.255191 
L 177.287957 50.034652 
L 177.088147 49.814113 
L 176.90491 49.593574 
L 176.740614 49.373035 
L 176.59747 49.152495 
L 176.477526 48.931956 
L 176.382651 48.711417 
L 176.314531 48.490878 
L 176.274645 48.270339 
L 176.264256 48.049799 
L 176.284391 47.82926 
L 176.335816 47.608721 
L 176.419025 47.388182 
L 176.534214 47.167643 
L 176.681275 46.947103 
L 176.859777 46.726564 
L 177.068969 46.506025 
L 177.307784 46.285486 
L 177.57484 46.064947 
L 177.868471 45.844407 
L 178.18674 45.623868 
L 178.527478 45.403329 
L 178.888317 45.18279 
L 179.266733 44.962251 
L 179.660087 44.741711 
L 180.065671 44.521172 
L 180.480754 44.300633 
L 180.902624 44.080094 
L 181.328628 43.859555 
L 181.756213 43.639015 
L 182.182958 43.418476 
L 182.606603 43.197937 
L 183.025075 42.977398 
L 183.436506 42.756859 
L 183.839249 42.536319 
L 184.231882 42.31578 
L 184.613217 42.095241 
L 184.982293 41.874702 
L 185.338373 41.654163 
L 185.680928 41.433623 
L 186.009628 41.213084 
L 186.324314 40.992545 
L 186.624985 40.772006 
L 186.911768 40.551467 
L 187.184894 40.330927 
L 187.444677 40.110388 
L 187.691484 39.889849 
L 187.925716 39.66931 
L 188.147789 39.448771 
L 193.367737 39.448771 
L 193.367737 39.448771 
L 193.58981 39.66931 
L 193.824042 39.889849 
L 194.070849 40.110388 
L 194.330632 40.330927 
L 194.603758 40.551467 
L 194.890541 40.772006 
L 195.191212 40.992545 
L 195.505898 41.213084 
L 195.834598 41.433623 
L 196.177153 41.654163 
L 196.533233 41.874702 
L 196.902309 42.095241 
L 197.283644 42.31578 
L 197.676277 42.536319 
L 198.07902 42.756859 
L 198.490451 42.977398 
L 198.908923 43.197937 
L 199.332568 43.418476 
L 199.759313 43.639015 
L 200.186898 43.859555 
L 200.612902 44.080094 
L 201.034772 44.300633 
L 201.449855 44.521172 
L 201.855439 44.741711 
L 202.248793 44.962251 
L 202.627209 45.18279 
L 202.988048 45.403329 
L 203.328786 45.623868 
L 203.647055 45.844407 
L 203.940686 46.064947 
L 204.207742 46.285486 
L 204.446557 46.506025 
L 204.655749 46.726564 
L 204.834251 46.947103 
L 204.981312 47.167643 
L 205.096501 47.388182 
L 205.17971 47.608721 
L 205.231135 47.82926 
L 205.251269 48.049799 
L 205.240881 48.270339 
L 205.200995 48.490878 
L 205.132875 48.711417 
L 205.038 48.931956 
L 204.918056 49.152495 
L 204.774912 49.373035 
L 204.610616 49.593574 
L 204.427379 49.814113 
L 204.227569 50.034652 
L 204.013702 50.255191 
L 203.788421 50.475731 
L 203.55449 50.69627 
L 203.314762 50.916809 
L 203.072149 51.137348 
L 202.829588 51.357887 
L 202.589986 51.578427 
L 202.356168 51.798966 
L 202.130811 52.019505 
L 201.916375 52.240044 
L 201.715034 52.460583 
L 201.528602 52.681123 
L 201.358468 52.901662 
L 201.205536 53.122201 
L 201.070182 53.34274 
L 200.952214 53.563279 
L 200.850862 53.783819 
L 200.764779 54.004358 
L 200.69207 54.224897 
L 200.63033 54.445436 
L 200.576715 54.665975 
L 200.528021 54.886515 
L 200.480782 55.107054 
L 200.43138 55.327593 
L 200.37616 55.548132 
L 200.311549 55.768671 
L 200.234171 55.989211 
L 200.140959 56.20975 
L 200.02925 56.430289 
L 199.896871 56.650828 
L 199.742199 56.871367 
L 199.564212 57.091907 
L 199.362506 57.312446 
L 199.137293 57.532985 
L 198.889385 57.753524 
L 198.62015 57.974063 
L 198.331451 58.194603 
L 198.025572 58.415142 
L 197.70514 58.635681 
L 197.373026 58.85622 
L 197.03226 59.076759 
L 196.685929 59.297299 
L 196.3371 59.517838 
L 195.988735 59.738377 
L 195.643622 59.958916 
L 195.304322 60.179455 
L 194.973124 60.399995 
L 194.652015 60.620534 
L 194.342666 60.841073 
L 194.046428 61.061612 
L 193.76434 61.282151 
z
" clip-path="url(#p327fa4b958)" style="fill: #1f77b4; fill-opacity: 0.8"/>
   </g>
   <g id="PolyCollection_4">
    <path d="M 250.524476 57.753118 
L 246.939102 57.753118 
L 246.926734 57.594291 
L 246.91944 57.435464 
L 246.916498 57.276637 
L 246.917009 57.117809 
L 246.9199 56.958982 
L 246.923933 56.800155 
L 246.927724 56.641328 
L 246.929751 56.482501 
L 246.928382 56.323673 
L 246.921891 56.164846 
L 246.908486 56.006019 
L 246.886337 55.847192 
L 246.853603 55.688365 
L 246.808463 55.529537 
L 246.749143 55.37071 
L 246.673952 55.211883 
L 246.581312 55.053056 
L 246.469781 54.894229 
L 246.338089 54.735401 
L 246.185162 54.576574 
L 246.010142 54.417747 
L 245.812414 54.25892 
L 245.591621 54.100093 
L 245.347675 53.941265 
L 245.080773 53.782438 
L 244.791397 53.623611 
L 244.480317 53.464784 
L 244.148585 53.305957 
L 243.797526 53.147129 
L 243.428724 52.988302 
L 243.044003 52.829475 
L 242.6454 52.670648 
L 242.235141 52.511821 
L 241.815607 52.352993 
L 241.389299 52.194166 
L 240.958803 52.035339 
L 240.526749 51.876512 
L 240.095776 51.717685 
L 239.668488 51.558857 
L 239.24742 51.40003 
L 238.834998 51.241203 
L 238.43351 51.082376 
L 238.045075 50.923549 
L 237.671614 50.764721 
L 237.314828 50.605894 
L 236.976184 50.447067 
L 236.6569 50.28824 
L 236.357937 50.129413 
L 236.079998 49.970585 
L 235.823527 49.811758 
L 235.58872 49.652931 
L 235.375531 49.494104 
L 235.18369 49.335277 
L 235.012719 49.176449 
L 234.861954 49.017622 
L 234.73057 48.858795 
L 234.617604 48.699968 
L 234.521982 48.541141 
L 234.44255 48.382313 
L 234.378101 48.223486 
L 234.327405 48.064659 
L 234.289235 47.905832 
L 234.2624 47.747005 
L 234.245765 47.588177 
L 234.238282 47.42935 
L 234.239013 47.270523 
L 234.247145 47.111696 
L 234.262013 46.952869 
L 234.283115 46.794041 
L 234.310118 46.635214 
L 234.342871 46.476387 
L 234.381407 46.31756 
L 234.425939 46.158733 
L 234.47686 45.999905 
L 234.534728 45.841078 
L 234.600257 45.682251 
L 234.674299 45.523424 
L 234.757819 45.364597 
L 234.851874 45.205769 
L 234.957583 45.046942 
L 235.076098 44.888115 
L 235.208573 44.729288 
L 235.356127 44.570461 
L 235.519816 44.411633 
L 235.700596 44.252806 
L 235.899295 44.093979 
L 236.116579 43.935152 
L 236.352929 43.776325 
L 236.608617 43.617497 
L 236.883685 43.45867 
L 237.177935 43.299843 
L 237.490913 43.141016 
L 237.821915 42.982189 
L 238.169981 42.823361 
L 238.533906 42.664534 
L 238.912254 42.505707 
L 239.303376 42.34688 
L 239.705433 42.188053 
L 240.116427 42.029225 
L 257.347151 42.029225 
L 257.347151 42.029225 
L 257.758145 42.188053 
L 258.160202 42.34688 
L 258.551324 42.505707 
L 258.929672 42.664534 
L 259.293597 42.823361 
L 259.641662 42.982189 
L 259.972664 43.141016 
L 260.285643 43.299843 
L 260.579893 43.45867 
L 260.854961 43.617497 
L 261.110649 43.776325 
L 261.346999 43.935152 
L 261.564283 44.093979 
L 261.762982 44.252806 
L 261.943762 44.411633 
L 262.107451 44.570461 
L 262.255005 44.729288 
L 262.38748 44.888115 
L 262.505995 45.046942 
L 262.611704 45.205769 
L 262.705759 45.364597 
L 262.789279 45.523424 
L 262.86332 45.682251 
L 262.92885 45.841078 
L 262.986718 45.999905 
L 263.037639 46.158733 
L 263.082171 46.31756 
L 263.120707 46.476387 
L 263.15346 46.635214 
L 263.180463 46.794041 
L 263.201565 46.952869 
L 263.216433 47.111696 
L 263.224565 47.270523 
L 263.225295 47.42935 
L 263.217813 47.588177 
L 263.201178 47.747005 
L 263.174343 47.905832 
L 263.136173 48.064659 
L 263.085476 48.223486 
L 263.021028 48.382313 
L 262.941596 48.541141 
L 262.845974 48.699968 
L 262.733008 48.858795 
L 262.601624 49.017622 
L 262.450859 49.176449 
L 262.279888 49.335277 
L 262.088047 49.494104 
L 261.874858 49.652931 
L 261.640051 49.811758 
L 261.38358 49.970585 
L 261.105641 50.129413 
L 260.806678 50.28824 
L 260.487394 50.447067 
L 260.14875 50.605894 
L 259.791964 50.764721 
L 259.418502 50.923549 
L 259.030067 51.082376 
L 258.62858 51.241203 
L 258.216158 51.40003 
L 257.79509 51.558857 
L 257.367801 51.717685 
L 256.936828 51.876512 
L 256.504775 52.035339 
L 256.074279 52.194166 
L 255.647971 52.352993 
L 255.228437 52.511821 
L 254.818178 52.670648 
L 254.419575 52.829475 
L 254.034853 52.988302 
L 253.666052 53.147129 
L 253.314993 53.305957 
L 252.983261 53.464784 
L 252.672181 53.623611 
L 252.382805 53.782438 
L 252.115903 53.941265 
L 251.871957 54.100093 
L 251.651163 54.25892 
L 251.453436 54.417747 
L 251.278416 54.576574 
L 251.125489 54.735401 
L 250.993797 54.894229 
L 250.882266 55.053056 
L 250.789626 55.211883 
L 250.714435 55.37071 
L 250.655115 55.529537 
L 250.609974 55.688365 
L 250.577241 55.847192 
L 250.555092 56.006019 
L 250.541687 56.164846 
L 250.535196 56.323673 
L 250.533827 56.482501 
L 250.535854 56.641328 
L 250.539645 56.800155 
L 250.543678 56.958982 
L 250.546569 57.117809 
L 250.54708 57.276637 
L 250.544138 57.435464 
L 250.536844 57.594291 
L 250.524476 57.753118 
z
" clip-path="url(#p327fa4b958)" style="fill: #1f77b4; fill-opacity: 0.8"/>
   </g>
   <g id="matplotlib.axis_1">
    <g id="xtick_1">
     <g id="line2d_1">
      <defs>
       <path id="m4f27a0cd0f" d="M 0 0 
L 0 3.5 
"/>
      </defs>
      <g>
       <use xlink:href="#m4f27a0cd0f" x="74.809711" y="65.679375"/>
      </g>
     </g>
     <g id="text_1">
      <text style="font: 8px 'DejaVu Sans', 'Bitstream Vera Sans', 'Computer Modern Sans Serif', 'Lucida Grande', 'Verdana', 'Geneva', 'Lucid', 'Arial', 'Helvetica', 'Avant Garde', sans-serif; text-anchor: middle" x="74.809711" y="78.758125" transform="rotate(-0 74.809711 78.758125)">50 - 100 nM</text>
     </g>
    </g>
    <g id="xtick_2">
     <g id="line2d_2">
      <g>
       <use xlink:href="#m4f27a0cd0f" x="132.783737" y="65.679375"/>
      </g>
     </g>
     <g id="text_2">
      <text style="font: 8px 'DejaVu Sans', 'Bitstream Vera Sans', 'Computer Modern Sans Serif', 'Lucida Grande', 'Verdana', 'Geneva', 'Lucid', 'Arial', 'Helvetica', 'Avant Garde', sans-serif; text-anchor: middle" x="132.783737" y="78.758125" transform="rotate(-0 132.783737 78.758125)">100 - 200 nM</text>
     </g>
    </g>
    <g id="xtick_3">
     <g id="line2d_3">
      <g>
       <use xlink:href="#m4f27a0cd0f" x="190.757763" y="65.679375"/>
      </g>
     </g>
     <g id="text_3">
      <text style="font: 8px 'DejaVu Sans', 'Bitstream Vera Sans', 'Computer Modern Sans Serif', 'Lucida Grande', 'Verdana', 'Geneva', 'Lucid', 'Arial', 'Helvetica', 'Avant Garde', sans-serif; text-anchor: middle" x="190.757763" y="78.758125" transform="rotate(-0 190.757763 78.758125)">200 - 400 nM</text>
     </g>
    </g>
    <g id="xtick_4">
     <g id="line2d_4">
      <g>
       <use xlink:href="#m4f27a0cd0f" x="248.731789" y="65.679375"/>
      </g>
     </g>
     <g id="text_4">
      <text style="font: 8px 'DejaVu Sans', 'Bitstream Vera Sans', 'Computer Modern Sans Serif', 'Lucida Grande', 'Verdana', 'Geneva', 'Lucid', 'Arial', 'Helvetica', 'Avant Garde', sans-serif; text-anchor: middle" x="248.731789" y="78.758125" transform="rotate(-0 248.731789 78.758125)">&gt;400 nM</text>
     </g>
    </g>
   </g>
   <g id="matplotlib.axis_2">
    <g id="ytick_1">
     <g id="line2d_5">
      <defs>
       <path id="mf0201545a1" d="M 0 0 
L -3.5 0 
"/>
      </defs>
      <g>
       <use xlink:href="#mf0201545a1" x="50.17075" y="65.679375"/>
      </g>
     </g>
     <g id="text_5">
      <text style="font: 8px 'DejaVu Sans', 'Bitstream Vera Sans', 'Computer Modern Sans Serif', 'Lucida Grande', 'Verdana', 'Geneva', 'Lucid', 'Arial', 'Helvetica', 'Avant Garde', sans-serif; text-anchor: end" x="43.17075" y="68.71875" transform="rotate(-0 43.17075 68.71875)">0</text>
     </g>
    </g>
    <g id="ytick_2">
     <g id="line2d_6">
      <g>
       <use xlink:href="#mf0201545a1" x="50.17075" y="37.959375"/>
      </g>
     </g>
     <g id="text_6">
      <text style="font: 8px 'DejaVu Sans', 'Bitstream Vera Sans', 'Computer Modern Sans Serif', 'Lucida Grande', 'Verdana', 'Geneva', 'Lucid', 'Arial', 'Helvetica', 'Avant Garde', sans-serif; text-anchor: end" x="43.17075" y="40.99875" transform="rotate(-0 43.17075 40.99875)">100</text>
     </g>
    </g>
    <g id="ytick_3">
     <g id="line2d_7">
      <g>
       <use xlink:href="#mf0201545a1" x="50.17075" y="10.239375"/>
      </g>
     </g>
     <g id="text_7">
      <text style="font: 8px 'DejaVu Sans', 'Bitstream Vera Sans', 'Computer Modern Sans Serif', 'Lucida Grande', 'Verdana', 'Geneva', 'Lucid', 'Arial', 'Helvetica', 'Avant Garde', sans-serif; text-anchor: end" x="43.17075" y="13.27875" transform="rotate(-0 43.17075 13.27875)">200</text>
     </g>
    </g>
    <g id="text_8">
     <text style="font: 8px 'DejaVu Sans', 'Bitstream Vera Sans', 'Computer Modern Sans Serif', 'Lucida Grande', 'Verdana', 'Geneva', 'Lucid', 'Arial', 'Helvetica', 'Avant Garde', sans-serif" transform="translate(13.27875 46.746875) rotate(-90)">PAK </text>
     <text style="font: 8px 'DejaVu Sans', 'Bitstream Vera Sans', 'Computer Modern Sans Serif', 'Lucida Grande', 'Verdana', 'Geneva', 'Lucid', 'Arial', 'Helvetica', 'Avant Garde', sans-serif" transform="translate(22.237 59.584375) rotate(-90)">Conc. (nM)</text>
    </g>
   </g>
   <g id="LineCollection_1">
    <path d="M 67.562958 50.920168 
L 82.056464 50.920168 
" clip-path="url(#p327fa4b958)" style="fill: none; stroke: #000000; stroke-opacity: 0.8; stroke-width: 1.5"/>
    <path d="M 125.536984 50.547645 
L 140.03049 50.547645 
" clip-path="url(#p327fa4b958)" style="fill: none; stroke: #000000; stroke-opacity: 0.8; stroke-width: 1.5"/>
    <path d="M 183.51101 50.238213 
L 198.004516 50.238213 
" clip-path="url(#p327fa4b958)" style="fill: none; stroke: #000000; stroke-opacity: 0.8; stroke-width: 1.5"/>
    <path d="M 241.485036 47.498447 
L 255.978542 47.498447 
" clip-path="url(#p327fa4b958)" style="fill: none; stroke: #000000; stroke-opacity: 0.8; stroke-width: 1.5"/>
   </g>
   <g id="patch_3">
    <path d="M 50.17075 65.679375 
L 50.17075 10.239375 
" style="fill: none; stroke: #000000; stroke-width: 0.8; stroke-linejoin: miter; stroke-linecap: square"/>
   </g>
   <g id="patch_4">
    <path d="M 50.17075 65.679375 
L 273.37075 65.679375 
" style="fill: none; stroke: #000000; stroke-width: 0.8; stroke-linejoin: miter; stroke-linecap: square"/>
   </g>
  </g>
 </g>
 <defs>
  <clipPath id="p327fa4b958">
   <rect x="50.17075" y="10.239375" width="223.2" height="55.44"/>
  </clipPath>
 </defs>
</svg>
