<?xml version="1.0" encoding="utf-8" standalone="no"?>
<!DOCTYPE svg PUBLIC "-//W3C//DTD SVG 1.1//EN"
  "http://www.w3.org/Graphics/SVG/1.1/DTD/svg11.dtd">
<svg xmlns:xlink="http://www.w3.org/1999/xlink" width="280.57075pt" height="87.621875pt" viewBox="0 0 280.57075 87.621875" xmlns="http://www.w3.org/2000/svg" version="1.1">
 <metadata>
  <rdf:RDF xmlns:dc="http://purl.org/dc/elements/1.1/" xmlns:cc="http://creativecommons.org/ns#" xmlns:rdf="http://www.w3.org/1999/02/22-rdf-syntax-ns#">
   <cc:Work>
    <dc:type rdf:resource="http://purl.org/dc/dcmitype/StillImage"/>
    <dc:date>2024-11-08T13:14:21.286896</dc:date>
    <dc:format>image/svg+xml</dc:format>
    <dc:creator>
     <cc:Agent>
      <dc:title>Matplotlib v3.7.1, https://matplotlib.org/</dc:title>
     </cc:Agent>
    </dc:creator>
   </cc:Work>
  </rdf:RDF>
 </metadata>
 <defs>
  <style type="text/css">*{stroke-linejoin: round; stroke-linecap: butt}</style>
 </defs>
 <g id="figure_1">
  <g id="patch_1">
   <path d="M 0 87.621875 
L 280.57075 87.621875 
L 280.57075 0 
L 0 0 
L 0 87.621875 
z
" style="fill: none"/>
  </g>
  <g id="axes_1">
   <g id="patch_2">
    <path d="M 50.17075 65.679375 
L 273.37075 65.679375 
L 273.37075 10.239375 
L 50.17075 10.239375 
L 50.17075 65.679375 
z
" style="fill: none"/>
   </g>
   <g id="PolyCollection_1">
    <path d="M 69.675132 62.656786 
L 69.403558 62.656786 
L 69.385206 62.422524 
L 69.367925 62.188262 
L 69.351125 61.954 
L 69.333749 61.719738 
L 69.314403 61.485476 
L 69.291479 61.251214 
L 69.263252 61.016952 
L 69.227986 60.78269 
L 69.184063 60.548428 
L 69.13014 60.314166 
L 69.065294 60.079904 
L 68.989128 59.845642 
L 68.90182 59.61138 
L 68.804123 59.377118 
L 68.697336 59.142856 
L 68.583207 58.908594 
L 68.463693 58.674332 
L 68.340527 58.44007 
L 68.214613 58.205808 
L 68.085397 57.971546 
L 67.950448 57.737284 
L 67.805447 57.503022 
L 67.644642 57.26876 
L 67.461666 57.034498 
L 67.250493 56.800236 
L 67.006331 56.565974 
L 66.726324 56.331712 
L 66.410021 56.09745 
L 66.05958 55.863188 
L 65.679694 55.628926 
L 65.277194 55.394664 
L 64.860372 55.160402 
L 64.438125 54.92614 
L 64.019102 54.691878 
L 63.611016 54.457616 
L 63.220228 54.223354 
L 62.851632 53.989092 
L 62.508756 53.75483 
L 62.193961 53.520568 
L 61.908561 53.286306 
L 61.652759 53.052044 
L 61.425449 52.817782 
L 61.224121 52.58352 
L 61.0452 52.349258 
L 60.884973 52.114996 
L 60.740898 51.880734 
L 60.612717 51.646472 
L 60.502713 51.41221 
L 60.414844 51.177948 
L 60.353105 50.943686 
L 60.320024 50.709424 
L 60.316205 50.475162 
L 60.341283 50.2409 
L 60.395886 50.006638 
L 60.483515 49.772376 
L 60.611262 49.538114 
L 60.788732 49.303852 
L 61.025356 49.06959 
L 61.326938 48.835328 
L 61.692624 48.601066 
L 62.113333 48.366804 
L 62.572302 48.132542 
L 63.047714 47.89828 
L 63.516784 47.664018 
L 63.960181 47.429756 
L 64.365531 47.195494 
L 64.72903 46.961232 
L 65.054804 46.72697 
L 65.352427 46.492708 
L 65.633481 46.258446 
L 65.908267 46.024184 
L 66.18349 45.789922 
L 66.461323 45.55566 
L 66.739812 45.321398 
L 67.014222 45.087136 
L 67.278781 44.852874 
L 67.528296 44.618612 
L 67.759223 44.38435 
L 67.970007 44.150088 
L 68.160764 43.915826 
L 68.33254 43.681564 
L 68.486501 43.447302 
L 68.623363 43.21304 
L 68.743217 42.978778 
L 68.845753 42.744516 
L 68.930736 42.510254 
L 68.998521 42.275992 
L 69.050379 42.04173 
L 69.088541 41.807468 
L 69.115948 41.573206 
L 69.135834 41.338944 
L 69.151311 41.104682 
L 69.165091 40.87042 
L 69.179407 40.636158 
L 69.196043 40.401896 
L 69.216367 40.167634 
L 69.241266 39.933372 
L 69.270972 39.69911 
L 69.304904 39.464848 
L 69.773786 39.464848 
L 69.773786 39.464848 
L 69.807718 39.69911 
L 69.837425 39.933372 
L 69.862323 40.167634 
L 69.882647 40.401896 
L 69.899283 40.636158 
L 69.913599 40.87042 
L 69.927379 41.104682 
L 69.942856 41.338944 
L 69.962742 41.573206 
L 69.99015 41.807468 
L 70.028311 42.04173 
L 70.080169 42.275992 
L 70.147954 42.510254 
L 70.232937 42.744516 
L 70.335473 42.978778 
L 70.455327 43.21304 
L 70.592189 43.447302 
L 70.746151 43.681564 
L 70.917926 43.915826 
L 71.108683 44.150088 
L 71.319467 44.38435 
L 71.550394 44.618612 
L 71.799909 44.852874 
L 72.064468 45.087136 
L 72.338878 45.321398 
L 72.617367 45.55566 
L 72.8952 45.789922 
L 73.170423 46.024184 
L 73.445209 46.258446 
L 73.726263 46.492708 
L 74.023886 46.72697 
L 74.349661 46.961232 
L 74.713159 47.195494 
L 75.118509 47.429756 
L 75.561906 47.664018 
L 76.030976 47.89828 
L 76.506388 48.132542 
L 76.965357 48.366804 
L 77.386067 48.601066 
L 77.751752 48.835328 
L 78.053335 49.06959 
L 78.289958 49.303852 
L 78.467428 49.538114 
L 78.595175 49.772376 
L 78.682804 50.006638 
L 78.737407 50.2409 
L 78.762486 50.475162 
L 78.758666 50.709424 
L 78.725586 50.943686 
L 78.663846 51.177948 
L 78.575977 51.41221 
L 78.465973 51.646472 
L 78.337792 51.880734 
L 78.193717 52.114996 
L 78.03349 52.349258 
L 77.854569 52.58352 
L 77.653241 52.817782 
L 77.425931 53.052044 
L 77.170129 53.286306 
L 76.884729 53.520568 
L 76.569934 53.75483 
L 76.227058 53.989092 
L 75.858462 54.223354 
L 75.467675 54.457616 
L 75.059588 54.691878 
L 74.640565 54.92614 
L 74.218318 55.160402 
L 73.801496 55.394664 
L 73.398996 55.628926 
L 73.01911 55.863188 
L 72.668669 56.09745 
L 72.352366 56.331712 
L 72.072359 56.565974 
L 71.828197 56.800236 
L 71.617024 57.034498 
L 71.434048 57.26876 
L 71.273243 57.503022 
L 71.128242 57.737284 
L 70.993293 57.971546 
L 70.864077 58.205808 
L 70.738163 58.44007 
L 70.614997 58.674332 
L 70.495483 58.908594 
L 70.381354 59.142856 
L 70.274567 59.377118 
L 70.17687 59.61138 
L 70.089562 59.845642 
L 70.013396 60.079904 
L 69.94855 60.314166 
L 69.894627 60.548428 
L 69.850704 60.78269 
L 69.815438 61.016952 
L 69.787211 61.251214 
L 69.764287 61.485476 
L 69.744941 61.719738 
L 69.727565 61.954 
L 69.710765 62.188262 
L 69.693484 62.422524 
L 69.675132 62.656786 
z
" clip-path="url(#p11fc61b59c)" style="fill: #1f77b4; fill-opacity: 0.8"/>
   </g>
   <g id="PolyCollection_2">
    <path d="M 106.951557 61.708208 
L 105.912257 61.708208 
L 105.848664 61.477275 
L 105.792025 61.246342 
L 105.744045 61.015409 
L 105.70525 60.784477 
L 105.674802 60.553544 
L 105.650512 60.322611 
L 105.629019 60.091678 
L 105.606141 59.860745 
L 105.57734 59.629813 
L 105.538226 59.39888 
L 105.485031 59.167947 
L 105.414944 58.937014 
L 105.326274 58.706081 
L 105.218378 58.475149 
L 105.091408 58.244216 
L 104.945912 58.013283 
L 104.782432 57.78235 
L 104.601194 57.551417 
L 104.402008 57.320485 
L 104.184411 57.089552 
L 103.948021 56.858619 
L 103.693 56.627686 
L 103.420467 56.396753 
L 103.132727 56.165821 
L 102.83322 55.934888 
L 102.526184 55.703955 
L 102.216108 55.473022 
L 101.907098 55.242089 
L 101.602317 55.011157 
L 101.303587 54.780224 
L 101.011231 54.549291 
L 100.72415 54.318358 
L 100.440094 54.087425 
L 100.156093 53.856493 
L 99.869022 53.62556 
L 99.576269 53.394627 
L 99.276511 53.163694 
L 98.970499 52.932761 
L 98.661749 52.701829 
L 98.356919 52.470896 
L 98.065666 52.239963 
L 97.799837 52.00903 
L 97.571989 51.778097 
L 97.393448 51.547165 
L 97.272264 51.316232 
L 97.211573 51.085299 
L 97.208767 50.854366 
L 97.255764 50.623433 
L 97.340374 50.392501 
L 97.448487 50.161568 
L 97.56662 49.930635 
L 97.684271 49.699702 
L 97.795587 49.468769 
L 97.900038 49.237837 
L 98.002023 49.006904 
L 98.109578 48.775971 
L 98.232534 48.545038 
L 98.380553 48.314105 
L 98.561458 48.083173 
L 98.780108 47.85224 
L 99.037971 47.621307 
L 99.333294 47.390374 
L 99.661733 47.159441 
L 100.017176 46.928509 
L 100.392571 46.697576 
L 100.780604 46.466643 
L 101.174157 46.23571 
L 101.566556 46.004777 
L 101.951662 45.773845 
L 102.323893 45.542912 
L 102.678232 45.311979 
L 103.010322 45.081046 
L 103.31664 44.850113 
L 103.594772 44.619181 
L 103.843698 44.388248 
L 104.064011 44.157315 
L 104.257953 43.926382 
L 104.429191 43.695449 
L 104.582341 43.464517 
L 104.722284 43.233584 
L 104.853436 43.002651 
L 104.979106 42.771718 
L 105.101116 42.540785 
L 105.21973 42.309853 
L 105.333914 42.07892 
L 105.441829 41.847987 
L 105.541437 41.617054 
L 105.631063 41.386121 
L 105.709819 41.155189 
L 105.7778 40.924256 
L 105.836059 40.693323 
L 105.886395 40.46239 
L 105.931014 40.231457 
L 105.972157 40.000525 
L 106.011763 39.769592 
L 106.051218 39.538659 
L 106.091239 39.307726 
L 106.131868 39.076793 
L 106.172589 38.845861 
L 106.691225 38.845861 
L 106.691225 38.845861 
L 106.731946 39.076793 
L 106.772575 39.307726 
L 106.812596 39.538659 
L 106.852051 39.769592 
L 106.891657 40.000525 
L 106.9328 40.231457 
L 106.977419 40.46239 
L 107.027755 40.693323 
L 107.086014 40.924256 
L 107.153995 41.155189 
L 107.232751 41.386121 
L 107.322377 41.617054 
L 107.421985 41.847987 
L 107.5299 42.07892 
L 107.644084 42.309853 
L 107.762698 42.540785 
L 107.884708 42.771718 
L 108.010378 43.002651 
L 108.14153 43.233584 
L 108.281473 43.464517 
L 108.434623 43.695449 
L 108.605861 43.926382 
L 108.799803 44.157315 
L 109.020117 44.388248 
L 109.269042 44.619181 
L 109.547174 44.850113 
L 109.853492 45.081046 
L 110.185582 45.311979 
L 110.539921 45.542912 
L 110.912152 45.773845 
L 111.297258 46.004777 
L 111.689657 46.23571 
L 112.08321 46.466643 
L 112.471243 46.697576 
L 112.846638 46.928509 
L 113.202081 47.159441 
L 113.53052 47.390374 
L 113.825843 47.621307 
L 114.083706 47.85224 
L 114.302356 48.083173 
L 114.483261 48.314105 
L 114.63128 48.545038 
L 114.754236 48.775971 
L 114.861791 49.006904 
L 114.963776 49.237837 
L 115.068228 49.468769 
L 115.179543 49.699702 
L 115.297194 49.930635 
L 115.415327 50.161568 
L 115.52344 50.392501 
L 115.60805 50.623433 
L 115.655048 50.854366 
L 115.652241 51.085299 
L 115.59155 51.316232 
L 115.470366 51.547165 
L 115.291825 51.778097 
L 115.063977 52.00903 
L 114.798148 52.239963 
L 114.506895 52.470896 
L 114.202065 52.701829 
L 113.893315 52.932761 
L 113.587303 53.163694 
L 113.287545 53.394627 
L 112.994792 53.62556 
L 112.707721 53.856493 
L 112.42372 54.087425 
L 112.139664 54.318358 
L 111.852583 54.549291 
L 111.560227 54.780224 
L 111.261497 55.011157 
L 110.956716 55.242089 
L 110.647706 55.473022 
L 110.33763 55.703955 
L 110.030594 55.934888 
L 109.731087 56.165821 
L 109.443347 56.396753 
L 109.170814 56.627686 
L 108.915793 56.858619 
L 108.679403 57.089552 
L 108.461806 57.320485 
L 108.26262 57.551417 
L 108.081383 57.78235 
L 107.917902 58.013283 
L 107.772406 58.244216 
L 107.645436 58.475149 
L 107.53754 58.706081 
L 107.44887 58.937014 
L 107.378783 59.167947 
L 107.325588 59.39888 
L 107.286474 59.629813 
L 107.257673 59.860745 
L 107.234795 60.091678 
L 107.213302 60.322611 
L 107.189012 60.553544 
L 107.158564 60.784477 
L 107.119769 61.015409 
L 107.071789 61.246342 
L 107.01515 61.477275 
L 106.951557 61.708208 
z
" clip-path="url(#p11fc61b59c)" style="fill: #1f77b4; fill-opacity: 0.8"/>
   </g>
   <g id="PolyCollection_3">
    <path d="M 145.237745 61.282151 
L 141.411193 61.282151 
L 141.231682 61.061612 
L 141.043167 60.841073 
L 140.846309 60.620534 
L 140.641967 60.399995 
L 140.431204 60.179455 
L 140.215286 59.958916 
L 139.995669 59.738377 
L 139.773982 59.517838 
L 139.552 59.297299 
L 139.331608 59.076759 
L 139.114756 58.85622 
L 138.903411 58.635681 
L 138.6995 58.415142 
L 138.50485 58.194603 
L 138.321132 57.974063 
L 138.1498 57.753524 
L 137.992041 57.532985 
L 137.848724 57.312446 
L 137.720365 57.091907 
L 137.6071 56.871367 
L 137.508673 56.650828 
L 137.424432 56.430289 
L 137.353344 56.20975 
L 137.294027 55.989211 
L 137.244787 55.768671 
L 137.203671 55.548132 
L 137.168531 55.327593 
L 137.137093 55.107054 
L 137.107032 54.886515 
L 137.076045 54.665975 
L 137.041926 54.445436 
L 137.002637 54.224897 
L 136.956368 54.004358 
L 136.901588 53.783819 
L 136.837091 53.563279 
L 136.76202 53.34274 
L 136.675886 53.122201 
L 136.578566 52.901662 
L 136.470299 52.681123 
L 136.35166 52.460583 
L 136.223534 52.240044 
L 136.087075 52.019505 
L 135.943666 51.798966 
L 135.794872 51.578427 
L 135.642398 51.357887 
L 135.488041 51.137348 
L 135.333652 50.916809 
L 135.181097 50.69627 
L 135.032232 50.475731 
L 134.888872 50.255191 
L 134.752774 50.034652 
L 134.625623 49.814113 
L 134.509017 49.593574 
L 134.404465 49.373035 
L 134.313374 49.152495 
L 134.237045 48.931956 
L 134.176671 48.711417 
L 134.133321 48.490878 
L 134.107939 48.270339 
L 134.101329 48.049799 
L 134.114141 47.82926 
L 134.146867 47.608721 
L 134.199817 47.388182 
L 134.27312 47.167643 
L 134.366704 46.947103 
L 134.480296 46.726564 
L 134.613419 46.506025 
L 134.765391 46.285486 
L 134.935336 46.064947 
L 135.122192 45.844407 
L 135.324727 45.623868 
L 135.54156 45.403329 
L 135.771185 45.18279 
L 136.011995 44.962251 
L 136.262311 44.741711 
L 136.52041 44.521172 
L 136.784554 44.300633 
L 137.053017 44.080094 
L 137.32411 43.859555 
L 137.59621 43.639015 
L 137.867775 43.418476 
L 138.137367 43.197937 
L 138.403668 42.977398 
L 138.665488 42.756859 
L 138.921778 42.536319 
L 139.171636 42.31578 
L 139.414303 42.095241 
L 139.64917 41.874702 
L 139.875766 41.654163 
L 140.093756 41.433623 
L 140.302928 41.213084 
L 140.503184 40.992545 
L 140.69452 40.772006 
L 140.877018 40.551467 
L 141.050825 40.330927 
L 141.216142 40.110388 
L 141.3732 39.889849 
L 141.522257 39.66931 
L 141.663576 39.448771 
L 144.985362 39.448771 
L 144.985362 39.448771 
L 145.126681 39.66931 
L 145.275738 39.889849 
L 145.432796 40.110388 
L 145.598113 40.330927 
L 145.77192 40.551467 
L 145.954418 40.772006 
L 146.145754 40.992545 
L 146.34601 41.213084 
L 146.555182 41.433623 
L 146.773172 41.654163 
L 146.999768 41.874702 
L 147.234635 42.095241 
L 147.477302 42.31578 
L 147.72716 42.536319 
L 147.98345 42.756859 
L 148.24527 42.977398 
L 148.511571 43.197937 
L 148.781163 43.418476 
L 149.052728 43.639015 
L 149.324828 43.859555 
L 149.595921 44.080094 
L 149.864384 44.300633 
L 150.128528 44.521172 
L 150.386627 44.741711 
L 150.636943 44.962251 
L 150.877753 45.18279 
L 151.107378 45.403329 
L 151.324211 45.623868 
L 151.526746 45.844407 
L 151.713602 46.064947 
L 151.883547 46.285486 
L 152.035519 46.506025 
L 152.168642 46.726564 
L 152.282234 46.947103 
L 152.375818 47.167643 
L 152.449121 47.388182 
L 152.502071 47.608721 
L 152.534797 47.82926 
L 152.54761 48.049799 
L 152.540999 48.270339 
L 152.515617 48.490878 
L 152.472267 48.711417 
L 152.411893 48.931956 
L 152.335564 49.152495 
L 152.244473 49.373035 
L 152.139921 49.593574 
L 152.023315 49.814113 
L 151.896164 50.034652 
L 151.760066 50.255191 
L 151.616706 50.475731 
L 151.467841 50.69627 
L 151.315286 50.916809 
L 151.160897 51.137348 
L 151.00654 51.357887 
L 150.854066 51.578427 
L 150.705272 51.798966 
L 150.561863 52.019505 
L 150.425404 52.240044 
L 150.297278 52.460583 
L 150.178639 52.681123 
L 150.070372 52.901662 
L 149.973052 53.122201 
L 149.886918 53.34274 
L 149.811847 53.563279 
L 149.74735 53.783819 
L 149.69257 54.004358 
L 149.646301 54.224897 
L 149.607012 54.445436 
L 149.572893 54.665975 
L 149.541906 54.886515 
L 149.511845 55.107054 
L 149.480407 55.327593 
L 149.445267 55.548132 
L 149.404151 55.768671 
L 149.354911 55.989211 
L 149.295594 56.20975 
L 149.224506 56.430289 
L 149.140265 56.650828 
L 149.041838 56.871367 
L 148.928573 57.091907 
L 148.800214 57.312446 
L 148.656897 57.532985 
L 148.499138 57.753524 
L 148.327806 57.974063 
L 148.144088 58.194603 
L 147.949438 58.415142 
L 147.745527 58.635681 
L 147.534182 58.85622 
L 147.31733 59.076759 
L 147.096938 59.297299 
L 146.874956 59.517838 
L 146.653269 59.738377 
L 146.433652 59.958916 
L 146.217734 60.179455 
L 146.006972 60.399995 
L 145.802629 60.620534 
L 145.605771 60.841073 
L 145.417256 61.061612 
L 145.237745 61.282151 
z
" clip-path="url(#p11fc61b59c)" style="fill: #1f77b4; fill-opacity: 0.8"/>
   </g>
   <g id="PolyCollection_4">
    <path d="M 181.357832 57.753118 
L 179.07623 57.753118 
L 179.06836 57.594291 
L 179.063718 57.435464 
L 179.061846 57.276637 
L 179.062171 57.117809 
L 179.06401 56.958982 
L 179.066577 56.800155 
L 179.06899 56.641328 
L 179.07028 56.482501 
L 179.069408 56.323673 
L 179.065278 56.164846 
L 179.056747 56.006019 
L 179.042653 55.847192 
L 179.021822 55.688365 
L 178.993096 55.529537 
L 178.955347 55.37071 
L 178.907499 55.211883 
L 178.848545 55.053056 
L 178.777571 54.894229 
L 178.693768 54.735401 
L 178.59645 54.576574 
L 178.485074 54.417747 
L 178.359247 54.25892 
L 178.218742 54.100093 
L 178.063504 53.941265 
L 177.893657 53.782438 
L 177.709509 53.623611 
L 177.511549 53.464784 
L 177.300447 53.305957 
L 177.077046 53.147129 
L 176.842354 52.988302 
L 176.597531 52.829475 
L 176.343875 52.670648 
L 176.082801 52.511821 
L 175.815824 52.352993 
L 175.544537 52.194166 
L 175.270585 52.035339 
L 174.995642 51.876512 
L 174.721387 51.717685 
L 174.449476 51.558857 
L 174.181523 51.40003 
L 173.919073 51.241203 
L 173.663581 51.082376 
L 173.416395 50.923549 
L 173.178738 50.764721 
L 172.951692 50.605894 
L 172.736191 50.447067 
L 172.533011 50.28824 
L 172.342762 50.129413 
L 172.165891 49.970585 
L 172.002683 49.811758 
L 171.85326 49.652931 
L 171.717594 49.494104 
L 171.595513 49.335277 
L 171.486714 49.176449 
L 171.390773 49.017622 
L 171.307165 48.858795 
L 171.235277 48.699968 
L 171.174427 48.541141 
L 171.123879 48.382313 
L 171.082866 48.223486 
L 171.050605 48.064659 
L 171.026315 47.905832 
L 171.009238 47.747005 
L 170.998652 47.588177 
L 170.99389 47.42935 
L 170.994355 47.270523 
L 170.99953 47.111696 
L 171.008992 46.952869 
L 171.02242 46.794041 
L 171.039604 46.635214 
L 171.060447 46.476387 
L 171.08497 46.31756 
L 171.113308 46.158733 
L 171.145712 45.999905 
L 171.182538 45.841078 
L 171.224238 45.682251 
L 171.271356 45.523424 
L 171.324505 45.364597 
L 171.384358 45.205769 
L 171.451627 45.046942 
L 171.527046 44.888115 
L 171.611348 44.729288 
L 171.705246 44.570461 
L 171.809412 44.411633 
L 171.924454 44.252806 
L 172.050898 44.093979 
L 172.18917 43.935152 
L 172.339575 43.776325 
L 172.502285 43.617497 
L 172.677329 43.45867 
L 172.864578 43.299843 
L 173.063747 43.141016 
L 173.274384 42.982189 
L 173.495881 42.823361 
L 173.727469 42.664534 
L 173.968236 42.505707 
L 174.217132 42.34688 
L 174.472986 42.188053 
L 174.734528 42.029225 
L 185.699534 42.029225 
L 185.699534 42.029225 
L 185.961076 42.188053 
L 186.21693 42.34688 
L 186.465826 42.505707 
L 186.706593 42.664534 
L 186.938181 42.823361 
L 187.159678 42.982189 
L 187.370315 43.141016 
L 187.569484 43.299843 
L 187.756733 43.45867 
L 187.931777 43.617497 
L 188.094487 43.776325 
L 188.244892 43.935152 
L 188.383164 44.093979 
L 188.509608 44.252806 
L 188.62465 44.411633 
L 188.728816 44.570461 
L 188.822714 44.729288 
L 188.907016 44.888115 
L 188.982435 45.046942 
L 189.049704 45.205769 
L 189.109557 45.364597 
L 189.162706 45.523424 
L 189.209824 45.682251 
L 189.251524 45.841078 
L 189.28835 45.999905 
L 189.320753 46.158733 
L 189.349092 46.31756 
L 189.373615 46.476387 
L 189.394458 46.635214 
L 189.411642 46.794041 
L 189.42507 46.952869 
L 189.434532 47.111696 
L 189.439707 47.270523 
L 189.440171 47.42935 
L 189.43541 47.588177 
L 189.424824 47.747005 
L 189.407747 47.905832 
L 189.383457 48.064659 
L 189.351196 48.223486 
L 189.310183 48.382313 
L 189.259635 48.541141 
L 189.198785 48.699968 
L 189.126897 48.858795 
L 189.043289 49.017622 
L 188.947348 49.176449 
L 188.838549 49.335277 
L 188.716468 49.494104 
L 188.580802 49.652931 
L 188.431379 49.811758 
L 188.268171 49.970585 
L 188.0913 50.129413 
L 187.901051 50.28824 
L 187.69787 50.447067 
L 187.48237 50.605894 
L 187.255324 50.764721 
L 187.017667 50.923549 
L 186.770481 51.082376 
L 186.514989 51.241203 
L 186.252539 51.40003 
L 185.984586 51.558857 
L 185.712675 51.717685 
L 185.43842 51.876512 
L 185.163477 52.035339 
L 184.889525 52.194166 
L 184.618238 52.352993 
L 184.351261 52.511821 
L 184.090187 52.670648 
L 183.836531 52.829475 
L 183.591708 52.988302 
L 183.357016 53.147129 
L 183.133615 53.305957 
L 182.922513 53.464784 
L 182.724553 53.623611 
L 182.540405 53.782438 
L 182.370558 53.941265 
L 182.21532 54.100093 
L 182.074815 54.25892 
L 181.948988 54.417747 
L 181.837612 54.576574 
L 181.740294 54.735401 
L 181.656491 54.894229 
L 181.585517 55.053056 
L 181.526563 55.211883 
L 181.478715 55.37071 
L 181.440966 55.529537 
L 181.41224 55.688365 
L 181.391409 55.847192 
L 181.377315 56.006019 
L 181.368784 56.164846 
L 181.364654 56.323673 
L 181.363782 56.482501 
L 181.365072 56.641328 
L 181.367485 56.800155 
L 181.370052 56.958982 
L 181.371891 57.117809 
L 181.372216 57.276637 
L 181.370344 57.435464 
L 181.365702 57.594291 
L 181.357832 57.753118 
z
" clip-path="url(#p11fc61b59c)" style="fill: #1f77b4; fill-opacity: 0.8"/>
   </g>
   <g id="PolyCollection_5">
    <path d="M 217.175864 71.467311 
L 217.043322 71.467311 
L 217.045033 70.82713 
L 217.05102 70.186949 
L 217.058609 69.546769 
L 217.064859 68.906588 
L 217.067652 68.266407 
L 217.066202 67.626226 
L 217.060817 66.986045 
L 217.052169 66.345865 
L 217.040583 65.705684 
L 217.025707 65.065503 
L 217.006628 64.425322 
L 216.982243 63.785141 
L 216.951628 63.144961 
L 216.914218 62.50478 
L 216.869732 61.864599 
L 216.817821 61.224418 
L 216.757627 60.584237 
L 216.687587 59.944057 
L 216.605803 59.303876 
L 216.510792 58.663695 
L 216.401852 58.023514 
L 216.278288 57.383333 
L 216.137625 56.743153 
L 215.974143 56.102972 
L 215.779452 55.462791 
L 215.545589 54.82261 
L 215.26905 54.182429 
L 214.952908 53.542249 
L 214.605115 52.902068 
L 214.233793 52.261887 
L 213.842712 51.621706 
L 213.430135 50.981525 
L 212.991656 50.341345 
L 212.524702 49.701164 
L 212.031575 49.060983 
L 211.519723 48.420802 
L 211.000443 47.780621 
L 210.487999 47.140441 
L 209.999548 46.50026 
L 209.55409 45.860079 
L 209.168487 45.219898 
L 208.851293 44.579717 
L 208.598399 43.939537 
L 208.394899 43.299356 
L 208.223731 42.659175 
L 208.076329 42.018994 
L 207.958543 41.378813 
L 207.888222 40.738633 
L 207.886452 40.098452 
L 207.967635 39.458271 
L 208.132749 38.81809 
L 208.367434 38.177909 
L 208.644941 37.537729 
L 208.933723 36.897548 
L 209.208309 36.257367 
L 209.459496 35.617186 
L 209.698102 34.977005 
L 209.94877 34.336825 
L 210.236317 33.696644 
L 210.572394 33.056463 
L 210.95036 32.416282 
L 211.350637 31.776101 
L 211.751965 31.135921 
L 212.140909 30.49574 
L 212.514549 29.855559 
L 212.876627 29.215378 
L 213.231437 28.575197 
L 213.57985 27.935017 
L 213.91912 27.294836 
L 214.245157 26.654655 
L 214.554886 26.014474 
L 214.847216 25.374293 
L 215.122584 24.734113 
L 215.381774 24.093932 
L 215.624706 23.453751 
L 215.849685 22.81357 
L 216.05351 22.173389 
L 216.232566 21.533209 
L 216.384449 20.893028 
L 216.509185 20.252847 
L 216.609321 19.612666 
L 216.688916 18.972485 
L 216.752201 18.332305 
L 216.802681 17.692124 
L 216.842885 17.051943 
L 216.874493 16.411762 
L 216.898495 15.771581 
L 216.915387 15.131401 
L 216.925617 14.49122 
L 216.930272 13.851039 
L 216.931657 13.210858 
L 216.93318 12.570677 
L 216.938376 11.930497 
L 216.949491 11.290316 
L 216.966543 10.650135 
L 216.987483 10.009954 
L 217.009364 9.369773 
L 217.029731 8.729593 
L 217.047378 8.089412 
L 217.171807 8.089412 
L 217.171807 8.089412 
L 217.189455 8.729593 
L 217.209822 9.369773 
L 217.231703 10.009954 
L 217.252643 10.650135 
L 217.269695 11.290316 
L 217.28081 11.930497 
L 217.286006 12.570677 
L 217.287529 13.210858 
L 217.288914 13.851039 
L 217.293569 14.49122 
L 217.303798 15.131401 
L 217.320691 15.771581 
L 217.344693 16.411762 
L 217.376301 17.051943 
L 217.416505 17.692124 
L 217.466985 18.332305 
L 217.53027 18.972485 
L 217.609865 19.612666 
L 217.71 20.252847 
L 217.834737 20.893028 
L 217.98662 21.533209 
L 218.165676 22.173389 
L 218.369501 22.81357 
L 218.59448 23.453751 
L 218.837412 24.093932 
L 219.096602 24.734113 
L 219.37197 25.374293 
L 219.6643 26.014474 
L 219.974029 26.654655 
L 220.300066 27.294836 
L 220.639336 27.935017 
L 220.987749 28.575197 
L 221.342559 29.215378 
L 221.704637 29.855559 
L 222.078277 30.49574 
L 222.467221 31.135921 
L 222.868548 31.776101 
L 223.268826 32.416282 
L 223.646792 33.056463 
L 223.982869 33.696644 
L 224.270416 34.336825 
L 224.521084 34.977005 
L 224.75969 35.617186 
L 225.010877 36.257367 
L 225.285463 36.897548 
L 225.574245 37.537729 
L 225.851752 38.177909 
L 226.086437 38.81809 
L 226.251551 39.458271 
L 226.332733 40.098452 
L 226.330964 40.738633 
L 226.260643 41.378813 
L 226.142857 42.018994 
L 225.995455 42.659175 
L 225.824287 43.299356 
L 225.620787 43.939537 
L 225.367893 44.579717 
L 225.050699 45.219898 
L 224.665096 45.860079 
L 224.219638 46.50026 
L 223.731187 47.140441 
L 223.218743 47.780621 
L 222.699463 48.420802 
L 222.187611 49.060983 
L 221.694484 49.701164 
L 221.22753 50.341345 
L 220.789051 50.981525 
L 220.376474 51.621706 
L 219.985393 52.261887 
L 219.614071 52.902068 
L 219.266278 53.542249 
L 218.950136 54.182429 
L 218.673597 54.82261 
L 218.439734 55.462791 
L 218.245043 56.102972 
L 218.081561 56.743153 
L 217.940898 57.383333 
L 217.817334 58.023514 
L 217.708394 58.663695 
L 217.613382 59.303876 
L 217.531599 59.944057 
L 217.461559 60.584237 
L 217.401365 61.224418 
L 217.349454 61.864599 
L 217.304968 62.50478 
L 217.267558 63.144961 
L 217.236943 63.785141 
L 217.212558 64.425322 
L 217.193479 65.065503 
L 217.178603 65.705684 
L 217.167017 66.345865 
L 217.158369 66.986045 
L 217.152984 67.626226 
L 217.151534 68.266407 
L 217.154327 68.906588 
L 217.160577 69.546769 
L 217.168166 70.186949 
L 217.174152 70.82713 
L 217.175864 71.467311 
z
" clip-path="url(#p11fc61b59c)" style="fill: #d62728; fill-opacity: 0.8"/>
   </g>
   <g id="PolyCollection_6">
    <path d="M 254.081422 71.467311 
L 253.922888 71.467311 
L 253.918759 70.853601 
L 253.916325 70.239892 
L 253.909796 69.626182 
L 253.893298 69.012473 
L 253.863233 68.398763 
L 253.819605 67.785053 
L 253.76597 67.171344 
L 253.708051 66.557634 
L 253.651423 65.943925 
L 253.599154 65.330215 
L 253.550683 64.716505 
L 253.502653 64.102796 
L 253.450965 63.489086 
L 253.392225 62.875377 
L 253.323348 62.261667 
L 253.240145 61.647957 
L 253.137035 61.034248 
L 253.008868 60.420538 
L 252.853223 59.806829 
L 252.670519 59.193119 
L 252.461524 58.579409 
L 252.225324 57.9657 
L 251.961244 57.35199 
L 251.673833 56.738281 
L 251.375091 56.124571 
L 251.078761 55.510861 
L 250.788584 54.897152 
L 250.489426 54.283442 
L 250.149815 53.669733 
L 249.736674 53.056023 
L 249.234347 52.442313 
L 248.656676 51.828604 
L 248.044485 51.214894 
L 247.44885 50.601185 
L 246.909361 49.987475 
L 246.440733 49.373765 
L 246.036096 48.760056 
L 245.682808 48.146346 
L 245.377136 47.532637 
L 245.126812 46.918927 
L 244.942465 46.305217 
L 244.82807 45.691508 
L 244.779014 45.077798 
L 244.787899 44.464089 
L 244.851886 43.850379 
L 244.975396 43.236669 
L 245.166566 42.62296 
L 245.430604 42.00925 
L 245.764894 41.395541 
L 246.15886 40.781831 
L 246.598343 40.168121 
L 247.071619 39.554412 
L 247.572906 38.940702 
L 248.099873 38.326993 
L 248.64557 37.713283 
L 249.191042 37.099573 
L 249.706642 36.485864 
L 250.163804 35.872154 
L 250.549653 35.258445 
L 250.873626 34.644735 
L 251.161362 34.031025 
L 251.440334 33.417316 
L 251.726277 32.803606 
L 252.017402 32.189897 
L 252.297877 31.576187 
L 252.547232 30.962477 
L 252.750371 30.348768 
L 252.903787 29.735058 
L 253.016261 29.121349 
L 253.104874 28.507639 
L 253.188572 27.893929 
L 253.281642 27.28022 
L 253.389102 26.66651 
L 253.505654 26.052801 
L 253.618961 25.439091 
L 253.71597 24.825381 
L 253.788973 24.211672 
L 253.838053 23.597962 
L 253.86906 22.984253 
L 253.889286 22.370543 
L 253.904044 21.756833 
L 253.915897 21.143124 
L 253.925836 20.529414 
L 253.934547 19.915705 
L 253.942654 19.301995 
L 253.950322 18.688285 
L 253.957186 18.074576 
L 253.962906 17.460866 
L 253.967733 16.847157 
L 253.972413 16.233447 
L 253.977511 15.619737 
L 253.982808 15.006028 
L 253.987312 14.392318 
L 253.989836 13.778609 
L 253.989681 13.164899 
L 253.987082 12.551189 
L 253.983237 11.93748 
L 253.979894 11.32377 
L 253.978636 10.710061 
L 254.025674 10.710061 
L 254.025674 10.710061 
L 254.024416 11.32377 
L 254.021073 11.93748 
L 254.017227 12.551189 
L 254.014629 13.164899 
L 254.014474 13.778609 
L 254.016998 14.392318 
L 254.021502 15.006028 
L 254.026799 15.619737 
L 254.031897 16.233447 
L 254.036577 16.847157 
L 254.041404 17.460866 
L 254.047124 18.074576 
L 254.053988 18.688285 
L 254.061655 19.301995 
L 254.069762 19.915705 
L 254.078474 20.529414 
L 254.088413 21.143124 
L 254.100266 21.756833 
L 254.115024 22.370543 
L 254.13525 22.984253 
L 254.166257 23.597962 
L 254.215337 24.211672 
L 254.288339 24.825381 
L 254.385349 25.439091 
L 254.498656 26.052801 
L 254.615208 26.66651 
L 254.722668 27.28022 
L 254.815738 27.893929 
L 254.899436 28.507639 
L 254.988049 29.121349 
L 255.100523 29.735058 
L 255.253939 30.348768 
L 255.457077 30.962477 
L 255.706433 31.576187 
L 255.986908 32.189897 
L 256.278033 32.803606 
L 256.563976 33.417316 
L 256.842948 34.031025 
L 257.130684 34.644735 
L 257.454657 35.258445 
L 257.840506 35.872154 
L 258.297668 36.485864 
L 258.813268 37.099573 
L 259.35874 37.713283 
L 259.904437 38.326993 
L 260.431404 38.940702 
L 260.932691 39.554412 
L 261.405967 40.168121 
L 261.84545 40.781831 
L 262.239416 41.395541 
L 262.573706 42.00925 
L 262.837744 42.62296 
L 263.028914 43.236669 
L 263.152424 43.850379 
L 263.216411 44.464089 
L 263.225295 45.077798 
L 263.17624 45.691508 
L 263.061845 46.305217 
L 262.877497 46.918927 
L 262.627174 47.532637 
L 262.321502 48.146346 
L 261.968214 48.760056 
L 261.563577 49.373765 
L 261.094949 49.987475 
L 260.555459 50.601185 
L 259.959825 51.214894 
L 259.347634 51.828604 
L 258.769963 52.442313 
L 258.267636 53.056023 
L 257.854495 53.669733 
L 257.514883 54.283442 
L 257.215725 54.897152 
L 256.925549 55.510861 
L 256.629219 56.124571 
L 256.330477 56.738281 
L 256.043066 57.35199 
L 255.778986 57.9657 
L 255.542786 58.579409 
L 255.333791 59.193119 
L 255.151087 59.806829 
L 254.995442 60.420538 
L 254.867275 61.034248 
L 254.764165 61.647957 
L 254.680962 62.261667 
L 254.612085 62.875377 
L 254.553345 63.489086 
L 254.501657 64.102796 
L 254.453626 64.716505 
L 254.405156 65.330215 
L 254.352887 65.943925 
L 254.296259 66.557634 
L 254.23834 67.171344 
L 254.184705 67.785053 
L 254.141077 68.398763 
L 254.111012 69.012473 
L 254.094514 69.626182 
L 254.087985 70.239892 
L 254.085551 70.853601 
L 254.081422 71.467311 
z
" clip-path="url(#p11fc61b59c)" style="fill: #d62728; fill-opacity: 0.8"/>
   </g>
   <g id="matplotlib.axis_1">
    <g id="xtick_1">
     <g id="line2d_1">
      <defs>
       <path id="m198333b902" d="M 0 0 
L 0 3.5 
"/>
      </defs>
      <g>
       <use xlink:href="#m198333b902" x="124.878188" y="65.679375"/>
      </g>
     </g>
     <g id="text_1">
      <text style="font: 8px 'DejaVu Sans', 'Bitstream Vera Sans', 'Computer Modern Sans Serif', 'Lucida Grande', 'Verdana', 'Geneva', 'Lucid', 'Arial', 'Helvetica', 'Avant Garde', sans-serif; text-anchor: middle" x="124.878188" y="78.758125" transform="rotate(-0 124.878188 78.758125)">ApPak1</text>
     </g>
    </g>
    <g id="xtick_2">
     <g id="line2d_2">
      <g>
       <use xlink:href="#m198333b902" x="217.109593" y="65.679375"/>
      </g>
     </g>
     <g id="text_2">
      <text style="font: 8px 'DejaVu Sans', 'Bitstream Vera Sans', 'Computer Modern Sans Serif', 'Lucida Grande', 'Verdana', 'Geneva', 'Lucid', 'Arial', 'Helvetica', 'Avant Garde', sans-serif; text-anchor: middle" x="217.109593" y="78.758125" transform="rotate(-0 217.109593 78.758125)">ScSte20</text>
     </g>
    </g>
    <g id="xtick_3">
     <g id="line2d_3">
      <g>
       <use xlink:href="#m198333b902" x="254.002155" y="65.679375"/>
      </g>
     </g>
     <g id="text_3">
      <text style="font: 8px 'DejaVu Sans', 'Bitstream Vera Sans', 'Computer Modern Sans Serif', 'Lucida Grande', 'Verdana', 'Geneva', 'Lucid', 'Arial', 'Helvetica', 'Avant Garde', sans-serif; text-anchor: middle" x="254.002155" y="78.758125" transform="rotate(-0 254.002155 78.758125)">ScCla4</text>
     </g>
    </g>
   </g>
   <g id="matplotlib.axis_2">
    <g id="ytick_1">
     <g id="line2d_4">
      <defs>
       <path id="m346e60a9b7" d="M 0 0 
L -3.5 0 
"/>
      </defs>
      <g>
       <use xlink:href="#m346e60a9b7" x="50.17075" y="65.679375"/>
      </g>
     </g>
     <g id="text_4">
      <text style="font: 8px 'DejaVu Sans', 'Bitstream Vera Sans', 'Computer Modern Sans Serif', 'Lucida Grande', 'Verdana', 'Geneva', 'Lucid', 'Arial', 'Helvetica', 'Avant Garde', sans-serif; text-anchor: end" x="43.17075" y="68.71875" transform="rotate(-0 43.17075 68.71875)">0</text>
     </g>
    </g>
    <g id="ytick_2">
     <g id="line2d_5">
      <g>
       <use xlink:href="#m346e60a9b7" x="50.17075" y="37.959375"/>
      </g>
     </g>
     <g id="text_5">
      <text style="font: 8px 'DejaVu Sans', 'Bitstream Vera Sans', 'Computer Modern Sans Serif', 'Lucida Grande', 'Verdana', 'Geneva', 'Lucid', 'Arial', 'Helvetica', 'Avant Garde', sans-serif; text-anchor: end" x="43.17075" y="40.99875" transform="rotate(-0 43.17075 40.99875)">100</text>
     </g>
    </g>
    <g id="ytick_3">
     <g id="line2d_6">
      <g>
       <use xlink:href="#m346e60a9b7" x="50.17075" y="10.239375"/>
      </g>
     </g>
     <g id="text_6">
      <text style="font: 8px 'DejaVu Sans', 'Bitstream Vera Sans', 'Computer Modern Sans Serif', 'Lucida Grande', 'Verdana', 'Geneva', 'Lucid', 'Arial', 'Helvetica', 'Avant Garde', sans-serif; text-anchor: end" x="43.17075" y="13.27875" transform="rotate(-0 43.17075 13.27875)">200</text>
     </g>
    </g>
    <g id="text_7">
     <text style="font: 8px 'DejaVu Sans', 'Bitstream Vera Sans', 'Computer Modern Sans Serif', 'Lucida Grande', 'Verdana', 'Geneva', 'Lucid', 'Arial', 'Helvetica', 'Avant Garde', sans-serif" transform="translate(13.27875 46.746875) rotate(-90)">PAK </text>
     <text style="font: 8px 'DejaVu Sans', 'Bitstream Vera Sans', 'Computer Modern Sans Serif', 'Lucida Grande', 'Verdana', 'Geneva', 'Lucid', 'Arial', 'Helvetica', 'Avant Garde', sans-serif" transform="translate(22.237 76.635) rotate(-90)">Concentration (nM)</text>
    </g>
   </g>
   <g id="LineCollection_1">
    <path d="M 64.927775 50.920168 
L 74.150915 50.920168 
" clip-path="url(#p11fc61b59c)" style="fill: none; stroke: #000000; stroke-opacity: 0.8; stroke-width: 1.5"/>
    <path d="M 101.820337 50.547645 
L 111.043477 50.547645 
" clip-path="url(#p11fc61b59c)" style="fill: none; stroke: #000000; stroke-opacity: 0.8; stroke-width: 1.5"/>
    <path d="M 138.712899 50.238213 
L 147.936039 50.238213 
" clip-path="url(#p11fc61b59c)" style="fill: none; stroke: #000000; stroke-opacity: 0.8; stroke-width: 1.5"/>
    <path d="M 175.605461 47.498447 
L 184.828601 47.498447 
" clip-path="url(#p11fc61b59c)" style="fill: none; stroke: #000000; stroke-opacity: 0.8; stroke-width: 1.5"/>
    <path d="M 212.498023 39.575184 
L 221.721163 39.575184 
" clip-path="url(#p11fc61b59c)" style="fill: none; stroke: #000000; stroke-opacity: 0.8; stroke-width: 1.5"/>
    <path d="M 249.390585 44.892162 
L 258.613725 44.892162 
" clip-path="url(#p11fc61b59c)" style="fill: none; stroke: #000000; stroke-opacity: 0.8; stroke-width: 1.5"/>
   </g>
   <g id="patch_3">
    <path d="M 50.17075 65.679375 
L 50.17075 10.239375 
" style="fill: none; stroke: #000000; stroke-width: 0.8; stroke-linejoin: miter; stroke-linecap: square"/>
   </g>
   <g id="patch_4">
    <path d="M 50.17075 65.679375 
L 273.37075 65.679375 
" style="fill: none; stroke: #000000; stroke-width: 0.8; stroke-linejoin: miter; stroke-linecap: square"/>
   </g>
  </g>
 </g>
 <defs>
  <clipPath id="p11fc61b59c">
   <rect x="50.17075" y="10.239375" width="223.2" height="55.44"/>
  </clipPath>
 </defs>
</svg>
