<?xml version="1.0" encoding="utf-8" standalone="no"?>
<!DOCTYPE svg PUBLIC "-//W3C//DTD SVG 1.1//EN"
  "http://www.w3.org/Graphics/SVG/1.1/DTD/svg11.dtd">
<svg xmlns:xlink="http://www.w3.org/1999/xlink" width="447.97075pt" height="87.621875pt" viewBox="0 0 447.97075 87.621875" xmlns="http://www.w3.org/2000/svg" version="1.1">
 <metadata>
  <rdf:RDF xmlns:dc="http://purl.org/dc/elements/1.1/" xmlns:cc="http://creativecommons.org/ns#" xmlns:rdf="http://www.w3.org/1999/02/22-rdf-syntax-ns#">
   <cc:Work>
    <dc:type rdf:resource="http://purl.org/dc/dcmitype/StillImage"/>
    <dc:date>2024-11-08T15:06:18.773178</dc:date>
    <dc:format>image/svg+xml</dc:format>
    <dc:creator>
     <cc:Agent>
      <dc:title>Matplotlib v3.7.1, https://matplotlib.org/</dc:title>
     </cc:Agent>
    </dc:creator>
   </cc:Work>
  </rdf:RDF>
 </metadata>
 <defs>
  <style type="text/css">*{stroke-linejoin: round; stroke-linecap: butt}</style>
 </defs>
 <g id="figure_1">
  <g id="patch_1">
   <path d="M 0 87.621875 
L 447.97075 87.621875 
L 447.97075 0 
L 0 0 
L 0 87.621875 
z
" style="fill: none"/>
  </g>
  <g id="axes_1">
   <g id="patch_2">
    <path d="M 50.17075 65.679375 
L 440.77075 65.679375 
L 440.77075 10.239375 
L 50.17075 10.239375 
L 50.17075 65.679375 
z
" style="fill: none"/>
   </g>
   <g id="PolyCollection_1">
    <path d="M 85.520217 66.521509 
L 82.611366 66.521509 
L 82.465547 66.139818 
L 82.308923 65.758128 
L 82.140793 65.376437 
L 81.960543 64.994747 
L 81.767711 64.613057 
L 81.562062 64.231366 
L 81.343647 63.849676 
L 81.112868 63.467985 
L 80.870524 63.086295 
L 80.617837 62.704605 
L 80.356452 62.322914 
L 80.08842 61.941224 
L 79.81614 61.559533 
L 79.542279 61.177843 
L 79.269669 60.796153 
L 79.001177 60.414462 
L 78.739571 60.032772 
L 78.487374 59.651081 
L 78.246727 59.269391 
L 78.019273 58.887701 
L 77.806057 58.50601 
L 77.60747 58.12432 
L 77.423218 57.742629 
L 77.252348 57.360939 
L 77.093303 56.979249 
L 76.944016 56.597558 
L 76.802033 56.215868 
L 76.66466 55.834177 
L 76.529108 55.452487 
L 76.392647 55.070797 
L 76.252735 54.689106 
L 76.107133 54.307416 
L 75.953978 53.925725 
L 75.791835 53.544035 
L 75.619708 53.162345 
L 75.43702 52.780654 
L 75.243569 52.398964 
L 75.03947 52.017273 
L 74.825089 51.635583 
L 74.600973 51.253893 
L 74.367798 50.872202 
L 74.126322 50.490512 
L 73.877369 50.108821 
L 73.621817 49.727131 
L 73.360615 49.345441 
L 73.094802 48.96375 
L 72.825535 48.58206 
L 72.554107 48.200369 
L 72.281962 47.818679 
L 72.010683 47.436989 
L 71.741965 47.055298 
L 71.477562 46.673608 
L 71.219211 46.291917 
L 70.968543 45.910227 
L 70.726984 45.528537 
L 70.495659 45.146846 
L 70.275308 44.765156 
L 70.066232 44.383465 
L 69.868266 44.001775 
L 69.680805 43.620085 
L 69.50287 43.238394 
L 69.333225 42.856704 
L 69.170532 42.475013 
L 69.013549 42.093323 
L 68.861339 41.711633 
L 68.713482 41.329942 
L 68.570283 40.948252 
L 68.432932 40.566561 
L 68.303626 40.184871 
L 68.18562 39.803181 
L 68.083204 39.42149 
L 68.001603 39.0398 
L 67.946802 38.658109 
L 67.925295 38.276419 
L 67.943789 37.894729 
L 68.008858 37.513038 
L 68.126589 37.131348 
L 68.302234 36.749657 
L 68.539881 36.367967 
L 68.842192 35.986277 
L 69.210193 35.604586 
L 69.643151 35.222896 
L 70.138538 34.841205 
L 70.692088 34.459515 
L 71.297928 34.077825 
L 71.948801 33.696134 
L 72.636331 33.314444 
L 73.35135 32.932753 
L 74.084236 32.551063 
L 74.825264 32.169373 
L 75.564937 31.787682 
L 76.294292 31.405992 
L 77.00516 31.024301 
L 77.690365 30.642611 
L 78.343876 30.260921 
L 78.960881 29.87923 
L 79.537818 29.49754 
L 80.072339 29.115849 
L 80.563232 28.734159 
L 87.568351 28.734159 
L 87.568351 28.734159 
L 88.059244 29.115849 
L 88.593764 29.49754 
L 89.170701 29.87923 
L 89.787707 30.260921 
L 90.441217 30.642611 
L 91.126423 31.024301 
L 91.83729 31.405992 
L 92.566646 31.787682 
L 93.306319 32.169373 
L 94.047346 32.551063 
L 94.780232 32.932753 
L 95.495252 33.314444 
L 96.182782 33.696134 
L 96.833654 34.077825 
L 97.439495 34.459515 
L 97.993044 34.841205 
L 98.488432 35.222896 
L 98.921389 35.604586 
L 99.28939 35.986277 
L 99.591702 36.367967 
L 99.829349 36.749657 
L 100.004993 37.131348 
L 100.122725 37.513038 
L 100.187793 37.894729 
L 100.206287 38.276419 
L 100.184781 38.658109 
L 100.129979 39.0398 
L 100.048378 39.42149 
L 99.945962 39.803181 
L 99.827956 40.184871 
L 99.698651 40.566561 
L 99.5613 40.948252 
L 99.418101 41.329942 
L 99.270244 41.711633 
L 99.118033 42.093323 
L 98.961051 42.475013 
L 98.798358 42.856704 
L 98.628712 43.238394 
L 98.450777 43.620085 
L 98.263317 44.001775 
L 98.065351 44.383465 
L 97.856274 44.765156 
L 97.635923 45.146846 
L 97.404598 45.528537 
L 97.163039 45.910227 
L 96.912371 46.291917 
L 96.654021 46.673608 
L 96.389618 47.055298 
L 96.1209 47.436989 
L 95.849621 47.818679 
L 95.577476 48.200369 
L 95.306048 48.58206 
L 95.03678 48.96375 
L 94.770968 49.345441 
L 94.509766 49.727131 
L 94.254214 50.108821 
L 94.00526 50.490512 
L 93.763785 50.872202 
L 93.530609 51.253893 
L 93.306494 51.635583 
L 93.092113 52.017273 
L 92.888014 52.398964 
L 92.694563 52.780654 
L 92.511874 53.162345 
L 92.339747 53.544035 
L 92.177605 53.925725 
L 92.02445 54.307416 
L 91.878847 54.689106 
L 91.738936 55.070797 
L 91.602475 55.452487 
L 91.466923 55.834177 
L 91.329549 56.215868 
L 91.187567 56.597558 
L 91.038279 56.979249 
L 90.879234 57.360939 
L 90.708365 57.742629 
L 90.524113 58.12432 
L 90.325525 58.50601 
L 90.11231 58.887701 
L 89.884856 59.269391 
L 89.644209 59.651081 
L 89.392011 60.032772 
L 89.130406 60.414462 
L 88.861914 60.796153 
L 88.589304 61.177843 
L 88.315443 61.559533 
L 88.043162 61.941224 
L 87.77513 62.322914 
L 87.513746 62.704605 
L 87.261058 63.086295 
L 87.018715 63.467985 
L 86.787936 63.849676 
L 86.569521 64.231366 
L 86.363871 64.613057 
L 86.17104 64.994747 
L 85.990789 65.376437 
L 85.822659 65.758128 
L 85.666036 66.139818 
L 85.520217 66.521509 
z
" clip-path="url(#p67a5d00124)" style="fill: #1f77b4; fill-opacity: 0.8"/>
   </g>
   <g id="PolyCollection_2">
    <path d="M 149.994047 68.667591 
L 147.261503 68.667591 
L 147.112602 68.234313 
L 146.958354 67.801036 
L 146.798742 67.367758 
L 146.633238 66.934481 
L 146.460682 66.501203 
L 146.279193 66.067925 
L 146.086105 65.634648 
L 145.877964 65.20137 
L 145.650559 64.768093 
L 145.399035 64.334815 
L 145.118053 63.901537 
L 144.802035 63.46826 
L 144.445455 63.034982 
L 144.043195 62.601705 
L 143.590934 62.168427 
L 143.085565 61.735149 
L 142.525602 61.301872 
L 141.911566 60.868594 
L 141.246289 60.435317 
L 140.535137 60.002039 
L 139.786089 59.568761 
L 139.009651 59.135484 
L 138.218602 58.702206 
L 137.427536 58.268929 
L 136.652243 57.835651 
L 135.90893 57.402373 
L 135.213352 56.969096 
L 134.579907 56.535818 
L 134.020773 56.102541 
L 133.545163 55.669263 
L 133.158773 55.235985 
L 132.863478 54.802708 
L 132.657317 54.36943 
L 132.534766 53.936153 
L 132.487279 53.502875 
L 132.504057 53.069597 
L 132.572954 52.63632 
L 132.681452 52.203042 
L 132.817594 51.769765 
L 132.970806 51.336487 
L 133.132527 50.903209 
L 133.296597 50.469932 
L 133.459388 50.036654 
L 133.619676 49.603377 
L 133.778287 49.170099 
L 133.93757 48.736821 
L 134.100761 48.303544 
L 134.271308 47.870266 
L 134.452231 47.436989 
L 134.645577 47.003711 
L 134.852025 46.570433 
L 135.070664 46.137156 
L 135.298965 45.703878 
L 135.532936 45.270601 
L 135.767441 44.837323 
L 135.996642 44.404045 
L 136.214518 43.970768 
L 136.415406 43.53749 
L 136.59452 43.104213 
L 136.748387 42.670935 
L 136.875171 42.237657 
L 136.974858 41.80438 
L 137.049283 41.371102 
L 137.102015 40.937825 
L 137.138107 40.504547 
L 137.163746 40.071269 
L 137.185842 39.637992 
L 137.2116 39.204714 
L 137.248109 38.771437 
L 137.301989 38.338159 
L 137.379111 37.904881 
L 137.484419 37.471604 
L 137.621831 37.038326 
L 137.794223 36.605049 
L 138.003469 36.171771 
L 138.250515 35.738493 
L 138.535456 35.305216 
L 138.85761 34.871938 
L 139.21556 34.438661 
L 139.607179 34.005383 
L 140.029635 33.572105 
L 140.47938 33.138828 
L 140.952165 32.70555 
L 141.443073 32.272273 
L 141.946597 31.838995 
L 142.456769 31.405717 
L 142.967337 30.97244 
L 143.471986 30.539162 
L 143.964579 30.105885 
L 144.439407 29.672607 
L 144.891428 29.239329 
L 145.316457 28.806052 
L 145.711308 28.372774 
L 146.073875 27.939497 
L 146.403127 27.506219 
L 146.699054 27.072941 
L 146.962545 26.639664 
L 147.195224 26.206386 
L 147.399264 25.773109 
L 149.856285 25.773109 
L 149.856285 25.773109 
L 150.060325 26.206386 
L 150.293004 26.639664 
L 150.556495 27.072941 
L 150.852423 27.506219 
L 151.181675 27.939497 
L 151.544241 28.372774 
L 151.939093 28.806052 
L 152.364121 29.239329 
L 152.816142 29.672607 
L 153.290971 30.105885 
L 153.783563 30.539162 
L 154.288212 30.97244 
L 154.798781 31.405717 
L 155.308953 31.838995 
L 155.812477 32.272273 
L 156.303384 32.70555 
L 156.77617 33.138828 
L 157.225915 33.572105 
L 157.64837 34.005383 
L 158.03999 34.438661 
L 158.39794 34.871938 
L 158.720093 35.305216 
L 159.005034 35.738493 
L 159.25208 36.171771 
L 159.461327 36.605049 
L 159.633719 37.038326 
L 159.771131 37.471604 
L 159.876439 37.904881 
L 159.953561 38.338159 
L 160.00744 38.771437 
L 160.04395 39.204714 
L 160.069708 39.637992 
L 160.091804 40.071269 
L 160.117442 40.504547 
L 160.153534 40.937825 
L 160.206267 41.371102 
L 160.280692 41.80438 
L 160.380378 42.237657 
L 160.507163 42.670935 
L 160.661029 43.104213 
L 160.840144 43.53749 
L 161.041032 43.970768 
L 161.258907 44.404045 
L 161.488108 44.837323 
L 161.722614 45.270601 
L 161.956584 45.703878 
L 162.184885 46.137156 
L 162.403525 46.570433 
L 162.609973 47.003711 
L 162.803319 47.436989 
L 162.984241 47.870266 
L 163.154788 48.303544 
L 163.31798 48.736821 
L 163.477263 49.170099 
L 163.635874 49.603377 
L 163.796162 50.036654 
L 163.958953 50.469932 
L 164.123023 50.903209 
L 164.284744 51.336487 
L 164.437956 51.769765 
L 164.574098 52.203042 
L 164.682595 52.63632 
L 164.751493 53.069597 
L 164.768271 53.502875 
L 164.720784 53.936153 
L 164.598232 54.36943 
L 164.392072 54.802708 
L 164.096777 55.235985 
L 163.710387 55.669263 
L 163.234777 56.102541 
L 162.675643 56.535818 
L 162.042198 56.969096 
L 161.34662 57.402373 
L 160.603306 57.835651 
L 159.828013 58.268929 
L 159.036948 58.702206 
L 158.245898 59.135484 
L 157.469461 59.568761 
L 156.720412 60.002039 
L 156.009261 60.435317 
L 155.343984 60.868594 
L 154.729947 61.301872 
L 154.169985 61.735149 
L 153.664616 62.168427 
L 153.212355 62.601705 
L 152.810094 63.034982 
L 152.453515 63.46826 
L 152.137497 63.901537 
L 151.856515 64.334815 
L 151.60499 64.768093 
L 151.377586 65.20137 
L 151.169444 65.634648 
L 150.976357 66.067925 
L 150.794867 66.501203 
L 150.622311 66.934481 
L 150.456807 67.367758 
L 150.297196 67.801036 
L 150.142947 68.234313 
L 149.994047 68.667591 
z
" clip-path="url(#p67a5d00124)" style="fill: #1f77b4; fill-opacity: 0.8"/>
   </g>
   <g id="PolyCollection_3">
    <path d="M 216.542812 68.667591 
L 209.836704 68.667591 
L 209.751029 68.244192 
L 209.67143 67.820793 
L 209.596106 67.397393 
L 209.522873 66.973994 
L 209.449209 66.550595 
L 209.372316 66.127196 
L 209.289194 65.703797 
L 209.196719 65.280397 
L 209.091729 64.856998 
L 208.971113 64.433599 
L 208.831897 64.0102 
L 208.671331 63.586801 
L 208.486968 63.163401 
L 208.27674 62.740002 
L 208.03902 62.316603 
L 207.772682 61.893204 
L 207.477143 61.469805 
L 207.152399 61.046405 
L 206.799049 60.623006 
L 206.418303 60.199607 
L 206.011978 59.776208 
L 205.58249 59.352809 
L 205.132816 58.929409 
L 204.66646 58.50601 
L 204.187395 58.082611 
L 203.699992 57.659212 
L 203.208943 57.235813 
L 202.71916 56.812413 
L 202.235679 56.389014 
L 201.763537 55.965615 
L 201.307655 55.542216 
L 200.872716 55.118817 
L 200.463031 54.695417 
L 200.082428 54.272018 
L 199.734131 53.848619 
L 199.420663 53.42522 
L 199.14376 53.001821 
L 198.904311 52.578421 
L 198.702319 52.155022 
L 198.536891 51.731623 
L 198.406259 51.308224 
L 198.307831 50.884825 
L 198.238268 50.461425 
L 198.193601 50.038026 
L 198.169356 49.614627 
L 198.160717 49.191228 
L 198.162692 48.767829 
L 198.170295 48.344429 
L 198.178729 47.92103 
L 198.183559 47.497631 
L 198.180878 47.074232 
L 198.167456 46.650833 
L 198.140856 46.227433 
L 198.099523 45.804034 
L 198.042846 45.380635 
L 197.971171 44.957236 
L 197.88579 44.533837 
L 197.788884 44.110437 
L 197.683441 43.687038 
L 197.57314 43.263639 
L 197.462213 42.84024 
L 197.355287 42.416841 
L 197.257221 41.993441 
L 197.172928 41.570042 
L 197.107215 41.146643 
L 197.064619 40.723244 
L 197.049262 40.299845 
L 197.064735 39.876445 
L 197.11399 39.453046 
L 197.199273 39.029647 
L 197.322076 38.606248 
L 197.483121 38.182849 
L 197.682369 37.759449 
L 197.919052 37.33605 
L 198.191733 36.912651 
L 198.498377 36.489252 
L 198.836436 36.065853 
L 199.202955 35.642453 
L 199.594667 35.219054 
L 200.008101 34.795655 
L 200.439685 34.372256 
L 200.88584 33.948857 
L 201.343067 33.525457 
L 201.808025 33.102058 
L 202.27759 32.678659 
L 202.748905 32.25526 
L 203.219415 31.831861 
L 203.68688 31.408461 
L 204.149385 30.985062 
L 204.60533 30.561663 
L 205.053413 30.138264 
L 205.492595 29.714865 
L 205.922076 29.291465 
L 206.341245 28.868066 
L 206.749648 28.444667 
L 207.146939 28.021268 
L 207.532849 27.597869 
L 207.907146 27.174469 
L 208.269614 26.75107 
L 218.109903 26.75107 
L 218.109903 26.75107 
L 218.47237 27.174469 
L 218.846668 27.597869 
L 219.232578 28.021268 
L 219.629869 28.444667 
L 220.038271 28.868066 
L 220.457441 29.291465 
L 220.886921 29.714865 
L 221.326104 30.138264 
L 221.774186 30.561663 
L 222.230132 30.985062 
L 222.692637 31.408461 
L 223.160102 31.831861 
L 223.630611 32.25526 
L 224.101927 32.678659 
L 224.571492 33.102058 
L 225.036449 33.525457 
L 225.493677 33.948857 
L 225.939831 34.372256 
L 226.371415 34.795655 
L 226.784849 35.219054 
L 227.176561 35.642453 
L 227.54308 36.065853 
L 227.88114 36.489252 
L 228.187783 36.912651 
L 228.460465 37.33605 
L 228.697148 37.759449 
L 228.896396 38.182849 
L 229.057441 38.606248 
L 229.180244 39.029647 
L 229.265527 39.453046 
L 229.314782 39.876445 
L 229.330254 40.299845 
L 229.314898 40.723244 
L 229.272301 41.146643 
L 229.206588 41.570042 
L 229.122296 41.993441 
L 229.024229 42.416841 
L 228.917304 42.84024 
L 228.806376 43.263639 
L 228.696076 43.687038 
L 228.590633 44.110437 
L 228.493727 44.533837 
L 228.408346 44.957236 
L 228.336671 45.380635 
L 228.279993 45.804034 
L 228.238661 46.227433 
L 228.21206 46.650833 
L 228.198638 47.074232 
L 228.195958 47.497631 
L 228.200787 47.92103 
L 228.209221 48.344429 
L 228.216825 48.767829 
L 228.2188 49.191228 
L 228.210161 49.614627 
L 228.185916 50.038026 
L 228.141248 50.461425 
L 228.071686 50.884825 
L 227.973257 51.308224 
L 227.842625 51.731623 
L 227.677198 52.155022 
L 227.475206 52.578421 
L 227.235757 53.001821 
L 226.958854 53.42522 
L 226.645386 53.848619 
L 226.297089 54.272018 
L 225.916486 54.695417 
L 225.506801 55.118817 
L 225.071861 55.542216 
L 224.61598 55.965615 
L 224.143838 56.389014 
L 223.660356 56.812413 
L 223.170574 57.235813 
L 222.679524 57.659212 
L 222.192122 58.082611 
L 221.713056 58.50601 
L 221.246701 58.929409 
L 220.797027 59.352809 
L 220.367538 59.776208 
L 219.961214 60.199607 
L 219.580467 60.623006 
L 219.227117 61.046405 
L 218.902374 61.469805 
L 218.606835 61.893204 
L 218.340496 62.316603 
L 218.102777 62.740002 
L 217.892548 63.163401 
L 217.708185 63.586801 
L 217.547619 64.0102 
L 217.408404 64.433599 
L 217.287788 64.856998 
L 217.182798 65.280397 
L 217.090323 65.703797 
L 217.007201 66.127196 
L 216.930308 66.550595 
L 216.856644 66.973994 
L 216.78341 67.397393 
L 216.708087 67.820793 
L 216.628487 68.244192 
L 216.542812 68.667591 
z
" clip-path="url(#p67a5d00124)" style="fill: #1f77b4; fill-opacity: 0.8"/>
   </g>
   <g id="PolyCollection_4">
    <path d="M 286.233367 68.667591 
L 269.270116 68.667591 
L 269.151834 68.449306 
L 269.043036 68.231021 
L 268.943898 68.012735 
L 268.854534 67.79445 
L 268.774993 67.576165 
L 268.70526 67.35788 
L 268.645248 67.139595 
L 268.594804 66.921309 
L 268.553708 66.703024 
L 268.521668 66.484739 
L 268.498329 66.266454 
L 268.483267 66.048169 
L 268.475995 65.829883 
L 268.475968 65.611598 
L 268.48258 65.393313 
L 268.495171 65.175028 
L 268.513034 64.956743 
L 268.535413 64.738457 
L 268.561513 64.520172 
L 268.590504 64.301887 
L 268.621528 64.083602 
L 268.653702 63.865317 
L 268.686126 63.647031 
L 268.717889 63.428746 
L 268.748079 63.210461 
L 268.775783 62.992176 
L 268.800099 62.773891 
L 268.820142 62.555605 
L 268.835048 62.33732 
L 268.843983 62.119035 
L 268.84615 61.90075 
L 268.840791 61.682465 
L 268.827198 61.464179 
L 268.804715 61.245894 
L 268.772746 61.027609 
L 268.730758 60.809324 
L 268.678283 60.591039 
L 268.614928 60.372753 
L 268.540375 60.154468 
L 268.454384 59.936183 
L 268.356794 59.717898 
L 268.24753 59.499613 
L 268.126598 59.281327 
L 267.994092 59.063042 
L 267.850188 58.844757 
L 267.695152 58.626472 
L 267.529328 58.408187 
L 267.353149 58.189901 
L 267.167124 57.971616 
L 266.971844 57.753331 
L 266.767973 57.535046 
L 266.556249 57.316761 
L 266.337476 57.098475 
L 266.112523 56.88019 
L 265.882319 56.661905 
L 265.647844 56.44362 
L 265.410127 56.225335 
L 265.170241 56.007049 
L 264.929293 55.788764 
L 264.688419 55.570479 
L 264.44878 55.352194 
L 264.211552 55.133909 
L 263.977921 54.915623 
L 263.749074 54.697338 
L 263.526195 54.479053 
L 263.310453 54.260768 
L 263.103003 54.042483 
L 262.90497 53.824197 
L 262.717449 53.605912 
L 262.541496 53.387627 
L 262.378122 53.169342 
L 262.228286 52.951057 
L 262.092893 52.732771 
L 261.972782 52.514486 
L 261.86873 52.296201 
L 261.781438 52.077916 
L 261.711536 51.859631 
L 261.659572 51.641345 
L 261.626014 51.42306 
L 261.611246 51.204775 
L 261.615564 50.98649 
L 261.63918 50.768205 
L 261.682214 50.549919 
L 261.744701 50.331634 
L 261.826585 50.113349 
L 261.927726 49.895064 
L 262.047896 49.676779 
L 262.186786 49.458493 
L 262.344003 49.240208 
L 262.51908 49.021923 
L 262.711473 48.803638 
L 262.920567 48.585353 
L 263.145685 48.367067 
L 263.386085 48.148782 
L 263.640972 47.930497 
L 263.909497 47.712212 
L 264.190768 47.493927 
L 264.483854 47.275641 
L 264.78779 47.057356 
L 290.715694 47.057356 
L 290.715694 47.057356 
L 291.019629 47.275641 
L 291.312716 47.493927 
L 291.593987 47.712212 
L 291.862512 47.930497 
L 292.117398 48.148782 
L 292.357798 48.367067 
L 292.582916 48.585353 
L 292.792011 48.803638 
L 292.984403 49.021923 
L 293.15948 49.240208 
L 293.316698 49.458493 
L 293.455587 49.676779 
L 293.575757 49.895064 
L 293.676898 50.113349 
L 293.758783 50.331634 
L 293.821269 50.549919 
L 293.864304 50.768205 
L 293.887919 50.98649 
L 293.892238 51.204775 
L 293.877469 51.42306 
L 293.843911 51.641345 
L 293.791948 51.859631 
L 293.722045 52.077916 
L 293.634754 52.296201 
L 293.530701 52.514486 
L 293.410591 52.732771 
L 293.275197 52.951057 
L 293.125362 53.169342 
L 292.961988 53.387627 
L 292.786035 53.605912 
L 292.598514 53.824197 
L 292.400481 54.042483 
L 292.19303 54.260768 
L 291.977289 54.479053 
L 291.754409 54.697338 
L 291.525562 54.915623 
L 291.291931 55.133909 
L 291.054703 55.352194 
L 290.815065 55.570479 
L 290.574191 55.788764 
L 290.333242 56.007049 
L 290.093356 56.225335 
L 289.85564 56.44362 
L 289.621165 56.661905 
L 289.39096 56.88019 
L 289.166008 57.098475 
L 288.947235 57.316761 
L 288.73551 57.535046 
L 288.53164 57.753331 
L 288.336359 57.971616 
L 288.150335 58.189901 
L 287.974155 58.408187 
L 287.808332 58.626472 
L 287.653295 58.844757 
L 287.509392 59.063042 
L 287.376885 59.281327 
L 287.255954 59.499613 
L 287.146689 59.717898 
L 287.0491 59.936183 
L 286.963108 60.154468 
L 286.888555 60.372753 
L 286.825201 60.591039 
L 286.772726 60.809324 
L 286.730737 61.027609 
L 286.698768 61.245894 
L 286.676286 61.464179 
L 286.662693 61.682465 
L 286.657334 61.90075 
L 286.6595 62.119035 
L 286.668435 62.33732 
L 286.683341 62.555605 
L 286.703384 62.773891 
L 286.7277 62.992176 
L 286.755404 63.210461 
L 286.785594 63.428746 
L 286.817358 63.647031 
L 286.849782 63.865317 
L 286.881955 64.083602 
L 286.912979 64.301887 
L 286.941971 64.520172 
L 286.968071 64.738457 
L 286.99045 64.956743 
L 287.008312 65.175028 
L 287.020904 65.393313 
L 287.027515 65.611598 
L 287.027488 65.829883 
L 287.020217 66.048169 
L 287.005155 66.266454 
L 286.981815 66.484739 
L 286.949776 66.703024 
L 286.908679 66.921309 
L 286.858236 67.139595 
L 286.798224 67.35788 
L 286.72849 67.576165 
L 286.64895 67.79445 
L 286.559586 68.012735 
L 286.460448 68.231021 
L 286.351649 68.449306 
L 286.233367 68.667591 
z
" clip-path="url(#p67a5d00124)" style="fill: #1f77b4; fill-opacity: 0.8"/>
   </g>
   <g id="PolyCollection_5">
    <path d="M 358.454221 93.399375 
L 326.173229 93.399375 
L 326.173229 93.399375 
L 326.173229 93.399375 
L 326.173229 93.399375 
L 326.173229 93.399375 
L 326.173229 93.399375 
L 326.173229 93.399375 
L 326.173229 93.399375 
L 326.173229 93.399375 
L 326.173229 93.399375 
L 326.173229 93.399375 
L 326.173229 93.399375 
L 326.173229 93.399375 
L 326.173229 93.399375 
L 326.173229 93.399375 
L 326.173229 93.399375 
L 326.173229 93.399375 
L 326.173229 93.399375 
L 326.173229 93.399375 
L 326.173229 93.399375 
L 326.173229 93.399375 
L 326.173229 93.399375 
L 326.173229 93.399375 
L 326.173229 93.399375 
L 326.173229 93.399375 
L 326.173229 93.399375 
L 326.173229 93.399375 
L 326.173229 93.399375 
L 326.173229 93.399375 
L 326.173229 93.399375 
L 326.173229 93.399375 
L 326.173229 93.399375 
L 326.173229 93.399375 
L 326.173229 93.399375 
L 326.173229 93.399375 
L 326.173229 93.399375 
L 326.173229 93.399375 
L 326.173229 93.399375 
L 326.173229 93.399375 
L 326.173229 93.399375 
L 326.173229 93.399375 
L 326.173229 93.399375 
L 326.173229 93.399375 
L 326.173229 93.399375 
L 326.173229 93.399375 
L 326.173229 93.399375 
L 326.173229 93.399375 
L 326.173229 93.399375 
L 326.173229 93.399375 
L 326.173229 93.399375 
L 326.173229 93.399375 
L 326.173229 93.399375 
L 326.173229 93.399375 
L 326.173229 93.399375 
L 326.173229 93.399375 
L 326.173229 93.399375 
L 326.173229 93.399375 
L 326.173229 93.399375 
L 326.173229 93.399375 
L 326.173229 93.399375 
L 326.173229 93.399375 
L 326.173229 93.399375 
L 326.173229 93.399375 
L 326.173229 93.399375 
L 326.173229 93.399375 
L 326.173229 93.399375 
L 326.173229 93.399375 
L 326.173229 93.399375 
L 326.173229 93.399375 
L 326.173229 93.399375 
L 326.173229 93.399375 
L 326.173229 93.399375 
L 326.173229 93.399375 
L 326.173229 93.399375 
L 326.173229 93.399375 
L 326.173229 93.399375 
L 326.173229 93.399375 
L 326.173229 93.399375 
L 326.173229 93.399375 
L 326.173229 93.399375 
L 326.173229 93.399375 
L 326.173229 93.399375 
L 326.173229 93.399375 
L 326.173229 93.399375 
L 326.173229 93.399375 
L 326.173229 93.399375 
L 326.173229 93.399375 
L 326.173229 93.399375 
L 326.173229 93.399375 
L 326.173229 93.399375 
L 326.173229 93.399375 
L 326.173229 93.399375 
L 326.173229 93.399375 
L 326.173229 93.399375 
L 326.173229 93.399375 
L 326.173229 93.399375 
L 326.173229 93.399375 
L 326.173229 93.399375 
L 326.173229 93.399375 
L 326.173229 93.399375 
L 358.454221 93.399375 
L 358.454221 93.399375 
L 358.454221 93.399375 
L 358.454221 93.399375 
L 358.454221 93.399375 
L 358.454221 93.399375 
L 358.454221 93.399375 
L 358.454221 93.399375 
L 358.454221 93.399375 
L 358.454221 93.399375 
L 358.454221 93.399375 
L 358.454221 93.399375 
L 358.454221 93.399375 
L 358.454221 93.399375 
L 358.454221 93.399375 
L 358.454221 93.399375 
L 358.454221 93.399375 
L 358.454221 93.399375 
L 358.454221 93.399375 
L 358.454221 93.399375 
L 358.454221 93.399375 
L 358.454221 93.399375 
L 358.454221 93.399375 
L 358.454221 93.399375 
L 358.454221 93.399375 
L 358.454221 93.399375 
L 358.454221 93.399375 
L 358.454221 93.399375 
L 358.454221 93.399375 
L 358.454221 93.399375 
L 358.454221 93.399375 
L 358.454221 93.399375 
L 358.454221 93.399375 
L 358.454221 93.399375 
L 358.454221 93.399375 
L 358.454221 93.399375 
L 358.454221 93.399375 
L 358.454221 93.399375 
L 358.454221 93.399375 
L 358.454221 93.399375 
L 358.454221 93.399375 
L 358.454221 93.399375 
L 358.454221 93.399375 
L 358.454221 93.399375 
L 358.454221 93.399375 
L 358.454221 93.399375 
L 358.454221 93.399375 
L 358.454221 93.399375 
L 358.454221 93.399375 
L 358.454221 93.399375 
L 358.454221 93.399375 
L 358.454221 93.399375 
L 358.454221 93.399375 
L 358.454221 93.399375 
L 358.454221 93.399375 
L 358.454221 93.399375 
L 358.454221 93.399375 
L 358.454221 93.399375 
L 358.454221 93.399375 
L 358.454221 93.399375 
L 358.454221 93.399375 
L 358.454221 93.399375 
L 358.454221 93.399375 
L 358.454221 93.399375 
L 358.454221 93.399375 
L 358.454221 93.399375 
L 358.454221 93.399375 
L 358.454221 93.399375 
L 358.454221 93.399375 
L 358.454221 93.399375 
L 358.454221 93.399375 
L 358.454221 93.399375 
L 358.454221 93.399375 
L 358.454221 93.399375 
L 358.454221 93.399375 
L 358.454221 93.399375 
L 358.454221 93.399375 
L 358.454221 93.399375 
L 358.454221 93.399375 
L 358.454221 93.399375 
L 358.454221 93.399375 
L 358.454221 93.399375 
L 358.454221 93.399375 
L 358.454221 93.399375 
L 358.454221 93.399375 
L 358.454221 93.399375 
L 358.454221 93.399375 
L 358.454221 93.399375 
L 358.454221 93.399375 
L 358.454221 93.399375 
L 358.454221 93.399375 
L 358.454221 93.399375 
L 358.454221 93.399375 
L 358.454221 93.399375 
L 358.454221 93.399375 
L 358.454221 93.399375 
L 358.454221 93.399375 
L 358.454221 93.399375 
L 358.454221 93.399375 
L 358.454221 93.399375 
L 358.454221 93.399375 
z
" clip-path="url(#p67a5d00124)" style="fill: #1f77b4; fill-opacity: 0.8"/>
   </g>
   <g id="PolyCollection_6">
    <path d="M 423.016205 93.399375 
L 390.735213 93.399375 
L 390.735213 93.399375 
L 390.735213 93.399375 
L 390.735213 93.399375 
L 390.735213 93.399375 
L 390.735213 93.399375 
L 390.735213 93.399375 
L 390.735213 93.399375 
L 390.735213 93.399375 
L 390.735213 93.399375 
L 390.735213 93.399375 
L 390.735213 93.399375 
L 390.735213 93.399375 
L 390.735213 93.399375 
L 390.735213 93.399375 
L 390.735213 93.399375 
L 390.735213 93.399375 
L 390.735213 93.399375 
L 390.735213 93.399375 
L 390.735213 93.399375 
L 390.735213 93.399375 
L 390.735213 93.399375 
L 390.735213 93.399375 
L 390.735213 93.399375 
L 390.735213 93.399375 
L 390.735213 93.399375 
L 390.735213 93.399375 
L 390.735213 93.399375 
L 390.735213 93.399375 
L 390.735213 93.399375 
L 390.735213 93.399375 
L 390.735213 93.399375 
L 390.735213 93.399375 
L 390.735213 93.399375 
L 390.735213 93.399375 
L 390.735213 93.399375 
L 390.735213 93.399375 
L 390.735213 93.399375 
L 390.735213 93.399375 
L 390.735213 93.399375 
L 390.735213 93.399375 
L 390.735213 93.399375 
L 390.735213 93.399375 
L 390.735213 93.399375 
L 390.735213 93.399375 
L 390.735213 93.399375 
L 390.735213 93.399375 
L 390.735213 93.399375 
L 390.735213 93.399375 
L 390.735213 93.399375 
L 390.735213 93.399375 
L 390.735213 93.399375 
L 390.735213 93.399375 
L 390.735213 93.399375 
L 390.735213 93.399375 
L 390.735213 93.399375 
L 390.735213 93.399375 
L 390.735213 93.399375 
L 390.735213 93.399375 
L 390.735213 93.399375 
L 390.735213 93.399375 
L 390.735213 93.399375 
L 390.735213 93.399375 
L 390.735213 93.399375 
L 390.735213 93.399375 
L 390.735213 93.399375 
L 390.735213 93.399375 
L 390.735213 93.399375 
L 390.735213 93.399375 
L 390.735213 93.399375 
L 390.735213 93.399375 
L 390.735213 93.399375 
L 390.735213 93.399375 
L 390.735213 93.399375 
L 390.735213 93.399375 
L 390.735213 93.399375 
L 390.735213 93.399375 
L 390.735213 93.399375 
L 390.735213 93.399375 
L 390.735213 93.399375 
L 390.735213 93.399375 
L 390.735213 93.399375 
L 390.735213 93.399375 
L 390.735213 93.399375 
L 390.735213 93.399375 
L 390.735213 93.399375 
L 390.735213 93.399375 
L 390.735213 93.399375 
L 390.735213 93.399375 
L 390.735213 93.399375 
L 390.735213 93.399375 
L 390.735213 93.399375 
L 390.735213 93.399375 
L 390.735213 93.399375 
L 390.735213 93.399375 
L 390.735213 93.399375 
L 390.735213 93.399375 
L 390.735213 93.399375 
L 390.735213 93.399375 
L 390.735213 93.399375 
L 423.016205 93.399375 
L 423.016205 93.399375 
L 423.016205 93.399375 
L 423.016205 93.399375 
L 423.016205 93.399375 
L 423.016205 93.399375 
L 423.016205 93.399375 
L 423.016205 93.399375 
L 423.016205 93.399375 
L 423.016205 93.399375 
L 423.016205 93.399375 
L 423.016205 93.399375 
L 423.016205 93.399375 
L 423.016205 93.399375 
L 423.016205 93.399375 
L 423.016205 93.399375 
L 423.016205 93.399375 
L 423.016205 93.399375 
L 423.016205 93.399375 
L 423.016205 93.399375 
L 423.016205 93.399375 
L 423.016205 93.399375 
L 423.016205 93.399375 
L 423.016205 93.399375 
L 423.016205 93.399375 
L 423.016205 93.399375 
L 423.016205 93.399375 
L 423.016205 93.399375 
L 423.016205 93.399375 
L 423.016205 93.399375 
L 423.016205 93.399375 
L 423.016205 93.399375 
L 423.016205 93.399375 
L 423.016205 93.399375 
L 423.016205 93.399375 
L 423.016205 93.399375 
L 423.016205 93.399375 
L 423.016205 93.399375 
L 423.016205 93.399375 
L 423.016205 93.399375 
L 423.016205 93.399375 
L 423.016205 93.399375 
L 423.016205 93.399375 
L 423.016205 93.399375 
L 423.016205 93.399375 
L 423.016205 93.399375 
L 423.016205 93.399375 
L 423.016205 93.399375 
L 423.016205 93.399375 
L 423.016205 93.399375 
L 423.016205 93.399375 
L 423.016205 93.399375 
L 423.016205 93.399375 
L 423.016205 93.399375 
L 423.016205 93.399375 
L 423.016205 93.399375 
L 423.016205 93.399375 
L 423.016205 93.399375 
L 423.016205 93.399375 
L 423.016205 93.399375 
L 423.016205 93.399375 
L 423.016205 93.399375 
L 423.016205 93.399375 
L 423.016205 93.399375 
L 423.016205 93.399375 
L 423.016205 93.399375 
L 423.016205 93.399375 
L 423.016205 93.399375 
L 423.016205 93.399375 
L 423.016205 93.399375 
L 423.016205 93.399375 
L 423.016205 93.399375 
L 423.016205 93.399375 
L 423.016205 93.399375 
L 423.016205 93.399375 
L 423.016205 93.399375 
L 423.016205 93.399375 
L 423.016205 93.399375 
L 423.016205 93.399375 
L 423.016205 93.399375 
L 423.016205 93.399375 
L 423.016205 93.399375 
L 423.016205 93.399375 
L 423.016205 93.399375 
L 423.016205 93.399375 
L 423.016205 93.399375 
L 423.016205 93.399375 
L 423.016205 93.399375 
L 423.016205 93.399375 
L 423.016205 93.399375 
L 423.016205 93.399375 
L 423.016205 93.399375 
L 423.016205 93.399375 
L 423.016205 93.399375 
L 423.016205 93.399375 
L 423.016205 93.399375 
L 423.016205 93.399375 
L 423.016205 93.399375 
L 423.016205 93.399375 
L 423.016205 93.399375 
L 423.016205 93.399375 
z
" clip-path="url(#p67a5d00124)" style="fill: #1f77b4; fill-opacity: 0.8"/>
   </g>
   <g id="matplotlib.axis_1">
    <g id="xtick_1">
     <g id="line2d_1">
      <defs>
       <path id="mdaecb1e710" d="M 0 0 
L 0 3.5 
"/>
      </defs>
      <g>
       <use xlink:href="#mdaecb1e710" x="180.908767" y="65.679375"/>
      </g>
     </g>
     <g id="text_1">
      <text style="font: 8px 'DejaVu Sans', 'Bitstream Vera Sans', 'Computer Modern Sans Serif', 'Lucida Grande', 'Verdana', 'Geneva', 'Lucid', 'Arial', 'Helvetica', 'Avant Garde', sans-serif; text-anchor: middle" x="180.908767" y="78.758125" transform="rotate(-0 180.908767 78.758125)">ApRac1</text>
     </g>
    </g>
   </g>
   <g id="matplotlib.axis_2">
    <g id="ytick_1">
     <g id="line2d_2">
      <defs>
       <path id="mf4f0adacc2" d="M 0 0 
L -3.5 0 
"/>
      </defs>
      <g>
       <use xlink:href="#mf4f0adacc2" x="50.17075" y="65.679375"/>
      </g>
     </g>
     <g id="text_2">
      <text style="font: 8px 'DejaVu Sans', 'Bitstream Vera Sans', 'Computer Modern Sans Serif', 'Lucida Grande', 'Verdana', 'Geneva', 'Lucid', 'Arial', 'Helvetica', 'Avant Garde', sans-serif; text-anchor: end" x="43.17075" y="68.71875" transform="rotate(-0 43.17075 68.71875)">0</text>
     </g>
    </g>
    <g id="ytick_2">
     <g id="line2d_3">
      <g>
       <use xlink:href="#mf4f0adacc2" x="50.17075" y="37.959375"/>
      </g>
     </g>
     <g id="text_3">
      <text style="font: 8px 'DejaVu Sans', 'Bitstream Vera Sans', 'Computer Modern Sans Serif', 'Lucida Grande', 'Verdana', 'Geneva', 'Lucid', 'Arial', 'Helvetica', 'Avant Garde', sans-serif; text-anchor: end" x="43.17075" y="40.99875" transform="rotate(-0 43.17075 40.99875)">100</text>
     </g>
    </g>
    <g id="ytick_3">
     <g id="line2d_4">
      <g>
       <use xlink:href="#mf4f0adacc2" x="50.17075" y="10.239375"/>
      </g>
     </g>
     <g id="text_4">
      <text style="font: 8px 'DejaVu Sans', 'Bitstream Vera Sans', 'Computer Modern Sans Serif', 'Lucida Grande', 'Verdana', 'Geneva', 'Lucid', 'Arial', 'Helvetica', 'Avant Garde', sans-serif; text-anchor: end" x="43.17075" y="13.27875" transform="rotate(-0 43.17075 13.27875)">200</text>
     </g>
    </g>
    <g id="text_5">
     <text style="font: 8px 'DejaVu Sans', 'Bitstream Vera Sans', 'Computer Modern Sans Serif', 'Lucida Grande', 'Verdana', 'Geneva', 'Lucid', 'Arial', 'Helvetica', 'Avant Garde', sans-serif" transform="translate(13.27875 49.115625) rotate(-90)">Rac1 </text>
     <text style="font: 8px 'DejaVu Sans', 'Bitstream Vera Sans', 'Computer Modern Sans Serif', 'Lucida Grande', 'Verdana', 'Geneva', 'Lucid', 'Arial', 'Helvetica', 'Avant Garde', sans-serif" transform="translate(22.237 76.635) rotate(-90)">Concentration (nM)</text>
    </g>
   </g>
   <g id="LineCollection_1">
    <path d="M 75.995543 44.325745 
L 92.136039 44.325745 
" clip-path="url(#p67a5d00124)" style="fill: none; stroke: #000000; stroke-opacity: 0.8; stroke-width: 1.5"/>
    <path d="M 140.557527 47.322695 
L 156.698023 47.322695 
" clip-path="url(#p67a5d00124)" style="fill: none; stroke: #000000; stroke-opacity: 0.8; stroke-width: 1.5"/>
    <path d="M 205.11951 45.755348 
L 221.260006 45.755348 
" clip-path="url(#p67a5d00124)" style="fill: none; stroke: #000000; stroke-opacity: 0.8; stroke-width: 1.5"/>
    <path d="M 269.681494 56.358556 
L 285.82199 56.358556 
" clip-path="url(#p67a5d00124)" style="fill: none; stroke: #000000; stroke-opacity: 0.8; stroke-width: 1.5"/>
    <path clip-path="url(#p67a5d00124)" style="fill: none; stroke: #000000; stroke-opacity: 0.8; stroke-width: 1.5"/>
    <path clip-path="url(#p67a5d00124)" style="fill: none; stroke: #000000; stroke-opacity: 0.8; stroke-width: 1.5"/>
   </g>
   <g id="patch_3">
    <path d="M 50.17075 65.679375 
L 50.17075 10.239375 
" style="fill: none; stroke: #000000; stroke-width: 0.8; stroke-linejoin: miter; stroke-linecap: square"/>
   </g>
   <g id="patch_4">
    <path d="M 50.17075 65.679375 
L 440.77075 65.679375 
" style="fill: none; stroke: #000000; stroke-width: 0.8; stroke-linejoin: miter; stroke-linecap: square"/>
   </g>
  </g>
 </g>
 <defs>
  <clipPath id="p67a5d00124">
   <rect x="50.17075" y="10.239375" width="390.6" height="55.44"/>
  </clipPath>
 </defs>
</svg>
