<?xml version="1.0" encoding="utf-8" standalone="no"?>
<!DOCTYPE svg PUBLIC "-//W3C//DTD SVG 1.1//EN"
  "http://www.w3.org/Graphics/SVG/1.1/DTD/svg11.dtd">
<svg xmlns:xlink="http://www.w3.org/1999/xlink" width="180pt" height="36pt" viewBox="0 0 180 36" xmlns="http://www.w3.org/2000/svg" version="1.1">
 <metadata>
  <rdf:RDF xmlns:dc="http://purl.org/dc/elements/1.1/" xmlns:cc="http://creativecommons.org/ns#" xmlns:rdf="http://www.w3.org/1999/02/22-rdf-syntax-ns#">
   <cc:Work>
    <dc:type rdf:resource="http://purl.org/dc/dcmitype/StillImage"/>
    <dc:date>2024-11-16T16:25:54.892875</dc:date>
    <dc:format>image/svg+xml</dc:format>
    <dc:creator>
     <cc:Agent>
      <dc:title>Matplotlib v3.9.1, https://matplotlib.org/</dc:title>
     </cc:Agent>
    </dc:creator>
   </cc:Work>
  </rdf:RDF>
 </metadata>
 <defs>
  <style type="text/css">*{stroke-linejoin: round; stroke-linecap: butt}</style>
 </defs>
 <g id="figure_1">
  <g id="patch_1">
   <path d="M 0 36 
L 180 36 
L 180 0 
L 0 0 
L 0 36 
z
" style="fill: none"/>
  </g>
  <g id="axes_1">
   <g id="patch_2">
    <path d="M 22.5 32.04 
L 162 32.04 
L 162 4.32 
L 22.5 4.32 
L 22.5 32.04 
z
" style="fill: none"/>
   </g>
   <g id="matplotlib.axis_1">
    <g id="xtick_1"/>
    <g id="xtick_2"/>
    <g id="xtick_3"/>
    <g id="xtick_4"/>
   </g>
   <g id="matplotlib.axis_2">
    <g id="ytick_1"/>
    <g id="ytick_2"/>
    <g id="ytick_3"/>
   </g>
   <g id="line2d_1">
    <path d="M 28.840909 17.311034 
L 30.954545 15.92069 
L 33.068182 16.355172 
L 35.181818 21.395172 
L 37.295455 18.962069 
L 39.409091 17.571724 
L 41.522727 14.182759 
L 43.636364 19.570345 
L 45.75 17.311034 
L 47.863636 18.44069 
L 49.977273 19.744138 
L 52.090909 12.792414 
L 54.204545 17.397931 
L 56.318182 6.362069 
L 58.431818 17.745517 
L 60.545455 11.315172 
L 62.659091 14.443448 
L 64.772727 18.006207 
L 66.886364 22.872414 
L 69 17.311034 
L 71.113636 19.396552 
L 73.227273 13.487586 
L 75.340909 14.704138 
L 77.454545 17.571724 
L 79.568182 18.44069 
L 81.681818 16.181379 
L 83.795455 17.832414 
L 85.909091 20.96069 
L 88.022727 20.526207 
L 90.136364 12.792414 
L 92.25 13.14 
L 94.363636 12.444828 
L 96.477273 15.66 
L 98.590909 12.87931 
L 100.704545 14.964828 
L 102.818182 17.311034 
L 104.931818 20.004828 
L 107.045455 15.225517 
L 109.159091 9.403448 
L 111.272727 13.922069 
L 113.386364 12.618621 
L 115.5 19.048966 
L 117.613636 5.58 
L 119.727273 18.18 
L 121.840909 23.046207 
L 123.954545 18.614483 
L 126.068182 20.091724 
L 128.181818 12.705517 
L 130.295455 17.397931 
L 132.409091 18.701379 
L 134.522727 13.487586 
L 136.636364 15.486207 
L 138.75 14.443448 
L 140.863636 14.964828 
L 142.977273 15.486207 
L 145.090909 13.14 
L 147.204545 18.353793 
L 149.318182 17.224138 
L 151.431818 13.922069 
L 153.545455 16.615862 
L 155.659091 14.008966 
" clip-path="url(#p3ff1ad984f)" style="fill: none; stroke: #e377c2; stroke-width: 2; stroke-linecap: square"/>
   </g>
   <g id="line2d_2">
    <path d="M 28.840909 30.78 
L 30.954545 30.171724 
L 33.068182 28.694483 
L 35.181818 23.741379 
L 37.295455 27.825517 
L 39.409091 29.389655 
L 41.522727 27.304138 
L 43.636364 24.436552 
L 45.75 22.351034 
L 47.863636 22.003448 
L 49.977273 18.266897 
L 52.090909 21.482069 
L 54.204545 19.657241 
L 56.318182 22.785517 
L 58.431818 20.526207 
L 60.545455 24.088966 
L 62.659091 23.915172 
L 64.772727 21.568966 
L 66.886364 18.701379 
L 69 16.702759 
L 71.113636 22.003448 
L 73.227273 17.571724 
L 75.340909 22.177241 
L 77.454545 18.353793 
L 79.568182 20.873793 
L 81.681818 23.654483 
L 83.795455 12.010345 
L 85.909091 16.007586 
L 88.022727 14.964828 
L 90.136364 18.353793 
L 92.25 20.004828 
L 94.363636 22.351034 
L 96.477273 9.490345 
L 98.590909 15.39931 
L 100.704545 13.226897 
L 102.818182 13.487586 
L 104.931818 13.922069 
L 107.045455 16.876552 
L 109.159091 15.746897 
L 111.272727 14.095862 
L 113.386364 14.008966 
L 115.5 8.013103 
L 117.613636 17.050345 
L 119.727273 18.18 
L 121.840909 22.611724 
L 123.954545 19.135862 
L 126.068182 22.524828 
L 128.181818 24.871034 
L 130.295455 16.268276 
L 132.409091 22.872414 
L 134.522727 24.610345 
L 136.636364 15.746897 
L 138.75 9.577241 
L 140.863636 13.574483 
L 142.977273 13.40069 
L 145.090909 14.095862 
L 147.204545 11.662759 
L 149.318182 14.269655 
L 151.431818 20.178621 
L 153.545455 16.963448 
L 155.659091 19.570345 
" clip-path="url(#p3ff1ad984f)" style="fill: none; stroke: #bcbd22; stroke-width: 2; stroke-linecap: square"/>
   </g>
   <g id="patch_3">
    <path d="M 22.5 32.04 
L 22.5 4.32 
" style="fill: none; stroke: #000000; stroke-width: 0.8; stroke-linejoin: miter; stroke-linecap: square"/>
   </g>
   <g id="patch_4">
    <path d="M 162 32.04 
L 162 4.32 
" style="fill: none; stroke: #000000; stroke-width: 0.8; stroke-linejoin: miter; stroke-linecap: square"/>
   </g>
   <g id="patch_5">
    <path d="M 22.5 32.04 
L 162 32.04 
" style="fill: none; stroke: #000000; stroke-width: 0.8; stroke-linejoin: miter; stroke-linecap: square"/>
   </g>
   <g id="patch_6">
    <path d="M 22.5 4.32 
L 162 4.32 
" style="fill: none; stroke: #000000; stroke-width: 0.8; stroke-linejoin: miter; stroke-linecap: square"/>
   </g>
  </g>
 </g>
 <defs>
  <clipPath id="p3ff1ad984f">
   <rect x="22.5" y="4.32" width="139.5" height="27.72"/>
  </clipPath>
 </defs>
</svg>
