<?xml version="1.0" encoding="utf-8" standalone="no"?>
<!DOCTYPE svg PUBLIC "-//W3C//DTD SVG 1.1//EN"
  "http://www.w3.org/Graphics/SVG/1.1/DTD/svg11.dtd">
<svg xmlns:xlink="http://www.w3.org/1999/xlink" width="180pt" height="36pt" viewBox="0 0 180 36" xmlns="http://www.w3.org/2000/svg" version="1.1">
 <metadata>
  <rdf:RDF xmlns:dc="http://purl.org/dc/elements/1.1/" xmlns:cc="http://creativecommons.org/ns#" xmlns:rdf="http://www.w3.org/1999/02/22-rdf-syntax-ns#">
   <cc:Work>
    <dc:type rdf:resource="http://purl.org/dc/dcmitype/StillImage"/>
    <dc:date>2024-11-16T16:25:54.752470</dc:date>
    <dc:format>image/svg+xml</dc:format>
    <dc:creator>
     <cc:Agent>
      <dc:title>Matplotlib v3.9.1, https://matplotlib.org/</dc:title>
     </cc:Agent>
    </dc:creator>
   </cc:Work>
  </rdf:RDF>
 </metadata>
 <defs>
  <style type="text/css">*{stroke-linejoin: round; stroke-linecap: butt}</style>
 </defs>
 <g id="figure_1">
  <g id="patch_1">
   <path d="M 0 36 
L 180 36 
L 180 0 
L 0 0 
L 0 36 
z
" style="fill: none"/>
  </g>
  <g id="axes_1">
   <g id="patch_2">
    <path d="M 22.5 32.04 
L 162 32.04 
L 162 4.32 
L 22.5 4.32 
L 22.5 32.04 
z
" style="fill: none"/>
   </g>
   <g id="matplotlib.axis_1">
    <g id="xtick_1"/>
    <g id="xtick_2"/>
    <g id="xtick_3"/>
    <g id="xtick_4"/>
   </g>
   <g id="matplotlib.axis_2">
    <g id="ytick_1"/>
    <g id="ytick_2"/>
   </g>
   <g id="line2d_1">
    <path d="M 28.840909 22.595385 
L 30.954545 25.18 
L 33.068182 25.718462 
L 35.181818 26.364615 
L 37.295455 25.610769 
L 39.409091 22.272308 
L 41.522727 24.749231 
L 43.636364 12.256923 
L 45.75 24.964615 
L 47.863636 17.964615 
L 49.977273 23.564615 
L 52.090909 24.533846 
L 54.204545 11.503077 
L 56.318182 23.78 
L 58.431818 18.18 
L 60.545455 19.472308 
L 62.659091 24.426154 
L 64.772727 18.395385 
L 66.886364 28.303077 
L 69 20.118462 
L 71.113636 24.103077 
L 73.227273 14.087692 
L 75.340909 20.118462 
L 77.454545 21.626154 
L 79.568182 18.395385 
L 81.681818 14.303077 
L 83.795455 20.118462 
L 85.909091 22.056923 
L 88.022727 30.133846 
L 90.136364 19.256923 
L 92.25 11.610769 
L 94.363636 18.503077 
L 96.477273 18.718462 
L 98.590909 17.964615 
L 100.704545 24.749231 
L 102.818182 20.764615 
L 104.931818 24.318462 
L 107.045455 21.949231 
L 109.159091 21.841538 
L 111.272727 23.349231 
L 113.386364 21.195385 
L 115.5 15.810769 
L 117.613636 21.087692 
L 119.727273 21.841538 
L 121.840909 24.533846 
L 123.954545 28.626154 
L 126.068182 24.964615 
L 128.181818 11.718462 
L 130.295455 24.426154 
L 132.409091 19.903077 
L 134.522727 19.58 
L 136.636364 20.98 
L 138.75 27.226154 
L 140.863636 15.487692 
L 142.977273 27.010769 
L 145.090909 29.595385 
L 147.204545 30.78 
L 149.318182 30.133846 
L 151.431818 30.456923 
L 153.545455 30.456923 
L 155.659091 23.995385 
" clip-path="url(#pda87a78399)" style="fill: none; stroke: #e377c2; stroke-width: 2; stroke-linecap: square"/>
   </g>
   <g id="line2d_2">
    <path d="M 28.840909 6.656923 
L 30.954545 13.333846 
L 33.068182 8.918462 
L 35.181818 12.041538 
L 37.295455 14.733846 
L 39.409091 11.287692 
L 41.522727 7.733846 
L 43.636364 13.872308 
L 45.75 14.195385 
L 47.863636 9.133846 
L 49.977273 12.903077 
L 52.090909 17.533846 
L 54.204545 18.718462 
L 56.318182 12.364615 
L 58.431818 18.503077 
L 60.545455 19.472308 
L 62.659091 20.549231 
L 64.772727 20.226154 
L 66.886364 17.856923 
L 69 12.364615 
L 71.113636 13.872308 
L 73.227273 5.58 
L 75.340909 14.626154 
L 77.454545 15.703077 
L 79.568182 17.533846 
L 81.681818 9.995385 
L 83.795455 13.656923 
L 85.909091 20.118462 
L 88.022727 20.98 
L 90.136364 18.072308 
L 92.25 15.272308 
L 94.363636 20.226154 
L 96.477273 15.056923 
L 98.590909 21.733846 
L 100.704545 17.749231 
L 102.818182 20.010769 
L 104.931818 16.241538 
L 107.045455 17.749231 
L 109.159091 14.733846 
L 111.272727 16.672308 
L 113.386364 16.241538 
L 115.5 9.133846 
L 117.613636 11.718462 
L 119.727273 9.78 
L 121.840909 12.795385 
L 123.954545 12.256923 
L 126.068182 14.087692 
L 128.181818 9.564615 
L 130.295455 17.103077 
L 132.409091 16.456923 
L 134.522727 17.964615 
L 136.636364 10.426154 
L 138.75 8.595385 
L 140.863636 12.687692 
L 142.977273 12.58 
L 145.090909 19.58 
L 147.204545 14.841538 
L 149.318182 17.856923 
L 151.431818 15.056923 
L 153.545455 11.826154 
L 155.659091 18.933846 
" clip-path="url(#pda87a78399)" style="fill: none; stroke: #bcbd22; stroke-width: 2; stroke-linecap: square"/>
   </g>
   <g id="patch_3">
    <path d="M 22.5 32.04 
L 22.5 4.32 
" style="fill: none; stroke: #000000; stroke-width: 0.8; stroke-linejoin: miter; stroke-linecap: square"/>
   </g>
   <g id="patch_4">
    <path d="M 162 32.04 
L 162 4.32 
" style="fill: none; stroke: #000000; stroke-width: 0.8; stroke-linejoin: miter; stroke-linecap: square"/>
   </g>
   <g id="patch_5">
    <path d="M 22.5 32.04 
L 162 32.04 
" style="fill: none; stroke: #000000; stroke-width: 0.8; stroke-linejoin: miter; stroke-linecap: square"/>
   </g>
   <g id="patch_6">
    <path d="M 22.5 4.32 
L 162 4.32 
" style="fill: none; stroke: #000000; stroke-width: 0.8; stroke-linejoin: miter; stroke-linecap: square"/>
   </g>
  </g>
 </g>
 <defs>
  <clipPath id="pda87a78399">
   <rect x="22.5" y="4.32" width="139.5" height="27.72"/>
  </clipPath>
 </defs>
</svg>
