<?xml version="1.0" encoding="utf-8" standalone="no"?>
<!DOCTYPE svg PUBLIC "-//W3C//DTD SVG 1.1//EN"
  "http://www.w3.org/Graphics/SVG/1.1/DTD/svg11.dtd">
<svg xmlns:xlink="http://www.w3.org/1999/xlink" width="180pt" height="36pt" viewBox="0 0 180 36" xmlns="http://www.w3.org/2000/svg" version="1.1">
 <metadata>
  <rdf:RDF xmlns:dc="http://purl.org/dc/elements/1.1/" xmlns:cc="http://creativecommons.org/ns#" xmlns:rdf="http://www.w3.org/1999/02/22-rdf-syntax-ns#">
   <cc:Work>
    <dc:type rdf:resource="http://purl.org/dc/dcmitype/StillImage"/>
    <dc:date>2024-11-16T16:25:54.047826</dc:date>
    <dc:format>image/svg+xml</dc:format>
    <dc:creator>
     <cc:Agent>
      <dc:title>Matplotlib v3.9.1, https://matplotlib.org/</dc:title>
     </cc:Agent>
    </dc:creator>
   </cc:Work>
  </rdf:RDF>
 </metadata>
 <defs>
  <style type="text/css">*{stroke-linejoin: round; stroke-linecap: butt}</style>
 </defs>
 <g id="figure_1">
  <g id="patch_1">
   <path d="M 0 36 
L 180 36 
L 180 0 
L 0 0 
L 0 36 
z
" style="fill: none"/>
  </g>
  <g id="axes_1">
   <g id="patch_2">
    <path d="M 22.5 32.04 
L 162 32.04 
L 162 4.32 
L 22.5 4.32 
L 22.5 32.04 
z
" style="fill: none"/>
   </g>
   <g id="matplotlib.axis_1">
    <g id="xtick_1"/>
    <g id="xtick_2"/>
    <g id="xtick_3"/>
    <g id="xtick_4"/>
   </g>
   <g id="matplotlib.axis_2">
    <g id="ytick_1"/>
    <g id="ytick_2"/>
   </g>
   <g id="line2d_1">
    <path d="M 28.840909 28.962295 
L 30.954545 29.044918 
L 33.068182 24.33541 
L 35.181818 27.475082 
L 37.295455 29.37541 
L 39.409091 27.309836 
L 41.522727 27.722951 
L 43.636364 24.831148 
L 45.75 28.301311 
L 47.863636 25.326885 
L 49.977273 26.731475 
L 52.090909 26.400984 
L 54.204545 22.10459 
L 56.318182 26.648852 
L 58.431818 30.78 
L 60.545455 29.540656 
L 62.659091 30.119016 
L 64.772727 24.33541 
L 66.886364 28.797049 
L 69 28.383934 
L 71.113636 29.788525 
L 73.227273 27.722951 
L 75.340909 22.93082 
L 77.454545 29.210164 
L 79.568182 23.839672 
L 81.681818 27.475082 
L 83.795455 27.14459 
L 85.909091 29.37541 
L 88.022727 30.284262 
L 90.136364 25.326885 
L 92.25 28.136066 
L 94.363636 29.458033 
L 96.477273 30.119016 
L 98.590909 28.962295 
L 100.704545 27.227213 
L 102.818182 23.178689 
L 104.931818 25.326885 
L 107.045455 20.369508 
L 109.159091 27.309836 
L 111.272727 28.301311 
L 113.386364 28.962295 
L 115.5 26.235738 
L 117.613636 29.37541 
L 119.727273 29.540656 
L 121.840909 25.987869 
L 123.954545 28.631803 
L 126.068182 29.871148 
L 128.181818 27.557705 
L 130.295455 30.119016 
L 132.409091 28.053443 
L 134.522727 29.705902 
L 136.636364 27.805574 
L 138.75 26.731475 
L 140.863636 24.170164 
L 142.977273 28.383934 
L 145.090909 25.74 
L 147.204545 18.551803 
L 149.318182 29.127541 
L 151.431818 30.119016 
L 153.545455 26.731475 
L 155.659091 23.757049 
" clip-path="url(#p8d2a48393c)" style="fill: none; stroke: #e377c2; stroke-width: 2; stroke-linecap: square"/>
   </g>
   <g id="line2d_2">
    <path d="M 28.840909 14.172787 
L 30.954545 12.02459 
L 33.068182 13.759672 
L 35.181818 10.206885 
L 37.295455 12.933443 
L 39.409091 12.437705 
L 41.522727 10.289508 
L 43.636364 13.181311 
L 45.75 7.976066 
L 47.863636 5.58 
L 49.977273 9.711148 
L 52.090909 15.990492 
L 54.204545 14.338033 
L 56.318182 10.867869 
L 58.431818 17.06459 
L 60.545455 12.602951 
L 62.659091 10.206885 
L 64.772727 12.355082 
L 66.886364 10.62 
L 69 15.412131 
L 71.113636 8.637049 
L 73.227273 17.477705 
L 75.340909 8.223934 
L 77.454545 12.85082 
L 79.568182 10.785246 
L 81.681818 17.560328 
L 83.795455 14.668525 
L 85.909091 9.545902 
L 88.022727 14.751148 
L 90.136364 13.098689 
L 92.25 16.320984 
L 94.363636 21.360984 
L 96.477273 14.916393 
L 98.590909 12.355082 
L 100.704545 17.477705 
L 102.818182 16.073115 
L 104.931818 24.500656 
L 107.045455 18.46918 
L 109.159091 15.742623 
L 111.272727 8.306557 
L 113.386364 16.320984 
L 115.5 15.081639 
L 117.613636 14.83377 
L 119.727273 15.990492 
L 121.840909 17.560328 
L 123.954545 10.702623 
L 126.068182 14.007541 
L 128.181818 18.46918 
L 130.295455 18.799672 
L 132.409091 20.204262 
L 134.522727 20.782623 
L 136.636364 19.625902 
L 138.75 10.867869 
L 140.863636 18.799672 
L 142.977273 19.543279 
L 145.090909 19.378033 
L 147.204545 20.286885 
L 149.318182 24.004918 
L 151.431818 19.543279 
L 153.545455 19.130164 
L 155.659091 17.642951 
" clip-path="url(#p8d2a48393c)" style="fill: none; stroke: #bcbd22; stroke-width: 2; stroke-linecap: square"/>
   </g>
   <g id="patch_3">
    <path d="M 22.5 32.04 
L 22.5 4.32 
" style="fill: none; stroke: #000000; stroke-width: 0.8; stroke-linejoin: miter; stroke-linecap: square"/>
   </g>
   <g id="patch_4">
    <path d="M 162 32.04 
L 162 4.32 
" style="fill: none; stroke: #000000; stroke-width: 0.8; stroke-linejoin: miter; stroke-linecap: square"/>
   </g>
   <g id="patch_5">
    <path d="M 22.5 32.04 
L 162 32.04 
" style="fill: none; stroke: #000000; stroke-width: 0.8; stroke-linejoin: miter; stroke-linecap: square"/>
   </g>
   <g id="patch_6">
    <path d="M 22.5 4.32 
L 162 4.32 
" style="fill: none; stroke: #000000; stroke-width: 0.8; stroke-linejoin: miter; stroke-linecap: square"/>
   </g>
  </g>
 </g>
 <defs>
  <clipPath id="p8d2a48393c">
   <rect x="22.5" y="4.32" width="139.5" height="27.72"/>
  </clipPath>
 </defs>
</svg>
