<?xml version="1.0" encoding="utf-8" standalone="no"?>
<!DOCTYPE svg PUBLIC "-//W3C//DTD SVG 1.1//EN"
  "http://www.w3.org/Graphics/SVG/1.1/DTD/svg11.dtd">
<svg xmlns:xlink="http://www.w3.org/1999/xlink" width="180pt" height="36pt" viewBox="0 0 180 36" xmlns="http://www.w3.org/2000/svg" version="1.1">
 <metadata>
  <rdf:RDF xmlns:dc="http://purl.org/dc/elements/1.1/" xmlns:cc="http://creativecommons.org/ns#" xmlns:rdf="http://www.w3.org/1999/02/22-rdf-syntax-ns#">
   <cc:Work>
    <dc:type rdf:resource="http://purl.org/dc/dcmitype/StillImage"/>
    <dc:date>2024-11-16T16:25:54.684271</dc:date>
    <dc:format>image/svg+xml</dc:format>
    <dc:creator>
     <cc:Agent>
      <dc:title>Matplotlib v3.9.1, https://matplotlib.org/</dc:title>
     </cc:Agent>
    </dc:creator>
   </cc:Work>
  </rdf:RDF>
 </metadata>
 <defs>
  <style type="text/css">*{stroke-linejoin: round; stroke-linecap: butt}</style>
 </defs>
 <g id="figure_1">
  <g id="patch_1">
   <path d="M 0 36 
L 180 36 
L 180 0 
L 0 0 
L 0 36 
z
" style="fill: none"/>
  </g>
  <g id="axes_1">
   <g id="patch_2">
    <path d="M 22.5 32.04 
L 162 32.04 
L 162 4.32 
L 22.5 4.32 
L 22.5 32.04 
z
" style="fill: none"/>
   </g>
   <g id="matplotlib.axis_1">
    <g id="xtick_1"/>
    <g id="xtick_2"/>
    <g id="xtick_3"/>
    <g id="xtick_4"/>
   </g>
   <g id="matplotlib.axis_2">
    <g id="ytick_1"/>
    <g id="ytick_2"/>
   </g>
   <g id="line2d_1">
    <path d="M 28.840909 16.227887 
L 30.954545 25.810986 
L 33.068182 21.551831 
L 35.181818 24.746197 
L 37.295455 18.889859 
L 39.409091 18.889859 
L 41.522727 26.520845 
L 43.636364 21.906761 
L 45.75 28.650423 
L 47.863636 26.165915 
L 49.977273 18.002535 
L 52.090909 22.61662 
L 54.204545 20.664507 
L 56.318182 19.599718 
L 58.431818 17.647606 
L 60.545455 18.18 
L 62.659091 16.937746 
L 64.772727 24.391268 
L 66.886364 29.537746 
L 69 28.472958 
L 71.113636 14.453239 
L 73.227273 20.664507 
L 75.340909 18.889859 
L 77.454545 27.408169 
L 79.568182 21.374366 
L 81.681818 26.875775 
L 83.795455 27.585634 
L 85.909091 21.906761 
L 88.022727 25.988451 
L 90.136364 18.889859 
L 92.25 30.78 
L 94.363636 26.34338 
L 96.477273 30.78 
L 98.590909 22.26169 
L 100.704545 27.408169 
L 102.818182 24.746197 
L 104.931818 21.374366 
L 107.045455 19.422254 
L 109.159091 23.503944 
L 111.272727 12.501127 
L 113.386364 11.436338 
L 115.5 19.777183 
L 117.613636 23.503944 
L 119.727273 17.82507 
L 121.840909 17.470141 
L 123.954545 18.002535 
L 126.068182 18.53493 
L 128.181818 15.872958 
L 130.295455 22.439155 
L 132.409091 20.309577 
L 134.522727 19.422254 
L 136.636364 14.630704 
L 138.75 20.309577 
L 140.863636 16.937746 
L 142.977273 18.18 
L 145.090909 21.019437 
L 147.204545 19.777183 
L 149.318182 9.306761 
L 151.431818 14.630704 
L 153.545455 16.227887 
L 155.659091 15.695493 
" clip-path="url(#p696f634987)" style="fill: none; stroke: #e377c2; stroke-width: 2; stroke-linecap: square"/>
   </g>
   <g id="line2d_2">
    <path d="M 28.840909 12.323662 
L 30.954545 17.470141 
L 33.068182 20.309577 
L 35.181818 17.115211 
L 37.295455 10.194085 
L 39.409091 21.196901 
L 41.522727 24.213803 
L 43.636364 12.678592 
L 45.75 17.115211 
L 47.863636 19.422254 
L 49.977273 12.501127 
L 52.090909 17.647606 
L 54.204545 16.050423 
L 56.318182 22.794085 
L 58.431818 18.18 
L 60.545455 14.453239 
L 62.659091 13.210986 
L 64.772727 18.53493 
L 66.886364 5.58 
L 69 15.695493 
L 71.113636 17.115211 
L 73.227273 18.357465 
L 75.340909 22.439155 
L 77.454545 19.067324 
L 79.568182 19.244789 
L 81.681818 27.585634 
L 83.795455 29.360282 
L 85.909091 27.408169 
L 88.022727 17.82507 
L 90.136364 14.630704 
L 92.25 6.289859 
L 94.363636 13.210986 
L 96.477273 10.371549 
L 98.590909 18.53493 
L 100.704545 18.889859 
L 102.818182 15.163099 
L 104.931818 22.26169 
L 107.045455 26.34338 
L 109.159091 18.002535 
L 111.272727 25.278592 
L 113.386364 22.26169 
L 115.5 18.712394 
L 117.613636 19.599718 
L 119.727273 21.196901 
L 121.840909 17.647606 
L 123.954545 24.391268 
L 126.068182 14.985634 
L 128.181818 14.09831 
L 130.295455 12.323662 
L 132.409091 17.82507 
L 134.522727 12.501127 
L 136.636364 13.388451 
L 138.75 7.887042 
L 140.863636 19.422254 
L 142.977273 5.58 
L 145.090909 10.903944 
L 147.204545 16.582817 
L 149.318182 25.810986 
L 151.431818 14.453239 
L 153.545455 9.484225 
L 155.659091 21.196901 
" clip-path="url(#p696f634987)" style="fill: none; stroke: #bcbd22; stroke-width: 2; stroke-linecap: square"/>
   </g>
   <g id="patch_3">
    <path d="M 22.5 32.04 
L 22.5 4.32 
" style="fill: none; stroke: #000000; stroke-width: 0.8; stroke-linejoin: miter; stroke-linecap: square"/>
   </g>
   <g id="patch_4">
    <path d="M 162 32.04 
L 162 4.32 
" style="fill: none; stroke: #000000; stroke-width: 0.8; stroke-linejoin: miter; stroke-linecap: square"/>
   </g>
   <g id="patch_5">
    <path d="M 22.5 32.04 
L 162 32.04 
" style="fill: none; stroke: #000000; stroke-width: 0.8; stroke-linejoin: miter; stroke-linecap: square"/>
   </g>
   <g id="patch_6">
    <path d="M 22.5 4.32 
L 162 4.32 
" style="fill: none; stroke: #000000; stroke-width: 0.8; stroke-linejoin: miter; stroke-linecap: square"/>
   </g>
  </g>
 </g>
 <defs>
  <clipPath id="p696f634987">
   <rect x="22.5" y="4.32" width="139.5" height="27.72"/>
  </clipPath>
 </defs>
</svg>
