<?xml version="1.0" encoding="utf-8" standalone="no"?>
<!DOCTYPE svg PUBLIC "-//W3C//DTD SVG 1.1//EN"
  "http://www.w3.org/Graphics/SVG/1.1/DTD/svg11.dtd">
<svg xmlns:xlink="http://www.w3.org/1999/xlink" width="180pt" height="36pt" viewBox="0 0 180 36" xmlns="http://www.w3.org/2000/svg" version="1.1">
 <metadata>
  <rdf:RDF xmlns:dc="http://purl.org/dc/elements/1.1/" xmlns:cc="http://creativecommons.org/ns#" xmlns:rdf="http://www.w3.org/1999/02/22-rdf-syntax-ns#">
   <cc:Work>
    <dc:type rdf:resource="http://purl.org/dc/dcmitype/StillImage"/>
    <dc:date>2024-11-16T16:25:54.271124</dc:date>
    <dc:format>image/svg+xml</dc:format>
    <dc:creator>
     <cc:Agent>
      <dc:title>Matplotlib v3.9.1, https://matplotlib.org/</dc:title>
     </cc:Agent>
    </dc:creator>
   </cc:Work>
  </rdf:RDF>
 </metadata>
 <defs>
  <style type="text/css">*{stroke-linejoin: round; stroke-linecap: butt}</style>
 </defs>
 <g id="figure_1">
  <g id="patch_1">
   <path d="M 0 36 
L 180 36 
L 180 0 
L 0 0 
L 0 36 
z
" style="fill: none"/>
  </g>
  <g id="axes_1">
   <g id="patch_2">
    <path d="M 22.5 32.04 
L 162 32.04 
L 162 4.32 
L 22.5 4.32 
L 22.5 32.04 
z
" style="fill: none"/>
   </g>
   <g id="matplotlib.axis_1">
    <g id="xtick_1"/>
    <g id="xtick_2"/>
    <g id="xtick_3"/>
    <g id="xtick_4"/>
   </g>
   <g id="matplotlib.axis_2">
    <g id="ytick_1"/>
    <g id="ytick_2"/>
   </g>
   <g id="line2d_1">
    <path d="M 28.840909 23.334545 
L 30.954545 18.895909 
L 33.068182 18.609545 
L 35.181818 20.327727 
L 37.295455 22.189091 
L 39.409091 22.475455 
L 41.522727 23.334545 
L 43.636364 27.916364 
L 45.75 30.78 
L 47.863636 27.057273 
L 49.977273 30.064091 
L 52.090909 26.055 
L 54.204545 26.484545 
L 56.318182 23.048182 
L 58.431818 23.477727 
L 60.545455 25.768636 
L 62.659091 25.482273 
L 64.772727 21.043636 
L 66.886364 21.043636 
L 69 26.627727 
L 71.113636 20.470909 
L 73.227273 29.634545 
L 75.340909 26.914091 
L 77.454545 30.78 
L 79.568182 26.770909 
L 81.681818 24.623182 
L 83.795455 27.486818 
L 85.909091 28.918636 
L 88.022727 27.057273 
L 90.136364 21.473182 
L 92.25 24.336818 
L 94.363636 25.625455 
L 96.477273 24.48 
L 98.590909 29.777727 
L 100.704545 29.491364 
L 102.818182 24.623182 
L 104.931818 27.63 
L 107.045455 30.350455 
L 109.159091 26.341364 
L 111.272727 29.205 
L 113.386364 26.198182 
L 115.5 27.486818 
L 117.613636 30.207273 
L 119.727273 29.777727 
L 121.840909 26.770909 
L 123.954545 29.920909 
L 126.068182 27.057273 
L 128.181818 29.348182 
L 130.295455 28.775455 
L 132.409091 30.064091 
L 134.522727 27.916364 
L 136.636364 27.63 
L 138.75 25.195909 
L 140.863636 28.345909 
L 142.977273 29.777727 
L 145.090909 29.634545 
L 147.204545 29.205 
L 149.318182 28.345909 
L 151.431818 29.205 
L 153.545455 27.343636 
L 155.659091 27.343636 
" clip-path="url(#pda19af5023)" style="fill: none; stroke: #e377c2; stroke-width: 2; stroke-linecap: square"/>
   </g>
   <g id="line2d_2">
    <path d="M 28.840909 15.316364 
L 30.954545 17.177727 
L 33.068182 18.895909 
L 35.181818 22.189091 
L 37.295455 24.48 
L 39.409091 21.616364 
L 41.522727 25.195909 
L 43.636364 18.466364 
L 45.75 21.043636 
L 47.863636 10.448182 
L 49.977273 15.889091 
L 52.090909 7.011818 
L 54.204545 5.58 
L 56.318182 13.741364 
L 58.431818 14.314091 
L 60.545455 14.170909 
L 62.659091 20.327727 
L 64.772727 25.052727 
L 66.886364 19.182273 
L 69 16.605 
L 71.113636 20.757273 
L 73.227273 26.341364 
L 75.340909 22.618636 
L 77.454545 19.898182 
L 79.568182 23.191364 
L 81.681818 23.907273 
L 83.795455 20.614091 
L 85.909091 23.477727 
L 88.022727 19.611818 
L 90.136364 17.320909 
L 92.25 25.195909 
L 94.363636 24.909545 
L 96.477273 22.905 
L 98.590909 26.341364 
L 100.704545 25.768636 
L 102.818182 24.909545 
L 104.931818 30.207273 
L 107.045455 27.773182 
L 109.159091 25.482273 
L 111.272727 25.768636 
L 113.386364 27.773182 
L 115.5 25.625455 
L 117.613636 27.486818 
L 119.727273 24.909545 
L 121.840909 24.193636 
L 123.954545 25.195909 
L 126.068182 26.627727 
L 128.181818 27.916364 
L 130.295455 29.348182 
L 132.409091 26.055 
L 134.522727 25.911818 
L 136.636364 27.486818 
L 138.75 26.055 
L 140.863636 29.491364 
L 142.977273 27.200455 
L 145.090909 25.482273 
L 147.204545 26.198182 
L 149.318182 26.627727 
L 151.431818 27.057273 
L 153.545455 27.63 
L 155.659091 27.200455 
" clip-path="url(#pda19af5023)" style="fill: none; stroke: #bcbd22; stroke-width: 2; stroke-linecap: square"/>
   </g>
   <g id="patch_3">
    <path d="M 22.5 32.04 
L 22.5 4.32 
" style="fill: none; stroke: #000000; stroke-width: 0.8; stroke-linejoin: miter; stroke-linecap: square"/>
   </g>
   <g id="patch_4">
    <path d="M 162 32.04 
L 162 4.32 
" style="fill: none; stroke: #000000; stroke-width: 0.8; stroke-linejoin: miter; stroke-linecap: square"/>
   </g>
   <g id="patch_5">
    <path d="M 22.5 32.04 
L 162 32.04 
" style="fill: none; stroke: #000000; stroke-width: 0.8; stroke-linejoin: miter; stroke-linecap: square"/>
   </g>
   <g id="patch_6">
    <path d="M 22.5 4.32 
L 162 4.32 
" style="fill: none; stroke: #000000; stroke-width: 0.8; stroke-linejoin: miter; stroke-linecap: square"/>
   </g>
  </g>
 </g>
 <defs>
  <clipPath id="pda19af5023">
   <rect x="22.5" y="4.32" width="139.5" height="27.72"/>
  </clipPath>
 </defs>
</svg>
