<?xml version="1.0" encoding="utf-8" standalone="no"?>
<!DOCTYPE svg PUBLIC "-//W3C//DTD SVG 1.1//EN"
  "http://www.w3.org/Graphics/SVG/1.1/DTD/svg11.dtd">
<svg xmlns:xlink="http://www.w3.org/1999/xlink" width="180pt" height="36pt" viewBox="0 0 180 36" xmlns="http://www.w3.org/2000/svg" version="1.1">
 <metadata>
  <rdf:RDF xmlns:dc="http://purl.org/dc/elements/1.1/" xmlns:cc="http://creativecommons.org/ns#" xmlns:rdf="http://www.w3.org/1999/02/22-rdf-syntax-ns#">
   <cc:Work>
    <dc:type rdf:resource="http://purl.org/dc/dcmitype/StillImage"/>
    <dc:date>2024-11-16T16:25:54.610401</dc:date>
    <dc:format>image/svg+xml</dc:format>
    <dc:creator>
     <cc:Agent>
      <dc:title>Matplotlib v3.9.1, https://matplotlib.org/</dc:title>
     </cc:Agent>
    </dc:creator>
   </cc:Work>
  </rdf:RDF>
 </metadata>
 <defs>
  <style type="text/css">*{stroke-linejoin: round; stroke-linecap: butt}</style>
 </defs>
 <g id="figure_1">
  <g id="patch_1">
   <path d="M 0 36 
L 180 36 
L 180 0 
L 0 0 
L 0 36 
z
" style="fill: none"/>
  </g>
  <g id="axes_1">
   <g id="patch_2">
    <path d="M 22.5 32.04 
L 162 32.04 
L 162 4.32 
L 22.5 4.32 
L 22.5 32.04 
z
" style="fill: none"/>
   </g>
   <g id="matplotlib.axis_1">
    <g id="xtick_1"/>
    <g id="xtick_2"/>
    <g id="xtick_3"/>
    <g id="xtick_4"/>
   </g>
   <g id="matplotlib.axis_2">
    <g id="ytick_1"/>
    <g id="ytick_2"/>
   </g>
   <g id="line2d_1">
    <path d="M 28.840909 11.443846 
L 30.954545 14.593846 
L 33.068182 18.422308 
L 35.181818 14.642308 
L 37.295455 11.589231 
L 39.409091 18.519231 
L 41.522727 19.343077 
L 43.636364 16.92 
L 45.75 15.126923 
L 47.863636 10.862308 
L 49.977273 16.29 
L 52.090909 16.677692 
L 54.204545 17.065385 
L 56.318182 17.065385 
L 58.431818 15.563077 
L 60.545455 18.858462 
L 62.659091 11.976923 
L 64.772727 16.435385 
L 66.886364 18.713077 
L 69 19.100769 
L 71.113636 20.748462 
L 73.227273 21.184615 
L 75.340909 18.373846 
L 77.454545 22.250769 
L 79.568182 22.202308 
L 81.681818 18.858462 
L 83.795455 21.426923 
L 85.909091 21.766154 
L 88.022727 22.105385 
L 90.136364 20.748462 
L 92.25 18.034615 
L 94.363636 22.977692 
L 96.477273 22.250769 
L 98.590909 23.171538 
L 100.704545 22.832308 
L 102.818182 23.801538 
L 104.931818 26.757692 
L 107.045455 20.893846 
L 109.159091 26.903077 
L 111.272727 25.206923 
L 113.386364 25.74 
L 115.5 24.819231 
L 117.613636 28.356923 
L 119.727273 26.224615 
L 121.840909 25.013077 
L 123.954545 26.176154 
L 126.068182 24.673846 
L 128.181818 25.352308 
L 130.295455 26.321538 
L 132.409091 23.656154 
L 134.522727 28.163077 
L 136.636364 26.660769 
L 138.75 28.308462 
L 140.863636 28.066154 
L 142.977273 30.78 
L 145.090909 22.299231 
L 147.204545 29.374615 
L 149.318182 27 
L 151.431818 29.229231 
L 153.545455 29.810769 
L 155.659091 27.484615 
" clip-path="url(#pe4dae73fdc)" style="fill: none; stroke: #e377c2; stroke-width: 2; stroke-linecap: square"/>
   </g>
   <g id="line2d_2">
    <path d="M 28.840909 14.545385 
L 30.954545 5.58 
L 33.068182 9.796154 
L 35.181818 12.267692 
L 37.295455 13.236923 
L 39.409091 19.633846 
L 41.522727 18.470769 
L 43.636364 12.122308 
L 45.75 10.716923 
L 47.863636 11.298462 
L 49.977273 8.1 
L 52.090909 16.29 
L 54.204545 18.567692 
L 56.318182 15.708462 
L 58.431818 16.774615 
L 60.545455 19.536923 
L 62.659091 19.246154 
L 64.772727 10.62 
L 66.886364 18.034615 
L 69 18.81 
L 71.113636 21.669231 
L 73.227273 22.59 
L 75.340909 19.779231 
L 77.454545 19.391538 
L 79.568182 17.743846 
L 81.681818 17.356154 
L 83.795455 19.052308 
L 85.909091 13.430769 
L 88.022727 19.973077 
L 90.136364 19.246154 
L 92.25 19.633846 
L 94.363636 18.616154 
L 96.477273 17.743846 
L 98.590909 20.07 
L 100.704545 23.026154 
L 102.818182 24.625385 
L 104.931818 19.488462 
L 107.045455 22.202308 
L 109.159091 19.779231 
L 111.272727 16.047692 
L 113.386364 23.995385 
L 115.5 16.580769 
L 117.613636 23.559231 
L 119.727273 22.541538 
L 121.840909 21.572308 
L 123.954545 20.748462 
L 126.068182 16.92 
L 128.181818 17.792308 
L 130.295455 17.501538 
L 132.409091 19.391538 
L 134.522727 18.567692 
L 136.636364 25.449231 
L 138.75 26.127692 
L 140.863636 25.643077 
L 142.977273 23.365385 
L 145.090909 22.444615 
L 147.204545 22.299231 
L 149.318182 20.457692 
L 151.431818 22.444615 
L 153.545455 17.113846 
L 155.659091 22.59 
" clip-path="url(#pe4dae73fdc)" style="fill: none; stroke: #bcbd22; stroke-width: 2; stroke-linecap: square"/>
   </g>
   <g id="patch_3">
    <path d="M 22.5 32.04 
L 22.5 4.32 
" style="fill: none; stroke: #000000; stroke-width: 0.8; stroke-linejoin: miter; stroke-linecap: square"/>
   </g>
   <g id="patch_4">
    <path d="M 162 32.04 
L 162 4.32 
" style="fill: none; stroke: #000000; stroke-width: 0.8; stroke-linejoin: miter; stroke-linecap: square"/>
   </g>
   <g id="patch_5">
    <path d="M 22.5 32.04 
L 162 32.04 
" style="fill: none; stroke: #000000; stroke-width: 0.8; stroke-linejoin: miter; stroke-linecap: square"/>
   </g>
   <g id="patch_6">
    <path d="M 22.5 4.32 
L 162 4.32 
" style="fill: none; stroke: #000000; stroke-width: 0.8; stroke-linejoin: miter; stroke-linecap: square"/>
   </g>
  </g>
 </g>
 <defs>
  <clipPath id="pe4dae73fdc">
   <rect x="22.5" y="4.32" width="139.5" height="27.72"/>
  </clipPath>
 </defs>
</svg>
