<?xml version="1.0" encoding="utf-8" standalone="no"?>
<!DOCTYPE svg PUBLIC "-//W3C//DTD SVG 1.1//EN"
  "http://www.w3.org/Graphics/SVG/1.1/DTD/svg11.dtd">
<svg xmlns:xlink="http://www.w3.org/1999/xlink" width="180pt" height="36pt" viewBox="0 0 180 36" xmlns="http://www.w3.org/2000/svg" version="1.1">
 <metadata>
  <rdf:RDF xmlns:dc="http://purl.org/dc/elements/1.1/" xmlns:cc="http://creativecommons.org/ns#" xmlns:rdf="http://www.w3.org/1999/02/22-rdf-syntax-ns#">
   <cc:Work>
    <dc:type rdf:resource="http://purl.org/dc/dcmitype/StillImage"/>
    <dc:date>2024-11-16T16:25:54.820048</dc:date>
    <dc:format>image/svg+xml</dc:format>
    <dc:creator>
     <cc:Agent>
      <dc:title>Matplotlib v3.9.1, https://matplotlib.org/</dc:title>
     </cc:Agent>
    </dc:creator>
   </cc:Work>
  </rdf:RDF>
 </metadata>
 <defs>
  <style type="text/css">*{stroke-linejoin: round; stroke-linecap: butt}</style>
 </defs>
 <g id="figure_1">
  <g id="patch_1">
   <path d="M 0 36 
L 180 36 
L 180 0 
L 0 0 
L 0 36 
z
" style="fill: none"/>
  </g>
  <g id="axes_1">
   <g id="patch_2">
    <path d="M 22.5 32.04 
L 162 32.04 
L 162 4.32 
L 22.5 4.32 
L 22.5 32.04 
z
" style="fill: none"/>
   </g>
   <g id="matplotlib.axis_1">
    <g id="xtick_1"/>
    <g id="xtick_2"/>
    <g id="xtick_3"/>
    <g id="xtick_4"/>
   </g>
   <g id="matplotlib.axis_2">
    <g id="ytick_1"/>
    <g id="ytick_2"/>
   </g>
   <g id="line2d_1">
    <path d="M 28.840909 30.78 
L 30.954545 30.375413 
L 33.068182 29.21945 
L 35.181818 28.468073 
L 37.295455 29.21945 
L 39.409091 28.294679 
L 41.522727 29.913028 
L 43.636364 29.450642 
L 45.75 29.161651 
L 47.863636 30.317615 
L 49.977273 30.375413 
L 52.090909 30.433211 
L 54.204545 30.086422 
L 56.318182 29.855229 
L 58.431818 29.681835 
L 60.545455 29.797431 
L 62.659091 30.086422 
L 64.772727 30.491009 
L 66.886364 30.491009 
L 69 30.491009 
L 71.113636 29.566239 
L 73.227273 30.259817 
L 75.340909 29.970826 
L 77.454545 30.202018 
L 79.568182 30.14422 
L 81.681818 30.433211 
L 83.795455 30.028624 
L 85.909091 30.259817 
L 88.022727 29.277248 
L 90.136364 29.797431 
L 92.25 30.317615 
L 94.363636 30.202018 
L 96.477273 30.548807 
L 98.590909 29.392844 
L 100.704545 29.161651 
L 102.818182 29.50844 
L 104.931818 30.202018 
L 107.045455 29.50844 
L 109.159091 28.410275 
L 111.272727 28.988257 
L 113.386364 29.161651 
L 115.5 29.681835 
L 117.613636 30.259817 
L 119.727273 28.930459 
L 121.840909 29.392844 
L 123.954545 29.046055 
L 126.068182 29.913028 
L 128.181818 29.624037 
L 130.295455 30.664404 
L 132.409091 30.433211 
L 134.522727 30.14422 
L 136.636364 29.855229 
L 138.75 27.658899 
L 140.863636 30.317615 
L 142.977273 29.855229 
L 145.090909 30.028624 
L 147.204545 28.872661 
L 149.318182 27.31211 
L 151.431818 27.774495 
L 153.545455 29.21945 
L 155.659091 30.028624 
" clip-path="url(#p72ed2248ae)" style="fill: none; stroke: #e377c2; stroke-width: 2; stroke-linecap: square"/>
   </g>
   <g id="line2d_2">
    <path d="M 28.840909 18.411193 
L 30.954545 16.966239 
L 33.068182 18.411193 
L 35.181818 17.081835 
L 37.295455 19.74055 
L 39.409091 19.393761 
L 41.522727 16.561651 
L 43.636364 10.781835 
L 45.75 16.157064 
L 47.863636 18.989174 
L 49.977273 15.925872 
L 52.090909 11.128624 
L 54.204545 16.272661 
L 56.318182 14.943303 
L 58.431818 16.157064 
L 60.545455 15.636881 
L 62.659091 14.018532 
L 64.772727 16.388257 
L 66.886364 18.757982 
L 69 11.648807 
L 71.113636 17.313028 
L 73.227273 15.001101 
L 75.340909 18.81578 
L 77.454545 20.37633 
L 79.568182 20.145138 
L 81.681818 16.041468 
L 83.795455 17.024037 
L 85.909091 20.202936 
L 88.022727 19.624954 
L 90.136364 20.838716 
L 92.25 12.342385 
L 94.363636 15.579083 
L 96.477273 12.920367 
L 98.590909 18.757982 
L 100.704545 17.139633 
L 102.818182 20.434128 
L 104.931818 15.232294 
L 107.045455 16.099266 
L 109.159091 9.510275 
L 111.272727 12.284587 
L 113.386364 13.267156 
L 115.5 15.636881 
L 117.613636 11.302018 
L 119.727273 11.995596 
L 121.840909 15.290092 
L 123.954545 18.006606 
L 126.068182 17.775413 
L 128.181818 12.053394 
L 130.295455 16.966239 
L 132.409091 13.267156 
L 134.522727 16.041468 
L 136.636364 15.34789 
L 138.75 16.677248 
L 140.863636 16.041468 
L 142.977273 11.070826 
L 145.090909 13.902936 
L 147.204545 5.58 
L 149.318182 16.214862 
L 151.431818 16.099266 
L 153.545455 14.827706 
L 155.659091 12.573578 
" clip-path="url(#p72ed2248ae)" style="fill: none; stroke: #bcbd22; stroke-width: 2; stroke-linecap: square"/>
   </g>
   <g id="patch_3">
    <path d="M 22.5 32.04 
L 22.5 4.32 
" style="fill: none; stroke: #000000; stroke-width: 0.8; stroke-linejoin: miter; stroke-linecap: square"/>
   </g>
   <g id="patch_4">
    <path d="M 162 32.04 
L 162 4.32 
" style="fill: none; stroke: #000000; stroke-width: 0.8; stroke-linejoin: miter; stroke-linecap: square"/>
   </g>
   <g id="patch_5">
    <path d="M 22.5 32.04 
L 162 32.04 
" style="fill: none; stroke: #000000; stroke-width: 0.8; stroke-linejoin: miter; stroke-linecap: square"/>
   </g>
   <g id="patch_6">
    <path d="M 22.5 4.32 
L 162 4.32 
" style="fill: none; stroke: #000000; stroke-width: 0.8; stroke-linejoin: miter; stroke-linecap: square"/>
   </g>
  </g>
 </g>
 <defs>
  <clipPath id="p72ed2248ae">
   <rect x="22.5" y="4.32" width="139.5" height="27.72"/>
  </clipPath>
 </defs>
</svg>
