<?xml version="1.0" encoding="utf-8" standalone="no"?>
<!DOCTYPE svg PUBLIC "-//W3C//DTD SVG 1.1//EN"
  "http://www.w3.org/Graphics/SVG/1.1/DTD/svg11.dtd">
<svg xmlns:xlink="http://www.w3.org/1999/xlink" width="180pt" height="36pt" viewBox="0 0 180 36" xmlns="http://www.w3.org/2000/svg" version="1.1">
 <metadata>
  <rdf:RDF xmlns:dc="http://purl.org/dc/elements/1.1/" xmlns:cc="http://creativecommons.org/ns#" xmlns:rdf="http://www.w3.org/1999/02/22-rdf-syntax-ns#">
   <cc:Work>
    <dc:type rdf:resource="http://purl.org/dc/dcmitype/StillImage"/>
    <dc:date>2024-11-16T16:25:53.754901</dc:date>
    <dc:format>image/svg+xml</dc:format>
    <dc:creator>
     <cc:Agent>
      <dc:title>Matplotlib v3.9.1, https://matplotlib.org/</dc:title>
     </cc:Agent>
    </dc:creator>
   </cc:Work>
  </rdf:RDF>
 </metadata>
 <defs>
  <style type="text/css">*{stroke-linejoin: round; stroke-linecap: butt}</style>
 </defs>
 <g id="figure_1">
  <g id="patch_1">
   <path d="M 0 36 
L 180 36 
L 180 0 
L 0 0 
L 0 36 
z
" style="fill: none"/>
  </g>
  <g id="axes_1">
   <g id="patch_2">
    <path d="M 22.5 32.04 
L 162 32.04 
L 162 4.32 
L 22.5 4.32 
L 22.5 32.04 
z
" style="fill: none"/>
   </g>
   <g id="matplotlib.axis_1">
    <g id="xtick_1"/>
    <g id="xtick_2"/>
    <g id="xtick_3"/>
    <g id="xtick_4"/>
   </g>
   <g id="matplotlib.axis_2">
    <g id="ytick_1"/>
    <g id="ytick_2"/>
   </g>
   <g id="line2d_1">
    <path d="M 28.840909 13.702314 
L 30.954545 17.034545 
L 33.068182 22.86595 
L 35.181818 24.115537 
L 37.295455 20.158512 
L 39.409091 24.740331 
L 41.522727 21.199835 
L 43.636364 7.246116 
L 45.75 22.449421 
L 47.863636 16.201488 
L 49.977273 14.743636 
L 52.090909 18.908926 
L 54.204545 15.160165 
L 56.318182 19.325455 
L 58.431818 26.822975 
L 60.545455 14.118843 
L 62.659091 25.573388 
L 64.772727 24.115537 
L 66.886364 26.822975 
L 69 18.700661 
L 71.113636 22.657686 
L 73.227273 20.366777 
L 75.340909 17.034545 
L 77.454545 30.363471 
L 79.568182 22.86595 
L 81.681818 29.738678 
L 83.795455 23.699008 
L 85.909091 19.950248 
L 88.022727 25.781653 
L 90.136364 23.699008 
L 92.25 24.532066 
L 94.363636 22.86595 
L 96.477273 21.824628 
L 98.590909 24.532066 
L 100.704545 19.533719 
L 102.818182 26.198182 
L 104.931818 24.323802 
L 107.045455 22.449421 
L 109.159091 20.158512 
L 111.272727 13.910579 
L 113.386364 17.867603 
L 115.5 18.492397 
L 117.613636 20.158512 
L 119.727273 24.740331 
L 121.840909 23.282479 
L 123.954545 24.323802 
L 126.068182 30.78 
L 128.181818 25.781653 
L 130.295455 22.449421 
L 132.409091 30.363471 
L 134.522727 24.115537 
L 136.636364 23.907273 
L 138.75 12.660992 
L 140.863636 23.282479 
L 142.977273 25.365124 
L 145.090909 22.032893 
L 147.204545 25.989917 
L 149.318182 21.824628 
L 151.431818 25.781653 
L 153.545455 26.406446 
L 155.659091 27.447769 
" clip-path="url(#p4d67413161)" style="fill: none; stroke: #e377c2; stroke-width: 2; stroke-linecap: square"/>
   </g>
   <g id="line2d_2">
    <path d="M 28.840909 16.618017 
L 30.954545 12.869256 
L 33.068182 22.657686 
L 35.181818 21.408099 
L 37.295455 13.702314 
L 39.409091 22.86595 
L 41.522727 17.034545 
L 43.636364 18.284132 
L 45.75 17.451074 
L 47.863636 16.618017 
L 49.977273 25.989917 
L 52.090909 21.824628 
L 54.204545 27.656033 
L 56.318182 19.950248 
L 58.431818 22.032893 
L 60.545455 29.113884 
L 62.659091 17.24281 
L 64.772727 18.075868 
L 66.886364 25.781653 
L 69 16.826281 
L 71.113636 11.411405 
L 73.227273 15.576694 
L 75.340909 6.829587 
L 77.454545 15.784959 
L 79.568182 20.783306 
L 81.681818 22.657686 
L 83.795455 25.989917 
L 85.909091 22.449421 
L 88.022727 15.993223 
L 90.136364 16.409752 
L 92.25 19.741983 
L 94.363636 17.034545 
L 96.477273 20.158512 
L 98.590909 17.451074 
L 100.704545 18.908926 
L 102.818182 17.451074 
L 104.931818 8.079174 
L 107.045455 11.619669 
L 109.159091 20.366777 
L 111.272727 14.535372 
L 113.386364 15.784959 
L 115.5 17.24281 
L 117.613636 5.58 
L 119.727273 22.449421 
L 121.840909 9.745289 
L 123.954545 8.079174 
L 126.068182 10.578347 
L 128.181818 10.786612 
L 130.295455 17.659339 
L 132.409091 17.867603 
L 134.522727 11.827934 
L 136.636364 16.826281 
L 138.75 15.784959 
L 140.863636 20.575041 
L 142.977273 17.451074 
L 145.090909 19.950248 
L 147.204545 18.075868 
L 149.318182 24.948595 
L 151.431818 18.908926 
L 153.545455 22.241157 
L 155.659091 10.786612 
" clip-path="url(#p4d67413161)" style="fill: none; stroke: #bcbd22; stroke-width: 2; stroke-linecap: square"/>
   </g>
   <g id="patch_3">
    <path d="M 22.5 32.04 
L 22.5 4.32 
" style="fill: none; stroke: #000000; stroke-width: 0.8; stroke-linejoin: miter; stroke-linecap: square"/>
   </g>
   <g id="patch_4">
    <path d="M 162 32.04 
L 162 4.32 
" style="fill: none; stroke: #000000; stroke-width: 0.8; stroke-linejoin: miter; stroke-linecap: square"/>
   </g>
   <g id="patch_5">
    <path d="M 22.5 32.04 
L 162 32.04 
" style="fill: none; stroke: #000000; stroke-width: 0.8; stroke-linejoin: miter; stroke-linecap: square"/>
   </g>
   <g id="patch_6">
    <path d="M 22.5 4.32 
L 162 4.32 
" style="fill: none; stroke: #000000; stroke-width: 0.8; stroke-linejoin: miter; stroke-linecap: square"/>
   </g>
  </g>
 </g>
 <defs>
  <clipPath id="p4d67413161">
   <rect x="22.5" y="4.32" width="139.5" height="27.72"/>
  </clipPath>
 </defs>
</svg>
