<?xml version="1.0" encoding="utf-8" standalone="no"?>
<!DOCTYPE svg PUBLIC "-//W3C//DTD SVG 1.1//EN"
  "http://www.w3.org/Graphics/SVG/1.1/DTD/svg11.dtd">
<svg xmlns:xlink="http://www.w3.org/1999/xlink" width="180pt" height="36pt" viewBox="0 0 180 36" xmlns="http://www.w3.org/2000/svg" version="1.1">
 <metadata>
  <rdf:RDF xmlns:dc="http://purl.org/dc/elements/1.1/" xmlns:cc="http://creativecommons.org/ns#" xmlns:rdf="http://www.w3.org/1999/02/22-rdf-syntax-ns#">
   <cc:Work>
    <dc:type rdf:resource="http://purl.org/dc/dcmitype/StillImage"/>
    <dc:date>2024-11-16T16:25:53.899261</dc:date>
    <dc:format>image/svg+xml</dc:format>
    <dc:creator>
     <cc:Agent>
      <dc:title>Matplotlib v3.9.1, https://matplotlib.org/</dc:title>
     </cc:Agent>
    </dc:creator>
   </cc:Work>
  </rdf:RDF>
 </metadata>
 <defs>
  <style type="text/css">*{stroke-linejoin: round; stroke-linecap: butt}</style>
 </defs>
 <g id="figure_1">
  <g id="patch_1">
   <path d="M 0 36 
L 180 36 
L 180 0 
L 0 0 
L 0 36 
z
" style="fill: none"/>
  </g>
  <g id="axes_1">
   <g id="patch_2">
    <path d="M 22.5 32.04 
L 162 32.04 
L 162 4.32 
L 22.5 4.32 
L 22.5 32.04 
z
" style="fill: none"/>
   </g>
   <g id="matplotlib.axis_1">
    <g id="xtick_1"/>
    <g id="xtick_2"/>
    <g id="xtick_3"/>
    <g id="xtick_4"/>
   </g>
   <g id="matplotlib.axis_2">
    <g id="ytick_1"/>
    <g id="ytick_2"/>
   </g>
   <g id="line2d_1">
    <path d="M 28.840909 30.78 
L 30.954545 29.690663 
L 33.068182 30.344265 
L 35.181818 29.981153 
L 37.295455 28.383458 
L 39.409091 28.673948 
L 41.522727 27.729856 
L 43.636364 26.422651 
L 45.75 27.076254 
L 47.863636 21.048588 
L 49.977273 22.501037 
L 52.090909 22.646282 
L 54.204545 27.511988 
L 56.318182 21.193833 
L 58.431818 21.12121 
L 60.545455 24.970202 
L 62.659091 24.970202 
L 64.772727 25.405937 
L 66.886364 23.009395 
L 69 25.478559 
L 71.113636 25.042824 
L 73.227273 22.936772 
L 75.340909 26.931009 
L 77.454545 27.003631 
L 79.568182 27.221499 
L 81.681818 21.847435 
L 83.795455 23.44513 
L 85.909091 20.177118 
L 88.022727 24.824957 
L 90.136364 23.44513 
L 92.25 24.02611 
L 94.363636 25.042824 
L 96.477273 24.316599 
L 98.590909 24.316599 
L 100.704545 22.210548 
L 102.818182 22.065303 
L 104.931818 19.160403 
L 107.045455 23.227262 
L 109.159091 24.171354 
L 111.272727 21.70219 
L 113.386364 20.104496 
L 115.5 19.959251 
L 117.613636 24.824957 
L 119.727273 19.668761 
L 121.840909 24.534467 
L 123.954545 26.495274 
L 126.068182 22.646282 
L 128.181818 23.227262 
L 130.295455 25.478559 
L 132.409091 23.953487 
L 134.522727 24.752334 
L 136.636364 25.260692 
L 138.75 27.076254 
L 140.863636 23.44513 
L 142.977273 26.132161 
L 145.090909 24.534467 
L 147.204545 24.607089 
L 149.318182 26.059539 
L 151.431818 28.383458 
L 153.545455 27.439366 
L 155.659091 24.970202 
" clip-path="url(#pe420b52df6)" style="fill: none; stroke: #e377c2; stroke-width: 2; stroke-linecap: square"/>
   </g>
   <g id="line2d_2">
    <path d="M 28.840909 11.535043 
L 30.954545 13.350605 
L 33.068182 17.199597 
L 35.181818 16.836484 
L 37.295455 18.942536 
L 39.409091 15.456657 
L 41.522727 14.294697 
L 43.636364 20.758098 
L 45.75 16.037637 
L 47.863636 13.060115 
L 49.977273 17.344841 
L 52.090909 10.009971 
L 54.204545 14.36732 
L 56.318182 13.060115 
L 58.431818 15.892392 
L 60.545455 16.182882 
L 62.659091 7.322939 
L 64.772727 6.015735 
L 66.886364 7.395562 
L 69 10.736196 
L 71.113636 7.468184 
L 73.227273 15.166167 
L 75.340909 14.36732 
L 77.454545 10.590951 
L 79.568182 10.518329 
L 81.681818 18.071066 
L 83.795455 13.641095 
L 85.909091 11.244553 
L 88.022727 12.33389 
L 90.136364 17.490086 
L 92.25 13.277983 
L 94.363636 15.456657 
L 96.477273 16.110259 
L 98.590909 13.20536 
L 100.704545 9.356369 
L 102.818182 8.630144 
L 104.931818 11.099308 
L 107.045455 12.769625 
L 109.159091 5.58 
L 111.272727 9.864726 
L 113.386364 16.473372 
L 115.5 15.311412 
L 117.613636 11.535043 
L 119.727273 7.468184 
L 121.840909 10.300461 
L 123.954545 14.222075 
L 126.068182 14.875677 
L 128.181818 11.099308 
L 130.295455 12.188646 
L 132.409091 12.406513 
L 134.522727 15.456657 
L 136.636364 10.518329 
L 138.75 12.769625 
L 140.863636 10.808818 
L 142.977273 14.36732 
L 145.090909 7.105072 
L 147.204545 10.373084 
L 149.318182 12.188646 
L 151.431818 13.20536 
L 153.545455 10.736196 
L 155.659091 17.344841 
" clip-path="url(#pe420b52df6)" style="fill: none; stroke: #bcbd22; stroke-width: 2; stroke-linecap: square"/>
   </g>
   <g id="patch_3">
    <path d="M 22.5 32.04 
L 22.5 4.32 
" style="fill: none; stroke: #000000; stroke-width: 0.8; stroke-linejoin: miter; stroke-linecap: square"/>
   </g>
   <g id="patch_4">
    <path d="M 162 32.04 
L 162 4.32 
" style="fill: none; stroke: #000000; stroke-width: 0.8; stroke-linejoin: miter; stroke-linecap: square"/>
   </g>
   <g id="patch_5">
    <path d="M 22.5 32.04 
L 162 32.04 
" style="fill: none; stroke: #000000; stroke-width: 0.8; stroke-linejoin: miter; stroke-linecap: square"/>
   </g>
   <g id="patch_6">
    <path d="M 22.5 4.32 
L 162 4.32 
" style="fill: none; stroke: #000000; stroke-width: 0.8; stroke-linejoin: miter; stroke-linecap: square"/>
   </g>
  </g>
 </g>
 <defs>
  <clipPath id="pe420b52df6">
   <rect x="22.5" y="4.32" width="139.5" height="27.72"/>
  </clipPath>
 </defs>
</svg>
