<?xml version="1.0" encoding="utf-8" standalone="no"?>
<!DOCTYPE svg PUBLIC "-//W3C//DTD SVG 1.1//EN"
  "http://www.w3.org/Graphics/SVG/1.1/DTD/svg11.dtd">
<svg xmlns:xlink="http://www.w3.org/1999/xlink" width="180pt" height="36pt" viewBox="0 0 180 36" xmlns="http://www.w3.org/2000/svg" version="1.1">
 <metadata>
  <rdf:RDF xmlns:dc="http://purl.org/dc/elements/1.1/" xmlns:cc="http://creativecommons.org/ns#" xmlns:rdf="http://www.w3.org/1999/02/22-rdf-syntax-ns#">
   <cc:Work>
    <dc:type rdf:resource="http://purl.org/dc/dcmitype/StillImage"/>
    <dc:date>2024-11-16T16:25:54.959916</dc:date>
    <dc:format>image/svg+xml</dc:format>
    <dc:creator>
     <cc:Agent>
      <dc:title>Matplotlib v3.9.1, https://matplotlib.org/</dc:title>
     </cc:Agent>
    </dc:creator>
   </cc:Work>
  </rdf:RDF>
 </metadata>
 <defs>
  <style type="text/css">*{stroke-linejoin: round; stroke-linecap: butt}</style>
 </defs>
 <g id="figure_1">
  <g id="patch_1">
   <path d="M 0 36 
L 180 36 
L 180 0 
L 0 0 
L 0 36 
z
" style="fill: none"/>
  </g>
  <g id="axes_1">
   <g id="patch_2">
    <path d="M 22.5 32.04 
L 162 32.04 
L 162 4.32 
L 22.5 4.32 
L 22.5 32.04 
z
" style="fill: none"/>
   </g>
   <g id="matplotlib.axis_1">
    <g id="xtick_1"/>
    <g id="xtick_2"/>
    <g id="xtick_3"/>
    <g id="xtick_4"/>
   </g>
   <g id="matplotlib.axis_2">
    <g id="ytick_1"/>
    <g id="ytick_2"/>
   </g>
   <g id="line2d_1">
    <path d="M 28.840909 27.338049 
L 30.954545 23.03561 
L 33.068182 23.896098 
L 35.181818 25.125366 
L 37.295455 21.683415 
L 39.409091 22.052195 
L 41.522727 24.387805 
L 43.636364 18.856098 
L 45.75 11.849268 
L 47.863636 21.929268 
L 49.977273 15.66 
L 52.090909 15.414146 
L 54.204545 17.380976 
L 56.318182 18.979024 
L 58.431818 15.782927 
L 60.545455 15.168293 
L 62.659091 22.052195 
L 64.772727 16.151707 
L 66.886364 18.36439 
L 69 13.816098 
L 71.113636 16.520488 
L 73.227273 14.922439 
L 75.340909 16.520488 
L 77.454545 14.184878 
L 79.568182 17.626829 
L 81.681818 14.307805 
L 83.795455 17.749756 
L 85.909091 19.101951 
L 88.022727 21.560488 
L 90.136364 20.33122 
L 92.25 16.151707 
L 94.363636 21.191707 
L 96.477273 13.939024 
L 98.590909 16.151707 
L 100.704545 24.633659 
L 102.818182 15.782927 
L 104.931818 19.224878 
L 107.045455 10.497073 
L 109.159091 15.168293 
L 111.272727 15.29122 
L 113.386364 21.06878 
L 115.5 20.577073 
L 117.613636 21.437561 
L 119.727273 9.882439 
L 121.840909 17.626829 
L 123.954545 20.577073 
L 126.068182 20.085366 
L 128.181818 18.856098 
L 130.295455 15.29122 
L 132.409091 15.905854 
L 134.522727 17.258049 
L 136.636364 8.530244 
L 138.75 11.480488 
L 140.863636 14.307805 
L 142.977273 15.905854 
L 145.090909 19.839512 
L 147.204545 18.610244 
L 149.318182 18.733171 
L 151.431818 11.972195 
L 153.545455 12.095122 
L 155.659091 16.151707 
" clip-path="url(#p56fa352ad4)" style="fill: none; stroke: #e377c2; stroke-width: 2; stroke-linecap: square"/>
   </g>
   <g id="line2d_2">
    <path d="M 28.840909 27.460976 
L 30.954545 25.125366 
L 33.068182 30.165366 
L 35.181818 28.936098 
L 37.295455 28.07561 
L 39.409091 24.510732 
L 41.522727 20.7 
L 43.636364 30.41122 
L 45.75 30.78 
L 47.863636 25.985854 
L 49.977273 24.756585 
L 52.090909 26.600488 
L 54.204545 27.215122 
L 56.318182 23.896098 
L 58.431818 27.829756 
L 60.545455 19.593659 
L 62.659091 24.387805 
L 64.772727 27.460976 
L 66.886364 21.437561 
L 69 23.281463 
L 71.113636 25.248293 
L 73.227273 23.650244 
L 75.340909 22.420976 
L 77.454545 25.985854 
L 79.568182 21.806341 
L 81.681818 23.281463 
L 83.795455 26.354634 
L 85.909091 26.354634 
L 88.022727 25.617073 
L 90.136364 19.716585 
L 92.25 16.274634 
L 94.363636 15.414146 
L 96.477273 18.118537 
L 98.590909 14.307805 
L 100.704545 8.776098 
L 102.818182 14.922439 
L 104.931818 11.357561 
L 107.045455 5.58 
L 109.159091 12.095122 
L 111.272727 7.669756 
L 113.386364 10.865854 
L 115.5 10.98878 
L 117.613636 14.307805 
L 119.727273 11.972195 
L 121.840909 15.537073 
L 123.954545 17.258049 
L 126.068182 18.733171 
L 128.181818 15.414146 
L 130.295455 15.905854 
L 132.409091 12.95561 
L 134.522727 17.872683 
L 136.636364 14.676585 
L 138.75 11.234634 
L 140.863636 15.66 
L 142.977273 11.972195 
L 145.090909 14.061951 
L 147.204545 9.636585 
L 149.318182 14.061951 
L 151.431818 6.440488 
L 153.545455 11.603415 
L 155.659091 10.742927 
" clip-path="url(#p56fa352ad4)" style="fill: none; stroke: #bcbd22; stroke-width: 2; stroke-linecap: square"/>
   </g>
   <g id="patch_3">
    <path d="M 22.5 32.04 
L 22.5 4.32 
" style="fill: none; stroke: #000000; stroke-width: 0.8; stroke-linejoin: miter; stroke-linecap: square"/>
   </g>
   <g id="patch_4">
    <path d="M 162 32.04 
L 162 4.32 
" style="fill: none; stroke: #000000; stroke-width: 0.8; stroke-linejoin: miter; stroke-linecap: square"/>
   </g>
   <g id="patch_5">
    <path d="M 22.5 32.04 
L 162 32.04 
" style="fill: none; stroke: #000000; stroke-width: 0.8; stroke-linejoin: miter; stroke-linecap: square"/>
   </g>
   <g id="patch_6">
    <path d="M 22.5 4.32 
L 162 4.32 
" style="fill: none; stroke: #000000; stroke-width: 0.8; stroke-linejoin: miter; stroke-linecap: square"/>
   </g>
  </g>
 </g>
 <defs>
  <clipPath id="p56fa352ad4">
   <rect x="22.5" y="4.32" width="139.5" height="27.72"/>
  </clipPath>
 </defs>
</svg>
