<?xml version="1.0" encoding="utf-8" standalone="no"?>
<!DOCTYPE svg PUBLIC "-//W3C//DTD SVG 1.1//EN"
  "http://www.w3.org/Graphics/SVG/1.1/DTD/svg11.dtd">
<svg xmlns:xlink="http://www.w3.org/1999/xlink" width="180pt" height="36pt" viewBox="0 0 180 36" xmlns="http://www.w3.org/2000/svg" version="1.1">
 <metadata>
  <rdf:RDF xmlns:dc="http://purl.org/dc/elements/1.1/" xmlns:cc="http://creativecommons.org/ns#" xmlns:rdf="http://www.w3.org/1999/02/22-rdf-syntax-ns#">
   <cc:Work>
    <dc:type rdf:resource="http://purl.org/dc/dcmitype/StillImage"/>
    <dc:date>2024-11-16T16:25:54.534696</dc:date>
    <dc:format>image/svg+xml</dc:format>
    <dc:creator>
     <cc:Agent>
      <dc:title>Matplotlib v3.9.1, https://matplotlib.org/</dc:title>
     </cc:Agent>
    </dc:creator>
   </cc:Work>
  </rdf:RDF>
 </metadata>
 <defs>
  <style type="text/css">*{stroke-linejoin: round; stroke-linecap: butt}</style>
 </defs>
 <g id="figure_1">
  <g id="patch_1">
   <path d="M 0 36 
L 180 36 
L 180 0 
L 0 0 
L 0 36 
z
" style="fill: none"/>
  </g>
  <g id="axes_1">
   <g id="patch_2">
    <path d="M 22.5 32.04 
L 162 32.04 
L 162 4.32 
L 22.5 4.32 
L 22.5 32.04 
z
" style="fill: none"/>
   </g>
   <g id="matplotlib.axis_1">
    <g id="xtick_1"/>
    <g id="xtick_2"/>
    <g id="xtick_3"/>
    <g id="xtick_4"/>
   </g>
   <g id="matplotlib.axis_2">
    <g id="ytick_1"/>
    <g id="ytick_2"/>
   </g>
   <g id="line2d_1">
    <path d="M 28.840909 29.911034 
L 30.954545 29.737241 
L 33.068182 28.404828 
L 35.181818 28.83931 
L 37.295455 29.302759 
L 39.409091 29.331724 
L 41.522727 29.476552 
L 43.636364 29.013103 
L 45.75 28.83931 
L 47.863636 29.244828 
L 49.977273 28.926207 
L 52.090909 28.404828 
L 54.204545 28.433793 
L 56.318182 28.723448 
L 58.431818 29.013103 
L 60.545455 29.186897 
L 62.659091 29.534483 
L 64.772727 28.028276 
L 66.886364 28.897241 
L 69 28.897241 
L 71.113636 30.026897 
L 73.227273 29.331724 
L 75.340909 28.897241 
L 77.454545 28.375862 
L 79.568182 28.926207 
L 81.681818 27.854483 
L 83.795455 29.36069 
L 85.909091 29.447586 
L 88.022727 30.084828 
L 90.136364 29.621379 
L 92.25 29.534483 
L 94.363636 28.897241 
L 96.477273 28.984138 
L 98.590909 30.113793 
L 100.704545 29.244828 
L 102.818182 29.824138 
L 104.931818 29.505517 
L 107.045455 29.911034 
L 109.159091 29.563448 
L 111.272727 29.824138 
L 113.386364 30.142759 
L 115.5 30.287586 
L 117.613636 29.418621 
L 119.727273 30.577241 
L 121.840909 30.635172 
L 123.954545 30.345517 
L 126.068182 29.592414 
L 128.181818 27.767586 
L 130.295455 27.622759 
L 132.409091 27.188276 
L 134.522727 29.418621 
L 136.636364 26.724828 
L 138.75 28.723448 
L 140.863636 29.215862 
L 142.977273 28.868276 
L 145.090909 30.78 
L 147.204545 29.447586 
L 149.318182 29.94 
L 151.431818 30.345517 
L 153.545455 28.955172 
L 155.659091 29.592414 
" clip-path="url(#pd1f885b8f7)" style="fill: none; stroke: #e377c2; stroke-width: 2; stroke-linecap: square"/>
   </g>
   <g id="line2d_2">
    <path d="M 28.840909 29.215862 
L 30.954545 29.302759 
L 33.068182 27.246207 
L 35.181818 27.275172 
L 37.295455 26.522069 
L 39.409091 24.031034 
L 41.522727 24.002069 
L 43.636364 23.248966 
L 45.75 22.090345 
L 47.863636 23.306897 
L 49.977273 22.756552 
L 52.090909 20.613103 
L 54.204545 22.495862 
L 56.318182 23.075172 
L 58.431818 25.508276 
L 60.545455 14.443448 
L 62.659091 16.442069 
L 64.772727 9.78 
L 66.886364 11.952414 
L 69 15.109655 
L 71.113636 9.837931 
L 73.227273 5.58 
L 75.340909 11.981379 
L 77.454545 12.56069 
L 79.568182 13.487586 
L 81.681818 10.35931 
L 83.795455 12.850345 
L 85.909091 15.08069 
L 88.022727 14.617241 
L 90.136364 8.389655 
L 92.25 15.717931 
L 94.363636 13.98 
L 96.477273 9.837931 
L 98.590909 10.88069 
L 100.704545 15.022759 
L 102.818182 12.213103 
L 104.931818 9.171724 
L 107.045455 11.257241 
L 109.159091 14.55931 
L 111.272727 14.153793 
L 113.386364 12.126207 
L 115.5 15.92069 
L 117.613636 15.688966 
L 119.727273 13.053103 
L 121.840909 14.530345 
L 123.954545 15.949655 
L 126.068182 15.746897 
L 128.181818 10.533103 
L 130.295455 12.3 
L 132.409091 10.272414 
L 134.522727 14.385517 
L 136.636364 15.370345 
L 138.75 15.225517 
L 140.863636 16.036552 
L 142.977273 13.632414 
L 145.090909 14.733103 
L 147.204545 12.676552 
L 149.318182 11.923448 
L 151.431818 9.287586 
L 153.545455 9.895862 
L 155.659091 9.287586 
" clip-path="url(#pd1f885b8f7)" style="fill: none; stroke: #bcbd22; stroke-width: 2; stroke-linecap: square"/>
   </g>
   <g id="patch_3">
    <path d="M 22.5 32.04 
L 22.5 4.32 
" style="fill: none; stroke: #000000; stroke-width: 0.8; stroke-linejoin: miter; stroke-linecap: square"/>
   </g>
   <g id="patch_4">
    <path d="M 162 32.04 
L 162 4.32 
" style="fill: none; stroke: #000000; stroke-width: 0.8; stroke-linejoin: miter; stroke-linecap: square"/>
   </g>
   <g id="patch_5">
    <path d="M 22.5 32.04 
L 162 32.04 
" style="fill: none; stroke: #000000; stroke-width: 0.8; stroke-linejoin: miter; stroke-linecap: square"/>
   </g>
   <g id="patch_6">
    <path d="M 22.5 4.32 
L 162 4.32 
" style="fill: none; stroke: #000000; stroke-width: 0.8; stroke-linejoin: miter; stroke-linecap: square"/>
   </g>
  </g>
 </g>
 <defs>
  <clipPath id="pd1f885b8f7">
   <rect x="22.5" y="4.32" width="139.5" height="27.72"/>
  </clipPath>
 </defs>
</svg>
