<?xml version="1.0" encoding="utf-8" standalone="no"?>
<!DOCTYPE svg PUBLIC "-//W3C//DTD SVG 1.1//EN"
  "http://www.w3.org/Graphics/SVG/1.1/DTD/svg11.dtd">
<svg xmlns:xlink="http://www.w3.org/1999/xlink" width="180pt" height="36pt" viewBox="0 0 180 36" xmlns="http://www.w3.org/2000/svg" version="1.1">
 <metadata>
  <rdf:RDF xmlns:dc="http://purl.org/dc/elements/1.1/" xmlns:cc="http://creativecommons.org/ns#" xmlns:rdf="http://www.w3.org/1999/02/22-rdf-syntax-ns#">
   <cc:Work>
    <dc:type rdf:resource="http://purl.org/dc/dcmitype/StillImage"/>
    <dc:date>2024-11-16T16:25:53.824889</dc:date>
    <dc:format>image/svg+xml</dc:format>
    <dc:creator>
     <cc:Agent>
      <dc:title>Matplotlib v3.9.1, https://matplotlib.org/</dc:title>
     </cc:Agent>
    </dc:creator>
   </cc:Work>
  </rdf:RDF>
 </metadata>
 <defs>
  <style type="text/css">*{stroke-linejoin: round; stroke-linecap: butt}</style>
 </defs>
 <g id="figure_1">
  <g id="patch_1">
   <path d="M 0 36 
L 180 36 
L 180 0 
L 0 0 
L 0 36 
z
" style="fill: none"/>
  </g>
  <g id="axes_1">
   <g id="patch_2">
    <path d="M 22.5 32.04 
L 162 32.04 
L 162 4.32 
L 22.5 4.32 
L 22.5 32.04 
z
" style="fill: none"/>
   </g>
   <g id="matplotlib.axis_1">
    <g id="xtick_1"/>
    <g id="xtick_2"/>
    <g id="xtick_3"/>
    <g id="xtick_4"/>
   </g>
   <g id="matplotlib.axis_2">
    <g id="ytick_1"/>
    <g id="ytick_2"/>
   </g>
   <g id="line2d_1">
    <path d="M 28.840909 28.627236 
L 30.954545 29.809146 
L 33.068182 25.841307 
L 35.181818 28.331759 
L 37.295455 29.429246 
L 39.409091 28.669447 
L 41.522727 26.221206 
L 43.636364 29.17598 
L 45.75 27.318693 
L 47.863636 27.740804 
L 49.977273 29.429246 
L 52.090909 27.276482 
L 54.204545 30.104623 
L 56.318182 27.529749 
L 58.431818 26.052362 
L 60.545455 27.149849 
L 62.659091 28.458392 
L 64.772727 28.331759 
L 66.886364 28.247337 
L 69 30.231256 
L 71.113636 28.922714 
L 73.227273 30.78 
L 75.340909 27.909648 
L 77.454545 27.445327 
L 79.568182 25.841307 
L 81.681818 24.659397 
L 83.795455 24.279497 
L 85.909091 25.376985 
L 88.022727 23.18201 
L 90.136364 24.828241 
L 92.25 23.393065 
L 94.363636 23.815176 
L 96.477273 23.055377 
L 98.590909 23.772965 
L 100.704545 23.308643 
L 102.818182 23.730754 
L 104.931818 23.393065 
L 107.045455 24.448342 
L 109.159091 22.759899 
L 111.272727 25.714673 
L 113.386364 25.123719 
L 115.5 25.503618 
L 117.613636 23.266432 
L 119.727273 23.435276 
L 121.840909 22.506633 
L 123.954545 24.997085 
L 126.068182 24.237286 
L 128.181818 21.324724 
L 130.295455 21.873467 
L 132.409091 25.419196 
L 134.522727 21.746834 
L 136.636364 21.071457 
L 138.75 21.029246 
L 140.863636 19.805126 
L 142.977273 23.139799 
L 145.090909 23.139799 
L 147.204545 24.78603 
L 149.318182 23.604121 
L 151.431818 23.857387 
L 153.545455 22.928744 
L 155.659091 23.266432 
" clip-path="url(#pafe00a737e)" style="fill: none; stroke: #e377c2; stroke-width: 2; stroke-linecap: square"/>
   </g>
   <g id="line2d_2">
    <path d="M 28.840909 27.276482 
L 30.954545 24.406131 
L 33.068182 24.828241 
L 35.181818 22.717688 
L 37.295455 20.902613 
L 39.409091 18.032261 
L 41.522727 16.892563 
L 43.636364 20.607136 
L 45.75 16.090553 
L 47.863636 17.145829 
L 49.977273 7.099598 
L 52.090909 8.661407 
L 54.204545 13.98 
L 56.318182 14.824221 
L 58.431818 9.674472 
L 60.545455 16.217186 
L 62.659091 8.956884 
L 64.772727 7.226231 
L 66.886364 5.58 
L 69 7.943819 
L 71.113636 16.470452 
L 73.227273 15.16191 
L 75.340909 15.921709 
L 77.454545 14.570955 
L 79.568182 9.547839 
L 81.681818 10.856382 
L 83.795455 11.151859 
L 85.909091 13.726734 
L 88.022727 11.700603 
L 90.136364 13.346834 
L 92.25 11.616181 
L 94.363636 16.681508 
L 96.477273 14.359899 
L 98.590909 14.359899 
L 100.704545 14.824221 
L 102.818182 14.570955 
L 104.931818 17.694573 
L 107.045455 18.834271 
L 109.159091 20.649347 
L 111.272727 19.678492 
L 113.386364 20.185025 
L 115.5 17.061407 
L 117.613636 16.259397 
L 119.727273 15.246332 
L 121.840909 16.38603 
L 123.954545 15.795075 
L 126.068182 19.467437 
L 128.181818 16.38603 
L 130.295455 19.17196 
L 132.409091 19.509648 
L 134.522727 17.356884 
L 136.636364 18.327739 
L 138.75 18.285528 
L 140.863636 16.723719 
L 142.977273 19.509648 
L 145.090909 17.821206 
L 147.204545 19.720704 
L 149.318182 16.301608 
L 151.431818 16.428241 
L 153.545455 19.509648 
L 155.659091 18.581005 
" clip-path="url(#pafe00a737e)" style="fill: none; stroke: #bcbd22; stroke-width: 2; stroke-linecap: square"/>
   </g>
   <g id="patch_3">
    <path d="M 22.5 32.04 
L 22.5 4.32 
" style="fill: none; stroke: #000000; stroke-width: 0.8; stroke-linejoin: miter; stroke-linecap: square"/>
   </g>
   <g id="patch_4">
    <path d="M 162 32.04 
L 162 4.32 
" style="fill: none; stroke: #000000; stroke-width: 0.8; stroke-linejoin: miter; stroke-linecap: square"/>
   </g>
   <g id="patch_5">
    <path d="M 22.5 32.04 
L 162 32.04 
" style="fill: none; stroke: #000000; stroke-width: 0.8; stroke-linejoin: miter; stroke-linecap: square"/>
   </g>
   <g id="patch_6">
    <path d="M 22.5 4.32 
L 162 4.32 
" style="fill: none; stroke: #000000; stroke-width: 0.8; stroke-linejoin: miter; stroke-linecap: square"/>
   </g>
  </g>
 </g>
 <defs>
  <clipPath id="pafe00a737e">
   <rect x="22.5" y="4.32" width="139.5" height="27.72"/>
  </clipPath>
 </defs>
</svg>
