<?xml version="1.0" encoding="utf-8" standalone="no"?>
<!DOCTYPE svg PUBLIC "-//W3C//DTD SVG 1.1//EN"
  "http://www.w3.org/Graphics/SVG/1.1/DTD/svg11.dtd">
<svg xmlns:xlink="http://www.w3.org/1999/xlink" width="180pt" height="36pt" viewBox="0 0 180 36" xmlns="http://www.w3.org/2000/svg" version="1.1">
 <metadata>
  <rdf:RDF xmlns:dc="http://purl.org/dc/elements/1.1/" xmlns:cc="http://creativecommons.org/ns#" xmlns:rdf="http://www.w3.org/1999/02/22-rdf-syntax-ns#">
   <cc:Work>
    <dc:type rdf:resource="http://purl.org/dc/dcmitype/StillImage"/>
    <dc:date>2024-11-16T16:25:54.357924</dc:date>
    <dc:format>image/svg+xml</dc:format>
    <dc:creator>
     <cc:Agent>
      <dc:title>Matplotlib v3.9.1, https://matplotlib.org/</dc:title>
     </cc:Agent>
    </dc:creator>
   </cc:Work>
  </rdf:RDF>
 </metadata>
 <defs>
  <style type="text/css">*{stroke-linejoin: round; stroke-linecap: butt}</style>
 </defs>
 <g id="figure_1">
  <g id="patch_1">
   <path d="M 0 36 
L 180 36 
L 180 0 
L 0 0 
L 0 36 
z
" style="fill: none"/>
  </g>
  <g id="axes_1">
   <g id="patch_2">
    <path d="M 22.5 32.04 
L 162 32.04 
L 162 4.32 
L 22.5 4.32 
L 22.5 32.04 
z
" style="fill: none"/>
   </g>
   <g id="matplotlib.axis_1">
    <g id="xtick_1"/>
    <g id="xtick_2"/>
    <g id="xtick_3"/>
    <g id="xtick_4"/>
   </g>
   <g id="matplotlib.axis_2">
    <g id="ytick_1"/>
    <g id="ytick_2"/>
   </g>
   <g id="line2d_1">
    <path d="M 28.840909 25.956238 
L 30.954545 26.455248 
L 33.068182 28.617624 
L 35.181818 29.366139 
L 37.295455 27.120594 
L 39.409091 28.201782 
L 41.522727 22.712673 
L 43.636364 23.37802 
L 45.75 24.791881 
L 47.863636 26.704752 
L 49.977273 25.207723 
L 52.090909 23.294851 
L 54.204545 23.128515 
L 56.318182 22.38 
L 58.431818 20.799802 
L 60.545455 20.467129 
L 62.659091 22.213663 
L 64.772727 24.209703 
L 66.886364 26.787921 
L 69 22.213663 
L 71.113636 20.134455 
L 73.227273 22.795842 
L 75.340909 21.548317 
L 77.454545 14.395842 
L 79.568182 22.87901 
L 81.681818 17.805743 
L 83.795455 19.635446 
L 85.909091 16.225545 
L 88.022727 19.219604 
L 90.136364 16.558218 
L 92.25 16.47505 
L 94.363636 13.896832 
L 96.477273 14.47901 
L 98.590909 16.974059 
L 100.704545 19.385941 
L 102.818182 17.888911 
L 104.931818 14.894851 
L 107.045455 17.140396 
L 109.159091 18.471089 
L 111.272727 16.308713 
L 113.386364 17.057228 
L 115.5 9.904752 
L 117.613636 14.645347 
L 119.727273 11.235446 
L 121.840909 18.554257 
L 123.954545 12.98198 
L 126.068182 18.304752 
L 128.181818 17.306733 
L 130.295455 14.229505 
L 132.409091 12.898812 
L 134.522727 15.726535 
L 136.636364 21.049307 
L 138.75 14.063168 
L 140.863636 13.98 
L 142.977273 8.490891 
L 145.090909 8.07505 
L 147.204545 15.892871 
L 149.318182 9.738416 
L 151.431818 9.322574 
L 153.545455 10.403762 
L 155.659091 11.069109 
" clip-path="url(#p68a8985398)" style="fill: none; stroke: #e377c2; stroke-width: 2; stroke-linecap: square"/>
   </g>
   <g id="line2d_2">
    <path d="M 28.840909 30.364158 
L 30.954545 30.364158 
L 33.068182 27.952277 
L 35.181818 30.78 
L 37.295455 27.952277 
L 39.409091 28.950297 
L 41.522727 24.542376 
L 43.636364 28.451287 
L 45.75 29.78198 
L 47.863636 27.120594 
L 49.977273 26.787921 
L 52.090909 27.370099 
L 54.204545 27.619604 
L 56.318182 26.538416 
L 58.431818 28.035446 
L 60.545455 26.621584 
L 62.659091 26.455248 
L 64.772727 26.455248 
L 66.886364 23.87703 
L 69 25.290891 
L 71.113636 25.956238 
L 73.227273 22.795842 
L 75.340909 22.213663 
L 77.454545 24.708713 
L 79.568182 18.471089 
L 81.681818 22.047327 
L 83.795455 14.063168 
L 85.909091 24.292871 
L 88.022727 21.548317 
L 90.136364 20.88297 
L 92.25 24.209703 
L 94.363636 15.393861 
L 96.477273 18.970099 
L 98.590909 20.300792 
L 100.704545 19.801782 
L 102.818182 18.387921 
L 104.931818 11.401782 
L 107.045455 13.564158 
L 109.159091 13.065149 
L 111.272727 14.728515 
L 113.386364 14.645347 
L 115.5 13.397822 
L 117.613636 5.58 
L 119.727273 19.136436 
L 121.840909 17.140396 
L 123.954545 14.229505 
L 126.068182 15.47703 
L 128.181818 10.154257 
L 130.295455 9.738416 
L 132.409091 9.987921 
L 134.522727 9.821584 
L 136.636364 12.48297 
L 138.75 13.813663 
L 140.863636 8.07505 
L 142.977273 13.98 
L 145.090909 11.48495 
L 147.204545 10.819604 
L 149.318182 7.326535 
L 151.431818 8.823564 
L 153.545455 15.47703 
L 155.659091 18.304752 
" clip-path="url(#p68a8985398)" style="fill: none; stroke: #bcbd22; stroke-width: 2; stroke-linecap: square"/>
   </g>
   <g id="patch_3">
    <path d="M 22.5 32.04 
L 22.5 4.32 
" style="fill: none; stroke: #000000; stroke-width: 0.8; stroke-linejoin: miter; stroke-linecap: square"/>
   </g>
   <g id="patch_4">
    <path d="M 162 32.04 
L 162 4.32 
" style="fill: none; stroke: #000000; stroke-width: 0.8; stroke-linejoin: miter; stroke-linecap: square"/>
   </g>
   <g id="patch_5">
    <path d="M 22.5 32.04 
L 162 32.04 
" style="fill: none; stroke: #000000; stroke-width: 0.8; stroke-linejoin: miter; stroke-linecap: square"/>
   </g>
   <g id="patch_6">
    <path d="M 22.5 4.32 
L 162 4.32 
" style="fill: none; stroke: #000000; stroke-width: 0.8; stroke-linejoin: miter; stroke-linecap: square"/>
   </g>
  </g>
 </g>
 <defs>
  <clipPath id="p68a8985398">
   <rect x="22.5" y="4.32" width="139.5" height="27.72"/>
  </clipPath>
 </defs>
</svg>
