<?xml version="1.0" encoding="utf-8" standalone="no"?>
<!DOCTYPE svg PUBLIC "-//W3C//DTD SVG 1.1//EN"
  "http://www.w3.org/Graphics/SVG/1.1/DTD/svg11.dtd">
<svg xmlns:xlink="http://www.w3.org/1999/xlink" width="180pt" height="36pt" viewBox="0 0 180 36" xmlns="http://www.w3.org/2000/svg" version="1.1">
 <metadata>
  <rdf:RDF xmlns:dc="http://purl.org/dc/elements/1.1/" xmlns:cc="http://creativecommons.org/ns#" xmlns:rdf="http://www.w3.org/1999/02/22-rdf-syntax-ns#">
   <cc:Work>
    <dc:type rdf:resource="http://purl.org/dc/dcmitype/StillImage"/>
    <dc:date>2024-11-16T16:25:54.201291</dc:date>
    <dc:format>image/svg+xml</dc:format>
    <dc:creator>
     <cc:Agent>
      <dc:title>Matplotlib v3.9.1, https://matplotlib.org/</dc:title>
     </cc:Agent>
    </dc:creator>
   </cc:Work>
  </rdf:RDF>
 </metadata>
 <defs>
  <style type="text/css">*{stroke-linejoin: round; stroke-linecap: butt}</style>
 </defs>
 <g id="figure_1">
  <g id="patch_1">
   <path d="M 0 36 
L 180 36 
L 180 0 
L 0 0 
L 0 36 
z
" style="fill: none"/>
  </g>
  <g id="axes_1">
   <g id="patch_2">
    <path d="M 22.5 32.04 
L 162 32.04 
L 162 4.32 
L 22.5 4.32 
L 22.5 32.04 
z
" style="fill: none"/>
   </g>
   <g id="matplotlib.axis_1">
    <g id="xtick_1"/>
    <g id="xtick_2"/>
    <g id="xtick_3"/>
    <g id="xtick_4"/>
   </g>
   <g id="matplotlib.axis_2">
    <g id="ytick_1"/>
    <g id="ytick_2"/>
   </g>
   <g id="line2d_1">
    <path d="M 28.840909 28.351875 
L 30.954545 28.81125 
L 33.068182 27.8925 
L 35.181818 30.78 
L 37.295455 29.205 
L 39.409091 30.78 
L 41.522727 28.745625 
L 43.636364 28.02375 
L 45.75 28.68 
L 47.863636 30.058125 
L 49.977273 28.9425 
L 52.090909 28.4175 
L 54.204545 28.81125 
L 56.318182 27.49875 
L 58.431818 27.564375 
L 60.545455 28.155 
L 62.659091 22.77375 
L 64.772727 23.889375 
L 66.886364 27.695625 
L 69 27.564375 
L 71.113636 27.105 
L 73.227273 26.383125 
L 75.340909 26.8425 
L 77.454545 28.28625 
L 79.568182 29.205 
L 81.681818 29.33625 
L 83.795455 27.105 
L 85.909091 27.433125 
L 88.022727 27.76125 
L 90.136364 27.826875 
L 92.25 26.055 
L 94.363636 28.089375 
L 96.477273 26.18625 
L 98.590909 23.233125 
L 100.704545 26.8425 
L 102.818182 24.7425 
L 104.931818 24.151875 
L 107.045455 23.6925 
L 109.159091 24.61125 
L 111.272727 23.233125 
L 113.386364 24.414375 
L 115.5 28.220625 
L 117.613636 27.039375 
L 119.727273 19.689375 
L 121.840909 28.614375 
L 123.954545 27.63 
L 126.068182 24.020625 
L 128.181818 27.3675 
L 130.295455 22.576875 
L 132.409091 22.51125 
L 134.522727 20.608125 
L 136.636364 24.7425 
L 138.75 25.005 
L 140.863636 23.626875 
L 142.977273 23.1675 
L 145.090909 27.170625 
L 147.204545 23.495625 
L 149.318182 24.7425 
L 151.431818 25.201875 
L 153.545455 25.66125 
L 155.659091 23.29875 
" clip-path="url(#pae480b36b8)" style="fill: none; stroke: #e377c2; stroke-width: 2; stroke-linecap: square"/>
   </g>
   <g id="line2d_2">
    <path d="M 28.840909 17.13 
L 30.954545 17.851875 
L 33.068182 22.708125 
L 35.181818 17.983125 
L 37.295455 17.720625 
L 39.409091 17.589375 
L 41.522727 16.801875 
L 43.636364 14.63625 
L 45.75 9.976875 
L 47.863636 12.733125 
L 49.977273 12.864375 
L 52.090909 15.16125 
L 54.204545 17.78625 
L 56.318182 17.064375 
L 58.431818 15.358125 
L 60.545455 10.83 
L 62.659091 12.1425 
L 64.772727 15.42375 
L 66.886364 12.01125 
L 69 7.02375 
L 71.113636 14.833125 
L 73.227273 12.470625 
L 75.340909 14.2425 
L 77.454545 5.58 
L 79.568182 8.401875 
L 81.681818 12.93 
L 83.795455 12.405 
L 85.909091 6.49875 
L 88.022727 10.633125 
L 90.136364 11.0925 
L 92.25 13.7175 
L 94.363636 8.73 
L 96.477273 8.86125 
L 98.590909 13.783125 
L 100.704545 13.84875 
L 102.818182 15.68625 
L 104.931818 12.076875 
L 107.045455 11.551875 
L 109.159091 12.470625 
L 111.272727 16.145625 
L 113.386364 18.83625 
L 115.5 17.589375 
L 117.613636 13.914375 
L 119.727273 15.8175 
L 121.840909 13.58625 
L 123.954545 15.883125 
L 126.068182 20.870625 
L 128.181818 16.21125 
L 130.295455 19.295625 
L 132.409091 15.2925 
L 134.522727 13.651875 
L 136.636364 14.833125 
L 138.75 15.68625 
L 140.863636 15.42375 
L 142.977273 18.705 
L 145.090909 18.901875 
L 147.204545 17.458125 
L 149.318182 19.23 
L 151.431818 21.133125 
L 153.545455 20.5425 
L 155.659091 22.6425 
" clip-path="url(#pae480b36b8)" style="fill: none; stroke: #bcbd22; stroke-width: 2; stroke-linecap: square"/>
   </g>
   <g id="patch_3">
    <path d="M 22.5 32.04 
L 22.5 4.32 
" style="fill: none; stroke: #000000; stroke-width: 0.8; stroke-linejoin: miter; stroke-linecap: square"/>
   </g>
   <g id="patch_4">
    <path d="M 162 32.04 
L 162 4.32 
" style="fill: none; stroke: #000000; stroke-width: 0.8; stroke-linejoin: miter; stroke-linecap: square"/>
   </g>
   <g id="patch_5">
    <path d="M 22.5 32.04 
L 162 32.04 
" style="fill: none; stroke: #000000; stroke-width: 0.8; stroke-linejoin: miter; stroke-linecap: square"/>
   </g>
   <g id="patch_6">
    <path d="M 22.5 4.32 
L 162 4.32 
" style="fill: none; stroke: #000000; stroke-width: 0.8; stroke-linejoin: miter; stroke-linecap: square"/>
   </g>
  </g>
 </g>
 <defs>
  <clipPath id="pae480b36b8">
   <rect x="22.5" y="4.32" width="139.5" height="27.72"/>
  </clipPath>
 </defs>
</svg>
