<?xml version="1.0" encoding="utf-8" standalone="no"?>
<!DOCTYPE svg PUBLIC "-//W3C//DTD SVG 1.1//EN"
  "http://www.w3.org/Graphics/SVG/1.1/DTD/svg11.dtd">
<svg xmlns:xlink="http://www.w3.org/1999/xlink" width="180pt" height="36pt" viewBox="0 0 180 36" xmlns="http://www.w3.org/2000/svg" version="1.1">
 <metadata>
  <rdf:RDF xmlns:dc="http://purl.org/dc/elements/1.1/" xmlns:cc="http://creativecommons.org/ns#" xmlns:rdf="http://www.w3.org/1999/02/22-rdf-syntax-ns#">
   <cc:Work>
    <dc:type rdf:resource="http://purl.org/dc/dcmitype/StillImage"/>
    <dc:date>2024-11-16T16:25:53.975939</dc:date>
    <dc:format>image/svg+xml</dc:format>
    <dc:creator>
     <cc:Agent>
      <dc:title>Matplotlib v3.9.1, https://matplotlib.org/</dc:title>
     </cc:Agent>
    </dc:creator>
   </cc:Work>
  </rdf:RDF>
 </metadata>
 <defs>
  <style type="text/css">*{stroke-linejoin: round; stroke-linecap: butt}</style>
 </defs>
 <g id="figure_1">
  <g id="patch_1">
   <path d="M 0 36 
L 180 36 
L 180 0 
L 0 0 
L 0 36 
z
" style="fill: none"/>
  </g>
  <g id="axes_1">
   <g id="patch_2">
    <path d="M 22.5 32.04 
L 162 32.04 
L 162 4.32 
L 22.5 4.32 
L 22.5 32.04 
z
" style="fill: none"/>
   </g>
   <g id="matplotlib.axis_1">
    <g id="xtick_1"/>
    <g id="xtick_2"/>
    <g id="xtick_3"/>
    <g id="xtick_4"/>
   </g>
   <g id="matplotlib.axis_2">
    <g id="ytick_1"/>
    <g id="ytick_2"/>
   </g>
   <g id="line2d_1">
    <path d="M 28.840909 23.82375 
L 30.954545 24.48 
L 33.068182 28.4175 
L 35.181818 30.78 
L 37.295455 26.055 
L 39.409091 28.9425 
L 41.522727 26.3175 
L 43.636364 26.8425 
L 45.75 25.7925 
L 47.863636 29.4675 
L 49.977273 24.61125 
L 52.090909 19.62375 
L 54.204545 23.03625 
L 56.318182 20.93625 
L 58.431818 23.29875 
L 60.545455 24.08625 
L 62.659091 24.2175 
L 64.772727 28.28625 
L 66.886364 21.46125 
L 69 19.88625 
L 71.113636 21.19875 
L 73.227273 17.9175 
L 75.340909 16.21125 
L 77.454545 20.805 
L 79.568182 19.88625 
L 81.681818 14.7675 
L 83.795455 22.24875 
L 85.909091 18.04875 
L 88.022727 20.805 
L 90.136364 21.855 
L 92.25 21.98625 
L 94.363636 26.3175 
L 96.477273 27.8925 
L 98.590909 27.76125 
L 100.704545 21.0675 
L 102.818182 19.62375 
L 104.931818 20.5425 
L 107.045455 23.43 
L 109.159091 26.71125 
L 111.272727 23.29875 
L 113.386364 28.4175 
L 115.5 22.905 
L 117.613636 25.53 
L 119.727273 23.82375 
L 121.840909 27.3675 
L 123.954545 25.005 
L 126.068182 21.5925 
L 128.181818 22.51125 
L 130.295455 21.19875 
L 132.409091 23.955 
L 134.522727 21.19875 
L 136.636364 21.0675 
L 138.75 22.24875 
L 140.863636 23.56125 
L 142.977273 29.205 
L 145.090909 26.8425 
L 147.204545 23.6925 
L 149.318182 24.48 
L 151.431818 21.19875 
L 153.545455 28.02375 
L 155.659091 23.955 
" clip-path="url(#pa89d440974)" style="fill: none; stroke: #e377c2; stroke-width: 2; stroke-linecap: square"/>
   </g>
   <g id="line2d_2">
    <path d="M 28.840909 9.5175 
L 30.954545 12.01125 
L 33.068182 18.9675 
L 35.181818 12.1425 
L 37.295455 12.27375 
L 39.409091 15.16125 
L 41.522727 10.69875 
L 43.636364 9.78 
L 45.75 11.48625 
L 47.863636 14.505 
L 49.977273 22.24875 
L 52.090909 22.38 
L 54.204545 21.19875 
L 56.318182 23.56125 
L 58.431818 22.905 
L 60.545455 18.04875 
L 62.659091 14.7675 
L 64.772727 21.5925 
L 66.886364 9.5175 
L 69 19.62375 
L 71.113636 14.2425 
L 73.227273 18.31125 
L 75.340909 23.03625 
L 77.454545 18.9675 
L 79.568182 20.67375 
L 81.681818 8.205 
L 83.795455 16.21125 
L 85.909091 18.18 
L 88.022727 19.755 
L 90.136364 12.1425 
L 92.25 16.73625 
L 94.363636 15.42375 
L 96.477273 20.0175 
L 98.590909 11.48625 
L 100.704545 12.27375 
L 102.818182 14.89875 
L 104.931818 14.63625 
L 107.045455 16.99875 
L 109.159091 15.2925 
L 111.272727 8.205 
L 113.386364 15.555 
L 115.5 20.41125 
L 117.613636 15.555 
L 119.727273 14.505 
L 121.840909 20.41125 
L 123.954545 16.99875 
L 126.068182 18.31125 
L 128.181818 24.2175 
L 130.295455 22.77375 
L 132.409091 16.21125 
L 134.522727 10.43625 
L 136.636364 14.11125 
L 138.75 13.84875 
L 140.863636 12.53625 
L 142.977273 16.99875 
L 145.090909 9.91125 
L 147.204545 5.58 
L 149.318182 12.1425 
L 151.431818 15.42375 
L 153.545455 11.88 
L 155.659091 14.7675 
" clip-path="url(#pa89d440974)" style="fill: none; stroke: #bcbd22; stroke-width: 2; stroke-linecap: square"/>
   </g>
   <g id="patch_3">
    <path d="M 22.5 32.04 
L 22.5 4.32 
" style="fill: none; stroke: #000000; stroke-width: 0.8; stroke-linejoin: miter; stroke-linecap: square"/>
   </g>
   <g id="patch_4">
    <path d="M 162 32.04 
L 162 4.32 
" style="fill: none; stroke: #000000; stroke-width: 0.8; stroke-linejoin: miter; stroke-linecap: square"/>
   </g>
   <g id="patch_5">
    <path d="M 22.5 32.04 
L 162 32.04 
" style="fill: none; stroke: #000000; stroke-width: 0.8; stroke-linejoin: miter; stroke-linecap: square"/>
   </g>
   <g id="patch_6">
    <path d="M 22.5 4.32 
L 162 4.32 
" style="fill: none; stroke: #000000; stroke-width: 0.8; stroke-linejoin: miter; stroke-linecap: square"/>
   </g>
  </g>
 </g>
 <defs>
  <clipPath id="pa89d440974">
   <rect x="22.5" y="4.32" width="139.5" height="27.72"/>
  </clipPath>
 </defs>
</svg>
