<?xml version="1.0" encoding="utf-8" standalone="no"?>
<!DOCTYPE svg PUBLIC "-//W3C//DTD SVG 1.1//EN"
  "http://www.w3.org/Graphics/SVG/1.1/DTD/svg11.dtd">
<svg xmlns:xlink="http://www.w3.org/1999/xlink" width="180pt" height="36pt" viewBox="0 0 180 36" xmlns="http://www.w3.org/2000/svg" version="1.1">
 <metadata>
  <rdf:RDF xmlns:dc="http://purl.org/dc/elements/1.1/" xmlns:cc="http://creativecommons.org/ns#" xmlns:rdf="http://www.w3.org/1999/02/22-rdf-syntax-ns#">
   <cc:Work>
    <dc:type rdf:resource="http://purl.org/dc/dcmitype/StillImage"/>
    <dc:date>2024-11-16T16:25:54.123318</dc:date>
    <dc:format>image/svg+xml</dc:format>
    <dc:creator>
     <cc:Agent>
      <dc:title>Matplotlib v3.9.1, https://matplotlib.org/</dc:title>
     </cc:Agent>
    </dc:creator>
   </cc:Work>
  </rdf:RDF>
 </metadata>
 <defs>
  <style type="text/css">*{stroke-linejoin: round; stroke-linecap: butt}</style>
 </defs>
 <g id="figure_1">
  <g id="patch_1">
   <path d="M 0 36 
L 180 36 
L 180 0 
L 0 0 
L 0 36 
z
" style="fill: none"/>
  </g>
  <g id="axes_1">
   <g id="patch_2">
    <path d="M 22.5 32.04 
L 162 32.04 
L 162 4.32 
L 22.5 4.32 
L 22.5 32.04 
z
" style="fill: none"/>
   </g>
   <g id="matplotlib.axis_1">
    <g id="xtick_1"/>
    <g id="xtick_2"/>
    <g id="xtick_3"/>
    <g id="xtick_4"/>
   </g>
   <g id="matplotlib.axis_2">
    <g id="ytick_1"/>
    <g id="ytick_2"/>
   </g>
   <g id="line2d_1">
    <path d="M 28.840909 15.813503 
L 30.954545 24.384061 
L 33.068182 15.173909 
L 35.181818 25.023655 
L 37.295455 14.02264 
L 39.409091 12.103858 
L 41.522727 19.395228 
L 43.636364 10.696751 
L 45.75 20.418579 
L 47.863636 22.33736 
L 49.977273 19.395228 
L 52.090909 21.186091 
L 54.204545 21.953604 
L 56.318182 23.488629 
L 58.431818 12.743452 
L 60.545455 20.930254 
L 62.659091 24.895736 
L 64.772727 22.593198 
L 66.886364 21.186091 
L 69 25.663249 
L 71.113636 20.802335 
L 73.227273 15.685584 
L 75.340909 23.744467 
L 77.454545 17.860203 
L 79.568182 24.384061 
L 81.681818 20.162741 
L 83.795455 23.104873 
L 85.909091 16.197259 
L 88.022727 23.744467 
L 90.136364 21.31401 
L 92.25 24.639898 
L 94.363636 19.778985 
L 96.477273 21.441929 
L 98.590909 20.546497 
L 100.704545 23.872386 
L 102.818182 20.802335 
L 104.931818 20.674416 
L 107.045455 21.441929 
L 109.159091 19.395228 
L 111.272727 23.232792 
L 113.386364 20.546497 
L 115.5 21.058173 
L 117.613636 21.697766 
L 119.727273 23.744467 
L 121.840909 23.232792 
L 123.954545 19.523147 
L 126.068182 21.058173 
L 128.181818 18.883553 
L 130.295455 16.197259 
L 132.409091 15.941421 
L 134.522727 21.31401 
L 136.636364 22.976954 
L 138.75 5.58 
L 140.863636 22.209442 
L 142.977273 22.465279 
L 145.090909 17.988122 
L 147.204545 20.418579 
L 149.318182 17.604365 
L 151.431818 20.418579 
L 153.545455 19.395228 
L 155.659091 20.930254 
" clip-path="url(#p568a98e51d)" style="fill: none; stroke: #e377c2; stroke-width: 2; stroke-linecap: square"/>
   </g>
   <g id="line2d_2">
    <path d="M 28.840909 22.721117 
L 30.954545 27.709949 
L 33.068182 23.616548 
L 35.181818 30.78 
L 37.295455 22.209442 
L 39.409091 26.174924 
L 41.522727 20.674416 
L 43.636364 23.744467 
L 45.75 26.174924 
L 47.863636 27.837868 
L 49.977273 21.31401 
L 52.090909 22.721117 
L 54.204545 29.244975 
L 56.318182 20.930254 
L 58.431818 23.360711 
L 60.545455 22.721117 
L 62.659091 28.989137 
L 64.772727 26.047005 
L 66.886364 23.872386 
L 69 28.477462 
L 71.113636 23.232792 
L 73.227273 24.895736 
L 75.340909 22.33736 
L 77.454545 24.639898 
L 79.568182 27.070355 
L 81.681818 21.953604 
L 83.795455 22.081523 
L 85.909091 27.198274 
L 88.022727 20.418579 
L 90.136364 25.023655 
L 92.25 23.616548 
L 94.363636 25.53533 
L 96.477273 27.326193 
L 98.590909 24.000305 
L 100.704545 24.256142 
L 102.818182 28.221624 
L 104.931818 25.279492 
L 107.045455 23.616548 
L 109.159091 23.104873 
L 111.272727 22.849036 
L 113.386364 19.778985 
L 115.5 20.29066 
L 117.613636 19.651066 
L 119.727273 17.604365 
L 121.840909 19.906904 
L 123.954545 11.592183 
L 126.068182 26.942437 
L 128.181818 25.279492 
L 130.295455 26.942437 
L 132.409091 23.360711 
L 134.522727 16.708934 
L 136.636364 20.802335 
L 138.75 21.441929 
L 140.863636 24.895736 
L 142.977273 24.256142 
L 145.090909 23.232792 
L 147.204545 25.279492 
L 149.318182 22.593198 
L 151.431818 23.104873 
L 153.545455 23.616548 
L 155.659091 22.593198 
" clip-path="url(#p568a98e51d)" style="fill: none; stroke: #bcbd22; stroke-width: 2; stroke-linecap: square"/>
   </g>
   <g id="patch_3">
    <path d="M 22.5 32.04 
L 22.5 4.32 
" style="fill: none; stroke: #000000; stroke-width: 0.8; stroke-linejoin: miter; stroke-linecap: square"/>
   </g>
   <g id="patch_4">
    <path d="M 162 32.04 
L 162 4.32 
" style="fill: none; stroke: #000000; stroke-width: 0.8; stroke-linejoin: miter; stroke-linecap: square"/>
   </g>
   <g id="patch_5">
    <path d="M 22.5 32.04 
L 162 32.04 
" style="fill: none; stroke: #000000; stroke-width: 0.8; stroke-linejoin: miter; stroke-linecap: square"/>
   </g>
   <g id="patch_6">
    <path d="M 22.5 4.32 
L 162 4.32 
" style="fill: none; stroke: #000000; stroke-width: 0.8; stroke-linejoin: miter; stroke-linecap: square"/>
   </g>
  </g>
 </g>
 <defs>
  <clipPath id="p568a98e51d">
   <rect x="22.5" y="4.32" width="139.5" height="27.72"/>
  </clipPath>
 </defs>
</svg>
