<?xml version="1.0" encoding="utf-8" standalone="no"?>
<!DOCTYPE svg PUBLIC "-//W3C//DTD SVG 1.1//EN"
  "http://www.w3.org/Graphics/SVG/1.1/DTD/svg11.dtd">
<svg xmlns:xlink="http://www.w3.org/1999/xlink" width="504pt" height="108pt" viewBox="0 0 504 108" xmlns="http://www.w3.org/2000/svg" version="1.1">
 <metadata>
  <rdf:RDF xmlns:dc="http://purl.org/dc/elements/1.1/" xmlns:cc="http://creativecommons.org/ns#" xmlns:rdf="http://www.w3.org/1999/02/22-rdf-syntax-ns#">
   <cc:Work>
    <dc:type rdf:resource="http://purl.org/dc/dcmitype/StillImage"/>
    <dc:date>2024-10-31T12:55:06.293105</dc:date>
    <dc:format>image/svg+xml</dc:format>
    <dc:creator>
     <cc:Agent>
      <dc:title>Matplotlib v3.7.1, https://matplotlib.org/</dc:title>
     </cc:Agent>
    </dc:creator>
   </cc:Work>
  </rdf:RDF>
 </metadata>
 <defs>
  <style type="text/css">*{stroke-linejoin: round; stroke-linecap: butt}</style>
 </defs>
 <g id="figure_1">
  <g id="patch_1">
   <path d="M 0 108 
L 504 108 
L 504 0 
L 0 0 
L 0 108 
z
" style="fill: none"/>
  </g>
  <g id="axes_1">
   <g id="patch_2">
    <path d="M 63 96.12 
L 453.6 96.12 
L 453.6 12.96 
L 63 12.96 
L 63 96.12 
z
" style="fill: none"/>
   </g>
   <g id="matplotlib.axis_1">
    <g id="xtick_1">
     <g id="line2d_1">
      <defs>
       <path id="m43b83948ba" d="M 0 0 
L 0 3.5 
" style="stroke: #000000; stroke-width: 0.8"/>
      </defs>
      <g>
       <use xlink:href="#m43b83948ba" x="63" y="96.12" style="stroke: #000000; stroke-width: 0.8"/>
      </g>
     </g>
     <g id="text_1">
      <!-- 0 -->
      <g transform="translate(60.455 109.19875) scale(0.08 -0.08)">
       <defs>
        <path id="DejaVuSans-30" d="M 2034 4250 
Q 1547 4250 1301 3770 
Q 1056 3291 1056 2328 
Q 1056 1369 1301 889 
Q 1547 409 2034 409 
Q 2525 409 2770 889 
Q 3016 1369 3016 2328 
Q 3016 3291 2770 3770 
Q 2525 4250 2034 4250 
z
M 2034 4750 
Q 2819 4750 3233 4129 
Q 3647 3509 3647 2328 
Q 3647 1150 3233 529 
Q 2819 -91 2034 -91 
Q 1250 -91 836 529 
Q 422 1150 422 2328 
Q 422 3509 836 4129 
Q 1250 4750 2034 4750 
z
" transform="scale(0.015625)"/>
       </defs>
       <use xlink:href="#DejaVuSans-30"/>
      </g>
     </g>
    </g>
    <g id="xtick_2">
     <g id="line2d_2">
      <g>
       <use xlink:href="#m43b83948ba" x="137.4" y="96.12" style="stroke: #000000; stroke-width: 0.8"/>
      </g>
     </g>
     <g id="text_2">
      <!-- 200 -->
      <g transform="translate(129.765 109.19875) scale(0.08 -0.08)">
       <defs>
        <path id="DejaVuSans-32" d="M 1228 531 
L 3431 531 
L 3431 0 
L 469 0 
L 469 531 
Q 828 903 1448 1529 
Q 2069 2156 2228 2338 
Q 2531 2678 2651 2914 
Q 2772 3150 2772 3378 
Q 2772 3750 2511 3984 
Q 2250 4219 1831 4219 
Q 1534 4219 1204 4116 
Q 875 4013 500 3803 
L 500 4441 
Q 881 4594 1212 4672 
Q 1544 4750 1819 4750 
Q 2544 4750 2975 4387 
Q 3406 4025 3406 3419 
Q 3406 3131 3298 2873 
Q 3191 2616 2906 2266 
Q 2828 2175 2409 1742 
Q 1991 1309 1228 531 
z
" transform="scale(0.015625)"/>
       </defs>
       <use xlink:href="#DejaVuSans-32"/>
       <use xlink:href="#DejaVuSans-30" x="63.623047"/>
       <use xlink:href="#DejaVuSans-30" x="127.246094"/>
      </g>
     </g>
    </g>
    <g id="xtick_3">
     <g id="line2d_3">
      <g>
       <use xlink:href="#m43b83948ba" x="211.8" y="96.12" style="stroke: #000000; stroke-width: 0.8"/>
      </g>
     </g>
     <g id="text_3">
      <!-- 400 -->
      <g transform="translate(204.165 109.19875) scale(0.08 -0.08)">
       <defs>
        <path id="DejaVuSans-34" d="M 2419 4116 
L 825 1625 
L 2419 1625 
L 2419 4116 
z
M 2253 4666 
L 3047 4666 
L 3047 1625 
L 3713 1625 
L 3713 1100 
L 3047 1100 
L 3047 0 
L 2419 0 
L 2419 1100 
L 313 1100 
L 313 1709 
L 2253 4666 
z
" transform="scale(0.015625)"/>
       </defs>
       <use xlink:href="#DejaVuSans-34"/>
       <use xlink:href="#DejaVuSans-30" x="63.623047"/>
       <use xlink:href="#DejaVuSans-30" x="127.246094"/>
      </g>
     </g>
    </g>
    <g id="xtick_4">
     <g id="line2d_4">
      <g>
       <use xlink:href="#m43b83948ba" x="286.2" y="96.12" style="stroke: #000000; stroke-width: 0.8"/>
      </g>
     </g>
     <g id="text_4">
      <!-- 600 -->
      <g transform="translate(278.565 109.19875) scale(0.08 -0.08)">
       <defs>
        <path id="DejaVuSans-36" d="M 2113 2584 
Q 1688 2584 1439 2293 
Q 1191 2003 1191 1497 
Q 1191 994 1439 701 
Q 1688 409 2113 409 
Q 2538 409 2786 701 
Q 3034 994 3034 1497 
Q 3034 2003 2786 2293 
Q 2538 2584 2113 2584 
z
M 3366 4563 
L 3366 3988 
Q 3128 4100 2886 4159 
Q 2644 4219 2406 4219 
Q 1781 4219 1451 3797 
Q 1122 3375 1075 2522 
Q 1259 2794 1537 2939 
Q 1816 3084 2150 3084 
Q 2853 3084 3261 2657 
Q 3669 2231 3669 1497 
Q 3669 778 3244 343 
Q 2819 -91 2113 -91 
Q 1303 -91 875 529 
Q 447 1150 447 2328 
Q 447 3434 972 4092 
Q 1497 4750 2381 4750 
Q 2619 4750 2861 4703 
Q 3103 4656 3366 4563 
z
" transform="scale(0.015625)"/>
       </defs>
       <use xlink:href="#DejaVuSans-36"/>
       <use xlink:href="#DejaVuSans-30" x="63.623047"/>
       <use xlink:href="#DejaVuSans-30" x="127.246094"/>
      </g>
     </g>
    </g>
    <g id="xtick_5">
     <g id="line2d_5">
      <g>
       <use xlink:href="#m43b83948ba" x="360.6" y="96.12" style="stroke: #000000; stroke-width: 0.8"/>
      </g>
     </g>
     <g id="text_5">
      <!-- 800 -->
      <g transform="translate(352.965 109.19875) scale(0.08 -0.08)">
       <defs>
        <path id="DejaVuSans-38" d="M 2034 2216 
Q 1584 2216 1326 1975 
Q 1069 1734 1069 1313 
Q 1069 891 1326 650 
Q 1584 409 2034 409 
Q 2484 409 2743 651 
Q 3003 894 3003 1313 
Q 3003 1734 2745 1975 
Q 2488 2216 2034 2216 
z
M 1403 2484 
Q 997 2584 770 2862 
Q 544 3141 544 3541 
Q 544 4100 942 4425 
Q 1341 4750 2034 4750 
Q 2731 4750 3128 4425 
Q 3525 4100 3525 3541 
Q 3525 3141 3298 2862 
Q 3072 2584 2669 2484 
Q 3125 2378 3379 2068 
Q 3634 1759 3634 1313 
Q 3634 634 3220 271 
Q 2806 -91 2034 -91 
Q 1263 -91 848 271 
Q 434 634 434 1313 
Q 434 1759 690 2068 
Q 947 2378 1403 2484 
z
M 1172 3481 
Q 1172 3119 1398 2916 
Q 1625 2713 2034 2713 
Q 2441 2713 2670 2916 
Q 2900 3119 2900 3481 
Q 2900 3844 2670 4047 
Q 2441 4250 2034 4250 
Q 1625 4250 1398 4047 
Q 1172 3844 1172 3481 
z
" transform="scale(0.015625)"/>
       </defs>
       <use xlink:href="#DejaVuSans-38"/>
       <use xlink:href="#DejaVuSans-30" x="63.623047"/>
       <use xlink:href="#DejaVuSans-30" x="127.246094"/>
      </g>
     </g>
    </g>
    <g id="xtick_6">
     <g id="line2d_6">
      <g>
       <use xlink:href="#m43b83948ba" x="435" y="96.12" style="stroke: #000000; stroke-width: 0.8"/>
      </g>
     </g>
     <g id="text_6">
      <!-- 1000 -->
      <g transform="translate(424.82 109.19875) scale(0.08 -0.08)">
       <defs>
        <path id="DejaVuSans-31" d="M 794 531 
L 1825 531 
L 1825 4091 
L 703 3866 
L 703 4441 
L 1819 4666 
L 2450 4666 
L 2450 531 
L 3481 531 
L 3481 0 
L 794 0 
L 794 531 
z
" transform="scale(0.015625)"/>
       </defs>
       <use xlink:href="#DejaVuSans-31"/>
       <use xlink:href="#DejaVuSans-30" x="63.623047"/>
       <use xlink:href="#DejaVuSans-30" x="127.246094"/>
       <use xlink:href="#DejaVuSans-30" x="190.869141"/>
      </g>
     </g>
    </g>
   </g>
   <g id="matplotlib.axis_2"/>
   <g id="line2d_7">
    <path d="M 63 75.33 
L 369.9 75.33 
L 369.9 75.33 
" clip-path="url(#p53b3b6ead4)" style="fill: none; stroke: #1f77b4; stroke-width: 5; stroke-linecap: square"/>
   </g>
   <g id="line2d_8">
    <path d="M 86.064 75.33 
L 86.436 75.33 
L 86.808 75.33 
L 87.18 75.33 
L 87.552 75.33 
L 87.924 75.33 
L 88.296 75.33 
L 88.668 75.33 
L 89.04 75.33 
L 89.412 75.33 
L 89.784 75.33 
L 90.156 75.33 
L 90.528 75.33 
L 90.9 75.33 
L 91.272 75.33 
L 91.644 75.33 
L 92.016 75.33 
L 92.388 75.33 
L 92.76 75.33 
L 93.132 75.33 
L 93.504 75.33 
L 93.876 75.33 
L 94.248 75.33 
L 94.62 75.33 
L 94.992 75.33 
L 95.364 75.33 
L 95.736 75.33 
L 96.108 75.33 
L 96.48 75.33 
L 96.852 75.33 
L 97.224 75.33 
L 97.596 75.33 
L 97.968 75.33 
L 98.34 75.33 
L 98.712 75.33 
L 99.084 75.33 
L 99.456 75.33 
L 99.828 75.33 
L 100.2 75.33 
L 100.572 75.33 
L 100.944 75.33 
L 101.316 75.33 
L 101.688 75.33 
L 102.06 75.33 
L 102.432 75.33 
L 102.804 75.33 
L 103.176 75.33 
L 103.548 75.33 
L 103.92 75.33 
L 104.292 75.33 
L 104.664 75.33 
L 105.036 75.33 
L 105.408 75.33 
L 105.78 75.33 
L 106.152 75.33 
L 106.524 75.33 
L 106.896 75.33 
L 107.268 75.33 
L 107.64 75.33 
L 108.012 75.33 
L 108.384 75.33 
L 108.756 75.33 
L 109.128 75.33 
L 109.5 75.33 
L 109.872 75.33 
L 110.244 75.33 
L 110.616 75.33 
L 110.988 75.33 
L 111.36 75.33 
L 111.732 75.33 
L 112.104 75.33 
L 112.476 75.33 
L 112.848 75.33 
L 113.22 75.33 
L 113.592 75.33 
L 113.964 75.33 
L 114.336 75.33 
L 114.708 75.33 
L 115.08 75.33 
L 115.452 75.33 
L 115.824 75.33 
L 116.196 75.33 
L 116.568 75.33 
L 116.94 75.33 
L 117.312 75.33 
L 117.684 75.33 
L 118.056 75.33 
L 118.428 75.33 
L 118.8 75.33 
L 119.172 75.33 
L 119.544 75.33 
L 119.916 75.33 
L 120.288 75.33 
L 120.66 75.33 
L 121.032 75.33 
" clip-path="url(#p53b3b6ead4)" style="fill: none; stroke: #e5c494; stroke-width: 15; stroke-linecap: square"/>
   </g>
   <g id="line2d_9">
    <path d="M 124.38 75.33 
L 124.752 75.33 
L 125.124 75.33 
L 125.496 75.33 
L 125.868 75.33 
L 126.24 75.33 
L 126.612 75.33 
L 126.984 75.33 
L 127.356 75.33 
L 127.728 75.33 
L 128.1 75.33 
L 128.472 75.33 
L 128.844 75.33 
L 129.216 75.33 
L 129.588 75.33 
L 129.96 75.33 
L 130.332 75.33 
L 130.704 75.33 
L 131.076 75.33 
L 131.448 75.33 
L 131.82 75.33 
L 132.192 75.33 
L 132.564 75.33 
L 132.936 75.33 
L 133.308 75.33 
L 133.68 75.33 
L 134.052 75.33 
L 134.424 75.33 
L 134.796 75.33 
L 135.168 75.33 
L 135.54 75.33 
L 135.912 75.33 
L 136.284 75.33 
L 136.656 75.33 
L 137.028 75.33 
L 137.4 75.33 
L 137.772 75.33 
L 138.144 75.33 
L 138.516 75.33 
L 138.888 75.33 
L 139.26 75.33 
L 139.632 75.33 
L 140.004 75.33 
L 140.376 75.33 
L 140.748 75.33 
L 141.12 75.33 
L 141.492 75.33 
L 141.864 75.33 
L 142.236 75.33 
L 142.608 75.33 
L 142.98 75.33 
L 143.352 75.33 
L 143.724 75.33 
L 144.096 75.33 
L 144.468 75.33 
L 144.84 75.33 
L 145.212 75.33 
L 145.584 75.33 
" clip-path="url(#p53b3b6ead4)" style="fill: none; stroke: #fccde5; stroke-width: 15; stroke-linecap: square"/>
   </g>
   <g id="line2d_10">
    <path d="M 257.928 75.33 
L 358.368 75.33 
L 358.368 75.33 
" clip-path="url(#p53b3b6ead4)" style="fill: none; stroke: #fb8072; stroke-width: 15; stroke-linecap: square"/>
   </g>
   <g id="line2d_11">
    <path d="M 63 54.54 
L 380.316 54.54 
L 380.316 54.54 
" clip-path="url(#p53b3b6ead4)" style="fill: none; stroke: #d62728; stroke-width: 5; stroke-linecap: square"/>
   </g>
   <g id="line2d_12">
    <path d="M 85.692 54.54 
L 86.064 54.54 
L 86.436 54.54 
L 86.808 54.54 
L 87.18 54.54 
L 87.552 54.54 
L 87.924 54.54 
L 88.296 54.54 
L 88.668 54.54 
L 89.04 54.54 
L 89.412 54.54 
L 89.784 54.54 
L 90.156 54.54 
L 90.528 54.54 
L 90.9 54.54 
L 91.272 54.54 
L 91.644 54.54 
L 92.016 54.54 
L 92.388 54.54 
L 92.76 54.54 
L 93.132 54.54 
L 93.504 54.54 
L 93.876 54.54 
L 94.248 54.54 
L 94.62 54.54 
L 94.992 54.54 
L 95.364 54.54 
L 95.736 54.54 
L 96.108 54.54 
L 96.48 54.54 
L 96.852 54.54 
L 97.224 54.54 
L 97.596 54.54 
L 97.968 54.54 
L 98.34 54.54 
L 98.712 54.54 
L 99.084 54.54 
L 99.456 54.54 
L 99.828 54.54 
L 100.2 54.54 
L 100.572 54.54 
L 100.944 54.54 
L 101.316 54.54 
L 101.688 54.54 
L 102.06 54.54 
L 102.432 54.54 
L 102.804 54.54 
L 103.176 54.54 
L 103.548 54.54 
L 103.92 54.54 
L 104.292 54.54 
L 104.664 54.54 
L 105.036 54.54 
L 105.408 54.54 
L 105.78 54.54 
L 106.152 54.54 
L 106.524 54.54 
L 106.896 54.54 
L 107.268 54.54 
L 107.64 54.54 
L 108.012 54.54 
L 108.384 54.54 
L 108.756 54.54 
L 109.128 54.54 
L 109.5 54.54 
L 109.872 54.54 
L 110.244 54.54 
L 110.616 54.54 
L 110.988 54.54 
L 111.36 54.54 
L 111.732 54.54 
L 112.104 54.54 
L 112.476 54.54 
L 112.848 54.54 
L 113.22 54.54 
L 113.592 54.54 
L 113.964 54.54 
L 114.336 54.54 
L 114.708 54.54 
L 115.08 54.54 
L 115.452 54.54 
L 115.824 54.54 
L 116.196 54.54 
L 116.568 54.54 
L 116.94 54.54 
L 117.312 54.54 
L 117.684 54.54 
L 118.056 54.54 
L 118.428 54.54 
L 118.8 54.54 
L 119.172 54.54 
L 119.544 54.54 
L 119.916 54.54 
L 120.288 54.54 
L 120.66 54.54 
L 121.032 54.54 
L 121.404 54.54 
L 121.776 54.54 
L 122.148 54.54 
L 122.52 54.54 
L 122.892 54.54 
L 123.264 54.54 
L 123.636 54.54 
L 124.008 54.54 
L 124.38 54.54 
L 124.752 54.54 
L 125.124 54.54 
L 125.496 54.54 
L 125.868 54.54 
L 126.24 54.54 
L 126.612 54.54 
L 126.984 54.54 
L 127.356 54.54 
" clip-path="url(#p53b3b6ead4)" style="fill: none; stroke: #e5c494; stroke-width: 15; stroke-linecap: square"/>
   </g>
   <g id="line2d_13">
    <path d="M 130.704 54.54 
L 131.076 54.54 
L 131.448 54.54 
L 131.82 54.54 
L 132.192 54.54 
L 132.564 54.54 
L 132.936 54.54 
L 133.308 54.54 
L 133.68 54.54 
L 134.052 54.54 
L 134.424 54.54 
L 134.796 54.54 
L 135.168 54.54 
L 135.54 54.54 
L 135.912 54.54 
L 136.284 54.54 
L 136.656 54.54 
L 137.028 54.54 
L 137.4 54.54 
L 137.772 54.54 
L 138.144 54.54 
L 138.516 54.54 
L 138.888 54.54 
L 139.26 54.54 
L 139.632 54.54 
L 140.004 54.54 
L 140.376 54.54 
L 140.748 54.54 
L 141.12 54.54 
L 141.492 54.54 
L 141.864 54.54 
L 142.236 54.54 
L 142.608 54.54 
L 142.98 54.54 
L 143.352 54.54 
L 143.724 54.54 
L 144.096 54.54 
L 144.468 54.54 
L 144.84 54.54 
L 145.212 54.54 
L 145.584 54.54 
L 145.956 54.54 
L 146.328 54.54 
L 146.7 54.54 
L 147.072 54.54 
L 147.444 54.54 
L 147.816 54.54 
L 148.188 54.54 
L 148.56 54.54 
L 148.932 54.54 
L 149.304 54.54 
L 149.676 54.54 
L 150.048 54.54 
L 150.42 54.54 
L 150.792 54.54 
L 151.164 54.54 
L 151.536 54.54 
L 151.908 54.54 
L 152.28 54.54 
" clip-path="url(#p53b3b6ead4)" style="fill: none; stroke: #fccde5; stroke-width: 15; stroke-linecap: square"/>
   </g>
   <g id="line2d_14">
    <path d="M 265.74 54.54 
L 369.9 54.54 
L 369.9 54.54 
" clip-path="url(#p53b3b6ead4)" style="fill: none; stroke: #fb8072; stroke-width: 15; stroke-linecap: square"/>
   </g>
   <g id="line2d_15">
    <path d="M 63 33.75 
L 416.772 33.75 
L 416.772 33.75 
" clip-path="url(#p53b3b6ead4)" style="fill: none; stroke: #d62728; stroke-width: 5; stroke-linecap: square"/>
   </g>
   <g id="line2d_16">
    <path d="M 187.62 33.75 
L 187.992 33.75 
L 188.364 33.75 
L 188.736 33.75 
L 189.108 33.75 
L 189.48 33.75 
L 189.852 33.75 
L 190.224 33.75 
L 190.596 33.75 
L 190.968 33.75 
L 191.34 33.75 
L 191.712 33.75 
L 192.084 33.75 
L 192.456 33.75 
L 192.828 33.75 
L 193.2 33.75 
L 193.572 33.75 
L 193.944 33.75 
L 194.316 33.75 
L 194.688 33.75 
L 195.06 33.75 
L 195.432 33.75 
L 195.804 33.75 
L 196.176 33.75 
L 196.548 33.75 
L 196.92 33.75 
L 197.292 33.75 
L 197.664 33.75 
L 198.036 33.75 
L 198.408 33.75 
L 198.78 33.75 
L 199.152 33.75 
L 199.524 33.75 
L 199.896 33.75 
L 200.268 33.75 
L 200.64 33.75 
L 201.012 33.75 
L 201.384 33.75 
L 201.756 33.75 
L 202.128 33.75 
L 202.5 33.75 
L 202.872 33.75 
L 203.244 33.75 
L 203.616 33.75 
L 203.988 33.75 
L 204.36 33.75 
L 204.732 33.75 
L 205.104 33.75 
L 205.476 33.75 
L 205.848 33.75 
L 206.22 33.75 
L 206.592 33.75 
L 206.964 33.75 
L 207.336 33.75 
L 207.708 33.75 
L 208.08 33.75 
L 208.452 33.75 
L 208.824 33.75 
L 209.196 33.75 
" clip-path="url(#p53b3b6ead4)" style="fill: none; stroke: #fccde5; stroke-width: 15; stroke-linecap: square"/>
   </g>
   <g id="line2d_17">
    <path d="M 292.896 33.75 
L 387.012 33.75 
L 387.012 33.75 
" clip-path="url(#p53b3b6ead4)" style="fill: none; stroke: #fb8072; stroke-width: 15; stroke-linecap: square"/>
   </g>
   <g id="patch_3">
    <path d="M 63 96.12 
L 453.6 96.12 
" style="fill: none; stroke: #000000; stroke-width: 0.8; stroke-linejoin: miter; stroke-linecap: square"/>
   </g>
   <g id="text_7">
    <!-- amnio acid -->
    <g transform="translate(-11.4 98.3275) scale(0.08 -0.08)">
     <defs>
      <path id="DejaVuSans-61" d="M 2194 1759 
Q 1497 1759 1228 1600 
Q 959 1441 959 1056 
Q 959 750 1161 570 
Q 1363 391 1709 391 
Q 2188 391 2477 730 
Q 2766 1069 2766 1631 
L 2766 1759 
L 2194 1759 
z
M 3341 1997 
L 3341 0 
L 2766 0 
L 2766 531 
Q 2569 213 2275 61 
Q 1981 -91 1556 -91 
Q 1019 -91 701 211 
Q 384 513 384 1019 
Q 384 1609 779 1909 
Q 1175 2209 1959 2209 
L 2766 2209 
L 2766 2266 
Q 2766 2663 2505 2880 
Q 2244 3097 1772 3097 
Q 1472 3097 1187 3025 
Q 903 2953 641 2809 
L 641 3341 
Q 956 3463 1253 3523 
Q 1550 3584 1831 3584 
Q 2591 3584 2966 3190 
Q 3341 2797 3341 1997 
z
" transform="scale(0.015625)"/>
      <path id="DejaVuSans-6d" d="M 3328 2828 
Q 3544 3216 3844 3400 
Q 4144 3584 4550 3584 
Q 5097 3584 5394 3201 
Q 5691 2819 5691 2113 
L 5691 0 
L 5113 0 
L 5113 2094 
Q 5113 2597 4934 2840 
Q 4756 3084 4391 3084 
Q 3944 3084 3684 2787 
Q 3425 2491 3425 1978 
L 3425 0 
L 2847 0 
L 2847 2094 
Q 2847 2600 2669 2842 
Q 2491 3084 2119 3084 
Q 1678 3084 1418 2786 
Q 1159 2488 1159 1978 
L 1159 0 
L 581 0 
L 581 3500 
L 1159 3500 
L 1159 2956 
Q 1356 3278 1631 3431 
Q 1906 3584 2284 3584 
Q 2666 3584 2933 3390 
Q 3200 3197 3328 2828 
z
" transform="scale(0.015625)"/>
      <path id="DejaVuSans-6e" d="M 3513 2113 
L 3513 0 
L 2938 0 
L 2938 2094 
Q 2938 2591 2744 2837 
Q 2550 3084 2163 3084 
Q 1697 3084 1428 2787 
Q 1159 2491 1159 1978 
L 1159 0 
L 581 0 
L 581 3500 
L 1159 3500 
L 1159 2956 
Q 1366 3272 1645 3428 
Q 1925 3584 2291 3584 
Q 2894 3584 3203 3211 
Q 3513 2838 3513 2113 
z
" transform="scale(0.015625)"/>
      <path id="DejaVuSans-69" d="M 603 3500 
L 1178 3500 
L 1178 0 
L 603 0 
L 603 3500 
z
M 603 4863 
L 1178 4863 
L 1178 4134 
L 603 4134 
L 603 4863 
z
" transform="scale(0.015625)"/>
      <path id="DejaVuSans-6f" d="M 1959 3097 
Q 1497 3097 1228 2736 
Q 959 2375 959 1747 
Q 959 1119 1226 758 
Q 1494 397 1959 397 
Q 2419 397 2687 759 
Q 2956 1122 2956 1747 
Q 2956 2369 2687 2733 
Q 2419 3097 1959 3097 
z
M 1959 3584 
Q 2709 3584 3137 3096 
Q 3566 2609 3566 1747 
Q 3566 888 3137 398 
Q 2709 -91 1959 -91 
Q 1206 -91 779 398 
Q 353 888 353 1747 
Q 353 2609 779 3096 
Q 1206 3584 1959 3584 
z
" transform="scale(0.015625)"/>
      <path id="DejaVuSans-20" transform="scale(0.015625)"/>
      <path id="DejaVuSans-63" d="M 3122 3366 
L 3122 2828 
Q 2878 2963 2633 3030 
Q 2388 3097 2138 3097 
Q 1578 3097 1268 2742 
Q 959 2388 959 1747 
Q 959 1106 1268 751 
Q 1578 397 2138 397 
Q 2388 397 2633 464 
Q 2878 531 3122 666 
L 3122 134 
Q 2881 22 2623 -34 
Q 2366 -91 2075 -91 
Q 1284 -91 818 406 
Q 353 903 353 1747 
Q 353 2603 823 3093 
Q 1294 3584 2113 3584 
Q 2378 3584 2631 3529 
Q 2884 3475 3122 3366 
z
" transform="scale(0.015625)"/>
      <path id="DejaVuSans-64" d="M 2906 2969 
L 2906 4863 
L 3481 4863 
L 3481 0 
L 2906 0 
L 2906 525 
Q 2725 213 2448 61 
Q 2172 -91 1784 -91 
Q 1150 -91 751 415 
Q 353 922 353 1747 
Q 353 2572 751 3078 
Q 1150 3584 1784 3584 
Q 2172 3584 2448 3432 
Q 2725 3281 2906 2969 
z
M 947 1747 
Q 947 1113 1208 752 
Q 1469 391 1925 391 
Q 2381 391 2643 752 
Q 2906 1113 2906 1747 
Q 2906 2381 2643 2742 
Q 2381 3103 1925 3103 
Q 1469 3103 1208 2742 
Q 947 2381 947 1747 
z
" transform="scale(0.015625)"/>
     </defs>
     <use xlink:href="#DejaVuSans-61"/>
     <use xlink:href="#DejaVuSans-6d" x="61.279297"/>
     <use xlink:href="#DejaVuSans-6e" x="158.691406"/>
     <use xlink:href="#DejaVuSans-69" x="222.070312"/>
     <use xlink:href="#DejaVuSans-6f" x="249.853516"/>
     <use xlink:href="#DejaVuSans-20" x="311.035156"/>
     <use xlink:href="#DejaVuSans-61" x="342.822266"/>
     <use xlink:href="#DejaVuSans-63" x="404.101562"/>
     <use xlink:href="#DejaVuSans-69" x="459.082031"/>
     <use xlink:href="#DejaVuSans-64" x="486.865234"/>
    </g>
   </g>
   <g id="text_8">
    <!-- ApPak1 -->
    <g transform="translate(-11.4 77.5375) scale(0.08 -0.08)">
     <defs>
      <path id="DejaVuSans-41" d="M 2188 4044 
L 1331 1722 
L 3047 1722 
L 2188 4044 
z
M 1831 4666 
L 2547 4666 
L 4325 0 
L 3669 0 
L 3244 1197 
L 1141 1197 
L 716 0 
L 50 0 
L 1831 4666 
z
" transform="scale(0.015625)"/>
      <path id="DejaVuSans-70" d="M 1159 525 
L 1159 -1331 
L 581 -1331 
L 581 3500 
L 1159 3500 
L 1159 2969 
Q 1341 3281 1617 3432 
Q 1894 3584 2278 3584 
Q 2916 3584 3314 3078 
Q 3713 2572 3713 1747 
Q 3713 922 3314 415 
Q 2916 -91 2278 -91 
Q 1894 -91 1617 61 
Q 1341 213 1159 525 
z
M 3116 1747 
Q 3116 2381 2855 2742 
Q 2594 3103 2138 3103 
Q 1681 3103 1420 2742 
Q 1159 2381 1159 1747 
Q 1159 1113 1420 752 
Q 1681 391 2138 391 
Q 2594 391 2855 752 
Q 3116 1113 3116 1747 
z
" transform="scale(0.015625)"/>
      <path id="DejaVuSans-50" d="M 1259 4147 
L 1259 2394 
L 2053 2394 
Q 2494 2394 2734 2622 
Q 2975 2850 2975 3272 
Q 2975 3691 2734 3919 
Q 2494 4147 2053 4147 
L 1259 4147 
z
M 628 4666 
L 2053 4666 
Q 2838 4666 3239 4311 
Q 3641 3956 3641 3272 
Q 3641 2581 3239 2228 
Q 2838 1875 2053 1875 
L 1259 1875 
L 1259 0 
L 628 0 
L 628 4666 
z
" transform="scale(0.015625)"/>
      <path id="DejaVuSans-6b" d="M 581 4863 
L 1159 4863 
L 1159 1991 
L 2875 3500 
L 3609 3500 
L 1753 1863 
L 3688 0 
L 2938 0 
L 1159 1709 
L 1159 0 
L 581 0 
L 581 4863 
z
" transform="scale(0.015625)"/>
     </defs>
     <use xlink:href="#DejaVuSans-41"/>
     <use xlink:href="#DejaVuSans-70" x="68.408203"/>
     <use xlink:href="#DejaVuSans-50" x="131.884766"/>
     <use xlink:href="#DejaVuSans-61" x="187.6875"/>
     <use xlink:href="#DejaVuSans-6b" x="248.966797"/>
     <use xlink:href="#DejaVuSans-31" x="306.876953"/>
    </g>
   </g>
   <g id="text_9">
    <!-- PH -->
    <g transform="translate(98.314 77.5375) scale(0.08 -0.08)">
     <defs>
      <path id="DejaVuSans-48" d="M 628 4666 
L 1259 4666 
L 1259 2753 
L 3553 2753 
L 3553 4666 
L 4184 4666 
L 4184 0 
L 3553 0 
L 3553 2222 
L 1259 2222 
L 1259 0 
L 628 0 
L 628 4666 
z
" transform="scale(0.015625)"/>
     </defs>
     <use xlink:href="#DejaVuSans-50"/>
     <use xlink:href="#DejaVuSans-48" x="60.302734"/>
    </g>
   </g>
   <g id="text_10">
    <!-- CRIB -->
    <g transform="translate(125.671125 77.5375) scale(0.08 -0.08)">
     <defs>
      <path id="DejaVuSans-43" d="M 4122 4306 
L 4122 3641 
Q 3803 3938 3442 4084 
Q 3081 4231 2675 4231 
Q 1875 4231 1450 3742 
Q 1025 3253 1025 2328 
Q 1025 1406 1450 917 
Q 1875 428 2675 428 
Q 3081 428 3442 575 
Q 3803 722 4122 1019 
L 4122 359 
Q 3791 134 3420 21 
Q 3050 -91 2638 -91 
Q 1578 -91 968 557 
Q 359 1206 359 2328 
Q 359 3453 968 4101 
Q 1578 4750 2638 4750 
Q 3056 4750 3426 4639 
Q 3797 4528 4122 4306 
z
" transform="scale(0.015625)"/>
      <path id="DejaVuSans-52" d="M 2841 2188 
Q 3044 2119 3236 1894 
Q 3428 1669 3622 1275 
L 4263 0 
L 3584 0 
L 2988 1197 
Q 2756 1666 2539 1819 
Q 2322 1972 1947 1972 
L 1259 1972 
L 1259 0 
L 628 0 
L 628 4666 
L 2053 4666 
Q 2853 4666 3247 4331 
Q 3641 3997 3641 3322 
Q 3641 2881 3436 2590 
Q 3231 2300 2841 2188 
z
M 1259 4147 
L 1259 2491 
L 2053 2491 
Q 2509 2491 2742 2702 
Q 2975 2913 2975 3322 
Q 2975 3731 2742 3939 
Q 2509 4147 2053 4147 
L 1259 4147 
z
" transform="scale(0.015625)"/>
      <path id="DejaVuSans-49" d="M 628 4666 
L 1259 4666 
L 1259 0 
L 628 0 
L 628 4666 
z
" transform="scale(0.015625)"/>
      <path id="DejaVuSans-42" d="M 1259 2228 
L 1259 519 
L 2272 519 
Q 2781 519 3026 730 
Q 3272 941 3272 1375 
Q 3272 1813 3026 2020 
Q 2781 2228 2272 2228 
L 1259 2228 
z
M 1259 4147 
L 1259 2741 
L 2194 2741 
Q 2656 2741 2882 2914 
Q 3109 3088 3109 3444 
Q 3109 3797 2882 3972 
Q 2656 4147 2194 4147 
L 1259 4147 
z
M 628 4666 
L 2241 4666 
Q 2963 4666 3353 4366 
Q 3744 4066 3744 3513 
Q 3744 3084 3544 2831 
Q 3344 2578 2956 2516 
Q 3422 2416 3680 2098 
Q 3938 1781 3938 1306 
Q 3938 681 3513 340 
Q 3088 0 2303 0 
L 628 0 
L 628 4666 
z
" transform="scale(0.015625)"/>
     </defs>
     <use xlink:href="#DejaVuSans-43"/>
     <use xlink:href="#DejaVuSans-52" x="69.824219"/>
     <use xlink:href="#DejaVuSans-49" x="139.306641"/>
     <use xlink:href="#DejaVuSans-42" x="168.798828"/>
    </g>
   </g>
   <g id="text_11">
    <!-- Kinase -->
    <g transform="translate(295.068375 77.5375) scale(0.08 -0.08)">
     <defs>
      <path id="DejaVuSans-4b" d="M 628 4666 
L 1259 4666 
L 1259 2694 
L 3353 4666 
L 4166 4666 
L 1850 2491 
L 4331 0 
L 3500 0 
L 1259 2247 
L 1259 0 
L 628 0 
L 628 4666 
z
" transform="scale(0.015625)"/>
      <path id="DejaVuSans-73" d="M 2834 3397 
L 2834 2853 
Q 2591 2978 2328 3040 
Q 2066 3103 1784 3103 
Q 1356 3103 1142 2972 
Q 928 2841 928 2578 
Q 928 2378 1081 2264 
Q 1234 2150 1697 2047 
L 1894 2003 
Q 2506 1872 2764 1633 
Q 3022 1394 3022 966 
Q 3022 478 2636 193 
Q 2250 -91 1575 -91 
Q 1294 -91 989 -36 
Q 684 19 347 128 
L 347 722 
Q 666 556 975 473 
Q 1284 391 1588 391 
Q 1994 391 2212 530 
Q 2431 669 2431 922 
Q 2431 1156 2273 1281 
Q 2116 1406 1581 1522 
L 1381 1569 
Q 847 1681 609 1914 
Q 372 2147 372 2553 
Q 372 3047 722 3315 
Q 1072 3584 1716 3584 
Q 2034 3584 2315 3537 
Q 2597 3491 2834 3397 
z
" transform="scale(0.015625)"/>
      <path id="DejaVuSans-65" d="M 3597 1894 
L 3597 1613 
L 953 1613 
Q 991 1019 1311 708 
Q 1631 397 2203 397 
Q 2534 397 2845 478 
Q 3156 559 3463 722 
L 3463 178 
Q 3153 47 2828 -22 
Q 2503 -91 2169 -91 
Q 1331 -91 842 396 
Q 353 884 353 1716 
Q 353 2575 817 3079 
Q 1281 3584 2069 3584 
Q 2775 3584 3186 3129 
Q 3597 2675 3597 1894 
z
M 3022 2063 
Q 3016 2534 2758 2815 
Q 2500 3097 2075 3097 
Q 1594 3097 1305 2825 
Q 1016 2553 972 2059 
L 3022 2063 
z
" transform="scale(0.015625)"/>
     </defs>
     <use xlink:href="#DejaVuSans-4b"/>
     <use xlink:href="#DejaVuSans-69" x="65.576172"/>
     <use xlink:href="#DejaVuSans-6e" x="93.359375"/>
     <use xlink:href="#DejaVuSans-61" x="156.738281"/>
     <use xlink:href="#DejaVuSans-73" x="218.017578"/>
     <use xlink:href="#DejaVuSans-65" x="270.117188"/>
    </g>
   </g>
   <g id="text_12">
    <!-- amnio acid -->
    <g transform="translate(-11.4 98.3275) scale(0.08 -0.08)">
     <use xlink:href="#DejaVuSans-61"/>
     <use xlink:href="#DejaVuSans-6d" x="61.279297"/>
     <use xlink:href="#DejaVuSans-6e" x="158.691406"/>
     <use xlink:href="#DejaVuSans-69" x="222.070312"/>
     <use xlink:href="#DejaVuSans-6f" x="249.853516"/>
     <use xlink:href="#DejaVuSans-20" x="311.035156"/>
     <use xlink:href="#DejaVuSans-61" x="342.822266"/>
     <use xlink:href="#DejaVuSans-63" x="404.101562"/>
     <use xlink:href="#DejaVuSans-69" x="459.082031"/>
     <use xlink:href="#DejaVuSans-64" x="486.865234"/>
    </g>
   </g>
   <g id="text_13">
    <!-- ScCla4 -->
    <g transform="translate(-11.4 56.7475) scale(0.08 -0.08)">
     <defs>
      <path id="DejaVuSans-53" d="M 3425 4513 
L 3425 3897 
Q 3066 4069 2747 4153 
Q 2428 4238 2131 4238 
Q 1616 4238 1336 4038 
Q 1056 3838 1056 3469 
Q 1056 3159 1242 3001 
Q 1428 2844 1947 2747 
L 2328 2669 
Q 3034 2534 3370 2195 
Q 3706 1856 3706 1288 
Q 3706 609 3251 259 
Q 2797 -91 1919 -91 
Q 1588 -91 1214 -16 
Q 841 59 441 206 
L 441 856 
Q 825 641 1194 531 
Q 1563 422 1919 422 
Q 2459 422 2753 634 
Q 3047 847 3047 1241 
Q 3047 1584 2836 1778 
Q 2625 1972 2144 2069 
L 1759 2144 
Q 1053 2284 737 2584 
Q 422 2884 422 3419 
Q 422 4038 858 4394 
Q 1294 4750 2059 4750 
Q 2388 4750 2728 4690 
Q 3069 4631 3425 4513 
z
" transform="scale(0.015625)"/>
      <path id="DejaVuSans-6c" d="M 603 4863 
L 1178 4863 
L 1178 0 
L 603 0 
L 603 4863 
z
" transform="scale(0.015625)"/>
     </defs>
     <use xlink:href="#DejaVuSans-53"/>
     <use xlink:href="#DejaVuSans-63" x="63.476562"/>
     <use xlink:href="#DejaVuSans-43" x="118.457031"/>
     <use xlink:href="#DejaVuSans-6c" x="188.28125"/>
     <use xlink:href="#DejaVuSans-61" x="216.064453"/>
     <use xlink:href="#DejaVuSans-34" x="277.34375"/>
    </g>
   </g>
   <g id="text_14">
    <!-- PH -->
    <g transform="translate(101.29 56.7475) scale(0.08 -0.08)">
     <use xlink:href="#DejaVuSans-50"/>
     <use xlink:href="#DejaVuSans-48" x="60.302734"/>
    </g>
   </g>
   <g id="text_15">
    <!-- CRIB -->
    <g transform="translate(132.181125 56.7475) scale(0.08 -0.08)">
     <use xlink:href="#DejaVuSans-43"/>
     <use xlink:href="#DejaVuSans-52" x="69.824219"/>
     <use xlink:href="#DejaVuSans-49" x="139.306641"/>
     <use xlink:href="#DejaVuSans-42" x="168.798828"/>
    </g>
   </g>
   <g id="text_16">
    <!-- Kinase -->
    <g transform="translate(304.740375 56.7475) scale(0.08 -0.08)">
     <use xlink:href="#DejaVuSans-4b"/>
     <use xlink:href="#DejaVuSans-69" x="65.576172"/>
     <use xlink:href="#DejaVuSans-6e" x="93.359375"/>
     <use xlink:href="#DejaVuSans-61" x="156.738281"/>
     <use xlink:href="#DejaVuSans-73" x="218.017578"/>
     <use xlink:href="#DejaVuSans-65" x="270.117188"/>
    </g>
   </g>
   <g id="text_17">
    <!-- amnio acid -->
    <g transform="translate(-11.4 98.3275) scale(0.08 -0.08)">
     <use xlink:href="#DejaVuSans-61"/>
     <use xlink:href="#DejaVuSans-6d" x="61.279297"/>
     <use xlink:href="#DejaVuSans-6e" x="158.691406"/>
     <use xlink:href="#DejaVuSans-69" x="222.070312"/>
     <use xlink:href="#DejaVuSans-6f" x="249.853516"/>
     <use xlink:href="#DejaVuSans-20" x="311.035156"/>
     <use xlink:href="#DejaVuSans-61" x="342.822266"/>
     <use xlink:href="#DejaVuSans-63" x="404.101562"/>
     <use xlink:href="#DejaVuSans-69" x="459.082031"/>
     <use xlink:href="#DejaVuSans-64" x="486.865234"/>
    </g>
   </g>
   <g id="text_18">
    <!-- ScSte20 -->
    <g transform="translate(-11.4 35.9575) scale(0.08 -0.08)">
     <defs>
      <path id="DejaVuSans-74" d="M 1172 4494 
L 1172 3500 
L 2356 3500 
L 2356 3053 
L 1172 3053 
L 1172 1153 
Q 1172 725 1289 603 
Q 1406 481 1766 481 
L 2356 481 
L 2356 0 
L 1766 0 
Q 1100 0 847 248 
Q 594 497 594 1153 
L 594 3053 
L 172 3053 
L 172 3500 
L 594 3500 
L 594 4494 
L 1172 4494 
z
" transform="scale(0.015625)"/>
     </defs>
     <use xlink:href="#DejaVuSans-53"/>
     <use xlink:href="#DejaVuSans-63" x="63.476562"/>
     <use xlink:href="#DejaVuSans-53" x="118.457031"/>
     <use xlink:href="#DejaVuSans-74" x="181.933594"/>
     <use xlink:href="#DejaVuSans-65" x="221.142578"/>
     <use xlink:href="#DejaVuSans-32" x="282.666016"/>
     <use xlink:href="#DejaVuSans-30" x="346.289062"/>
    </g>
   </g>
   <g id="text_19">
    <!-- CRIB -->
    <g transform="translate(189.097125 35.9575) scale(0.08 -0.08)">
     <use xlink:href="#DejaVuSans-43"/>
     <use xlink:href="#DejaVuSans-52" x="69.824219"/>
     <use xlink:href="#DejaVuSans-49" x="139.306641"/>
     <use xlink:href="#DejaVuSans-42" x="168.798828"/>
    </g>
   </g>
   <g id="text_20">
    <!-- Kinase -->
    <g transform="translate(326.874375 35.9575) scale(0.08 -0.08)">
     <use xlink:href="#DejaVuSans-4b"/>
     <use xlink:href="#DejaVuSans-69" x="65.576172"/>
     <use xlink:href="#DejaVuSans-6e" x="93.359375"/>
     <use xlink:href="#DejaVuSans-61" x="156.738281"/>
     <use xlink:href="#DejaVuSans-73" x="218.017578"/>
     <use xlink:href="#DejaVuSans-65" x="270.117188"/>
    </g>
   </g>
  </g>
 </g>
 <defs>
  <clipPath id="p53b3b6ead4">
   <rect x="63" y="12.96" width="390.6" height="83.16"/>
  </clipPath>
 </defs>
</svg>
