<?xml version="1.0" encoding="utf-8" standalone="no"?>
<!DOCTYPE svg PUBLIC "-//W3C//DTD SVG 1.1//EN"
  "http://www.w3.org/Graphics/SVG/1.1/DTD/svg11.dtd">
<svg xmlns:xlink="http://www.w3.org/1999/xlink" width="504pt" height="144pt" viewBox="0 0 504 144" xmlns="http://www.w3.org/2000/svg" version="1.1">
 <metadata>
  <rdf:RDF xmlns:dc="http://purl.org/dc/elements/1.1/" xmlns:cc="http://creativecommons.org/ns#" xmlns:rdf="http://www.w3.org/1999/02/22-rdf-syntax-ns#">
   <cc:Work>
    <dc:type rdf:resource="http://purl.org/dc/dcmitype/StillImage"/>
    <dc:date>2025-03-19T11:42:43.468372</dc:date>
    <dc:format>image/svg+xml</dc:format>
    <dc:creator>
     <cc:Agent>
      <dc:title>Matplotlib v3.10.1, https://matplotlib.org/</dc:title>
     </cc:Agent>
    </dc:creator>
   </cc:Work>
  </rdf:RDF>
 </metadata>
 <defs>
  <style type="text/css">*{stroke-linejoin: round; stroke-linecap: butt}</style>
 </defs>
 <g id="figure_1">
  <g id="patch_1">
   <path d="M 0 144 
L 504 144 
L 504 0 
L 0 0 
L 0 144 
z
" style="fill: none"/>
  </g>
  <g id="axes_1">
   <g id="patch_2">
    <path d="M 63 128.16 
L 453.6 128.16 
L 453.6 17.28 
L 63 17.28 
L 63 128.16 
z
" style="fill: none"/>
   </g>
   <g id="matplotlib.axis_1">
    <g id="xtick_1">
     <g id="line2d_1">
      <defs>
       <path id="m70b3645306" d="M 0 0 
L 0 3.5 
" style="stroke: #000000; stroke-width: 0.8"/>
      </defs>
      <g>
       <use xlink:href="#m70b3645306" x="63" y="128.16" style="stroke: #000000; stroke-width: 0.8"/>
      </g>
     </g>
     <g id="text_1">
      <!-- 0 -->
      <g transform="translate(60.455 141.23875) scale(0.08 -0.08)">
       <defs>
        <path id="DejaVuSans-30" d="M 2034 4250 
Q 1547 4250 1301 3770 
Q 1056 3291 1056 2328 
Q 1056 1369 1301 889 
Q 1547 409 2034 409 
Q 2525 409 2770 889 
Q 3016 1369 3016 2328 
Q 3016 3291 2770 3770 
Q 2525 4250 2034 4250 
z
M 2034 4750 
Q 2819 4750 3233 4129 
Q 3647 3509 3647 2328 
Q 3647 1150 3233 529 
Q 2819 -91 2034 -91 
Q 1250 -91 836 529 
Q 422 1150 422 2328 
Q 422 3509 836 4129 
Q 1250 4750 2034 4750 
z
" transform="scale(0.015625)"/>
       </defs>
       <use xlink:href="#DejaVuSans-30"/>
      </g>
     </g>
    </g>
    <g id="xtick_2">
     <g id="line2d_2">
      <g>
       <use xlink:href="#m70b3645306" x="137.4" y="128.16" style="stroke: #000000; stroke-width: 0.8"/>
      </g>
     </g>
     <g id="text_2">
      <!-- 200 -->
      <g transform="translate(129.765 141.23875) scale(0.08 -0.08)">
       <defs>
        <path id="DejaVuSans-32" d="M 1228 531 
L 3431 531 
L 3431 0 
L 469 0 
L 469 531 
Q 828 903 1448 1529 
Q 2069 2156 2228 2338 
Q 2531 2678 2651 2914 
Q 2772 3150 2772 3378 
Q 2772 3750 2511 3984 
Q 2250 4219 1831 4219 
Q 1534 4219 1204 4116 
Q 875 4013 500 3803 
L 500 4441 
Q 881 4594 1212 4672 
Q 1544 4750 1819 4750 
Q 2544 4750 2975 4387 
Q 3406 4025 3406 3419 
Q 3406 3131 3298 2873 
Q 3191 2616 2906 2266 
Q 2828 2175 2409 1742 
Q 1991 1309 1228 531 
z
" transform="scale(0.015625)"/>
       </defs>
       <use xlink:href="#DejaVuSans-32"/>
       <use xlink:href="#DejaVuSans-30" transform="translate(63.623047 0)"/>
       <use xlink:href="#DejaVuSans-30" transform="translate(127.246094 0)"/>
      </g>
     </g>
    </g>
    <g id="xtick_3">
     <g id="line2d_3">
      <g>
       <use xlink:href="#m70b3645306" x="211.8" y="128.16" style="stroke: #000000; stroke-width: 0.8"/>
      </g>
     </g>
     <g id="text_3">
      <!-- 400 -->
      <g transform="translate(204.165 141.23875) scale(0.08 -0.08)">
       <defs>
        <path id="DejaVuSans-34" d="M 2419 4116 
L 825 1625 
L 2419 1625 
L 2419 4116 
z
M 2253 4666 
L 3047 4666 
L 3047 1625 
L 3713 1625 
L 3713 1100 
L 3047 1100 
L 3047 0 
L 2419 0 
L 2419 1100 
L 313 1100 
L 313 1709 
L 2253 4666 
z
" transform="scale(0.015625)"/>
       </defs>
       <use xlink:href="#DejaVuSans-34"/>
       <use xlink:href="#DejaVuSans-30" transform="translate(63.623047 0)"/>
       <use xlink:href="#DejaVuSans-30" transform="translate(127.246094 0)"/>
      </g>
     </g>
    </g>
    <g id="xtick_4">
     <g id="line2d_4">
      <g>
       <use xlink:href="#m70b3645306" x="286.2" y="128.16" style="stroke: #000000; stroke-width: 0.8"/>
      </g>
     </g>
     <g id="text_4">
      <!-- 600 -->
      <g transform="translate(278.565 141.23875) scale(0.08 -0.08)">
       <defs>
        <path id="DejaVuSans-36" d="M 2113 2584 
Q 1688 2584 1439 2293 
Q 1191 2003 1191 1497 
Q 1191 994 1439 701 
Q 1688 409 2113 409 
Q 2538 409 2786 701 
Q 3034 994 3034 1497 
Q 3034 2003 2786 2293 
Q 2538 2584 2113 2584 
z
M 3366 4563 
L 3366 3988 
Q 3128 4100 2886 4159 
Q 2644 4219 2406 4219 
Q 1781 4219 1451 3797 
Q 1122 3375 1075 2522 
Q 1259 2794 1537 2939 
Q 1816 3084 2150 3084 
Q 2853 3084 3261 2657 
Q 3669 2231 3669 1497 
Q 3669 778 3244 343 
Q 2819 -91 2113 -91 
Q 1303 -91 875 529 
Q 447 1150 447 2328 
Q 447 3434 972 4092 
Q 1497 4750 2381 4750 
Q 2619 4750 2861 4703 
Q 3103 4656 3366 4563 
z
" transform="scale(0.015625)"/>
       </defs>
       <use xlink:href="#DejaVuSans-36"/>
       <use xlink:href="#DejaVuSans-30" transform="translate(63.623047 0)"/>
       <use xlink:href="#DejaVuSans-30" transform="translate(127.246094 0)"/>
      </g>
     </g>
    </g>
    <g id="xtick_5">
     <g id="line2d_5">
      <g>
       <use xlink:href="#m70b3645306" x="360.6" y="128.16" style="stroke: #000000; stroke-width: 0.8"/>
      </g>
     </g>
     <g id="text_5">
      <!-- 800 -->
      <g transform="translate(352.965 141.23875) scale(0.08 -0.08)">
       <defs>
        <path id="DejaVuSans-38" d="M 2034 2216 
Q 1584 2216 1326 1975 
Q 1069 1734 1069 1313 
Q 1069 891 1326 650 
Q 1584 409 2034 409 
Q 2484 409 2743 651 
Q 3003 894 3003 1313 
Q 3003 1734 2745 1975 
Q 2488 2216 2034 2216 
z
M 1403 2484 
Q 997 2584 770 2862 
Q 544 3141 544 3541 
Q 544 4100 942 4425 
Q 1341 4750 2034 4750 
Q 2731 4750 3128 4425 
Q 3525 4100 3525 3541 
Q 3525 3141 3298 2862 
Q 3072 2584 2669 2484 
Q 3125 2378 3379 2068 
Q 3634 1759 3634 1313 
Q 3634 634 3220 271 
Q 2806 -91 2034 -91 
Q 1263 -91 848 271 
Q 434 634 434 1313 
Q 434 1759 690 2068 
Q 947 2378 1403 2484 
z
M 1172 3481 
Q 1172 3119 1398 2916 
Q 1625 2713 2034 2713 
Q 2441 2713 2670 2916 
Q 2900 3119 2900 3481 
Q 2900 3844 2670 4047 
Q 2441 4250 2034 4250 
Q 1625 4250 1398 4047 
Q 1172 3844 1172 3481 
z
" transform="scale(0.015625)"/>
       </defs>
       <use xlink:href="#DejaVuSans-38"/>
       <use xlink:href="#DejaVuSans-30" transform="translate(63.623047 0)"/>
       <use xlink:href="#DejaVuSans-30" transform="translate(127.246094 0)"/>
      </g>
     </g>
    </g>
    <g id="xtick_6">
     <g id="line2d_6">
      <g>
       <use xlink:href="#m70b3645306" x="435" y="128.16" style="stroke: #000000; stroke-width: 0.8"/>
      </g>
     </g>
     <g id="text_6">
      <!-- 1000 -->
      <g transform="translate(424.82 141.23875) scale(0.08 -0.08)">
       <defs>
        <path id="DejaVuSans-31" d="M 794 531 
L 1825 531 
L 1825 4091 
L 703 3866 
L 703 4441 
L 1819 4666 
L 2450 4666 
L 2450 531 
L 3481 531 
L 3481 0 
L 794 0 
L 794 531 
z
" transform="scale(0.015625)"/>
       </defs>
       <use xlink:href="#DejaVuSans-31"/>
       <use xlink:href="#DejaVuSans-30" transform="translate(63.623047 0)"/>
       <use xlink:href="#DejaVuSans-30" transform="translate(127.246094 0)"/>
       <use xlink:href="#DejaVuSans-30" transform="translate(190.869141 0)"/>
      </g>
     </g>
    </g>
   </g>
   <g id="matplotlib.axis_2"/>
   <g id="line2d_7">
    <path d="M 63 105.984 
L 370.644 105.984 
L 370.644 105.984 
" clip-path="url(#p66867b7358)" style="fill: none; stroke: #1f77b4; stroke-width: 5; stroke-linecap: square"/>
   </g>
   <g id="line2d_8">
    <path d="M 145.212 105.984 
L 145.584 105.984 
L 145.956 105.984 
L 146.328 105.984 
L 146.7 105.984 
L 147.072 105.984 
L 147.444 105.984 
L 147.816 105.984 
L 148.188 105.984 
L 148.56 105.984 
L 148.932 105.984 
L 149.304 105.984 
L 149.676 105.984 
L 150.048 105.984 
L 150.42 105.984 
L 150.792 105.984 
L 151.164 105.984 
L 151.536 105.984 
L 151.908 105.984 
L 152.28 105.984 
L 152.652 105.984 
L 153.024 105.984 
L 153.396 105.984 
L 153.768 105.984 
L 154.14 105.984 
L 154.512 105.984 
L 154.884 105.984 
L 155.256 105.984 
L 155.628 105.984 
L 156 105.984 
L 156.372 105.984 
L 156.744 105.984 
L 157.116 105.984 
L 157.488 105.984 
L 157.86 105.984 
L 158.232 105.984 
L 158.604 105.984 
L 158.976 105.984 
L 159.348 105.984 
L 159.72 105.984 
L 160.092 105.984 
L 160.464 105.984 
L 160.836 105.984 
L 161.208 105.984 
L 161.58 105.984 
L 161.952 105.984 
L 162.324 105.984 
L 162.696 105.984 
L 163.068 105.984 
L 163.44 105.984 
L 163.812 105.984 
L 164.184 105.984 
L 164.556 105.984 
L 164.928 105.984 
L 165.3 105.984 
L 165.672 105.984 
L 166.044 105.984 
" clip-path="url(#p66867b7358)" style="fill: none; stroke: #fccde5; stroke-width: 15; stroke-linecap: square"/>
   </g>
   <g id="line2d_9">
    <path d="M 266.856 105.984 
L 359.856 105.984 
L 359.856 105.984 
" clip-path="url(#p66867b7358)" style="fill: none; stroke: #fb8072; stroke-width: 15; stroke-linecap: square"/>
   </g>
   <g id="line2d_10">
    <path d="M 63 83.808 
L 369.9 83.808 
L 369.9 83.808 
" clip-path="url(#p66867b7358)" style="fill: none; stroke: #1f77b4; stroke-width: 5; stroke-linecap: square"/>
   </g>
   <g id="line2d_11">
    <path d="M 86.064 83.808 
L 86.436 83.808 
L 86.808 83.808 
L 87.18 83.808 
L 87.552 83.808 
L 87.924 83.808 
L 88.296 83.808 
L 88.668 83.808 
L 89.04 83.808 
L 89.412 83.808 
L 89.784 83.808 
L 90.156 83.808 
L 90.528 83.808 
L 90.9 83.808 
L 91.272 83.808 
L 91.644 83.808 
L 92.016 83.808 
L 92.388 83.808 
L 92.76 83.808 
L 93.132 83.808 
L 93.504 83.808 
L 93.876 83.808 
L 94.248 83.808 
L 94.62 83.808 
L 94.992 83.808 
L 95.364 83.808 
L 95.736 83.808 
L 96.108 83.808 
L 96.48 83.808 
L 96.852 83.808 
L 97.224 83.808 
L 97.596 83.808 
L 97.968 83.808 
L 98.34 83.808 
L 98.712 83.808 
L 99.084 83.808 
L 99.456 83.808 
L 99.828 83.808 
L 100.2 83.808 
L 100.572 83.808 
L 100.944 83.808 
L 101.316 83.808 
L 101.688 83.808 
L 102.06 83.808 
L 102.432 83.808 
L 102.804 83.808 
L 103.176 83.808 
L 103.548 83.808 
L 103.92 83.808 
L 104.292 83.808 
L 104.664 83.808 
L 105.036 83.808 
L 105.408 83.808 
L 105.78 83.808 
L 106.152 83.808 
L 106.524 83.808 
L 106.896 83.808 
L 107.268 83.808 
L 107.64 83.808 
L 108.012 83.808 
L 108.384 83.808 
L 108.756 83.808 
L 109.128 83.808 
L 109.5 83.808 
L 109.872 83.808 
L 110.244 83.808 
L 110.616 83.808 
L 110.988 83.808 
L 111.36 83.808 
L 111.732 83.808 
L 112.104 83.808 
L 112.476 83.808 
L 112.848 83.808 
L 113.22 83.808 
L 113.592 83.808 
L 113.964 83.808 
L 114.336 83.808 
L 114.708 83.808 
L 115.08 83.808 
L 115.452 83.808 
L 115.824 83.808 
L 116.196 83.808 
L 116.568 83.808 
L 116.94 83.808 
L 117.312 83.808 
L 117.684 83.808 
L 118.056 83.808 
L 118.428 83.808 
L 118.8 83.808 
L 119.172 83.808 
L 119.544 83.808 
L 119.916 83.808 
L 120.288 83.808 
L 120.66 83.808 
L 121.032 83.808 
" clip-path="url(#p66867b7358)" style="fill: none; stroke: #e5c494; stroke-width: 15; stroke-linecap: square"/>
   </g>
   <g id="line2d_12">
    <path d="M 124.38 83.808 
L 124.752 83.808 
L 125.124 83.808 
L 125.496 83.808 
L 125.868 83.808 
L 126.24 83.808 
L 126.612 83.808 
L 126.984 83.808 
L 127.356 83.808 
L 127.728 83.808 
L 128.1 83.808 
L 128.472 83.808 
L 128.844 83.808 
L 129.216 83.808 
L 129.588 83.808 
L 129.96 83.808 
L 130.332 83.808 
L 130.704 83.808 
L 131.076 83.808 
L 131.448 83.808 
L 131.82 83.808 
L 132.192 83.808 
L 132.564 83.808 
L 132.936 83.808 
L 133.308 83.808 
L 133.68 83.808 
L 134.052 83.808 
L 134.424 83.808 
L 134.796 83.808 
L 135.168 83.808 
L 135.54 83.808 
L 135.912 83.808 
L 136.284 83.808 
L 136.656 83.808 
L 137.028 83.808 
L 137.4 83.808 
L 137.772 83.808 
L 138.144 83.808 
L 138.516 83.808 
L 138.888 83.808 
L 139.26 83.808 
L 139.632 83.808 
L 140.004 83.808 
L 140.376 83.808 
L 140.748 83.808 
L 141.12 83.808 
L 141.492 83.808 
L 141.864 83.808 
L 142.236 83.808 
L 142.608 83.808 
L 142.98 83.808 
L 143.352 83.808 
L 143.724 83.808 
L 144.096 83.808 
L 144.468 83.808 
L 144.84 83.808 
L 145.212 83.808 
L 145.584 83.808 
" clip-path="url(#p66867b7358)" style="fill: none; stroke: #fccde5; stroke-width: 15; stroke-linecap: square"/>
   </g>
   <g id="line2d_13">
    <path d="M 257.928 83.808 
L 358.368 83.808 
L 358.368 83.808 
" clip-path="url(#p66867b7358)" style="fill: none; stroke: #fb8072; stroke-width: 15; stroke-linecap: square"/>
   </g>
   <g id="line2d_14">
    <path d="M 63 61.632 
L 380.316 61.632 
L 380.316 61.632 
" clip-path="url(#p66867b7358)" style="fill: none; stroke: #d62728; stroke-width: 5; stroke-linecap: square"/>
   </g>
   <g id="line2d_15">
    <path d="M 85.692 61.632 
L 86.064 61.632 
L 86.436 61.632 
L 86.808 61.632 
L 87.18 61.632 
L 87.552 61.632 
L 87.924 61.632 
L 88.296 61.632 
L 88.668 61.632 
L 89.04 61.632 
L 89.412 61.632 
L 89.784 61.632 
L 90.156 61.632 
L 90.528 61.632 
L 90.9 61.632 
L 91.272 61.632 
L 91.644 61.632 
L 92.016 61.632 
L 92.388 61.632 
L 92.76 61.632 
L 93.132 61.632 
L 93.504 61.632 
L 93.876 61.632 
L 94.248 61.632 
L 94.62 61.632 
L 94.992 61.632 
L 95.364 61.632 
L 95.736 61.632 
L 96.108 61.632 
L 96.48 61.632 
L 96.852 61.632 
L 97.224 61.632 
L 97.596 61.632 
L 97.968 61.632 
L 98.34 61.632 
L 98.712 61.632 
L 99.084 61.632 
L 99.456 61.632 
L 99.828 61.632 
L 100.2 61.632 
L 100.572 61.632 
L 100.944 61.632 
L 101.316 61.632 
L 101.688 61.632 
L 102.06 61.632 
L 102.432 61.632 
L 102.804 61.632 
L 103.176 61.632 
L 103.548 61.632 
L 103.92 61.632 
L 104.292 61.632 
L 104.664 61.632 
L 105.036 61.632 
L 105.408 61.632 
L 105.78 61.632 
L 106.152 61.632 
L 106.524 61.632 
L 106.896 61.632 
L 107.268 61.632 
L 107.64 61.632 
L 108.012 61.632 
L 108.384 61.632 
L 108.756 61.632 
L 109.128 61.632 
L 109.5 61.632 
L 109.872 61.632 
L 110.244 61.632 
L 110.616 61.632 
L 110.988 61.632 
L 111.36 61.632 
L 111.732 61.632 
L 112.104 61.632 
L 112.476 61.632 
L 112.848 61.632 
L 113.22 61.632 
L 113.592 61.632 
L 113.964 61.632 
L 114.336 61.632 
L 114.708 61.632 
L 115.08 61.632 
L 115.452 61.632 
L 115.824 61.632 
L 116.196 61.632 
L 116.568 61.632 
L 116.94 61.632 
L 117.312 61.632 
L 117.684 61.632 
L 118.056 61.632 
L 118.428 61.632 
L 118.8 61.632 
L 119.172 61.632 
L 119.544 61.632 
L 119.916 61.632 
L 120.288 61.632 
L 120.66 61.632 
L 121.032 61.632 
L 121.404 61.632 
L 121.776 61.632 
L 122.148 61.632 
L 122.52 61.632 
L 122.892 61.632 
L 123.264 61.632 
L 123.636 61.632 
L 124.008 61.632 
L 124.38 61.632 
L 124.752 61.632 
L 125.124 61.632 
L 125.496 61.632 
L 125.868 61.632 
L 126.24 61.632 
L 126.612 61.632 
L 126.984 61.632 
L 127.356 61.632 
" clip-path="url(#p66867b7358)" style="fill: none; stroke: #e5c494; stroke-width: 15; stroke-linecap: square"/>
   </g>
   <g id="line2d_16">
    <path d="M 130.704 61.632 
L 131.076 61.632 
L 131.448 61.632 
L 131.82 61.632 
L 132.192 61.632 
L 132.564 61.632 
L 132.936 61.632 
L 133.308 61.632 
L 133.68 61.632 
L 134.052 61.632 
L 134.424 61.632 
L 134.796 61.632 
L 135.168 61.632 
L 135.54 61.632 
L 135.912 61.632 
L 136.284 61.632 
L 136.656 61.632 
L 137.028 61.632 
L 137.4 61.632 
L 137.772 61.632 
L 138.144 61.632 
L 138.516 61.632 
L 138.888 61.632 
L 139.26 61.632 
L 139.632 61.632 
L 140.004 61.632 
L 140.376 61.632 
L 140.748 61.632 
L 141.12 61.632 
L 141.492 61.632 
L 141.864 61.632 
L 142.236 61.632 
L 142.608 61.632 
L 142.98 61.632 
L 143.352 61.632 
L 143.724 61.632 
L 144.096 61.632 
L 144.468 61.632 
L 144.84 61.632 
L 145.212 61.632 
L 145.584 61.632 
L 145.956 61.632 
L 146.328 61.632 
L 146.7 61.632 
L 147.072 61.632 
L 147.444 61.632 
L 147.816 61.632 
L 148.188 61.632 
L 148.56 61.632 
L 148.932 61.632 
L 149.304 61.632 
L 149.676 61.632 
L 150.048 61.632 
L 150.42 61.632 
L 150.792 61.632 
L 151.164 61.632 
L 151.536 61.632 
L 151.908 61.632 
L 152.28 61.632 
" clip-path="url(#p66867b7358)" style="fill: none; stroke: #fccde5; stroke-width: 15; stroke-linecap: square"/>
   </g>
   <g id="line2d_17">
    <path d="M 265.74 61.632 
L 369.9 61.632 
L 369.9 61.632 
" clip-path="url(#p66867b7358)" style="fill: none; stroke: #fb8072; stroke-width: 15; stroke-linecap: square"/>
   </g>
   <g id="line2d_18">
    <path d="M 63 39.456 
L 416.772 39.456 
L 416.772 39.456 
" clip-path="url(#p66867b7358)" style="fill: none; stroke: #d62728; stroke-width: 5; stroke-linecap: square"/>
   </g>
   <g id="line2d_19">
    <path d="M 187.62 39.456 
L 187.992 39.456 
L 188.364 39.456 
L 188.736 39.456 
L 189.108 39.456 
L 189.48 39.456 
L 189.852 39.456 
L 190.224 39.456 
L 190.596 39.456 
L 190.968 39.456 
L 191.34 39.456 
L 191.712 39.456 
L 192.084 39.456 
L 192.456 39.456 
L 192.828 39.456 
L 193.2 39.456 
L 193.572 39.456 
L 193.944 39.456 
L 194.316 39.456 
L 194.688 39.456 
L 195.06 39.456 
L 195.432 39.456 
L 195.804 39.456 
L 196.176 39.456 
L 196.548 39.456 
L 196.92 39.456 
L 197.292 39.456 
L 197.664 39.456 
L 198.036 39.456 
L 198.408 39.456 
L 198.78 39.456 
L 199.152 39.456 
L 199.524 39.456 
L 199.896 39.456 
L 200.268 39.456 
L 200.64 39.456 
L 201.012 39.456 
L 201.384 39.456 
L 201.756 39.456 
L 202.128 39.456 
L 202.5 39.456 
L 202.872 39.456 
L 203.244 39.456 
L 203.616 39.456 
L 203.988 39.456 
L 204.36 39.456 
L 204.732 39.456 
L 205.104 39.456 
L 205.476 39.456 
L 205.848 39.456 
L 206.22 39.456 
L 206.592 39.456 
L 206.964 39.456 
L 207.336 39.456 
L 207.708 39.456 
L 208.08 39.456 
L 208.452 39.456 
L 208.824 39.456 
L 209.196 39.456 
" clip-path="url(#p66867b7358)" style="fill: none; stroke: #fccde5; stroke-width: 15; stroke-linecap: square"/>
   </g>
   <g id="line2d_20">
    <path d="M 292.896 39.456 
L 387.012 39.456 
L 387.012 39.456 
" clip-path="url(#p66867b7358)" style="fill: none; stroke: #fb8072; stroke-width: 15; stroke-linecap: square"/>
   </g>
   <g id="patch_3">
    <path d="M 63 128.16 
L 453.6 128.16 
" style="fill: none; stroke: #000000; stroke-width: 0.8; stroke-linejoin: miter; stroke-linecap: square"/>
   </g>
   <g id="text_7">
    <!-- amnio acid -->
    <g transform="translate(-11.4 130.3675) scale(0.08 -0.08)">
     <defs>
      <path id="DejaVuSans-61" d="M 2194 1759 
Q 1497 1759 1228 1600 
Q 959 1441 959 1056 
Q 959 750 1161 570 
Q 1363 391 1709 391 
Q 2188 391 2477 730 
Q 2766 1069 2766 1631 
L 2766 1759 
L 2194 1759 
z
M 3341 1997 
L 3341 0 
L 2766 0 
L 2766 531 
Q 2569 213 2275 61 
Q 1981 -91 1556 -91 
Q 1019 -91 701 211 
Q 384 513 384 1019 
Q 384 1609 779 1909 
Q 1175 2209 1959 2209 
L 2766 2209 
L 2766 2266 
Q 2766 2663 2505 2880 
Q 2244 3097 1772 3097 
Q 1472 3097 1187 3025 
Q 903 2953 641 2809 
L 641 3341 
Q 956 3463 1253 3523 
Q 1550 3584 1831 3584 
Q 2591 3584 2966 3190 
Q 3341 2797 3341 1997 
z
" transform="scale(0.015625)"/>
      <path id="DejaVuSans-6d" d="M 3328 2828 
Q 3544 3216 3844 3400 
Q 4144 3584 4550 3584 
Q 5097 3584 5394 3201 
Q 5691 2819 5691 2113 
L 5691 0 
L 5113 0 
L 5113 2094 
Q 5113 2597 4934 2840 
Q 4756 3084 4391 3084 
Q 3944 3084 3684 2787 
Q 3425 2491 3425 1978 
L 3425 0 
L 2847 0 
L 2847 2094 
Q 2847 2600 2669 2842 
Q 2491 3084 2119 3084 
Q 1678 3084 1418 2786 
Q 1159 2488 1159 1978 
L 1159 0 
L 581 0 
L 581 3500 
L 1159 3500 
L 1159 2956 
Q 1356 3278 1631 3431 
Q 1906 3584 2284 3584 
Q 2666 3584 2933 3390 
Q 3200 3197 3328 2828 
z
" transform="scale(0.015625)"/>
      <path id="DejaVuSans-6e" d="M 3513 2113 
L 3513 0 
L 2938 0 
L 2938 2094 
Q 2938 2591 2744 2837 
Q 2550 3084 2163 3084 
Q 1697 3084 1428 2787 
Q 1159 2491 1159 1978 
L 1159 0 
L 581 0 
L 581 3500 
L 1159 3500 
L 1159 2956 
Q 1366 3272 1645 3428 
Q 1925 3584 2291 3584 
Q 2894 3584 3203 3211 
Q 3513 2838 3513 2113 
z
" transform="scale(0.015625)"/>
      <path id="DejaVuSans-69" d="M 603 3500 
L 1178 3500 
L 1178 0 
L 603 0 
L 603 3500 
z
M 603 4863 
L 1178 4863 
L 1178 4134 
L 603 4134 
L 603 4863 
z
" transform="scale(0.015625)"/>
      <path id="DejaVuSans-6f" d="M 1959 3097 
Q 1497 3097 1228 2736 
Q 959 2375 959 1747 
Q 959 1119 1226 758 
Q 1494 397 1959 397 
Q 2419 397 2687 759 
Q 2956 1122 2956 1747 
Q 2956 2369 2687 2733 
Q 2419 3097 1959 3097 
z
M 1959 3584 
Q 2709 3584 3137 3096 
Q 3566 2609 3566 1747 
Q 3566 888 3137 398 
Q 2709 -91 1959 -91 
Q 1206 -91 779 398 
Q 353 888 353 1747 
Q 353 2609 779 3096 
Q 1206 3584 1959 3584 
z
" transform="scale(0.015625)"/>
      <path id="DejaVuSans-20" transform="scale(0.015625)"/>
      <path id="DejaVuSans-63" d="M 3122 3366 
L 3122 2828 
Q 2878 2963 2633 3030 
Q 2388 3097 2138 3097 
Q 1578 3097 1268 2742 
Q 959 2388 959 1747 
Q 959 1106 1268 751 
Q 1578 397 2138 397 
Q 2388 397 2633 464 
Q 2878 531 3122 666 
L 3122 134 
Q 2881 22 2623 -34 
Q 2366 -91 2075 -91 
Q 1284 -91 818 406 
Q 353 903 353 1747 
Q 353 2603 823 3093 
Q 1294 3584 2113 3584 
Q 2378 3584 2631 3529 
Q 2884 3475 3122 3366 
z
" transform="scale(0.015625)"/>
      <path id="DejaVuSans-64" d="M 2906 2969 
L 2906 4863 
L 3481 4863 
L 3481 0 
L 2906 0 
L 2906 525 
Q 2725 213 2448 61 
Q 2172 -91 1784 -91 
Q 1150 -91 751 415 
Q 353 922 353 1747 
Q 353 2572 751 3078 
Q 1150 3584 1784 3584 
Q 2172 3584 2448 3432 
Q 2725 3281 2906 2969 
z
M 947 1747 
Q 947 1113 1208 752 
Q 1469 391 1925 391 
Q 2381 391 2643 752 
Q 2906 1113 2906 1747 
Q 2906 2381 2643 2742 
Q 2381 3103 1925 3103 
Q 1469 3103 1208 2742 
Q 947 2381 947 1747 
z
" transform="scale(0.015625)"/>
     </defs>
     <use xlink:href="#DejaVuSans-61"/>
     <use xlink:href="#DejaVuSans-6d" transform="translate(61.279297 0)"/>
     <use xlink:href="#DejaVuSans-6e" transform="translate(158.691406 0)"/>
     <use xlink:href="#DejaVuSans-69" transform="translate(222.070312 0)"/>
     <use xlink:href="#DejaVuSans-6f" transform="translate(249.853516 0)"/>
     <use xlink:href="#DejaVuSans-20" transform="translate(311.035156 0)"/>
     <use xlink:href="#DejaVuSans-61" transform="translate(342.822266 0)"/>
     <use xlink:href="#DejaVuSans-63" transform="translate(404.101562 0)"/>
     <use xlink:href="#DejaVuSans-69" transform="translate(459.082031 0)"/>
     <use xlink:href="#DejaVuSans-64" transform="translate(486.865234 0)"/>
    </g>
   </g>
   <g id="text_8">
    <!-- ApPak2 -->
    <g transform="translate(-11.4 108.1915) scale(0.08 -0.08)">
     <defs>
      <path id="DejaVuSans-41" d="M 2188 4044 
L 1331 1722 
L 3047 1722 
L 2188 4044 
z
M 1831 4666 
L 2547 4666 
L 4325 0 
L 3669 0 
L 3244 1197 
L 1141 1197 
L 716 0 
L 50 0 
L 1831 4666 
z
" transform="scale(0.015625)"/>
      <path id="DejaVuSans-70" d="M 1159 525 
L 1159 -1331 
L 581 -1331 
L 581 3500 
L 1159 3500 
L 1159 2969 
Q 1341 3281 1617 3432 
Q 1894 3584 2278 3584 
Q 2916 3584 3314 3078 
Q 3713 2572 3713 1747 
Q 3713 922 3314 415 
Q 2916 -91 2278 -91 
Q 1894 -91 1617 61 
Q 1341 213 1159 525 
z
M 3116 1747 
Q 3116 2381 2855 2742 
Q 2594 3103 2138 3103 
Q 1681 3103 1420 2742 
Q 1159 2381 1159 1747 
Q 1159 1113 1420 752 
Q 1681 391 2138 391 
Q 2594 391 2855 752 
Q 3116 1113 3116 1747 
z
" transform="scale(0.015625)"/>
      <path id="DejaVuSans-50" d="M 1259 4147 
L 1259 2394 
L 2053 2394 
Q 2494 2394 2734 2622 
Q 2975 2850 2975 3272 
Q 2975 3691 2734 3919 
Q 2494 4147 2053 4147 
L 1259 4147 
z
M 628 4666 
L 2053 4666 
Q 2838 4666 3239 4311 
Q 3641 3956 3641 3272 
Q 3641 2581 3239 2228 
Q 2838 1875 2053 1875 
L 1259 1875 
L 1259 0 
L 628 0 
L 628 4666 
z
" transform="scale(0.015625)"/>
      <path id="DejaVuSans-6b" d="M 581 4863 
L 1159 4863 
L 1159 1991 
L 2875 3500 
L 3609 3500 
L 1753 1863 
L 3688 0 
L 2938 0 
L 1159 1709 
L 1159 0 
L 581 0 
L 581 4863 
z
" transform="scale(0.015625)"/>
     </defs>
     <use xlink:href="#DejaVuSans-41"/>
     <use xlink:href="#DejaVuSans-70" transform="translate(68.408203 0)"/>
     <use xlink:href="#DejaVuSans-50" transform="translate(131.884766 0)"/>
     <use xlink:href="#DejaVuSans-61" transform="translate(187.6875 0)"/>
     <use xlink:href="#DejaVuSans-6b" transform="translate(248.966797 0)"/>
     <use xlink:href="#DejaVuSans-32" transform="translate(306.876953 0)"/>
    </g>
   </g>
   <g id="text_9">
    <!-- CRIB -->
    <g transform="translate(146.317125 108.1915) scale(0.08 -0.08)">
     <defs>
      <path id="DejaVuSans-43" d="M 4122 4306 
L 4122 3641 
Q 3803 3938 3442 4084 
Q 3081 4231 2675 4231 
Q 1875 4231 1450 3742 
Q 1025 3253 1025 2328 
Q 1025 1406 1450 917 
Q 1875 428 2675 428 
Q 3081 428 3442 575 
Q 3803 722 4122 1019 
L 4122 359 
Q 3791 134 3420 21 
Q 3050 -91 2638 -91 
Q 1578 -91 968 557 
Q 359 1206 359 2328 
Q 359 3453 968 4101 
Q 1578 4750 2638 4750 
Q 3056 4750 3426 4639 
Q 3797 4528 4122 4306 
z
" transform="scale(0.015625)"/>
      <path id="DejaVuSans-52" d="M 2841 2188 
Q 3044 2119 3236 1894 
Q 3428 1669 3622 1275 
L 4263 0 
L 3584 0 
L 2988 1197 
Q 2756 1666 2539 1819 
Q 2322 1972 1947 1972 
L 1259 1972 
L 1259 0 
L 628 0 
L 628 4666 
L 2053 4666 
Q 2853 4666 3247 4331 
Q 3641 3997 3641 3322 
Q 3641 2881 3436 2590 
Q 3231 2300 2841 2188 
z
M 1259 4147 
L 1259 2491 
L 2053 2491 
Q 2509 2491 2742 2702 
Q 2975 2913 2975 3322 
Q 2975 3731 2742 3939 
Q 2509 4147 2053 4147 
L 1259 4147 
z
" transform="scale(0.015625)"/>
      <path id="DejaVuSans-49" d="M 628 4666 
L 1259 4666 
L 1259 0 
L 628 0 
L 628 4666 
z
" transform="scale(0.015625)"/>
      <path id="DejaVuSans-42" d="M 1259 2228 
L 1259 519 
L 2272 519 
Q 2781 519 3026 730 
Q 3272 941 3272 1375 
Q 3272 1813 3026 2020 
Q 2781 2228 2272 2228 
L 1259 2228 
z
M 1259 4147 
L 1259 2741 
L 2194 2741 
Q 2656 2741 2882 2914 
Q 3109 3088 3109 3444 
Q 3109 3797 2882 3972 
Q 2656 4147 2194 4147 
L 1259 4147 
z
M 628 4666 
L 2241 4666 
Q 2963 4666 3353 4366 
Q 3744 4066 3744 3513 
Q 3744 3084 3544 2831 
Q 3344 2578 2956 2516 
Q 3422 2416 3680 2098 
Q 3938 1781 3938 1306 
Q 3938 681 3513 340 
Q 3088 0 2303 0 
L 628 0 
L 628 4666 
z
" transform="scale(0.015625)"/>
     </defs>
     <use xlink:href="#DejaVuSans-43"/>
     <use xlink:href="#DejaVuSans-52" transform="translate(69.824219 0)"/>
     <use xlink:href="#DejaVuSans-49" transform="translate(139.306641 0)"/>
     <use xlink:href="#DejaVuSans-42" transform="translate(168.798828 0)"/>
    </g>
   </g>
   <g id="text_10">
    <!-- Kinase -->
    <g transform="translate(300.276375 108.1915) scale(0.08 -0.08)">
     <defs>
      <path id="DejaVuSans-4b" d="M 628 4666 
L 1259 4666 
L 1259 2694 
L 3353 4666 
L 4166 4666 
L 1850 2491 
L 4331 0 
L 3500 0 
L 1259 2247 
L 1259 0 
L 628 0 
L 628 4666 
z
" transform="scale(0.015625)"/>
      <path id="DejaVuSans-73" d="M 2834 3397 
L 2834 2853 
Q 2591 2978 2328 3040 
Q 2066 3103 1784 3103 
Q 1356 3103 1142 2972 
Q 928 2841 928 2578 
Q 928 2378 1081 2264 
Q 1234 2150 1697 2047 
L 1894 2003 
Q 2506 1872 2764 1633 
Q 3022 1394 3022 966 
Q 3022 478 2636 193 
Q 2250 -91 1575 -91 
Q 1294 -91 989 -36 
Q 684 19 347 128 
L 347 722 
Q 666 556 975 473 
Q 1284 391 1588 391 
Q 1994 391 2212 530 
Q 2431 669 2431 922 
Q 2431 1156 2273 1281 
Q 2116 1406 1581 1522 
L 1381 1569 
Q 847 1681 609 1914 
Q 372 2147 372 2553 
Q 372 3047 722 3315 
Q 1072 3584 1716 3584 
Q 2034 3584 2315 3537 
Q 2597 3491 2834 3397 
z
" transform="scale(0.015625)"/>
      <path id="DejaVuSans-65" d="M 3597 1894 
L 3597 1613 
L 953 1613 
Q 991 1019 1311 708 
Q 1631 397 2203 397 
Q 2534 397 2845 478 
Q 3156 559 3463 722 
L 3463 178 
Q 3153 47 2828 -22 
Q 2503 -91 2169 -91 
Q 1331 -91 842 396 
Q 353 884 353 1716 
Q 353 2575 817 3079 
Q 1281 3584 2069 3584 
Q 2775 3584 3186 3129 
Q 3597 2675 3597 1894 
z
M 3022 2063 
Q 3016 2534 2758 2815 
Q 2500 3097 2075 3097 
Q 1594 3097 1305 2825 
Q 1016 2553 972 2059 
L 3022 2063 
z
" transform="scale(0.015625)"/>
     </defs>
     <use xlink:href="#DejaVuSans-4b"/>
     <use xlink:href="#DejaVuSans-69" transform="translate(65.576172 0)"/>
     <use xlink:href="#DejaVuSans-6e" transform="translate(93.359375 0)"/>
     <use xlink:href="#DejaVuSans-61" transform="translate(156.738281 0)"/>
     <use xlink:href="#DejaVuSans-73" transform="translate(218.017578 0)"/>
     <use xlink:href="#DejaVuSans-65" transform="translate(270.117188 0)"/>
    </g>
   </g>
   <g id="text_11">
    <!-- amnio acid -->
    <g transform="translate(-11.4 130.3675) scale(0.08 -0.08)">
     <use xlink:href="#DejaVuSans-61"/>
     <use xlink:href="#DejaVuSans-6d" transform="translate(61.279297 0)"/>
     <use xlink:href="#DejaVuSans-6e" transform="translate(158.691406 0)"/>
     <use xlink:href="#DejaVuSans-69" transform="translate(222.070312 0)"/>
     <use xlink:href="#DejaVuSans-6f" transform="translate(249.853516 0)"/>
     <use xlink:href="#DejaVuSans-20" transform="translate(311.035156 0)"/>
     <use xlink:href="#DejaVuSans-61" transform="translate(342.822266 0)"/>
     <use xlink:href="#DejaVuSans-63" transform="translate(404.101562 0)"/>
     <use xlink:href="#DejaVuSans-69" transform="translate(459.082031 0)"/>
     <use xlink:href="#DejaVuSans-64" transform="translate(486.865234 0)"/>
    </g>
   </g>
   <g id="text_12">
    <!-- ApPak1 -->
    <g transform="translate(-11.4 86.0155) scale(0.08 -0.08)">
     <use xlink:href="#DejaVuSans-41"/>
     <use xlink:href="#DejaVuSans-70" transform="translate(68.408203 0)"/>
     <use xlink:href="#DejaVuSans-50" transform="translate(131.884766 0)"/>
     <use xlink:href="#DejaVuSans-61" transform="translate(187.6875 0)"/>
     <use xlink:href="#DejaVuSans-6b" transform="translate(248.966797 0)"/>
     <use xlink:href="#DejaVuSans-31" transform="translate(306.876953 0)"/>
    </g>
   </g>
   <g id="text_13">
    <!-- PH -->
    <g transform="translate(98.314 86.0155) scale(0.08 -0.08)">
     <defs>
      <path id="DejaVuSans-48" d="M 628 4666 
L 1259 4666 
L 1259 2753 
L 3553 2753 
L 3553 4666 
L 4184 4666 
L 4184 0 
L 3553 0 
L 3553 2222 
L 1259 2222 
L 1259 0 
L 628 0 
L 628 4666 
z
" transform="scale(0.015625)"/>
     </defs>
     <use xlink:href="#DejaVuSans-50"/>
     <use xlink:href="#DejaVuSans-48" transform="translate(60.302734 0)"/>
    </g>
   </g>
   <g id="text_14">
    <!-- CRIB -->
    <g transform="translate(125.671125 86.0155) scale(0.08 -0.08)">
     <use xlink:href="#DejaVuSans-43"/>
     <use xlink:href="#DejaVuSans-52" transform="translate(69.824219 0)"/>
     <use xlink:href="#DejaVuSans-49" transform="translate(139.306641 0)"/>
     <use xlink:href="#DejaVuSans-42" transform="translate(168.798828 0)"/>
    </g>
   </g>
   <g id="text_15">
    <!-- Kinase -->
    <g transform="translate(295.068375 86.0155) scale(0.08 -0.08)">
     <use xlink:href="#DejaVuSans-4b"/>
     <use xlink:href="#DejaVuSans-69" transform="translate(65.576172 0)"/>
     <use xlink:href="#DejaVuSans-6e" transform="translate(93.359375 0)"/>
     <use xlink:href="#DejaVuSans-61" transform="translate(156.738281 0)"/>
     <use xlink:href="#DejaVuSans-73" transform="translate(218.017578 0)"/>
     <use xlink:href="#DejaVuSans-65" transform="translate(270.117188 0)"/>
    </g>
   </g>
   <g id="text_16">
    <!-- amnio acid -->
    <g transform="translate(-11.4 130.3675) scale(0.08 -0.08)">
     <use xlink:href="#DejaVuSans-61"/>
     <use xlink:href="#DejaVuSans-6d" transform="translate(61.279297 0)"/>
     <use xlink:href="#DejaVuSans-6e" transform="translate(158.691406 0)"/>
     <use xlink:href="#DejaVuSans-69" transform="translate(222.070312 0)"/>
     <use xlink:href="#DejaVuSans-6f" transform="translate(249.853516 0)"/>
     <use xlink:href="#DejaVuSans-20" transform="translate(311.035156 0)"/>
     <use xlink:href="#DejaVuSans-61" transform="translate(342.822266 0)"/>
     <use xlink:href="#DejaVuSans-63" transform="translate(404.101562 0)"/>
     <use xlink:href="#DejaVuSans-69" transform="translate(459.082031 0)"/>
     <use xlink:href="#DejaVuSans-64" transform="translate(486.865234 0)"/>
    </g>
   </g>
   <g id="text_17">
    <!-- ScCla4 -->
    <g transform="translate(-11.4 63.8395) scale(0.08 -0.08)">
     <defs>
      <path id="DejaVuSans-53" d="M 3425 4513 
L 3425 3897 
Q 3066 4069 2747 4153 
Q 2428 4238 2131 4238 
Q 1616 4238 1336 4038 
Q 1056 3838 1056 3469 
Q 1056 3159 1242 3001 
Q 1428 2844 1947 2747 
L 2328 2669 
Q 3034 2534 3370 2195 
Q 3706 1856 3706 1288 
Q 3706 609 3251 259 
Q 2797 -91 1919 -91 
Q 1588 -91 1214 -16 
Q 841 59 441 206 
L 441 856 
Q 825 641 1194 531 
Q 1563 422 1919 422 
Q 2459 422 2753 634 
Q 3047 847 3047 1241 
Q 3047 1584 2836 1778 
Q 2625 1972 2144 2069 
L 1759 2144 
Q 1053 2284 737 2584 
Q 422 2884 422 3419 
Q 422 4038 858 4394 
Q 1294 4750 2059 4750 
Q 2388 4750 2728 4690 
Q 3069 4631 3425 4513 
z
" transform="scale(0.015625)"/>
      <path id="DejaVuSans-6c" d="M 603 4863 
L 1178 4863 
L 1178 0 
L 603 0 
L 603 4863 
z
" transform="scale(0.015625)"/>
     </defs>
     <use xlink:href="#DejaVuSans-53"/>
     <use xlink:href="#DejaVuSans-63" transform="translate(63.476562 0)"/>
     <use xlink:href="#DejaVuSans-43" transform="translate(118.457031 0)"/>
     <use xlink:href="#DejaVuSans-6c" transform="translate(188.28125 0)"/>
     <use xlink:href="#DejaVuSans-61" transform="translate(216.064453 0)"/>
     <use xlink:href="#DejaVuSans-34" transform="translate(277.34375 0)"/>
    </g>
   </g>
   <g id="text_18">
    <!-- PH -->
    <g transform="translate(101.29 63.8395) scale(0.08 -0.08)">
     <use xlink:href="#DejaVuSans-50"/>
     <use xlink:href="#DejaVuSans-48" transform="translate(60.302734 0)"/>
    </g>
   </g>
   <g id="text_19">
    <!-- CRIB -->
    <g transform="translate(132.181125 63.8395) scale(0.08 -0.08)">
     <use xlink:href="#DejaVuSans-43"/>
     <use xlink:href="#DejaVuSans-52" transform="translate(69.824219 0)"/>
     <use xlink:href="#DejaVuSans-49" transform="translate(139.306641 0)"/>
     <use xlink:href="#DejaVuSans-42" transform="translate(168.798828 0)"/>
    </g>
   </g>
   <g id="text_20">
    <!-- Kinase -->
    <g transform="translate(304.740375 63.8395) scale(0.08 -0.08)">
     <use xlink:href="#DejaVuSans-4b"/>
     <use xlink:href="#DejaVuSans-69" transform="translate(65.576172 0)"/>
     <use xlink:href="#DejaVuSans-6e" transform="translate(93.359375 0)"/>
     <use xlink:href="#DejaVuSans-61" transform="translate(156.738281 0)"/>
     <use xlink:href="#DejaVuSans-73" transform="translate(218.017578 0)"/>
     <use xlink:href="#DejaVuSans-65" transform="translate(270.117188 0)"/>
    </g>
   </g>
   <g id="text_21">
    <!-- amnio acid -->
    <g transform="translate(-11.4 130.3675) scale(0.08 -0.08)">
     <use xlink:href="#DejaVuSans-61"/>
     <use xlink:href="#DejaVuSans-6d" transform="translate(61.279297 0)"/>
     <use xlink:href="#DejaVuSans-6e" transform="translate(158.691406 0)"/>
     <use xlink:href="#DejaVuSans-69" transform="translate(222.070312 0)"/>
     <use xlink:href="#DejaVuSans-6f" transform="translate(249.853516 0)"/>
     <use xlink:href="#DejaVuSans-20" transform="translate(311.035156 0)"/>
     <use xlink:href="#DejaVuSans-61" transform="translate(342.822266 0)"/>
     <use xlink:href="#DejaVuSans-63" transform="translate(404.101562 0)"/>
     <use xlink:href="#DejaVuSans-69" transform="translate(459.082031 0)"/>
     <use xlink:href="#DejaVuSans-64" transform="translate(486.865234 0)"/>
    </g>
   </g>
   <g id="text_22">
    <!-- ScSte20 -->
    <g transform="translate(-11.4 41.6635) scale(0.08 -0.08)">
     <defs>
      <path id="DejaVuSans-74" d="M 1172 4494 
L 1172 3500 
L 2356 3500 
L 2356 3053 
L 1172 3053 
L 1172 1153 
Q 1172 725 1289 603 
Q 1406 481 1766 481 
L 2356 481 
L 2356 0 
L 1766 0 
Q 1100 0 847 248 
Q 594 497 594 1153 
L 594 3053 
L 172 3053 
L 172 3500 
L 594 3500 
L 594 4494 
L 1172 4494 
z
" transform="scale(0.015625)"/>
     </defs>
     <use xlink:href="#DejaVuSans-53"/>
     <use xlink:href="#DejaVuSans-63" transform="translate(63.476562 0)"/>
     <use xlink:href="#DejaVuSans-53" transform="translate(118.457031 0)"/>
     <use xlink:href="#DejaVuSans-74" transform="translate(181.933594 0)"/>
     <use xlink:href="#DejaVuSans-65" transform="translate(221.142578 0)"/>
     <use xlink:href="#DejaVuSans-32" transform="translate(282.666016 0)"/>
     <use xlink:href="#DejaVuSans-30" transform="translate(346.289062 0)"/>
    </g>
   </g>
   <g id="text_23">
    <!-- CRIB -->
    <g transform="translate(189.097125 41.6635) scale(0.08 -0.08)">
     <use xlink:href="#DejaVuSans-43"/>
     <use xlink:href="#DejaVuSans-52" transform="translate(69.824219 0)"/>
     <use xlink:href="#DejaVuSans-49" transform="translate(139.306641 0)"/>
     <use xlink:href="#DejaVuSans-42" transform="translate(168.798828 0)"/>
    </g>
   </g>
   <g id="text_24">
    <!-- Kinase -->
    <g transform="translate(326.874375 41.6635) scale(0.08 -0.08)">
     <use xlink:href="#DejaVuSans-4b"/>
     <use xlink:href="#DejaVuSans-69" transform="translate(65.576172 0)"/>
     <use xlink:href="#DejaVuSans-6e" transform="translate(93.359375 0)"/>
     <use xlink:href="#DejaVuSans-61" transform="translate(156.738281 0)"/>
     <use xlink:href="#DejaVuSans-73" transform="translate(218.017578 0)"/>
     <use xlink:href="#DejaVuSans-65" transform="translate(270.117188 0)"/>
    </g>
   </g>
  </g>
 </g>
 <defs>
  <clipPath id="p66867b7358">
   <rect x="63" y="17.28" width="390.6" height="110.88"/>
  </clipPath>
 </defs>
</svg>
