<?xml version="1.0" encoding="utf-8" standalone="no"?>
<!DOCTYPE svg PUBLIC "-//W3C//DTD SVG 1.1//EN"
  "http://www.w3.org/Graphics/SVG/1.1/DTD/svg11.dtd">
<svg xmlns:xlink="http://www.w3.org/1999/xlink" width="504pt" height="72pt" viewBox="0 0 504 72" xmlns="http://www.w3.org/2000/svg" version="1.1">
 <metadata>
  <rdf:RDF xmlns:dc="http://purl.org/dc/elements/1.1/" xmlns:cc="http://creativecommons.org/ns#" xmlns:rdf="http://www.w3.org/1999/02/22-rdf-syntax-ns#">
   <cc:Work>
    <dc:type rdf:resource="http://purl.org/dc/dcmitype/StillImage"/>
    <dc:date>2024-10-29T15:30:18.965160</dc:date>
    <dc:format>image/svg+xml</dc:format>
    <dc:creator>
     <cc:Agent>
      <dc:title>Matplotlib v3.7.1, https://matplotlib.org/</dc:title>
     </cc:Agent>
    </dc:creator>
   </cc:Work>
  </rdf:RDF>
 </metadata>
 <defs>
  <style type="text/css">*{stroke-linejoin: round; stroke-linecap: butt}</style>
 </defs>
 <g id="figure_1">
  <g id="patch_1">
   <path d="M 0 72 
L 504 72 
L 504 0 
L 0 0 
L 0 72 
z
" style="fill: none"/>
  </g>
  <g id="axes_1">
   <g id="patch_2">
    <path d="M 63 64.08 
L 453.6 64.08 
L 453.6 8.64 
L 63 8.64 
L 63 64.08 
z
" style="fill: none"/>
   </g>
   <g id="matplotlib.axis_1">
    <g id="xtick_1">
     <g id="line2d_1">
      <defs>
       <path id="m9e17fb025e" d="M 0 0 
L 0 3.5 
" style="stroke: #000000; stroke-width: 0.8"/>
      </defs>
      <g>
       <use xlink:href="#m9e17fb025e" x="63" y="64.08" style="stroke: #000000; stroke-width: 0.8"/>
      </g>
     </g>
     <g id="text_1">
      <!-- 0 -->
      <g transform="translate(59.81875 78.678438) scale(0.1 -0.1)">
       <defs>
        <path id="DejaVuSans-30" d="M 2034 4250 
Q 1547 4250 1301 3770 
Q 1056 3291 1056 2328 
Q 1056 1369 1301 889 
Q 1547 409 2034 409 
Q 2525 409 2770 889 
Q 3016 1369 3016 2328 
Q 3016 3291 2770 3770 
Q 2525 4250 2034 4250 
z
M 2034 4750 
Q 2819 4750 3233 4129 
Q 3647 3509 3647 2328 
Q 3647 1150 3233 529 
Q 2819 -91 2034 -91 
Q 1250 -91 836 529 
Q 422 1150 422 2328 
Q 422 3509 836 4129 
Q 1250 4750 2034 4750 
z
" transform="scale(0.015625)"/>
       </defs>
       <use xlink:href="#DejaVuSans-30"/>
      </g>
     </g>
    </g>
    <g id="xtick_2">
     <g id="line2d_2">
      <g>
       <use xlink:href="#m9e17fb025e" x="137.4" y="64.08" style="stroke: #000000; stroke-width: 0.8"/>
      </g>
     </g>
     <g id="text_2">
      <!-- 200 -->
      <g transform="translate(127.85625 78.678438) scale(0.1 -0.1)">
       <defs>
        <path id="DejaVuSans-32" d="M 1228 531 
L 3431 531 
L 3431 0 
L 469 0 
L 469 531 
Q 828 903 1448 1529 
Q 2069 2156 2228 2338 
Q 2531 2678 2651 2914 
Q 2772 3150 2772 3378 
Q 2772 3750 2511 3984 
Q 2250 4219 1831 4219 
Q 1534 4219 1204 4116 
Q 875 4013 500 3803 
L 500 4441 
Q 881 4594 1212 4672 
Q 1544 4750 1819 4750 
Q 2544 4750 2975 4387 
Q 3406 4025 3406 3419 
Q 3406 3131 3298 2873 
Q 3191 2616 2906 2266 
Q 2828 2175 2409 1742 
Q 1991 1309 1228 531 
z
" transform="scale(0.015625)"/>
       </defs>
       <use xlink:href="#DejaVuSans-32"/>
       <use xlink:href="#DejaVuSans-30" x="63.623047"/>
       <use xlink:href="#DejaVuSans-30" x="127.246094"/>
      </g>
     </g>
    </g>
    <g id="xtick_3">
     <g id="line2d_3">
      <g>
       <use xlink:href="#m9e17fb025e" x="211.8" y="64.08" style="stroke: #000000; stroke-width: 0.8"/>
      </g>
     </g>
     <g id="text_3">
      <!-- 400 -->
      <g transform="translate(202.25625 78.678438) scale(0.1 -0.1)">
       <defs>
        <path id="DejaVuSans-34" d="M 2419 4116 
L 825 1625 
L 2419 1625 
L 2419 4116 
z
M 2253 4666 
L 3047 4666 
L 3047 1625 
L 3713 1625 
L 3713 1100 
L 3047 1100 
L 3047 0 
L 2419 0 
L 2419 1100 
L 313 1100 
L 313 1709 
L 2253 4666 
z
" transform="scale(0.015625)"/>
       </defs>
       <use xlink:href="#DejaVuSans-34"/>
       <use xlink:href="#DejaVuSans-30" x="63.623047"/>
       <use xlink:href="#DejaVuSans-30" x="127.246094"/>
      </g>
     </g>
    </g>
    <g id="xtick_4">
     <g id="line2d_4">
      <g>
       <use xlink:href="#m9e17fb025e" x="286.2" y="64.08" style="stroke: #000000; stroke-width: 0.8"/>
      </g>
     </g>
     <g id="text_4">
      <!-- 600 -->
      <g transform="translate(276.65625 78.678438) scale(0.1 -0.1)">
       <defs>
        <path id="DejaVuSans-36" d="M 2113 2584 
Q 1688 2584 1439 2293 
Q 1191 2003 1191 1497 
Q 1191 994 1439 701 
Q 1688 409 2113 409 
Q 2538 409 2786 701 
Q 3034 994 3034 1497 
Q 3034 2003 2786 2293 
Q 2538 2584 2113 2584 
z
M 3366 4563 
L 3366 3988 
Q 3128 4100 2886 4159 
Q 2644 4219 2406 4219 
Q 1781 4219 1451 3797 
Q 1122 3375 1075 2522 
Q 1259 2794 1537 2939 
Q 1816 3084 2150 3084 
Q 2853 3084 3261 2657 
Q 3669 2231 3669 1497 
Q 3669 778 3244 343 
Q 2819 -91 2113 -91 
Q 1303 -91 875 529 
Q 447 1150 447 2328 
Q 447 3434 972 4092 
Q 1497 4750 2381 4750 
Q 2619 4750 2861 4703 
Q 3103 4656 3366 4563 
z
" transform="scale(0.015625)"/>
       </defs>
       <use xlink:href="#DejaVuSans-36"/>
       <use xlink:href="#DejaVuSans-30" x="63.623047"/>
       <use xlink:href="#DejaVuSans-30" x="127.246094"/>
      </g>
     </g>
    </g>
    <g id="xtick_5">
     <g id="line2d_5">
      <g>
       <use xlink:href="#m9e17fb025e" x="360.6" y="64.08" style="stroke: #000000; stroke-width: 0.8"/>
      </g>
     </g>
     <g id="text_5">
      <!-- 800 -->
      <g transform="translate(351.05625 78.678438) scale(0.1 -0.1)">
       <defs>
        <path id="DejaVuSans-38" d="M 2034 2216 
Q 1584 2216 1326 1975 
Q 1069 1734 1069 1313 
Q 1069 891 1326 650 
Q 1584 409 2034 409 
Q 2484 409 2743 651 
Q 3003 894 3003 1313 
Q 3003 1734 2745 1975 
Q 2488 2216 2034 2216 
z
M 1403 2484 
Q 997 2584 770 2862 
Q 544 3141 544 3541 
Q 544 4100 942 4425 
Q 1341 4750 2034 4750 
Q 2731 4750 3128 4425 
Q 3525 4100 3525 3541 
Q 3525 3141 3298 2862 
Q 3072 2584 2669 2484 
Q 3125 2378 3379 2068 
Q 3634 1759 3634 1313 
Q 3634 634 3220 271 
Q 2806 -91 2034 -91 
Q 1263 -91 848 271 
Q 434 634 434 1313 
Q 434 1759 690 2068 
Q 947 2378 1403 2484 
z
M 1172 3481 
Q 1172 3119 1398 2916 
Q 1625 2713 2034 2713 
Q 2441 2713 2670 2916 
Q 2900 3119 2900 3481 
Q 2900 3844 2670 4047 
Q 2441 4250 2034 4250 
Q 1625 4250 1398 4047 
Q 1172 3844 1172 3481 
z
" transform="scale(0.015625)"/>
       </defs>
       <use xlink:href="#DejaVuSans-38"/>
       <use xlink:href="#DejaVuSans-30" x="63.623047"/>
       <use xlink:href="#DejaVuSans-30" x="127.246094"/>
      </g>
     </g>
    </g>
    <g id="xtick_6">
     <g id="line2d_6">
      <g>
       <use xlink:href="#m9e17fb025e" x="435" y="64.08" style="stroke: #000000; stroke-width: 0.8"/>
      </g>
     </g>
     <g id="text_6">
      <!-- 1000 -->
      <g transform="translate(422.275 78.678438) scale(0.1 -0.1)">
       <defs>
        <path id="DejaVuSans-31" d="M 794 531 
L 1825 531 
L 1825 4091 
L 703 3866 
L 703 4441 
L 1819 4666 
L 2450 4666 
L 2450 531 
L 3481 531 
L 3481 0 
L 794 0 
L 794 531 
z
" transform="scale(0.015625)"/>
       </defs>
       <use xlink:href="#DejaVuSans-31"/>
       <use xlink:href="#DejaVuSans-30" x="63.623047"/>
       <use xlink:href="#DejaVuSans-30" x="127.246094"/>
       <use xlink:href="#DejaVuSans-30" x="190.869141"/>
      </g>
     </g>
    </g>
   </g>
   <g id="matplotlib.axis_2"/>
   <g id="line2d_7">
    <path d="M 63 45.6 
L 279.504 45.6 
L 279.504 45.6 
" clip-path="url(#pcc2f119e7a)" style="fill: none; stroke: #1f77b4; stroke-width: 5; stroke-linecap: square"/>
   </g>
   <g id="line2d_8">
    <path d="M 75.276 45.6 
L 75.648 45.6 
L 76.02 45.6 
L 76.392 45.6 
L 76.764 45.6 
L 77.136 45.6 
L 77.508 45.6 
L 77.88 45.6 
L 78.252 45.6 
L 78.624 45.6 
L 78.996 45.6 
L 79.368 45.6 
L 79.74 45.6 
L 80.112 45.6 
L 80.484 45.6 
L 80.856 45.6 
L 81.228 45.6 
L 81.6 45.6 
L 81.972 45.6 
L 82.344 45.6 
L 82.716 45.6 
L 83.088 45.6 
L 83.46 45.6 
L 83.832 45.6 
L 84.204 45.6 
L 84.576 45.6 
L 84.948 45.6 
L 85.32 45.6 
L 85.692 45.6 
L 86.064 45.6 
L 86.436 45.6 
L 86.808 45.6 
L 87.18 45.6 
L 87.552 45.6 
L 87.924 45.6 
L 88.296 45.6 
L 88.668 45.6 
L 89.04 45.6 
L 89.412 45.6 
L 89.784 45.6 
L 90.156 45.6 
L 90.528 45.6 
L 90.9 45.6 
L 91.272 45.6 
L 91.644 45.6 
L 92.016 45.6 
L 92.388 45.6 
L 92.76 45.6 
L 93.132 45.6 
L 93.504 45.6 
L 93.876 45.6 
L 94.248 45.6 
L 94.62 45.6 
L 94.992 45.6 
L 95.364 45.6 
L 95.736 45.6 
L 96.108 45.6 
L 96.48 45.6 
" clip-path="url(#pcc2f119e7a)" style="fill: none; stroke: #66c2a5; stroke-width: 15; stroke-linecap: square"/>
   </g>
   <g id="line2d_9">
    <path d="M 115.08 45.6 
L 115.452 45.6 
L 115.824 45.6 
L 116.196 45.6 
L 116.568 45.6 
L 116.94 45.6 
L 117.312 45.6 
L 117.684 45.6 
L 118.056 45.6 
L 118.428 45.6 
L 118.8 45.6 
L 119.172 45.6 
L 119.544 45.6 
L 119.916 45.6 
L 120.288 45.6 
L 120.66 45.6 
L 121.032 45.6 
L 121.404 45.6 
L 121.776 45.6 
L 122.148 45.6 
L 122.52 45.6 
L 122.892 45.6 
L 123.264 45.6 
L 123.636 45.6 
L 124.008 45.6 
L 124.38 45.6 
L 124.752 45.6 
L 125.124 45.6 
L 125.496 45.6 
L 125.868 45.6 
L 126.24 45.6 
L 126.612 45.6 
L 126.984 45.6 
L 127.356 45.6 
L 127.728 45.6 
L 128.1 45.6 
L 128.472 45.6 
L 128.844 45.6 
L 129.216 45.6 
L 129.588 45.6 
L 129.96 45.6 
L 130.332 45.6 
L 130.704 45.6 
L 131.076 45.6 
L 131.448 45.6 
L 131.82 45.6 
L 132.192 45.6 
L 132.564 45.6 
L 132.936 45.6 
L 133.308 45.6 
L 133.68 45.6 
L 134.052 45.6 
L 134.424 45.6 
L 134.796 45.6 
L 135.168 45.6 
L 135.54 45.6 
" clip-path="url(#pcc2f119e7a)" style="fill: none; stroke: #66c2a5; stroke-width: 15; stroke-linecap: square"/>
   </g>
   <g id="line2d_10">
    <path d="M 171.624 45.6 
L 171.996 45.6 
L 172.368 45.6 
L 172.74 45.6 
L 173.112 45.6 
L 173.484 45.6 
L 173.856 45.6 
L 174.228 45.6 
L 174.6 45.6 
L 174.972 45.6 
L 175.344 45.6 
L 175.716 45.6 
L 176.088 45.6 
L 176.46 45.6 
L 176.832 45.6 
L 177.204 45.6 
L 177.576 45.6 
L 177.948 45.6 
L 178.32 45.6 
L 178.692 45.6 
L 179.064 45.6 
L 179.436 45.6 
L 179.808 45.6 
L 180.18 45.6 
L 180.552 45.6 
L 180.924 45.6 
L 181.296 45.6 
L 181.668 45.6 
L 182.04 45.6 
L 182.412 45.6 
L 182.784 45.6 
L 183.156 45.6 
L 183.528 45.6 
L 183.9 45.6 
L 184.272 45.6 
L 184.644 45.6 
L 185.016 45.6 
L 185.388 45.6 
L 185.76 45.6 
L 186.132 45.6 
L 186.504 45.6 
L 186.876 45.6 
L 187.248 45.6 
L 187.62 45.6 
L 187.992 45.6 
L 188.364 45.6 
L 188.736 45.6 
L 189.108 45.6 
L 189.48 45.6 
L 189.852 45.6 
L 190.224 45.6 
L 190.596 45.6 
L 190.968 45.6 
L 191.34 45.6 
L 191.712 45.6 
L 192.084 45.6 
L 192.456 45.6 
L 192.828 45.6 
L 193.2 45.6 
L 193.572 45.6 
L 193.944 45.6 
L 194.316 45.6 
L 194.688 45.6 
L 195.06 45.6 
L 195.432 45.6 
L 195.804 45.6 
L 196.176 45.6 
L 196.548 45.6 
L 196.92 45.6 
L 197.292 45.6 
L 197.664 45.6 
L 198.036 45.6 
L 198.408 45.6 
L 198.78 45.6 
L 199.152 45.6 
L 199.524 45.6 
L 199.896 45.6 
L 200.268 45.6 
L 200.64 45.6 
L 201.012 45.6 
L 201.384 45.6 
L 201.756 45.6 
L 202.128 45.6 
L 202.5 45.6 
L 202.872 45.6 
L 203.244 45.6 
L 203.616 45.6 
L 203.988 45.6 
L 204.36 45.6 
L 204.732 45.6 
L 205.104 45.6 
L 205.476 45.6 
L 205.848 45.6 
L 206.22 45.6 
L 206.592 45.6 
L 206.964 45.6 
L 207.336 45.6 
L 207.708 45.6 
L 208.08 45.6 
L 208.452 45.6 
L 208.824 45.6 
L 209.196 45.6 
L 209.568 45.6 
L 209.94 45.6 
L 210.312 45.6 
L 210.684 45.6 
L 211.056 45.6 
L 211.428 45.6 
" clip-path="url(#pcc2f119e7a)" style="fill: none; stroke: #8da0cb; stroke-width: 15; stroke-linecap: square"/>
   </g>
   <g id="line2d_11">
    <path d="M 245.28 45.6 
L 245.652 45.6 
L 246.024 45.6 
L 246.396 45.6 
L 246.768 45.6 
L 247.14 45.6 
L 247.512 45.6 
L 247.884 45.6 
L 248.256 45.6 
L 248.628 45.6 
L 249 45.6 
L 249.372 45.6 
L 249.744 45.6 
L 250.116 45.6 
L 250.488 45.6 
L 250.86 45.6 
L 251.232 45.6 
L 251.604 45.6 
L 251.976 45.6 
L 252.348 45.6 
L 252.72 45.6 
L 253.092 45.6 
L 253.464 45.6 
L 253.836 45.6 
L 254.208 45.6 
L 254.58 45.6 
L 254.952 45.6 
L 255.324 45.6 
L 255.696 45.6 
L 256.068 45.6 
L 256.44 45.6 
L 256.812 45.6 
L 257.184 45.6 
L 257.556 45.6 
L 257.928 45.6 
L 258.3 45.6 
L 258.672 45.6 
L 259.044 45.6 
L 259.416 45.6 
L 259.788 45.6 
L 260.16 45.6 
L 260.532 45.6 
L 260.904 45.6 
L 261.276 45.6 
L 261.648 45.6 
L 262.02 45.6 
L 262.392 45.6 
L 262.764 45.6 
L 263.136 45.6 
L 263.508 45.6 
L 263.88 45.6 
L 264.252 45.6 
L 264.624 45.6 
L 264.996 45.6 
L 265.368 45.6 
L 265.74 45.6 
L 266.112 45.6 
L 266.484 45.6 
L 266.856 45.6 
L 267.228 45.6 
L 267.6 45.6 
L 267.972 45.6 
L 268.344 45.6 
L 268.716 45.6 
L 269.088 45.6 
L 269.46 45.6 
L 269.832 45.6 
L 270.204 45.6 
L 270.576 45.6 
L 270.948 45.6 
L 271.32 45.6 
L 271.692 45.6 
L 272.064 45.6 
L 272.436 45.6 
L 272.808 45.6 
L 273.18 45.6 
L 273.552 45.6 
L 273.924 45.6 
L 274.296 45.6 
L 274.668 45.6 
L 275.04 45.6 
L 275.412 45.6 
L 275.784 45.6 
L 276.156 45.6 
L 276.528 45.6 
L 276.9 45.6 
L 277.272 45.6 
L 277.644 45.6 
L 278.016 45.6 
L 278.388 45.6 
L 278.76 45.6 
" clip-path="url(#pcc2f119e7a)" style="fill: none; stroke: #e78ac3; stroke-width: 15; stroke-linecap: square"/>
   </g>
   <g id="line2d_12">
    <path d="M 63 27.12 
L 270.204 27.12 
L 270.204 27.12 
" clip-path="url(#pcc2f119e7a)" style="fill: none; stroke: #d62728; stroke-width: 5; stroke-linecap: square"/>
   </g>
   <g id="line2d_13">
    <path d="M 90.9 27.12 
L 91.272 27.12 
L 91.644 27.12 
L 92.016 27.12 
L 92.388 27.12 
L 92.76 27.12 
L 93.132 27.12 
L 93.504 27.12 
L 93.876 27.12 
L 94.248 27.12 
L 94.62 27.12 
L 94.992 27.12 
L 95.364 27.12 
L 95.736 27.12 
L 96.108 27.12 
L 96.48 27.12 
L 96.852 27.12 
L 97.224 27.12 
L 97.596 27.12 
L 97.968 27.12 
L 98.34 27.12 
L 98.712 27.12 
L 99.084 27.12 
L 99.456 27.12 
L 99.828 27.12 
L 100.2 27.12 
L 100.572 27.12 
L 100.944 27.12 
L 101.316 27.12 
L 101.688 27.12 
L 102.06 27.12 
L 102.432 27.12 
L 102.804 27.12 
L 103.176 27.12 
L 103.548 27.12 
L 103.92 27.12 
L 104.292 27.12 
L 104.664 27.12 
L 105.036 27.12 
L 105.408 27.12 
L 105.78 27.12 
L 106.152 27.12 
L 106.524 27.12 
L 106.896 27.12 
L 107.268 27.12 
L 107.64 27.12 
L 108.012 27.12 
L 108.384 27.12 
L 108.756 27.12 
L 109.128 27.12 
L 109.5 27.12 
L 109.872 27.12 
" clip-path="url(#pcc2f119e7a)" style="fill: none; stroke: #66c2a5; stroke-width: 15; stroke-linecap: square"/>
   </g>
   <g id="line2d_14">
    <path d="M 121.776 27.12 
L 122.148 27.12 
L 122.52 27.12 
L 122.892 27.12 
L 123.264 27.12 
L 123.636 27.12 
L 124.008 27.12 
L 124.38 27.12 
L 124.752 27.12 
L 125.124 27.12 
L 125.496 27.12 
L 125.868 27.12 
L 126.24 27.12 
L 126.612 27.12 
L 126.984 27.12 
L 127.356 27.12 
L 127.728 27.12 
L 128.1 27.12 
L 128.472 27.12 
L 128.844 27.12 
L 129.216 27.12 
L 129.588 27.12 
L 129.96 27.12 
L 130.332 27.12 
L 130.704 27.12 
L 131.076 27.12 
L 131.448 27.12 
L 131.82 27.12 
L 132.192 27.12 
L 132.564 27.12 
L 132.936 27.12 
L 133.308 27.12 
L 133.68 27.12 
L 134.052 27.12 
L 134.424 27.12 
L 134.796 27.12 
L 135.168 27.12 
L 135.54 27.12 
L 135.912 27.12 
L 136.284 27.12 
L 136.656 27.12 
L 137.028 27.12 
L 137.4 27.12 
L 137.772 27.12 
L 138.144 27.12 
L 138.516 27.12 
L 138.888 27.12 
L 139.26 27.12 
L 139.632 27.12 
L 140.004 27.12 
L 140.376 27.12 
L 140.748 27.12 
L 141.12 27.12 
L 141.492 27.12 
L 141.864 27.12 
L 142.236 27.12 
" clip-path="url(#pcc2f119e7a)" style="fill: none; stroke: #66c2a5; stroke-width: 15; stroke-linecap: square"/>
   </g>
   <g id="line2d_15">
    <path d="M 168.276 27.12 
L 168.648 27.12 
L 169.02 27.12 
L 169.392 27.12 
L 169.764 27.12 
L 170.136 27.12 
L 170.508 27.12 
L 170.88 27.12 
L 171.252 27.12 
L 171.624 27.12 
L 171.996 27.12 
L 172.368 27.12 
L 172.74 27.12 
L 173.112 27.12 
L 173.484 27.12 
L 173.856 27.12 
L 174.228 27.12 
L 174.6 27.12 
L 174.972 27.12 
L 175.344 27.12 
L 175.716 27.12 
L 176.088 27.12 
L 176.46 27.12 
L 176.832 27.12 
L 177.204 27.12 
L 177.576 27.12 
L 177.948 27.12 
L 178.32 27.12 
L 178.692 27.12 
L 179.064 27.12 
L 179.436 27.12 
L 179.808 27.12 
L 180.18 27.12 
L 180.552 27.12 
L 180.924 27.12 
L 181.296 27.12 
L 181.668 27.12 
L 182.04 27.12 
L 182.412 27.12 
L 182.784 27.12 
L 183.156 27.12 
L 183.528 27.12 
L 183.9 27.12 
L 184.272 27.12 
L 184.644 27.12 
L 185.016 27.12 
L 185.388 27.12 
L 185.76 27.12 
L 186.132 27.12 
L 186.504 27.12 
L 186.876 27.12 
L 187.248 27.12 
L 187.62 27.12 
L 187.992 27.12 
L 188.364 27.12 
L 188.736 27.12 
L 189.108 27.12 
L 189.48 27.12 
L 189.852 27.12 
L 190.224 27.12 
L 190.596 27.12 
L 190.968 27.12 
L 191.34 27.12 
L 191.712 27.12 
L 192.084 27.12 
L 192.456 27.12 
L 192.828 27.12 
L 193.2 27.12 
L 193.572 27.12 
L 193.944 27.12 
L 194.316 27.12 
L 194.688 27.12 
L 195.06 27.12 
L 195.432 27.12 
L 195.804 27.12 
L 196.176 27.12 
L 196.548 27.12 
L 196.92 27.12 
L 197.292 27.12 
L 197.664 27.12 
L 198.036 27.12 
L 198.408 27.12 
L 198.78 27.12 
L 199.152 27.12 
L 199.524 27.12 
L 199.896 27.12 
L 200.268 27.12 
L 200.64 27.12 
L 201.012 27.12 
L 201.384 27.12 
L 201.756 27.12 
L 202.128 27.12 
L 202.5 27.12 
L 202.872 27.12 
L 203.244 27.12 
L 203.616 27.12 
L 203.988 27.12 
L 204.36 27.12 
L 204.732 27.12 
L 205.104 27.12 
L 205.476 27.12 
L 205.848 27.12 
L 206.22 27.12 
L 206.592 27.12 
L 206.964 27.12 
L 207.336 27.12 
L 207.708 27.12 
L 208.08 27.12 
L 208.452 27.12 
L 208.824 27.12 
L 209.196 27.12 
L 209.568 27.12 
L 209.94 27.12 
L 210.312 27.12 
L 210.684 27.12 
L 211.056 27.12 
L 211.428 27.12 
" clip-path="url(#pcc2f119e7a)" style="fill: none; stroke: #8da0cb; stroke-width: 15; stroke-linecap: square"/>
   </g>
   <g id="line2d_16">
    <path d="M 240.444 27.12 
L 240.816 27.12 
L 241.188 27.12 
L 241.56 27.12 
L 241.932 27.12 
L 242.304 27.12 
L 242.676 27.12 
L 243.048 27.12 
L 243.42 27.12 
L 243.792 27.12 
L 244.164 27.12 
L 244.536 27.12 
L 244.908 27.12 
L 245.28 27.12 
L 245.652 27.12 
L 246.024 27.12 
L 246.396 27.12 
L 246.768 27.12 
L 247.14 27.12 
L 247.512 27.12 
L 247.884 27.12 
L 248.256 27.12 
L 248.628 27.12 
L 249 27.12 
L 249.372 27.12 
L 249.744 27.12 
L 250.116 27.12 
L 250.488 27.12 
L 250.86 27.12 
L 251.232 27.12 
L 251.604 27.12 
L 251.976 27.12 
L 252.348 27.12 
L 252.72 27.12 
L 253.092 27.12 
L 253.464 27.12 
L 253.836 27.12 
L 254.208 27.12 
L 254.58 27.12 
L 254.952 27.12 
L 255.324 27.12 
L 255.696 27.12 
L 256.068 27.12 
L 256.44 27.12 
L 256.812 27.12 
L 257.184 27.12 
L 257.556 27.12 
L 257.928 27.12 
L 258.3 27.12 
L 258.672 27.12 
L 259.044 27.12 
L 259.416 27.12 
L 259.788 27.12 
L 260.16 27.12 
L 260.532 27.12 
L 260.904 27.12 
L 261.276 27.12 
L 261.648 27.12 
L 262.02 27.12 
L 262.392 27.12 
L 262.764 27.12 
L 263.136 27.12 
L 263.508 27.12 
L 263.88 27.12 
L 264.252 27.12 
L 264.624 27.12 
L 264.996 27.12 
L 265.368 27.12 
L 265.74 27.12 
L 266.112 27.12 
L 266.484 27.12 
L 266.856 27.12 
" clip-path="url(#pcc2f119e7a)" style="fill: none; stroke: #e78ac3; stroke-width: 15; stroke-linecap: square"/>
   </g>
   <g id="patch_3">
    <path d="M 63 64.08 
L 453.6 64.08 
" style="fill: none; stroke: #000000; stroke-width: 0.8; stroke-linejoin: miter; stroke-linecap: square"/>
   </g>
   <g id="text_7">
    <!-- amnio acid -->
    <g transform="translate(-11.4 66.2875) scale(0.08 -0.08)">
     <defs>
      <path id="DejaVuSans-61" d="M 2194 1759 
Q 1497 1759 1228 1600 
Q 959 1441 959 1056 
Q 959 750 1161 570 
Q 1363 391 1709 391 
Q 2188 391 2477 730 
Q 2766 1069 2766 1631 
L 2766 1759 
L 2194 1759 
z
M 3341 1997 
L 3341 0 
L 2766 0 
L 2766 531 
Q 2569 213 2275 61 
Q 1981 -91 1556 -91 
Q 1019 -91 701 211 
Q 384 513 384 1019 
Q 384 1609 779 1909 
Q 1175 2209 1959 2209 
L 2766 2209 
L 2766 2266 
Q 2766 2663 2505 2880 
Q 2244 3097 1772 3097 
Q 1472 3097 1187 3025 
Q 903 2953 641 2809 
L 641 3341 
Q 956 3463 1253 3523 
Q 1550 3584 1831 3584 
Q 2591 3584 2966 3190 
Q 3341 2797 3341 1997 
z
" transform="scale(0.015625)"/>
      <path id="DejaVuSans-6d" d="M 3328 2828 
Q 3544 3216 3844 3400 
Q 4144 3584 4550 3584 
Q 5097 3584 5394 3201 
Q 5691 2819 5691 2113 
L 5691 0 
L 5113 0 
L 5113 2094 
Q 5113 2597 4934 2840 
Q 4756 3084 4391 3084 
Q 3944 3084 3684 2787 
Q 3425 2491 3425 1978 
L 3425 0 
L 2847 0 
L 2847 2094 
Q 2847 2600 2669 2842 
Q 2491 3084 2119 3084 
Q 1678 3084 1418 2786 
Q 1159 2488 1159 1978 
L 1159 0 
L 581 0 
L 581 3500 
L 1159 3500 
L 1159 2956 
Q 1356 3278 1631 3431 
Q 1906 3584 2284 3584 
Q 2666 3584 2933 3390 
Q 3200 3197 3328 2828 
z
" transform="scale(0.015625)"/>
      <path id="DejaVuSans-6e" d="M 3513 2113 
L 3513 0 
L 2938 0 
L 2938 2094 
Q 2938 2591 2744 2837 
Q 2550 3084 2163 3084 
Q 1697 3084 1428 2787 
Q 1159 2491 1159 1978 
L 1159 0 
L 581 0 
L 581 3500 
L 1159 3500 
L 1159 2956 
Q 1366 3272 1645 3428 
Q 1925 3584 2291 3584 
Q 2894 3584 3203 3211 
Q 3513 2838 3513 2113 
z
" transform="scale(0.015625)"/>
      <path id="DejaVuSans-69" d="M 603 3500 
L 1178 3500 
L 1178 0 
L 603 0 
L 603 3500 
z
M 603 4863 
L 1178 4863 
L 1178 4134 
L 603 4134 
L 603 4863 
z
" transform="scale(0.015625)"/>
      <path id="DejaVuSans-6f" d="M 1959 3097 
Q 1497 3097 1228 2736 
Q 959 2375 959 1747 
Q 959 1119 1226 758 
Q 1494 397 1959 397 
Q 2419 397 2687 759 
Q 2956 1122 2956 1747 
Q 2956 2369 2687 2733 
Q 2419 3097 1959 3097 
z
M 1959 3584 
Q 2709 3584 3137 3096 
Q 3566 2609 3566 1747 
Q 3566 888 3137 398 
Q 2709 -91 1959 -91 
Q 1206 -91 779 398 
Q 353 888 353 1747 
Q 353 2609 779 3096 
Q 1206 3584 1959 3584 
z
" transform="scale(0.015625)"/>
      <path id="DejaVuSans-20" transform="scale(0.015625)"/>
      <path id="DejaVuSans-63" d="M 3122 3366 
L 3122 2828 
Q 2878 2963 2633 3030 
Q 2388 3097 2138 3097 
Q 1578 3097 1268 2742 
Q 959 2388 959 1747 
Q 959 1106 1268 751 
Q 1578 397 2138 397 
Q 2388 397 2633 464 
Q 2878 531 3122 666 
L 3122 134 
Q 2881 22 2623 -34 
Q 2366 -91 2075 -91 
Q 1284 -91 818 406 
Q 353 903 353 1747 
Q 353 2603 823 3093 
Q 1294 3584 2113 3584 
Q 2378 3584 2631 3529 
Q 2884 3475 3122 3366 
z
" transform="scale(0.015625)"/>
      <path id="DejaVuSans-64" d="M 2906 2969 
L 2906 4863 
L 3481 4863 
L 3481 0 
L 2906 0 
L 2906 525 
Q 2725 213 2448 61 
Q 2172 -91 1784 -91 
Q 1150 -91 751 415 
Q 353 922 353 1747 
Q 353 2572 751 3078 
Q 1150 3584 1784 3584 
Q 2172 3584 2448 3432 
Q 2725 3281 2906 2969 
z
M 947 1747 
Q 947 1113 1208 752 
Q 1469 391 1925 391 
Q 2381 391 2643 752 
Q 2906 1113 2906 1747 
Q 2906 2381 2643 2742 
Q 2381 3103 1925 3103 
Q 1469 3103 1208 2742 
Q 947 2381 947 1747 
z
" transform="scale(0.015625)"/>
     </defs>
     <use xlink:href="#DejaVuSans-61"/>
     <use xlink:href="#DejaVuSans-6d" x="61.279297"/>
     <use xlink:href="#DejaVuSans-6e" x="158.691406"/>
     <use xlink:href="#DejaVuSans-69" x="222.070312"/>
     <use xlink:href="#DejaVuSans-6f" x="249.853516"/>
     <use xlink:href="#DejaVuSans-20" x="311.035156"/>
     <use xlink:href="#DejaVuSans-61" x="342.822266"/>
     <use xlink:href="#DejaVuSans-63" x="404.101562"/>
     <use xlink:href="#DejaVuSans-69" x="459.082031"/>
     <use xlink:href="#DejaVuSans-64" x="486.865234"/>
    </g>
   </g>
   <g id="text_8">
    <!-- ApBem1 -->
    <g transform="translate(-11.4 47.8075) scale(0.08 -0.08)">
     <defs>
      <path id="DejaVuSans-41" d="M 2188 4044 
L 1331 1722 
L 3047 1722 
L 2188 4044 
z
M 1831 4666 
L 2547 4666 
L 4325 0 
L 3669 0 
L 3244 1197 
L 1141 1197 
L 716 0 
L 50 0 
L 1831 4666 
z
" transform="scale(0.015625)"/>
      <path id="DejaVuSans-70" d="M 1159 525 
L 1159 -1331 
L 581 -1331 
L 581 3500 
L 1159 3500 
L 1159 2969 
Q 1341 3281 1617 3432 
Q 1894 3584 2278 3584 
Q 2916 3584 3314 3078 
Q 3713 2572 3713 1747 
Q 3713 922 3314 415 
Q 2916 -91 2278 -91 
Q 1894 -91 1617 61 
Q 1341 213 1159 525 
z
M 3116 1747 
Q 3116 2381 2855 2742 
Q 2594 3103 2138 3103 
Q 1681 3103 1420 2742 
Q 1159 2381 1159 1747 
Q 1159 1113 1420 752 
Q 1681 391 2138 391 
Q 2594 391 2855 752 
Q 3116 1113 3116 1747 
z
" transform="scale(0.015625)"/>
      <path id="DejaVuSans-42" d="M 1259 2228 
L 1259 519 
L 2272 519 
Q 2781 519 3026 730 
Q 3272 941 3272 1375 
Q 3272 1813 3026 2020 
Q 2781 2228 2272 2228 
L 1259 2228 
z
M 1259 4147 
L 1259 2741 
L 2194 2741 
Q 2656 2741 2882 2914 
Q 3109 3088 3109 3444 
Q 3109 3797 2882 3972 
Q 2656 4147 2194 4147 
L 1259 4147 
z
M 628 4666 
L 2241 4666 
Q 2963 4666 3353 4366 
Q 3744 4066 3744 3513 
Q 3744 3084 3544 2831 
Q 3344 2578 2956 2516 
Q 3422 2416 3680 2098 
Q 3938 1781 3938 1306 
Q 3938 681 3513 340 
Q 3088 0 2303 0 
L 628 0 
L 628 4666 
z
" transform="scale(0.015625)"/>
      <path id="DejaVuSans-65" d="M 3597 1894 
L 3597 1613 
L 953 1613 
Q 991 1019 1311 708 
Q 1631 397 2203 397 
Q 2534 397 2845 478 
Q 3156 559 3463 722 
L 3463 178 
Q 3153 47 2828 -22 
Q 2503 -91 2169 -91 
Q 1331 -91 842 396 
Q 353 884 353 1716 
Q 353 2575 817 3079 
Q 1281 3584 2069 3584 
Q 2775 3584 3186 3129 
Q 3597 2675 3597 1894 
z
M 3022 2063 
Q 3016 2534 2758 2815 
Q 2500 3097 2075 3097 
Q 1594 3097 1305 2825 
Q 1016 2553 972 2059 
L 3022 2063 
z
" transform="scale(0.015625)"/>
     </defs>
     <use xlink:href="#DejaVuSans-41"/>
     <use xlink:href="#DejaVuSans-70" x="68.408203"/>
     <use xlink:href="#DejaVuSans-42" x="131.884766"/>
     <use xlink:href="#DejaVuSans-65" x="200.488281"/>
     <use xlink:href="#DejaVuSans-6d" x="262.011719"/>
     <use xlink:href="#DejaVuSans-31" x="359.423828"/>
    </g>
   </g>
   <g id="text_9">
    <!-- SH3 -->
    <g transform="translate(77.9715 47.8075) scale(0.08 -0.08)">
     <defs>
      <path id="DejaVuSans-53" d="M 3425 4513 
L 3425 3897 
Q 3066 4069 2747 4153 
Q 2428 4238 2131 4238 
Q 1616 4238 1336 4038 
Q 1056 3838 1056 3469 
Q 1056 3159 1242 3001 
Q 1428 2844 1947 2747 
L 2328 2669 
Q 3034 2534 3370 2195 
Q 3706 1856 3706 1288 
Q 3706 609 3251 259 
Q 2797 -91 1919 -91 
Q 1588 -91 1214 -16 
Q 841 59 441 206 
L 441 856 
Q 825 641 1194 531 
Q 1563 422 1919 422 
Q 2459 422 2753 634 
Q 3047 847 3047 1241 
Q 3047 1584 2836 1778 
Q 2625 1972 2144 2069 
L 1759 2144 
Q 1053 2284 737 2584 
Q 422 2884 422 3419 
Q 422 4038 858 4394 
Q 1294 4750 2059 4750 
Q 2388 4750 2728 4690 
Q 3069 4631 3425 4513 
z
" transform="scale(0.015625)"/>
      <path id="DejaVuSans-48" d="M 628 4666 
L 1259 4666 
L 1259 2753 
L 3553 2753 
L 3553 4666 
L 4184 4666 
L 4184 0 
L 3553 0 
L 3553 2222 
L 1259 2222 
L 1259 0 
L 628 0 
L 628 4666 
z
" transform="scale(0.015625)"/>
      <path id="DejaVuSans-33" d="M 2597 2516 
Q 3050 2419 3304 2112 
Q 3559 1806 3559 1356 
Q 3559 666 3084 287 
Q 2609 -91 1734 -91 
Q 1441 -91 1130 -33 
Q 819 25 488 141 
L 488 750 
Q 750 597 1062 519 
Q 1375 441 1716 441 
Q 2309 441 2620 675 
Q 2931 909 2931 1356 
Q 2931 1769 2642 2001 
Q 2353 2234 1838 2234 
L 1294 2234 
L 1294 2753 
L 1863 2753 
Q 2328 2753 2575 2939 
Q 2822 3125 2822 3475 
Q 2822 3834 2567 4026 
Q 2313 4219 1838 4219 
Q 1578 4219 1281 4162 
Q 984 4106 628 3988 
L 628 4550 
Q 988 4650 1302 4700 
Q 1616 4750 1894 4750 
Q 2613 4750 3031 4423 
Q 3450 4097 3450 3541 
Q 3450 3153 3228 2886 
Q 3006 2619 2597 2516 
z
" transform="scale(0.015625)"/>
     </defs>
     <use xlink:href="#DejaVuSans-53"/>
     <use xlink:href="#DejaVuSans-48" x="63.476562"/>
     <use xlink:href="#DejaVuSans-33" x="138.671875"/>
    </g>
   </g>
   <g id="text_10">
    <!-- SH3 -->
    <g transform="translate(117.4035 47.8075) scale(0.08 -0.08)">
     <use xlink:href="#DejaVuSans-53"/>
     <use xlink:href="#DejaVuSans-48" x="63.476562"/>
     <use xlink:href="#DejaVuSans-33" x="138.671875"/>
    </g>
   </g>
   <g id="text_11">
    <!-- PX -->
    <g transform="translate(186.560125 47.8075) scale(0.08 -0.08)">
     <defs>
      <path id="DejaVuSans-50" d="M 1259 4147 
L 1259 2394 
L 2053 2394 
Q 2494 2394 2734 2622 
Q 2975 2850 2975 3272 
Q 2975 3691 2734 3919 
Q 2494 4147 2053 4147 
L 1259 4147 
z
M 628 4666 
L 2053 4666 
Q 2838 4666 3239 4311 
Q 3641 3956 3641 3272 
Q 3641 2581 3239 2228 
Q 2838 1875 2053 1875 
L 1259 1875 
L 1259 0 
L 628 0 
L 628 4666 
z
" transform="scale(0.015625)"/>
      <path id="DejaVuSans-58" d="M 403 4666 
L 1081 4666 
L 2241 2931 
L 3406 4666 
L 4084 4666 
L 2584 2425 
L 4184 0 
L 3506 0 
L 2194 1984 
L 872 0 
L 191 0 
L 1856 2491 
L 403 4666 
z
" transform="scale(0.015625)"/>
     </defs>
     <use xlink:href="#DejaVuSans-50"/>
     <use xlink:href="#DejaVuSans-58" x="60.302734"/>
    </g>
   </g>
   <g id="text_12">
    <!-- PB1 -->
    <g transform="translate(254.50475 47.8075) scale(0.08 -0.08)">
     <use xlink:href="#DejaVuSans-50"/>
     <use xlink:href="#DejaVuSans-42" x="60.302734"/>
     <use xlink:href="#DejaVuSans-31" x="128.90625"/>
    </g>
   </g>
   <g id="text_13">
    <!-- amnio acid -->
    <g transform="translate(-11.4 66.2875) scale(0.08 -0.08)">
     <use xlink:href="#DejaVuSans-61"/>
     <use xlink:href="#DejaVuSans-6d" x="61.279297"/>
     <use xlink:href="#DejaVuSans-6e" x="158.691406"/>
     <use xlink:href="#DejaVuSans-69" x="222.070312"/>
     <use xlink:href="#DejaVuSans-6f" x="249.853516"/>
     <use xlink:href="#DejaVuSans-20" x="311.035156"/>
     <use xlink:href="#DejaVuSans-61" x="342.822266"/>
     <use xlink:href="#DejaVuSans-63" x="404.101562"/>
     <use xlink:href="#DejaVuSans-69" x="459.082031"/>
     <use xlink:href="#DejaVuSans-64" x="486.865234"/>
    </g>
   </g>
   <g id="text_14">
    <!-- ScBem1 -->
    <g transform="translate(-11.4 29.3275) scale(0.08 -0.08)">
     <use xlink:href="#DejaVuSans-53"/>
     <use xlink:href="#DejaVuSans-63" x="63.476562"/>
     <use xlink:href="#DejaVuSans-42" x="118.457031"/>
     <use xlink:href="#DejaVuSans-65" x="187.060547"/>
     <use xlink:href="#DejaVuSans-6d" x="248.583984"/>
     <use xlink:href="#DejaVuSans-31" x="345.996094"/>
    </g>
   </g>
   <g id="text_15">
    <!-- SH3 -->
    <g transform="translate(92.4795 29.3275) scale(0.08 -0.08)">
     <use xlink:href="#DejaVuSans-53"/>
     <use xlink:href="#DejaVuSans-48" x="63.476562"/>
     <use xlink:href="#DejaVuSans-33" x="138.671875"/>
    </g>
   </g>
   <g id="text_16">
    <!-- SH3 -->
    <g transform="translate(124.0995 29.3275) scale(0.08 -0.08)">
     <use xlink:href="#DejaVuSans-53"/>
     <use xlink:href="#DejaVuSans-48" x="63.476562"/>
     <use xlink:href="#DejaVuSans-33" x="138.671875"/>
    </g>
   </g>
   <g id="text_17">
    <!-- PX -->
    <g transform="translate(184.886125 29.3275) scale(0.08 -0.08)">
     <use xlink:href="#DejaVuSans-50"/>
     <use xlink:href="#DejaVuSans-58" x="60.302734"/>
    </g>
   </g>
   <g id="text_18">
    <!-- PB1 -->
    <g transform="translate(246.13475 29.3275) scale(0.08 -0.08)">
     <use xlink:href="#DejaVuSans-50"/>
     <use xlink:href="#DejaVuSans-42" x="60.302734"/>
     <use xlink:href="#DejaVuSans-31" x="128.90625"/>
    </g>
   </g>
  </g>
 </g>
 <defs>
  <clipPath id="pcc2f119e7a">
   <rect x="63" y="8.64" width="390.6" height="55.44"/>
  </clipPath>
 </defs>
</svg>
