<?xml version="1.0" encoding="utf-8" standalone="no"?>
<!DOCTYPE svg PUBLIC "-//W3C//DTD SVG 1.1//EN"
  "http://www.w3.org/Graphics/SVG/1.1/DTD/svg11.dtd">
<svg xmlns:xlink="http://www.w3.org/1999/xlink" width="180pt" height="36pt" viewBox="0 0 180 36" xmlns="http://www.w3.org/2000/svg" version="1.1">
 <metadata>
  <rdf:RDF xmlns:dc="http://purl.org/dc/elements/1.1/" xmlns:cc="http://creativecommons.org/ns#" xmlns:rdf="http://www.w3.org/1999/02/22-rdf-syntax-ns#">
   <cc:Work>
    <dc:type rdf:resource="http://purl.org/dc/dcmitype/StillImage"/>
    <dc:date>2024-11-16T16:18:49.136811</dc:date>
    <dc:format>image/svg+xml</dc:format>
    <dc:creator>
     <cc:Agent>
      <dc:title>Matplotlib v3.9.1, https://matplotlib.org/</dc:title>
     </cc:Agent>
    </dc:creator>
   </cc:Work>
  </rdf:RDF>
 </metadata>
 <defs>
  <style type="text/css">*{stroke-linejoin: round; stroke-linecap: butt}</style>
 </defs>
 <g id="figure_1">
  <g id="patch_1">
   <path d="M 0 36 
L 180 36 
L 180 0 
L 0 0 
L 0 36 
z
" style="fill: none"/>
  </g>
  <g id="axes_1">
   <g id="patch_2">
    <path d="M 22.5 32.04 
L 162 32.04 
L 162 4.32 
L 22.5 4.32 
L 22.5 32.04 
z
" style="fill: none"/>
   </g>
   <g id="matplotlib.axis_1">
    <g id="xtick_1"/>
    <g id="xtick_2"/>
    <g id="xtick_3"/>
    <g id="xtick_4"/>
   </g>
   <g id="matplotlib.axis_2">
    <g id="ytick_1"/>
    <g id="ytick_2"/>
   </g>
   <g id="line2d_1">
    <path d="M 28.840909 22.49831 
L 30.954545 25.101127 
L 33.068182 24.627887 
L 35.181818 28.887042 
L 37.295455 29.951831 
L 39.409091 29.360282 
L 41.522727 30.42507 
L 43.636364 28.768732 
L 45.75 30.78 
L 47.863636 30.78 
L 49.977273 29.951831 
L 52.090909 29.005352 
L 54.204545 28.768732 
L 56.318182 27.467324 
L 58.431818 25.692676 
L 60.545455 21.433521 
L 62.659091 21.906761 
L 64.772727 22.02507 
L 66.886364 16.582817 
L 69 21.906761 
L 71.113636 22.971549 
L 73.227273 26.165915 
L 75.340909 23.799718 
L 77.454545 25.219437 
L 79.568182 25.810986 
L 81.681818 22.38 
L 83.795455 25.219437 
L 85.909091 20.487042 
L 88.022727 20.368732 
L 90.136364 21.078592 
L 92.25 22.26169 
L 94.363636 21.078592 
L 96.477273 17.174366 
L 98.590909 23.799718 
L 100.704545 26.284225 
L 102.818182 23.681408 
L 104.931818 17.292676 
L 107.045455 19.422254 
L 109.159091 17.765915 
L 111.272727 23.208169 
L 113.386364 26.520845 
L 115.5 21.196901 
L 117.613636 20.487042 
L 119.727273 21.196901 
L 121.840909 22.61662 
L 123.954545 21.788451 
L 126.068182 28.058873 
L 128.181818 29.123662 
L 130.295455 28.650423 
L 132.409091 26.284225 
L 134.522727 24.272958 
L 136.636364 26.639155 
L 138.75 26.520845 
L 140.863636 28.887042 
L 142.977273 28.295493 
L 145.090909 29.478592 
L 147.204545 25.929296 
L 149.318182 26.165915 
L 151.431818 25.101127 
L 153.545455 26.165915 
L 155.659091 24.036338 
" clip-path="url(#pb5b4fea3bf)" style="fill: none; stroke: #1f77b4; stroke-width: 2; stroke-linecap: square"/>
   </g>
   <g id="line2d_2">
    <path d="M 28.840909 17.647606 
L 30.954545 21.433521 
L 33.068182 17.174366 
L 35.181818 13.98 
L 37.295455 16.582817 
L 39.409091 19.422254 
L 41.522727 20.132113 
L 43.636364 19.895493 
L 45.75 10.785634 
L 47.863636 15.044789 
L 49.977273 18.120845 
L 52.090909 18.594085 
L 54.204545 11.140563 
L 56.318182 16.109577 
L 58.431818 16.464507 
L 60.545455 15.636338 
L 62.659091 12.560282 
L 64.772727 13.62507 
L 66.886364 15.163099 
L 69 5.58 
L 71.113636 8.419437 
L 73.227273 13.388451 
L 75.340909 8.064507 
L 77.454545 17.410986 
L 79.568182 20.250423 
L 81.681818 20.250423 
L 83.795455 18.120845 
L 85.909091 20.723662 
L 88.022727 23.563099 
L 90.136364 21.906761 
L 92.25 24.272958 
L 94.363636 20.723662 
L 96.477273 15.991268 
L 98.590909 20.723662 
L 100.704545 14.808169 
L 102.818182 22.971549 
L 104.931818 24.036338 
L 107.045455 26.520845 
L 109.159091 28.058873 
L 111.272727 30.42507 
L 113.386364 29.478592 
L 115.5 28.058873 
L 117.613636 20.487042 
L 119.727273 22.38 
L 121.840909 20.013803 
L 123.954545 20.013803 
L 126.068182 20.841972 
L 128.181818 24.864507 
L 130.295455 21.078592 
L 132.409091 24.627887 
L 134.522727 23.563099 
L 136.636364 21.433521 
L 138.75 22.38 
L 140.863636 19.303944 
L 142.977273 22.49831 
L 145.090909 20.250423 
L 147.204545 24.391268 
L 149.318182 29.596901 
L 151.431818 24.982817 
L 153.545455 22.73493 
L 155.659091 24.272958 
" clip-path="url(#pb5b4fea3bf)" style="fill: none; stroke: #ff7f0e; stroke-width: 2; stroke-linecap: square"/>
   </g>
   <g id="patch_3">
    <path d="M 22.5 32.04 
L 22.5 4.32 
" style="fill: none; stroke: #000000; stroke-width: 0.8; stroke-linejoin: miter; stroke-linecap: square"/>
   </g>
   <g id="patch_4">
    <path d="M 162 32.04 
L 162 4.32 
" style="fill: none; stroke: #000000; stroke-width: 0.8; stroke-linejoin: miter; stroke-linecap: square"/>
   </g>
   <g id="patch_5">
    <path d="M 22.5 32.04 
L 162 32.04 
" style="fill: none; stroke: #000000; stroke-width: 0.8; stroke-linejoin: miter; stroke-linecap: square"/>
   </g>
   <g id="patch_6">
    <path d="M 22.5 4.32 
L 162 4.32 
" style="fill: none; stroke: #000000; stroke-width: 0.8; stroke-linejoin: miter; stroke-linecap: square"/>
   </g>
  </g>
 </g>
 <defs>
  <clipPath id="pb5b4fea3bf">
   <rect x="22.5" y="4.32" width="139.5" height="27.72"/>
  </clipPath>
 </defs>
</svg>
