<?xml version="1.0" encoding="utf-8" standalone="no"?>
<!DOCTYPE svg PUBLIC "-//W3C//DTD SVG 1.1//EN"
  "http://www.w3.org/Graphics/SVG/1.1/DTD/svg11.dtd">
<svg xmlns:xlink="http://www.w3.org/1999/xlink" width="180pt" height="36pt" viewBox="0 0 180 36" xmlns="http://www.w3.org/2000/svg" version="1.1">
 <metadata>
  <rdf:RDF xmlns:dc="http://purl.org/dc/elements/1.1/" xmlns:cc="http://creativecommons.org/ns#" xmlns:rdf="http://www.w3.org/1999/02/22-rdf-syntax-ns#">
   <cc:Work>
    <dc:type rdf:resource="http://purl.org/dc/dcmitype/StillImage"/>
    <dc:date>2024-11-16T16:18:48.912263</dc:date>
    <dc:format>image/svg+xml</dc:format>
    <dc:creator>
     <cc:Agent>
      <dc:title>Matplotlib v3.9.1, https://matplotlib.org/</dc:title>
     </cc:Agent>
    </dc:creator>
   </cc:Work>
  </rdf:RDF>
 </metadata>
 <defs>
  <style type="text/css">*{stroke-linejoin: round; stroke-linecap: butt}</style>
 </defs>
 <g id="figure_1">
  <g id="patch_1">
   <path d="M 0 36 
L 180 36 
L 180 0 
L 0 0 
L 0 36 
z
" style="fill: none"/>
  </g>
  <g id="axes_1">
   <g id="patch_2">
    <path d="M 22.5 32.04 
L 162 32.04 
L 162 4.32 
L 22.5 4.32 
L 22.5 32.04 
z
" style="fill: none"/>
   </g>
   <g id="matplotlib.axis_1">
    <g id="xtick_1"/>
    <g id="xtick_2"/>
    <g id="xtick_3"/>
    <g id="xtick_4"/>
   </g>
   <g id="matplotlib.axis_2">
    <g id="ytick_1"/>
    <g id="ytick_2"/>
   </g>
   <g id="line2d_1">
    <path d="M 28.840909 22.099064 
L 30.954545 18.474983 
L 33.068182 20.666288 
L 35.181818 24.796054 
L 37.295455 28.167291 
L 39.409091 28.08301 
L 41.522727 24.206087 
L 43.636364 24.627492 
L 45.75 25.554582 
L 47.863636 23.868963 
L 49.977273 24.374649 
L 52.090909 25.301739 
L 54.204545 25.975987 
L 56.318182 27.240201 
L 58.431818 26.650234 
L 60.545455 22.183344 
L 62.659091 22.941873 
L 64.772727 25.891706 
L 66.886364 30.358595 
L 69 29.347224 
L 71.113636 29.85291 
L 73.227273 30.442876 
L 75.340909 27.998729 
L 77.454545 29.262943 
L 79.568182 28.672977 
L 81.681818 29.85291 
L 83.795455 27.324482 
L 85.909091 29.347224 
L 88.022727 27.324482 
L 90.136364 26.565953 
L 92.25 25.638863 
L 94.363636 28.588696 
L 96.477273 30.105753 
L 98.590909 28.672977 
L 100.704545 29.85291 
L 102.818182 29.684348 
L 104.931818 29.094381 
L 107.045455 30.274314 
L 109.159091 26.987358 
L 111.272727 23.953244 
L 113.386364 28.08301 
L 115.5 27.998729 
L 117.613636 29.431505 
L 119.727273 30.78 
L 121.840909 30.021472 
L 123.954545 30.021472 
L 126.068182 29.515786 
L 128.181818 24.711773 
L 130.295455 25.38602 
L 132.409091 29.178662 
L 134.522727 26.903077 
L 136.636364 26.565953 
L 138.75 24.711773 
L 140.863636 24.037525 
L 142.977273 24.45893 
L 145.090909 20.244883 
L 147.204545 22.267625 
L 149.318182 22.436187 
L 151.431818 26.818796 
L 153.545455 22.857592 
L 155.659091 23.700401 
" clip-path="url(#p833c0044c8)" style="fill: none; stroke: #1f77b4; stroke-width: 2; stroke-linecap: square"/>
   </g>
   <g id="line2d_2">
    <path d="M 28.840909 22.773311 
L 30.954545 18.13786 
L 33.068182 8.445552 
L 35.181818 18.306421 
L 37.295455 22.857592 
L 39.409091 19.149231 
L 41.522727 22.436187 
L 43.636364 17.29505 
L 45.75 16.957926 
L 47.863636 21.256254 
L 49.977273 21.846221 
L 52.090909 24.290368 
L 54.204545 27.745886 
L 56.318182 23.110435 
L 58.431818 22.773311 
L 60.545455 21.593378 
L 62.659091 17.800736 
L 64.772727 20.160602 
L 66.886364 5.58 
L 69 11.985351 
L 71.113636 12.996722 
L 73.227273 18.13786 
L 75.340909 22.857592 
L 77.454545 27.577324 
L 79.568182 24.880334 
L 81.681818 28.588696 
L 83.795455 28.757258 
L 85.909091 26.565953 
L 88.022727 27.324482 
L 90.136364 23.110435 
L 92.25 25.048896 
L 94.363636 22.014783 
L 96.477273 27.830167 
L 98.590909 25.301739 
L 100.704545 25.975987 
L 102.818182 24.45893 
L 104.931818 22.099064 
L 107.045455 24.290368 
L 109.159091 22.267625 
L 111.272727 25.133177 
L 113.386364 23.194716 
L 115.5 22.351906 
L 117.613636 24.45893 
L 119.727273 22.099064 
L 121.840909 24.037525 
L 123.954545 22.183344 
L 126.068182 24.627492 
L 128.181818 27.071639 
L 130.295455 25.975987 
L 132.409091 24.374649 
L 134.522727 17.885017 
L 136.636364 21.846221 
L 138.75 16.620803 
L 140.863636 20.076321 
L 142.977273 21.846221 
L 145.090909 22.68903 
L 147.204545 28.335853 
L 149.318182 25.470301 
L 151.431818 19.402074 
L 153.545455 28.672977 
L 155.659091 25.975987 
" clip-path="url(#p833c0044c8)" style="fill: none; stroke: #ff7f0e; stroke-width: 2; stroke-linecap: square"/>
   </g>
   <g id="patch_3">
    <path d="M 22.5 32.04 
L 22.5 4.32 
" style="fill: none; stroke: #000000; stroke-width: 0.8; stroke-linejoin: miter; stroke-linecap: square"/>
   </g>
   <g id="patch_4">
    <path d="M 162 32.04 
L 162 4.32 
" style="fill: none; stroke: #000000; stroke-width: 0.8; stroke-linejoin: miter; stroke-linecap: square"/>
   </g>
   <g id="patch_5">
    <path d="M 22.5 32.04 
L 162 32.04 
" style="fill: none; stroke: #000000; stroke-width: 0.8; stroke-linejoin: miter; stroke-linecap: square"/>
   </g>
   <g id="patch_6">
    <path d="M 22.5 4.32 
L 162 4.32 
" style="fill: none; stroke: #000000; stroke-width: 0.8; stroke-linejoin: miter; stroke-linecap: square"/>
   </g>
  </g>
 </g>
 <defs>
  <clipPath id="p833c0044c8">
   <rect x="22.5" y="4.32" width="139.5" height="27.72"/>
  </clipPath>
 </defs>
</svg>
