<?xml version="1.0" encoding="utf-8" standalone="no"?>
<!DOCTYPE svg PUBLIC "-//W3C//DTD SVG 1.1//EN"
  "http://www.w3.org/Graphics/SVG/1.1/DTD/svg11.dtd">
<svg xmlns:xlink="http://www.w3.org/1999/xlink" width="180pt" height="36pt" viewBox="0 0 180 36" xmlns="http://www.w3.org/2000/svg" version="1.1">
 <metadata>
  <rdf:RDF xmlns:dc="http://purl.org/dc/elements/1.1/" xmlns:cc="http://creativecommons.org/ns#" xmlns:rdf="http://www.w3.org/1999/02/22-rdf-syntax-ns#">
   <cc:Work>
    <dc:type rdf:resource="http://purl.org/dc/dcmitype/StillImage"/>
    <dc:date>2024-11-16T16:18:48.520719</dc:date>
    <dc:format>image/svg+xml</dc:format>
    <dc:creator>
     <cc:Agent>
      <dc:title>Matplotlib v3.9.1, https://matplotlib.org/</dc:title>
     </cc:Agent>
    </dc:creator>
   </cc:Work>
  </rdf:RDF>
 </metadata>
 <defs>
  <style type="text/css">*{stroke-linejoin: round; stroke-linecap: butt}</style>
 </defs>
 <g id="figure_1">
  <g id="patch_1">
   <path d="M 0 36 
L 180 36 
L 180 0 
L 0 0 
L 0 36 
z
" style="fill: none"/>
  </g>
  <g id="axes_1">
   <g id="patch_2">
    <path d="M 22.5 32.04 
L 162 32.04 
L 162 4.32 
L 22.5 4.32 
L 22.5 32.04 
z
" style="fill: none"/>
   </g>
   <g id="matplotlib.axis_1">
    <g id="xtick_1"/>
    <g id="xtick_2"/>
    <g id="xtick_3"/>
    <g id="xtick_4"/>
   </g>
   <g id="matplotlib.axis_2">
    <g id="ytick_1"/>
    <g id="ytick_2"/>
   </g>
   <g id="line2d_1">
    <path d="M 28.840909 28.895888 
L 30.954545 27.718318 
L 33.068182 21.123925 
L 35.181818 25.951963 
L 37.295455 23.596822 
L 39.409091 22.419252 
L 41.522727 22.654766 
L 43.636364 20.888411 
L 45.75 23.596822 
L 47.863636 25.127664 
L 49.977273 24.06785 
L 52.090909 29.013645 
L 54.204545 30.544486 
L 56.318182 29.013645 
L 58.431818 30.78 
L 60.545455 30.191215 
L 62.659091 29.720187 
L 64.772727 30.426729 
L 66.886364 27.24729 
L 69 27.718318 
L 71.113636 27.482804 
L 73.227273 28.307103 
L 75.340909 24.538879 
L 77.454545 27.129533 
L 79.568182 19.475327 
L 81.681818 19.946355 
L 83.795455 20.064112 
L 85.909091 19.828598 
L 88.022727 23.832336 
L 90.136364 23.361308 
L 92.25 19.828598 
L 94.363636 17.826729 
L 96.477273 20.888411 
L 98.590909 14.058505 
L 100.704545 17.826729 
L 102.818182 18.768785 
L 104.931818 22.772523 
L 107.045455 20.181869 
L 109.159091 22.301495 
L 111.272727 17.237944 
L 113.386364 19.593084 
L 115.5 20.299626 
L 117.613636 22.065981 
L 119.727273 21.123925 
L 121.840909 21.594953 
L 123.954545 20.888411 
L 126.068182 21.006168 
L 128.181818 21.359439 
L 130.295455 16.531402 
L 132.409091 20.770654 
L 134.522727 21.594953 
L 136.636364 24.538879 
L 138.75 26.305234 
L 140.863636 29.837944 
L 142.977273 27.365047 
L 145.090909 27.011776 
L 147.204545 22.537009 
L 149.318182 20.181869 
L 151.431818 21.71271 
L 153.545455 25.363178 
L 155.659091 23.714579 
" clip-path="url(#p794b0c6b2c)" style="fill: none; stroke: #1f77b4; stroke-width: 2; stroke-linecap: square"/>
   </g>
   <g id="line2d_2">
    <path d="M 28.840909 29.955701 
L 30.954545 30.662243 
L 33.068182 29.720187 
L 35.181818 30.308972 
L 37.295455 29.837944 
L 39.409091 27.482804 
L 41.522727 26.776262 
L 43.636364 29.837944 
L 45.75 25.363178 
L 47.863636 19.593084 
L 49.977273 18.768785 
L 52.090909 19.122056 
L 54.204545 19.710841 
L 56.318182 23.479065 
L 58.431818 18.18 
L 60.545455 15.589346 
L 62.659091 16.295888 
L 64.772727 14.64729 
L 66.886364 16.060374 
L 69 14.529533 
L 71.113636 15.707103 
L 73.227273 8.406168 
L 75.340909 15.942617 
L 77.454545 15.82486 
L 79.568182 5.58 
L 81.681818 21.006168 
L 83.795455 18.18 
L 85.909091 16.531402 
L 88.022727 22.301495 
L 90.136364 19.828598 
L 92.25 10.408037 
L 94.363636 17.591215 
L 96.477273 18.886542 
L 98.590909 21.359439 
L 100.704545 22.772523 
L 102.818182 24.538879 
L 104.931818 23.125794 
L 107.045455 22.419252 
L 109.159091 19.946355 
L 111.272727 23.596822 
L 113.386364 26.894019 
L 115.5 27.836075 
L 117.613636 25.834206 
L 119.727273 22.419252 
L 121.840909 20.064112 
L 123.954545 22.537009 
L 126.068182 22.89028 
L 128.181818 21.830467 
L 130.295455 20.299626 
L 132.409091 21.477196 
L 134.522727 24.185607 
L 136.636364 20.417383 
L 138.75 23.950093 
L 140.863636 29.013645 
L 142.977273 27.011776 
L 145.090909 29.249159 
L 147.204545 27.011776 
L 149.318182 28.42486 
L 151.431818 30.308972 
L 153.545455 28.071589 
L 155.659091 29.013645 
" clip-path="url(#p794b0c6b2c)" style="fill: none; stroke: #ff7f0e; stroke-width: 2; stroke-linecap: square"/>
   </g>
   <g id="patch_3">
    <path d="M 22.5 32.04 
L 22.5 4.32 
" style="fill: none; stroke: #000000; stroke-width: 0.8; stroke-linejoin: miter; stroke-linecap: square"/>
   </g>
   <g id="patch_4">
    <path d="M 162 32.04 
L 162 4.32 
" style="fill: none; stroke: #000000; stroke-width: 0.8; stroke-linejoin: miter; stroke-linecap: square"/>
   </g>
   <g id="patch_5">
    <path d="M 22.5 32.04 
L 162 32.04 
" style="fill: none; stroke: #000000; stroke-width: 0.8; stroke-linejoin: miter; stroke-linecap: square"/>
   </g>
   <g id="patch_6">
    <path d="M 22.5 4.32 
L 162 4.32 
" style="fill: none; stroke: #000000; stroke-width: 0.8; stroke-linejoin: miter; stroke-linecap: square"/>
   </g>
  </g>
 </g>
 <defs>
  <clipPath id="p794b0c6b2c">
   <rect x="22.5" y="4.32" width="139.5" height="27.72"/>
  </clipPath>
 </defs>
</svg>
