<?xml version="1.0" encoding="utf-8" standalone="no"?>
<!DOCTYPE svg PUBLIC "-//W3C//DTD SVG 1.1//EN"
  "http://www.w3.org/Graphics/SVG/1.1/DTD/svg11.dtd">
<svg xmlns:xlink="http://www.w3.org/1999/xlink" width="180pt" height="36pt" viewBox="0 0 180 36" xmlns="http://www.w3.org/2000/svg" version="1.1">
 <metadata>
  <rdf:RDF xmlns:dc="http://purl.org/dc/elements/1.1/" xmlns:cc="http://creativecommons.org/ns#" xmlns:rdf="http://www.w3.org/1999/02/22-rdf-syntax-ns#">
   <cc:Work>
    <dc:type rdf:resource="http://purl.org/dc/dcmitype/StillImage"/>
    <dc:date>2024-11-16T16:18:48.322773</dc:date>
    <dc:format>image/svg+xml</dc:format>
    <dc:creator>
     <cc:Agent>
      <dc:title>Matplotlib v3.9.1, https://matplotlib.org/</dc:title>
     </cc:Agent>
    </dc:creator>
   </cc:Work>
  </rdf:RDF>
 </metadata>
 <defs>
  <style type="text/css">*{stroke-linejoin: round; stroke-linecap: butt}</style>
 </defs>
 <g id="figure_1">
  <g id="patch_1">
   <path d="M 0 36 
L 180 36 
L 180 0 
L 0 0 
L 0 36 
z
" style="fill: none"/>
  </g>
  <g id="axes_1">
   <g id="patch_2">
    <path d="M 22.5 32.04 
L 162 32.04 
L 162 4.32 
L 22.5 4.32 
L 22.5 32.04 
z
" style="fill: none"/>
   </g>
   <g id="matplotlib.axis_1">
    <g id="xtick_1"/>
    <g id="xtick_2"/>
    <g id="xtick_3"/>
    <g id="xtick_4"/>
   </g>
   <g id="matplotlib.axis_2">
    <g id="ytick_1"/>
    <g id="ytick_2"/>
   </g>
   <g id="line2d_1">
    <path d="M 28.840909 29.026154 
L 30.954545 26.810769 
L 33.068182 28.195385 
L 35.181818 28.841538 
L 37.295455 28.195385 
L 39.409091 29.764615 
L 41.522727 27.18 
L 43.636364 28.010769 
L 45.75 28.472308 
L 47.863636 28.103077 
L 49.977273 29.487692 
L 52.090909 29.764615 
L 54.204545 30.78 
L 56.318182 28.195385 
L 58.431818 27.18 
L 60.545455 26.533846 
L 62.659091 26.903077 
L 64.772727 24.503077 
L 66.886364 26.718462 
L 69 30.041538 
L 71.113636 29.764615 
L 73.227273 24.318462 
L 75.340909 25.333846 
L 77.454545 26.995385 
L 79.568182 22.564615 
L 81.681818 29.026154 
L 83.795455 28.195385 
L 85.909091 29.395385 
L 88.022727 28.472308 
L 90.136364 27.087692 
L 92.25 25.795385 
L 94.363636 23.303077 
L 96.477273 18.964615 
L 98.590909 19.426154 
L 100.704545 22.749231 
L 102.818182 27.087692 
L 104.931818 25.518462 
L 107.045455 21.18 
L 109.159091 20.164615 
L 111.272727 21.733846 
L 113.386364 21.549231 
L 115.5 19.887692 
L 117.613636 20.810769 
L 119.727273 11.395385 
L 121.840909 9.272308 
L 123.954545 19.056923 
L 126.068182 17.672308 
L 128.181818 20.441538 
L 130.295455 12.226154 
L 132.409091 13.241538 
L 134.522727 12.964615 
L 136.636364 19.703077 
L 138.75 27.733846 
L 140.863636 27.272308 
L 142.977273 30.041538 
L 145.090909 21.918462 
L 147.204545 10.195385 
L 149.318182 16.38 
L 151.431818 22.656923 
L 153.545455 23.026154 
L 155.659091 20.441538 
" clip-path="url(#pfa89f59d01)" style="fill: none; stroke: #1f77b4; stroke-width: 2; stroke-linecap: square"/>
   </g>
   <g id="line2d_2">
    <path d="M 28.840909 29.118462 
L 30.954545 29.395385 
L 33.068182 28.656923 
L 35.181818 28.656923 
L 37.295455 30.133846 
L 39.409091 26.072308 
L 41.522727 29.118462 
L 43.636364 29.303077 
L 45.75 27.364615 
L 47.863636 28.010769 
L 49.977273 28.656923 
L 52.090909 26.626154 
L 54.204545 27.087692 
L 56.318182 27.826154 
L 58.431818 27.918462 
L 60.545455 29.303077 
L 62.659091 27.087692 
L 64.772727 27.272308 
L 66.886364 29.303077 
L 69 27.18 
L 71.113636 28.472308 
L 73.227273 22.564615 
L 75.340909 28.472308 
L 77.454545 25.887692 
L 79.568182 19.333846 
L 81.681818 24.133846 
L 83.795455 24.687692 
L 85.909091 24.041538 
L 88.022727 20.256923 
L 90.136364 14.349231 
L 92.25 20.072308 
L 94.363636 24.226154 
L 96.477273 20.626154 
L 98.590909 23.395385 
L 100.704545 26.072308 
L 102.818182 15.272308 
L 104.931818 20.164615 
L 107.045455 18.964615 
L 109.159091 25.149231 
L 111.272727 15.364615 
L 113.386364 16.564615 
L 115.5 22.656923 
L 117.613636 23.395385 
L 119.727273 16.38 
L 121.840909 20.256923 
L 123.954545 23.026154 
L 126.068182 27.272308 
L 128.181818 20.718462 
L 130.295455 20.903077 
L 132.409091 12.410769 
L 134.522727 8.903077 
L 136.636364 9.18 
L 138.75 5.58 
L 140.863636 15.272308 
L 142.977273 18.595385 
L 145.090909 19.241538 
L 147.204545 21.272308 
L 149.318182 21.18 
L 151.431818 19.518462 
L 153.545455 16.656923 
L 155.659091 11.856923 
" clip-path="url(#pfa89f59d01)" style="fill: none; stroke: #ff7f0e; stroke-width: 2; stroke-linecap: square"/>
   </g>
   <g id="patch_3">
    <path d="M 22.5 32.04 
L 22.5 4.32 
" style="fill: none; stroke: #000000; stroke-width: 0.8; stroke-linejoin: miter; stroke-linecap: square"/>
   </g>
   <g id="patch_4">
    <path d="M 162 32.04 
L 162 4.32 
" style="fill: none; stroke: #000000; stroke-width: 0.8; stroke-linejoin: miter; stroke-linecap: square"/>
   </g>
   <g id="patch_5">
    <path d="M 22.5 32.04 
L 162 32.04 
" style="fill: none; stroke: #000000; stroke-width: 0.8; stroke-linejoin: miter; stroke-linecap: square"/>
   </g>
   <g id="patch_6">
    <path d="M 22.5 4.32 
L 162 4.32 
" style="fill: none; stroke: #000000; stroke-width: 0.8; stroke-linejoin: miter; stroke-linecap: square"/>
   </g>
  </g>
 </g>
 <defs>
  <clipPath id="pfa89f59d01">
   <rect x="22.5" y="4.32" width="139.5" height="27.72"/>
  </clipPath>
 </defs>
</svg>
