<?xml version="1.0" encoding="utf-8" standalone="no"?>
<!DOCTYPE svg PUBLIC "-//W3C//DTD SVG 1.1//EN"
  "http://www.w3.org/Graphics/SVG/1.1/DTD/svg11.dtd">
<svg xmlns:xlink="http://www.w3.org/1999/xlink" width="180pt" height="36pt" viewBox="0 0 180 36" xmlns="http://www.w3.org/2000/svg" version="1.1">
 <metadata>
  <rdf:RDF xmlns:dc="http://purl.org/dc/elements/1.1/" xmlns:cc="http://creativecommons.org/ns#" xmlns:rdf="http://www.w3.org/1999/02/22-rdf-syntax-ns#">
   <cc:Work>
    <dc:type rdf:resource="http://purl.org/dc/dcmitype/StillImage"/>
    <dc:date>2024-11-16T16:18:49.066631</dc:date>
    <dc:format>image/svg+xml</dc:format>
    <dc:creator>
     <cc:Agent>
      <dc:title>Matplotlib v3.9.1, https://matplotlib.org/</dc:title>
     </cc:Agent>
    </dc:creator>
   </cc:Work>
  </rdf:RDF>
 </metadata>
 <defs>
  <style type="text/css">*{stroke-linejoin: round; stroke-linecap: butt}</style>
 </defs>
 <g id="figure_1">
  <g id="patch_1">
   <path d="M 0 36 
L 180 36 
L 180 0 
L 0 0 
L 0 36 
z
" style="fill: none"/>
  </g>
  <g id="axes_1">
   <g id="patch_2">
    <path d="M 22.5 32.04 
L 162 32.04 
L 162 4.32 
L 22.5 4.32 
L 22.5 32.04 
z
" style="fill: none"/>
   </g>
   <g id="matplotlib.axis_1">
    <g id="xtick_1"/>
    <g id="xtick_2"/>
    <g id="xtick_3"/>
    <g id="xtick_4"/>
   </g>
   <g id="matplotlib.axis_2">
    <g id="ytick_1"/>
    <g id="ytick_2"/>
   </g>
   <g id="line2d_1">
    <path d="M 28.840909 25.666957 
L 30.954545 19.093043 
L 33.068182 23.597391 
L 35.181818 23.962609 
L 37.295455 24.327826 
L 39.409091 22.136522 
L 41.522727 22.136522 
L 43.636364 16.536522 
L 45.75 22.623478 
L 47.863636 22.136522 
L 49.977273 19.458261 
L 52.090909 19.093043 
L 54.204545 19.701739 
L 56.318182 17.266957 
L 58.431818 18.971304 
L 60.545455 15.44087 
L 62.659091 8.866957 
L 64.772727 21.04087 
L 66.886364 24.449565 
L 69 15.31913 
L 71.113636 5.58 
L 73.227273 12.397391 
L 75.340909 9.232174 
L 77.454545 12.032174 
L 79.568182 8.866957 
L 81.681818 11.058261 
L 83.795455 10.084348 
L 85.909091 17.145217 
L 88.022727 22.501739 
L 90.136364 26.64087 
L 92.25 20.797391 
L 94.363636 15.44087 
L 96.477273 21.04087 
L 98.590909 22.38 
L 100.704545 19.458261 
L 102.818182 20.188696 
L 104.931818 21.162609 
L 107.045455 23.71913 
L 109.159091 16.049565 
L 111.272727 17.875652 
L 113.386364 15.927826 
L 115.5 14.710435 
L 117.613636 19.093043 
L 119.727273 20.310435 
L 121.840909 21.527826 
L 123.954545 18.606087 
L 126.068182 20.553913 
L 128.181818 16.78 
L 130.295455 15.562609 
L 132.409091 17.023478 
L 134.522727 18.362609 
L 136.636364 22.745217 
L 138.75 24.571304 
L 140.863636 26.397391 
L 142.977273 27.614783 
L 145.090909 25.423478 
L 147.204545 23.110435 
L 149.318182 23.475652 
L 151.431818 30.293043 
L 153.545455 30.414783 
L 155.659091 30.78 
" clip-path="url(#p6df655d7e6)" style="fill: none; stroke: #1f77b4; stroke-width: 2; stroke-linecap: square"/>
   </g>
   <g id="line2d_2">
    <path d="M 28.840909 12.884348 
L 30.954545 18.362609 
L 33.068182 15.075652 
L 35.181818 18.11913 
L 37.295455 21.406087 
L 39.409091 18.11913 
L 41.522727 15.806087 
L 43.636364 16.171304 
L 45.75 14.588696 
L 47.863636 10.571304 
L 49.977273 11.545217 
L 52.090909 17.023478 
L 54.204545 17.875652 
L 56.318182 16.171304 
L 58.431818 17.023478 
L 60.545455 10.571304 
L 62.659091 17.266957 
L 64.772727 16.901739 
L 66.886364 10.206087 
L 69 10.571304 
L 71.113636 19.823478 
L 73.227273 12.397391 
L 75.340909 15.075652 
L 77.454545 17.145217 
L 79.568182 18.727826 
L 81.681818 20.432174 
L 83.795455 23.232174 
L 85.909091 18.484348 
L 88.022727 20.432174 
L 90.136364 21.771304 
L 92.25 18.11913 
L 94.363636 21.162609 
L 96.477273 11.910435 
L 98.590909 7.649565 
L 100.704545 9.597391 
L 102.818182 16.293043 
L 104.931818 21.771304 
L 107.045455 18.849565 
L 109.159091 22.866957 
L 111.272727 21.04087 
L 113.386364 18.849565 
L 115.5 19.093043 
L 117.613636 24.571304 
L 119.727273 22.501739 
L 121.840909 22.988696 
L 123.954545 20.310435 
L 126.068182 21.771304 
L 128.181818 20.675652 
L 130.295455 18.849565 
L 132.409091 19.823478 
L 134.522727 16.658261 
L 136.636364 15.927826 
L 138.75 19.458261 
L 140.863636 15.806087 
L 142.977273 15.44087 
L 145.090909 15.806087 
L 147.204545 12.884348 
L 149.318182 16.171304 
L 151.431818 9.962609 
L 153.545455 9.232174 
L 155.659091 11.788696 
" clip-path="url(#p6df655d7e6)" style="fill: none; stroke: #ff7f0e; stroke-width: 2; stroke-linecap: square"/>
   </g>
   <g id="patch_3">
    <path d="M 22.5 32.04 
L 22.5 4.32 
" style="fill: none; stroke: #000000; stroke-width: 0.8; stroke-linejoin: miter; stroke-linecap: square"/>
   </g>
   <g id="patch_4">
    <path d="M 162 32.04 
L 162 4.32 
" style="fill: none; stroke: #000000; stroke-width: 0.8; stroke-linejoin: miter; stroke-linecap: square"/>
   </g>
   <g id="patch_5">
    <path d="M 22.5 32.04 
L 162 32.04 
" style="fill: none; stroke: #000000; stroke-width: 0.8; stroke-linejoin: miter; stroke-linecap: square"/>
   </g>
   <g id="patch_6">
    <path d="M 22.5 4.32 
L 162 4.32 
" style="fill: none; stroke: #000000; stroke-width: 0.8; stroke-linejoin: miter; stroke-linecap: square"/>
   </g>
  </g>
 </g>
 <defs>
  <clipPath id="p6df655d7e6">
   <rect x="22.5" y="4.32" width="139.5" height="27.72"/>
  </clipPath>
 </defs>
</svg>
