<?xml version="1.0" encoding="utf-8" standalone="no"?>
<!DOCTYPE svg PUBLIC "-//W3C//DTD SVG 1.1//EN"
  "http://www.w3.org/Graphics/SVG/1.1/DTD/svg11.dtd">
<svg xmlns:xlink="http://www.w3.org/1999/xlink" width="180pt" height="36pt" viewBox="0 0 180 36" xmlns="http://www.w3.org/2000/svg" version="1.1">
 <metadata>
  <rdf:RDF xmlns:dc="http://purl.org/dc/elements/1.1/" xmlns:cc="http://creativecommons.org/ns#" xmlns:rdf="http://www.w3.org/1999/02/22-rdf-syntax-ns#">
   <cc:Work>
    <dc:type rdf:resource="http://purl.org/dc/dcmitype/StillImage"/>
    <dc:date>2024-11-16T16:18:48.991824</dc:date>
    <dc:format>image/svg+xml</dc:format>
    <dc:creator>
     <cc:Agent>
      <dc:title>Matplotlib v3.9.1, https://matplotlib.org/</dc:title>
     </cc:Agent>
    </dc:creator>
   </cc:Work>
  </rdf:RDF>
 </metadata>
 <defs>
  <style type="text/css">*{stroke-linejoin: round; stroke-linecap: butt}</style>
 </defs>
 <g id="figure_1">
  <g id="patch_1">
   <path d="M 0 36 
L 180 36 
L 180 0 
L 0 0 
L 0 36 
z
" style="fill: none"/>
  </g>
  <g id="axes_1">
   <g id="patch_2">
    <path d="M 22.5 32.04 
L 162 32.04 
L 162 4.32 
L 22.5 4.32 
L 22.5 32.04 
z
" style="fill: none"/>
   </g>
   <g id="matplotlib.axis_1">
    <g id="xtick_1"/>
    <g id="xtick_2"/>
    <g id="xtick_3"/>
    <g id="xtick_4"/>
   </g>
   <g id="matplotlib.axis_2">
    <g id="ytick_1"/>
    <g id="ytick_2"/>
   </g>
   <g id="line2d_1">
    <path d="M 28.840909 18.712394 
L 30.954545 19.510986 
L 33.068182 5.58 
L 35.181818 14.630704 
L 37.295455 22.794085 
L 39.409091 17.115211 
L 41.522727 18.002535 
L 43.636364 13.210986 
L 45.75 12.23493 
L 47.863636 21.463099 
L 49.977273 23.503944 
L 52.090909 21.019437 
L 54.204545 25.988451 
L 56.318182 24.83493 
L 58.431818 28.118028 
L 60.545455 25.633521 
L 62.659091 16.405352 
L 64.772727 14.630704 
L 66.886364 22.084225 
L 69 22.971549 
L 71.113636 16.937746 
L 73.227273 25.722254 
L 75.340909 28.118028 
L 77.454545 25.367324 
L 79.568182 29.981408 
L 81.681818 29.803944 
L 83.795455 30.78 
L 85.909091 29.715211 
L 88.022727 29.182817 
L 90.136364 28.295493 
L 92.25 30.158873 
L 94.363636 26.787042 
L 96.477273 21.729296 
L 98.590909 18.357465 
L 100.704545 26.165915 
L 102.818182 24.213803 
L 104.931818 21.818028 
L 107.045455 14.985634 
L 109.159091 8.064507 
L 111.272727 16.760282 
L 113.386364 10.194085 
L 115.5 24.48 
L 117.613636 25.988451 
L 119.727273 25.012394 
L 121.840909 29.005352 
L 123.954545 29.537746 
L 126.068182 29.715211 
L 128.181818 29.094085 
L 130.295455 29.271549 
L 132.409091 27.319437 
L 134.522727 29.182817 
L 136.636364 29.271549 
L 138.75 26.69831 
L 140.863636 29.360282 
L 142.977273 30.602535 
L 145.090909 28.91662 
L 147.204545 29.271549 
L 149.318182 29.626479 
L 151.431818 29.892676 
L 153.545455 30.691268 
L 155.659091 30.247606 
" clip-path="url(#pa72292f6a6)" style="fill: none; stroke: #1f77b4; stroke-width: 2; stroke-linecap: square"/>
   </g>
   <g id="line2d_2">
    <path d="M 28.840909 26.69831 
L 30.954545 27.319437 
L 33.068182 27.319437 
L 35.181818 25.633521 
L 37.295455 24.48 
L 39.409091 24.12507 
L 41.522727 25.988451 
L 43.636364 23.503944 
L 45.75 19.599718 
L 47.863636 14.453239 
L 49.977273 13.477183 
L 52.090909 18.978592 
L 54.204545 22.439155 
L 56.318182 27.053239 
L 58.431818 27.674366 
L 60.545455 28.206761 
L 62.659091 25.722254 
L 64.772727 27.851831 
L 66.886364 20.930704 
L 69 19.688451 
L 71.113636 17.292676 
L 73.227273 16.760282 
L 75.340909 19.422254 
L 77.454545 20.309577 
L 79.568182 14.364507 
L 81.681818 11.347606 
L 83.795455 17.292676 
L 85.909091 20.220845 
L 88.022727 18.18 
L 90.136364 9.66169 
L 92.25 16.937746 
L 94.363636 13.299718 
L 96.477273 17.203944 
L 98.590909 23.858873 
L 100.704545 30.247606 
L 102.818182 28.384225 
L 104.931818 27.585634 
L 107.045455 23.326479 
L 109.159091 17.913803 
L 111.272727 20.39831 
L 113.386364 26.875775 
L 115.5 25.544789 
L 117.613636 23.503944 
L 119.727273 24.746197 
L 121.840909 24.657465 
L 123.954545 20.39831 
L 126.068182 17.026479 
L 128.181818 15.251831 
L 130.295455 13.210986 
L 132.409091 17.647606 
L 134.522727 21.729296 
L 136.636364 21.995493 
L 138.75 20.487042 
L 140.863636 15.784225 
L 142.977273 16.582817 
L 145.090909 21.196901 
L 147.204545 20.220845 
L 149.318182 20.04338 
L 151.431818 24.568732 
L 153.545455 23.326479 
L 155.659091 19.510986 
" clip-path="url(#pa72292f6a6)" style="fill: none; stroke: #ff7f0e; stroke-width: 2; stroke-linecap: square"/>
   </g>
   <g id="patch_3">
    <path d="M 22.5 32.04 
L 22.5 4.32 
" style="fill: none; stroke: #000000; stroke-width: 0.8; stroke-linejoin: miter; stroke-linecap: square"/>
   </g>
   <g id="patch_4">
    <path d="M 162 32.04 
L 162 4.32 
" style="fill: none; stroke: #000000; stroke-width: 0.8; stroke-linejoin: miter; stroke-linecap: square"/>
   </g>
   <g id="patch_5">
    <path d="M 22.5 32.04 
L 162 32.04 
" style="fill: none; stroke: #000000; stroke-width: 0.8; stroke-linejoin: miter; stroke-linecap: square"/>
   </g>
   <g id="patch_6">
    <path d="M 22.5 4.32 
L 162 4.32 
" style="fill: none; stroke: #000000; stroke-width: 0.8; stroke-linejoin: miter; stroke-linecap: square"/>
   </g>
  </g>
 </g>
 <defs>
  <clipPath id="pa72292f6a6">
   <rect x="22.5" y="4.32" width="139.5" height="27.72"/>
  </clipPath>
 </defs>
</svg>
