<?xml version="1.0" encoding="utf-8" standalone="no"?>
<!DOCTYPE svg PUBLIC "-//W3C//DTD SVG 1.1//EN"
  "http://www.w3.org/Graphics/SVG/1.1/DTD/svg11.dtd">
<svg xmlns:xlink="http://www.w3.org/1999/xlink" width="180pt" height="36pt" viewBox="0 0 180 36" xmlns="http://www.w3.org/2000/svg" version="1.1">
 <metadata>
  <rdf:RDF xmlns:dc="http://purl.org/dc/elements/1.1/" xmlns:cc="http://creativecommons.org/ns#" xmlns:rdf="http://www.w3.org/1999/02/22-rdf-syntax-ns#">
   <cc:Work>
    <dc:type rdf:resource="http://purl.org/dc/dcmitype/StillImage"/>
    <dc:date>2024-11-16T16:18:48.588011</dc:date>
    <dc:format>image/svg+xml</dc:format>
    <dc:creator>
     <cc:Agent>
      <dc:title>Matplotlib v3.9.1, https://matplotlib.org/</dc:title>
     </cc:Agent>
    </dc:creator>
   </cc:Work>
  </rdf:RDF>
 </metadata>
 <defs>
  <style type="text/css">*{stroke-linejoin: round; stroke-linecap: butt}</style>
 </defs>
 <g id="figure_1">
  <g id="patch_1">
   <path d="M 0 36 
L 180 36 
L 180 0 
L 0 0 
L 0 36 
z
" style="fill: none"/>
  </g>
  <g id="axes_1">
   <g id="patch_2">
    <path d="M 22.5 32.04 
L 162 32.04 
L 162 4.32 
L 22.5 4.32 
L 22.5 32.04 
z
" style="fill: none"/>
   </g>
   <g id="matplotlib.axis_1">
    <g id="xtick_1"/>
    <g id="xtick_2"/>
    <g id="xtick_3"/>
    <g id="xtick_4"/>
   </g>
   <g id="matplotlib.axis_2">
    <g id="ytick_1"/>
    <g id="ytick_2"/>
   </g>
   <g id="line2d_1">
    <path d="M 28.840909 20.583468 
L 30.954545 27.284046 
L 33.068182 28.449364 
L 35.181818 25.973064 
L 37.295455 27.866705 
L 39.409091 30.78 
L 41.522727 28.886358 
L 43.636364 27.284046 
L 45.75 26.410058 
L 47.863636 29.032023 
L 49.977273 29.614682 
L 52.090909 30.343006 
L 54.204545 26.992717 
L 56.318182 25.681734 
L 58.431818 23.933757 
L 60.545455 20.437803 
L 62.659091 19.41815 
L 64.772727 12.426243 
L 66.886364 11.552254 
L 69 16.796185 
L 71.113636 15.776532 
L 73.227273 14.028555 
L 75.340909 7.764971 
L 77.454545 8.63896 
L 79.568182 17.961503 
L 81.681818 16.94185 
L 83.795455 17.815838 
L 85.909091 18.107168 
L 88.022727 13.591561 
L 90.136364 17.233179 
L 92.25 15.048208 
L 94.363636 20.146474 
L 96.477273 16.213526 
L 98.590909 18.835491 
L 100.704545 19.70948 
L 102.818182 15.339538 
L 104.931818 16.65052 
L 107.045455 15.922197 
L 109.159091 17.378844 
L 111.272727 13.737225 
L 113.386364 17.087514 
L 115.5 15.339538 
L 117.613636 24.370751 
L 119.727273 21.311792 
L 121.840909 19.126821 
L 123.954545 20.146474 
L 126.068182 13.445896 
L 128.181818 21.457457 
L 130.295455 25.24474 
L 132.409091 24.225087 
L 134.522727 22.331445 
L 136.636364 17.524509 
L 138.75 17.233179 
L 140.863636 17.378844 
L 142.977273 10.532601 
L 145.090909 17.233179 
L 147.204545 17.524509 
L 149.318182 14.611214 
L 151.431818 14.611214 
L 153.545455 18.835491 
L 155.659091 12.863237 
" clip-path="url(#p83dacaedfd)" style="fill: none; stroke: #1f77b4; stroke-width: 2; stroke-linecap: square"/>
   </g>
   <g id="line2d_2">
    <path d="M 28.840909 10.386936 
L 30.954545 17.524509 
L 33.068182 14.756879 
L 35.181818 7.327977 
L 37.295455 19.272486 
L 39.409091 11.989249 
L 41.522727 14.465549 
L 43.636364 8.63896 
L 45.75 12.134913 
L 47.863636 7.619306 
L 49.977273 11.40659 
L 52.090909 13.445896 
L 54.204545 21.457457 
L 56.318182 12.717572 
L 58.431818 15.193873 
L 60.545455 11.260925 
L 62.659091 10.095607 
L 64.772727 17.815838 
L 66.886364 17.815838 
L 69 22.47711 
L 71.113636 21.166127 
L 73.227273 20.437803 
L 75.340909 24.079422 
L 77.454545 18.689827 
L 79.568182 20.146474 
L 81.681818 19.563815 
L 83.795455 7.327977 
L 85.909091 15.339538 
L 88.022727 18.835491 
L 90.136364 17.670173 
L 92.25 13.591561 
L 94.363636 16.213526 
L 96.477273 7.619306 
L 98.590909 5.58 
L 100.704545 11.697919 
L 102.818182 15.776532 
L 104.931818 8.63896 
L 107.045455 22.768439 
L 109.159091 14.17422 
L 111.272727 8.784624 
L 113.386364 15.339538 
L 115.5 17.233179 
L 117.613636 10.678266 
L 119.727273 5.58 
L 121.840909 14.611214 
L 123.954545 11.11526 
L 126.068182 18.107168 
L 128.181818 14.902543 
L 130.295455 12.280578 
L 132.409091 13.300231 
L 134.522727 13.445896 
L 136.636364 6.745318 
L 138.75 12.863237 
L 140.863636 12.134913 
L 142.977273 12.280578 
L 145.090909 14.465549 
L 147.204545 21.457457 
L 149.318182 17.961503 
L 151.431818 16.067861 
L 153.545455 16.504855 
L 155.659091 7.910636 
" clip-path="url(#p83dacaedfd)" style="fill: none; stroke: #ff7f0e; stroke-width: 2; stroke-linecap: square"/>
   </g>
   <g id="patch_3">
    <path d="M 22.5 32.04 
L 22.5 4.32 
" style="fill: none; stroke: #000000; stroke-width: 0.8; stroke-linejoin: miter; stroke-linecap: square"/>
   </g>
   <g id="patch_4">
    <path d="M 162 32.04 
L 162 4.32 
" style="fill: none; stroke: #000000; stroke-width: 0.8; stroke-linejoin: miter; stroke-linecap: square"/>
   </g>
   <g id="patch_5">
    <path d="M 22.5 32.04 
L 162 32.04 
" style="fill: none; stroke: #000000; stroke-width: 0.8; stroke-linejoin: miter; stroke-linecap: square"/>
   </g>
   <g id="patch_6">
    <path d="M 22.5 4.32 
L 162 4.32 
" style="fill: none; stroke: #000000; stroke-width: 0.8; stroke-linejoin: miter; stroke-linecap: square"/>
   </g>
  </g>
 </g>
 <defs>
  <clipPath id="p83dacaedfd">
   <rect x="22.5" y="4.32" width="139.5" height="27.72"/>
  </clipPath>
 </defs>
</svg>
