<?xml version="1.0" encoding="utf-8" standalone="no"?>
<!DOCTYPE svg PUBLIC "-//W3C//DTD SVG 1.1//EN"
  "http://www.w3.org/Graphics/SVG/1.1/DTD/svg11.dtd">
<svg xmlns:xlink="http://www.w3.org/1999/xlink" width="180pt" height="36pt" viewBox="0 0 180 36" xmlns="http://www.w3.org/2000/svg" version="1.1">
 <metadata>
  <rdf:RDF xmlns:dc="http://purl.org/dc/elements/1.1/" xmlns:cc="http://creativecommons.org/ns#" xmlns:rdf="http://www.w3.org/1999/02/22-rdf-syntax-ns#">
   <cc:Work>
    <dc:type rdf:resource="http://purl.org/dc/dcmitype/StillImage"/>
    <dc:date>2024-11-16T16:18:48.812271</dc:date>
    <dc:format>image/svg+xml</dc:format>
    <dc:creator>
     <cc:Agent>
      <dc:title>Matplotlib v3.9.1, https://matplotlib.org/</dc:title>
     </cc:Agent>
    </dc:creator>
   </cc:Work>
  </rdf:RDF>
 </metadata>
 <defs>
  <style type="text/css">*{stroke-linejoin: round; stroke-linecap: butt}</style>
 </defs>
 <g id="figure_1">
  <g id="patch_1">
   <path d="M 0 36 
L 180 36 
L 180 0 
L 0 0 
L 0 36 
z
" style="fill: none"/>
  </g>
  <g id="axes_1">
   <g id="patch_2">
    <path d="M 22.5 32.04 
L 162 32.04 
L 162 4.32 
L 22.5 4.32 
L 22.5 32.04 
z
" style="fill: none"/>
   </g>
   <g id="matplotlib.axis_1">
    <g id="xtick_1"/>
    <g id="xtick_2"/>
    <g id="xtick_3"/>
    <g id="xtick_4"/>
   </g>
   <g id="matplotlib.axis_2">
    <g id="ytick_1"/>
    <g id="ytick_2"/>
   </g>
   <g id="line2d_1">
    <path d="M 28.840909 19.957429 
L 30.954545 18.93047 
L 33.068182 15.928589 
L 35.181818 14.348652 
L 37.295455 17.350533 
L 39.409091 18.69348 
L 41.522727 26.514169 
L 43.636364 28.568088 
L 45.75 28.094107 
L 47.863636 28.726082 
L 49.977273 23.275298 
L 52.090909 19.799436 
L 54.204545 17.192539 
L 56.318182 19.562445 
L 58.431818 19.009467 
L 60.545455 21.45837 
L 62.659091 21.300376 
L 64.772727 20.510408 
L 66.886364 21.774357 
L 69 21.695361 
L 71.113636 23.038307 
L 73.227273 24.22326 
L 75.340909 20.352414 
L 77.454545 16.639561 
L 79.568182 15.612602 
L 81.681818 25.803197 
L 83.795455 23.907273 
L 85.909091 21.142382 
L 88.022727 16.402571 
L 90.136364 22.248339 
L 92.25 22.011348 
L 94.363636 22.880313 
L 96.477273 26.435172 
L 98.590909 23.354295 
L 100.704545 19.878433 
L 102.818182 20.352414 
L 104.931818 20.984389 
L 107.045455 25.803197 
L 109.159091 23.591285 
L 111.272727 13.874671 
L 113.386364 17.903511 
L 115.5 10.87279 
L 117.613636 13.558683 
L 119.727273 10.082821 
L 121.840909 15.928589 
L 123.954545 17.66652 
L 126.068182 19.009467 
L 128.181818 10.87279 
L 130.295455 14.111661 
L 132.409091 13.558683 
L 134.522727 20.036426 
L 136.636364 16.16558 
L 138.75 23.828276 
L 140.863636 20.273417 
L 142.977273 18.456489 
L 145.090909 11.662759 
L 147.204545 16.876552 
L 149.318182 12.37373 
L 151.431818 16.797555 
L 153.545455 20.273417 
L 155.659091 24.302257 
" clip-path="url(#p56b7a6e3b3)" style="fill: none; stroke: #1f77b4; stroke-width: 2; stroke-linecap: square"/>
   </g>
   <g id="line2d_2">
    <path d="M 28.840909 19.009467 
L 30.954545 20.19442 
L 33.068182 18.772476 
L 35.181818 25.645204 
L 37.295455 24.934232 
L 39.409091 20.036426 
L 41.522727 17.271536 
L 43.636364 13.163699 
L 45.75 9.924828 
L 47.863636 9.37185 
L 49.977273 5.58 
L 52.090909 10.240815 
L 54.204545 8.976865 
L 56.318182 10.556803 
L 58.431818 17.350533 
L 60.545455 10.556803 
L 62.659091 10.161818 
L 64.772727 17.113542 
L 66.886364 16.797555 
L 69 8.265893 
L 71.113636 9.687837 
L 73.227273 12.689718 
L 75.340909 10.082821 
L 77.454545 7.001944 
L 79.568182 8.818871 
L 81.681818 18.140502 
L 83.795455 13.558683 
L 85.909091 14.980627 
L 88.022727 20.352414 
L 90.136364 8.34489 
L 92.25 8.739875 
L 94.363636 7.396928 
L 96.477273 11.109781 
L 98.590909 19.088464 
L 100.704545 17.350533 
L 102.818182 23.512288 
L 104.931818 25.250219 
L 107.045455 20.589404 
L 109.159091 18.061505 
L 111.272727 16.244577 
L 113.386364 16.797555 
L 115.5 18.614483 
L 117.613636 23.196301 
L 119.727273 26.98815 
L 121.840909 30.622006 
L 123.954545 28.726082 
L 126.068182 30.701003 
L 128.181818 30.464013 
L 130.295455 30.78 
L 132.409091 29.911034 
L 134.522727 28.647085 
L 136.636364 28.884075 
L 138.75 28.410094 
L 140.863636 26.435172 
L 142.977273 28.094107 
L 145.090909 24.460251 
L 147.204545 25.645204 
L 149.318182 23.512288 
L 151.431818 22.327335 
L 153.545455 21.221379 
L 155.659091 19.957429 
" clip-path="url(#p56b7a6e3b3)" style="fill: none; stroke: #ff7f0e; stroke-width: 2; stroke-linecap: square"/>
   </g>
   <g id="patch_3">
    <path d="M 22.5 32.04 
L 22.5 4.32 
" style="fill: none; stroke: #000000; stroke-width: 0.8; stroke-linejoin: miter; stroke-linecap: square"/>
   </g>
   <g id="patch_4">
    <path d="M 162 32.04 
L 162 4.32 
" style="fill: none; stroke: #000000; stroke-width: 0.8; stroke-linejoin: miter; stroke-linecap: square"/>
   </g>
   <g id="patch_5">
    <path d="M 22.5 32.04 
L 162 32.04 
" style="fill: none; stroke: #000000; stroke-width: 0.8; stroke-linejoin: miter; stroke-linecap: square"/>
   </g>
   <g id="patch_6">
    <path d="M 22.5 4.32 
L 162 4.32 
" style="fill: none; stroke: #000000; stroke-width: 0.8; stroke-linejoin: miter; stroke-linecap: square"/>
   </g>
  </g>
 </g>
 <defs>
  <clipPath id="p56b7a6e3b3">
   <rect x="22.5" y="4.32" width="139.5" height="27.72"/>
  </clipPath>
 </defs>
</svg>
