<?xml version="1.0" encoding="utf-8" standalone="no"?>
<!DOCTYPE svg PUBLIC "-//W3C//DTD SVG 1.1//EN"
  "http://www.w3.org/Graphics/SVG/1.1/DTD/svg11.dtd">
<svg xmlns:xlink="http://www.w3.org/1999/xlink" width="180pt" height="36pt" viewBox="0 0 180 36" xmlns="http://www.w3.org/2000/svg" version="1.1">
 <metadata>
  <rdf:RDF xmlns:dc="http://purl.org/dc/elements/1.1/" xmlns:cc="http://creativecommons.org/ns#" xmlns:rdf="http://www.w3.org/1999/02/22-rdf-syntax-ns#">
   <cc:Work>
    <dc:type rdf:resource="http://purl.org/dc/dcmitype/StillImage"/>
    <dc:date>2024-11-16T16:18:48.388570</dc:date>
    <dc:format>image/svg+xml</dc:format>
    <dc:creator>
     <cc:Agent>
      <dc:title>Matplotlib v3.9.1, https://matplotlib.org/</dc:title>
     </cc:Agent>
    </dc:creator>
   </cc:Work>
  </rdf:RDF>
 </metadata>
 <defs>
  <style type="text/css">*{stroke-linejoin: round; stroke-linecap: butt}</style>
 </defs>
 <g id="figure_1">
  <g id="patch_1">
   <path d="M 0 36 
L 180 36 
L 180 0 
L 0 0 
L 0 36 
z
" style="fill: none"/>
  </g>
  <g id="axes_1">
   <g id="patch_2">
    <path d="M 22.5 32.04 
L 162 32.04 
L 162 4.32 
L 22.5 4.32 
L 22.5 32.04 
z
" style="fill: none"/>
   </g>
   <g id="matplotlib.axis_1">
    <g id="xtick_1"/>
    <g id="xtick_2"/>
    <g id="xtick_3"/>
    <g id="xtick_4"/>
   </g>
   <g id="matplotlib.axis_2">
    <g id="ytick_1"/>
    <g id="ytick_2"/>
   </g>
   <g id="line2d_1">
    <path d="M 28.840909 14.956744 
L 30.954545 11.440465 
L 33.068182 12.612558 
L 35.181818 22.135814 
L 37.295455 5.58 
L 39.409091 18.619535 
L 41.522727 19.791628 
L 43.636364 21.696279 
L 45.75 22.72186 
L 47.863636 22.575349 
L 49.977273 24.773023 
L 52.090909 21.842791 
L 54.204545 26.091628 
L 56.318182 25.35907 
L 58.431818 28.435814 
L 60.545455 30.047442 
L 62.659091 27.556744 
L 64.772727 20.670698 
L 66.886364 18.326512 
L 69 21.842791 
L 71.113636 20.670698 
L 73.227273 13.931163 
L 75.340909 11.586977 
L 77.454545 10.561395 
L 79.568182 19.93814 
L 81.681818 27.117209 
L 83.795455 30.78 
L 85.909091 27.996279 
L 88.022727 14.810233 
L 90.136364 20.524186 
L 92.25 15.982326 
L 94.363636 21.256744 
L 96.477273 11.147442 
L 98.590909 16.714884 
L 100.704545 11.293953 
L 102.818182 15.249767 
L 104.931818 12.612558 
L 107.045455 19.791628 
L 109.159091 24.48 
L 111.272727 25.652093 
L 113.386364 19.791628 
L 115.5 25.945116 
L 117.613636 12.905581 
L 119.727273 12.75907 
L 121.840909 20.377674 
L 123.954545 24.333488 
L 126.068182 19.645116 
L 128.181818 17.447442 
L 130.295455 14.517209 
L 132.409091 18.766047 
L 134.522727 17.30093 
L 136.636364 7.484651 
L 138.75 13.198605 
L 140.863636 7.631163 
L 142.977273 15.689302 
L 145.090909 5.726512 
L 147.204545 17.447442 
L 149.318182 16.861395 
L 151.431818 25.652093 
L 153.545455 23.893953 
L 155.659091 13.491628 
" clip-path="url(#pc44b977111)" style="fill: none; stroke: #1f77b4; stroke-width: 2; stroke-linecap: square"/>
   </g>
   <g id="line2d_2">
    <path d="M 28.840909 18.619535 
L 30.954545 23.60093 
L 33.068182 23.014884 
L 35.181818 18.619535 
L 37.295455 22.575349 
L 39.409091 17.593953 
L 41.522727 8.070698 
L 43.636364 18.326512 
L 45.75 12.466047 
L 47.863636 16.42186 
L 49.977273 13.052093 
L 52.090909 18.473023 
L 54.204545 25.505581 
L 56.318182 16.42186 
L 58.431818 19.205581 
L 60.545455 16.568372 
L 62.659091 24.773023 
L 64.772727 18.473023 
L 66.886364 12.319535 
L 69 17.740465 
L 71.113636 16.42186 
L 73.227273 6.605581 
L 75.340909 5.726512 
L 77.454545 13.052093 
L 79.568182 21.696279 
L 81.681818 10.854419 
L 83.795455 15.982326 
L 85.909091 12.026512 
L 88.022727 16.861395 
L 90.136364 16.568372 
L 92.25 17.740465 
L 94.363636 18.619535 
L 96.477273 19.05907 
L 98.590909 26.824186 
L 100.704545 21.696279 
L 102.818182 21.549767 
L 104.931818 20.377674 
L 107.045455 11.88 
L 109.159091 14.956744 
L 111.272727 21.110233 
L 113.386364 25.35907 
L 115.5 22.135814 
L 117.613636 12.905581 
L 119.727273 20.377674 
L 121.840909 22.135814 
L 123.954545 22.428837 
L 126.068182 14.956744 
L 128.181818 24.48 
L 130.295455 17.886977 
L 132.409091 19.352093 
L 134.522727 25.35907 
L 136.636364 28.289302 
L 138.75 15.542791 
L 140.863636 26.970698 
L 142.977273 25.066047 
L 145.090909 24.333488 
L 147.204545 29.314884 
L 149.318182 27.556744 
L 151.431818 20.670698 
L 153.545455 20.670698 
L 155.659091 20.817209 
" clip-path="url(#pc44b977111)" style="fill: none; stroke: #ff7f0e; stroke-width: 2; stroke-linecap: square"/>
   </g>
   <g id="patch_3">
    <path d="M 22.5 32.04 
L 22.5 4.32 
" style="fill: none; stroke: #000000; stroke-width: 0.8; stroke-linejoin: miter; stroke-linecap: square"/>
   </g>
   <g id="patch_4">
    <path d="M 162 32.04 
L 162 4.32 
" style="fill: none; stroke: #000000; stroke-width: 0.8; stroke-linejoin: miter; stroke-linecap: square"/>
   </g>
   <g id="patch_5">
    <path d="M 22.5 32.04 
L 162 32.04 
" style="fill: none; stroke: #000000; stroke-width: 0.8; stroke-linejoin: miter; stroke-linecap: square"/>
   </g>
   <g id="patch_6">
    <path d="M 22.5 4.32 
L 162 4.32 
" style="fill: none; stroke: #000000; stroke-width: 0.8; stroke-linejoin: miter; stroke-linecap: square"/>
   </g>
  </g>
 </g>
 <defs>
  <clipPath id="pc44b977111">
   <rect x="22.5" y="4.32" width="139.5" height="27.72"/>
  </clipPath>
 </defs>
</svg>
