<?xml version="1.0" encoding="utf-8" standalone="no"?>
<!DOCTYPE svg PUBLIC "-//W3C//DTD SVG 1.1//EN"
  "http://www.w3.org/Graphics/SVG/1.1/DTD/svg11.dtd">
<svg xmlns:xlink="http://www.w3.org/1999/xlink" width="180pt" height="36pt" viewBox="0 0 180 36" xmlns="http://www.w3.org/2000/svg" version="1.1">
 <metadata>
  <rdf:RDF xmlns:dc="http://purl.org/dc/elements/1.1/" xmlns:cc="http://creativecommons.org/ns#" xmlns:rdf="http://www.w3.org/1999/02/22-rdf-syntax-ns#">
   <cc:Work>
    <dc:type rdf:resource="http://purl.org/dc/dcmitype/StillImage"/>
    <dc:date>2024-11-16T16:18:48.455460</dc:date>
    <dc:format>image/svg+xml</dc:format>
    <dc:creator>
     <cc:Agent>
      <dc:title>Matplotlib v3.9.1, https://matplotlib.org/</dc:title>
     </cc:Agent>
    </dc:creator>
   </cc:Work>
  </rdf:RDF>
 </metadata>
 <defs>
  <style type="text/css">*{stroke-linejoin: round; stroke-linecap: butt}</style>
 </defs>
 <g id="figure_1">
  <g id="patch_1">
   <path d="M 0 36 
L 180 36 
L 180 0 
L 0 0 
L 0 36 
z
" style="fill: none"/>
  </g>
  <g id="axes_1">
   <g id="patch_2">
    <path d="M 22.5 32.04 
L 162 32.04 
L 162 4.32 
L 22.5 4.32 
L 22.5 32.04 
z
" style="fill: none"/>
   </g>
   <g id="matplotlib.axis_1">
    <g id="xtick_1"/>
    <g id="xtick_2"/>
    <g id="xtick_3"/>
    <g id="xtick_4"/>
   </g>
   <g id="matplotlib.axis_2">
    <g id="ytick_1"/>
    <g id="ytick_2"/>
   </g>
   <g id="line2d_1">
    <path d="M 28.840909 24.396 
L 30.954545 25.908 
L 33.068182 25.404 
L 35.181818 28.932 
L 37.295455 29.604 
L 39.409091 30.612 
L 41.522727 29.94 
L 43.636364 28.932 
L 45.75 29.268 
L 47.863636 28.932 
L 49.977273 22.38 
L 52.090909 26.58 
L 54.204545 20.028 
L 56.318182 11.124 
L 58.431818 10.452 
L 60.545455 9.276 
L 62.659091 16.164 
L 64.772727 19.86 
L 66.886364 20.7 
L 69 19.188 
L 71.113636 20.7 
L 73.227273 20.364 
L 75.340909 19.02 
L 77.454545 6.756 
L 79.568182 8.1 
L 81.681818 7.26 
L 83.795455 20.7 
L 85.909091 24.06 
L 88.022727 22.716 
L 90.136364 13.812 
L 92.25 18.18 
L 94.363636 20.532 
L 96.477273 22.044 
L 98.590909 27.924 
L 100.704545 23.556 
L 102.818182 26.58 
L 104.931818 23.724 
L 107.045455 17.844 
L 109.159091 11.964 
L 111.272727 11.292 
L 113.386364 16.164 
L 115.5 18.516 
L 117.613636 22.548 
L 119.727273 24.228 
L 121.840909 22.548 
L 123.954545 30.78 
L 126.068182 28.092 
L 128.181818 25.74 
L 130.295455 21.204 
L 132.409091 24.06 
L 134.522727 25.404 
L 136.636364 24.9 
L 138.75 26.076 
L 140.863636 27.42 
L 142.977273 24.06 
L 145.090909 25.74 
L 147.204545 26.916 
L 149.318182 22.716 
L 151.431818 24.564 
L 153.545455 24.396 
L 155.659091 25.068 
" clip-path="url(#p747961f99f)" style="fill: none; stroke: #1f77b4; stroke-width: 2; stroke-linecap: square"/>
   </g>
   <g id="line2d_2">
    <path d="M 28.840909 17.844 
L 30.954545 26.412 
L 33.068182 23.892 
L 35.181818 21.54 
L 37.295455 13.644 
L 39.409091 11.46 
L 41.522727 12.468 
L 43.636364 13.476 
L 45.75 13.476 
L 47.863636 16.668 
L 49.977273 6.588 
L 52.090909 19.02 
L 54.204545 14.82 
L 56.318182 22.716 
L 58.431818 21.372 
L 60.545455 17.172 
L 62.659091 21.708 
L 64.772727 15.324 
L 66.886364 20.196 
L 69 18.348 
L 71.113636 11.964 
L 73.227273 11.796 
L 75.340909 11.124 
L 77.454545 14.82 
L 79.568182 11.796 
L 81.681818 8.604 
L 83.795455 19.02 
L 85.909091 20.532 
L 88.022727 15.492 
L 90.136364 16.836 
L 92.25 5.58 
L 94.363636 11.964 
L 96.477273 12.636 
L 98.590909 18.684 
L 100.704545 13.812 
L 102.818182 20.7 
L 104.931818 17.508 
L 107.045455 23.556 
L 109.159091 20.7 
L 111.272727 17.508 
L 113.386364 18.516 
L 115.5 13.98 
L 117.613636 18.18 
L 119.727273 18.18 
L 121.840909 14.148 
L 123.954545 18.18 
L 126.068182 13.98 
L 128.181818 18.348 
L 130.295455 19.692 
L 132.409091 16.332 
L 134.522727 15.156 
L 136.636364 19.692 
L 138.75 18.516 
L 140.863636 17.004 
L 142.977273 8.604 
L 145.090909 13.644 
L 147.204545 12.804 
L 149.318182 20.868 
L 151.431818 16.668 
L 153.545455 16.836 
L 155.659091 11.292 
" clip-path="url(#p747961f99f)" style="fill: none; stroke: #ff7f0e; stroke-width: 2; stroke-linecap: square"/>
   </g>
   <g id="patch_3">
    <path d="M 22.5 32.04 
L 22.5 4.32 
" style="fill: none; stroke: #000000; stroke-width: 0.8; stroke-linejoin: miter; stroke-linecap: square"/>
   </g>
   <g id="patch_4">
    <path d="M 162 32.04 
L 162 4.32 
" style="fill: none; stroke: #000000; stroke-width: 0.8; stroke-linejoin: miter; stroke-linecap: square"/>
   </g>
   <g id="patch_5">
    <path d="M 22.5 32.04 
L 162 32.04 
" style="fill: none; stroke: #000000; stroke-width: 0.8; stroke-linejoin: miter; stroke-linecap: square"/>
   </g>
   <g id="patch_6">
    <path d="M 22.5 4.32 
L 162 4.32 
" style="fill: none; stroke: #000000; stroke-width: 0.8; stroke-linejoin: miter; stroke-linecap: square"/>
   </g>
  </g>
 </g>
 <defs>
  <clipPath id="p747961f99f">
   <rect x="22.5" y="4.32" width="139.5" height="27.72"/>
  </clipPath>
 </defs>
</svg>
