<?xml version="1.0" encoding="utf-8" standalone="no"?>
<!DOCTYPE svg PUBLIC "-//W3C//DTD SVG 1.1//EN"
  "http://www.w3.org/Graphics/SVG/1.1/DTD/svg11.dtd">
<svg xmlns:xlink="http://www.w3.org/1999/xlink" width="180pt" height="36pt" viewBox="0 0 180 36" xmlns="http://www.w3.org/2000/svg" version="1.1">
 <metadata>
  <rdf:RDF xmlns:dc="http://purl.org/dc/elements/1.1/" xmlns:cc="http://creativecommons.org/ns#" xmlns:rdf="http://www.w3.org/1999/02/22-rdf-syntax-ns#">
   <cc:Work>
    <dc:type rdf:resource="http://purl.org/dc/dcmitype/StillImage"/>
    <dc:date>2024-11-16T16:18:48.661575</dc:date>
    <dc:format>image/svg+xml</dc:format>
    <dc:creator>
     <cc:Agent>
      <dc:title>Matplotlib v3.9.1, https://matplotlib.org/</dc:title>
     </cc:Agent>
    </dc:creator>
   </cc:Work>
  </rdf:RDF>
 </metadata>
 <defs>
  <style type="text/css">*{stroke-linejoin: round; stroke-linecap: butt}</style>
 </defs>
 <g id="figure_1">
  <g id="patch_1">
   <path d="M 0 36 
L 180 36 
L 180 0 
L 0 0 
L 0 36 
z
" style="fill: none"/>
  </g>
  <g id="axes_1">
   <g id="patch_2">
    <path d="M 22.5 32.04 
L 162 32.04 
L 162 4.32 
L 22.5 4.32 
L 22.5 32.04 
z
" style="fill: none"/>
   </g>
   <g id="matplotlib.axis_1">
    <g id="xtick_1"/>
    <g id="xtick_2"/>
    <g id="xtick_3"/>
    <g id="xtick_4"/>
   </g>
   <g id="matplotlib.axis_2">
    <g id="ytick_1"/>
    <g id="ytick_2"/>
   </g>
   <g id="line2d_1">
    <path d="M 28.840909 19.20439 
L 30.954545 30.472683 
L 33.068182 26.887317 
L 35.181818 25.350732 
L 37.295455 17.258049 
L 39.409091 9.677561 
L 41.522727 12.750732 
L 43.636364 23.40439 
L 45.75 27.194634 
L 47.863636 25.453171 
L 49.977273 23.916585 
L 52.090909 25.965366 
L 54.204545 19.20439 
L 56.318182 26.682439 
L 58.431818 30.062927 
L 60.545455 28.014146 
L 62.659091 16.848293 
L 64.772727 11.009268 
L 66.886364 10.599512 
L 69 13.672683 
L 71.113636 19.20439 
L 73.227273 19.101951 
L 75.340909 20.33122 
L 77.454545 23.506829 
L 79.568182 25.862927 
L 81.681818 18.794634 
L 83.795455 24.223902 
L 85.909091 19.614146 
L 88.022727 19.409268 
L 90.136364 22.687317 
L 92.25 21.970244 
L 94.363636 18.589756 
L 96.477273 23.199512 
L 98.590909 18.589756 
L 100.704545 20.843415 
L 102.818182 27.297073 
L 104.931818 27.60439 
L 107.045455 24.223902 
L 109.159091 21.560488 
L 111.272727 24.223902 
L 113.386364 20.22878 
L 115.5 24.42878 
L 117.613636 16.950732 
L 119.727273 14.287317 
L 121.840909 18.487317 
L 123.954545 22.38 
L 126.068182 17.565366 
L 128.181818 17.975122 
L 130.295455 23.711707 
L 132.409091 18.999512 
L 134.522727 22.789756 
L 136.636364 15.311707 
L 138.75 19.511707 
L 140.863636 19.921463 
L 142.977273 16.02878 
L 145.090909 19.716585 
L 147.204545 24.223902 
L 149.318182 23.301951 
L 151.431818 24.736098 
L 153.545455 22.584878 
L 155.659091 21.35561 
" clip-path="url(#pd9791f75bb)" style="fill: none; stroke: #1f77b4; stroke-width: 2; stroke-linecap: square"/>
   </g>
   <g id="line2d_2">
    <path d="M 28.840909 7.62878 
L 30.954545 14.287317 
L 33.068182 21.867805 
L 35.181818 16.540976 
L 37.295455 14.799512 
L 39.409091 19.819024 
L 41.522727 13.775122 
L 43.636364 16.643415 
L 45.75 7.423902 
L 47.863636 5.58 
L 49.977273 18.692195 
L 52.090909 18.589756 
L 54.204545 15.209268 
L 56.318182 10.701951 
L 58.431818 22.38 
L 60.545455 14.594634 
L 62.659091 17.667805 
L 64.772727 19.819024 
L 66.886364 22.277561 
L 69 22.584878 
L 71.113636 21.048293 
L 73.227273 10.087317 
L 75.340909 20.945854 
L 77.454545 22.38 
L 79.568182 21.458049 
L 81.681818 26.477561 
L 83.795455 22.38 
L 85.909091 17.15561 
L 88.022727 19.716585 
L 90.136364 19.511707 
L 92.25 21.765366 
L 94.363636 21.970244 
L 96.477273 24.42878 
L 98.590909 21.048293 
L 100.704545 18.589756 
L 102.818182 25.350732 
L 104.931818 20.22878 
L 107.045455 23.609268 
L 109.159091 21.150732 
L 111.272727 24.53122 
L 113.386364 27.501951 
L 115.5 30.370244 
L 117.613636 30.78 
L 119.727273 30.370244 
L 121.840909 27.399512 
L 123.954545 24.633659 
L 126.068182 25.658049 
L 128.181818 24.223902 
L 130.295455 25.453171 
L 132.409091 25.862927 
L 134.522727 24.019024 
L 136.636364 26.58 
L 138.75 26.784878 
L 140.863636 28.116585 
L 142.977273 26.682439 
L 145.090909 23.916585 
L 147.204545 26.067805 
L 149.318182 21.150732 
L 151.431818 21.970244 
L 153.545455 20.126341 
L 155.659091 25.760488 
" clip-path="url(#pd9791f75bb)" style="fill: none; stroke: #ff7f0e; stroke-width: 2; stroke-linecap: square"/>
   </g>
   <g id="patch_3">
    <path d="M 22.5 32.04 
L 22.5 4.32 
" style="fill: none; stroke: #000000; stroke-width: 0.8; stroke-linejoin: miter; stroke-linecap: square"/>
   </g>
   <g id="patch_4">
    <path d="M 162 32.04 
L 162 4.32 
" style="fill: none; stroke: #000000; stroke-width: 0.8; stroke-linejoin: miter; stroke-linecap: square"/>
   </g>
   <g id="patch_5">
    <path d="M 22.5 32.04 
L 162 32.04 
" style="fill: none; stroke: #000000; stroke-width: 0.8; stroke-linejoin: miter; stroke-linecap: square"/>
   </g>
   <g id="patch_6">
    <path d="M 22.5 4.32 
L 162 4.32 
" style="fill: none; stroke: #000000; stroke-width: 0.8; stroke-linejoin: miter; stroke-linecap: square"/>
   </g>
  </g>
 </g>
 <defs>
  <clipPath id="pd9791f75bb">
   <rect x="22.5" y="4.32" width="139.5" height="27.72"/>
  </clipPath>
 </defs>
</svg>
