<?xml version="1.0" encoding="utf-8" standalone="no"?>
<!DOCTYPE svg PUBLIC "-//W3C//DTD SVG 1.1//EN"
  "http://www.w3.org/Graphics/SVG/1.1/DTD/svg11.dtd">
<svg xmlns:xlink="http://www.w3.org/1999/xlink" width="180pt" height="36pt" viewBox="0 0 180 36" xmlns="http://www.w3.org/2000/svg" version="1.1">
 <metadata>
  <rdf:RDF xmlns:dc="http://purl.org/dc/elements/1.1/" xmlns:cc="http://creativecommons.org/ns#" xmlns:rdf="http://www.w3.org/1999/02/22-rdf-syntax-ns#">
   <cc:Work>
    <dc:type rdf:resource="http://purl.org/dc/dcmitype/StillImage"/>
    <dc:date>2024-11-15T20:09:22.439153</dc:date>
    <dc:format>image/svg+xml</dc:format>
    <dc:creator>
     <cc:Agent>
      <dc:title>Matplotlib v3.9.1, https://matplotlib.org/</dc:title>
     </cc:Agent>
    </dc:creator>
   </cc:Work>
  </rdf:RDF>
 </metadata>
 <defs>
  <style type="text/css">*{stroke-linejoin: round; stroke-linecap: butt}</style>
 </defs>
 <g id="figure_1">
  <g id="patch_1">
   <path d="M 0 36 
L 180 36 
L 180 0 
L 0 0 
L 0 36 
z
" style="fill: none"/>
  </g>
  <g id="axes_1">
   <g id="patch_2">
    <path d="M 22.5 32.04 
L 162 32.04 
L 162 4.32 
L 22.5 4.32 
L 22.5 32.04 
z
" style="fill: none"/>
   </g>
   <g id="matplotlib.axis_1">
    <g id="xtick_1"/>
    <g id="xtick_2"/>
    <g id="xtick_3"/>
    <g id="xtick_4"/>
   </g>
   <g id="matplotlib.axis_2">
    <g id="ytick_1"/>
    <g id="ytick_2"/>
   </g>
   <g id="line2d_1">
    <path d="M 28.840909 20.107342 
L 29.545455 20.733728 
L 30.25 19.697782 
L 30.954545 20.998738 
L 31.659091 20.444627 
L 32.363636 18.902753 
L 33.068182 20.179618 
L 34.477273 18.85457 
L 35.886364 27.286692 
L 36.590909 26.419388 
L 37.295455 27.455335 
L 38 26.660306 
L 38.704545 27.021683 
L 39.409091 30.274073 
L 40.113636 28.61174 
L 40.818182 30.78 
L 41.522727 25.118432 
L 42.227273 26.395296 
L 42.931818 18.372734 
L 43.636364 18.420918 
L 44.340909 18.830478 
L 45.045455 15.553996 
L 45.75 13.891663 
L 46.454545 7.844627 
L 47.159091 17.023595 
L 47.863636 17.312696 
L 48.568182 16.252658 
L 49.272727 17.071778 
L 49.977273 16.204474 
L 50.681818 17.577706 
L 51.386364 18.324551 
L 52.090909 18.324551 
L 52.795455 10.687457 
L 53.5 7.916902 
L 54.204545 10.518815 
L 55.613636 19.143671 
L 56.318182 11.386119 
L 57.022727 8.446922 
L 57.727273 15.048069 
L 58.431818 18.252275 
L 59.136364 16.951319 
L 59.840909 18.059541 
L 61.25 15.843098 
L 61.954545 18.830478 
L 62.659091 15.168528 
L 64.068182 15.891281 
L 64.772727 16.83086 
L 65.477273 16.541759 
L 66.181818 12.590707 
L 66.886364 14.855335 
L 67.590909 13.024359 
L 68.295455 15.288987 
L 69 10.205621 
L 69.704545 11.602945 
L 70.409091 14.951702 
L 71.113636 14.132581 
L 72.522727 25.937553 
L 73.227273 28.057629 
L 73.931818 26.588031 
L 74.636364 27.575793 
L 75.340909 28.949025 
L 76.045455 27.672161 
L 78.863636 11.145201 
L 79.568182 18.300459 
L 80.272727 18.58956 
L 80.977273 19.601415 
L 81.681818 18.396826 
L 82.386364 21.287839 
L 83.090909 23.456099 
L 83.795455 21.336023 
L 84.5 21.311931 
L 85.204545 19.962792 
L 86.613636 6.423212 
L 87.318182 8.784207 
L 88.022727 7.025507 
L 88.727273 9.820153 
L 89.431818 6.110019 
L 90.136364 7.844627 
L 90.840909 11.892046 
L 91.545455 17.77044 
L 92.25 9.820153 
L 92.954545 8.42283 
L 93.659091 10.494723 
L 94.363636 20.661453 
L 95.068182 13.024359 
L 95.772727 8.952849 
L 96.477273 13.120727 
L 97.181818 20.372352 
L 97.886364 16.084015 
L 98.590909 18.107725 
L 99.295455 15.072161 
L 100 9.820153 
L 100.704545 12.08478 
L 101.409091 16.156291 
L 102.113636 11.867954 
L 102.818182 10.783824 
L 103.522727 13.482103 
L 104.227273 12.08478 
L 104.931818 5.58 
L 105.636364 11.169293 
L 106.340909 7.507342 
L 107.045455 11.699312 
L 107.75 15.168528 
L 108.454545 18.059541 
L 109.159091 19.312314 
L 109.863636 17.168145 
L 110.568182 22.082868 
L 111.272727 17.119962 
L 111.977273 17.601797 
L 112.681818 8.519197 
L 113.386364 10.711549 
L 114.090909 16.806769 
L 114.795455 17.77044 
L 115.5 16.349025 
L 116.204545 17.698164 
L 116.909091 17.91499 
L 117.613636 16.204474 
L 118.318182 15.987648 
L 119.022727 17.794532 
L 119.727273 14.783059 
L 120.431818 17.577706 
L 121.136364 14.108489 
L 121.840909 13.626654 
L 122.545455 11.67522 
L 123.25 15.722639 
L 123.954545 19.119579 
L 124.659091 20.806004 
L 125.363636 19.986883 
L 126.068182 17.818623 
L 126.772727 20.589178 
L 127.477273 25.118432 
L 128.181818 22.974264 
L 128.886364 20.396444 
L 129.590909 20.155526 
L 130.295455 25.383442 
L 131 20.155526 
L 131.704545 18.637744 
L 132.409091 22.901989 
L 133.113636 21.817859 
L 133.818182 23.142906 
L 134.522727 16.710402 
L 135.227273 20.565086 
L 135.931818 17.144054 
L 136.636364 15.626272 
L 137.340909 14.903518 
L 138.045455 18.18 
L 138.75 20.179618 
L 139.454545 16.541759 
L 140.159091 19.794149 
L 140.863636 22.034685 
L 141.568182 19.215946 
L 142.272727 21.817859 
L 142.977273 21.625124 
L 143.681818 21.769675 
L 144.386364 18.85457 
L 145.090909 21.263748 
L 145.795455 24.564321 
L 146.5 25.937553 
L 147.204545 22.92608 
L 147.909091 24.082486 
L 148.613636 23.937935 
L 149.318182 26.323021 
L 150.022727 26.250746 
L 150.727273 25.407533 
L 151.431818 25.262983 
L 152.136364 25.648451 
L 152.840909 22.082868 
L 153.545455 23.094723 
L 154.25 23.817476 
L 154.954545 26.130287 
L 155.659091 23.456099 
L 155.659091 23.456099 
" clip-path="url(#peddb853a5e)" style="fill: none; stroke: #1f77b4; stroke-width: 2; stroke-linecap: square"/>
   </g>
   <g id="patch_3">
    <path d="M 22.5 32.04 
L 22.5 4.32 
" style="fill: none; stroke: #000000; stroke-width: 0.8; stroke-linejoin: miter; stroke-linecap: square"/>
   </g>
   <g id="patch_4">
    <path d="M 162 32.04 
L 162 4.32 
" style="fill: none; stroke: #000000; stroke-width: 0.8; stroke-linejoin: miter; stroke-linecap: square"/>
   </g>
   <g id="patch_5">
    <path d="M 22.5 32.04 
L 162 32.04 
" style="fill: none; stroke: #000000; stroke-width: 0.8; stroke-linejoin: miter; stroke-linecap: square"/>
   </g>
   <g id="patch_6">
    <path d="M 22.5 4.32 
L 162 4.32 
" style="fill: none; stroke: #000000; stroke-width: 0.8; stroke-linejoin: miter; stroke-linecap: square"/>
   </g>
  </g>
 </g>
 <defs>
  <clipPath id="peddb853a5e">
   <rect x="22.5" y="4.32" width="139.5" height="27.72"/>
  </clipPath>
 </defs>
</svg>
