<?xml version="1.0" encoding="utf-8" standalone="no"?>
<!DOCTYPE svg PUBLIC "-//W3C//DTD SVG 1.1//EN"
  "http://www.w3.org/Graphics/SVG/1.1/DTD/svg11.dtd">
<svg xmlns:xlink="http://www.w3.org/1999/xlink" width="180pt" height="36pt" viewBox="0 0 180 36" xmlns="http://www.w3.org/2000/svg" version="1.1">
 <metadata>
  <rdf:RDF xmlns:dc="http://purl.org/dc/elements/1.1/" xmlns:cc="http://creativecommons.org/ns#" xmlns:rdf="http://www.w3.org/1999/02/22-rdf-syntax-ns#">
   <cc:Work>
    <dc:type rdf:resource="http://purl.org/dc/dcmitype/StillImage"/>
    <dc:date>2024-11-15T20:09:22.814792</dc:date>
    <dc:format>image/svg+xml</dc:format>
    <dc:creator>
     <cc:Agent>
      <dc:title>Matplotlib v3.9.1, https://matplotlib.org/</dc:title>
     </cc:Agent>
    </dc:creator>
   </cc:Work>
  </rdf:RDF>
 </metadata>
 <defs>
  <style type="text/css">*{stroke-linejoin: round; stroke-linecap: butt}</style>
 </defs>
 <g id="figure_1">
  <g id="patch_1">
   <path d="M 0 36 
L 180 36 
L 180 0 
L 0 0 
L 0 36 
z
" style="fill: none"/>
  </g>
  <g id="axes_1">
   <g id="patch_2">
    <path d="M 22.5 32.04 
L 162 32.04 
L 162 4.32 
L 22.5 4.32 
L 22.5 32.04 
z
" style="fill: none"/>
   </g>
   <g id="matplotlib.axis_1">
    <g id="xtick_1"/>
    <g id="xtick_2"/>
    <g id="xtick_3"/>
    <g id="xtick_4"/>
   </g>
   <g id="matplotlib.axis_2">
    <g id="ytick_1"/>
    <g id="ytick_2"/>
   </g>
   <g id="line2d_1">
    <path d="M 28.840909 20.416364 
L 30.25 16.816364 
L 30.954545 14.089091 
L 31.659091 14.293636 
L 32.363636 19.325455 
L 33.068182 18.875455 
L 33.772727 13.366364 
L 34.477273 19.420909 
L 35.181818 19.475455 
L 35.886364 19.243636 
L 36.590909 22.775455 
L 37.295455 22.993636 
L 38 25.720909 
L 38.704545 24.098182 
L 39.409091 26.798182 
L 40.113636 26.784545 
L 40.818182 23.661818 
L 41.522727 21.889091 
L 42.227273 19.802727 
L 42.931818 19.898182 
L 44.340909 6.275455 
L 45.045455 5.88 
L 46.454545 5.58 
L 47.159091 12.370909 
L 47.863636 10.775455 
L 48.568182 15.057273 
L 49.977273 17.402727 
L 50.681818 16.107273 
L 51.386364 17.293636 
L 52.090909 16.011818 
L 52.795455 15.766364 
L 53.5 17.825455 
L 54.204545 23.634545 
L 54.909091 25.393636 
L 55.613636 29.28 
L 56.318182 30.48 
L 57.022727 29.607273 
L 57.727273 30.670909 
L 58.431818 29.852727 
L 59.136364 30.248182 
L 59.840909 30.411818 
L 60.545455 30.78 
L 61.25 27.916364 
L 62.659091 23.757273 
L 63.363636 18.970909 
L 64.068182 18.220909 
L 64.772727 16.202727 
L 65.477273 15.534545 
L 66.181818 13.734545 
L 66.886364 20.593636 
L 68.295455 22.720909 
L 69.704545 19.884545 
L 70.409091 17.961818 
L 71.113636 18.861818 
L 71.818182 18.343636 
L 72.522727 23.498182 
L 73.227273 22.257273 
L 73.931818 18.725455 
L 74.636364 19.434545 
L 75.340909 18.220909 
L 76.045455 22.584545 
L 76.75 18.493636 
L 77.454545 19.748182 
L 78.159091 19.761818 
L 78.863636 20.920909 
L 79.568182 22.407273 
L 80.272727 25.175455 
L 80.977273 25.148182 
L 81.681818 26.58 
L 82.386364 21.766364 
L 83.090909 19.420909 
L 83.795455 9.193636 
L 84.5 6.507273 
L 85.204545 14.320909 
L 85.909091 10.134545 
L 87.318182 13.093636 
L 88.022727 13.53 
L 88.727273 16.911818 
L 89.431818 12.78 
L 90.136364 17.034545 
L 90.840909 19.98 
L 91.545455 18.48 
L 92.25 20.961818 
L 92.954545 22.516364 
L 93.659091 19.98 
L 94.363636 23.116364 
L 95.068182 22.898182 
L 95.772727 23.020909 
L 96.477273 22.08 
L 97.181818 22.325455 
L 97.886364 21.834545 
L 98.590909 26.593636 
L 99.295455 26.961818 
L 100 26.211818 
L 100.704545 26.552727 
L 101.409091 27.084545 
L 102.113636 26.852727 
L 102.818182 28.420909 
L 104.227273 25.039091 
L 104.931818 26.743636 
L 105.636364 25.857273 
L 106.340909 27.152727 
L 107.045455 25.120909 
L 107.75 21.18 
L 108.454545 24.63 
L 109.159091 21.152727 
L 109.863636 20.348182 
L 110.568182 23.702727 
L 111.272727 21.289091 
L 111.977273 21.943636 
L 112.681818 26.007273 
L 113.386364 23.825455 
L 114.090909 25.066364 
L 114.795455 25.707273 
L 115.5 25.325455 
L 116.204545 26.320909 
L 116.909091 25.952727 
L 117.613636 26.839091 
L 118.318182 26.348182 
L 119.022727 27.193636 
L 119.727273 26.58 
L 120.431818 27.78 
L 121.136364 26.211818 
L 121.840909 25.802727 
L 122.545455 23.539091 
L 123.25 24.261818 
L 123.954545 20.58 
L 124.659091 21.752727 
L 125.363636 23.689091 
L 126.772727 24.33 
L 127.477273 22.870909 
L 128.181818 26.28 
L 129.590909 26.743636 
L 130.295455 28.08 
L 131 28.407273 
L 131.704545 27.875455 
L 132.409091 26.784545 
L 133.113636 27.125455 
L 133.818182 26.007273 
L 135.227273 22.38 
L 135.931818 21.070909 
L 136.636364 24.070909 
L 137.340909 23.975455 
L 138.045455 25.120909 
L 138.75 24.807273 
L 140.159091 21.33 
L 140.863636 24.643636 
L 141.568182 25.83 
L 142.272727 27.289091 
L 142.977273 29.634545 
L 143.681818 28.189091 
L 144.386364 29.211818 
L 145.090909 29.43 
L 145.795455 28.83 
L 146.5 28.857273 
L 147.204545 29.334545 
L 147.909091 26.811818 
L 148.613636 26.348182 
L 149.318182 25.093636 
L 150.022727 22.407273 
L 150.727273 24.889091 
L 151.431818 21.902727 
L 152.136364 25.516364 
L 152.840909 25.802727 
L 153.545455 27.589091 
L 154.25 27.152727 
L 154.954545 28.039091 
L 155.659091 26.634545 
L 155.659091 26.634545 
" clip-path="url(#p74d7c5ec41)" style="fill: none; stroke: #1f77b4; stroke-width: 2; stroke-linecap: square"/>
   </g>
   <g id="patch_3">
    <path d="M 22.5 32.04 
L 22.5 4.32 
" style="fill: none; stroke: #000000; stroke-width: 0.8; stroke-linejoin: miter; stroke-linecap: square"/>
   </g>
   <g id="patch_4">
    <path d="M 162 32.04 
L 162 4.32 
" style="fill: none; stroke: #000000; stroke-width: 0.8; stroke-linejoin: miter; stroke-linecap: square"/>
   </g>
   <g id="patch_5">
    <path d="M 22.5 32.04 
L 162 32.04 
" style="fill: none; stroke: #000000; stroke-width: 0.8; stroke-linejoin: miter; stroke-linecap: square"/>
   </g>
   <g id="patch_6">
    <path d="M 22.5 4.32 
L 162 4.32 
" style="fill: none; stroke: #000000; stroke-width: 0.8; stroke-linejoin: miter; stroke-linecap: square"/>
   </g>
  </g>
 </g>
 <defs>
  <clipPath id="p74d7c5ec41">
   <rect x="22.5" y="4.32" width="139.5" height="27.72"/>
  </clipPath>
 </defs>
</svg>
