<?xml version="1.0" encoding="utf-8" standalone="no"?>
<!DOCTYPE svg PUBLIC "-//W3C//DTD SVG 1.1//EN"
  "http://www.w3.org/Graphics/SVG/1.1/DTD/svg11.dtd">
<svg xmlns:xlink="http://www.w3.org/1999/xlink" width="180pt" height="36pt" viewBox="0 0 180 36" xmlns="http://www.w3.org/2000/svg" version="1.1">
 <metadata>
  <rdf:RDF xmlns:dc="http://purl.org/dc/elements/1.1/" xmlns:cc="http://creativecommons.org/ns#" xmlns:rdf="http://www.w3.org/1999/02/22-rdf-syntax-ns#">
   <cc:Work>
    <dc:type rdf:resource="http://purl.org/dc/dcmitype/StillImage"/>
    <dc:date>2024-11-15T20:09:21.255501</dc:date>
    <dc:format>image/svg+xml</dc:format>
    <dc:creator>
     <cc:Agent>
      <dc:title>Matplotlib v3.9.1, https://matplotlib.org/</dc:title>
     </cc:Agent>
    </dc:creator>
   </cc:Work>
  </rdf:RDF>
 </metadata>
 <defs>
  <style type="text/css">*{stroke-linejoin: round; stroke-linecap: butt}</style>
 </defs>
 <g id="figure_1">
  <g id="patch_1">
   <path d="M 0 36 
L 180 36 
L 180 0 
L 0 0 
L 0 36 
z
" style="fill: none"/>
  </g>
  <g id="axes_1">
   <g id="patch_2">
    <path d="M 22.5 32.04 
L 162 32.04 
L 162 4.32 
L 22.5 4.32 
L 22.5 32.04 
z
" style="fill: none"/>
   </g>
   <g id="matplotlib.axis_1">
    <g id="xtick_1"/>
    <g id="xtick_2"/>
    <g id="xtick_3"/>
    <g id="xtick_4"/>
   </g>
   <g id="matplotlib.axis_2">
    <g id="ytick_1"/>
    <g id="ytick_2"/>
    <g id="ytick_3"/>
   </g>
   <g id="line2d_1">
    <path d="M 28.840909 22.955034 
L 29.545455 17.633154 
L 30.25 17.34 
L 30.954545 15.457047 
L 31.659091 12.525503 
L 33.068182 5.58 
L 33.772727 12.175973 
L 34.477273 15.502148 
L 35.181818 15.254094 
L 35.886364 20.271544 
L 36.590909 21.692215 
L 37.295455 21.444161 
L 38 23.124161 
L 38.704545 22.391275 
L 39.409091 23.631544 
L 40.113636 23.687919 
L 40.818182 17.441477 
L 41.522727 17.565503 
L 42.227273 19.245503 
L 42.931818 21.218658 
L 43.636364 24.116376 
L 44.340909 24.849262 
L 45.045455 26.337584 
L 45.75 25.976779 
L 46.454545 23.699195 
L 47.159091 25.097315 
L 47.863636 25.300268 
L 48.568182 24.465906 
L 49.272727 22.368725 
L 49.977273 18.467517 
L 50.681818 23.03396 
L 51.386364 21.602013 
L 52.090909 21.477987 
L 52.795455 19.301879 
L 53.5 19.67396 
L 54.204545 20.508322 
L 54.909091 24.262953 
L 55.613636 20.880403 
L 56.318182 24.567383 
L 57.022727 23.000134 
L 57.727273 24.815436 
L 58.431818 23.011409 
L 59.136364 26.281208 
L 59.840909 26.06698 
L 60.545455 23.462416 
L 61.25 21.906443 
L 61.954545 23.857047 
L 62.659091 24.093826 
L 63.363636 23.992349 
L 64.068182 22.70698 
L 64.772727 24.533557 
L 65.477273 27.273423 
L 66.886364 26.912617 
L 67.590909 29.246577 
L 68.295455 28.975973 
L 69 27.07047 
L 69.704545 27.949933 
L 70.409091 27.318523 
L 71.113636 27.42 
L 71.818182 26.236107 
L 72.522727 26.472886 
L 73.227273 29.201477 
L 73.931818 27.284698 
L 74.636364 29.810336 
L 75.340909 28.524966 
L 76.045455 29.923087 
L 76.75 28.062685 
L 78.159091 27.74698 
L 78.863636 26.08953 
L 79.568182 23.845772 
L 80.272727 22.909933 
L 80.977273 23.282013 
L 81.681818 24.781611 
L 82.386364 23.191812 
L 83.090909 20.801477 
L 83.795455 23.507517 
L 84.5 23.575168 
L 85.204545 26.76604 
L 85.909091 26.224832 
L 86.613636 26.213557 
L 87.318182 23.935973 
L 88.022727 25.593423 
L 88.727273 24.75906 
L 89.431818 22.932483 
L 90.136364 22.210872 
L 90.840909 23.947248 
L 91.545455 23.789396 
L 92.25 24.116376 
L 92.954545 26.010604 
L 93.659091 24.984564 
L 94.363636 26.506711 
L 95.068182 26.269933 
L 95.772727 26.74349 
L 96.477273 24.06 
L 97.181818 25.119866 
L 97.886364 25.661074 
L 98.590909 24.973289 
L 99.295455 23.620268 
L 100 25.706174 
L 100.704545 25.322819 
L 101.409091 28.998523 
L 102.113636 29.765235 
L 102.818182 29.505906 
L 104.227273 27.532752 
L 104.931818 28.265638 
L 106.340909 26.585638 
L 107.045455 26.777315 
L 107.75 25.255168 
L 108.454545 27.611678 
L 109.863636 27.645503 
L 110.568182 27.44255 
L 111.272727 28.897047 
L 111.977273 29.472081 
L 112.681818 27.690604 
L 113.386364 27.758255 
L 114.090909 30.43047 
L 114.795455 29.990738 
L 115.5 30.148591 
L 116.204545 29.257852 
L 116.909091 27.09302 
L 117.613636 26.427785 
L 118.318182 24.161477 
L 119.022727 26.191007 
L 119.727273 27.76953 
L 120.431818 26.191007 
L 121.136364 26.608188 
L 121.840909 25.570872 
L 122.545455 26.72094 
L 123.25 27.44255 
L 123.954545 27.701879 
L 124.659091 28.209262 
L 125.363636 26.799866 
L 126.068182 25.852752 
L 126.772727 29.043624 
L 127.477273 27.758255 
L 128.181818 28.547517 
L 128.886364 27.825906 
L 129.590909 26.112081 
L 130.295455 26.41651 
L 131 26.529262 
L 131.704545 28.806846 
L 132.409091 26.563087 
L 133.113636 27.014094 
L 133.818182 25.131141 
L 134.522727 24.375705 
L 135.227273 25.41302 
L 135.931818 27.837181 
L 136.636364 28.682819 
L 137.340909 28.107785 
L 138.045455 27.07047 
L 138.75 27.295973 
L 139.454545 26.630738 
L 140.159091 27.228322 
L 140.863636 28.310738 
L 141.568182 26.608188 
L 142.272727 27.544027 
L 142.977273 27.498926 
L 143.681818 29.314228 
L 144.386364 28.062685 
L 145.090909 29.291678 
L 145.795455 28.085235 
L 146.5 29.269128 
L 147.204545 29.945638 
L 147.909091 29.145101 
L 148.613636 28.051409 
L 149.318182 28.806846 
L 150.022727 28.468591 
L 150.727273 29.494631 
L 151.431818 30.013289 
L 152.136364 28.964698 
L 153.545455 30.78 
L 154.25 30.734899 
L 154.954545 29.810336 
L 155.659091 29.257852 
L 155.659091 29.257852 
" clip-path="url(#p805a42dddb)" style="fill: none; stroke: #1f77b4; stroke-width: 2; stroke-linecap: square"/>
   </g>
   <g id="patch_3">
    <path d="M 22.5 32.04 
L 22.5 4.32 
" style="fill: none; stroke: #000000; stroke-width: 0.8; stroke-linejoin: miter; stroke-linecap: square"/>
   </g>
   <g id="patch_4">
    <path d="M 162 32.04 
L 162 4.32 
" style="fill: none; stroke: #000000; stroke-width: 0.8; stroke-linejoin: miter; stroke-linecap: square"/>
   </g>
   <g id="patch_5">
    <path d="M 22.5 32.04 
L 162 32.04 
" style="fill: none; stroke: #000000; stroke-width: 0.8; stroke-linejoin: miter; stroke-linecap: square"/>
   </g>
   <g id="patch_6">
    <path d="M 22.5 4.32 
L 162 4.32 
" style="fill: none; stroke: #000000; stroke-width: 0.8; stroke-linejoin: miter; stroke-linecap: square"/>
   </g>
  </g>
 </g>
 <defs>
  <clipPath id="p805a42dddb">
   <rect x="22.5" y="4.32" width="139.5" height="27.72"/>
  </clipPath>
 </defs>
</svg>
