<?xml version="1.0" encoding="utf-8" standalone="no"?>
<!DOCTYPE svg PUBLIC "-//W3C//DTD SVG 1.1//EN"
  "http://www.w3.org/Graphics/SVG/1.1/DTD/svg11.dtd">
<svg xmlns:xlink="http://www.w3.org/1999/xlink" width="180pt" height="36pt" viewBox="0 0 180 36" xmlns="http://www.w3.org/2000/svg" version="1.1">
 <metadata>
  <rdf:RDF xmlns:dc="http://purl.org/dc/elements/1.1/" xmlns:cc="http://creativecommons.org/ns#" xmlns:rdf="http://www.w3.org/1999/02/22-rdf-syntax-ns#">
   <cc:Work>
    <dc:type rdf:resource="http://purl.org/dc/dcmitype/StillImage"/>
    <dc:date>2024-11-15T20:09:22.345785</dc:date>
    <dc:format>image/svg+xml</dc:format>
    <dc:creator>
     <cc:Agent>
      <dc:title>Matplotlib v3.9.1, https://matplotlib.org/</dc:title>
     </cc:Agent>
    </dc:creator>
   </cc:Work>
  </rdf:RDF>
 </metadata>
 <defs>
  <style type="text/css">*{stroke-linejoin: round; stroke-linecap: butt}</style>
 </defs>
 <g id="figure_1">
  <g id="patch_1">
   <path d="M 0 36 
L 180 36 
L 180 0 
L 0 0 
L 0 36 
z
" style="fill: none"/>
  </g>
  <g id="axes_1">
   <g id="patch_2">
    <path d="M 22.5 32.04 
L 162 32.04 
L 162 4.32 
L 22.5 4.32 
L 22.5 32.04 
z
" style="fill: none"/>
   </g>
   <g id="matplotlib.axis_1">
    <g id="xtick_1"/>
    <g id="xtick_2"/>
    <g id="xtick_3"/>
    <g id="xtick_4"/>
   </g>
   <g id="matplotlib.axis_2">
    <g id="ytick_1"/>
    <g id="ytick_2"/>
   </g>
   <g id="line2d_1">
    <path d="M 28.840909 21.843706 
L 29.545455 17.541693 
L 30.25 19.815115 
L 30.954545 24.99152 
L 31.659091 24.589299 
L 32.363636 17.174448 
L 33.068182 23.190271 
L 33.772727 25.708522 
L 34.477273 23.365149 
L 35.181818 28.978751 
L 35.886364 27.299917 
L 36.590909 24.781666 
L 37.295455 28.349188 
L 38 30.640097 
L 38.704545 30.430243 
L 39.409091 28.57653 
L 40.113636 30.78 
L 40.818182 30.377779 
L 41.522727 29.573338 
L 42.227273 24.781666 
L 42.931818 23.854809 
L 44.340909 19.60526 
L 45.045455 20.811922 
L 45.75 19.36043 
L 46.454545 21.703803 
L 47.159091 23.575003 
L 47.863636 23.330173 
L 48.568182 24.396933 
L 49.272727 23.207759 
L 49.977273 23.959736 
L 50.681818 22.280902 
L 51.386364 18.643428 
L 52.090909 17.926426 
L 52.795455 19.150576 
L 53.5 16.824691 
L 54.204545 16.632325 
L 54.909091 18.188744 
L 55.613636 13.484511 
L 56.318182 9.829549 
L 57.022727 8.325593 
L 57.727273 12.59263 
L 58.431818 6.734198 
L 59.136364 5.58 
L 59.840909 8.745302 
L 60.545455 15.268272 
L 61.25 16.300056 
L 61.954545 12.872436 
L 62.659091 12.977363 
L 63.363636 12.330312 
L 64.068182 14.114074 
L 64.772727 24.659251 
L 65.477273 23.76737 
L 66.181818 20.147384 
L 66.886364 22.001096 
L 67.590909 23.207759 
L 68.295455 19.902554 
L 69 18.660916 
L 69.704545 13.187217 
L 70.409091 14.149049 
L 71.113636 18.241207 
L 71.818182 19.6927 
L 72.522727 21.80873 
L 73.227273 18.783331 
L 73.931818 18.695892 
L 74.636364 16.370007 
L 75.340909 17.104497 
L 76.045455 19.080625 
L 76.75 20.287287 
L 77.454545 19.255503 
L 78.159091 21.511437 
L 78.863636 28.838848 
L 79.568182 27.544747 
L 80.272727 30.307828 
L 80.977273 29.888119 
L 81.681818 27.807065 
L 82.386364 27.877016 
L 83.090909 26.722817 
L 83.795455 24.781666 
L 84.5 21.773754 
L 85.204545 20.672019 
L 85.909091 20.252311 
L 86.613636 17.40179 
L 87.318182 19.063137 
L 88.022727 16.50991 
L 89.431818 15.810396 
L 90.136364 12.452727 
L 90.840909 13.57195 
L 91.545455 12.680069 
L 92.25 15.180833 
L 92.954545 15.53059 
L 93.659091 11.875628 
L 94.363636 17.89145 
L 95.068182 20.969313 
L 95.772727 22.508244 
L 96.477273 23.03288 
L 97.181818 23.03288 
L 97.886364 27.719625 
L 98.590909 30.395267 
L 99.295455 27.68465 
L 100 25.760985 
L 100.704545 26.285621 
L 101.409091 24.047176 
L 102.113636 23.662443 
L 102.818182 21.196655 
L 103.522727 19.535309 
L 104.227273 23.889785 
L 104.931818 21.80873 
L 105.636364 17.121985 
L 106.340909 20.689507 
L 107.045455 22.350854 
L 107.75 16.964594 
L 108.454545 15.635517 
L 109.159091 21.126704 
L 109.863636 25.656058 
L 110.568182 21.179167 
L 111.272727 23.592491 
L 111.977273 20.409702 
L 112.681818 23.435101 
L 113.386364 23.155295 
L 114.090909 23.137807 
L 114.795455 21.756266 
L 116.204545 25.288813 
L 116.909091 26.180694 
L 117.613636 23.994712 
L 118.318182 21.31907 
L 119.022727 22.140999 
L 119.727273 23.697418 
L 120.431818 24.554323 
L 121.136364 21.179167 
L 121.840909 24.974032 
L 122.545455 25.8834 
L 123.25 26.023303 
L 123.954545 24.326981 
L 124.659091 25.043983 
L 125.363636 25.288813 
L 126.772727 27.92948 
L 127.477273 28.436627 
L 128.181818 28.751409 
L 128.886364 23.417613 
L 129.590909 23.644955 
L 130.295455 26.880208 
L 131 22.858001 
L 131.704545 25.043983 
L 132.409091 20.724483 
L 133.113636 21.021777 
L 133.818182 19.587772 
L 135.227273 18.62594 
L 135.931818 22.438293 
L 136.636364 19.377918 
L 137.340909 20.82941 
L 138.045455 26.477988 
L 138.75 26.915184 
L 139.454545 25.900888 
L 140.159091 24.0122 
L 140.863636 24.099639 
L 141.568182 24.589299 
L 142.272727 22.927953 
L 142.977273 20.637044 
L 143.681818 16.91213 
L 144.386364 19.6927 
L 145.090909 17.996378 
L 145.795455 17.366815 
L 146.5 17.331839 
L 147.204545 16.632325 
L 147.909091 17.069521 
L 148.613636 18.695892 
L 149.318182 19.955017 
L 150.022727 25.918376 
L 150.727273 24.99152 
L 151.431818 25.113935 
L 152.136364 23.732394 
L 152.840909 29.153629 
L 153.545455 28.349188 
L 154.25 29.171117 
L 154.954545 29.643289 
L 155.659091 28.57653 
L 155.659091 28.57653 
" clip-path="url(#p7791839b1a)" style="fill: none; stroke: #1f77b4; stroke-width: 2; stroke-linecap: square"/>
   </g>
   <g id="patch_3">
    <path d="M 22.5 32.04 
L 22.5 4.32 
" style="fill: none; stroke: #000000; stroke-width: 0.8; stroke-linejoin: miter; stroke-linecap: square"/>
   </g>
   <g id="patch_4">
    <path d="M 162 32.04 
L 162 4.32 
" style="fill: none; stroke: #000000; stroke-width: 0.8; stroke-linejoin: miter; stroke-linecap: square"/>
   </g>
   <g id="patch_5">
    <path d="M 22.5 32.04 
L 162 32.04 
" style="fill: none; stroke: #000000; stroke-width: 0.8; stroke-linejoin: miter; stroke-linecap: square"/>
   </g>
   <g id="patch_6">
    <path d="M 22.5 4.32 
L 162 4.32 
" style="fill: none; stroke: #000000; stroke-width: 0.8; stroke-linejoin: miter; stroke-linecap: square"/>
   </g>
  </g>
 </g>
 <defs>
  <clipPath id="p7791839b1a">
   <rect x="22.5" y="4.32" width="139.5" height="27.72"/>
  </clipPath>
 </defs>
</svg>
