<?xml version="1.0" encoding="utf-8" standalone="no"?>
<!DOCTYPE svg PUBLIC "-//W3C//DTD SVG 1.1//EN"
  "http://www.w3.org/Graphics/SVG/1.1/DTD/svg11.dtd">
<svg xmlns:xlink="http://www.w3.org/1999/xlink" width="180pt" height="36pt" viewBox="0 0 180 36" xmlns="http://www.w3.org/2000/svg" version="1.1">
 <metadata>
  <rdf:RDF xmlns:dc="http://purl.org/dc/elements/1.1/" xmlns:cc="http://creativecommons.org/ns#" xmlns:rdf="http://www.w3.org/1999/02/22-rdf-syntax-ns#">
   <cc:Work>
    <dc:type rdf:resource="http://purl.org/dc/dcmitype/StillImage"/>
    <dc:date>2024-11-15T20:09:22.911972</dc:date>
    <dc:format>image/svg+xml</dc:format>
    <dc:creator>
     <cc:Agent>
      <dc:title>Matplotlib v3.9.1, https://matplotlib.org/</dc:title>
     </cc:Agent>
    </dc:creator>
   </cc:Work>
  </rdf:RDF>
 </metadata>
 <defs>
  <style type="text/css">*{stroke-linejoin: round; stroke-linecap: butt}</style>
 </defs>
 <g id="figure_1">
  <g id="patch_1">
   <path d="M 0 36 
L 180 36 
L 180 0 
L 0 0 
L 0 36 
z
" style="fill: none"/>
  </g>
  <g id="axes_1">
   <g id="patch_2">
    <path d="M 22.5 32.04 
L 162 32.04 
L 162 4.32 
L 22.5 4.32 
L 22.5 32.04 
z
" style="fill: none"/>
   </g>
   <g id="matplotlib.axis_1">
    <g id="xtick_1"/>
    <g id="xtick_2"/>
    <g id="xtick_3"/>
    <g id="xtick_4"/>
   </g>
   <g id="matplotlib.axis_2">
    <g id="ytick_1"/>
    <g id="ytick_2"/>
    <g id="ytick_3"/>
   </g>
   <g id="line2d_1">
    <path d="M 28.840909 22.653234 
L 29.545455 20.756208 
L 30.25 20.053606 
L 30.954545 19.069963 
L 31.659091 24.128699 
L 32.363636 25.838364 
L 33.068182 22.044312 
L 33.772727 21.037249 
L 34.477273 20.334647 
L 35.181818 21.529071 
L 35.886364 20.545428 
L 36.590909 20.920149 
L 37.295455 20.053606 
L 38 21.084089 
L 39.409091 17.383717 
L 40.113636 16.751375 
L 41.522727 25.838364 
L 42.227273 28.555093 
L 42.931818 30.78 
L 43.636364 29.585576 
L 44.340909 29.702677 
L 45.045455 27.47777 
L 45.75 24.33948 
L 46.454545 21.763271 
L 47.159091 23.308996 
L 47.863636 22.840595 
L 48.568182 23.051375 
L 49.272727 26.095985 
L 49.977273 25.885204 
L 50.681818 23.191896 
L 51.386364 22.020892 
L 52.090909 21.34171 
L 52.795455 20.311227 
L 53.5 18.0629 
L 54.204545 18.367361 
L 54.909091 19.866245 
L 55.613636 13.730186 
L 56.318182 13.402305 
L 57.022727 11.458439 
L 57.727273 17.711599 
L 58.431818 22.137993 
L 59.136364 18.461041 
L 59.840909 13.097844 
L 60.545455 5.907881 
L 61.25 13.589665 
L 61.954545 11.78632 
L 62.659091 10.872937 
L 63.363636 17.617918 
L 64.068182 19.538364 
L 64.772727 24.128699 
L 65.477273 24.55026 
L 66.181818 27.59487 
L 66.886364 26.915688 
L 67.590909 23.988178 
L 68.295455 24.761041 
L 69 23.051375 
L 69.704545 26.728327 
L 70.409091 27.056208 
L 71.113636 23.777398 
L 71.818182 22.114572 
L 72.522727 23.121636 
L 73.227273 24.854721 
L 73.931818 23.683717 
L 74.636364 22.067732 
L 75.340909 19.936506 
L 76.045455 16.821636 
L 76.75 20.451747 
L 77.454545 18.882602 
L 78.159091 16.142454 
L 78.863636 18.812342 
L 79.568182 22.793755 
L 80.272727 25.955465 
L 80.977273 28.367732 
L 81.681818 27.829071 
L 82.386364 24.667361 
L 83.090909 23.191896 
L 83.795455 23.191896 
L 84.5 25.674424 
L 85.204545 22.582974 
L 85.909091 21.38855 
L 86.613636 16.259554 
L 87.318182 14.830929 
L 88.022727 12.348401 
L 88.727273 15.439851 
L 89.431818 10.006394 
L 90.136364 5.58 
L 90.840909 8.484089 
L 91.545455 13.870706 
L 92.25 9.631673 
L 92.954545 11.78632 
L 93.659091 10.264015 
L 94.363636 11.88 
L 95.068182 15.837993 
L 95.772727 12.418662 
L 96.477273 17.383717 
L 97.181818 17.290037 
L 97.886364 23.262156 
L 98.590909 25.440223 
L 99.295455 25.768104 
L 100 22.208253 
L 100.704545 21.950632 
L 101.409091 19.655465 
L 102.113636 20.990409 
L 102.818182 20.966989 
L 103.522727 24.5971 
L 104.227273 24.995242 
L 104.931818 23.800818 
L 106.340909 24.784461 
L 107.045455 18.531301 
L 107.75 19.023123 
L 108.454545 16.845056 
L 109.159091 12.512342 
L 109.863636 14.526468 
L 110.568182 17.477398 
L 111.272727 15.299331 
L 111.977273 12.652862 
L 112.681818 17.102677 
L 113.386364 13.706766 
L 114.090909 16.938736 
L 114.795455 15.697472 
L 115.5 18.812342 
L 116.204545 19.210483 
L 116.909091 14.503048 
L 117.613636 11.88 
L 118.318182 12.793383 
L 119.022727 14.362528 
L 119.727273 20.545428 
L 120.431818 21.41197 
L 121.136364 23.824238 
L 121.840909 21.786691 
L 122.545455 18.507881 
L 123.25 21.833532 
L 123.954545 16.891896 
L 124.659091 13.214944 
L 125.363636 19.983346 
L 126.068182 19.819405 
L 126.772727 17.898959 
L 127.477273 18.343941 
L 128.181818 12.957323 
L 128.886364 16.329814 
L 129.590909 11.177398 
L 130.295455 14.456208 
L 131 13.894126 
L 131.704545 17.453978 
L 132.409091 19.163643 
L 133.113636 15.814572 
L 134.522727 20.475167 
L 135.227273 20.170706 
L 135.931818 18.695242 
L 136.636364 18.2971 
L 137.340909 21.552491 
L 138.045455 17.500818 
L 138.75 17.524238 
L 139.454545 15.697472 
L 140.863636 20.756208 
L 141.568182 19.678885 
L 142.272727 16.142454 
L 142.977273 14.97145 
L 143.681818 15.18223 
L 144.386364 17.688178 
L 145.090909 21.693011 
L 145.795455 20.311227 
L 146.5 22.184833 
L 147.204545 21.950632 
L 148.613636 14.385948 
L 149.318182 16.189294 
L 150.022727 15.04171 
L 150.727273 17.032416 
L 151.431818 13.589665 
L 152.136364 9.069591 
L 152.840909 16.142454 
L 153.545455 18.929442 
L 154.25 18.484461 
L 154.954545 17.266617 
L 155.659091 17.945799 
L 155.659091 17.945799 
" clip-path="url(#pbb7649f72d)" style="fill: none; stroke: #1f77b4; stroke-width: 2; stroke-linecap: square"/>
   </g>
   <g id="patch_3">
    <path d="M 22.5 32.04 
L 22.5 4.32 
" style="fill: none; stroke: #000000; stroke-width: 0.8; stroke-linejoin: miter; stroke-linecap: square"/>
   </g>
   <g id="patch_4">
    <path d="M 162 32.04 
L 162 4.32 
" style="fill: none; stroke: #000000; stroke-width: 0.8; stroke-linejoin: miter; stroke-linecap: square"/>
   </g>
   <g id="patch_5">
    <path d="M 22.5 32.04 
L 162 32.04 
" style="fill: none; stroke: #000000; stroke-width: 0.8; stroke-linejoin: miter; stroke-linecap: square"/>
   </g>
   <g id="patch_6">
    <path d="M 22.5 4.32 
L 162 4.32 
" style="fill: none; stroke: #000000; stroke-width: 0.8; stroke-linejoin: miter; stroke-linecap: square"/>
   </g>
  </g>
 </g>
 <defs>
  <clipPath id="pbb7649f72d">
   <rect x="22.5" y="4.32" width="139.5" height="27.72"/>
  </clipPath>
 </defs>
</svg>
