<?xml version="1.0" encoding="utf-8" standalone="no"?>
<!DOCTYPE svg PUBLIC "-//W3C//DTD SVG 1.1//EN"
  "http://www.w3.org/Graphics/SVG/1.1/DTD/svg11.dtd">
<svg xmlns:xlink="http://www.w3.org/1999/xlink" width="180pt" height="36pt" viewBox="0 0 180 36" xmlns="http://www.w3.org/2000/svg" version="1.1">
 <metadata>
  <rdf:RDF xmlns:dc="http://purl.org/dc/elements/1.1/" xmlns:cc="http://creativecommons.org/ns#" xmlns:rdf="http://www.w3.org/1999/02/22-rdf-syntax-ns#">
   <cc:Work>
    <dc:type rdf:resource="http://purl.org/dc/dcmitype/StillImage"/>
    <dc:date>2024-11-15T20:09:20.922683</dc:date>
    <dc:format>image/svg+xml</dc:format>
    <dc:creator>
     <cc:Agent>
      <dc:title>Matplotlib v3.9.1, https://matplotlib.org/</dc:title>
     </cc:Agent>
    </dc:creator>
   </cc:Work>
  </rdf:RDF>
 </metadata>
 <defs>
  <style type="text/css">*{stroke-linejoin: round; stroke-linecap: butt}</style>
 </defs>
 <g id="figure_1">
  <g id="patch_1">
   <path d="M 0 36 
L 180 36 
L 180 0 
L 0 0 
L 0 36 
z
" style="fill: none"/>
  </g>
  <g id="axes_1">
   <g id="patch_2">
    <path d="M 22.5 32.04 
L 162 32.04 
L 162 4.32 
L 22.5 4.32 
L 22.5 32.04 
z
" style="fill: none"/>
   </g>
   <g id="matplotlib.axis_1">
    <g id="xtick_1"/>
    <g id="xtick_2"/>
    <g id="xtick_3"/>
    <g id="xtick_4"/>
   </g>
   <g id="matplotlib.axis_2">
    <g id="ytick_1"/>
    <g id="ytick_2"/>
   </g>
   <g id="line2d_1">
    <path d="M 28.840909 30.666384 
L 29.545455 30.78 
L 30.25 29.325717 
L 30.954545 30.234644 
L 31.659091 29.825627 
L 32.363636 30.34826 
L 33.068182 29.280271 
L 33.772727 28.803084 
L 34.477273 30.166474 
L 35.181818 29.734734 
L 35.886364 30.461876 
L 36.590909 30.166474 
L 37.295455 29.439333 
L 38 30.757277 
L 38.704545 30.461876 
L 39.409091 29.34844 
L 40.113636 29.053039 
L 40.818182 24.781082 
L 41.522727 26.212642 
L 42.227273 26.598936 
L 42.931818 27.507863 
L 43.636364 28.666745 
L 45.045455 22.349702 
L 45.75 20.918142 
L 46.454545 24.213003 
L 47.159091 17.486943 
L 47.863636 18.554932 
L 48.568182 18.691271 
L 49.272727 21.69073 
L 50.681818 18.191362 
L 51.386364 19.532029 
L 52.795455 17.123372 
L 53.5 13.214986 
L 54.204545 12.942308 
L 54.909091 11.919766 
L 55.613636 10.30642 
L 56.318182 9.533832 
L 57.022727 15.146456 
L 57.727273 14.123913 
L 58.431818 18.168638 
L 59.136364 19.191181 
L 59.840909 18.89578 
L 60.545455 17.805068 
L 61.25 17.89596 
L 61.954545 12.646907 
L 62.659091 17.89596 
L 63.363636 13.033201 
L 64.068182 16.578016 
L 64.772727 12.101551 
L 66.181818 11.260794 
L 66.886364 17.146096 
L 67.590909 7.988656 
L 68.295455 19.668368 
L 69 12.283336 
L 69.704545 19.872876 
L 70.409091 17.600559 
L 71.113636 16.03266 
L 71.818182 19.191181 
L 72.522727 21.440775 
L 73.227273 20.054662 
L 73.931818 17.123372 
L 74.636364 15.646366 
L 75.340909 12.396952 
L 76.045455 13.328602 
L 76.75 6.57982 
L 77.454545 11.783427 
L 78.159091 11.192624 
L 78.863636 13.783066 
L 79.568182 12.7378 
L 80.977273 18.918503 
L 81.681818 15.987214 
L 82.386364 17.327881 
L 83.090909 21.077205 
L 83.795455 18.645825 
L 84.5 19.463859 
L 85.204545 22.645104 
L 85.909091 23.713093 
L 86.613636 21.508945 
L 87.318182 24.258449 
L 88.022727 22.326979 
L 88.727273 17.509666 
L 89.431818 16.623463 
L 90.136364 11.874319 
L 90.840909 17.214265 
L 91.545455 10.011019 
L 92.25 7.738702 
L 92.954545 12.30606 
L 93.659091 7.034283 
L 94.363636 10.669991 
L 95.068182 6.693436 
L 95.772727 7.761425 
L 96.477273 13.146817 
L 97.181818 10.420036 
L 97.886364 5.58 
L 98.590909 9.056646 
L 99.295455 10.260974 
L 100 17.168819 
L 101.409091 21.804346 
L 102.113636 22.054301 
L 102.818182 21.508945 
L 103.522727 25.599116 
L 104.227273 20.236447 
L 104.931818 18.918503 
L 105.636364 22.008855 
L 107.045455 25.508224 
L 107.75 21.849793 
L 108.454545 23.235906 
L 109.159091 20.600018 
L 109.863636 18.82761 
L 110.568182 13.760343 
L 111.977273 16.259892 
L 112.681818 13.919405 
L 113.386364 18.577656 
L 114.090909 19.463859 
L 114.795455 20.75908 
L 115.5 15.737259 
L 116.204545 17.759621 
L 116.909091 14.646546 
L 117.613636 10.965392 
L 118.318182 10.829053 
L 119.022727 11.760703 
L 119.727273 14.10119 
L 120.431818 9.692894 
L 121.136364 8.352227 
L 121.840909 16.782525 
L 122.545455 9.87468 
L 123.954545 22.395149 
L 124.659091 19.600198 
L 125.363636 17.509666 
L 126.068182 16.737078 
L 126.772727 18.873057 
L 127.477273 19.32752 
L 128.181818 19.372967 
L 128.886364 16.873417 
L 129.590909 14.987394 
L 130.295455 14.510207 
L 131 15.373688 
L 131.704545 15.669089 
L 132.409091 19.145735 
L 133.113636 14.714716 
L 133.818182 16.918864 
L 134.522727 17.055203 
L 135.227273 24.599297 
L 135.931818 24.917421 
L 136.636364 26.303535 
L 137.340909 26.735275 
L 138.045455 25.667286 
L 138.75 24.962867 
L 140.159091 22.895059 
L 140.863636 25.803625 
L 141.568182 24.644743 
L 142.272727 22.395149 
L 142.977273 17.418774 
L 143.681818 21.372606 
L 144.386364 21.395329 
L 145.090909 20.372786 
L 145.795455 20.872696 
L 146.5 19.032119 
L 147.204545 22.599657 
L 147.909091 16.396231 
L 149.318182 22.622381 
L 150.022727 23.6222 
L 150.727273 19.100289 
L 151.431818 20.736357 
L 152.136364 19.8956 
L 152.840909 21.917962 
L 153.545455 23.508584 
L 154.25 24.19028 
L 154.954545 24.167556 
L 155.659091 20.554572 
L 155.659091 20.554572 
" clip-path="url(#pdeb46115b5)" style="fill: none; stroke: #1f77b4; stroke-width: 2; stroke-linecap: square"/>
   </g>
   <g id="patch_3">
    <path d="M 22.5 32.04 
L 22.5 4.32 
" style="fill: none; stroke: #000000; stroke-width: 0.8; stroke-linejoin: miter; stroke-linecap: square"/>
   </g>
   <g id="patch_4">
    <path d="M 162 32.04 
L 162 4.32 
" style="fill: none; stroke: #000000; stroke-width: 0.8; stroke-linejoin: miter; stroke-linecap: square"/>
   </g>
   <g id="patch_5">
    <path d="M 22.5 32.04 
L 162 32.04 
" style="fill: none; stroke: #000000; stroke-width: 0.8; stroke-linejoin: miter; stroke-linecap: square"/>
   </g>
   <g id="patch_6">
    <path d="M 22.5 4.32 
L 162 4.32 
" style="fill: none; stroke: #000000; stroke-width: 0.8; stroke-linejoin: miter; stroke-linecap: square"/>
   </g>
  </g>
 </g>
 <defs>
  <clipPath id="pdeb46115b5">
   <rect x="22.5" y="4.32" width="139.5" height="27.72"/>
  </clipPath>
 </defs>
</svg>
