<?xml version="1.0" encoding="utf-8" standalone="no"?>
<!DOCTYPE svg PUBLIC "-//W3C//DTD SVG 1.1//EN"
  "http://www.w3.org/Graphics/SVG/1.1/DTD/svg11.dtd">
<svg xmlns:xlink="http://www.w3.org/1999/xlink" width="180pt" height="36pt" viewBox="0 0 180 36" xmlns="http://www.w3.org/2000/svg" version="1.1">
 <metadata>
  <rdf:RDF xmlns:dc="http://purl.org/dc/elements/1.1/" xmlns:cc="http://creativecommons.org/ns#" xmlns:rdf="http://www.w3.org/1999/02/22-rdf-syntax-ns#">
   <cc:Work>
    <dc:type rdf:resource="http://purl.org/dc/dcmitype/StillImage"/>
    <dc:date>2024-11-15T20:09:21.545029</dc:date>
    <dc:format>image/svg+xml</dc:format>
    <dc:creator>
     <cc:Agent>
      <dc:title>Matplotlib v3.9.1, https://matplotlib.org/</dc:title>
     </cc:Agent>
    </dc:creator>
   </cc:Work>
  </rdf:RDF>
 </metadata>
 <defs>
  <style type="text/css">*{stroke-linejoin: round; stroke-linecap: butt}</style>
 </defs>
 <g id="figure_1">
  <g id="patch_1">
   <path d="M 0 36 
L 180 36 
L 180 0 
L 0 0 
L 0 36 
z
" style="fill: none"/>
  </g>
  <g id="axes_1">
   <g id="patch_2">
    <path d="M 22.5 32.04 
L 162 32.04 
L 162 4.32 
L 22.5 4.32 
L 22.5 32.04 
z
" style="fill: none"/>
   </g>
   <g id="matplotlib.axis_1">
    <g id="xtick_1"/>
    <g id="xtick_2"/>
    <g id="xtick_3"/>
    <g id="xtick_4"/>
   </g>
   <g id="matplotlib.axis_2">
    <g id="ytick_1"/>
    <g id="ytick_2"/>
    <g id="ytick_3"/>
   </g>
   <g id="line2d_1">
    <path d="M 28.840909 18.537848 
L 29.545455 18.952197 
L 30.25 14.281345 
L 30.954545 13.98 
L 31.659091 12.849955 
L 32.363636 13.075964 
L 33.068182 18.161166 
L 33.772727 15.373722 
L 34.477273 15.562063 
L 35.181818 13.075964 
L 35.886364 15.185381 
L 36.590909 5.58 
L 37.295455 13.603318 
L 38 11.945919 
L 38.704545 13.264305 
L 39.409091 16.051749 
L 40.113636 12.586278 
L 40.818182 10.627534 
L 41.522727 14.507354 
L 42.227273 21.513632 
L 42.931818 19.215874 
L 43.636364 24.64009 
L 44.340909 19.328879 
L 45.045455 22.229327 
L 45.75 23.246368 
L 46.454545 21.061614 
L 47.159091 22.078655 
L 47.863636 25.807803 
L 48.568182 23.321704 
L 49.272727 27.766547 
L 49.977273 28.067892 
L 50.681818 28.896592 
L 51.386364 26.410493 
L 52.090909 27.728879 
L 52.795455 26.372825 
L 53.5 23.585381 
L 54.204545 23.284036 
L 56.318182 17.822152 
L 57.022727 18.048161 
L 57.727273 18.613184 
L 58.431818 6.898386 
L 59.136364 6.220359 
L 59.840909 12.397937 
L 60.545455 12.849955 
L 61.25 11.343229 
L 61.954545 18.68852 
L 62.659091 19.291211 
L 63.363636 16.014081 
L 64.772727 20.797937 
L 65.477273 25.468789 
L 66.181818 26.033812 
L 66.886364 28.406906 
L 67.590909 26.900179 
L 69 28.971928 
L 69.704545 30.78 
L 70.409091 28.557578 
L 71.113636 30.177309 
L 71.818182 28.369238 
L 72.522727 26.033812 
L 73.227273 25.581794 
L 73.931818 25.920807 
L 74.636364 25.054439 
L 75.340909 27.08852 
L 76.045455 27.276861 
L 76.75 27.653543 
L 77.454545 26.787175 
L 78.159091 27.427534 
L 78.863636 24.753094 
L 79.568182 22.945022 
L 80.272727 27.201525 
L 80.977273 25.544126 
L 81.681818 27.314529 
L 82.386364 24.753094 
L 83.090909 27.314529 
L 83.795455 26.862511 
L 84.5 24.489417 
L 85.204545 26.636502 
L 85.909091 24.527085 
L 86.613636 26.862511 
L 87.318182 24.037399 
L 88.022727 23.510045 
L 88.727273 20.684933 
L 89.431818 19.893901 
L 90.136364 24.22574 
L 90.840909 23.246368 
L 91.545455 25.845471 
L 92.25 24.075067 
L 92.954545 25.770135 
L 93.659091 23.246368 
L 94.363636 27.276861 
L 95.068182 28.33157 
L 95.772727 27.314529 
L 96.477273 27.013184 
L 97.181818 28.293901 
L 97.886364 27.239193 
L 99.295455 25.694798 
L 100.704545 26.523498 
L 101.409091 25.883139 
L 102.113636 26.787175 
L 102.818182 27.276861 
L 103.522727 26.598834 
L 104.227273 25.129776 
L 104.931818 27.163857 
L 105.636364 26.335157 
L 106.340909 27.201525 
L 107.045455 26.787175 
L 107.75 25.920807 
L 108.454545 24.150404 
L 109.159091 26.749507 
L 109.863636 24.715426 
L 111.272727 27.352197 
L 111.977273 26.184484 
L 112.681818 24.150404 
L 113.386364 26.297489 
L 114.090909 27.126188 
L 114.795455 25.920807 
L 115.5 27.804215 
L 116.204545 27.615874 
L 116.909091 28.858924 
L 117.613636 28.030224 
L 118.318182 28.406906 
L 119.022727 28.444574 
L 119.727273 28.067892 
L 120.431818 27.126188 
L 121.136364 24.150404 
L 121.840909 20.421256 
L 122.545455 22.078655 
L 123.25 21.475964 
L 123.954545 23.321704 
L 124.659091 19.856233 
L 125.363636 23.773722 
L 126.068182 22.832018 
L 126.772727 24.22574 
L 127.477273 24.64009 
L 128.181818 27.163857 
L 128.886364 27.08852 
L 129.590909 27.578206 
L 130.295455 27.50287 
L 131 27.728879 
L 131.704545 28.105561 
L 132.409091 27.389865 
L 133.113636 27.239193 
L 133.818182 27.239193 
L 134.522727 24.790762 
L 135.227273 21.664305 
L 135.931818 21.664305 
L 136.636364 20.53426 
L 137.340909 17.709148 
L 138.045455 15.637399 
L 139.454545 19.140538 
L 140.159091 22.040987 
L 140.863636 21.96565 
L 141.568182 23.585381 
L 142.272727 23.962063 
L 142.977273 19.404215 
L 143.681818 20.270583 
L 144.386364 22.040987 
L 145.090909 20.797937 
L 145.795455 21.739641 
L 146.5 21.212287 
L 147.204545 23.623049 
L 147.909091 21.023946 
L 148.613636 19.667892 
L 149.318182 17.445471 
L 150.022727 20.722601 
L 150.727273 18.537848 
L 151.431818 15.298386 
L 152.136364 15.82574 
L 152.840909 17.144126 
L 153.545455 19.215874 
L 154.25 16.014081 
L 154.954545 15.750404 
L 155.659091 18.048161 
L 155.659091 18.048161 
" clip-path="url(#pcabe3ac3c2)" style="fill: none; stroke: #1f77b4; stroke-width: 2; stroke-linecap: square"/>
   </g>
   <g id="patch_3">
    <path d="M 22.5 32.04 
L 22.5 4.32 
" style="fill: none; stroke: #000000; stroke-width: 0.8; stroke-linejoin: miter; stroke-linecap: square"/>
   </g>
   <g id="patch_4">
    <path d="M 162 32.04 
L 162 4.32 
" style="fill: none; stroke: #000000; stroke-width: 0.8; stroke-linejoin: miter; stroke-linecap: square"/>
   </g>
   <g id="patch_5">
    <path d="M 22.5 32.04 
L 162 32.04 
" style="fill: none; stroke: #000000; stroke-width: 0.8; stroke-linejoin: miter; stroke-linecap: square"/>
   </g>
   <g id="patch_6">
    <path d="M 22.5 4.32 
L 162 4.32 
" style="fill: none; stroke: #000000; stroke-width: 0.8; stroke-linejoin: miter; stroke-linecap: square"/>
   </g>
  </g>
 </g>
 <defs>
  <clipPath id="pcabe3ac3c2">
   <rect x="22.5" y="4.32" width="139.5" height="27.72"/>
  </clipPath>
 </defs>
</svg>
