<?xml version="1.0" encoding="utf-8" standalone="no"?>
<!DOCTYPE svg PUBLIC "-//W3C//DTD SVG 1.1//EN"
  "http://www.w3.org/Graphics/SVG/1.1/DTD/svg11.dtd">
<svg xmlns:xlink="http://www.w3.org/1999/xlink" width="180pt" height="36pt" viewBox="0 0 180 36" xmlns="http://www.w3.org/2000/svg" version="1.1">
 <metadata>
  <rdf:RDF xmlns:dc="http://purl.org/dc/elements/1.1/" xmlns:cc="http://creativecommons.org/ns#" xmlns:rdf="http://www.w3.org/1999/02/22-rdf-syntax-ns#">
   <cc:Work>
    <dc:type rdf:resource="http://purl.org/dc/dcmitype/StillImage"/>
    <dc:date>2024-11-15T20:09:22.028982</dc:date>
    <dc:format>image/svg+xml</dc:format>
    <dc:creator>
     <cc:Agent>
      <dc:title>Matplotlib v3.9.1, https://matplotlib.org/</dc:title>
     </cc:Agent>
    </dc:creator>
   </cc:Work>
  </rdf:RDF>
 </metadata>
 <defs>
  <style type="text/css">*{stroke-linejoin: round; stroke-linecap: butt}</style>
 </defs>
 <g id="figure_1">
  <g id="patch_1">
   <path d="M 0 36 
L 180 36 
L 180 0 
L 0 0 
L 0 36 
z
" style="fill: none"/>
  </g>
  <g id="axes_1">
   <g id="patch_2">
    <path d="M 22.5 32.04 
L 162 32.04 
L 162 4.32 
L 22.5 4.32 
L 22.5 32.04 
z
" style="fill: none"/>
   </g>
   <g id="matplotlib.axis_1">
    <g id="xtick_1"/>
    <g id="xtick_2"/>
    <g id="xtick_3"/>
    <g id="xtick_4"/>
   </g>
   <g id="matplotlib.axis_2">
    <g id="ytick_1"/>
    <g id="ytick_2"/>
   </g>
   <g id="line2d_1">
    <path d="M 28.840909 17.994953 
L 29.545455 16.060374 
L 30.25 14.798692 
L 30.954545 17.961308 
L 31.659091 13.873458 
L 32.363636 12.981869 
L 33.068182 15.017383 
L 33.772727 20.215514 
L 34.477273 22.486542 
L 35.181818 26.288411 
L 35.886364 25.44729 
L 37.295455 30.78 
L 38 29.46785 
L 38.704545 29.787477 
L 39.409091 26.523925 
L 40.113636 25.951963 
L 40.818182 25.716449 
L 42.227273 18.280935 
L 42.931818 13.150093 
L 43.636364 11.434206 
L 44.340909 5.58 
L 45.045455 9.852897 
L 45.75 12.376262 
L 46.454545 12.073458 
L 47.159091 14.394953 
L 47.863636 13.33514 
L 48.568182 14.277196 
L 49.272727 14.041682 
L 49.977273 12.645421 
L 50.681818 17.170654 
L 51.386364 18.583738 
L 53.5 11.165047 
L 54.204545 19.744486 
L 54.909091 13.738879 
L 55.613636 13.503364 
L 56.318182 12.208037 
L 57.022727 9.314579 
L 57.727273 11.686542 
L 58.431818 12.796822 
L 59.136364 14.882804 
L 59.840909 12.813645 
L 60.545455 15.404299 
L 61.25 15.454766 
L 61.954545 18.920187 
L 62.659091 16.649159 
L 63.363636 16.766916 
L 64.068182 20.333271 
L 64.772727 20.148224 
L 65.477273 22.166916 
L 66.181818 20.366916 
L 66.886364 20.619252 
L 67.590909 19.408037 
L 68.295455 20.619252 
L 69 19.037944 
L 70.409091 24.908972 
L 71.113636 27.18 
L 71.818182 26.288411 
L 72.522727 26.137009 
L 73.227273 24.791215 
L 73.931818 26.641682 
L 74.636364 24.454766 
L 75.340909 25.649159 
L 76.045455 25.464112 
L 76.75 24.353832 
L 77.454545 20.53514 
L 78.159091 21.006168 
L 78.863636 18.80243 
L 79.568182 19.206168 
L 80.272727 17.338879 
L 80.977273 16.009907 
L 81.681818 15.875327 
L 82.386364 18.18 
L 83.090909 13.284673 
L 83.795455 15.740748 
L 84.5 16.363178 
L 85.204545 15.723925 
L 85.909091 16.161308 
L 86.613636 15.791215 
L 87.318182 13.940748 
L 88.022727 13.183738 
L 88.727273 12.174393 
L 89.431818 8.473458 
L 90.136364 6.740748 
L 90.840909 7.396822 
L 91.545455 6.808037 
L 92.954545 13.705234 
L 93.659091 16.262243 
L 94.363636 16.766916 
L 95.068182 15.673458 
L 95.772727 20.064112 
L 96.477273 21.275327 
L 97.181818 17.422991 
L 97.886364 16.262243 
L 98.590909 16.44729 
L 99.295455 12.056636 
L 100 13.40243 
L 100.704545 9.482804 
L 101.409091 12.611776 
L 102.113636 11.030467 
L 102.818182 6.252897 
L 103.522727 12.746355 
L 104.227273 9.937009 
L 105.636364 15.185607 
L 106.340909 12.460374 
L 107.045455 18.365047 
L 107.75 15.303364 
L 108.454545 15.454766 
L 109.159091 9.482804 
L 109.863636 14.664112 
L 110.568182 13.95757 
L 111.272727 12.729533 
L 111.977273 12.039813 
L 112.681818 13.26785 
L 113.386364 13.907103 
L 114.090909 19.054766 
L 114.795455 14.613645 
L 115.5 17.473458 
L 116.204545 16.430467 
L 116.909091 18.398692 
L 117.613636 14.108972 
L 118.318182 12.796822 
L 119.022727 18.465981 
L 119.727273 19.761308 
L 120.431818 17.978131 
L 121.136364 9.280935 
L 121.840909 15.656636 
L 122.545455 7.44729 
L 123.25 8.473458 
L 123.954545 10.256636 
L 124.659091 8.019252 
L 125.363636 11.451028 
L 126.068182 13.637944 
L 126.772727 11.753832 
L 127.477273 9.314579 
L 128.181818 9.381869 
L 128.886364 7.93514 
L 129.590909 12.056636 
L 130.295455 14.226729 
L 131 15.051028 
L 131.704545 15.219252 
L 132.409091 15.791215 
L 133.113636 19.643551 
L 133.818182 17.877196 
L 134.522727 18.045421 
L 135.931818 16.178131 
L 136.636364 16.127664 
L 137.340909 15.89215 
L 138.045455 15.303364 
L 138.75 13.974393 
L 139.454545 18.970654 
L 140.159091 18.028598 
L 140.863636 18.651028 
L 141.568182 19.744486 
L 142.272727 17.675327 
L 142.977273 20.585607 
L 143.681818 20.619252 
L 144.386364 16.93514 
L 145.090909 19.710841 
L 145.795455 19.811776 
L 146.5 20.938879 
L 147.204545 18.550093 
L 147.909091 20.905234 
L 148.613636 20.46785 
L 149.318182 21.174393 
L 150.022727 23.327664 
L 150.727273 22.95757 
L 151.431818 18.499626 
L 152.136364 21.006168 
L 152.840909 21.409907 
L 153.545455 22.33514 
L 154.25 22.705234 
L 154.954545 22.419252 
L 155.659091 20.619252 
L 155.659091 20.619252 
" clip-path="url(#padf6dfafe1)" style="fill: none; stroke: #1f77b4; stroke-width: 2; stroke-linecap: square"/>
   </g>
   <g id="patch_3">
    <path d="M 22.5 32.04 
L 22.5 4.32 
" style="fill: none; stroke: #000000; stroke-width: 0.8; stroke-linejoin: miter; stroke-linecap: square"/>
   </g>
   <g id="patch_4">
    <path d="M 162 32.04 
L 162 4.32 
" style="fill: none; stroke: #000000; stroke-width: 0.8; stroke-linejoin: miter; stroke-linecap: square"/>
   </g>
   <g id="patch_5">
    <path d="M 22.5 32.04 
L 162 32.04 
" style="fill: none; stroke: #000000; stroke-width: 0.8; stroke-linejoin: miter; stroke-linecap: square"/>
   </g>
   <g id="patch_6">
    <path d="M 22.5 4.32 
L 162 4.32 
" style="fill: none; stroke: #000000; stroke-width: 0.8; stroke-linejoin: miter; stroke-linecap: square"/>
   </g>
  </g>
 </g>
 <defs>
  <clipPath id="padf6dfafe1">
   <rect x="22.5" y="4.32" width="139.5" height="27.72"/>
  </clipPath>
 </defs>
</svg>
