<?xml version="1.0" encoding="utf-8" standalone="no"?>
<!DOCTYPE svg PUBLIC "-//W3C//DTD SVG 1.1//EN"
  "http://www.w3.org/Graphics/SVG/1.1/DTD/svg11.dtd">
<svg xmlns:xlink="http://www.w3.org/1999/xlink" width="180pt" height="36pt" viewBox="0 0 180 36" xmlns="http://www.w3.org/2000/svg" version="1.1">
 <metadata>
  <rdf:RDF xmlns:dc="http://purl.org/dc/elements/1.1/" xmlns:cc="http://creativecommons.org/ns#" xmlns:rdf="http://www.w3.org/1999/02/22-rdf-syntax-ns#">
   <cc:Work>
    <dc:type rdf:resource="http://purl.org/dc/dcmitype/StillImage"/>
    <dc:date>2024-11-15T20:09:21.151792</dc:date>
    <dc:format>image/svg+xml</dc:format>
    <dc:creator>
     <cc:Agent>
      <dc:title>Matplotlib v3.9.1, https://matplotlib.org/</dc:title>
     </cc:Agent>
    </dc:creator>
   </cc:Work>
  </rdf:RDF>
 </metadata>
 <defs>
  <style type="text/css">*{stroke-linejoin: round; stroke-linecap: butt}</style>
 </defs>
 <g id="figure_1">
  <g id="patch_1">
   <path d="M 0 36 
L 180 36 
L 180 0 
L 0 0 
L 0 36 
z
" style="fill: none"/>
  </g>
  <g id="axes_1">
   <g id="patch_2">
    <path d="M 22.5 32.04 
L 162 32.04 
L 162 4.32 
L 22.5 4.32 
L 22.5 32.04 
z
" style="fill: none"/>
   </g>
   <g id="matplotlib.axis_1">
    <g id="xtick_1"/>
    <g id="xtick_2"/>
    <g id="xtick_3"/>
    <g id="xtick_4"/>
   </g>
   <g id="matplotlib.axis_2">
    <g id="ytick_1"/>
    <g id="ytick_2"/>
    <g id="ytick_3"/>
   </g>
   <g id="line2d_1">
    <path d="M 28.840909 23.341308 
L 29.545455 21.350027 
L 30.25 24.874823 
L 30.954545 24.78327 
L 31.659091 26.065014 
L 32.363636 24.325504 
L 33.068182 28.010518 
L 33.772727 28.51406 
L 34.477273 28.033406 
L 35.181818 28.720054 
L 36.590909 24.165286 
L 37.295455 26.660109 
L 38 25.630136 
L 38.704545 26.019237 
L 39.409091 25.401253 
L 40.113636 25.996349 
L 40.818182 22.151117 
L 41.522727 20.480272 
L 42.227273 20.480272 
L 42.931818 22.448665 
L 43.636364 22.105341 
L 44.340909 23.84485 
L 45.75 18.145668 
L 46.454545 16.978365 
L 47.159091 14.941308 
L 49.272727 22.563106 
L 49.977273 23.959292 
L 50.681818 21.693351 
L 51.386364 16.131499 
L 52.090909 20.25139 
L 52.795455 21.968011 
L 53.5 20.983815 
L 54.204545 26.866104 
L 54.909091 25.195259 
L 55.613636 26.499891 
L 56.318182 27.209428 
L 57.022727 27.484087 
L 57.727273 28.903161 
L 58.431818 28.605613 
L 59.136364 26.660109 
L 59.840909 20.91515 
L 60.545455 16.154387 
L 61.25 14.025777 
L 61.954545 12.766921 
L 62.659091 12.65248 
L 63.363636 17.024142 
L 64.068182 13.499346 
L 64.772727 12.858474 
L 65.477273 14.895531 
L 66.181818 17.57346 
L 66.886364 18.145668 
L 68.295455 26.065014 
L 69 25.080817 
L 69.704545 26.271008 
L 70.409091 26.91188 
L 71.113636 25.97346 
L 71.818182 26.202343 
L 72.522727 22.448665 
L 73.227273 26.568556 
L 73.931818 24.302616 
L 74.636364 24.142398 
L 75.340909 22.425777 
L 76.045455 22.814877 
L 76.75 24.554387 
L 77.454545 21.784905 
L 78.159091 21.922234 
L 78.863636 24.348392 
L 79.568182 19.587629 
L 80.272727 17.665014 
L 80.977273 19.953842 
L 81.681818 18.466104 
L 82.386364 17.459019 
L 83.090909 15.399074 
L 83.795455 17.321689 
L 84.5 18.626322 
L 85.204545 19.404523 
L 85.909091 17.893896 
L 86.613636 20.823597 
L 87.318182 20.182725 
L 88.022727 16.154387 
L 88.727273 16.635041 
L 89.431818 5.58 
L 90.136364 12.103161 
L 90.840909 13.156022 
L 91.545455 16.24594 
L 92.25 14.346213 
L 93.659091 6.51842 
L 94.363636 15.055749 
L 95.772727 19.564741 
L 96.477273 19.061199 
L 97.181818 17.57346 
L 97.886364 18.466104 
L 98.590909 21.670463 
L 100 14.460654 
L 100.704545 15.627956 
L 101.409091 14.552207 
L 102.113636 17.344578 
L 102.818182 18.054114 
L 103.522727 19.610518 
L 104.227273 20.045395 
L 104.931818 19.564741 
L 105.636364 16.520599 
L 106.340909 18.878093 
L 107.045455 16.955477 
L 107.75 17.001253 
L 108.454545 15.147302 
L 109.159091 19.816512 
L 109.863636 19.724959 
L 110.568182 17.939673 
L 111.272727 21.510245 
L 111.977273 19.610518 
L 112.681818 19.999619 
L 113.386364 25.103706 
L 114.090909 23.753297 
L 114.795455 24.531499 
L 115.5 19.953842 
L 116.204545 23.158202 
L 116.909091 23.890627 
L 117.613636 25.012153 
L 119.022727 28.582725 
L 119.727273 30.619782 
L 120.431818 27.278093 
L 121.136364 30.78 
L 121.840909 29.04049 
L 122.545455 28.399619 
L 123.25 28.903161 
L 124.659091 25.950572 
L 125.363636 19.702071 
L 126.068182 22.288447 
L 126.772727 24.348392 
L 127.477273 22.929319 
L 128.181818 26.77455 
L 128.886364 25.561471 
L 130.295455 27.484087 
L 131 24.417057 
L 131.704545 26.271008 
L 132.409091 24.943488 
L 133.113636 21.784905 
L 134.522727 17.71079 
L 135.227273 19.106975 
L 135.931818 17.665014 
L 136.636364 13.934223 
L 137.340909 15.650845 
L 138.045455 18.420327 
L 138.75 18.420327 
L 139.454545 16.978365 
L 140.159091 21.44158 
L 140.863636 19.747847 
L 141.568182 22.631771 
L 142.977273 25.44703 
L 143.681818 28.51406 
L 144.386364 26.156567 
L 145.090909 26.202343 
L 145.795455 25.263924 
L 146.5 22.883542 
L 147.204545 22.906431 
L 147.909091 22.265559 
L 148.613636 25.653025 
L 149.318182 23.547302 
L 150.022727 22.196894 
L 150.727273 22.51733 
L 151.431818 23.04376 
L 152.136364 21.281362 
L 152.840909 20.503161 
L 153.545455 21.144033 
L 154.25 20.11406 
L 154.954545 17.893896 
L 155.659091 14.163106 
L 155.659091 14.163106 
" clip-path="url(#p4a19d55f5b)" style="fill: none; stroke: #1f77b4; stroke-width: 2; stroke-linecap: square"/>
   </g>
   <g id="patch_3">
    <path d="M 22.5 32.04 
L 22.5 4.32 
" style="fill: none; stroke: #000000; stroke-width: 0.8; stroke-linejoin: miter; stroke-linecap: square"/>
   </g>
   <g id="patch_4">
    <path d="M 162 32.04 
L 162 4.32 
" style="fill: none; stroke: #000000; stroke-width: 0.8; stroke-linejoin: miter; stroke-linecap: square"/>
   </g>
   <g id="patch_5">
    <path d="M 22.5 32.04 
L 162 32.04 
" style="fill: none; stroke: #000000; stroke-width: 0.8; stroke-linejoin: miter; stroke-linecap: square"/>
   </g>
   <g id="patch_6">
    <path d="M 22.5 4.32 
L 162 4.32 
" style="fill: none; stroke: #000000; stroke-width: 0.8; stroke-linejoin: miter; stroke-linecap: square"/>
   </g>
  </g>
 </g>
 <defs>
  <clipPath id="p4a19d55f5b">
   <rect x="22.5" y="4.32" width="139.5" height="27.72"/>
  </clipPath>
 </defs>
</svg>
