<?xml version="1.0" encoding="utf-8" standalone="no"?>
<!DOCTYPE svg PUBLIC "-//W3C//DTD SVG 1.1//EN"
  "http://www.w3.org/Graphics/SVG/1.1/DTD/svg11.dtd">
<svg xmlns:xlink="http://www.w3.org/1999/xlink" width="180pt" height="36pt" viewBox="0 0 180 36" xmlns="http://www.w3.org/2000/svg" version="1.1">
 <metadata>
  <rdf:RDF xmlns:dc="http://purl.org/dc/elements/1.1/" xmlns:cc="http://creativecommons.org/ns#" xmlns:rdf="http://www.w3.org/1999/02/22-rdf-syntax-ns#">
   <cc:Work>
    <dc:type rdf:resource="http://purl.org/dc/dcmitype/StillImage"/>
    <dc:date>2024-11-15T20:09:23.003933</dc:date>
    <dc:format>image/svg+xml</dc:format>
    <dc:creator>
     <cc:Agent>
      <dc:title>Matplotlib v3.9.1, https://matplotlib.org/</dc:title>
     </cc:Agent>
    </dc:creator>
   </cc:Work>
  </rdf:RDF>
 </metadata>
 <defs>
  <style type="text/css">*{stroke-linejoin: round; stroke-linecap: butt}</style>
 </defs>
 <g id="figure_1">
  <g id="patch_1">
   <path d="M 0 36 
L 180 36 
L 180 0 
L 0 0 
L 0 36 
z
" style="fill: none"/>
  </g>
  <g id="axes_1">
   <g id="patch_2">
    <path d="M 22.5 32.04 
L 162 32.04 
L 162 4.32 
L 22.5 4.32 
L 22.5 32.04 
z
" style="fill: none"/>
   </g>
   <g id="matplotlib.axis_1">
    <g id="xtick_1"/>
    <g id="xtick_2"/>
    <g id="xtick_3"/>
    <g id="xtick_4"/>
   </g>
   <g id="matplotlib.axis_2">
    <g id="ytick_1"/>
    <g id="ytick_2"/>
    <g id="ytick_3"/>
   </g>
   <g id="line2d_1">
    <path d="M 28.840909 21.641795 
L 29.545455 19.357243 
L 30.25 17.748733 
L 30.954545 18.424773 
L 31.659091 20.359648 
L 32.363636 23.133747 
L 33.068182 27.796096 
L 33.772727 29.84753 
L 34.477273 30.686753 
L 35.181818 29.404607 
L 35.886364 28.938372 
L 36.590909 27.935967 
L 37.295455 22.341147 
L 38 18.821073 
L 38.704545 21.595171 
L 39.409091 18.984255 
L 40.113636 23.157058 
L 40.818182 22.341147 
L 41.522727 24.625698 
L 42.227273 26.280833 
L 42.931818 28.798501 
L 43.636364 30.570194 
L 44.340909 27.749473 
L 45.045455 28.332266 
L 45.75 27.959278 
L 46.454545 30.78 
L 47.159091 30.523571 
L 47.863636 29.474542 
L 48.568182 28.798501 
L 49.977273 24.952063 
L 50.681818 24.415893 
L 51.386364 21.735042 
L 52.090909 21.781665 
L 52.795455 23.809787 
L 53.5 13.17963 
L 54.204545 21.665106 
L 54.909091 14.158723 
L 55.613636 12.480278 
L 56.318182 16.396651 
L 57.022727 15.324311 
L 57.727273 19.403867 
L 58.431818 14.135412 
L 59.136364 15.604052 
L 59.840909 21.688418 
L 60.545455 15.860481 
L 61.25 16.629769 
L 61.954545 18.51802 
L 62.659091 12.806642 
L 63.363636 9.729491 
L 64.068182 10.335597 
L 64.772727 12.969824 
L 65.477273 8.307475 
L 66.181818 13.529306 
L 66.886364 12.899889 
L 67.590909 10.988326 
L 68.295455 11.804237 
L 69 17.515615 
L 69.704545 20.452895 
L 70.409091 16.11691 
L 71.113636 18.541332 
L 71.818182 13.436059 
L 73.227273 17.84198 
L 73.931818 17.165939 
L 74.636364 21.455301 
L 75.340909 20.989066 
L 76.045455 17.795356 
L 76.75 14.065476 
L 77.454545 11.407937 
L 78.159091 13.202942 
L 78.863636 15.604052 
L 79.568182 16.792951 
L 80.272727 15.557428 
L 80.977273 13.412747 
L 81.681818 16.862886 
L 82.386364 19.030879 
L 83.795455 15.930416 
L 84.5 16.699704 
L 85.909091 8.074357 
L 86.613636 12.410342 
L 87.318182 9.822738 
L 88.022727 9.706179 
L 88.727273 15.650675 
L 89.431818 14.531711 
L 90.136364 9.706179 
L 90.840909 13.529306 
L 91.545455 9.612932 
L 92.25 10.941702 
L 92.954545 6.559093 
L 93.659091 5.58 
L 94.363636 7.235134 
L 95.068182 8.540592 
L 95.772727 8.983515 
L 96.477273 6.745587 
L 97.181818 6.698964 
L 97.886364 11.874172 
L 98.590909 12.130601 
L 99.295455 14.601647 
L 100 11.477872 
L 100.704545 10.288973 
L 101.409091 14.461776 
L 102.113636 19.357243 
L 102.818182 21.17556 
L 103.522727 21.944847 
L 104.931818 15.254376 
L 105.636364 17.165939 
L 106.340909 15.394246 
L 107.045455 15.021258 
L 107.75 13.739112 
L 108.454545 12.946512 
L 109.863636 16.303404 
L 110.568182 13.948918 
L 111.272727 10.358908 
L 111.977273 11.780925 
L 112.681818 12.620148 
L 113.386364 12.666772 
L 114.090909 11.291378 
L 114.795455 13.482683 
L 115.5 13.412747 
L 116.204545 18.727826 
L 116.909091 18.657891 
L 117.613636 13.995541 
L 118.318182 13.016448 
L 119.022727 13.436059 
L 119.727273 14.228659 
L 120.431818 15.720611 
L 121.136364 10.848455 
L 121.840909 8.657151 
L 122.545455 18.867697 
L 123.25 16.886198 
L 123.954545 13.599241 
L 124.659091 13.925606 
L 125.363636 13.436059 
L 126.068182 7.58481 
L 126.772727 6.932081 
L 127.477273 13.109695 
L 128.181818 13.226253 
L 128.886364 12.899889 
L 129.590909 9.333191 
L 130.295455 14.158723 
L 131 11.85086 
L 131.704545 14.205347 
L 132.409091 12.829954 
L 133.113636 11.897484 
L 133.818182 14.951323 
L 134.522727 18.891008 
L 135.227273 19.45049 
L 135.931818 16.723016 
L 136.636364 18.238279 
L 137.340909 17.422368 
L 138.045455 13.436059 
L 138.75 11.734302 
L 139.454545 12.526901 
L 140.159091 14.205347 
L 140.863636 14.64827 
L 141.568182 17.142627 
L 142.272727 16.11691 
L 142.977273 18.051785 
L 143.681818 16.536522 
L 145.090909 17.911915 
L 145.795455 17.096004 
L 146.5 16.536522 
L 147.204545 20.499519 
L 147.909091 18.751138 
L 148.613636 19.240685 
L 150.022727 16.65308 
L 150.727273 16.140222 
L 151.431818 13.412747 
L 152.136364 15.557428 
L 152.840909 16.233469 
L 153.545455 18.005162 
L 154.25 16.956133 
L 154.954545 18.704514 
L 155.659091 17.259186 
L 155.659091 17.259186 
" clip-path="url(#p80a987f282)" style="fill: none; stroke: #1f77b4; stroke-width: 2; stroke-linecap: square"/>
   </g>
   <g id="patch_3">
    <path d="M 22.5 32.04 
L 22.5 4.32 
" style="fill: none; stroke: #000000; stroke-width: 0.8; stroke-linejoin: miter; stroke-linecap: square"/>
   </g>
   <g id="patch_4">
    <path d="M 162 32.04 
L 162 4.32 
" style="fill: none; stroke: #000000; stroke-width: 0.8; stroke-linejoin: miter; stroke-linecap: square"/>
   </g>
   <g id="patch_5">
    <path d="M 22.5 32.04 
L 162 32.04 
" style="fill: none; stroke: #000000; stroke-width: 0.8; stroke-linejoin: miter; stroke-linecap: square"/>
   </g>
   <g id="patch_6">
    <path d="M 22.5 4.32 
L 162 4.32 
" style="fill: none; stroke: #000000; stroke-width: 0.8; stroke-linejoin: miter; stroke-linecap: square"/>
   </g>
  </g>
 </g>
 <defs>
  <clipPath id="p80a987f282">
   <rect x="22.5" y="4.32" width="139.5" height="27.72"/>
  </clipPath>
 </defs>
</svg>
