<?xml version="1.0" encoding="utf-8" standalone="no"?>
<!DOCTYPE svg PUBLIC "-//W3C//DTD SVG 1.1//EN"
  "http://www.w3.org/Graphics/SVG/1.1/DTD/svg11.dtd">
<svg xmlns:xlink="http://www.w3.org/1999/xlink" width="180pt" height="36pt" viewBox="0 0 180 36" xmlns="http://www.w3.org/2000/svg" version="1.1">
 <metadata>
  <rdf:RDF xmlns:dc="http://purl.org/dc/elements/1.1/" xmlns:cc="http://creativecommons.org/ns#" xmlns:rdf="http://www.w3.org/1999/02/22-rdf-syntax-ns#">
   <cc:Work>
    <dc:type rdf:resource="http://purl.org/dc/dcmitype/StillImage"/>
    <dc:date>2024-11-15T20:09:20.724843</dc:date>
    <dc:format>image/svg+xml</dc:format>
    <dc:creator>
     <cc:Agent>
      <dc:title>Matplotlib v3.9.1, https://matplotlib.org/</dc:title>
     </cc:Agent>
    </dc:creator>
   </cc:Work>
  </rdf:RDF>
 </metadata>
 <defs>
  <style type="text/css">*{stroke-linejoin: round; stroke-linecap: butt}</style>
 </defs>
 <g id="figure_1">
  <g id="patch_1">
   <path d="M 0 36 
L 180 36 
L 180 0 
L 0 0 
L 0 36 
z
" style="fill: none"/>
  </g>
  <g id="axes_1">
   <g id="patch_2">
    <path d="M 22.5 32.04 
L 162 32.04 
L 162 4.32 
L 22.5 4.32 
L 22.5 32.04 
z
" style="fill: none"/>
   </g>
   <g id="matplotlib.axis_1">
    <g id="xtick_1"/>
    <g id="xtick_2"/>
    <g id="xtick_3"/>
    <g id="xtick_4"/>
   </g>
   <g id="matplotlib.axis_2">
    <g id="ytick_1"/>
    <g id="ytick_2"/>
    <g id="ytick_3"/>
   </g>
   <g id="line2d_1">
    <path d="M 28.840909 21.360052 
L 30.954545 13.142186 
L 31.659091 17.163695 
L 32.363636 16.486158 
L 33.068182 20.507667 
L 33.772727 22.103157 
L 34.477273 22.059445 
L 35.181818 20.573235 
L 35.886364 19.742706 
L 36.590909 17.010703 
L 37.295455 17.731951 
L 38 19.61157 
L 38.704545 14.999948 
L 39.409091 13.841578 
L 40.113636 16.63915 
L 40.818182 14.562827 
L 41.522727 10.03863 
L 42.227273 12.967337 
L 42.931818 15.327788 
L 43.636364 15.502637 
L 44.340909 22.299861 
L 45.045455 19.873842 
L 45.75 20.551379 
L 46.454545 15.983469 
L 47.159091 16.092749 
L 47.863636 12.836201 
L 48.568182 11.502984 
L 49.272727 14.103851 
L 49.977273 11.175143 
L 50.681818 11.52484 
L 51.386364 10.803591 
L 52.090909 5.58 
L 52.795455 10.279046 
L 53.5 13.491882 
L 54.204545 13.011049 
L 54.909091 13.44817 
L 55.613636 17.338543 
L 56.318182 18.693617 
L 57.022727 17.994224 
L 57.727273 20.398387 
L 58.431818 17.163695 
L 59.136364 19.655282 
L 59.840909 13.623018 
L 60.545455 18.256496 
L 61.25 17.79752 
L 61.954545 18.693617 
L 62.659091 16.901422 
L 63.363636 18.671761 
L 64.068182 18.671761 
L 64.772727 17.010703 
L 65.477273 21.666036 
L 66.181818 23.042966 
L 66.886364 22.649558 
L 67.590909 23.108534 
L 68.295455 22.430997 
L 69 25.337849 
L 69.704545 22.387285 
L 70.409091 24.83516 
L 71.113636 25.971674 
L 72.522727 23.720503 
L 73.227273 20.595091 
L 73.931818 18.934033 
L 74.636364 20.529523 
L 75.340909 15.655629 
L 76.045455 15.021804 
L 76.75 17.404111 
L 77.454545 17.207407 
L 78.159091 20.354675 
L 78.863636 21.513044 
L 79.568182 15.786765 
L 80.272727 19.61157 
L 80.977273 24.245048 
L 81.681818 19.414866 
L 82.386364 19.043313 
L 83.090909 21.819029 
L 83.795455 21.819029 
L 84.5 18.606193 
L 85.204545 19.546002 
L 85.909091 17.731951 
L 86.613636 17.863088 
L 87.318182 21.054068 
L 88.022727 17.928656 
L 88.727273 21.972021 
L 89.431818 17.928656 
L 90.136364 21.797173 
L 90.840909 19.305585 
L 91.545455 20.704371 
L 92.25 21.054068 
L 92.954545 14.431691 
L 93.659091 16.52987 
L 94.363636 15.546349 
L 95.068182 14.191275 
L 95.772727 16.158317 
L 96.477273 19.589714 
L 97.181818 22.278005 
L 97.886364 24.39804 
L 98.590909 22.321717 
L 99.295455 22.299861 
L 100 24.004631 
L 100.704545 26.714779 
L 101.409091 25.862394 
L 102.113636 23.042966 
L 102.818182 27.610876 
L 104.227273 25.403417 
L 104.931818 25.556409 
L 105.636364 25.075577 
L 106.340909 26.343226 
L 107.045455 24.922585 
L 107.75 26.408794 
L 108.454545 26.824059 
L 109.159091 26.343226 
L 109.863636 26.21209 
L 110.568182 27.392316 
L 111.272727 26.015386 
L 111.977273 25.468985 
L 112.681818 22.846262 
L 113.386364 23.086678 
L 114.090909 23.960919 
L 114.795455 22.562134 
L 115.5 21.775317 
L 116.204545 19.742706 
L 116.909091 22.474709 
L 117.613636 23.13039 
L 118.318182 25.359705 
L 119.022727 26.649211 
L 119.727273 28.528829 
L 120.431818 27.501596 
L 121.136364 29.206366 
L 121.840909 27.064475 
L 122.545455 26.124666 
L 123.954545 26.146522 
L 124.659091 24.070199 
L 126.068182 23.939063 
L 126.772727 23.152246 
L 127.477273 19.873842 
L 128.886364 17.79752 
L 129.590909 17.666383 
L 130.295455 16.289454 
L 131 15.327788 
L 133.113636 22.627702 
L 133.818182 20.179827 
L 134.522727 21.797173 
L 135.227273 22.999254 
L 135.931818 23.611223 
L 136.636364 25.228569 
L 137.340909 27.348604 
L 138.045455 24.485464 
L 138.75 28.594397 
L 139.454545 28.266557 
L 140.159091 27.195611 
L 140.863636 27.283036 
L 141.568182 26.845915 
L 142.272727 28.812958 
L 142.977273 29.009662 
L 143.681818 28.900382 
L 144.386364 29.053374 
L 145.090909 29.599775 
L 146.5 29.053374 
L 147.204545 29.643487 
L 147.909091 28.004284 
L 148.613636 29.29379 
L 149.318182 30.058751 
L 150.022727 30.321023 
L 150.727273 30.78 
L 151.431818 30.408448 
L 152.136364 29.118942 
L 152.840909 28.638109 
L 153.545455 26.714779 
L 154.25 26.452507 
L 154.954545 28.463261 
L 155.659091 28.506973 
L 155.659091 28.506973 
" clip-path="url(#p2be4a8bbad)" style="fill: none; stroke: #1f77b4; stroke-width: 2; stroke-linecap: square"/>
   </g>
   <g id="patch_3">
    <path d="M 22.5 32.04 
L 22.5 4.32 
" style="fill: none; stroke: #000000; stroke-width: 0.8; stroke-linejoin: miter; stroke-linecap: square"/>
   </g>
   <g id="patch_4">
    <path d="M 162 32.04 
L 162 4.32 
" style="fill: none; stroke: #000000; stroke-width: 0.8; stroke-linejoin: miter; stroke-linecap: square"/>
   </g>
   <g id="patch_5">
    <path d="M 22.5 32.04 
L 162 32.04 
" style="fill: none; stroke: #000000; stroke-width: 0.8; stroke-linejoin: miter; stroke-linecap: square"/>
   </g>
   <g id="patch_6">
    <path d="M 22.5 4.32 
L 162 4.32 
" style="fill: none; stroke: #000000; stroke-width: 0.8; stroke-linejoin: miter; stroke-linecap: square"/>
   </g>
  </g>
 </g>
 <defs>
  <clipPath id="p2be4a8bbad">
   <rect x="22.5" y="4.32" width="139.5" height="27.72"/>
  </clipPath>
 </defs>
</svg>
