<?xml version="1.0" encoding="utf-8" standalone="no"?>
<!DOCTYPE svg PUBLIC "-//W3C//DTD SVG 1.1//EN"
  "http://www.w3.org/Graphics/SVG/1.1/DTD/svg11.dtd">
<svg xmlns:xlink="http://www.w3.org/1999/xlink" width="180pt" height="36pt" viewBox="0 0 180 36" xmlns="http://www.w3.org/2000/svg" version="1.1">
 <metadata>
  <rdf:RDF xmlns:dc="http://purl.org/dc/elements/1.1/" xmlns:cc="http://creativecommons.org/ns#" xmlns:rdf="http://www.w3.org/1999/02/22-rdf-syntax-ns#">
   <cc:Work>
    <dc:type rdf:resource="http://purl.org/dc/dcmitype/StillImage"/>
    <dc:date>2024-11-15T20:09:21.934453</dc:date>
    <dc:format>image/svg+xml</dc:format>
    <dc:creator>
     <cc:Agent>
      <dc:title>Matplotlib v3.9.1, https://matplotlib.org/</dc:title>
     </cc:Agent>
    </dc:creator>
   </cc:Work>
  </rdf:RDF>
 </metadata>
 <defs>
  <style type="text/css">*{stroke-linejoin: round; stroke-linecap: butt}</style>
 </defs>
 <g id="figure_1">
  <g id="patch_1">
   <path d="M 0 36 
L 180 36 
L 180 0 
L 0 0 
L 0 36 
z
" style="fill: none"/>
  </g>
  <g id="axes_1">
   <g id="patch_2">
    <path d="M 22.5 32.04 
L 162 32.04 
L 162 4.32 
L 22.5 4.32 
L 22.5 32.04 
z
" style="fill: none"/>
   </g>
   <g id="matplotlib.axis_1">
    <g id="xtick_1"/>
    <g id="xtick_2"/>
    <g id="xtick_3"/>
    <g id="xtick_4"/>
   </g>
   <g id="matplotlib.axis_2">
    <g id="ytick_1"/>
    <g id="ytick_2"/>
   </g>
   <g id="line2d_1">
    <path d="M 28.840909 19.20067 
L 29.545455 20.749274 
L 30.25 16.701788 
L 30.954545 17.652067 
L 31.659091 19.693408 
L 33.068182 16.20905 
L 33.772727 17.652067 
L 34.477273 18.672737 
L 35.181818 17.86324 
L 35.886364 18.074413 
L 36.590909 23.811285 
L 37.295455 20.432514 
L 38 25.887821 
L 38.704545 25.923017 
L 39.409091 22.720223 
L 40.113636 23.14257 
L 40.818182 23.353743 
L 41.522727 21.945922 
L 42.227273 25.571061 
L 42.931818 23.670503 
L 43.636364 24.655978 
L 44.340909 20.749274 
L 45.045455 22.544246 
L 45.75 17.476089 
L 46.454545 15.082793 
L 47.159091 11.457654 
L 47.863636 11.739218 
L 48.568182 14.801229 
L 49.272727 12.302346 
L 49.977273 8.114078 
L 50.681818 19.20067 
L 51.386364 22.227486 
L 52.090909 21.523575 
L 52.795455 20.221341 
L 53.5 17.264916 
L 54.204545 18.039218 
L 54.909091 19.552626 
L 55.613636 23.388939 
L 56.318182 23.107374 
L 57.022727 22.297877 
L 57.727273 25.430279 
L 58.431818 20.045363 
L 59.136364 22.790615 
L 59.840909 24.902346 
L 60.545455 24.128045 
L 61.25 21.593966 
L 61.954545 12.654302 
L 62.659091 8.958771 
L 63.363636 7.691732 
L 64.068182 5.58 
L 64.772727 12.337542 
L 65.477273 16.490615 
L 66.181818 14.449274 
L 66.886364 18.602346 
L 67.590909 21.206816 
L 68.295455 15.293966 
L 69 17.229721 
L 69.704545 23.283352 
L 70.409091 21.664358 
L 71.113636 23.212961 
L 71.818182 18.567151 
L 73.227273 26.239777 
L 73.931818 23.705698 
L 74.636364 24.374413 
L 75.340909 26.204581 
L 76.045455 26.838101 
L 76.75 25.81743 
L 77.454545 21.523575 
L 78.159091 21.593966 
L 78.863636 23.84648 
L 79.568182 12.971061 
L 80.272727 15.681117 
L 80.977273 14.167709 
L 81.681818 7.198994 
L 82.386364 11.915196 
L 83.090909 6.002346 
L 83.795455 12.583911 
L 84.5 8.817989 
L 85.204545 10.472179 
L 85.909091 16.701788 
L 86.613636 19.658212 
L 87.318182 18.109609 
L 88.022727 18.109609 
L 88.727273 25.852626 
L 89.431818 28.597877 
L 90.136364 30.78 
L 90.840909 29.336983 
L 91.545455 28.210726 
L 92.25 29.372179 
L 92.954545 27.084469 
L 93.659091 25.782235 
L 94.363636 27.753184 
L 95.068182 26.415754 
L 95.772727 22.685028 
L 96.477273 26.028603 
L 97.181818 22.931397 
L 97.886364 25.711844 
L 98.590909 18.320782 
L 99.295455 18.778324 
L 100 12.90067 
L 101.409091 17.86324 
L 102.113636 21.066034 
L 102.818182 22.861006 
L 103.522727 20.960447 
L 104.227273 18.355978 
L 104.931818 21.910726 
L 105.636364 17.898436 
L 106.340909 20.573296 
L 107.045455 22.403464 
L 107.75 25.254302 
L 108.454545 22.086704 
L 109.159091 23.072179 
L 109.863636 24.268827 
L 111.272727 25.219106 
L 111.977273 21.910726 
L 112.681818 22.262682 
L 113.386364 17.018547 
L 114.090909 18.144804 
L 114.795455 17.828045 
L 115.5 21.066034 
L 116.204545 19.165475 
L 116.909091 21.206816 
L 117.613636 19.869385 
L 118.318182 20.890056 
L 119.022727 17.757654 
L 119.727273 19.83419 
L 120.431818 19.83419 
L 121.136364 23.740894 
L 121.840909 20.15095 
L 122.545455 19.024693 
L 123.25 22.297877 
L 123.954545 21.417989 
L 124.659091 21.664358 
L 125.363636 18.461564 
L 126.068182 24.585587 
L 126.772727 23.811285 
L 127.477273 24.022458 
L 128.181818 25.430279 
L 128.886364 22.861006 
L 129.590909 21.593966 
L 130.295455 19.059888 
L 131 14.801229 
L 131.704545 15.364358 
L 132.409091 17.405698 
L 133.113636 17.194525 
L 133.818182 15.399553 
L 134.522727 15.716313 
L 135.227273 14.343687 
L 135.931818 19.165475 
L 137.340909 22.403464 
L 138.045455 19.235866 
L 138.75 22.403464 
L 139.454545 18.285587 
L 140.159091 21.17162 
L 141.568182 18.707933 
L 142.272727 18.461564 
L 142.977273 18.672737 
L 143.681818 15.047598 
L 144.386364 16.772179 
L 145.090909 16.244246 
L 145.795455 18.391173 
L 146.5 17.440894 
L 147.204545 18.848715 
L 147.909091 21.664358 
L 148.613636 14.87162 
L 149.318182 19.130279 
L 150.022727 15.117989 
L 150.727273 16.103464 
L 152.136364 15.293966 
L 152.840909 11.140894 
L 154.25 17.440894 
L 154.954545 19.20067 
L 155.659091 18.707933 
L 155.659091 18.707933 
" clip-path="url(#p0fca5f2023)" style="fill: none; stroke: #1f77b4; stroke-width: 2; stroke-linecap: square"/>
   </g>
   <g id="patch_3">
    <path d="M 22.5 32.04 
L 22.5 4.32 
" style="fill: none; stroke: #000000; stroke-width: 0.8; stroke-linejoin: miter; stroke-linecap: square"/>
   </g>
   <g id="patch_4">
    <path d="M 162 32.04 
L 162 4.32 
" style="fill: none; stroke: #000000; stroke-width: 0.8; stroke-linejoin: miter; stroke-linecap: square"/>
   </g>
   <g id="patch_5">
    <path d="M 22.5 32.04 
L 162 32.04 
" style="fill: none; stroke: #000000; stroke-width: 0.8; stroke-linejoin: miter; stroke-linecap: square"/>
   </g>
   <g id="patch_6">
    <path d="M 22.5 4.32 
L 162 4.32 
" style="fill: none; stroke: #000000; stroke-width: 0.8; stroke-linejoin: miter; stroke-linecap: square"/>
   </g>
  </g>
 </g>
 <defs>
  <clipPath id="p0fca5f2023">
   <rect x="22.5" y="4.32" width="139.5" height="27.72"/>
  </clipPath>
 </defs>
</svg>
