<?xml version="1.0" encoding="utf-8" standalone="no"?>
<!DOCTYPE svg PUBLIC "-//W3C//DTD SVG 1.1//EN"
  "http://www.w3.org/Graphics/SVG/1.1/DTD/svg11.dtd">
<svg xmlns:xlink="http://www.w3.org/1999/xlink" width="180pt" height="36pt" viewBox="0 0 180 36" xmlns="http://www.w3.org/2000/svg" version="1.1">
 <metadata>
  <rdf:RDF xmlns:dc="http://purl.org/dc/elements/1.1/" xmlns:cc="http://creativecommons.org/ns#" xmlns:rdf="http://www.w3.org/1999/02/22-rdf-syntax-ns#">
   <cc:Work>
    <dc:type rdf:resource="http://purl.org/dc/dcmitype/StillImage"/>
    <dc:date>2024-11-15T20:09:21.446886</dc:date>
    <dc:format>image/svg+xml</dc:format>
    <dc:creator>
     <cc:Agent>
      <dc:title>Matplotlib v3.9.1, https://matplotlib.org/</dc:title>
     </cc:Agent>
    </dc:creator>
   </cc:Work>
  </rdf:RDF>
 </metadata>
 <defs>
  <style type="text/css">*{stroke-linejoin: round; stroke-linecap: butt}</style>
 </defs>
 <g id="figure_1">
  <g id="patch_1">
   <path d="M 0 36 
L 180 36 
L 180 0 
L 0 0 
L 0 36 
z
" style="fill: none"/>
  </g>
  <g id="axes_1">
   <g id="patch_2">
    <path d="M 22.5 32.04 
L 162 32.04 
L 162 4.32 
L 22.5 4.32 
L 22.5 32.04 
z
" style="fill: none"/>
   </g>
   <g id="matplotlib.axis_1">
    <g id="xtick_1"/>
    <g id="xtick_2"/>
    <g id="xtick_3"/>
    <g id="xtick_4"/>
   </g>
   <g id="matplotlib.axis_2">
    <g id="ytick_1"/>
    <g id="ytick_2"/>
   </g>
   <g id="line2d_1">
    <path d="M 28.840909 19.079069 
L 29.545455 16.994271 
L 30.25 11.547735 
L 30.954545 10.583516 
L 31.659091 12.798614 
L 32.363636 16.499131 
L 33.068182 16.108232 
L 33.772727 20.720848 
L 34.477273 16.082172 
L 35.181818 18.06273 
L 35.886364 14.231913 
L 36.590909 14.831293 
L 37.295455 10.583516 
L 38 21.606887 
L 38.704545 24.317125 
L 39.409091 26.219504 
L 40.113636 23.561386 
L 40.818182 27.287963 
L 41.522727 27.366143 
L 42.227273 26.401923 
L 42.931818 27.131603 
L 43.636364 25.906784 
L 44.340909 22.805646 
L 45.045455 17.072451 
L 46.454545 19.391789 
L 47.159091 21.111748 
L 47.863636 14.127673 
L 48.568182 18.63605 
L 49.272727 12.173175 
L 49.977273 7.664798 
L 51.386364 5.58 
L 52.090909 10.427156 
L 52.795455 11.365315 
L 53.5 22.988066 
L 54.204545 25.255284 
L 55.613636 28.538842 
L 56.318182 28.747322 
L 57.022727 30.78 
L 57.727273 29.372761 
L 58.431818 29.060041 
L 59.136364 30.49334 
L 60.545455 30.54546 
L 61.25 28.538842 
L 62.659091 30.024261 
L 63.363636 26.688583 
L 64.068182 26.714643 
L 64.772727 23.326846 
L 66.181818 22.075967 
L 66.886364 17.88031 
L 67.590909 20.590548 
L 68.295455 21.163868 
L 69 19.157249 
L 69.704545 17.64577 
L 70.409091 19.782689 
L 71.113636 24.864385 
L 71.818182 25.698304 
L 72.522727 25.359524 
L 73.227273 21.841427 
L 73.931818 23.535326 
L 74.636364 20.512368 
L 75.340909 23.144426 
L 76.045455 19.834809 
L 76.75 21.893547 
L 77.454545 20.225708 
L 78.159091 22.128087 
L 78.863636 21.554767 
L 79.568182 18.37545 
L 80.272727 18.34939 
L 80.977273 15.430672 
L 81.681818 19.991169 
L 82.386364 19.157249 
L 83.090909 23.274726 
L 83.795455 21.867487 
L 84.5 22.102027 
L 85.204545 21.945667 
L 85.909091 19.782689 
L 86.613636 21.841427 
L 87.318182 19.626329 
L 88.022727 23.978345 
L 88.727273 21.659007 
L 89.431818 21.580827 
L 90.136364 23.196546 
L 90.840909 27.730982 
L 91.545455 27.548563 
L 92.25 26.844943 
L 92.954545 25.385584 
L 94.363636 29.320641 
L 95.068182 27.053423 
L 95.772727 29.346701 
L 96.477273 28.981861 
L 97.181818 29.216401 
L 97.886364 29.841841 
L 98.590909 28.252182 
L 99.295455 28.538842 
L 100 28.981861 
L 100.704545 26.401923 
L 101.409091 26.949183 
L 102.113636 26.297684 
L 102.818182 26.480103 
L 103.522727 25.828604 
L 104.227273 24.082585 
L 104.931818 23.874105 
L 105.636364 21.450527 
L 106.340909 26.063144 
L 107.045455 28.434602 
L 107.75 28.408542 
L 108.454545 29.007921 
L 109.159091 28.877622 
L 109.863636 28.043702 
L 110.568182 27.835222 
L 111.272727 24.968625 
L 111.977273 23.092306 
L 112.681818 20.851148 
L 113.386364 21.789307 
L 114.090909 24.499545 
L 114.795455 23.587446 
L 115.5 24.603785 
L 116.204545 19.756629 
L 116.909091 19.704509 
L 117.613636 21.163868 
L 118.318182 20.564488 
L 119.022727 19.496029 
L 119.727273 17.020331 
L 120.431818 22.623226 
L 121.136364 18.74029 
L 121.840909 21.242048 
L 122.545455 16.577311 
L 123.25 17.202751 
L 123.954545 22.023847 
L 124.659091 22.440807 
L 125.363636 14.362213 
L 126.068182 14.179793 
L 126.772727 13.814953 
L 127.477273 15.534912 
L 128.181818 16.108232 
L 128.886364 18.79241 
L 129.590909 18.40151 
L 130.295455 13.971313 
L 131 14.648873 
L 132.409091 10.140496 
L 133.818182 16.342771 
L 134.522727 18.11485 
L 135.227273 15.560972 
L 135.931818 21.137808 
L 136.636364 19.131189 
L 137.340909 17.93243 
L 138.045455 15.821572 
L 138.75 19.000889 
L 139.454545 18.870589 
L 140.863636 16.759731 
L 141.568182 16.030052 
L 142.272727 13.554354 
L 142.977273 10.270796 
L 143.681818 13.867073 
L 144.386364 15.508852 
L 145.090909 16.785791 
L 145.795455 11.417435 
L 146.5 9.827777 
L 147.909091 12.694374 
L 148.613636 10.322916 
L 149.318182 10.739876 
L 150.022727 13.293754 
L 150.727273 14.518573 
L 151.431818 15.378552 
L 152.136364 15.196132 
L 152.840909 17.75001 
L 153.545455 15.847632 
L 154.25 17.437291 
L 154.954545 14.492513 
L 155.659091 12.094995 
L 155.659091 12.094995 
" clip-path="url(#pf78b0d808e)" style="fill: none; stroke: #1f77b4; stroke-width: 2; stroke-linecap: square"/>
   </g>
   <g id="patch_3">
    <path d="M 22.5 32.04 
L 22.5 4.32 
" style="fill: none; stroke: #000000; stroke-width: 0.8; stroke-linejoin: miter; stroke-linecap: square"/>
   </g>
   <g id="patch_4">
    <path d="M 162 32.04 
L 162 4.32 
" style="fill: none; stroke: #000000; stroke-width: 0.8; stroke-linejoin: miter; stroke-linecap: square"/>
   </g>
   <g id="patch_5">
    <path d="M 22.5 32.04 
L 162 32.04 
" style="fill: none; stroke: #000000; stroke-width: 0.8; stroke-linejoin: miter; stroke-linecap: square"/>
   </g>
   <g id="patch_6">
    <path d="M 22.5 4.32 
L 162 4.32 
" style="fill: none; stroke: #000000; stroke-width: 0.8; stroke-linejoin: miter; stroke-linecap: square"/>
   </g>
  </g>
 </g>
 <defs>
  <clipPath id="pf78b0d808e">
   <rect x="22.5" y="4.32" width="139.5" height="27.72"/>
  </clipPath>
 </defs>
</svg>
