<?xml version="1.0" encoding="utf-8" standalone="no"?>
<!DOCTYPE svg PUBLIC "-//W3C//DTD SVG 1.1//EN"
  "http://www.w3.org/Graphics/SVG/1.1/DTD/svg11.dtd">
<svg xmlns:xlink="http://www.w3.org/1999/xlink" width="180pt" height="36pt" viewBox="0 0 180 36" xmlns="http://www.w3.org/2000/svg" version="1.1">
 <metadata>
  <rdf:RDF xmlns:dc="http://purl.org/dc/elements/1.1/" xmlns:cc="http://creativecommons.org/ns#" xmlns:rdf="http://www.w3.org/1999/02/22-rdf-syntax-ns#">
   <cc:Work>
    <dc:type rdf:resource="http://purl.org/dc/dcmitype/StillImage"/>
    <dc:date>2024-11-15T20:09:20.820391</dc:date>
    <dc:format>image/svg+xml</dc:format>
    <dc:creator>
     <cc:Agent>
      <dc:title>Matplotlib v3.9.1, https://matplotlib.org/</dc:title>
     </cc:Agent>
    </dc:creator>
   </cc:Work>
  </rdf:RDF>
 </metadata>
 <defs>
  <style type="text/css">*{stroke-linejoin: round; stroke-linecap: butt}</style>
 </defs>
 <g id="figure_1">
  <g id="patch_1">
   <path d="M 0 36 
L 180 36 
L 180 0 
L 0 0 
L 0 36 
z
" style="fill: none"/>
  </g>
  <g id="axes_1">
   <g id="patch_2">
    <path d="M 22.5 32.04 
L 162 32.04 
L 162 4.32 
L 22.5 4.32 
L 22.5 32.04 
z
" style="fill: none"/>
   </g>
   <g id="matplotlib.axis_1">
    <g id="xtick_1"/>
    <g id="xtick_2"/>
    <g id="xtick_3"/>
    <g id="xtick_4"/>
   </g>
   <g id="matplotlib.axis_2">
    <g id="ytick_1"/>
    <g id="ytick_2"/>
    <g id="ytick_3"/>
   </g>
   <g id="line2d_1">
    <path d="M 28.840909 30.043158 
L 29.545455 30.78 
L 30.25 30.227368 
L 30.954545 30.632632 
L 31.659091 30.393158 
L 32.363636 28.790526 
L 33.068182 29.803684 
L 33.772727 28.845789 
L 34.477273 28.422105 
L 35.181818 26.432632 
L 36.590909 20.501053 
L 37.295455 21.053684 
L 38 19.893158 
L 38.704545 16.172105 
L 39.409091 14.385263 
L 40.113636 17.774737 
L 40.818182 14.956316 
L 41.522727 13.961579 
L 42.227273 15.177368 
L 42.931818 18.769474 
L 43.636364 15.822105 
L 44.340909 16.245789 
L 45.045455 15.122105 
L 45.75 16.098421 
L 46.454545 15.932632 
L 47.159091 15.195789 
L 47.863636 15.232632 
L 48.568182 17.277368 
L 49.272727 21.090526 
L 49.977273 22.711579 
L 50.681818 25.161579 
L 51.386364 23.890526 
L 52.090909 27.758947 
L 52.795455 25.732632 
L 53.5 24.977368 
L 54.204545 26.690526 
L 54.909091 24.83 
L 56.318182 26.285263 
L 57.022727 27.777368 
L 57.727273 24.922105 
L 58.431818 22.766842 
L 59.136364 19.616842 
L 60.545455 15.674737 
L 61.25 17.074737 
L 61.954545 10.83 
L 62.659091 7.569474 
L 63.363636 5.58 
L 64.068182 9.264211 
L 64.772727 17.369474 
L 65.477273 21.882632 
L 66.181818 24.424737 
L 66.886364 25.437895 
L 67.590909 27.482632 
L 68.295455 27.758947 
L 69 27.814211 
L 69.704545 28.901053 
L 70.409091 28.422105 
L 71.113636 29.011579 
L 71.818182 28.219474 
L 72.522727 27.611579 
L 73.227273 24.756316 
L 73.931818 24.406316 
L 74.636364 20.574737 
L 75.340909 23.651053 
L 76.045455 21.237895 
L 76.75 23.503684 
L 77.454545 21.33 
L 78.159091 20.648421 
L 79.568182 19.801053 
L 80.272727 23.172105 
L 80.977273 17.443158 
L 81.681818 19.764211 
L 82.386364 18.124737 
L 83.090909 19.23 
L 83.795455 18.327368 
L 84.5 18.953684 
L 85.204545 19.874737 
L 85.909091 21.790526 
L 86.613636 18.585263 
L 87.318182 22.122105 
L 88.022727 22.803684 
L 88.727273 23.908947 
L 89.431818 26.653684 
L 90.136364 25.640526 
L 90.840909 25.843158 
L 91.545455 25.714211 
L 92.25 26.451053 
L 92.954545 26.561579 
L 93.659091 25.345789 
L 94.363636 25.161579 
L 95.068182 26.708947 
L 95.772727 25.272105 
L 96.477273 26.893158 
L 97.181818 23.411579 
L 97.886364 24.83 
L 98.590909 23.577368 
L 99.295455 24.645789 
L 100 24.958947 
L 100.704545 25.916842 
L 101.409091 24.940526 
L 102.113636 26.451053 
L 102.818182 24.461579 
L 103.522727 21.587895 
L 104.227273 23.098421 
L 104.931818 24.111579 
L 105.636364 22.637895 
L 106.340909 23.577368 
L 107.045455 24.001053 
L 107.75 23.393158 
L 108.454545 26.322105 
L 109.159091 23.411579 
L 109.863636 24.922105 
L 110.568182 22.711579 
L 111.272727 25.253684 
L 111.977273 25.327368 
L 112.681818 27.261579 
L 113.386364 25.751053 
L 114.090909 24.83 
L 114.795455 23.614211 
L 115.5 23.043158 
L 116.204545 23.577368 
L 116.909091 24.351053 
L 117.613636 25.308947 
L 118.318182 22.085263 
L 119.022727 21.182632 
L 119.727273 18.456316 
L 120.431818 21.33 
L 121.136364 18.843158 
L 121.840909 18.069474 
L 122.545455 20.593158 
L 123.25 20.98 
L 123.954545 23.540526 
L 124.659091 27.003684 
L 125.363636 26.377368 
L 126.772727 25.677368 
L 127.477273 27.335263 
L 128.181818 26.045789 
L 129.590909 22.269474 
L 130.295455 21.108947 
L 131 22.564211 
L 131.704545 20.243158 
L 132.409091 20.740526 
L 133.113636 22.453684 
L 133.818182 22.619474 
L 134.522727 24.314211 
L 135.227273 24.13 
L 135.931818 22.545789 
L 136.636364 23.43 
L 137.340909 27.298421 
L 138.045455 25.658947 
L 138.75 25.437895 
L 139.454545 25.493158 
L 140.159091 26.616842 
L 140.863636 26.58 
L 141.568182 27.961579 
L 142.272727 25.640526 
L 142.977273 25.714211 
L 143.681818 25.235263 
L 144.386364 26.156316 
L 145.090909 23.595789 
L 145.795455 22.214211 
L 146.5 23.687895 
L 147.204545 23.632632 
L 147.909091 23.78 
L 148.613636 24.48 
L 149.318182 23.872105 
L 150.022727 25.53 
L 150.727273 26.137895 
L 151.431818 25.843158 
L 152.136364 24.166842 
L 152.840909 26.616842 
L 153.545455 24.848421 
L 154.25 23.835263 
L 154.954545 23.614211 
L 155.659091 22.085263 
L 155.659091 22.085263 
" clip-path="url(#p43069b5b34)" style="fill: none; stroke: #1f77b4; stroke-width: 2; stroke-linecap: square"/>
   </g>
   <g id="patch_3">
    <path d="M 22.5 32.04 
L 22.5 4.32 
" style="fill: none; stroke: #000000; stroke-width: 0.8; stroke-linejoin: miter; stroke-linecap: square"/>
   </g>
   <g id="patch_4">
    <path d="M 162 32.04 
L 162 4.32 
" style="fill: none; stroke: #000000; stroke-width: 0.8; stroke-linejoin: miter; stroke-linecap: square"/>
   </g>
   <g id="patch_5">
    <path d="M 22.5 32.04 
L 162 32.04 
" style="fill: none; stroke: #000000; stroke-width: 0.8; stroke-linejoin: miter; stroke-linecap: square"/>
   </g>
   <g id="patch_6">
    <path d="M 22.5 4.32 
L 162 4.32 
" style="fill: none; stroke: #000000; stroke-width: 0.8; stroke-linejoin: miter; stroke-linecap: square"/>
   </g>
  </g>
 </g>
 <defs>
  <clipPath id="p43069b5b34">
   <rect x="22.5" y="4.32" width="139.5" height="27.72"/>
  </clipPath>
 </defs>
</svg>
