<?xml version="1.0" encoding="utf-8" standalone="no"?>
<!DOCTYPE svg PUBLIC "-//W3C//DTD SVG 1.1//EN"
  "http://www.w3.org/Graphics/SVG/1.1/DTD/svg11.dtd">
<svg xmlns:xlink="http://www.w3.org/1999/xlink" width="180pt" height="36pt" viewBox="0 0 180 36" xmlns="http://www.w3.org/2000/svg" version="1.1">
 <metadata>
  <rdf:RDF xmlns:dc="http://purl.org/dc/elements/1.1/" xmlns:cc="http://creativecommons.org/ns#" xmlns:rdf="http://www.w3.org/1999/02/22-rdf-syntax-ns#">
   <cc:Work>
    <dc:type rdf:resource="http://purl.org/dc/dcmitype/StillImage"/>
    <dc:date>2024-11-15T20:09:21.352877</dc:date>
    <dc:format>image/svg+xml</dc:format>
    <dc:creator>
     <cc:Agent>
      <dc:title>Matplotlib v3.9.1, https://matplotlib.org/</dc:title>
     </cc:Agent>
    </dc:creator>
   </cc:Work>
  </rdf:RDF>
 </metadata>
 <defs>
  <style type="text/css">*{stroke-linejoin: round; stroke-linecap: butt}</style>
 </defs>
 <g id="figure_1">
  <g id="patch_1">
   <path d="M 0 36 
L 180 36 
L 180 0 
L 0 0 
L 0 36 
z
" style="fill: none"/>
  </g>
  <g id="axes_1">
   <g id="patch_2">
    <path d="M 22.5 32.04 
L 162 32.04 
L 162 4.32 
L 22.5 4.32 
L 22.5 32.04 
z
" style="fill: none"/>
   </g>
   <g id="matplotlib.axis_1">
    <g id="xtick_1"/>
    <g id="xtick_2"/>
    <g id="xtick_3"/>
    <g id="xtick_4"/>
   </g>
   <g id="matplotlib.axis_2">
    <g id="ytick_1"/>
    <g id="ytick_2"/>
   </g>
   <g id="line2d_1">
    <path d="M 28.840909 16.464146 
L 29.545455 19.614146 
L 30.25 16.412927 
L 30.954545 17.13 
L 31.659091 16.361707 
L 32.363636 21.611707 
L 33.068182 15.900732 
L 33.772727 16.771463 
L 34.477273 16.182439 
L 35.181818 17.053171 
L 35.886364 15.695854 
L 36.590909 16.848293 
L 37.295455 12.622683 
L 38 14.97878 
L 38.704545 8.422683 
L 39.409091 11.393415 
L 40.113636 12.059268 
L 40.818182 12.494634 
L 41.522727 20.792195 
L 42.227273 18.615366 
L 42.931818 20.587317 
L 43.636364 18.564146 
L 44.340909 21.150732 
L 45.045455 21.022683 
L 45.75 17.258049 
L 46.454545 14.569024 
L 47.159091 16.822683 
L 47.863636 19.819024 
L 48.568182 18.717805 
L 49.272727 13.800732 
L 49.977273 12.853171 
L 50.681818 16.566585 
L 51.386364 5.58 
L 52.090909 7.65439 
L 52.795455 10.753171 
L 53.5 16.617805 
L 54.204545 17.565366 
L 54.909091 14.517805 
L 55.613636 18.820244 
L 56.318182 16.950732 
L 57.022727 17.309268 
L 57.727273 14.799512 
L 58.431818 13.134878 
L 59.136364 13.211707 
L 59.840909 17.642195 
L 60.545455 16.745854 
L 61.25 20.817805 
L 61.954545 16.387317 
L 62.659091 19.767805 
L 63.363636 24.121463 
L 64.068182 25.299512 
L 64.772727 29.473902 
L 65.477273 30.651951 
L 66.886364 30.78 
L 67.590909 28.808049 
L 68.295455 29.192195 
L 69 30.600732 
L 69.704545 27.937317 
L 70.409091 26.426341 
L 71.113636 27.348293 
L 71.818182 28.014146 
L 73.227273 14.773902 
L 73.931818 17.053171 
L 74.636364 14.287317 
L 75.340909 10.983659 
L 76.045455 14.108049 
L 76.75 9.677561 
L 77.454545 9.062927 
L 78.159091 13.365366 
L 78.863636 15.183659 
L 79.568182 19.434878 
L 80.272727 22.277561 
L 80.977273 24.198293 
L 81.681818 20.638537 
L 82.386364 22.35439 
L 83.090909 20.894634 
L 83.795455 19.819024 
L 84.5 13.800732 
L 85.204545 16.822683 
L 85.909091 17.719024 
L 86.613636 18.103171 
L 87.318182 16.617805 
L 88.022727 16.950732 
L 88.727273 23.532439 
L 89.431818 22.251951 
L 90.840909 17.719024 
L 91.545455 18.615366 
L 92.25 15.695854 
L 92.954545 18.973902 
L 93.659091 18.256829 
L 94.363636 14.236098 
L 95.068182 21.586098 
L 95.772727 23.097073 
L 96.477273 21.790976 
L 97.181818 20.100732 
L 97.886364 18.922683 
L 98.590909 20.28 
L 99.295455 19.23 
L 100 20.740976 
L 100.704545 23.839756 
L 101.409091 19.486098 
L 102.113636 8.934878 
L 102.818182 15.311707 
L 103.522727 14.594634 
L 104.227273 16.540976 
L 104.931818 15.234878 
L 105.636364 19.511707 
L 106.340909 19.639756 
L 107.045455 20.971463 
L 107.75 20.766585 
L 108.454545 24.787317 
L 109.159091 26.708049 
L 109.863636 27.143415 
L 110.568182 24.095854 
L 111.272727 25.197073 
L 111.977273 24.095854 
L 112.681818 21.406829 
L 113.386364 23.48122 
L 114.090909 14.338537 
L 114.795455 15.183659 
L 115.5 13.416585 
L 116.204545 13.134878 
L 116.909091 10.138537 
L 117.613636 13.211707 
L 118.318182 12.827561 
L 119.022727 14.312927 
L 119.727273 16.592195 
L 120.431818 17.693415 
L 121.136364 19.588537 
L 121.840909 17.001951 
L 122.545455 12.059268 
L 123.25 13.467805 
L 123.954545 12.648293 
L 124.659091 15.593415 
L 125.363636 16.848293 
L 126.068182 17.334878 
L 126.772727 12.801951 
L 127.477273 14.901951 
L 128.181818 21.688537 
L 128.886364 23.967805 
L 129.590909 23.045854 
L 131 25.043415 
L 131.704545 21.739756 
L 132.409091 24.326341 
L 133.113636 23.660488 
L 133.818182 23.301951 
L 134.522727 22.303171 
L 135.227273 20.382439 
L 135.931818 21.919024 
L 136.636364 20.382439 
L 137.340909 25.862927 
L 138.045455 25.120244 
L 138.75 24.710488 
L 140.159091 21.073902 
L 140.863636 17.616585 
L 141.568182 17.07878 
L 142.272727 18.743415 
L 142.977273 17.334878 
L 143.681818 16.592195 
L 144.386364 16.976341 
L 145.090909 19.614146 
L 146.5 22.687317 
L 147.204545 21.944634 
L 147.909091 22.149512 
L 148.613636 28.193415 
L 149.318182 24.659268 
L 150.022727 24.556829 
L 151.431818 20.561707 
L 152.136364 13.544634 
L 152.840909 18.077561 
L 153.545455 19.562927 
L 154.25 22.533659 
L 154.954545 19.895854 
L 155.659091 21.842195 
L 155.659091 21.842195 
" clip-path="url(#p51fbff2c69)" style="fill: none; stroke: #1f77b4; stroke-width: 2; stroke-linecap: square"/>
   </g>
   <g id="patch_3">
    <path d="M 22.5 32.04 
L 22.5 4.32 
" style="fill: none; stroke: #000000; stroke-width: 0.8; stroke-linejoin: miter; stroke-linecap: square"/>
   </g>
   <g id="patch_4">
    <path d="M 162 32.04 
L 162 4.32 
" style="fill: none; stroke: #000000; stroke-width: 0.8; stroke-linejoin: miter; stroke-linecap: square"/>
   </g>
   <g id="patch_5">
    <path d="M 22.5 32.04 
L 162 32.04 
" style="fill: none; stroke: #000000; stroke-width: 0.8; stroke-linejoin: miter; stroke-linecap: square"/>
   </g>
   <g id="patch_6">
    <path d="M 22.5 4.32 
L 162 4.32 
" style="fill: none; stroke: #000000; stroke-width: 0.8; stroke-linejoin: miter; stroke-linecap: square"/>
   </g>
  </g>
 </g>
 <defs>
  <clipPath id="p51fbff2c69">
   <rect x="22.5" y="4.32" width="139.5" height="27.72"/>
  </clipPath>
 </defs>
</svg>
