<?xml version="1.0" encoding="utf-8" standalone="no"?>
<!DOCTYPE svg PUBLIC "-//W3C//DTD SVG 1.1//EN"
  "http://www.w3.org/Graphics/SVG/1.1/DTD/svg11.dtd">
<svg xmlns:xlink="http://www.w3.org/1999/xlink" width="180pt" height="36pt" viewBox="0 0 180 36" xmlns="http://www.w3.org/2000/svg" version="1.1">
 <metadata>
  <rdf:RDF xmlns:dc="http://purl.org/dc/elements/1.1/" xmlns:cc="http://creativecommons.org/ns#" xmlns:rdf="http://www.w3.org/1999/02/22-rdf-syntax-ns#">
   <cc:Work>
    <dc:type rdf:resource="http://purl.org/dc/dcmitype/StillImage"/>
    <dc:date>2024-11-15T20:09:22.248859</dc:date>
    <dc:format>image/svg+xml</dc:format>
    <dc:creator>
     <cc:Agent>
      <dc:title>Matplotlib v3.9.1, https://matplotlib.org/</dc:title>
     </cc:Agent>
    </dc:creator>
   </cc:Work>
  </rdf:RDF>
 </metadata>
 <defs>
  <style type="text/css">*{stroke-linejoin: round; stroke-linecap: butt}</style>
 </defs>
 <g id="figure_1">
  <g id="patch_1">
   <path d="M 0 36 
L 180 36 
L 180 0 
L 0 0 
L 0 36 
z
" style="fill: none"/>
  </g>
  <g id="axes_1">
   <g id="patch_2">
    <path d="M 22.5 32.04 
L 162 32.04 
L 162 4.32 
L 22.5 4.32 
L 22.5 32.04 
z
" style="fill: none"/>
   </g>
   <g id="matplotlib.axis_1">
    <g id="xtick_1"/>
    <g id="xtick_2"/>
    <g id="xtick_3"/>
    <g id="xtick_4"/>
   </g>
   <g id="matplotlib.axis_2">
    <g id="ytick_1"/>
    <g id="ytick_2"/>
   </g>
   <g id="line2d_1">
    <path d="M 28.840909 7.242944 
L 29.545455 15.429746 
L 30.954545 20.25868 
L 32.363636 7.754619 
L 33.068182 11.656142 
L 33.772727 10.089137 
L 34.477273 14.054619 
L 35.181818 14.662234 
L 35.886364 20.25868 
L 36.590909 21.953604 
L 37.295455 22.36934 
L 38 23.328731 
L 38.704545 27.134315 
L 39.409091 25.471371 
L 40.113636 26.494721 
L 40.818182 24.607919 
L 41.522727 27.166294 
L 42.227273 25.247513 
L 42.931818 28.63736 
L 43.636364 27.422132 
L 44.340909 21.186091 
L 45.045455 21.154112 
L 45.75 23.680508 
L 46.454545 21.409949 
L 47.159091 15.07797 
L 47.863636 13.447005 
L 48.568182 19.874924 
L 50.681818 11.688122 
L 51.386364 10.185076 
L 52.090909 16.772893 
L 53.5 8.330254 
L 54.204545 5.58 
L 54.909091 13.926701 
L 55.613636 26.174924 
L 56.318182 26.55868 
L 57.022727 22.976954 
L 57.727273 26.750558 
L 58.431818 25.471371 
L 59.136364 25.311472 
L 59.840909 26.782538 
L 60.545455 27.837868 
L 61.25 25.247513 
L 61.954545 26.238883 
L 62.659091 23.584569 
L 63.363636 20.226701 
L 64.068182 22.049543 
L 64.772727 17.508426 
L 65.477273 19.587107 
L 66.181818 19.075431 
L 66.886364 25.023655 
L 67.590909 22.273401 
L 68.295455 20.482538 
L 69 20.450558 
L 69.704545 21.857665 
L 70.409091 21.441929 
L 71.113636 15.589645 
L 71.818182 15.717563 
L 72.522727 21.218071 
L 73.227273 24.224162 
L 73.931818 23.808426 
L 74.636364 21.857665 
L 75.340909 21.857665 
L 76.045455 23.42467 
L 76.75 25.855127 
L 77.454545 20.034822 
L 78.159091 20.738376 
L 78.863636 23.616548 
L 79.568182 15.749543 
L 80.272727 18.787614 
L 80.977273 12.263756 
L 81.681818 16.133299 
L 82.386364 18.659695 
L 83.090909 13.287107 
L 83.795455 12.039898 
L 84.5 11.112487 
L 85.204545 12.071878 
L 85.909091 15.685584 
L 86.613636 15.653604 
L 87.318182 14.758173 
L 88.022727 18.819594 
L 88.727273 21.122132 
L 89.431818 18.435838 
L 90.136364 24.096244 
L 90.840909 20.29066 
L 91.545455 20.354619 
L 92.25 20.130761 
L 92.954545 21.985584 
L 93.659091 22.912995 
L 94.363636 22.593198 
L 95.068182 20.578477 
L 95.772727 24.735838 
L 96.477273 25.215533 
L 97.181818 22.465279 
L 97.886364 25.343452 
L 98.590909 21.409949 
L 99.295455 21.697766 
L 100 17.508426 
L 100.704545 20.226701 
L 101.409091 20.002843 
L 102.113636 16.517056 
L 102.818182 20.770355 
L 103.522727 23.136853 
L 104.931818 20.418579 
L 105.636364 16.708934 
L 106.340909 19.906904 
L 107.045455 20.610457 
L 107.75 26.654619 
L 108.454545 25.791168 
L 109.159091 27.518071 
L 109.863636 25.50335 
L 110.568182 27.454112 
L 111.272727 20.610457 
L 111.977273 20.194721 
L 112.681818 19.331269 
L 113.386364 20.226701 
L 114.090909 18.14802 
L 114.795455 13.478985 
L 115.5 17.476447 
L 116.204545 13.127208 
L 116.909091 17.700305 
L 117.613636 15.429746 
L 118.318182 14.98203 
L 119.022727 14.054619 
L 119.727273 17.796244 
L 120.431818 20.098782 
L 121.136364 17.892183 
L 121.840909 13.798782 
L 122.545455 19.906904 
L 123.25 20.32264 
L 123.954545 16.740914 
L 124.659091 22.593198 
L 125.363636 19.011472 
L 126.068182 20.162741 
L 126.772727 21.537868 
L 127.477273 21.473909 
L 128.181818 23.360711 
L 128.886364 24.895736 
L 129.590909 24.927716 
L 130.295455 23.39269 
L 131 23.040914 
L 131.704545 22.912995 
L 132.409091 23.968325 
L 133.113636 23.680508 
L 133.818182 21.250051 
L 134.522727 23.008934 
L 135.227273 20.706396 
L 135.931818 20.098782 
L 136.636364 20.610457 
L 137.340909 26.718579 
L 138.045455 26.462741 
L 138.75 27.422132 
L 139.454545 24.959695 
L 140.159091 26.686599 
L 140.863636 27.358173 
L 141.568182 25.599289 
L 142.272727 30.78 
L 142.977273 29.308934 
L 143.681818 30.140406 
L 144.386364 29.053096 
L 145.090909 28.70132 
L 145.795455 28.061726 
L 146.5 30.236345 
L 147.204545 28.285584 
L 147.909091 27.294213 
L 149.318182 26.878477 
L 150.022727 23.488629 
L 150.727273 27.805888 
L 151.431818 23.328731 
L 152.136364 25.759188 
L 152.840909 23.776447 
L 153.545455 18.627716 
L 154.25 21.825685 
L 154.954545 21.218071 
L 155.659091 19.491168 
L 155.659091 19.491168 
" clip-path="url(#pc9b5595837)" style="fill: none; stroke: #1f77b4; stroke-width: 2; stroke-linecap: square"/>
   </g>
   <g id="patch_3">
    <path d="M 22.5 32.04 
L 22.5 4.32 
" style="fill: none; stroke: #000000; stroke-width: 0.8; stroke-linejoin: miter; stroke-linecap: square"/>
   </g>
   <g id="patch_4">
    <path d="M 162 32.04 
L 162 4.32 
" style="fill: none; stroke: #000000; stroke-width: 0.8; stroke-linejoin: miter; stroke-linecap: square"/>
   </g>
   <g id="patch_5">
    <path d="M 22.5 32.04 
L 162 32.04 
" style="fill: none; stroke: #000000; stroke-width: 0.8; stroke-linejoin: miter; stroke-linecap: square"/>
   </g>
   <g id="patch_6">
    <path d="M 22.5 4.32 
L 162 4.32 
" style="fill: none; stroke: #000000; stroke-width: 0.8; stroke-linejoin: miter; stroke-linecap: square"/>
   </g>
  </g>
 </g>
 <defs>
  <clipPath id="pc9b5595837">
   <rect x="22.5" y="4.32" width="139.5" height="27.72"/>
  </clipPath>
 </defs>
</svg>
