<?xml version="1.0" encoding="utf-8" standalone="no"?>
<!DOCTYPE svg PUBLIC "-//W3C//DTD SVG 1.1//EN"
  "http://www.w3.org/Graphics/SVG/1.1/DTD/svg11.dtd">
<svg xmlns:xlink="http://www.w3.org/1999/xlink" width="180pt" height="36pt" viewBox="0 0 180 36" xmlns="http://www.w3.org/2000/svg" version="1.1">
 <metadata>
  <rdf:RDF xmlns:dc="http://purl.org/dc/elements/1.1/" xmlns:cc="http://creativecommons.org/ns#" xmlns:rdf="http://www.w3.org/1999/02/22-rdf-syntax-ns#">
   <cc:Work>
    <dc:type rdf:resource="http://purl.org/dc/dcmitype/StillImage"/>
    <dc:date>2024-11-15T20:09:22.630681</dc:date>
    <dc:format>image/svg+xml</dc:format>
    <dc:creator>
     <cc:Agent>
      <dc:title>Matplotlib v3.9.1, https://matplotlib.org/</dc:title>
     </cc:Agent>
    </dc:creator>
   </cc:Work>
  </rdf:RDF>
 </metadata>
 <defs>
  <style type="text/css">*{stroke-linejoin: round; stroke-linecap: butt}</style>
 </defs>
 <g id="figure_1">
  <g id="patch_1">
   <path d="M 0 36 
L 180 36 
L 180 0 
L 0 0 
L 0 36 
z
" style="fill: none"/>
  </g>
  <g id="axes_1">
   <g id="patch_2">
    <path d="M 22.5 32.04 
L 162 32.04 
L 162 4.32 
L 22.5 4.32 
L 22.5 32.04 
z
" style="fill: none"/>
   </g>
   <g id="matplotlib.axis_1">
    <g id="xtick_1"/>
    <g id="xtick_2"/>
    <g id="xtick_3"/>
    <g id="xtick_4"/>
   </g>
   <g id="matplotlib.axis_2">
    <g id="ytick_1"/>
    <g id="ytick_2"/>
   </g>
   <g id="line2d_1">
    <path d="M 28.840909 19.966909 
L 29.545455 16.698545 
L 30.25 16.790182 
L 30.954545 21.524727 
L 31.659091 25.006909 
L 32.363636 25.281818 
L 33.068182 27.572727 
L 33.772727 25.220727 
L 34.477273 27.542182 
L 35.181818 27.908727 
L 35.886364 29.833091 
L 36.590909 27.297818 
L 37.295455 27.022909 
L 38 27.450545 
L 38.704545 27.267273 
L 39.409091 30.78 
L 40.113636 29.252727 
L 40.818182 29.619273 
L 41.522727 27.694909 
L 42.227273 25.006909 
L 42.931818 25.129091 
L 43.636364 22.441091 
L 44.340909 25.556727 
L 45.045455 24.732 
L 45.75 28.550182 
L 46.454545 27.939273 
L 47.159091 28.183636 
L 47.863636 28.794545 
L 48.568182 26.931273 
L 49.272727 26.656364 
L 49.977273 28.030909 
L 50.681818 25.281818 
L 51.386364 22.990909 
L 52.090909 23.296364 
L 52.795455 23.998909 
L 53.5 20.241818 
L 54.204545 18.439636 
L 54.909091 18.256364 
L 55.613636 14.529818 
L 56.318182 12.666545 
L 57.022727 18.500727 
L 57.727273 13.216364 
L 58.431818 10.986545 
L 59.136364 17.187273 
L 59.840909 17.034545 
L 60.545455 23.052 
L 61.25 25.587273 
L 61.954545 21.158182 
L 62.659091 19.050545 
L 63.363636 19.050545 
L 64.068182 13.216364 
L 64.772727 15.996 
L 65.477273 11.292 
L 66.181818 12.788727 
L 66.886364 18.806182 
L 67.590909 16.851273 
L 68.295455 9.795273 
L 69.704545 13.552364 
L 70.409091 10.803273 
L 71.113636 14.071636 
L 71.818182 10.161818 
L 72.522727 15.140727 
L 73.227273 12.055636 
L 73.931818 5.58 
L 74.636364 8.268 
L 75.340909 7.779273 
L 76.045455 13.338545 
L 76.75 17.217818 
L 77.454545 15.079636 
L 78.159091 14.590909 
L 78.863636 17.034545 
L 79.568182 11.902909 
L 80.272727 12.116727 
L 80.977273 15.476727 
L 81.681818 14.529818 
L 82.386364 15.507273 
L 83.090909 15.965455 
L 83.795455 13.674545 
L 84.5 15.476727 
L 85.204545 12.391636 
L 85.909091 11.108727 
L 86.613636 14.407636 
L 87.318182 12.238909 
L 88.022727 15.537818 
L 88.727273 14.224364 
L 89.431818 13.369091 
L 90.136364 15.262909 
L 90.840909 10.222909 
L 91.545455 18.256364 
L 92.954545 18.561818 
L 93.659091 18.378545 
L 94.363636 16.209818 
L 95.068182 15.904364 
L 95.772727 14.713091 
L 96.477273 19.294909 
L 97.181818 17.004 
L 97.886364 16.454182 
L 98.590909 16.729091 
L 99.295455 15.385091 
L 100 18.256364 
L 101.409091 12.3 
L 102.113636 14.346545 
L 102.818182 14.713091 
L 103.522727 15.629455 
L 104.227273 18.439636 
L 104.931818 20.7 
L 105.636364 18.653455 
L 106.340909 21.249818 
L 107.045455 17.004 
L 107.75 20.119636 
L 108.454545 18.958909 
L 109.159091 19.875273 
L 109.863636 17.584364 
L 110.568182 21.372 
L 111.272727 18.714545 
L 111.977273 13.094182 
L 112.681818 14.010545 
L 113.386364 14.743636 
L 114.090909 15.934909 
L 114.795455 17.981455 
L 115.5 18.378545 
L 116.204545 18.592364 
L 116.909091 20.669455 
L 117.613636 17.645455 
L 118.318182 20.028 
L 119.022727 18.775636 
L 119.727273 19.081091 
L 120.431818 21.982909 
L 121.136364 20.150182 
L 121.840909 19.814182 
L 122.545455 18.836727 
L 123.25 16.759636 
L 123.954545 21.860727 
L 124.659091 20.364 
L 125.363636 20.425091 
L 126.068182 20.730545 
L 126.772727 23.724 
L 127.477273 20.333455 
L 128.181818 25.190182 
L 128.886364 25.129091 
L 129.590909 18.684 
L 131 22.196727 
L 131.704545 22.074545 
L 132.409091 20.822182 
L 133.113636 21.494182 
L 133.818182 21.097091 
L 135.227273 23.113091 
L 135.931818 24.426545 
L 136.636364 19.661455 
L 137.340909 22.410545 
L 138.045455 24.365455 
L 138.75 23.785091 
L 139.454545 22.349455 
L 140.159091 21.982909 
L 140.863636 19.02 
L 141.568182 19.997455 
L 142.272727 20.669455 
L 142.977273 23.754545 
L 143.681818 20.974909 
L 144.386364 19.325455 
L 145.090909 21.372 
L 145.795455 19.447636 
L 146.5 21.433091 
L 147.204545 22.013455 
L 147.909091 20.028 
L 148.613636 19.997455 
L 149.318182 17.737091 
L 150.022727 22.135636 
L 150.727273 19.325455 
L 151.431818 19.875273 
L 152.136364 22.38 
L 152.840909 22.471636 
L 153.545455 21.952364 
L 154.25 22.624364 
L 154.954545 19.966909 
L 155.659091 22.899273 
L 155.659091 22.899273 
" clip-path="url(#pfd6f7a50a8)" style="fill: none; stroke: #1f77b4; stroke-width: 2; stroke-linecap: square"/>
   </g>
   <g id="patch_3">
    <path d="M 22.5 32.04 
L 22.5 4.32 
" style="fill: none; stroke: #000000; stroke-width: 0.8; stroke-linejoin: miter; stroke-linecap: square"/>
   </g>
   <g id="patch_4">
    <path d="M 162 32.04 
L 162 4.32 
" style="fill: none; stroke: #000000; stroke-width: 0.8; stroke-linejoin: miter; stroke-linecap: square"/>
   </g>
   <g id="patch_5">
    <path d="M 22.5 32.04 
L 162 32.04 
" style="fill: none; stroke: #000000; stroke-width: 0.8; stroke-linejoin: miter; stroke-linecap: square"/>
   </g>
   <g id="patch_6">
    <path d="M 22.5 4.32 
L 162 4.32 
" style="fill: none; stroke: #000000; stroke-width: 0.8; stroke-linejoin: miter; stroke-linecap: square"/>
   </g>
  </g>
 </g>
 <defs>
  <clipPath id="pfd6f7a50a8">
   <rect x="22.5" y="4.32" width="139.5" height="27.72"/>
  </clipPath>
 </defs>
</svg>
