<?xml version="1.0" encoding="utf-8" standalone="no"?>
<!DOCTYPE svg PUBLIC "-//W3C//DTD SVG 1.1//EN"
  "http://www.w3.org/Graphics/SVG/1.1/DTD/svg11.dtd">
<svg xmlns:xlink="http://www.w3.org/1999/xlink" width="180pt" height="36pt" viewBox="0 0 180 36" xmlns="http://www.w3.org/2000/svg" version="1.1">
 <metadata>
  <rdf:RDF xmlns:dc="http://purl.org/dc/elements/1.1/" xmlns:cc="http://creativecommons.org/ns#" xmlns:rdf="http://www.w3.org/1999/02/22-rdf-syntax-ns#">
   <cc:Work>
    <dc:type rdf:resource="http://purl.org/dc/dcmitype/StillImage"/>
    <dc:date>2024-11-15T20:09:23.100620</dc:date>
    <dc:format>image/svg+xml</dc:format>
    <dc:creator>
     <cc:Agent>
      <dc:title>Matplotlib v3.9.1, https://matplotlib.org/</dc:title>
     </cc:Agent>
    </dc:creator>
   </cc:Work>
  </rdf:RDF>
 </metadata>
 <defs>
  <style type="text/css">*{stroke-linejoin: round; stroke-linecap: butt}</style>
 </defs>
 <g id="figure_1">
  <g id="patch_1">
   <path d="M 0 36 
L 180 36 
L 180 0 
L 0 0 
L 0 36 
z
" style="fill: none"/>
  </g>
  <g id="axes_1">
   <g id="patch_2">
    <path d="M 22.5 32.04 
L 162 32.04 
L 162 4.32 
L 22.5 4.32 
L 22.5 32.04 
z
" style="fill: none"/>
   </g>
   <g id="matplotlib.axis_1">
    <g id="xtick_1"/>
    <g id="xtick_2"/>
    <g id="xtick_3"/>
    <g id="xtick_4"/>
   </g>
   <g id="matplotlib.axis_2">
    <g id="ytick_1"/>
    <g id="ytick_2"/>
   </g>
   <g id="line2d_1">
    <path d="M 28.840909 24.48 
L 29.545455 18.92025 
L 30.25 19.3455 
L 30.954545 14.337 
L 31.659091 11.23425 
L 32.363636 10.4625 
L 33.068182 9.47025 
L 33.772727 10.88775 
L 34.477273 9.40725 
L 35.181818 9.24975 
L 35.886364 13.2975 
L 36.590909 12.006 
L 37.295455 16.4475 
L 38 24.77925 
L 38.704545 24.165 
L 39.409091 17.84925 
L 40.113636 18.7155 
L 40.818182 21.2985 
L 41.522727 21.94425 
L 42.227273 24.7005 
L 42.931818 24.77925 
L 43.636364 22.023 
L 45.045455 10.746 
L 45.75 9.56475 
L 46.454545 5.81625 
L 47.159091 10.053 
L 47.863636 11.628 
L 48.568182 16.77825 
L 49.272727 24.7635 
L 49.977273 24.74775 
L 50.681818 26.622 
L 51.386364 21.59775 
L 52.090909 22.5585 
L 52.795455 19.5345 
L 53.5 17.8335 
L 54.909091 13.2975 
L 55.613636 8.33625 
L 56.318182 6.8085 
L 57.022727 5.58 
L 57.727273 9.06075 
L 58.431818 8.14725 
L 59.136364 6.09975 
L 59.840909 9.486 
L 60.545455 16.40025 
L 61.25 19.51875 
L 61.954545 20.18025 
L 62.659091 24.65325 
L 64.068182 21.5505 
L 64.772727 18.9675 
L 65.477273 21.62925 
L 66.181818 20.18025 
L 66.886364 22.44825 
L 67.590909 21.53475 
L 68.295455 23.99175 
L 69 24.6375 
L 69.704545 20.68425 
L 70.409091 21.204 
L 71.113636 19.73925 
L 71.818182 16.3215 
L 72.522727 15.10875 
L 73.227273 16.983 
L 73.931818 15.17175 
L 74.636364 12.7935 
L 75.340909 16.542 
L 76.045455 12.0375 
L 76.75 20.49525 
L 77.454545 14.91975 
L 78.159091 16.49475 
L 79.568182 13.75425 
L 80.272727 8.73 
L 80.977273 14.25825 
L 81.681818 15.093 
L 82.386364 15.093 
L 83.090909 20.33775 
L 83.795455 20.62125 
L 84.5 18.747 
L 85.204545 21.771 
L 85.909091 22.401 
L 86.613636 22.57425 
L 87.318182 23.48775 
L 88.022727 23.5035 
L 88.727273 22.35375 
L 89.431818 22.3065 
L 90.136364 20.9205 
L 90.840909 21.645 
L 91.545455 21.582 
L 92.25 17.865 
L 92.954545 19.944 
L 93.659091 19.755 
L 94.363636 24.0705 
L 95.068182 22.401 
L 95.772727 21.97575 
L 96.477273 25.803 
L 97.181818 25.18875 
L 97.886364 28.77975 
L 98.590909 29.12625 
L 99.295455 28.638 
L 100 28.7955 
L 100.704545 26.48025 
L 101.409091 27.4095 
L 102.113636 29.1105 
L 102.818182 25.8975 
L 103.522727 25.3305 
L 104.227273 26.38575 
L 104.931818 21.3615 
L 105.636364 21.015 
L 106.340909 22.023 
L 107.045455 23.3145 
L 107.75 24.30675 
L 108.454545 23.6295 
L 109.159091 20.9205 
L 109.863636 21.708 
L 110.568182 23.67675 
L 111.272727 23.96025 
L 111.977273 24.77925 
L 112.681818 27.36225 
L 113.386364 28.323 
L 114.090909 25.81875 
L 114.795455 25.62975 
L 115.5 24.59025 
L 116.204545 25.34625 
L 116.909091 25.6455 
L 117.613636 25.09425 
L 118.318182 24.74775 
L 119.022727 24.24375 
L 119.727273 25.2045 
L 120.431818 25.81875 
L 121.136364 24.30675 
L 121.840909 24.7635 
L 122.545455 24.49575 
L 123.25 24.48 
L 123.954545 22.63725 
L 125.363636 24.228 
L 126.068182 22.6215 
L 126.772727 23.913 
L 127.477273 23.67675 
L 128.181818 24.14925 
L 128.886364 24.8265 
L 130.295455 23.89725 
L 131 24.11775 
L 131.704545 25.91325 
L 132.409091 24.40125 
L 133.113636 28.21275 
L 133.818182 27.315 
L 134.522727 28.43325 
L 135.227273 27.45675 
L 135.931818 29.709 
L 136.636364 30.213 
L 137.340909 28.953 
L 138.045455 28.4805 
L 138.75 28.5435 
L 139.454545 28.81125 
L 140.159091 28.4805 
L 140.863636 29.53575 
L 141.568182 27.4725 
L 142.272727 27.17325 
L 142.977273 28.62225 
L 143.681818 30.7485 
L 144.386364 30.78 
L 145.090909 29.268 
L 145.795455 29.4885 
L 146.5 30.1185 
L 147.204545 28.5435 
L 147.909091 29.31525 
L 148.613636 29.205 
L 149.318182 25.88175 
L 150.727273 26.88975 
L 151.431818 26.54325 
L 152.136364 26.3385 
L 152.840909 25.6455 
L 153.545455 27.189 
L 154.25 27.126 
L 154.954545 28.81125 
L 155.659091 28.449 
L 155.659091 28.449 
" clip-path="url(#p31c9b76c2f)" style="fill: none; stroke: #1f77b4; stroke-width: 2; stroke-linecap: square"/>
   </g>
   <g id="patch_3">
    <path d="M 22.5 32.04 
L 22.5 4.32 
" style="fill: none; stroke: #000000; stroke-width: 0.8; stroke-linejoin: miter; stroke-linecap: square"/>
   </g>
   <g id="patch_4">
    <path d="M 162 32.04 
L 162 4.32 
" style="fill: none; stroke: #000000; stroke-width: 0.8; stroke-linejoin: miter; stroke-linecap: square"/>
   </g>
   <g id="patch_5">
    <path d="M 22.5 32.04 
L 162 32.04 
" style="fill: none; stroke: #000000; stroke-width: 0.8; stroke-linejoin: miter; stroke-linecap: square"/>
   </g>
   <g id="patch_6">
    <path d="M 22.5 4.32 
L 162 4.32 
" style="fill: none; stroke: #000000; stroke-width: 0.8; stroke-linejoin: miter; stroke-linecap: square"/>
   </g>
  </g>
 </g>
 <defs>
  <clipPath id="p31c9b76c2f">
   <rect x="22.5" y="4.32" width="139.5" height="27.72"/>
  </clipPath>
 </defs>
</svg>
