<?xml version="1.0" encoding="utf-8" standalone="no"?>
<!DOCTYPE svg PUBLIC "-//W3C//DTD SVG 1.1//EN"
  "http://www.w3.org/Graphics/SVG/1.1/DTD/svg11.dtd">
<svg xmlns:xlink="http://www.w3.org/1999/xlink" width="180pt" height="36pt" viewBox="0 0 180 36" xmlns="http://www.w3.org/2000/svg" version="1.1">
 <metadata>
  <rdf:RDF xmlns:dc="http://purl.org/dc/elements/1.1/" xmlns:cc="http://creativecommons.org/ns#" xmlns:rdf="http://www.w3.org/1999/02/22-rdf-syntax-ns#">
   <cc:Work>
    <dc:type rdf:resource="http://purl.org/dc/dcmitype/StillImage"/>
    <dc:date>2024-11-15T20:09:21.743673</dc:date>
    <dc:format>image/svg+xml</dc:format>
    <dc:creator>
     <cc:Agent>
      <dc:title>Matplotlib v3.9.1, https://matplotlib.org/</dc:title>
     </cc:Agent>
    </dc:creator>
   </cc:Work>
  </rdf:RDF>
 </metadata>
 <defs>
  <style type="text/css">*{stroke-linejoin: round; stroke-linecap: butt}</style>
 </defs>
 <g id="figure_1">
  <g id="patch_1">
   <path d="M 0 36 
L 180 36 
L 180 0 
L 0 0 
L 0 36 
z
" style="fill: none"/>
  </g>
  <g id="axes_1">
   <g id="patch_2">
    <path d="M 22.5 32.04 
L 162 32.04 
L 162 4.32 
L 22.5 4.32 
L 22.5 32.04 
z
" style="fill: none"/>
   </g>
   <g id="matplotlib.axis_1">
    <g id="xtick_1"/>
    <g id="xtick_2"/>
    <g id="xtick_3"/>
    <g id="xtick_4"/>
   </g>
   <g id="matplotlib.axis_2">
    <g id="ytick_1"/>
    <g id="ytick_2"/>
   </g>
   <g id="line2d_1">
    <path d="M 28.840909 17.894358 
L 29.545455 13.482771 
L 30.25 12.816272 
L 30.954545 18.18 
L 31.659091 11.038942 
L 32.363636 16.117028 
L 33.068182 18.941713 
L 33.772727 20.623829 
L 34.477273 20.147758 
L 35.181818 18.18 
L 35.886364 15.260101 
L 36.590909 21.41728 
L 37.295455 21.829874 
L 38 19.63995 
L 38.704545 19.227355 
L 39.409091 18.433904 
L 40.113636 16.847003 
L 40.818182 15.736171 
L 41.522727 20.972947 
L 42.931818 11.705441 
L 43.636364 12.879748 
L 44.340909 12.53063 
L 45.045455 16.942217 
L 45.75 23.956322 
L 46.454545 24.559345 
L 47.159091 24.210227 
L 47.863636 26.431889 
L 48.568182 26.177985 
L 49.272727 28.367909 
L 49.977273 28.717028 
L 50.681818 25.76539 
L 51.386364 21.73466 
L 52.090909 22.083778 
L 52.795455 25.638438 
L 53.5 20.909471 
L 54.909091 26.114509 
L 55.613636 21.068161 
L 56.318182 20.560353 
L 58.431818 26.590579 
L 59.136364 28.209219 
L 60.545455 29.034408 
L 61.25 30.62131 
L 61.954545 29.923073 
L 62.659091 29.700907 
L 63.363636 30.748262 
L 64.068182 28.812242 
L 64.772727 29.351788 
L 66.181818 29.510479 
L 66.886364 30.62131 
L 67.590909 29.859597 
L 69 29.066146 
L 69.704545 27.955315 
L 70.409091 29.415264 
L 71.113636 28.68529 
L 71.818182 28.812242 
L 72.522727 29.447003 
L 73.227273 28.875718 
L 73.931818 24.622821 
L 74.636364 26.971436 
L 75.340909 24.559345 
L 76.045455 27.130126 
L 76.75 27.320554 
L 77.454545 23.924584 
L 78.159091 28.939194 
L 78.863636 27.764887 
L 79.568182 28.209219 
L 80.272727 28.431385 
L 80.977273 28.018791 
L 81.681818 29.32005 
L 82.386364 29.129622 
L 83.090909 29.288312 
L 83.795455 25.352796 
L 84.5 28.621814 
L 85.204545 28.68529 
L 85.909091 26.431889 
L 86.613636 27.22534 
L 87.318182 25.670176 
L 88.022727 26.241461 
L 88.727273 25.067154 
L 90.136364 20.845995 
L 90.840909 24.400655 
L 91.545455 25.44801 
L 92.25 26.90796 
L 92.954545 26.74927 
L 93.659091 27.447506 
L 94.363636 26.717531 
L 95.772727 28.748766 
L 96.477273 30.78 
L 97.181818 29.605693 
L 97.886364 29.351788 
L 98.590909 30.526096 
L 99.295455 26.685793 
L 100 25.955819 
L 100.704545 26.90796 
L 101.409091 25.828866 
L 102.113636 24.97194 
L 102.818182 26.177985 
L 103.522727 25.987557 
L 104.227273 27.22534 
L 104.931818 25.543224 
L 106.340909 17.386549 
L 107.045455 17.481763 
L 107.75 12.816272 
L 108.454545 10.689824 
L 109.159091 11.292846 
L 109.863636 7.484282 
L 110.568182 10.372443 
L 111.272727 17.164383 
L 111.977273 17.576977 
L 112.681818 13.514509 
L 113.386364 18.18 
L 114.090909 18.751285 
L 114.795455 20.972947 
L 115.5 20.972947 
L 116.204545 20.528615 
L 116.909091 13.451033 
L 117.613636 15.672695 
L 118.318182 16.72005 
L 119.022727 14.720554 
L 119.727273 20.369924 
L 120.431818 21.353804 
L 121.136364 24.844987 
L 121.840909 21.544232 
L 122.545455 22.528111 
L 123.954545 19.63995 
L 124.659091 21.068161 
L 125.363636 17.259597 
L 126.772727 13.736675 
L 127.477273 9.198136 
L 128.181818 8.880756 
L 128.886364 5.58 
L 129.590909 14.434912 
L 130.295455 13.16539 
L 131 15.609219 
L 131.704545 18.624332 
L 132.409091 18.433904 
L 133.818182 21.353804 
L 134.522727 20.528615 
L 135.227273 20.877733 
L 135.931818 21.988564 
L 136.636364 16.910479 
L 137.340909 20.623829 
L 138.045455 14.276222 
L 138.75 20.27471 
L 139.454545 15.609219 
L 140.159091 13.704937 
L 140.863636 10.785038 
L 141.568182 13.355819 
L 142.272727 11.356322 
L 142.977273 17.323073 
L 143.681818 15.704433 
L 144.386364 14.371436 
L 145.090909 11.737179 
L 145.795455 12.308463 
L 146.5 14.720554 
L 147.204545 17.86262 
L 147.909091 12.308463 
L 148.613636 17.735668 
L 149.318182 18.529118 
L 150.022727 20.782519 
L 150.727273 14.276222 
L 151.431818 13.927103 
L 152.136364 14.910982 
L 152.840909 21.258589 
L 153.545455 13.800151 
L 154.25 18.211738 
L 154.954545 14.974458 
L 155.659091 16.973955 
L 155.659091 16.973955 
" clip-path="url(#p51f96036b4)" style="fill: none; stroke: #1f77b4; stroke-width: 2; stroke-linecap: square"/>
   </g>
   <g id="patch_3">
    <path d="M 22.5 32.04 
L 22.5 4.32 
" style="fill: none; stroke: #000000; stroke-width: 0.8; stroke-linejoin: miter; stroke-linecap: square"/>
   </g>
   <g id="patch_4">
    <path d="M 162 32.04 
L 162 4.32 
" style="fill: none; stroke: #000000; stroke-width: 0.8; stroke-linejoin: miter; stroke-linecap: square"/>
   </g>
   <g id="patch_5">
    <path d="M 22.5 32.04 
L 162 32.04 
" style="fill: none; stroke: #000000; stroke-width: 0.8; stroke-linejoin: miter; stroke-linecap: square"/>
   </g>
   <g id="patch_6">
    <path d="M 22.5 4.32 
L 162 4.32 
" style="fill: none; stroke: #000000; stroke-width: 0.8; stroke-linejoin: miter; stroke-linecap: square"/>
   </g>
  </g>
 </g>
 <defs>
  <clipPath id="p51f96036b4">
   <rect x="22.5" y="4.32" width="139.5" height="27.72"/>
  </clipPath>
 </defs>
</svg>
