<?xml version="1.0" encoding="utf-8" standalone="no"?>
<!DOCTYPE svg PUBLIC "-//W3C//DTD SVG 1.1//EN"
  "http://www.w3.org/Graphics/SVG/1.1/DTD/svg11.dtd">
<svg xmlns:xlink="http://www.w3.org/1999/xlink" width="180pt" height="36pt" viewBox="0 0 180 36" xmlns="http://www.w3.org/2000/svg" version="1.1">
 <metadata>
  <rdf:RDF xmlns:dc="http://purl.org/dc/elements/1.1/" xmlns:cc="http://creativecommons.org/ns#" xmlns:rdf="http://www.w3.org/1999/02/22-rdf-syntax-ns#">
   <cc:Work>
    <dc:type rdf:resource="http://purl.org/dc/dcmitype/StillImage"/>
    <dc:date>2024-11-15T20:09:21.642222</dc:date>
    <dc:format>image/svg+xml</dc:format>
    <dc:creator>
     <cc:Agent>
      <dc:title>Matplotlib v3.9.1, https://matplotlib.org/</dc:title>
     </cc:Agent>
    </dc:creator>
   </cc:Work>
  </rdf:RDF>
 </metadata>
 <defs>
  <style type="text/css">*{stroke-linejoin: round; stroke-linecap: butt}</style>
 </defs>
 <g id="figure_1">
  <g id="patch_1">
   <path d="M 0 36 
L 180 36 
L 180 0 
L 0 0 
L 0 36 
z
" style="fill: none"/>
  </g>
  <g id="axes_1">
   <g id="patch_2">
    <path d="M 22.5 32.04 
L 162 32.04 
L 162 4.32 
L 22.5 4.32 
L 22.5 32.04 
z
" style="fill: none"/>
   </g>
   <g id="matplotlib.axis_1">
    <g id="xtick_1"/>
    <g id="xtick_2"/>
    <g id="xtick_3"/>
    <g id="xtick_4"/>
   </g>
   <g id="matplotlib.axis_2">
    <g id="ytick_1"/>
    <g id="ytick_2"/>
    <g id="ytick_3"/>
   </g>
   <g id="line2d_1">
    <path d="M 28.840909 18.032918 
L 29.545455 17.954475 
L 30.25 20.248949 
L 30.954545 20.680389 
L 31.659091 23.523969 
L 32.363636 22.955253 
L 33.068182 25.171284 
L 33.772727 26.661712 
L 34.477273 24.896732 
L 35.181818 25.759611 
L 35.886364 24.386848 
L 36.590909 27.406926 
L 37.295455 28.995409 
L 38 29.191518 
L 38.704545 24.700623 
L 39.409091 26.740156 
L 40.113636 27.426537 
L 40.818182 27.308872 
L 41.522727 28.112918 
L 42.931818 26.151829 
L 43.636364 27.93642 
L 44.340909 30.427004 
L 45.045455 30.78 
L 45.75 27.759922 
L 46.454545 27.583424 
L 47.159091 26.798988 
L 47.863636 27.563813 
L 48.568182 26.681323 
L 49.272727 27.93642 
L 49.977273 19.091907 
L 50.681818 14.444125 
L 51.386364 12.228093 
L 52.090909 6.874319 
L 52.795455 9.247237 
L 53.5 12.404591 
L 54.204545 7.129261 
L 54.909091 7.344981 
L 55.613636 5.717276 
L 56.318182 7.599922 
L 57.022727 7.011595 
L 58.431818 12.639922 
L 59.136364 16.522879 
L 59.840909 15.934553 
L 60.545455 17.483813 
L 61.25 16.660156 
L 61.954545 14.385292 
L 62.659091 18.052529 
L 63.363636 18.327082 
L 64.068182 16.405214 
L 64.772727 8.87463 
L 65.477273 17.699533 
L 66.181818 13.640078 
L 66.886364 12.483035 
L 67.590909 17.071984 
L 68.295455 13.012529 
L 69 10.855331 
L 69.704545 22.327704 
L 70.409091 24.955564 
L 71.113636 25.445837 
L 71.818182 21.543268 
L 72.522727 19.366459 
L 73.227273 21.896265 
L 73.931818 17.228872 
L 74.636364 18.091751 
L 75.340909 19.38607 
L 76.045455 15.66 
L 76.75 12.934086 
L 77.454545 14.444125 
L 78.159091 14.385292 
L 78.863636 12.247704 
L 79.568182 14.718677 
L 80.272727 16.562101 
L 80.977273 17.483813 
L 81.681818 15.934553 
L 82.386364 16.660156 
L 83.090909 10.267004 
L 83.795455 8.698132 
L 84.5 10.384669 
L 85.204545 10.600389 
L 85.909091 5.58 
L 86.613636 14.718677 
L 87.318182 12.502646 
L 88.022727 16.346381 
L 88.727273 20.817665 
L 89.431818 21.641323 
L 90.840909 27.799144 
L 91.545455 27.779533 
L 92.25 27.995253 
L 92.954545 25.367393 
L 93.659091 23.170973 
L 94.363636 19.641012 
L 95.068182 21.974708 
L 95.772727 18.699689 
L 96.477273 14.365681 
L 97.181818 19.582179 
L 97.886364 16.954319 
L 98.590909 11.953541 
L 99.295455 14.522568 
L 100 11.071051 
L 101.409091 15.797276 
L 102.113636 18.483969 
L 102.818182 20.366615 
L 103.522727 19.248794 
L 104.227273 17.876031 
L 104.931818 16.032607 
L 105.636364 15.816887 
L 106.340909 19.405681 
L 107.75 20.190117 
L 108.454545 22.621868 
L 109.159091 21.621712 
L 109.863636 24.994786 
L 110.568182 21.425603 
L 111.272727 21.405992 
L 111.977273 21.680545 
L 112.681818 18.797743 
L 113.386364 22.249261 
L 114.090909 20.48428 
L 114.795455 22.210039 
L 115.5 16.660156 
L 116.204545 16.32677 
L 116.909091 21.660934 
L 117.613636 19.758677 
L 118.318182 21.36677 
L 119.022727 20.876498 
L 119.727273 22.464981 
L 120.431818 17.071984 
L 121.136364 18.758521 
L 121.840909 16.189494 
L 122.545455 14.444125 
L 123.25 11.365214 
L 123.954545 13.189027 
L 124.659091 10.18856 
L 125.363636 9.874786 
L 126.068182 16.915097 
L 126.772727 19.699844 
L 127.477273 23.602412 
L 128.181818 20.601946 
L 128.886364 20.150895 
L 130.295455 24.465292 
L 131.704545 22.837588 
L 132.409091 24.582957 
L 133.113636 23.465136 
L 133.818182 18.797743 
L 134.522727 19.444903 
L 135.227273 14.110739 
L 135.931818 19.013463 
L 136.636364 17.503424 
L 137.340909 18.7193 
L 138.75 16.54249 
L 139.454545 14.444125 
L 140.159091 14.032296 
L 140.863636 12.522257 
L 141.568182 16.287549 
L 142.272727 16.915097 
L 142.977273 20.131284 
L 143.681818 17.464202 
L 144.386364 18.582023 
L 145.090909 21.327549 
L 145.795455 22.170817 
L 146.5 20.896109 
L 147.204545 22.170817 
L 147.909091 18.248638 
L 148.613636 19.013463 
L 149.318182 17.424981 
L 150.727273 21.151051 
L 151.431818 22.170817 
L 152.136364 18.7193 
L 152.840909 20.896109 
L 153.545455 21.837432 
L 154.954545 24.798677 
L 155.659091 22.22965 
L 155.659091 22.22965 
" clip-path="url(#pb905e1f3cf)" style="fill: none; stroke: #1f77b4; stroke-width: 2; stroke-linecap: square"/>
   </g>
   <g id="patch_3">
    <path d="M 22.5 32.04 
L 22.5 4.32 
" style="fill: none; stroke: #000000; stroke-width: 0.8; stroke-linejoin: miter; stroke-linecap: square"/>
   </g>
   <g id="patch_4">
    <path d="M 162 32.04 
L 162 4.32 
" style="fill: none; stroke: #000000; stroke-width: 0.8; stroke-linejoin: miter; stroke-linecap: square"/>
   </g>
   <g id="patch_5">
    <path d="M 22.5 32.04 
L 162 32.04 
" style="fill: none; stroke: #000000; stroke-width: 0.8; stroke-linejoin: miter; stroke-linecap: square"/>
   </g>
   <g id="patch_6">
    <path d="M 22.5 4.32 
L 162 4.32 
" style="fill: none; stroke: #000000; stroke-width: 0.8; stroke-linejoin: miter; stroke-linecap: square"/>
   </g>
  </g>
 </g>
 <defs>
  <clipPath id="pb905e1f3cf">
   <rect x="22.5" y="4.32" width="139.5" height="27.72"/>
  </clipPath>
 </defs>
</svg>
