<?xml version="1.0" encoding="utf-8" standalone="no"?>
<!DOCTYPE svg PUBLIC "-//W3C//DTD SVG 1.1//EN"
  "http://www.w3.org/Graphics/SVG/1.1/DTD/svg11.dtd">
<svg xmlns:xlink="http://www.w3.org/1999/xlink" width="180pt" height="36pt" viewBox="0 0 180 36" xmlns="http://www.w3.org/2000/svg" version="1.1">
 <metadata>
  <rdf:RDF xmlns:dc="http://purl.org/dc/elements/1.1/" xmlns:cc="http://creativecommons.org/ns#" xmlns:rdf="http://www.w3.org/1999/02/22-rdf-syntax-ns#">
   <cc:Work>
    <dc:type rdf:resource="http://purl.org/dc/dcmitype/StillImage"/>
    <dc:date>2024-11-15T20:09:20.631365</dc:date>
    <dc:format>image/svg+xml</dc:format>
    <dc:creator>
     <cc:Agent>
      <dc:title>Matplotlib v3.9.1, https://matplotlib.org/</dc:title>
     </cc:Agent>
    </dc:creator>
   </cc:Work>
  </rdf:RDF>
 </metadata>
 <defs>
  <style type="text/css">*{stroke-linejoin: round; stroke-linecap: butt}</style>
 </defs>
 <g id="figure_1">
  <g id="patch_1">
   <path d="M 0 36 
L 180 36 
L 180 0 
L 0 0 
L 0 36 
z
" style="fill: none"/>
  </g>
  <g id="axes_1">
   <g id="patch_2">
    <path d="M 22.5 32.04 
L 162 32.04 
L 162 4.32 
L 22.5 4.32 
L 22.5 32.04 
z
" style="fill: none"/>
   </g>
   <g id="matplotlib.axis_1">
    <g id="xtick_1"/>
    <g id="xtick_2"/>
    <g id="xtick_3"/>
    <g id="xtick_4"/>
   </g>
   <g id="matplotlib.axis_2">
    <g id="ytick_1"/>
    <g id="ytick_2"/>
   </g>
   <g id="line2d_1">
    <path d="M 28.840909 26.921627 
L 30.25 20.872823 
L 30.954545 21.415407 
L 31.659091 25.193397 
L 32.363636 25.474737 
L 33.068182 29.835502 
L 33.772727 28.087177 
L 34.477273 30.78 
L 35.181818 28.509187 
L 35.886364 28.770431 
L 36.590909 28.368517 
L 37.295455 26.218278 
L 38 22.018278 
L 38.704545 20.913014 
L 39.409091 18.802967 
L 40.113636 19.365646 
L 40.818182 17.717799 
L 41.522727 17.938852 
L 42.227273 20.812536 
L 42.931818 22.38 
L 43.636364 19.586699 
L 44.340909 19.888134 
L 45.045455 21.053684 
L 45.75 18.742679 
L 46.454545 25.27378 
L 47.159091 21.35512 
L 47.863636 22.038373 
L 48.568182 19.305359 
L 49.272727 17.536938 
L 49.977273 19.526411 
L 50.681818 20.149378 
L 51.386364 19.606794 
L 52.090909 21.395311 
L 52.795455 22.580957 
L 53.5 20.229761 
L 54.204545 21.033589 
L 54.909091 22.721627 
L 55.613636 20.691962 
L 56.318182 27.303445 
L 57.022727 28.288134 
L 57.727273 23.867081 
L 58.431818 24.510144 
L 59.136364 27.705359 
L 59.840909 23.806794 
L 60.545455 23.143636 
L 61.25 19.586699 
L 61.954545 18.059426 
L 62.659091 18.823062 
L 63.363636 20.551292 
L 64.068182 17.75799 
L 64.772727 16.291005 
L 65.477273 20.310144 
L 66.181818 20.028804 
L 66.886364 12.372344 
L 67.590909 16.291005 
L 68.295455 16.090048 
L 69 12.452727 
L 69.704545 15.14555 
L 70.409091 22.279522 
L 71.113636 22.359904 
L 71.818182 26.318756 
L 72.522727 21.35512 
L 73.227273 25.735981 
L 73.931818 20.872823 
L 74.636364 19.506316 
L 75.340909 19.988612 
L 76.045455 20.028804 
L 76.75 14.743636 
L 77.454545 14.602967 
L 78.159091 13.075694 
L 78.863636 14.482392 
L 79.568182 13.578086 
L 80.272727 15.587656 
L 80.977273 10.543636 
L 81.681818 18.099617 
L 82.386364 16.210622 
L 83.090909 15.909187 
L 83.795455 17.335981 
L 84.5 19.305359 
L 85.204545 17.697703 
L 85.909091 16.753206 
L 86.613636 13.658469 
L 87.318182 9.197225 
L 88.022727 5.58 
L 88.727273 9.880478 
L 89.431818 12.613493 
L 90.136364 12.95512 
L 90.840909 12.81445 
L 91.545455 8.232632 
L 92.25 10.161818 
L 92.954545 13.035502 
L 93.659091 13.718756 
L 94.363636 13.497703 
L 95.068182 14.000096 
L 95.772727 14.723541 
L 96.477273 12.713971 
L 97.181818 15.42689 
L 97.886364 14.442201 
L 98.590909 13.658469 
L 99.295455 14.381914 
L 100 15.306316 
L 100.704545 15.889091 
L 101.409091 11.267081 
L 102.113636 13.678565 
L 102.818182 19.084306 
L 103.522727 18.943636 
L 104.227273 20.832632 
L 104.931818 17.335981 
L 105.636364 16.672823 
L 106.340909 13.638373 
L 107.045455 17.697703 
L 107.75 18.401053 
L 108.454545 20.993397 
L 109.159091 18.220191 
L 109.863636 14.140766 
L 110.568182 12.010622 
L 111.272727 13.758947 
L 111.977273 12.734067 
L 112.681818 10.161818 
L 113.386364 14.924498 
L 114.090909 11.970431 
L 114.795455 7.046986 
L 115.5 11.206794 
L 116.204545 14.442201 
L 116.909091 13.537895 
L 117.613636 17.335981 
L 118.318182 17.979043 
L 119.022727 19.003923 
L 119.727273 19.807751 
L 120.431818 24.409665 
L 121.136364 17.697703 
L 121.840909 13.156077 
L 122.545455 19.34555 
L 123.25 21.797225 
L 123.954545 21.154163 
L 124.659091 15.00488 
L 125.363636 15.185742 
L 126.068182 8.554163 
L 126.772727 9.840287 
L 127.477273 16.049856 
L 128.181818 14.924498 
L 128.886364 20.370431 
L 129.590909 15.446986 
L 130.295455 18.32067 
L 131 22.23933 
L 131.704545 24.570431 
L 132.409091 23.163732 
L 133.113636 24.10823 
L 133.818182 25.675694 
L 134.522727 22.480478 
L 135.227273 23.023062 
L 135.931818 17.335981 
L 136.636364 16.913971 
L 137.340909 18.421148 
L 138.045455 16.130239 
L 139.454545 16.009665 
L 140.159091 13.919713 
L 140.863636 19.968517 
L 141.568182 16.59244 
L 142.272727 20.089091 
L 142.977273 22.219234 
L 143.681818 18.441244 
L 144.386364 20.832632 
L 145.090909 21.07378 
L 145.795455 17.436459 
L 146.5 17.89866 
L 147.204545 17.315885 
L 147.909091 18.60201 
L 148.613636 19.20488 
L 149.318182 20.470909 
L 150.022727 14.884306 
L 151.431818 6.243158 
L 152.136364 12.39244 
L 152.840909 10.121627 
L 153.545455 14.060383 
L 154.25 11.22689 
L 154.954545 13.578086 
L 155.659091 14.763732 
L 155.659091 14.763732 
" clip-path="url(#p66d1e72394)" style="fill: none; stroke: #1f77b4; stroke-width: 2; stroke-linecap: square"/>
   </g>
   <g id="patch_3">
    <path d="M 22.5 32.04 
L 22.5 4.32 
" style="fill: none; stroke: #000000; stroke-width: 0.8; stroke-linejoin: miter; stroke-linecap: square"/>
   </g>
   <g id="patch_4">
    <path d="M 162 32.04 
L 162 4.32 
" style="fill: none; stroke: #000000; stroke-width: 0.8; stroke-linejoin: miter; stroke-linecap: square"/>
   </g>
   <g id="patch_5">
    <path d="M 22.5 32.04 
L 162 32.04 
" style="fill: none; stroke: #000000; stroke-width: 0.8; stroke-linejoin: miter; stroke-linecap: square"/>
   </g>
   <g id="patch_6">
    <path d="M 22.5 4.32 
L 162 4.32 
" style="fill: none; stroke: #000000; stroke-width: 0.8; stroke-linejoin: miter; stroke-linecap: square"/>
   </g>
  </g>
 </g>
 <defs>
  <clipPath id="p66d1e72394">
   <rect x="22.5" y="4.32" width="139.5" height="27.72"/>
  </clipPath>
 </defs>
</svg>
