<?xml version="1.0" encoding="utf-8" standalone="no"?>
<!DOCTYPE svg PUBLIC "-//W3C//DTD SVG 1.1//EN"
  "http://www.w3.org/Graphics/SVG/1.1/DTD/svg11.dtd">
<svg xmlns:xlink="http://www.w3.org/1999/xlink" width="180pt" height="36pt" viewBox="0 0 180 36" xmlns="http://www.w3.org/2000/svg" version="1.1">
 <metadata>
  <rdf:RDF xmlns:dc="http://purl.org/dc/elements/1.1/" xmlns:cc="http://creativecommons.org/ns#" xmlns:rdf="http://www.w3.org/1999/02/22-rdf-syntax-ns#">
   <cc:Work>
    <dc:type rdf:resource="http://purl.org/dc/dcmitype/StillImage"/>
    <dc:date>2024-11-15T20:09:21.053534</dc:date>
    <dc:format>image/svg+xml</dc:format>
    <dc:creator>
     <cc:Agent>
      <dc:title>Matplotlib v3.9.1, https://matplotlib.org/</dc:title>
     </cc:Agent>
    </dc:creator>
   </cc:Work>
  </rdf:RDF>
 </metadata>
 <defs>
  <style type="text/css">*{stroke-linejoin: round; stroke-linecap: butt}</style>
 </defs>
 <g id="figure_1">
  <g id="patch_1">
   <path d="M 0 36 
L 180 36 
L 180 0 
L 0 0 
L 0 36 
z
" style="fill: none"/>
  </g>
  <g id="axes_1">
   <g id="patch_2">
    <path d="M 22.5 32.04 
L 162 32.04 
L 162 4.32 
L 22.5 4.32 
L 22.5 32.04 
z
" style="fill: none"/>
   </g>
   <g id="matplotlib.axis_1">
    <g id="xtick_1"/>
    <g id="xtick_2"/>
    <g id="xtick_3"/>
    <g id="xtick_4"/>
   </g>
   <g id="matplotlib.axis_2">
    <g id="ytick_1"/>
    <g id="ytick_2"/>
   </g>
   <g id="line2d_1">
    <path d="M 28.840909 19.14452 
L 29.545455 19.420097 
L 30.25 15.868214 
L 30.954545 9.070644 
L 31.659091 8.733827 
L 32.363636 12.683767 
L 33.068182 11.918275 
L 33.772727 10.44853 
L 34.477273 15.347679 
L 35.181818 9.040024 
L 35.886364 12.010134 
L 36.590909 17.827874 
L 37.295455 14.122892 
L 38 14.704666 
L 38.704545 5.58 
L 39.409091 17.521677 
L 40.113636 19.389478 
L 40.818182 19.511956 
L 41.522727 15.898834 
L 42.227273 18.715844 
L 42.931818 18.011592 
L 43.636364 21.808433 
L 44.340909 22.267728 
L 45.045455 15.898834 
L 45.75 18.960802 
L 46.454545 18.715844 
L 47.159091 21.196039 
L 47.863636 25.299077 
L 48.568182 27.932369 
L 49.272727 29.034678 
L 49.977273 28.330425 
L 50.681818 29.065298 
L 51.386364 30.78 
L 53.5 29.340875 
L 54.204545 27.993609 
L 54.909091 27.718032 
L 55.613636 29.76955 
L 56.318182 28.88158 
L 57.022727 28.636622 
L 57.727273 27.534313 
L 58.431818 26.738202 
L 59.136364 27.136258 
L 59.840909 24.074289 
L 60.545455 23.0026 
L 61.25 24.319247 
L 61.954545 18.868943 
L 62.659091 17.2461 
L 63.363636 16.603086 
L 64.068182 14.888384 
L 64.772727 16.511227 
L 65.477273 16.113171 
L 66.181818 16.174411 
L 66.886364 19.542576 
L 67.590909 13.969793 
L 68.295455 16.786804 
L 69 12.40819 
L 69.704545 17.399198 
L 70.409091 15.470158 
L 71.113636 12.163232 
L 71.818182 12.653147 
L 72.522727 16.603086 
L 73.227273 11.336501 
L 73.931818 20.063111 
L 74.636364 23.921191 
L 75.340909 23.890571 
L 76.045455 23.645614 
L 76.75 24.104909 
L 77.454545 20.706124 
L 78.159091 19.205759 
L 78.863636 19.328238 
L 79.568182 8.917546 
L 80.272727 9.713657 
L 80.977273 8.978785 
L 81.681818 10.203572 
L 82.386364 15.31706 
L 83.090909 11.703937 
L 84.5 10.479149 
L 85.204545 13.173682 
L 85.909091 11.826416 
L 86.613636 14.949623 
L 87.318182 9.621798 
L 88.022727 13.29616 
L 88.727273 16.296889 
L 89.431818 18.715844 
L 90.136364 17.889113 
L 90.840909 18.807704 
L 91.545455 15.041482 
L 92.25 15.837594 
L 92.954545 15.163961 
L 93.659091 15.163961 
L 94.363636 16.20503 
L 95.068182 18.532126 
L 95.772727 15.408919 
L 96.477273 11.244642 
L 97.181818 18.532126 
L 97.886364 15.960073 
L 98.590909 16.786804 
L 99.295455 19.726294 
L 100 20.09373 
L 100.704545 19.848773 
L 101.409091 24.288627 
L 102.113636 23.370036 
L 102.818182 24.380486 
L 103.522727 23.03322 
L 104.227273 22.757643 
L 104.931818 19.1139 
L 105.636364 21.04294 
L 106.340909 23.706853 
L 107.045455 25.268457 
L 107.75 26.064569 
L 108.454545 23.798712 
L 109.159091 24.594824 
L 109.863636 27.319976 
L 110.568182 25.299077 
L 111.272727 24.870401 
L 111.977273 24.99288 
L 112.681818 22.757643 
L 113.386364 19.297618 
L 114.090909 21.012321 
L 114.795455 18.899563 
L 116.204545 22.298348 
L 116.909091 15.623256 
L 117.613636 16.358129 
L 118.318182 20.001871 
L 119.022727 18.348408 
L 119.727273 17.521677 
L 120.431818 18.807704 
L 121.840909 24.441725 
L 122.545455 24.656063 
L 123.25 22.818882 
L 123.954545 17.491057 
L 124.659091 17.736015 
L 125.363636 19.848773 
L 126.068182 20.001871 
L 126.772727 20.461166 
L 128.181818 20.920462 
L 128.886364 22.941361 
L 129.590909 22.298348 
L 130.295455 22.390207 
L 131 24.135529 
L 131.704545 21.594095 
L 132.409091 16.603086 
L 133.113636 18.562746 
L 133.818182 19.297618 
L 134.522727 19.481337 
L 135.227273 20.461166 
L 135.931818 18.287169 
L 136.636364 18.807704 
L 137.340909 20.216209 
L 138.045455 22.114629 
L 138.75 18.16469 
L 139.454545 20.369307 
L 140.159091 17.307339 
L 140.863636 14.949623 
L 141.568182 16.174411 
L 142.272727 21.532855 
L 142.977273 21.502236 
L 143.681818 19.971252 
L 144.386364 23.584374 
L 145.090909 24.074289 
L 145.795455 22.359587 
L 146.5 23.400656 
L 147.204545 23.0026 
L 147.909091 23.98243 
L 148.613636 23.278177 
L 149.318182 19.266999 
L 150.022727 19.910012 
L 150.727273 18.807704 
L 151.431818 17.368578 
L 152.136364 17.491057 
L 152.840909 20.15497 
L 153.545455 16.358129 
L 154.25 17.980972 
L 154.954545 18.16469 
L 155.659091 19.665055 
L 155.659091 19.665055 
" clip-path="url(#pcafcbc9598)" style="fill: none; stroke: #1f77b4; stroke-width: 2; stroke-linecap: square"/>
   </g>
   <g id="patch_3">
    <path d="M 22.5 32.04 
L 22.5 4.32 
" style="fill: none; stroke: #000000; stroke-width: 0.8; stroke-linejoin: miter; stroke-linecap: square"/>
   </g>
   <g id="patch_4">
    <path d="M 162 32.04 
L 162 4.32 
" style="fill: none; stroke: #000000; stroke-width: 0.8; stroke-linejoin: miter; stroke-linecap: square"/>
   </g>
   <g id="patch_5">
    <path d="M 22.5 32.04 
L 162 32.04 
" style="fill: none; stroke: #000000; stroke-width: 0.8; stroke-linejoin: miter; stroke-linecap: square"/>
   </g>
   <g id="patch_6">
    <path d="M 22.5 4.32 
L 162 4.32 
" style="fill: none; stroke: #000000; stroke-width: 0.8; stroke-linejoin: miter; stroke-linecap: square"/>
   </g>
  </g>
 </g>
 <defs>
  <clipPath id="pcafcbc9598">
   <rect x="22.5" y="4.32" width="139.5" height="27.72"/>
  </clipPath>
 </defs>
</svg>
