<?xml version="1.0" encoding="utf-8" standalone="no"?>
<!DOCTYPE svg PUBLIC "-//W3C//DTD SVG 1.1//EN"
  "http://www.w3.org/Graphics/SVG/1.1/DTD/svg11.dtd">
<svg xmlns:xlink="http://www.w3.org/1999/xlink" width="180pt" height="36pt" viewBox="0 0 180 36" xmlns="http://www.w3.org/2000/svg" version="1.1">
 <metadata>
  <rdf:RDF xmlns:dc="http://purl.org/dc/elements/1.1/" xmlns:cc="http://creativecommons.org/ns#" xmlns:rdf="http://www.w3.org/1999/02/22-rdf-syntax-ns#">
   <cc:Work>
    <dc:type rdf:resource="http://purl.org/dc/dcmitype/StillImage"/>
    <dc:date>2024-11-15T20:09:22.143695</dc:date>
    <dc:format>image/svg+xml</dc:format>
    <dc:creator>
     <cc:Agent>
      <dc:title>Matplotlib v3.9.1, https://matplotlib.org/</dc:title>
     </cc:Agent>
    </dc:creator>
   </cc:Work>
  </rdf:RDF>
 </metadata>
 <defs>
  <style type="text/css">*{stroke-linejoin: round; stroke-linecap: butt}</style>
 </defs>
 <g id="figure_1">
  <g id="patch_1">
   <path d="M 0 36 
L 180 36 
L 180 0 
L 0 0 
L 0 36 
z
" style="fill: none"/>
  </g>
  <g id="axes_1">
   <g id="patch_2">
    <path d="M 22.5 32.04 
L 162 32.04 
L 162 4.32 
L 22.5 4.32 
L 22.5 32.04 
z
" style="fill: none"/>
   </g>
   <g id="matplotlib.axis_1">
    <g id="xtick_1"/>
    <g id="xtick_2"/>
    <g id="xtick_3"/>
    <g id="xtick_4"/>
   </g>
   <g id="matplotlib.axis_2">
    <g id="ytick_1"/>
    <g id="ytick_2"/>
    <g id="ytick_3"/>
   </g>
   <g id="line2d_1">
    <path d="M 28.840909 20.983325 
L 29.545455 14.119667 
L 30.25 16.633682 
L 30.954545 11.326318 
L 31.659091 20.524418 
L 32.363636 20.983325 
L 33.068182 25.771924 
L 33.772727 25.951496 
L 34.477273 23.676912 
L 35.181818 25.293064 
L 35.886364 18.948171 
L 38 28.026556 
L 38.704545 28.984276 
L 40.113636 28.445558 
L 40.818182 28.545321 
L 41.522727 28.305891 
L 42.227273 28.485463 
L 42.931818 30.78 
L 43.636364 29.163848 
L 44.340909 29.941995 
L 45.75 28.585226 
L 46.454545 26.689739 
L 47.159091 22.559572 
L 47.863636 21.482138 
L 49.272727 18.329644 
L 49.977273 21.50209 
L 50.681818 23.218005 
L 51.386364 21.50209 
L 52.090909 21.721568 
L 52.795455 20.085463 
L 53.5 21.541995 
L 54.204545 21.282613 
L 54.909091 19.247458 
L 56.318182 10.548171 
L 57.022727 10.488314 
L 57.727273 12.86266 
L 58.431818 21.142945 
L 59.136364 21.50209 
L 59.840909 26.250784 
L 60.545455 23.158147 
L 61.25 24.554822 
L 61.954545 25.372874 
L 63.363636 28.106366 
L 64.068182 29.463135 
L 64.772727 28.485463 
L 65.477273 28.026556 
L 66.886364 29.702565 
L 67.590909 29.10399 
L 68.295455 27.667411 
L 69 26.689739 
L 69.704545 21.043183 
L 71.113636 12.822755 
L 71.818182 5.58 
L 72.522727 7.056485 
L 73.227273 11.326318 
L 73.931818 10.827506 
L 74.636364 13.940095 
L 75.340909 10.548171 
L 76.045455 12.224181 
L 76.75 10.408504 
L 78.159091 12.164323 
L 78.863636 13.920143 
L 79.568182 12.164323 
L 80.272727 18.509216 
L 80.977273 12.244133 
L 81.681818 9.849834 
L 82.386364 13.062185 
L 83.090909 18.628931 
L 83.795455 18.828456 
L 84.5 21.02323 
L 85.204545 20.185226 
L 85.909091 23.65696 
L 86.613636 25.871686 
L 87.318182 27.288314 
L 88.022727 29.882138 
L 88.727273 28.684988 
L 89.431818 29.642708 
L 90.136364 29.602803 
L 90.840909 29.403278 
L 91.545455 28.246033 
L 92.25 29.163848 
L 92.954545 29.403278 
L 93.659091 29.163848 
L 94.363636 27.966698 
L 95.068182 28.824656 
L 95.772727 28.704941 
L 96.477273 27.647458 
L 97.181818 27.647458 
L 97.886364 27.427981 
L 98.590909 27.348171 
L 99.295455 27.846983 
L 100 26.091164 
L 100.704545 21.522043 
L 101.409091 22.739145 
L 102.818182 13.780475 
L 103.522727 17.611354 
L 104.227273 12.583325 
L 104.931818 15.01753 
L 105.636364 13.800428 
L 106.340909 14.85791 
L 107.045455 13.66076 
L 107.75 18.429406 
L 108.454545 16.274537 
L 109.159091 18.170024 
L 109.863636 16.952922 
L 110.568182 17.770974 
L 111.272727 14.718242 
L 111.977273 16.274537 
L 112.681818 13.58095 
L 113.386364 16.474062 
L 114.090909 13.082138 
L 114.795455 11.525843 
L 115.5 15.536295 
L 116.204545 10.767648 
L 116.909091 18.968124 
L 117.613636 16.773349 
L 118.318182 19.207553 
L 119.022727 19.905891 
L 119.727273 20.903515 
L 120.431818 18.289739 
L 121.136364 22.30019 
L 121.840909 21.98095 
L 122.545455 22.14057 
L 123.25 18.189976 
L 123.954545 15.356722 
L 124.659091 13.560998 
L 125.363636 18.788551 
L 126.068182 12.882613 
L 127.477273 16.773349 
L 128.181818 15.49639 
L 128.886364 18.569074 
L 129.590909 23.836532 
L 130.295455 21.781425 
L 131.704545 16.254584 
L 132.409091 17.950546 
L 133.113636 18.569074 
L 133.818182 13.141995 
L 134.522727 19.905891 
L 135.227273 17.371924 
L 135.931818 16.254584 
L 136.636364 16.952922 
L 137.340909 14.997577 
L 138.045455 16.434157 
L 138.75 16.354347 
L 139.454545 18.688789 
L 140.159091 18.589026 
L 140.863636 17.451734 
L 141.568182 13.920143 
L 142.272727 9.111591 
L 142.977273 14.05981 
L 143.681818 9.809929 
L 144.386364 7.216105 
L 145.090909 8.532969 
L 145.795455 10.887363 
L 146.5 9.351021 
L 147.204545 11.306366 
L 147.909091 11.944846 
L 148.613636 13.640808 
L 149.318182 12.064561 
L 150.022727 10.887363 
L 150.727273 8.971924 
L 151.431818 11.086888 
L 152.136364 8.812304 
L 152.840909 10.627981 
L 153.545455 14.93772 
L 154.25 12.62323 
L 154.954545 14.53867 
L 155.659091 15.157197 
L 155.659091 15.157197 
" clip-path="url(#pcec5dcfb07)" style="fill: none; stroke: #1f77b4; stroke-width: 2; stroke-linecap: square"/>
   </g>
   <g id="patch_3">
    <path d="M 22.5 32.04 
L 22.5 4.32 
" style="fill: none; stroke: #000000; stroke-width: 0.8; stroke-linejoin: miter; stroke-linecap: square"/>
   </g>
   <g id="patch_4">
    <path d="M 162 32.04 
L 162 4.32 
" style="fill: none; stroke: #000000; stroke-width: 0.8; stroke-linejoin: miter; stroke-linecap: square"/>
   </g>
   <g id="patch_5">
    <path d="M 22.5 32.04 
L 162 32.04 
" style="fill: none; stroke: #000000; stroke-width: 0.8; stroke-linejoin: miter; stroke-linecap: square"/>
   </g>
   <g id="patch_6">
    <path d="M 22.5 4.32 
L 162 4.32 
" style="fill: none; stroke: #000000; stroke-width: 0.8; stroke-linejoin: miter; stroke-linecap: square"/>
   </g>
  </g>
 </g>
 <defs>
  <clipPath id="pcec5dcfb07">
   <rect x="22.5" y="4.32" width="139.5" height="27.72"/>
  </clipPath>
 </defs>
</svg>
