<?xml version="1.0" encoding="utf-8" standalone="no"?>
<!DOCTYPE svg PUBLIC "-//W3C//DTD SVG 1.1//EN"
  "http://www.w3.org/Graphics/SVG/1.1/DTD/svg11.dtd">
<svg xmlns:xlink="http://www.w3.org/1999/xlink" width="180pt" height="36pt" viewBox="0 0 180 36" xmlns="http://www.w3.org/2000/svg" version="1.1">
 <metadata>
  <rdf:RDF xmlns:dc="http://purl.org/dc/elements/1.1/" xmlns:cc="http://creativecommons.org/ns#" xmlns:rdf="http://www.w3.org/1999/02/22-rdf-syntax-ns#">
   <cc:Work>
    <dc:type rdf:resource="http://purl.org/dc/dcmitype/StillImage"/>
    <dc:date>2024-11-15T20:09:22.722219</dc:date>
    <dc:format>image/svg+xml</dc:format>
    <dc:creator>
     <cc:Agent>
      <dc:title>Matplotlib v3.9.1, https://matplotlib.org/</dc:title>
     </cc:Agent>
    </dc:creator>
   </cc:Work>
  </rdf:RDF>
 </metadata>
 <defs>
  <style type="text/css">*{stroke-linejoin: round; stroke-linecap: butt}</style>
 </defs>
 <g id="figure_1">
  <g id="patch_1">
   <path d="M 0 36 
L 180 36 
L 180 0 
L 0 0 
L 0 36 
z
" style="fill: none"/>
  </g>
  <g id="axes_1">
   <g id="patch_2">
    <path d="M 22.5 32.04 
L 162 32.04 
L 162 4.32 
L 22.5 4.32 
L 22.5 32.04 
z
" style="fill: none"/>
   </g>
   <g id="matplotlib.axis_1">
    <g id="xtick_1"/>
    <g id="xtick_2"/>
    <g id="xtick_3"/>
    <g id="xtick_4"/>
   </g>
   <g id="matplotlib.axis_2">
    <g id="ytick_1"/>
    <g id="ytick_2"/>
   </g>
   <g id="line2d_1">
    <path d="M 28.840909 24.066245 
L 29.545455 17.321264 
L 30.25 13.855093 
L 30.954545 17.07145 
L 31.659091 18.13316 
L 32.363636 20.25658 
L 33.068182 21.068476 
L 34.477273 24.50342 
L 35.181818 29.312342 
L 35.886364 28.906394 
L 36.590909 30.467732 
L 37.295455 30.78 
L 38 28.000818 
L 38.704545 30.311599 
L 39.409091 21.568104 
L 40.113636 25.846171 
L 40.818182 25.315316 
L 41.522727 25.221636 
L 42.227273 19.475911 
L 42.931818 18.757695 
L 43.636364 15.791152 
L 44.340909 18.570335 
L 45.045455 18.945056 
L 45.75 15.822379 
L 46.454545 22.723494 
L 47.159091 22.504907 
L 47.863636 23.972565 
L 48.568182 24.659554 
L 49.272727 25.846171 
L 49.977273 24.003792 
L 50.681818 19.600818 
L 51.386364 21.380743 
L 52.090909 24.659554 
L 52.795455 23.004535 
L 53.5 25.56513 
L 54.204545 23.34803 
L 54.909091 20.100446 
L 55.613636 18.664015 
L 56.318182 13.01197 
L 57.022727 14.979257 
L 57.727273 14.729442 
L 59.136364 11.544312 
L 59.840909 11.169591 
L 60.545455 13.542825 
L 61.25 13.948773 
L 61.954545 11.169591 
L 62.659091 17.102677 
L 63.363636 14.323494 
L 64.068182 18.757695 
L 64.772727 19.413457 
L 65.477273 21.974052 
L 66.181818 23.129442 
L 66.886364 20.693755 
L 67.590909 21.099703 
L 68.295455 18.351747 
L 69 21.287063 
L 69.704545 21.849145 
L 70.409091 26.127212 
L 71.113636 22.848401 
L 71.818182 25.284089 
L 72.522727 23.910112 
L 73.227273 18.632788 
L 73.931818 23.285576 
L 74.636364 20.724981 
L 75.340909 22.192639 
L 76.75 20.131673 
L 77.454545 16.97777 
L 78.159091 17.633532 
L 78.863636 17.414944 
L 79.568182 18.570335 
L 80.272727 20.35026 
L 80.977273 19.694498 
L 81.681818 17.16513 
L 82.386364 15.978513 
L 83.090909 21.568104 
L 83.795455 21.599331 
L 84.5 20.662528 
L 85.204545 17.727212 
L 85.909091 22.411227 
L 86.613636 18.820149 
L 87.318182 19.351004 
L 88.022727 17.25881 
L 88.727273 14.167361 
L 89.431818 13.355465 
L 90.136364 18.195613 
L 91.545455 17.695985 
L 92.25 16.852862 
L 92.954545 20.756208 
L 93.659091 22.067732 
L 94.363636 17.571078 
L 95.068182 16.446914 
L 95.772727 18.445428 
L 96.477273 15.884833 
L 97.181818 21.755465 
L 97.886364 20.756208 
L 98.590909 21.099703 
L 99.295455 23.410483 
L 100 20.131673 
L 100.704545 21.255836 
L 101.409091 18.788922 
L 102.113636 18.03948 
L 102.818182 19.600818 
L 103.522727 18.539108 
L 104.227273 20.506394 
L 104.931818 24.50342 
L 106.340909 19.538364 
L 107.045455 19.319777 
L 107.75 18.13316 
L 108.454545 22.785948 
L 109.159091 19.351004 
L 109.863636 19.913086 
L 110.568182 21.22461 
L 111.272727 20.131673 
L 111.977273 19.913086 
L 112.681818 19.038736 
L 113.386364 13.230558 
L 114.090909 16.571822 
L 114.795455 19.038736 
L 115.5 20.381487 
L 116.204545 23.129442 
L 116.909091 24.347286 
L 117.613636 19.007509 
L 118.318182 19.600818 
L 119.022727 18.008253 
L 119.727273 18.913829 
L 120.431818 21.755465 
L 121.136364 18.070706 
L 121.840909 16.134647 
L 122.545455 16.072193 
L 123.25 13.293011 
L 123.954545 16.727955 
L 124.659091 14.354721 
L 125.363636 18.414201 
L 126.068182 15.916059 
L 126.772727 14.229814 
L 127.477273 13.01197 
L 128.181818 13.043197 
L 128.886364 15.572565 
L 129.590909 12.637249 
L 130.295455 18.820149 
L 131 21.817918 
L 131.704545 20.912342 
L 132.409091 15.010483 
L 133.113636 12.043941 
L 133.818182 14.916803 
L 134.522727 13.386691 
L 135.227273 9.452119 
L 135.931818 10.482602 
L 136.636364 13.98 
L 137.340909 11.044684 
L 138.045455 16.228327 
L 138.75 15.229071 
L 139.454545 13.698959 
L 140.159091 16.915316 
L 140.863636 15.322751 
L 142.272727 13.417918 
L 142.977273 10.826097 
L 143.681818 14.448401 
L 144.386364 10.576283 
L 145.795455 14.635762 
L 146.5 13.98 
L 147.909091 9.077398 
L 148.613636 5.58 
L 150.022727 8.452862 
L 150.727273 9.046171 
L 151.431818 8.421636 
L 152.136364 8.890037 
L 152.840909 12.637249 
L 153.545455 21.630558 
L 154.25 18.289294 
L 154.954545 16.696729 
L 155.659091 16.415688 
L 155.659091 16.415688 
" clip-path="url(#pfe9cc7045a)" style="fill: none; stroke: #1f77b4; stroke-width: 2; stroke-linecap: square"/>
   </g>
   <g id="patch_3">
    <path d="M 22.5 32.04 
L 22.5 4.32 
" style="fill: none; stroke: #000000; stroke-width: 0.8; stroke-linejoin: miter; stroke-linecap: square"/>
   </g>
   <g id="patch_4">
    <path d="M 162 32.04 
L 162 4.32 
" style="fill: none; stroke: #000000; stroke-width: 0.8; stroke-linejoin: miter; stroke-linecap: square"/>
   </g>
   <g id="patch_5">
    <path d="M 22.5 32.04 
L 162 32.04 
" style="fill: none; stroke: #000000; stroke-width: 0.8; stroke-linejoin: miter; stroke-linecap: square"/>
   </g>
   <g id="patch_6">
    <path d="M 22.5 4.32 
L 162 4.32 
" style="fill: none; stroke: #000000; stroke-width: 0.8; stroke-linejoin: miter; stroke-linecap: square"/>
   </g>
  </g>
 </g>
 <defs>
  <clipPath id="pfe9cc7045a">
   <rect x="22.5" y="4.32" width="139.5" height="27.72"/>
  </clipPath>
 </defs>
</svg>
