<?xml version="1.0" encoding="utf-8" standalone="no"?>
<!DOCTYPE svg PUBLIC "-//W3C//DTD SVG 1.1//EN"
  "http://www.w3.org/Graphics/SVG/1.1/DTD/svg11.dtd">
<svg xmlns:xlink="http://www.w3.org/1999/xlink" width="180pt" height="36pt" viewBox="0 0 180 36" xmlns="http://www.w3.org/2000/svg" version="1.1">
 <metadata>
  <rdf:RDF xmlns:dc="http://purl.org/dc/elements/1.1/" xmlns:cc="http://creativecommons.org/ns#" xmlns:rdf="http://www.w3.org/1999/02/22-rdf-syntax-ns#">
   <cc:Work>
    <dc:type rdf:resource="http://purl.org/dc/dcmitype/StillImage"/>
    <dc:date>2024-11-15T20:09:22.537145</dc:date>
    <dc:format>image/svg+xml</dc:format>
    <dc:creator>
     <cc:Agent>
      <dc:title>Matplotlib v3.9.1, https://matplotlib.org/</dc:title>
     </cc:Agent>
    </dc:creator>
   </cc:Work>
  </rdf:RDF>
 </metadata>
 <defs>
  <style type="text/css">*{stroke-linejoin: round; stroke-linecap: butt}</style>
 </defs>
 <g id="figure_1">
  <g id="patch_1">
   <path d="M 0 36 
L 180 36 
L 180 0 
L 0 0 
L 0 36 
z
" style="fill: none"/>
  </g>
  <g id="axes_1">
   <g id="patch_2">
    <path d="M 22.5 32.04 
L 162 32.04 
L 162 4.32 
L 22.5 4.32 
L 22.5 32.04 
z
" style="fill: none"/>
   </g>
   <g id="matplotlib.axis_1">
    <g id="xtick_1"/>
    <g id="xtick_2"/>
    <g id="xtick_3"/>
    <g id="xtick_4"/>
   </g>
   <g id="matplotlib.axis_2">
    <g id="ytick_1"/>
    <g id="ytick_2"/>
   </g>
   <g id="line2d_1">
    <path d="M 28.840909 17.936867 
L 29.545455 21.140499 
L 30.25 13.188627 
L 30.954545 13.560477 
L 31.659091 22.427673 
L 32.363636 22.742316 
L 33.068182 18.823587 
L 33.772727 17.393394 
L 34.477273 22.198842 
L 35.181818 15.476935 
L 35.886364 20.854461 
L 36.590909 23.543224 
L 37.295455 22.284654 
L 38 21.912804 
L 38.704545 26.689648 
L 39.409091 29.378411 
L 40.113636 28.720522 
L 40.818182 26.918479 
L 41.522727 26.947083 
L 42.227273 23.228581 
L 42.931818 22.942543 
L 43.636364 28.119841 
L 44.340909 27.833802 
L 45.045455 26.203383 
L 45.75 16.964336 
L 46.454545 20.825857 
L 47.159091 17.650829 
L 47.863636 11.300772 
L 49.272727 14.876254 
L 49.977273 20.139364 
L 51.386364 23.743451 
L 52.090909 26.63244 
L 52.795455 26.060363 
L 53.5 23.88647 
L 54.204545 20.825857 
L 55.613636 22.513485 
L 56.318182 22.370465 
L 57.022727 26.460817 
L 58.431818 20.940272 
L 59.136364 20.454007 
L 59.840909 14.676027 
L 60.545455 16.449467 
L 61.25 12.530738 
L 61.954545 16.849921 
L 62.659091 16.47807 
L 63.363636 5.58 
L 64.068182 18.079886 
L 64.772727 18.051283 
L 65.477273 13.560477 
L 66.181818 19.338456 
L 66.886364 26.432213 
L 67.590909 25.059228 
L 68.295455 19.481476 
L 69 23.056958 
L 69.704545 23.285789 
L 70.409091 24.229716 
L 71.113636 27.404745 
L 72.522727 21.598161 
L 73.227273 21.483746 
L 73.931818 23.056958 
L 75.340909 26.947083 
L 76.045455 27.14731 
L 76.75 26.375006 
L 77.454545 24.973417 
L 78.159091 21.083292 
L 78.863636 22.971146 
L 79.568182 22.542089 
L 80.272727 22.484881 
L 80.977273 24.029489 
L 81.681818 24.687378 
L 82.386364 20.368195 
L 83.090909 20.082157 
L 83.795455 18.308717 
L 84.5 11.987264 
L 85.204545 16.563882 
L 85.909091 17.908263 
L 86.613636 20.368195 
L 87.318182 22.341862 
L 88.022727 21.74118 
L 88.727273 21.798388 
L 89.431818 17.879659 
L 90.136364 27.690783 
L 90.840909 23.772054 
L 91.545455 15.591351 
L 92.25 19.195437 
L 92.954545 16.935732 
L 93.659091 17.050148 
L 94.363636 16.964336 
L 95.068182 15.820182 
L 95.772727 15.848785 
L 96.477273 15.248104 
L 97.181818 12.273303 
L 97.886364 11.844245 
L 98.590909 17.879659 
L 99.295455 14.761839 
L 100 14.704631 
L 100.704545 11.958661 
L 101.409091 17.622225 
L 102.113636 11.930057 
L 102.818182 17.078751 
L 103.522727 7.58227 
L 104.931818 14.361385 
L 105.636364 20.482611 
L 106.340909 22.399069 
L 107.045455 23.543224 
L 107.75 23.428808 
L 108.454545 24.801793 
L 109.863636 16.649694 
L 110.568182 23.600431 
L 111.272727 21.74118 
L 111.977273 21.51235 
L 112.681818 23.857866 
L 114.090909 20.339591 
L 114.795455 22.113031 
L 115.5 19.309852 
L 116.204545 20.25378 
L 116.909091 23.457412 
L 117.613636 21.683973 
L 118.318182 27.318933 
L 119.022727 25.602701 
L 119.727273 29.235392 
L 120.431818 27.976822 
L 121.136364 30.78 
L 121.840909 28.463087 
L 122.545455 29.092372 
L 123.25 27.919614 
L 123.954545 27.490556 
L 124.659091 30.694188 
L 125.363636 29.263995 
L 126.068182 25.230851 
L 126.772727 23.657639 
L 127.477273 22.456277 
L 128.181818 26.088967 
L 128.886364 23.171373 
L 129.590909 26.63244 
L 130.295455 22.99975 
L 131 15.448331 
L 131.704545 12.359115 
L 132.409091 17.708036 
L 133.113636 17.336186 
L 133.818182 17.536413 
L 134.522727 18.566152 
L 135.227273 20.454007 
L 135.931818 19.88193 
L 136.636364 14.904858 
L 137.340909 19.023814 
L 138.045455 19.281249 
L 138.75 15.248104 
L 139.454545 18.423133 
L 140.159091 20.854461 
L 140.863636 21.111896 
L 141.568182 20.539818 
L 142.272727 24.172509 
L 142.977273 20.539818 
L 143.681818 23.342997 
L 144.386364 21.397934 
L 145.090909 18.909398 
L 145.795455 19.023814 
L 146.5 16.10622 
L 147.204545 19.195437 
L 147.909091 15.391124 
L 148.613636 16.24924 
L 149.318182 20.539818 
L 150.022727 19.73891 
L 150.727273 17.908263 
L 151.431818 18.766379 
L 152.136364 20.11076 
L 152.840909 22.25605 
L 153.545455 20.968876 
L 154.25 21.626765 
L 154.954545 22.770919 
L 155.659091 23.028354 
L 155.659091 23.028354 
" clip-path="url(#pd9bf802b0a)" style="fill: none; stroke: #1f77b4; stroke-width: 2; stroke-linecap: square"/>
   </g>
   <g id="patch_3">
    <path d="M 22.5 32.04 
L 22.5 4.32 
" style="fill: none; stroke: #000000; stroke-width: 0.8; stroke-linejoin: miter; stroke-linecap: square"/>
   </g>
   <g id="patch_4">
    <path d="M 162 32.04 
L 162 4.32 
" style="fill: none; stroke: #000000; stroke-width: 0.8; stroke-linejoin: miter; stroke-linecap: square"/>
   </g>
   <g id="patch_5">
    <path d="M 22.5 32.04 
L 162 32.04 
" style="fill: none; stroke: #000000; stroke-width: 0.8; stroke-linejoin: miter; stroke-linecap: square"/>
   </g>
   <g id="patch_6">
    <path d="M 22.5 4.32 
L 162 4.32 
" style="fill: none; stroke: #000000; stroke-width: 0.8; stroke-linejoin: miter; stroke-linecap: square"/>
   </g>
  </g>
 </g>
 <defs>
  <clipPath id="pd9bf802b0a">
   <rect x="22.5" y="4.32" width="139.5" height="27.72"/>
  </clipPath>
 </defs>
</svg>
