<?xml version="1.0" encoding="utf-8" standalone="no"?>
<!DOCTYPE svg PUBLIC "-//W3C//DTD SVG 1.1//EN"
  "http://www.w3.org/Graphics/SVG/1.1/DTD/svg11.dtd">
<svg xmlns:xlink="http://www.w3.org/1999/xlink" width="180pt" height="36pt" viewBox="0 0 180 36" xmlns="http://www.w3.org/2000/svg" version="1.1">
 <metadata>
  <rdf:RDF xmlns:dc="http://purl.org/dc/elements/1.1/" xmlns:cc="http://creativecommons.org/ns#" xmlns:rdf="http://www.w3.org/1999/02/22-rdf-syntax-ns#">
   <cc:Work>
    <dc:type rdf:resource="http://purl.org/dc/dcmitype/StillImage"/>
    <dc:date>2024-11-15T20:09:21.837093</dc:date>
    <dc:format>image/svg+xml</dc:format>
    <dc:creator>
     <cc:Agent>
      <dc:title>Matplotlib v3.9.1, https://matplotlib.org/</dc:title>
     </cc:Agent>
    </dc:creator>
   </cc:Work>
  </rdf:RDF>
 </metadata>
 <defs>
  <style type="text/css">*{stroke-linejoin: round; stroke-linecap: butt}</style>
 </defs>
 <g id="figure_1">
  <g id="patch_1">
   <path d="M 0 36 
L 180 36 
L 180 0 
L 0 0 
L 0 36 
z
" style="fill: none"/>
  </g>
  <g id="axes_1">
   <g id="patch_2">
    <path d="M 22.5 32.04 
L 162 32.04 
L 162 4.32 
L 22.5 4.32 
L 22.5 32.04 
z
" style="fill: none"/>
   </g>
   <g id="matplotlib.axis_1">
    <g id="xtick_1"/>
    <g id="xtick_2"/>
    <g id="xtick_3"/>
    <g id="xtick_4"/>
   </g>
   <g id="matplotlib.axis_2">
    <g id="ytick_1"/>
    <g id="ytick_2"/>
    <g id="ytick_3"/>
   </g>
   <g id="line2d_1">
    <path d="M 28.840909 29.67375 
L 29.545455 29.4675 
L 30.25 29.805 
L 30.954545 30.34875 
L 31.659091 29.43 
L 33.068182 30.78 
L 33.772727 29.44875 
L 34.477273 29.59875 
L 35.181818 28.53 
L 35.886364 29.29875 
L 36.590909 28.38 
L 37.295455 26.29875 
L 38 29.29875 
L 38.704545 29.955 
L 39.409091 29.44875 
L 40.113636 28.38 
L 40.818182 27.01125 
L 41.522727 26.0925 
L 42.227273 23.29875 
L 42.931818 23.28 
L 43.636364 22.9425 
L 44.340909 19.7925 
L 45.045455 19.62375 
L 45.75 21.6675 
L 46.454545 20.89875 
L 47.159091 21.91125 
L 47.863636 19.96125 
L 48.568182 22.17375 
L 49.272727 23.26125 
L 49.977273 20.44875 
L 50.681818 20.3925 
L 51.386364 20.63625 
L 52.795455 19.99875 
L 53.5 17.93625 
L 54.204545 14.43 
L 54.909091 12.49875 
L 55.613636 11.28 
L 56.318182 12.2925 
L 57.022727 14.3175 
L 57.727273 20.6175 
L 58.431818 22.3425 
L 59.136364 21.42375 
L 59.840909 21.105 
L 60.545455 21.4425 
L 61.25 21.38625 
L 61.954545 24.1425 
L 62.659091 24.64875 
L 63.363636 23.5425 
L 64.772727 20.11125 
L 65.477273 20.355 
L 66.181818 18.705 
L 66.886364 17.74875 
L 67.590909 19.66125 
L 68.295455 15.68625 
L 69 18.7425 
L 69.704545 19.58625 
L 70.409091 14.1675 
L 71.113636 13.7925 
L 71.818182 17.4675 
L 72.522727 20.3175 
L 73.227273 20.86125 
L 73.931818 18.83625 
L 74.636364 13.47375 
L 75.340909 12.3675 
L 76.045455 12.49875 
L 76.75 9.78 
L 77.454545 5.58 
L 78.159091 12.38625 
L 78.863636 14.97375 
L 80.272727 17.2425 
L 80.977273 20.63625 
L 81.681818 19.4925 
L 82.386364 19.06125 
L 83.090909 17.22375 
L 83.795455 19.5675 
L 84.5 15.5925 
L 85.204545 23.3175 
L 85.909091 20.28 
L 86.613636 21.4425 
L 87.318182 24.2175 
L 88.022727 21.76125 
L 88.727273 21.83625 
L 89.431818 21.7425 
L 90.136364 20.28 
L 90.840909 21.2925 
L 91.545455 19.84875 
L 92.25 20.355 
L 92.954545 21.27375 
L 93.659091 21.63 
L 94.363636 20.59875 
L 95.068182 21.5175 
L 95.772727 19.8675 
L 96.477273 18.64875 
L 97.181818 18.555 
L 97.886364 20.67375 
L 98.590909 19.02375 
L 99.295455 19.83 
L 100 19.02375 
L 100.704545 22.38 
L 101.409091 23.205 
L 102.113636 22.77375 
L 102.818182 21.2175 
L 103.522727 25.81125 
L 104.227273 25.83 
L 105.636364 23.1675 
L 106.340909 23.3925 
L 107.045455 20.3925 
L 107.75 21.105 
L 108.454545 22.005 
L 109.159091 23.955 
L 109.863636 24.79875 
L 111.272727 21.3675 
L 111.977273 19.13625 
L 112.681818 10.73625 
L 113.386364 12.68625 
L 114.090909 19.36125 
L 115.5 18.555 
L 116.204545 20.74875 
L 116.909091 19.69875 
L 117.613636 16.13625 
L 118.318182 14.655 
L 119.022727 10.38 
L 119.727273 10.66125 
L 120.431818 11.52375 
L 121.136364 14.63625 
L 122.545455 14.29875 
L 123.25 15.2175 
L 123.954545 15.42375 
L 124.659091 16.7175 
L 125.363636 20.48625 
L 126.068182 22.36125 
L 126.772727 22.17375 
L 127.477273 22.77375 
L 128.181818 22.81125 
L 128.886364 24.53625 
L 129.590909 25.08 
L 130.295455 25.32375 
L 131 23.18625 
L 131.704545 24.31125 
L 132.409091 24.63 
L 133.113636 24.6675 
L 133.818182 22.4925 
L 134.522727 22.36125 
L 135.227273 18.57375 
L 135.931818 20.205 
L 136.636364 20.29875 
L 137.340909 20.505 
L 138.045455 21.61125 
L 138.75 21.16125 
L 139.454545 24.405 
L 140.159091 24.79875 
L 141.568182 20.28 
L 142.272727 22.755 
L 142.977273 22.32375 
L 143.681818 20.3175 
L 145.090909 21.48 
L 145.795455 21.12375 
L 146.5 23.86125 
L 147.204545 24.27375 
L 147.909091 25.38 
L 148.613636 25.32375 
L 149.318182 23.74875 
L 150.727273 24.555 
L 151.431818 25.84875 
L 152.136364 26.055 
L 152.840909 27.105 
L 153.545455 24.2925 
L 154.25 26.18625 
L 154.954545 22.43625 
L 155.659091 22.23 
L 155.659091 22.23 
" clip-path="url(#p1fe6439030)" style="fill: none; stroke: #1f77b4; stroke-width: 2; stroke-linecap: square"/>
   </g>
   <g id="patch_3">
    <path d="M 22.5 32.04 
L 22.5 4.32 
" style="fill: none; stroke: #000000; stroke-width: 0.8; stroke-linejoin: miter; stroke-linecap: square"/>
   </g>
   <g id="patch_4">
    <path d="M 162 32.04 
L 162 4.32 
" style="fill: none; stroke: #000000; stroke-width: 0.8; stroke-linejoin: miter; stroke-linecap: square"/>
   </g>
   <g id="patch_5">
    <path d="M 22.5 32.04 
L 162 32.04 
" style="fill: none; stroke: #000000; stroke-width: 0.8; stroke-linejoin: miter; stroke-linecap: square"/>
   </g>
   <g id="patch_6">
    <path d="M 22.5 4.32 
L 162 4.32 
" style="fill: none; stroke: #000000; stroke-width: 0.8; stroke-linejoin: miter; stroke-linecap: square"/>
   </g>
  </g>
 </g>
 <defs>
  <clipPath id="p1fe6439030">
   <rect x="22.5" y="4.32" width="139.5" height="27.72"/>
  </clipPath>
 </defs>
</svg>
