<?xml version="1.0" encoding="utf-8" standalone="no"?>
<!DOCTYPE svg PUBLIC "-//W3C//DTD SVG 1.1//EN"
  "http://www.w3.org/Graphics/SVG/1.1/DTD/svg11.dtd">
<svg xmlns:xlink="http://www.w3.org/1999/xlink" width="144pt" height="72pt" viewBox="0 0 144 72" xmlns="http://www.w3.org/2000/svg" version="1.1">
 <metadata>
  <rdf:RDF xmlns:dc="http://purl.org/dc/elements/1.1/" xmlns:cc="http://creativecommons.org/ns#" xmlns:rdf="http://www.w3.org/1999/02/22-rdf-syntax-ns#">
   <cc:Work>
    <dc:type rdf:resource="http://purl.org/dc/dcmitype/StillImage"/>
    <dc:date>2024-11-13T11:26:59.819357</dc:date>
    <dc:format>image/svg+xml</dc:format>
    <dc:creator>
     <cc:Agent>
      <dc:title>Matplotlib v3.9.1, https://matplotlib.org/</dc:title>
     </cc:Agent>
    </dc:creator>
   </cc:Work>
  </rdf:RDF>
 </metadata>
 <defs>
  <style type="text/css">*{stroke-linejoin: round; stroke-linecap: butt}</style>
 </defs>
 <g id="figure_1">
  <g id="patch_1">
   <path d="M 0 72 
L 144 72 
L 144 0 
L 0 0 
z
" style="fill: #ffffff"/>
  </g>
  <g id="axes_1">
   <g id="patch_2">
    <path d="M 18 64.08 
L 129.6 64.08 
L 129.6 8.64 
L 18 8.64 
z
" style="fill: #ffffff"/>
   </g>
   <g id="matplotlib.axis_1">
    <g id="xtick_1">
     <g id="line2d_1">
      <defs>
       <path id="mbbe40000ed" d="M 0 0 
L 0 3.5 
" style="stroke: #000000; stroke-width: 0.8"/>
      </defs>
      <g>
       <use xlink:href="#mbbe40000ed" x="23.072727" y="64.08" style="stroke: #000000; stroke-width: 0.8"/>
      </g>
     </g>
     <g id="text_1">
      <text style="font: 8px 'DejaVu Sans', 'Bitstream Vera Sans', 'Computer Modern Sans Serif', 'Lucida Grande', 'Verdana', 'Geneva', 'Lucid', 'Arial', 'Helvetica', 'Avant Garde', sans-serif; text-anchor: middle" x="23.072727" y="77.15875" transform="rotate(-0 23.072727 77.15875)">0</text>
     </g>
    </g>
    <g id="xtick_2">
     <g id="line2d_2">
      <g>
       <use xlink:href="#mbbe40000ed" x="35.247273" y="64.08" style="stroke: #000000; stroke-width: 0.8"/>
      </g>
     </g>
     <g id="text_2">
      <text style="font: 8px 'DejaVu Sans', 'Bitstream Vera Sans', 'Computer Modern Sans Serif', 'Lucida Grande', 'Verdana', 'Geneva', 'Lucid', 'Arial', 'Helvetica', 'Avant Garde', sans-serif; text-anchor: middle" x="35.247273" y="77.15875" transform="rotate(-0 35.247273 77.15875)">1</text>
     </g>
    </g>
    <g id="xtick_3">
     <g id="line2d_3">
      <g>
       <use xlink:href="#mbbe40000ed" x="47.421818" y="64.08" style="stroke: #000000; stroke-width: 0.8"/>
      </g>
     </g>
     <g id="text_3">
      <text style="font: 8px 'DejaVu Sans', 'Bitstream Vera Sans', 'Computer Modern Sans Serif', 'Lucida Grande', 'Verdana', 'Geneva', 'Lucid', 'Arial', 'Helvetica', 'Avant Garde', sans-serif; text-anchor: middle" x="47.421818" y="77.15875" transform="rotate(-0 47.421818 77.15875)">2</text>
     </g>
    </g>
    <g id="xtick_4">
     <g id="line2d_4">
      <g>
       <use xlink:href="#mbbe40000ed" x="59.596364" y="64.08" style="stroke: #000000; stroke-width: 0.8"/>
      </g>
     </g>
     <g id="text_4">
      <text style="font: 8px 'DejaVu Sans', 'Bitstream Vera Sans', 'Computer Modern Sans Serif', 'Lucida Grande', 'Verdana', 'Geneva', 'Lucid', 'Arial', 'Helvetica', 'Avant Garde', sans-serif; text-anchor: middle" x="59.596364" y="77.15875" transform="rotate(-0 59.596364 77.15875)">3</text>
     </g>
    </g>
    <g id="xtick_5">
     <g id="line2d_5">
      <g>
       <use xlink:href="#mbbe40000ed" x="71.770909" y="64.08" style="stroke: #000000; stroke-width: 0.8"/>
      </g>
     </g>
     <g id="text_5">
      <text style="font: 8px 'DejaVu Sans', 'Bitstream Vera Sans', 'Computer Modern Sans Serif', 'Lucida Grande', 'Verdana', 'Geneva', 'Lucid', 'Arial', 'Helvetica', 'Avant Garde', sans-serif; text-anchor: middle" x="71.770909" y="77.15875" transform="rotate(-0 71.770909 77.15875)">4</text>
     </g>
    </g>
    <g id="xtick_6">
     <g id="line2d_6">
      <g>
       <use xlink:href="#mbbe40000ed" x="83.945455" y="64.08" style="stroke: #000000; stroke-width: 0.8"/>
      </g>
     </g>
     <g id="text_6">
      <text style="font: 8px 'DejaVu Sans', 'Bitstream Vera Sans', 'Computer Modern Sans Serif', 'Lucida Grande', 'Verdana', 'Geneva', 'Lucid', 'Arial', 'Helvetica', 'Avant Garde', sans-serif; text-anchor: middle" x="83.945455" y="77.15875" transform="rotate(-0 83.945455 77.15875)">5</text>
     </g>
    </g>
    <g id="xtick_7">
     <g id="line2d_7">
      <g>
       <use xlink:href="#mbbe40000ed" x="96.12" y="64.08" style="stroke: #000000; stroke-width: 0.8"/>
      </g>
     </g>
     <g id="text_7">
      <text style="font: 8px 'DejaVu Sans', 'Bitstream Vera Sans', 'Computer Modern Sans Serif', 'Lucida Grande', 'Verdana', 'Geneva', 'Lucid', 'Arial', 'Helvetica', 'Avant Garde', sans-serif; text-anchor: middle" x="96.12" y="77.15875" transform="rotate(-0 96.12 77.15875)">6</text>
     </g>
    </g>
    <g id="xtick_8">
     <g id="line2d_8">
      <g>
       <use xlink:href="#mbbe40000ed" x="108.294545" y="64.08" style="stroke: #000000; stroke-width: 0.8"/>
      </g>
     </g>
     <g id="text_8">
      <text style="font: 8px 'DejaVu Sans', 'Bitstream Vera Sans', 'Computer Modern Sans Serif', 'Lucida Grande', 'Verdana', 'Geneva', 'Lucid', 'Arial', 'Helvetica', 'Avant Garde', sans-serif; text-anchor: middle" x="108.294545" y="77.15875" transform="rotate(-0 108.294545 77.15875)">7</text>
     </g>
    </g>
    <g id="text_9">
     <text style="font: 8px 'DejaVu Sans', 'Bitstream Vera Sans', 'Computer Modern Sans Serif', 'Lucida Grande', 'Verdana', 'Geneva', 'Lucid', 'Arial', 'Helvetica', 'Avant Garde', sans-serif; text-anchor: middle" x="73.8" y="88.90125" transform="rotate(-0 73.8 88.90125)">Lag (minutes)</text>
    </g>
   </g>
   <g id="matplotlib.axis_2">
    <g id="ytick_1">
     <g id="line2d_9">
      <defs>
       <path id="mb7e8961106" d="M 0 0 
L -3.5 0 
" style="stroke: #000000; stroke-width: 0.8"/>
      </defs>
      <g>
       <use xlink:href="#mb7e8961106" x="18" y="49.503145" style="stroke: #000000; stroke-width: 0.8"/>
      </g>
     </g>
     <g id="text_10">
      <text style="font: 8px 'DejaVu Sans', 'Bitstream Vera Sans', 'Computer Modern Sans Serif', 'Lucida Grande', 'Verdana', 'Geneva', 'Lucid', 'Arial', 'Helvetica', 'Avant Garde', sans-serif; text-anchor: end" x="11" y="52.54252" transform="rotate(-0 11 52.54252)">0.0</text>
     </g>
    </g>
    <g id="ytick_2">
     <g id="line2d_10">
      <g>
       <use xlink:href="#mb7e8961106" x="18" y="30.331573" style="stroke: #000000; stroke-width: 0.8"/>
      </g>
     </g>
     <g id="text_11">
      <text style="font: 8px 'DejaVu Sans', 'Bitstream Vera Sans', 'Computer Modern Sans Serif', 'Lucida Grande', 'Verdana', 'Geneva', 'Lucid', 'Arial', 'Helvetica', 'Avant Garde', sans-serif; text-anchor: end" x="11" y="33.370948" transform="rotate(-0 11 33.370948)">0.5</text>
     </g>
    </g>
    <g id="ytick_3">
     <g id="line2d_11">
      <g>
       <use xlink:href="#mb7e8961106" x="18" y="11.16" style="stroke: #000000; stroke-width: 0.8"/>
      </g>
     </g>
     <g id="text_12">
      <text style="font: 8px 'DejaVu Sans', 'Bitstream Vera Sans', 'Computer Modern Sans Serif', 'Lucida Grande', 'Verdana', 'Geneva', 'Lucid', 'Arial', 'Helvetica', 'Avant Garde', sans-serif; text-anchor: end" x="11" y="14.199375" transform="rotate(-0 11 14.199375)">1.0</text>
     </g>
    </g>
    <g id="text_13">
     <text style="font: 8px 'DejaVu Sans', 'Bitstream Vera Sans', 'Computer Modern Sans Serif', 'Lucida Grande', 'Verdana', 'Geneva', 'Lucid', 'Arial', 'Helvetica', 'Avant Garde', sans-serif; text-anchor: middle" x="-7.38625" y="36.36" transform="rotate(-90 -7.38625 36.36)">Autocorrelation</text>
    </g>
   </g>
   <g id="line2d_12">
    <path d="M 23.072727 11.16 
L 24.087273 14.693138 
L 25.101818 19.198589 
L 26.116364 24.637285 
L 27.130909 30.959459 
L 28.145455 36.445981 
L 29.16 40.673399 
L 30.174545 44.249266 
L 31.189091 46.161596 
L 32.203636 47.402693 
L 33.218182 48.10965 
L 34.232727 48.702492 
L 35.247273 48.973395 
L 36.261818 49.083831 
L 37.276364 47.990187 
L 38.290909 46.425537 
L 39.305455 44.515472 
L 40.32 42.150345 
L 41.334545 39.346894 
L 42.349091 37.078722 
L 43.363636 35.538535 
L 44.378182 34.671133 
L 45.392727 34.296843 
L 46.407273 34.451483 
L 47.421818 35.111612 
L 48.436364 35.893705 
L 49.450909 36.681248 
L 50.465455 37.7194 
L 51.48 39.431433 
L 52.494545 40.778077 
L 53.509091 42.345746 
L 54.523636 44.057552 
L 55.538182 45.604981 
L 56.552727 46.888821 
L 57.567273 47.841218 
L 58.581818 49.064925 
L 59.596364 49.77297 
L 60.610909 49.619148 
L 61.625455 49.73043 
L 62.64 49.067427 
L 63.654545 48.187776 
L 64.669091 47.221816 
L 65.683636 45.891306 
L 66.698182 44.684378 
L 67.712727 43.74597 
L 68.727273 42.654655 
L 69.741818 42.324193 
L 70.756364 42.531578 
L 71.770909 42.629756 
L 72.785455 43.058588 
L 73.8 44.337286 
L 74.814545 45.867443 
L 75.829091 47.888786 
L 76.843636 50.300536 
L 77.858182 52.510773 
L 78.872727 54.162922 
L 79.887273 55.324565 
L 80.901818 55.908169 
L 81.916364 56.030217 
L 82.930909 56.417763 
L 83.945455 56.492335 
L 84.96 56.487083 
L 85.974545 56.483828 
L 86.989091 55.84527 
L 88.003636 54.405731 
L 89.018182 52.88516 
L 90.032727 50.281039 
L 91.047273 47.677437 
L 92.061818 45.15515 
L 93.076364 43.690474 
L 94.090909 43.368572 
L 95.105455 43.889847 
L 96.12 45.198633 
L 97.134545 47.39553 
L 98.149091 50.000412 
L 99.163636 52.57117 
L 100.178182 54.743052 
L 101.192727 56.683135 
L 102.207273 58.053902 
L 103.221818 59.445483 
L 104.236364 60.559109 
L 105.250909 61.433646 
L 106.265455 61.56 
L 107.28 61.360635 
L 108.294545 60.404377 
L 109.309091 59.026619 
L 110.323636 57.281121 
L 111.338182 55.453793 
L 112.352727 54.09106 
L 113.367273 53.286922 
L 114.381818 53.127032 
L 115.396364 53.244966 
L 116.410909 53.512425 
L 117.425455 53.953299 
L 118.44 54.012035 
L 119.454545 53.553575 
L 120.469091 53.455531 
L 121.483636 53.119358 
L 122.498182 52.697996 
L 123.512727 52.525569 
L 124.527273 52.363803 
" clip-path="url(#p0659062fee)" style="fill: none; stroke: #2ca02c; stroke-width: 1.5; stroke-linecap: square"/>
   </g>
   <g id="patch_3">
    <path d="M 18 64.08 
L 18 8.64 
" style="fill: none; stroke: #000000; stroke-width: 0.8; stroke-linejoin: miter; stroke-linecap: square"/>
   </g>
   <g id="patch_4">
    <path d="M 129.6 64.08 
L 129.6 8.64 
" style="fill: none; stroke: #000000; stroke-width: 0.8; stroke-linejoin: miter; stroke-linecap: square"/>
   </g>
   <g id="patch_5">
    <path d="M 18 64.08 
L 129.6 64.08 
" style="fill: none; stroke: #000000; stroke-width: 0.8; stroke-linejoin: miter; stroke-linecap: square"/>
   </g>
   <g id="patch_6">
    <path d="M 18 8.64 
L 129.6 8.64 
" style="fill: none; stroke: #000000; stroke-width: 0.8; stroke-linejoin: miter; stroke-linecap: square"/>
   </g>
  </g>
 </g>
 <defs>
  <clipPath id="p0659062fee">
   <rect x="18" y="8.64" width="111.6" height="55.44"/>
  </clipPath>
 </defs>
</svg>
