<?xml version="1.0" encoding="utf-8" standalone="no"?>
<!DOCTYPE svg PUBLIC "-//W3C//DTD SVG 1.1//EN"
  "http://www.w3.org/Graphics/SVG/1.1/DTD/svg11.dtd">
<svg xmlns:xlink="http://www.w3.org/1999/xlink" width="144pt" height="72pt" viewBox="0 0 144 72" xmlns="http://www.w3.org/2000/svg" version="1.1">
 <metadata>
  <rdf:RDF xmlns:dc="http://purl.org/dc/elements/1.1/" xmlns:cc="http://creativecommons.org/ns#" xmlns:rdf="http://www.w3.org/1999/02/22-rdf-syntax-ns#">
   <cc:Work>
    <dc:type rdf:resource="http://purl.org/dc/dcmitype/StillImage"/>
    <dc:date>2024-11-14T13:39:12.139149</dc:date>
    <dc:format>image/svg+xml</dc:format>
    <dc:creator>
     <cc:Agent>
      <dc:title>Matplotlib v3.9.1, https://matplotlib.org/</dc:title>
     </cc:Agent>
    </dc:creator>
   </cc:Work>
  </rdf:RDF>
 </metadata>
 <defs>
  <style type="text/css">*{stroke-linejoin: round; stroke-linecap: butt}</style>
 </defs>
 <g id="figure_1">
  <g id="patch_1">
   <path d="M 0 72 
L 144 72 
L 144 0 
L 0 0 
z
" style="fill: #ffffff"/>
  </g>
  <g id="axes_1">
   <g id="patch_2">
    <path d="M 18 64.08 
L 129.6 64.08 
L 129.6 8.64 
L 18 8.64 
z
" style="fill: #ffffff"/>
   </g>
   <g id="matplotlib.axis_1">
    <g id="xtick_1">
     <g id="line2d_1">
      <defs>
       <path id="mc4663faad5" d="M 0 0 
L 0 3.5 
" style="stroke: #000000; stroke-width: 0.8"/>
      </defs>
      <g>
       <use xlink:href="#mc4663faad5" x="23.072727" y="64.08" style="stroke: #000000; stroke-width: 0.8"/>
      </g>
     </g>
     <g id="text_1">
      <text style="font: 8px 'DejaVu Sans', 'Bitstream Vera Sans', 'Computer Modern Sans Serif', 'Lucida Grande', 'Verdana', 'Geneva', 'Lucid', 'Arial', 'Helvetica', 'Avant Garde', sans-serif; text-anchor: middle" x="23.072727" y="77.15875" transform="rotate(-0 23.072727 77.15875)">0</text>
     </g>
    </g>
    <g id="xtick_2">
     <g id="line2d_2">
      <g>
       <use xlink:href="#mc4663faad5" x="36.6" y="64.08" style="stroke: #000000; stroke-width: 0.8"/>
      </g>
     </g>
     <g id="text_2">
      <text style="font: 8px 'DejaVu Sans', 'Bitstream Vera Sans', 'Computer Modern Sans Serif', 'Lucida Grande', 'Verdana', 'Geneva', 'Lucid', 'Arial', 'Helvetica', 'Avant Garde', sans-serif; text-anchor: middle" x="36.6" y="77.15875" transform="rotate(-0 36.6 77.15875)">1</text>
     </g>
    </g>
    <g id="xtick_3">
     <g id="line2d_3">
      <g>
       <use xlink:href="#mc4663faad5" x="50.127273" y="64.08" style="stroke: #000000; stroke-width: 0.8"/>
      </g>
     </g>
     <g id="text_3">
      <text style="font: 8px 'DejaVu Sans', 'Bitstream Vera Sans', 'Computer Modern Sans Serif', 'Lucida Grande', 'Verdana', 'Geneva', 'Lucid', 'Arial', 'Helvetica', 'Avant Garde', sans-serif; text-anchor: middle" x="50.127273" y="77.15875" transform="rotate(-0 50.127273 77.15875)">2</text>
     </g>
    </g>
    <g id="xtick_4">
     <g id="line2d_4">
      <g>
       <use xlink:href="#mc4663faad5" x="63.654545" y="64.08" style="stroke: #000000; stroke-width: 0.8"/>
      </g>
     </g>
     <g id="text_4">
      <text style="font: 8px 'DejaVu Sans', 'Bitstream Vera Sans', 'Computer Modern Sans Serif', 'Lucida Grande', 'Verdana', 'Geneva', 'Lucid', 'Arial', 'Helvetica', 'Avant Garde', sans-serif; text-anchor: middle" x="63.654545" y="77.15875" transform="rotate(-0 63.654545 77.15875)">3</text>
     </g>
    </g>
    <g id="xtick_5">
     <g id="line2d_5">
      <g>
       <use xlink:href="#mc4663faad5" x="77.181818" y="64.08" style="stroke: #000000; stroke-width: 0.8"/>
      </g>
     </g>
     <g id="text_5">
      <text style="font: 8px 'DejaVu Sans', 'Bitstream Vera Sans', 'Computer Modern Sans Serif', 'Lucida Grande', 'Verdana', 'Geneva', 'Lucid', 'Arial', 'Helvetica', 'Avant Garde', sans-serif; text-anchor: middle" x="77.181818" y="77.15875" transform="rotate(-0 77.181818 77.15875)">4</text>
     </g>
    </g>
    <g id="xtick_6">
     <g id="line2d_6">
      <g>
       <use xlink:href="#mc4663faad5" x="90.709091" y="64.08" style="stroke: #000000; stroke-width: 0.8"/>
      </g>
     </g>
     <g id="text_6">
      <text style="font: 8px 'DejaVu Sans', 'Bitstream Vera Sans', 'Computer Modern Sans Serif', 'Lucida Grande', 'Verdana', 'Geneva', 'Lucid', 'Arial', 'Helvetica', 'Avant Garde', sans-serif; text-anchor: middle" x="90.709091" y="77.15875" transform="rotate(-0 90.709091 77.15875)">5</text>
     </g>
    </g>
    <g id="xtick_7">
     <g id="line2d_7">
      <g>
       <use xlink:href="#mc4663faad5" x="104.236364" y="64.08" style="stroke: #000000; stroke-width: 0.8"/>
      </g>
     </g>
     <g id="text_7">
      <text style="font: 8px 'DejaVu Sans', 'Bitstream Vera Sans', 'Computer Modern Sans Serif', 'Lucida Grande', 'Verdana', 'Geneva', 'Lucid', 'Arial', 'Helvetica', 'Avant Garde', sans-serif; text-anchor: middle" x="104.236364" y="77.15875" transform="rotate(-0 104.236364 77.15875)">6</text>
     </g>
    </g>
    <g id="xtick_8">
     <g id="line2d_8">
      <g>
       <use xlink:href="#mc4663faad5" x="117.763636" y="64.08" style="stroke: #000000; stroke-width: 0.8"/>
      </g>
     </g>
     <g id="text_8">
      <text style="font: 8px 'DejaVu Sans', 'Bitstream Vera Sans', 'Computer Modern Sans Serif', 'Lucida Grande', 'Verdana', 'Geneva', 'Lucid', 'Arial', 'Helvetica', 'Avant Garde', sans-serif; text-anchor: middle" x="117.763636" y="77.15875" transform="rotate(-0 117.763636 77.15875)">7</text>
     </g>
    </g>
    <g id="text_9">
     <text style="font: 8px 'DejaVu Sans', 'Bitstream Vera Sans', 'Computer Modern Sans Serif', 'Lucida Grande', 'Verdana', 'Geneva', 'Lucid', 'Arial', 'Helvetica', 'Avant Garde', sans-serif; text-anchor: middle" x="73.8" y="88.90125" transform="rotate(-0 73.8 88.90125)">Lag (minutes)</text>
    </g>
   </g>
   <g id="matplotlib.axis_2">
    <g id="ytick_1">
     <g id="line2d_9">
      <defs>
       <path id="mc8ba5565d9" d="M 0 0 
L -3.5 0 
" style="stroke: #000000; stroke-width: 0.8"/>
      </defs>
      <g>
       <use xlink:href="#mc8ba5565d9" x="18" y="64.08" style="stroke: #000000; stroke-width: 0.8"/>
      </g>
     </g>
     <g id="text_10">
      <text style="font: 8px 'DejaVu Sans', 'Bitstream Vera Sans', 'Computer Modern Sans Serif', 'Lucida Grande', 'Verdana', 'Geneva', 'Lucid', 'Arial', 'Helvetica', 'Avant Garde', sans-serif; text-anchor: end" x="11" y="67.119375" transform="rotate(-0 11 67.119375)">−0.5</text>
     </g>
    </g>
    <g id="ytick_2">
     <g id="line2d_10">
      <g>
       <use xlink:href="#mc8ba5565d9" x="18" y="46.396843" style="stroke: #000000; stroke-width: 0.8"/>
      </g>
     </g>
     <g id="text_11">
      <text style="font: 8px 'DejaVu Sans', 'Bitstream Vera Sans', 'Computer Modern Sans Serif', 'Lucida Grande', 'Verdana', 'Geneva', 'Lucid', 'Arial', 'Helvetica', 'Avant Garde', sans-serif; text-anchor: end" x="11" y="49.436218" transform="rotate(-0 11 49.436218)">0.0</text>
     </g>
    </g>
    <g id="ytick_3">
     <g id="line2d_11">
      <g>
       <use xlink:href="#mc8ba5565d9" x="18" y="28.713686" style="stroke: #000000; stroke-width: 0.8"/>
      </g>
     </g>
     <g id="text_12">
      <text style="font: 8px 'DejaVu Sans', 'Bitstream Vera Sans', 'Computer Modern Sans Serif', 'Lucida Grande', 'Verdana', 'Geneva', 'Lucid', 'Arial', 'Helvetica', 'Avant Garde', sans-serif; text-anchor: end" x="11" y="31.753061" transform="rotate(-0 11 31.753061)">0.5</text>
     </g>
    </g>
    <g id="ytick_4">
     <g id="line2d_12">
      <g>
       <use xlink:href="#mc8ba5565d9" x="18" y="11.030529" style="stroke: #000000; stroke-width: 0.8"/>
      </g>
     </g>
     <g id="text_13">
      <text style="font: 8px 'DejaVu Sans', 'Bitstream Vera Sans', 'Computer Modern Sans Serif', 'Lucida Grande', 'Verdana', 'Geneva', 'Lucid', 'Arial', 'Helvetica', 'Avant Garde', sans-serif; text-anchor: end" x="11" y="14.069904" transform="rotate(-0 11 14.069904)">1.0</text>
     </g>
    </g>
    <g id="text_14">
     <text style="font: 8px 'DejaVu Sans', 'Bitstream Vera Sans', 'Computer Modern Sans Serif', 'Lucida Grande', 'Verdana', 'Geneva', 'Lucid', 'Arial', 'Helvetica', 'Avant Garde', sans-serif; text-anchor: middle" x="-14.09" y="36.36" transform="rotate(-90 -14.09 36.36)">Correlation</text>
    </g>
   </g>
   <g id="line2d_13">
    <path d="M 23.072727 11.030529 
L 24.2 13.989523 
L 25.327273 16.489682 
L 26.454545 19.25682 
L 27.581818 21.255363 
L 28.709091 23.788184 
L 29.836364 26.13716 
L 30.963636 28.264345 
L 32.090909 30.763214 
L 33.218182 32.205214 
L 34.345455 33.411794 
L 35.472727 33.791496 
L 36.6 34.532353 
L 37.727273 34.924067 
L 38.854545 34.575279 
L 39.981818 33.617007 
L 41.109091 32.764691 
L 42.236364 31.898562 
L 43.363636 31.300604 
L 44.490909 30.892788 
L 45.618182 30.70047 
L 46.745455 30.267297 
L 47.872727 30.182008 
L 49 30.536367 
L 50.127273 31.093399 
L 51.254545 32.037524 
L 52.381818 33.015287 
L 53.509091 34.159361 
L 54.636364 35.520306 
L 55.763636 36.829222 
L 56.890909 38.215698 
L 58.018182 39.56818 
L 59.145455 41.158682 
L 60.272727 42.635595 
L 61.4 43.625965 
L 62.527273 44.650331 
L 63.654545 45.228473 
L 64.781818 45.831437 
L 65.909091 46.051105 
L 67.036364 46.345953 
L 68.163636 45.807603 
L 69.290909 44.788713 
L 70.418182 44.375753 
L 71.545455 44.379561 
L 72.672727 45.0261 
L 73.8 45.712257 
L 74.927273 46.269755 
L 76.054545 46.8631 
L 77.181818 47.397946 
L 78.309091 48.016355 
L 79.436364 49.085166 
L 80.563636 50.080259 
L 81.690909 50.917823 
L 82.818182 51.832958 
L 83.945455 52.866625 
L 85.072727 53.298336 
L 86.2 53.512959 
L 87.327273 53.674935 
L 88.454545 53.867494 
L 89.581818 54.038122 
L 90.709091 54.486958 
L 91.836364 55.419613 
L 92.963636 56.139689 
L 94.090909 56.318191 
L 95.218182 56.33765 
L 96.345455 56.621538 
L 97.472727 56.918804 
L 98.6 57.271515 
L 99.727273 57.402549 
L 100.854545 57.376121 
L 101.981818 57.068277 
L 103.109091 57.131275 
L 104.236364 56.835722 
L 105.363636 56.979738 
L 106.490909 57.097352 
L 107.618182 57.531682 
L 108.745455 58.200316 
L 109.872727 58.841107 
L 111 58.75808 
L 112.127273 58.604022 
L 113.254545 58.568597 
L 114.381818 58.349772 
L 115.509091 57.877971 
L 116.636364 57.20802 
L 117.763636 56.393611 
L 118.890909 55.727682 
L 120.018182 55.359605 
L 121.145455 54.864187 
L 122.272727 54.648921 
L 123.4 54.16528 
L 124.527273 53.693154 
" clip-path="url(#p009884bda2)" style="fill: none; stroke: #1f77b4; stroke-width: 2; stroke-linecap: square"/>
   </g>
   <g id="line2d_14">
    <path d="M 23.072727 11.030529 
L 24.2 17.327076 
L 25.327273 21.872469 
L 26.454545 26.308519 
L 27.581818 32.119776 
L 28.709091 36.901202 
L 29.836364 40.638837 
L 30.963636 43.668411 
L 32.090909 45.981926 
L 33.218182 48.308478 
L 34.345455 49.787647 
L 35.472727 50.014729 
L 36.6 49.608352 
L 37.727273 49.906544 
L 38.854545 48.73794 
L 39.981818 48.864996 
L 41.109091 48.327038 
L 42.236364 49.317531 
L 43.363636 48.260028 
L 44.490909 47.703634 
L 45.618182 47.260212 
L 46.745455 46.537433 
L 47.872727 46.428053 
L 49 46.587752 
L 50.127273 45.806755 
L 51.254545 46.024313 
L 52.381818 44.754275 
L 53.509091 44.124372 
L 54.636364 44.401311 
L 55.763636 44.320287 
L 56.890909 43.884424 
L 58.018182 44.954575 
L 59.145455 44.010759 
L 60.272727 44.542253 
L 61.4 45.091977 
L 62.527273 44.956151 
L 63.654545 46.857767 
L 64.781818 47.63155 
L 65.909091 47.395449 
L 67.036364 48.476711 
L 68.163636 48.208061 
L 69.290909 47.790383 
L 70.418182 47.201251 
L 71.545455 48.361476 
L 72.672727 48.44328 
L 73.8 47.490314 
L 74.927273 45.735853 
L 76.054545 44.656117 
L 77.181818 43.131904 
L 78.309091 41.364489 
L 79.436364 40.872458 
L 80.563636 41.162697 
L 81.690909 41.288569 
L 82.818182 40.348483 
L 83.945455 40.158914 
L 85.072727 41.84426 
L 86.2 41.762981 
L 87.327273 42.799036 
L 88.454545 44.468254 
L 89.581818 46.967194 
L 90.709091 48.864429 
L 91.836364 50.836019 
L 92.963636 52.370178 
L 94.090909 53.834926 
L 95.218182 54.663589 
L 96.345455 55.030108 
L 97.472727 55.460218 
L 98.6 54.350098 
L 99.727273 52.8392 
L 100.854545 52.124761 
L 101.981818 49.841895 
L 103.109091 48.007057 
L 104.236364 46.649129 
L 105.363636 44.925853 
L 106.490909 43.500576 
L 107.618182 42.441841 
L 108.745455 41.67311 
L 109.872727 41.293437 
L 111 41.497615 
L 112.127273 41.678113 
L 113.254545 41.807191 
L 114.381818 42.67429 
L 115.509091 43.345445 
L 116.636364 43.864256 
L 117.763636 44.765784 
L 118.890909 46.082792 
L 120.018182 46.388475 
L 121.145455 46.726338 
L 122.272727 46.990321 
L 123.4 46.621482 
L 124.527273 46.792062 
" clip-path="url(#p009884bda2)" style="fill: none; stroke: #ff7f0e; stroke-width: 2; stroke-linecap: square"/>
   </g>
   <g id="line2d_15">
    <path d="M 23.072727 36.962906 
L 24.2 36.603674 
L 25.327273 36.489866 
L 26.454545 36.970384 
L 27.581818 37.815466 
L 28.709091 39.172659 
L 29.836364 40.45623 
L 30.963636 41.969695 
L 32.090909 42.599259 
L 33.218182 42.666602 
L 34.345455 43.503279 
L 35.472727 43.808027 
L 36.6 44.597099 
L 37.727273 44.71728 
L 38.854545 44.57921 
L 39.981818 43.902076 
L 41.109091 43.525618 
L 42.236364 41.349483 
L 43.363636 39.528192 
L 44.490909 38.536465 
L 45.618182 36.740588 
L 46.745455 34.870086 
L 47.872727 33.420821 
L 49 32.347898 
L 50.127273 32.027317 
L 51.254545 31.843582 
L 52.381818 32.318081 
L 53.509091 33.546394 
L 54.636364 34.961661 
L 55.763636 36.793489 
L 56.890909 39.149808 
L 58.018182 41.310578 
L 59.145455 42.255263 
L 60.272727 42.777549 
L 61.4 43.480047 
L 62.527273 43.673132 
L 63.654545 44.437174 
L 64.781818 45.251911 
L 65.909091 45.593552 
L 67.036364 44.416509 
L 68.163636 43.37799 
L 69.290909 42.38057 
L 70.418182 41.372989 
L 71.545455 40.505982 
L 72.672727 39.531075 
L 73.8 39.724972 
L 74.927273 39.662679 
L 76.054545 39.68777 
L 77.181818 40.468678 
L 78.309091 41.239255 
L 79.436364 41.023116 
L 80.563636 41.042048 
L 81.690909 41.340473 
L 82.818182 41.112501 
L 83.945455 40.854599 
L 85.072727 39.896418 
L 86.2 40.153833 
L 87.327273 40.118239 
L 88.454545 40.05345 
L 89.581818 40.29013 
L 90.709091 40.619828 
L 91.836364 41.560729 
L 92.963636 42.27504 
L 94.090909 43.203112 
L 95.218182 44.661763 
L 96.345455 45.648646 
L 97.472727 45.685238 
L 98.6 45.196556 
L 99.727273 45.74506 
L 100.854545 45.846711 
L 101.981818 46.451607 
L 103.109091 46.178341 
L 104.236364 46.398551 
L 105.363636 46.66393 
L 106.490909 46.266569 
L 107.618182 46.589089 
L 108.745455 46.836911 
L 109.872727 47.634954 
L 111 48.553209 
L 112.127273 49.69846 
L 113.254545 50.934057 
L 114.381818 50.605426 
L 115.509091 50.443932 
L 116.636364 50.74937 
L 117.763636 51.684897 
L 118.890909 51.795885 
L 120.018182 52.907361 
L 121.145455 53.547207 
L 122.272727 53.562715 
L 123.4 53.658429 
L 124.527273 53.689859 
" clip-path="url(#p009884bda2)" style="fill: none; stroke: #2ca02c; stroke-width: 2; stroke-linecap: square"/>
   </g>
   <g id="patch_3">
    <path d="M 18 64.08 
L 18 8.64 
" style="fill: none; stroke: #000000; stroke-width: 0.8; stroke-linejoin: miter; stroke-linecap: square"/>
   </g>
   <g id="patch_4">
    <path d="M 129.6 64.08 
L 129.6 8.64 
" style="fill: none; stroke: #000000; stroke-width: 0.8; stroke-linejoin: miter; stroke-linecap: square"/>
   </g>
   <g id="patch_5">
    <path d="M 18 64.08 
L 129.6 64.08 
" style="fill: none; stroke: #000000; stroke-width: 0.8; stroke-linejoin: miter; stroke-linecap: square"/>
   </g>
   <g id="patch_6">
    <path d="M 18 8.64 
L 129.6 8.64 
" style="fill: none; stroke: #000000; stroke-width: 0.8; stroke-linejoin: miter; stroke-linecap: square"/>
   </g>
   <g id="legend_1">
    <g id="patch_7">
     <path d="M 56.38875 50.2675 
L 124 50.2675 
Q 125.6 50.2675 125.6 48.6675 
L 125.6 14.24 
Q 125.6 12.64 124 12.64 
L 56.38875 12.64 
Q 54.78875 12.64 54.78875 14.24 
L 54.78875 48.6675 
Q 54.78875 50.2675 56.38875 50.2675 
z
" style="fill: #ffffff; opacity: 0.8; stroke: #cccccc; stroke-linejoin: miter"/>
    </g>
    <g id="line2d_16">
     <path d="M 57.98875 19.11875 
L 65.98875 19.11875 
L 73.98875 19.11875 
" style="fill: none; stroke: #1f77b4; stroke-width: 2; stroke-linecap: square"/>
    </g>
    <g id="text_15">
     <text style="font: 8px 'DejaVu Sans', 'Bitstream Vera Sans', 'Computer Modern Sans Serif', 'Lucida Grande', 'Verdana', 'Geneva', 'Lucid', 'Arial', 'Helvetica', 'Avant Garde', sans-serif; text-anchor: start" x="80.38875" y="21.91875" transform="rotate(-0 80.38875 21.91875)">Patch 1</text>
    </g>
    <g id="line2d_17">
     <path d="M 57.98875 30.86125 
L 65.98875 30.86125 
L 73.98875 30.86125 
" style="fill: none; stroke: #ff7f0e; stroke-width: 2; stroke-linecap: square"/>
    </g>
    <g id="text_16">
     <text style="font: 8px 'DejaVu Sans', 'Bitstream Vera Sans', 'Computer Modern Sans Serif', 'Lucida Grande', 'Verdana', 'Geneva', 'Lucid', 'Arial', 'Helvetica', 'Avant Garde', sans-serif; text-anchor: start" x="80.38875" y="33.66125" transform="rotate(-0 80.38875 33.66125)">Patch 2</text>
    </g>
    <g id="line2d_18">
     <path d="M 57.98875 42.60375 
L 65.98875 42.60375 
L 73.98875 42.60375 
" style="fill: none; stroke: #2ca02c; stroke-width: 2; stroke-linecap: square"/>
    </g>
    <g id="text_17">
     <text style="font: 8px 'DejaVu Sans', 'Bitstream Vera Sans', 'Computer Modern Sans Serif', 'Lucida Grande', 'Verdana', 'Geneva', 'Lucid', 'Arial', 'Helvetica', 'Avant Garde', sans-serif; text-anchor: start" x="80.38875" y="45.40375" transform="rotate(-0 80.38875 45.40375)">Cross corr.</text>
    </g>
   </g>
  </g>
 </g>
 <defs>
  <clipPath id="p009884bda2">
   <rect x="18" y="8.64" width="111.6" height="55.44"/>
  </clipPath>
 </defs>
</svg>
